<svg width="24" height="24" fill="none" xmlns="http://www.w3.org/2000/svg"><path fill="currentColor" d="M12.25 17V6.86h4.93c.65 0 1.24.06 1.77.17.53.11 1 .27 1.42.48a4.28 4.28 0 0 1 2.3 2.95 6.21 6.21 0 0 1-.47 3.98 4.44 4.44 0 0 1-1.9 1.85c-.42.23-.9.4-1.45.53a8.2 8.2 0 0 1-1.81.18h-4.79Zm4.47-1.65c.48 0 .9-.04 1.28-.11.37-.08.7-.19.98-.33a2.53 2.53 0 0 0 1.19-1.19c.12-.26.2-.54.26-.84a5.29 5.29 0 0 0 0-1.9 3.5 3.5 0 0 0-.26-.83 2.52 2.52 0 0 0-1.2-1.2c-.27-.14-.6-.25-.97-.32-.38-.08-.8-.11-1.28-.11h-2.23v6.83h2.23ZM1.9 14.91a11.5 11.5 0 0 0 3.58.62c.43 0 .82-.04 1.15-.11.34-.08.62-.18.85-.31.23-.13.4-.29.52-.46a1.02 1.02 0 0 0 .01-1.15 1.51 1.51 0 0 0-.5-.5 2.96 2.96 0 0 0-.88-.35 5.06 5.06 0 0 0-1.23-.13H4.12V10.9H5.4c.4 0 .74-.04 1.03-.1.29-.06.53-.15.72-.27a1.02 1.02 0 0 0 .56-.93.77.77 0 0 0-.08-.33.95.95 0 0 0-.22-.3c-.1-.1-.22-.18-.35-.25a3.6 3.6 0 0 0-1.62-.34 6.87 6.87 0 0 0-1.72.2 8.84 8.84 0 0 0-1.57.5V7.4a4.91 4.91 0 0 1 .94-.4 7.12 7.12 0 0 1 1.82-.34 8.4 8.4 0 0 1 2.53.17 4.7 4.7 0 0 1 1.4.56c.38.24.68.53.88.87a2.14 2.14 0 0 1-.16 2.44c-.15.2-.35.37-.59.53-.24.16-.51.3-.83.41.41.12.77.27 1.07.44.3.16.55.35.75.57a2.09 2.09 0 0 1 .59 1.47 2.46 2.46 0 0 1-.55 1.55c-.18.23-.4.44-.68.63-.27.19-.6.35-.96.49a6.7 6.7 0 0 1-1.24.31 12.48 12.48 0 0 1-3.7-.08 8.5 8.5 0 0 1-1.52-.44V14.9Z"/></svg>