<svg width="48" height="48" fill="none" xmlns="http://www.w3.org/2000/svg"><path fill="currentColor" d="M24.98 34V14.66h5.61c1.99 0 3.6.4 4.86 1.22a6.9 6.9 0 0 1 2.72 3.36c.57 1.43.86 3.12.86 5.06 0 1.96-.3 3.66-.88 5.1a7.02 7.02 0 0 1-2.8 3.38A9.3 9.3 0 0 1 30.31 34h-5.34Zm5.42-1.44a7.2 7.2 0 0 0 3.94-.97 5.56 5.56 0 0 0 2.22-2.79c.47-1.2.7-2.7.7-4.44 0-1.77-.22-3.26-.68-4.48a5.47 5.47 0 0 0-2.22-2.8 7.4 7.4 0 0 0-4.04-.97h-3.65v16.45h3.73Zm-20.76-.78a12.12 12.12 0 0 0 5.02 1.04c1.17 0 2.13-.17 2.89-.53.75-.35 1.3-.84 1.65-1.47.36-.62.53-1.34.53-2.16 0-.85-.17-1.56-.51-2.15a3.26 3.26 0 0 0-1.66-1.33 7.94 7.94 0 0 0-2.98-.47H13v-1.42h1.5c.9 0 1.68-.14 2.32-.44a3.3 3.3 0 0 0 1.5-1.28c.33-.55.5-1.22.5-2a3.45 3.45 0 0 0-1.92-3.24 4.95 4.95 0 0 0-2.3-.49c-.74 0-1.5.1-2.3.3-.8.2-1.5.47-2.13.8v-1.48a10.14 10.14 0 0 1 4.49-1.06c1.21 0 2.26.2 3.16.61a4.6 4.6 0 0 1 2.77 4.52c0 1-.24 1.88-.71 2.61a4.2 4.2 0 0 1-2.04 1.63c1.26.33 2.18.93 2.77 1.78.59.85.88 1.88.88 3.08 0 1.13-.25 2.12-.75 2.96-.5.85-1.27 1.5-2.3 1.97-1.02.47-2.29.7-3.8.7-1.03 0-1.96-.08-2.8-.25a9.11 9.11 0 0 1-2.2-.73v-1.5Z"/></svg>