<svg width="24" height="24" fill="none" xmlns="http://www.w3.org/2000/svg"><path fill="currentColor" d="M12.5 17V6.86h4.02c.6 0 1.14.06 1.65.16.5.11.96.27 1.37.47a4.45 4.45 0 0 1 2.36 3 6.14 6.14 0 0 1 0 2.85 4.71 4.71 0 0 1-1.3 2.25 5.45 5.45 0 0 1-2.46 1.24 7.4 7.4 0 0 1-1.62.17H12.5Zm4.12-1.18c.44 0 .85-.04 1.22-.13.37-.08.7-.21 1-.37a3.12 3.12 0 0 0 1.31-1.37c.15-.29.26-.6.34-.94a5.12 5.12 0 0 0-.34-3.1 3.2 3.2 0 0 0-1.32-1.36 3.9 3.9 0 0 0-1-.38 5.2 5.2 0 0 0-1.2-.13h-2.7v7.78h2.69ZM2.6 15.39a16.28 16.28 0 0 0 1.57.38 12.85 12.85 0 0 0 1.97.17c.4 0 .8-.04 1.16-.1.36-.08.68-.19.95-.33.27-.14.48-.32.63-.53.16-.21.24-.46.24-.75 0-.28-.07-.54-.2-.77a1.72 1.72 0 0 0-.6-.6 3.1 3.1 0 0 0-.97-.39 5.9 5.9 0 0 0-1.34-.13H4.79v-1.16h1.22c.4 0 .77-.04 1.09-.1.32-.08.6-.18.82-.32.23-.14.4-.32.52-.53a1.54 1.54 0 0 0 .1-1.26 1.24 1.24 0 0 0-.27-.39 1.63 1.63 0 0 0-.4-.3 3.65 3.65 0 0 0-1.76-.38 10.13 10.13 0 0 0-3.3.58v-1.2a6.16 6.16 0 0 1 1.52-.43 9.27 9.27 0 0 1 3.43.03c.5.11.91.29 1.26.52a2.32 2.32 0 0 1 1.08 2 2.35 2.35 0 0 1-.96 1.9c-.2.16-.43.3-.7.4.34.12.64.26.9.43.27.17.5.37.68.59a2.4 2.4 0 0 1 .02 3.07A3.35 3.35 0 0 1 8.5 16.8a8.26 8.26 0 0 1-2.4.37 11.99 11.99 0 0 1-2.8-.34 7.8 7.8 0 0 1-.7-.22v-1.22Z"/></svg>