<svg width="16" height="16" fill="none" xmlns="http://www.w3.org/2000/svg"><path fill="currentColor" d="M8 11V5.04h2.9a4.77 4.77 0 0 1 1.88.38 2.52 2.52 0 0 1 1.34 1.73 3.66 3.66 0 0 1-.27 2.34 2.61 2.61 0 0 1-1.11 1.1c-.25.13-.54.23-.86.3-.32.07-.67.11-1.06.11H8Zm2.63-.97a3.42 3.42 0 0 0 1.33-.26 1.51 1.51 0 0 0 .7-.7c.07-.15.12-.31.15-.5a3.1 3.1 0 0 0-.15-1.6 1.48 1.48 0 0 0-.7-.7 2.28 2.28 0 0 0-.58-.2 3.84 3.84 0 0 0-.75-.06H9.32v4.02h1.3ZM2 9.77a6.78 6.78 0 0 0 2.1.37c.26 0 .49-.03.69-.07.2-.04.36-.1.5-.18a.9.9 0 0 0 .3-.27.6.6 0 0 0 .1-.34.65.65 0 0 0-.1-.34.89.89 0 0 0-.3-.29 2.6 2.6 0 0 0-1.23-.29H3.3v-.95h.75c.23 0 .44-.02.6-.06.18-.03.32-.09.43-.15.11-.07.2-.15.25-.24a.6.6 0 0 0 .08-.3.45.45 0 0 0-.05-.21.56.56 0 0 0-.13-.18.93.93 0 0 0-.2-.14 2.12 2.12 0 0 0-.95-.2 4.04 4.04 0 0 0-1.01.11 5.2 5.2 0 0 0-.93.3v-.99a2.89 2.89 0 0 1 .55-.22 4.19 4.19 0 0 1 1.07-.2 4.94 4.94 0 0 1 1.5.1c.31.07.59.18.81.32.23.14.4.32.52.52A1.26 1.26 0 0 1 6.5 7.3c-.1.11-.2.22-.35.31-.14.1-.3.18-.49.24.24.07.45.16.63.26s.33.21.44.33a1.23 1.23 0 0 1 .35.87 1.45 1.45 0 0 1-.32.91c-.1.14-.24.26-.4.37-.16.12-.35.21-.57.3a5.52 5.52 0 0 1-2.31.22A6.15 6.15 0 0 1 2 10.75v-.99Z"/></svg>