<svg width="24" height="24" fill="none" xmlns="http://www.w3.org/2000/svg"><path fill="currentColor" d="M16.23 1.28a2.57 2.57 0 0 1 3.49.74l4.27 6.63L21.92 10H20.3a3.4 3.4 0 0 1-1.28-.21L17.5 6.75 16.17 9.4a3.21 3.21 0 0 1-1.66.6l-.02-.01c-.95 0-1.57-.23-1.94-.6-.35-.36-.56-.92-.55-1.78v-.13l-1-.02v.12a2.5 2.5 0 0 1-.4 1.34c-.22.33-.52.57-.84.73a3.25 3.25 0 0 1-1.25.34H6.5L5.28 8.37l10.95-7.09Z"/><path fill="currentColor" d="m15.44 10.85-2.51 5.03-.05.04c-1.11.73-2.62.5-3.38-.62l-.12-.15-2.52 1.52-3.07-4.3L5.85 11H8.5l.16-.01a4.22 4.22 0 0 0 1.55-.44c.42-.22.85-.54 1.2-1.03.1.21.25.4.43.58a3.79 3.79 0 0 0 3.6.75Zm2.06-1.87L24 22H10.99l6.5-13.02ZM17 17h1v-3h-1v3Zm0 3h1v-2h-1v2ZM4.06 14.89l.44.61.44.61-.02.01-.09.07-.35.32c-.3.3-.7.76-1.1 1.4A11.15 11.15 0 0 0 1.75 24H.25c0-3.16.92-5.42 1.87-6.9a9.67 9.67 0 0 1 1.92-2.2h.02v-.01Z"/></svg>