<svg width="24" height="24" fill="none" xmlns="http://www.w3.org/2000/svg"><path fill="currentColor" d="M19.72 2.02a2.57 2.57 0 0 0-3.5-.74L5.29 8.38 6.5 10h2c.12 0 .7-.06 1.26-.34.32-.16.62-.4.84-.73.3-.44.38-.94.4-1.46l1 .02c0 .67.06 1.4.55 1.9.37.38.99.6 1.94.61.8-.03 1.65-.38 2.1-1.05.3-.45.37-.95.4-1.47l1 .03c0 .67-.01 1.38.47 1.9.34.36.91.59 1.84.59h1.62L24 8.65l-4.27-6.62Z"/><path fill="currentColor" d="M20.4 11c-.96 0-1.98-.18-2.67-.9a2.48 2.48 0 0 1-.36-.51 3.2 3.2 0 0 1-1.16.97 4.3 4.3 0 0 1-1.54.43 3.79 3.79 0 0 1-2.82-.89 2.6 2.6 0 0 1-.44-.58 3.2 3.2 0 0 1-1.2 1.03 4.25 4.25 0 0 1-1.7.45H5.85l-2.06 1.37 3.07 4.3 2.52-1.52.12.15a2.43 2.43 0 0 0 3.38.62L20.39 11ZM4.06 14.89a7.95 7.95 0 0 0-1.94 2.2A12.65 12.65 0 0 0 .25 24h1.5c0-2.85.83-4.83 1.63-6.1.42-.66.93-1.31 1.56-1.79l-.88-1.22Z"/></svg>