<svg width="48" height="48" fill="none" xmlns="http://www.w3.org/2000/svg"><path fill="currentColor" d="M38.42 3.83a2.46 2.46 0 0 0-3.39-.75L12.81 16.84l2.49 3.98-4.49 2.5 5.01 8.36 4.5-2.5.75 1.28a2.5 2.5 0 0 0 3.49.88L47.2 17.16 38.42 3.83ZM14.19 17.16 35.57 3.92c.65-.44 1.54-.24 2.01.46l8.22 12.47L40.77 20c-.67 0-1.66-.45-2.76-2.6-.09-.17-.21-.4-.52-.4h-.5v.5c-.01 1.56-.95 2.5-2.5 2.5-.43 0-1.33-.34-2.47-2.58-.1-.19-.22-.42-.53-.42h-.5v.5c-.01 1.61-.9 2.5-2.5 2.5-.56 0-1.44-.44-2.46-2.55-.1-.2-.22-.45-.54-.45h-.5v.5c-.01 1.56-.95 2.5-2.5 2.5-.52 0-1.38-.44-2.46-2.56-.11-.22-.23-.44-.54-.44h-.5v.5c-.03.9-1.61 2.12-2.82 2.83l-1.98-3.17Zm9.85 13.31a1.5 1.5 0 0 1-2.11-.53l-1.25-2.12-4.5 2.5-3.99-6.64 4.2-2.33.07-.04.23-.13a9.1 9.1 0 0 0 2.88-2.48c.58.98 1.59 2.3 2.91 2.3 1.57 0 2.73-.76 3.23-2.03.85 1.35 1.78 2.03 2.77 2.03 1.61 0 2.77-.76 3.25-2.05.87 1.36 1.8 2.05 2.75 2.05 1.59 0 2.76-.78 3.25-2.07.58.88 1.2 1.48 1.86 1.8l-15.56 9.75h.01ZM9.82 28.85c-.88.58-2.04 1.5-3.2 2.9C3.06 35.98 2 41.58 2 47h6.02c-.11-2.2.01-4.43.28-6.63.43-3.53 1.42-7.95 3.62-11.62l.75-1.25h-.04c-.99.4-1.94.77-2.82 1.35h.01Zm-2.5 11.4c-.33 2.66-.34 4.8-.33 5.75H3c.1-6.84 2.26-11.08 4.38-13.62a14.1 14.1 0 0 1 2.85-2.6 33.4 33.4 0 0 0-2.92 10.47h.01Z"/></svg>