<svg width="24" height="24" fill="none" xmlns="http://www.w3.org/2000/svg"><path fill="currentColor" d="M19.18 2.47c-.46-.68-1.45-.89-2.1-.45h-.01L6.72 8.63 7.75 10h.76a2.02 2.02 0 0 0 .36-.05c.25-.04.57-.13.9-.3.3-.15.6-.39.83-.72a2.5 2.5 0 0 0 .4-1.46l1 .02v.13c-.01.86.2 1.42.55 1.77.37.38.99.61 1.95.61v1c-1.1 0-2.02-.27-2.65-.9a2.6 2.6 0 0 1-.44-.58 3.2 3.2 0 0 1-1.2 1.03 4.25 4.25 0 0 1-1.68.45H8.5l-.01-.5v.5h-.85L5.2 12.63l1.93 2.7 2.48-1.48.68.85.02.02c.43.66 1.32.82 2 .36l.56.84c-1.11.73-2.62.5-3.38-.62l-.12-.15-2.52 1.52-3.07-4.3 3-2-1.51-2 11.25-7.19a2.57 2.57 0 0 1 3.49.74v.01l3.94 6.71-3.17 2.27-.58-.82 2.43-1.73-3.46-5.9ZM17.5 8.33 24 22H11l6.5-13.67ZM12.6 21h9.8l-4.9-10.33L12.6 21Zm-8.37-5.92a40.84 40.84 0 0 1 .54.84 1.62 1.62 0 0 0-.15.1l-.42.34c-.35.3-.82.78-1.3 1.43A10.4 10.4 0 0 0 1 24H0a11.3 11.3 0 0 1 2.1-6.8 9.75 9.75 0 0 1 2.12-2.11v-.01h.01ZM17 20v-2h1v2h-1Zm0-3v-3h1v3h-1Z"/></svg>