<svg width="24" height="24" fill="none" xmlns="http://www.w3.org/2000/svg"><path fill="currentColor" d="M1 0h19.5c.41 0 .8.14 1.08.42.28.28.42.67.42 1.08v5c0 .38-.12.73-.35 1 .23.27.35.62.35 1v6c0 .38-.12.73-.35 1 .23.27.35.62.35 1v6c0 .41-.14.8-.42 1.08a1.5 1.5 0 0 1-1.08.42H1V0Zm19.5 15c.19 0 .3-.06.37-.13s.13-.18.13-.37v-6c0-.19-.06-.3-.13-.37S20.7 8 20.5 8H19v7h1.5ZM18 1H2v22h16V1Zm1 22h1.5c.19 0 .3-.06.37-.13s.13-.18.13-.37v-6c0-.19-.06-.3-.13-.37S20.7 16 20.5 16H19v7Zm0-22v6h1.5c.19 0 .3-.06.37-.13S21 6.7 21 6.5v-5c0-.19-.06-.3-.13-.37S20.7 1 20.5 1H19ZM9.5 6C8.68 6 8 6.68 8 7.5v1c0 .82.68 1.5 1.5 1.5h1c.82 0 1.5-.68 1.5-1.5v-1c0-.82-.68-1.5-1.5-1.5h-1ZM7 7.5A2.5 2.5 0 0 1 9.5 5h1A2.5 2.5 0 0 1 13 7.5v1a2.5 2.5 0 0 1-2.5 2.5h-1A2.5 2.5 0 0 1 7 8.5v-1Zm-.83 5.67a.51.51 0 0 0-.17.33V17h8v-3.5a.5.5 0 0 0-.5-.5h-7a.51.51 0 0 0-.33.17Zm-.71-.71A1.5 1.5 0 0 1 6.5 12h7c.74 0 1.5.6 1.5 1.5V18H5v-4.5c0-.41.2-.78.46-1.04Z"/></svg>