<svg width="24" height="24" fill="none" xmlns="http://www.w3.org/2000/svg"><path fill="currentColor" d="M8 7.5v1c0 .82.68 1.5 1.5 1.5h1c.82 0 1.5-.68 1.5-1.5v-1c0-.82-.68-1.5-1.5-1.5h-1C8.68 6 8 6.68 8 7.5Zm-2 6V17h8v-3.5a.5.5 0 0 0-.5-.5h-7a.51.51 0 0 0-.33.17.51.51 0 0 0-.17.33Z"/><path fill="currentColor" d="M18 0H1v24h17V0ZM9.5 5h1A2.5 2.5 0 0 1 13 7.5v1a2.5 2.5 0 0 1-2.5 2.5h-1A2.5 2.5 0 0 1 7 8.5v-1A2.5 2.5 0 0 1 9.5 5Zm-3 7h7c.74 0 1.5.6 1.5 1.5V18H5v-4.5c0-.41.2-.78.46-1.04A1.5 1.5 0 0 1 6.5 12ZM19 24h1.5c.41 0 .8-.14 1.08-.42.28-.28.42-.67.42-1.08v-6c0-.17-.02-.34-.07-.5H19v8Zm2.93-9c.05-.16.07-.33.07-.5v-6c0-.17-.02-.34-.07-.5H19v7h2.93Zm0-8c.05-.16.07-.33.07-.5v-5c0-.41-.14-.8-.42-1.08A1.5 1.5 0 0 0 20.5 0H19v7h2.93Z"/></svg>