<svg width="16" height="16" fill="none" xmlns="http://www.w3.org/2000/svg"><path fill="currentColor" d="M0 0h14.83A1.13 1.13 0 0 1 16 1.17v13.66A1.13 1.13 0 0 1 14.83 16H0V0Zm1 1v14h11V1H1Zm12 0v14h1.83c.09 0 .12-.03.13-.04.01 0 .04-.04.04-.13V1.17c0-.09-.03-.12-.04-.13 0-.01-.04-.04-.13-.04H13ZM6.33 4.17A.84.84 0 0 0 5.5 5v.67c0 .45.38.83.83.83H7c.46 0 .83-.38.83-.83V5A.84.84 0 0 0 7 4.17h-.67ZM4.5 5c0-1 .82-1.83 1.83-1.83H7c1 0 1.83.82 1.83 1.83v.67c0 1-.82 1.83-1.83 1.83h-.67c-1 0-1.83-.82-1.83-1.83V5Zm-.27 3.9c-.06.05-.06.1-.06.1v2.17h5V9a.15.15 0 0 0-.05-.12.18.18 0 0 0-.12-.05H4.33l-.03.01a.26.26 0 0 0-.07.06Zm-.7-.71c.19-.2.47-.36.8-.36H9c.58 0 1.17.46 1.17 1.17v3.17h-7V9c0-.33.16-.62.35-.81Z"/></svg>