<svg width="48" height="48" fill="none" xmlns="http://www.w3.org/2000/svg"><path fill="currentColor" d="M4 2h36.5A2.5 2.5 0 0 1 43 4.5v10c0 .82-.4 1.54-1 2 .6.46 1 1.18 1 2v10c0 .82-.4 1.54-1 2 .6.46 1 1.18 1 2v11a2.5 2.5 0 0 1-2.5 2.5H4V2Zm33 43h3.5c.82 0 1.5-.68 1.5-1.5v-11c0-.82-.68-1.5-1.5-1.5H37v14Zm0-15h3.5c.82 0 1.5-.68 1.5-1.5v-10c0-.82-.68-1.5-1.5-1.5H37v13Zm0-14h3.5c.82 0 1.5-.68 1.5-1.5v-10c0-.82-.68-1.5-1.5-1.5H37v13ZM36 3H5v42h31V3Zm-17.5 9a2.45 2.45 0 0 0-2.5 2.5v3c0 1.42 1.08 2.5 2.5 2.5h3c1.42 0 2.5-1.08 2.5-2.5v-2.9c0-1.42-1.18-2.6-2.6-2.6h-2.9ZM15 14.5c0-1.98 1.52-3.5 3.5-3.5h2.9c1.98 0 3.6 1.62 3.6 3.6v2.9c0 1.98-1.52 3.5-3.5 3.5h-3a3.45 3.45 0 0 1-3.5-3.5v-3Zm-.5 9.5a2.45 2.45 0 0 0-2.5 2.5V35h16v-8.5c0-1.42-1.08-2.5-2.5-2.5h-11ZM11 26.5c0-1.98 1.52-3.5 3.5-3.5h11c1.98 0 3.5 1.52 3.5 3.5V36H11v-9.5Z"/></svg>