<svg width="48" height="48" fill="none" xmlns="http://www.w3.org/2000/svg"><path fill="currentColor" d="M18.49 11.15a45 45 0 0 1 4.1-.15c1.32 0 2.64.06 3.78.17 1.12.11 2.13.3 2.81.58.6.26 1.41.83 2.42 1.66 1 .82 2.22 1.93 3.66 3.31 3.47.47 5.74.94 7.19 1.43a8.5 8.5 0 0 1 2.83 1.56c.73.6 1.28 1.3 1.5 1.96.14.42.19.93.2 1.47.02.4.02.86.02 1.35v.9c0 .64-.32 1.27-.75 1.73a2.4 2.4 0 0 1-1.7.81l-2.47.04a4.86 4.86 0 0 1-4.83 4.37h-.04a4.9 4.9 0 0 1-4.88-4.4h-5.9v-1h6.87v.5a3.9 3.9 0 0 0 3.9 3.9h.05a3.86 3.86 0 0 0 3.86-3.87v-.49l3.42-.05h.01c.32 0 .68-.17.98-.5.3-.31.48-.7.48-1.04v-.93l-.01-1.28a4.45 4.45 0 0 0-.16-1.2 3.76 3.76 0 0 0-1.19-1.5 7.79 7.79 0 0 0-2.5-1.38 42.08 42.08 0 0 0-7.17-1.4l-.17-.03-.12-.11a67.67 67.67 0 0 0-3.72-3.38c-1-.83-1.72-1.31-2.17-1.5-.53-.24-1.4-.4-2.52-.52a40.5 40.5 0 0 0-3.69-.16 44 44 0 0 0-4 .14c-1.24.11-2.27.3-2.93.54-1.2.45-2.65 1.22-4.12 2l-.72.38c-.84.44-1.68.87-2.44 1.21-.75.34-1.47.6-2.07.7-.6.11-1.08.23-1.66.38l-.37.1a2.47 2.47 0 0 0-1.87 2.11L2 24.73a1.6 1.6 0 0 0 1.47 1.75h.03l3.4.58v.42a3.86 3.86 0 0 0 3.86 3.87h.08a3.86 3.86 0 0 0 3.86-3.87v-.5l5.86-.04v1l-4.89.04a4.86 4.86 0 0 1-4.83 4.37h-.08A4.86 4.86 0 0 1 5.9 27.9l-2.54-.44A2.6 2.6 0 0 1 1 24.66v-.01l.39-5.16a3.46 3.46 0 0 1 2.62-3.01l.36-.1c.59-.14 1.1-.28 1.76-.39.47-.08 1.09-.3 1.82-.63s1.54-.74 2.39-1.19l.7-.37a42.56 42.56 0 0 1 4.24-2.06c.8-.3 1.94-.48 3.2-.6Zm5 5.78 5.26 5.25-.71.71L24 18.85v17.17l4.04-4.05.7.71-5.24 5.25-5.25-5.25.7-.7L23 36.01V18.85l-4.04 4.04-.71-.7 5.25-5.26Z"/></svg>