<svg width="24" height="24" fill="none" xmlns="http://www.w3.org/2000/svg"><path fill="currentColor" d="M11.28 4.86c.68 0 1.36.03 1.95.1.58.05 1.13.14 1.51.3.34.15.78.46 1.3.89.5.41 1.1.96 1.82 1.65 1.73.24 2.89.48 3.64.73.6.2 1.13.5 1.53.84.39.32.7.71.83 1.1.09.26.11.55.12.83v1.15c0 .41-.19.8-.44 1.06s-.62.49-1.05.49l-1.04.01a2.73 2.73 0 0 1-2.69 2.24h-.02a2.75 2.75 0 0 1-2.7-2.25h-3.79v2.69l1.22-1.22 1.06 1.06-3.03 3.03-3.03-3.03 1.06-1.06 1.22 1.22V14h-2.8a2.74 2.74 0 0 1-2.67 2.25h-.04c-1.36 0-2.5-1-2.7-2.3l-1.1-.2A1.57 1.57 0 0 1 0 12.07l.2-2.63c.06-.87.74-1.56 1.53-1.76l.18-.05c.3-.07.57-.15.92-.2.2-.04.5-.14.87-.3a21.98 21.98 0 0 0 1.56-.8c.75-.4 1.54-.81 2.2-1.06a6.88 6.88 0 0 1 1.7-.32c.65-.06 1.39-.08 2.1-.08ZM12 14V9.7l1.65 1.65.7-.7-2.85-2.86-2.85 2.86.7.7L11 9.71V14h1Z"/></svg>