<svg width="24" height="24" fill="none" xmlns="http://www.w3.org/2000/svg"><path fill="currentColor" fill-opacity=".01" d="M0 0h24v24H0z"/><path fill="currentColor" fill-rule="evenodd" d="M7 4.5A2.5 2.5 0 0 1 9.5 2H15v5h-1V3H9.5C8.67 3 8 3.67 8 4.5v15c0 .83.67 1.5 1.5 1.5H14v-4h1v5H9.5A2.5 2.5 0 0 1 7 19.5v-15ZM2 6H1V5h1v1Zm15-.8 6.18 6.8L17 18.8V15h-7v-1h8v2.2l3.82-4.2L18 7.8V10h-8V9h7V5.2ZM4 7H3V6h1v1Zm2 1H5V7h1v1Zm-4 2H1V9h1v1Zm2 1H3v-1h1v1Zm2 0H5v-1h1v1Zm-2 3H3v-1h1v1Zm2 0H5v-1h1v1Zm-4 1H1v-1h1v1Zm4 2H5v-1h1v1Zm-2 1H3v-1h1v1Zm-2 1H1v-1h1v1Z" clip-rule="evenodd"/></svg>