<svg width="24" height="24" fill="none" xmlns="http://www.w3.org/2000/svg"><path fill="currentColor" fill-opacity=".01" d="M0 0h24v24H0z"/><path fill="currentColor" fill-rule="evenodd" d="M9.5 2A2.5 2.5 0 0 0 7 4.5v15A2.5 2.5 0 0 0 9.5 22H15v-6.75h1.75v4.19L23.51 12l-6.76-7.44v4.19H15V2H9.5ZM15 9h-5v1h5V9Zm0 1.25v3.5h3.25v1.81L21.49 12l-3.24-3.56v1.81H15ZM15 14h-5v1h5v-1Z" clip-rule="evenodd"/><path fill="currentColor" d="M1 6.25h1.5v-1.5H1v1.5Zm3 2h1.5v-1.5H4v1.5Zm-3 2h1.5v-1.5H1v1.5Zm3 1h1.5v-1.5H4v1.5Zm0 3h1.5v-1.5H4v1.5Zm-3 1h1.5v-1.5H1v1.5Zm3 2h1.5v-1.5H4v1.5Zm-3 2h1.5v-1.5H1v1.5Z"/></svg>