<svg width="24" height="24" fill="none" xmlns="http://www.w3.org/2000/svg"><path fill="currentColor" d="M7 4.5A2.5 2.5 0 0 1 9.5 2H18v6.87c1-.03 2-.36 2.84-.98.6-.43 1.26-.76 1.94-.97l.44 1.44c-.52.16-1.03.4-1.5.75-1.1.8-2.4 1.22-3.7 1.26l-.03-1.25a5.31 5.31 0 0 1-3.27-1.02 6.32 6.32 0 0 0-4.8-1.12l.17.98a5.32 5.32 0 0 1 4.04.94A6.31 6.31 0 0 0 18 10.12v2.75c1-.03 2-.36 2.84-.98.6-.43 1.26-.76 1.94-.97l.44 1.44c-.52.16-1.03.4-1.5.75-1.1.8-2.4 1.22-3.7 1.26l-.03-1.25a5.31 5.31 0 0 1-3.27-1.02 6.32 6.32 0 0 0-4.8-1.12l.17.98a5.32 5.32 0 0 1 4.04.94A6.31 6.31 0 0 0 18 14.12v2.75c1-.03 2-.36 2.84-.98.6-.43 1.26-.76 1.94-.97l.44 1.44c-.52.16-1.03.4-1.5.75-1.1.8-2.4 1.22-3.7 1.26l-.03-1.25a5.31 5.31 0 0 1-3.27-1.02 6.32 6.32 0 0 0-4.8-1.12l.17.98a5.32 5.32 0 0 1 4.04.94A6.31 6.31 0 0 0 18 18.12V22H9.5A2.5 2.5 0 0 1 7 19.5v-15ZM2.5 7.75H1v1.5h1.5v-1.5Zm3 1H4v1.5h1.5v-1.5Zm-3 3H1v1.5h1.5v-1.5Zm3 1H4v1.5h1.5v-1.5Zm-3 3H1v1.5h1.5v-1.5Zm3 1H4v1.5h1.5v-1.5Z"/></svg>