<svg width="48" height="48" fill="none" xmlns="http://www.w3.org/2000/svg"><path fill="currentColor" fill-opacity=".01" d="M0 0h48v48H0z"/><path fill="currentColor" fill-rule="evenodd" d="M14 9.5A4.5 4.5 0 0 1 18.5 5H29v12h-1V6h-9.5A3.5 3.5 0 0 0 15 9.5v30a3.5 3.5 0 0 0 3.5 3.5H28V32h1v12H18.5a4.5 4.5 0 0 1-4.5-4.5v-30ZM3 12H2v-1h1v1Zm32 .2 11.18 12.3L35 36.8V30H20v-1h16v5.2l8.82-9.7L36 14.8V20H20v-1h15v-6.8ZM5 14H4v-1h1v1Zm2 1H6v-1h1v1Zm2 1H8v-1h1v1Zm2 0h-1v-1h1v1Zm2 0h-1v-1h1v1ZM3 20H2v-1h1v1Zm2 1H4v-1h1v1Zm2 0H6v-1h1v1Zm2 1H8v-1h1v1Zm2 0h-1v-1h1v1Zm2 0h-1v-1h1v1Zm-4 6H8v-1h1v1Zm2 0h-1v-1h1v1Zm2 0h-1v-1h1v1Zm-8 1H4v-1h1v1Zm2 0H6v-1h1v1Zm-4 1H2v-1h1v1Zm6 4H8v-1h1v1Zm2 0h-1v-1h1v1Zm2 0h-1v-1h1v1Zm-6 1H6v-1h1v1Zm-2 1H4v-1h1v1Zm-2 2H2v-1h1v1Z" clip-rule="evenodd"/></svg>