<svg width="16" height="16" fill="none" xmlns="http://www.w3.org/2000/svg"><path fill="currentColor" d="M11.12 1.86h.16c.68 0 1.36.03 1.95.1.58.05 1.13.14 1.51.3.3.13.66.38 1.07.7l-.62.8c-.4-.33-.68-.5-.84-.57-.24-.1-.65-.19-1.22-.24a23.5 23.5 0 0 0-3.89-.01 6 6 0 0 0-1.43.26c-.59.22-1.32.6-2.07 1l-.37.2c-.43.23-.87.45-1.26.62-.4.18-.78.33-1.12.38-.3.05-.53.11-.83.19l-.19.05c-.43.1-.75.48-.77.86L1 9.13c-.03.34.21.61.52.63h.03l1.95.34v.42c0 .96.77 1.73 1.73 1.73h.04c.95 0 1.73-.77 1.73-1.73v-.5h3v1H7.95a2.73 2.73 0 0 1-2.68 2.23h-.04c-1.36 0-2.5-1-2.7-2.3l-1.1-.2A1.57 1.57 0 0 1 0 9.07l.2-2.63c.06-.87.74-1.56 1.52-1.76l.18-.05c.3-.07.58-.15.93-.2.2-.04.5-.14.87-.3l1.2-.6.36-.2c.75-.4 1.54-.81 2.2-1.06a6.9 6.9 0 0 1 1.7-.32c.6-.05 1.29-.08 1.96-.08ZM13 11.02v-1h3v1h-3Z"/><path fill="currentColor" d="m11.5 4.8 2.85 2.85-.7.7L12 6.71v7.07l1.65-1.65.7.7-2.85 2.86-2.85-2.85.7-.7L11 13.77V6.7L9.35 8.35l-.7-.7 2.85-2.86Z"/></svg>