<svg width="24" height="24" fill="none" xmlns="http://www.w3.org/2000/svg"><path fill="currentColor" d="M7 4.5A2.5 2.5 0 0 1 9.5 2H18v5h-1V3H9.5C8.67 3 8 3.67 8 4.5v15c0 .83.67 1.5 1.5 1.5H17v-1h1v2H9.5A2.5 2.5 0 0 1 7 19.5v-15Zm7.13 4.4a5.32 5.32 0 0 0-4.04-.94l-.18-.98c1.65-.3 3.4.08 4.81 1.12a5.32 5.32 0 0 0 6.27 0c.58-.42 1.2-.74 1.86-.94l.3.96c-.55.17-1.08.43-1.57.78a6.32 6.32 0 0 1-7.45 0ZM1 8h1v1H1V8Zm2 1h1v1H3V9Zm2 0h1v1H5V9Zm9.13 3.9a5.32 5.32 0 0 0-4.04-.94l-.18-.98c1.65-.3 3.4.08 4.81 1.12a5.32 5.32 0 0 0 6.27 0c.58-.42 1.2-.74 1.86-.94l.3.96a5.3 5.3 0 0 0-1.57.78 6.32 6.32 0 0 1-7.45 0ZM1 12h1v1H1v-1Zm2 1h1v1H3v-1Zm2 0h1v1H5v-1Zm9.13 3.9a5.32 5.32 0 0 0-4.04-.94l-.18-.98c1.65-.3 3.4.08 4.81 1.12a5.32 5.32 0 0 0 6.27 0c.58-.42 1.2-.74 1.86-.94l.3.96a5.3 5.3 0 0 0-1.57.78 6.32 6.32 0 0 1-7.45 0ZM1 16h1v1H1v-1Zm2 1h1v1H3v-1Zm2 0h1v1H5v-1Z"/></svg>