<svg width="48" height="48" fill="none" xmlns="http://www.w3.org/2000/svg"><path fill="currentColor" d="M14 9.5A4.5 4.5 0 0 1 18.5 5H35v11h-1V6H18.5A3.5 3.5 0 0 0 15 9.5v30a3.5 3.5 0 0 0 3.5 3.5H34v-4h1v5H18.5a4.5 4.5 0 0 1-4.5-4.5v-30Zm14.56 8.4a11.13 11.13 0 0 0-8.47-1.97l-.18-.98c3.17-.56 6.52.16 9.24 2.15a11.14 11.14 0 0 0 13.13 0c1.1-.81 2.31-1.4 3.57-1.8l.3.96c-1.16.35-2.27.9-3.28 1.64a12.14 12.14 0 0 1-14.3 0ZM2 17h1v1H2v-1Zm2 1h1v1H4v-1Zm8 0h1v1h-1v-1Zm-6 1h1v1H6v-1Zm2 0h1v1H8v-1Zm2 0h1v1h-1v-1Zm18.56 6.9a11.13 11.13 0 0 0-8.47-1.97l-.18-.98c3.17-.56 6.52.16 9.24 2.15a11.14 11.14 0 0 0 13.13 0c1.1-.81 2.31-1.4 3.57-1.8l.3.96c-1.16.35-2.27.9-3.28 1.64a12.14 12.14 0 0 1-14.3 0ZM2 25h1v1H2v-1Zm2 1h1v1H4v-1Zm8 0h1v1h-1v-1Zm-6 1h1v1H6v-1Zm2 0h1v1H8v-1Zm2 0h1v1h-1v-1Zm18.56 6.9a11.13 11.13 0 0 0-8.47-1.97l-.18-.98c3.17-.56 6.52.16 9.24 2.15a11.14 11.14 0 0 0 13.13 0c1.1-.81 2.31-1.4 3.57-1.8l.3.96c-1.16.35-2.27.9-3.28 1.64a12.14 12.14 0 0 1-14.3 0ZM2 33h1v1H2v-1Zm2 1h1v1H4v-1Zm8 0h1v1h-1v-1Zm-6 1h1v1H6v-1Zm2 0h1v1H8v-1Zm2 0h1v1h-1v-1Z"/></svg>