<svg width="16" height="16" fill="none" xmlns="http://www.w3.org/2000/svg"><path fill="currentColor" fill-opacity=".01" d="M0 0h16v16H0z"/><path fill="currentColor" fill-rule="evenodd" d="M4 2.08C4 .93 4.93 0 6.08 0H12v3h-1V1H6.08C5.48 1 5 1.48 5 2.08v11.84c0 .6.48 1.08 1.08 1.08H11v-1h1v2H6.08A2.08 2.08 0 0 1 4 13.92V2.08Zm5 1.3 5.75 5.12L9 13.61V11H7v-1h3v1.39l3.25-2.89L10 5.61V7H7V6h2V3.39ZM0 4h1v1H0V4Zm2 1h1v1H2V5ZM0 8h1v1H0V8Zm2 0h1v1H2V8Zm0 3h1v1H2v-1Zm-2 1h1v1H0v-1Z" clip-rule="evenodd"/></svg>