<svg width="24" height="24" fill="none" xmlns="http://www.w3.org/2000/svg"><path fill="currentColor" d="M11.28 4.86c.68 0 1.36.03 1.95.1.58.05 1.13.14 1.51.3.34.15.78.46 1.3.89.5.41 1.1.96 1.82 1.65 1.73.24 2.89.48 3.64.73.6.2 1.13.5 1.53.84.39.32.7.71.83 1.1.09.26.11.55.12.83v1.15c0 .41-.19.8-.44 1.06s-.62.49-1.05.49l-1.04.01a2.73 2.73 0 0 1-2.69 2.24h-.02a2.75 2.75 0 0 1-2.7-2.25H13v-1h4v.5c0 .97.78 1.75 1.74 1.75h.02c.96 0 1.73-.77 1.73-1.73v-.5l2-.02c.07 0 .2-.05.32-.18a.59.59 0 0 0 .18-.37v-.18a67.97 67.97 0 0 1 0-.93 1.94 1.94 0 0 0-.08-.55 1.7 1.7 0 0 0-.53-.66c-.3-.25-.71-.5-1.2-.66-.68-.22-1.8-.46-3.61-.7l-.17-.02-.11-.12a29.7 29.7 0 0 0-1.89-1.7 5.32 5.32 0 0 0-1.05-.74c-.24-.1-.65-.19-1.22-.24a22.23 22.23 0 0 0-3.88-.01c-.63.05-1.12.14-1.43.26a19.8 19.8 0 0 0-2.44 1.2c-.43.22-.86.45-1.26.62-.39.18-.78.33-1.12.38-.3.05-.53.11-.82.19h-.04L2 8.65c-.43.1-.75.48-.78.86l-.2 2.63c-.02.34.22.61.52.63l1.98.34v.42c0 .96.77 1.73 1.73 1.73h.04c.95 0 1.73-.77 1.73-1.73v-.5L10 13v1l-2.04.02a2.73 2.73 0 0 1-2.68 2.23h-.04c-1.36 0-2.5-1-2.7-2.3l-1.1-.2A1.57 1.57 0 0 1 0 12.07l.2-2.63c.06-.87.74-1.56 1.53-1.76l.18-.05c.3-.07.57-.15.92-.2.2-.04.5-.14.87-.3a21.98 21.98 0 0 0 1.56-.8c.75-.4 1.54-.81 2.2-1.06a6.88 6.88 0 0 1 1.7-.32c.65-.06 1.39-.08 2.1-.08Z"/><path fill="currentColor" d="m14.35 10.65-.7.7L12 9.71v7.58l1.65-1.64.7.7-2.85 2.86-2.85-2.86.7-.7L11 17.29V9.71l-1.65 1.64-.7-.7 2.85-2.86 2.85 2.86Z"/></svg>