<svg width="16" height="16" fill="none" xmlns="http://www.w3.org/2000/svg"><path fill="currentColor" d="m14.59.38.26.27c.15.14.29.37.4.64.13.29.25.66.36 1.12.22.93.39 2.26.39 4.09s-.17 3.16-.39 4.09c-.1.46-.23.83-.35 1.12-.12.27-.26.5-.4.64l-.27.27-.33-.18a43.1 43.1 0 0 0-3.08-1.55c-.57-.25-1.13-.48-1.6-.64A3.9 3.9 0 0 0 8.5 10H6.7l2 6H4.13l-2-6H0V3h8.5c.21 0 .58-.08 1.07-.25.48-.16 1.04-.39 1.61-.64A43.14 43.14 0 0 0 14.26.56l.33-.18ZM9.89 3.7c-.5.17-1 .3-1.39.3H8v5h.5c.39 0 .89.13 1.4.3.52.18 1.1.42 1.7.68.97.44 1.98.95 2.73 1.35v-.02c.1-.22.21-.53.3-.95.2-.84.37-2.09.37-3.86s-.16-3.02-.36-3.86a5.63 5.63 0 0 0-.31-.98c-.75.4-1.76.92-2.74 1.36-.59.26-1.17.5-1.7.68ZM7 9V4H1v5h1.86l2 6h2.45l-2-6H7Z"/></svg>