<svg width="48" height="48" fill="none" xmlns="http://www.w3.org/2000/svg"><path fill="currentColor" d="M40.86 6H41c.74 0 1.34.48 1.8 1.15.47.67.86 1.63 1.18 2.8A37.82 37.82 0 0 1 45 19.5c0 3.93-.38 7.22-1.02 9.56a9.37 9.37 0 0 1-1.18 2.79c-.46.67-1.06 1.15-1.8 1.15h-.14l-.11-.07h-.01l-.02-.02a19.12 19.12 0 0 0-.42-.23c-.29-.16-.7-.4-1.24-.67a64.02 64.02 0 0 0-4.27-2.05C31.34 28.46 27.04 27 23.5 27h-5.3l5.5 16h-8.57l-5-16H3V12h20.5c3.54 0 7.84-1.46 11.29-2.96a64 64 0 0 0 5.93-2.96h.02v-.01l.12-.07Zm.26 1.01a34.98 34.98 0 0 1-1.6.87 64 64 0 0 1-4.33 2.08c-3.32 1.44-7.54 2.9-11.19 3.03v13.02c3.65.13 7.87 1.6 11.19 3.03A64.96 64.96 0 0 1 41.12 32c.24-.05.53-.24.86-.7.38-.55.73-1.39 1.04-2.5.6-2.21.98-5.42.98-9.29 0-3.87-.37-7.08-.98-9.3a8.42 8.42 0 0 0-1.04-2.48c-.33-.47-.62-.66-.86-.7ZM23 26V13H4v13h6.87l5 16h6.43l-5.5-16H23Z"/></svg>