<svg width="24" height="24" fill="none" xmlns="http://www.w3.org/2000/svg"><path fill="currentColor" d="M21.38 2h.12c.5 0 .9.27 1.2.65.31.37.55.9.73 1.52.37 1.25.57 3.06.57 5.33s-.2 4.08-.57 5.33a4.48 4.48 0 0 1-.72 1.52c-.3.38-.71.65-1.21.65h-.12l-.1-.05h-.02l-.05-.03a28.43 28.43 0 0 0-.93-.43 39.9 39.9 0 0 0-2.5-1.02c-2-.75-4.43-1.47-6.28-1.47H9.2l3 9H7.13l-3-9H0V5h11.5c1.85 0 4.28-.72 6.29-1.47a44.47 44.47 0 0 0 3.42-1.45l.05-.02h.02l.1-.06Zm.2 1.01a30.46 30.46 0 0 1-.9.42c-.63.28-1.52.66-2.54 1.04A23.3 23.3 0 0 1 12 5.99V13c1.95.11 4.28.83 6.14 1.52A45.55 45.55 0 0 1 21.59 16c.1-.03.2-.1.34-.26.19-.24.37-.62.54-1.18.33-1.13.53-2.82.53-5.05s-.2-3.92-.53-5.05a3.52 3.52 0 0 0-.54-1.18.82.82 0 0 0-.34-.26ZM11 13V6H1v7h3.86l3 9h2.95l-3-9H11Z"/></svg>