<svg width="24" height="24" fill="none" xmlns="http://www.w3.org/2000/svg"><path fill="currentColor" d="M17.5 0 24 13H10.99l6.5-13ZM17 8h1V5h-1v3Zm0 3h1V9h-1v2Z"/><path fill="currentColor" d="M9.37 14h7.8l1.03 5H5.8L7.9 8.74c0-.11.03-.24.1-.36a.7.7 0 0 1 .34-.3A1 1 0 0 1 8.66 8h3.71l-3 6Zm-4.99 6.24c.2-.16.47-.24.72-.24H19c.25 0 .51.08.72.24.21.17.38.43.38.76v2c0 .33-.17.6-.38.76-.2.16-.47.24-.72.24H5.1a1.2 1.2 0 0 1-.72-.24A.96.96 0 0 1 4 23v-2c0-.33.17-.6.38-.76ZM10.75 6V0h1.5v6h-1.5ZM3.44 2.58l4 4.1-1.08 1.04-4-4.1 1.08-1.04ZM5 13.25H0v-1.5h5v1.5Z"/></svg>