<svg width="24" height="24" fill="none" xmlns="http://www.w3.org/2000/svg"><path fill="currentColor" d="M11.5 6V0h1v6h-1ZM3.26 2.75l4 4.1-.72.7-4-4.1.72-.7Zm18.3.7-4 4.1-.72-.7 4-4.1.72.7ZM8.86 9 6.62 20H17.4L15.13 9H8.87ZM5.1 21a.2.2 0 0 0-.1.03v1.94l.04.02a.2.2 0 0 0 .06.01H19a.2.2 0 0 0 .1-.03v-1.94l-.04-.02A.2.2 0 0 0 19 21H5.1Zm.5-1L7.9 8.74c0-.11.03-.24.1-.36a.7.7 0 0 1 .34-.3A1 1 0 0 1 8.66 8h6.68a1 1 0 0 1 .32.08.7.7 0 0 1 .34.3c.07.12.1.25.1.36L18.4 20h.6c.25 0 .51.08.72.24.21.17.38.43.38.76v2c0 .33-.17.6-.38.76-.2.16-.47.24-.72.24H5.1a1.2 1.2 0 0 1-.72-.24A.96.96 0 0 1 4 23v-2c0-.33.17-.6.38-.76.2-.16.47-.24.72-.24h.5ZM5 13H0v-1h5v1Zm19 0h-5v-1h5v1Z"/></svg>