<svg width="24" height="24" fill="none" xmlns="http://www.w3.org/2000/svg"><path fill="currentColor" d="M11.25 0h1.5v6h-1.5V0ZM7.44 6.68 6.36 7.72l-4-4.1 1.08-1.04 4 4.1Zm10.3 1.04-1.08-1.04 4-4.1 1.08 1.04-4 4.1ZM0 13.25v-1.5h5v1.5H0Zm19 0v-1.5h5v1.5h-5Zm-2.9-4.51L18.2 19H5.8L7.9 8.74c0-.11.03-.24.1-.36a.7.7 0 0 1 .34-.3A1 1 0 0 1 8.66 8h6.68a1 1 0 0 1 .32.08.7.7 0 0 1 .34.3c.07.12.1.25.1.36ZM5.1 20H19c.25 0 .51.08.72.24.21.17.38.43.38.76v2c0 .33-.17.6-.38.76-.2.16-.47.24-.72.24H5.1a1.2 1.2 0 0 1-.72-.24A.96.96 0 0 1 4 23v-2c0-.33.17-.6.38-.76.2-.16.47-.24.72-.24Z"/></svg>