<svg width="24" height="24" fill="none" xmlns="http://www.w3.org/2000/svg"><path fill="currentColor" d="M11 6V0h1v6h-1ZM17.5.01 24 13H11L17.5.01ZM12.61 12h9.76L17.5 2.25 12.6 12ZM3.25 2.85l4 4-.7.7-4-4 .7-.7ZM17 8V5h1v3h-1ZM8.67 9 6.6 20h10.31l-.9-5.42.98-.16.93 5.58H19c.31 0 .58.15.77.33.18.19.33.46.33.77v1.8c0 .31-.15.58-.33.77A1.1 1.1 0 0 1 19 24H5.1a1.1 1.1 0 0 1-.77-.33A1.1 1.1 0 0 1 4 22.9v-1.8c0-.31.15-.58.33-.77.19-.18.46-.33.77-.33h.49L7.7 8.74a.78.78 0 0 1 .16-.42.78.78 0 0 1 .37-.26A1.76 1.76 0 0 1 8.8 8H11v1H8.67ZM17 11V9h1v2h-1ZM5 13H0v-1h5v1Zm0 8.1v1.8l.04.06a.18.18 0 0 0 .06.04H19l.06-.04a.18.18 0 0 0 .04-.06v-1.8a.18.18 0 0 0-.04-.06A.18.18 0 0 0 19 21H5.1a.18.18 0 0 0-.06.04.18.18 0 0 0-.04.06Z"/></svg>