<svg width="48" height="48" fill="none" xmlns="http://www.w3.org/2000/svg"><path fill="currentColor" d="M24 12V2h1v10h-1Zm11.5-9.53L46.35 22h-21.7L35.5 2.47ZM26.35 21h18.3L35.5 4.53 26.35 21Zm-17-14.35 7 7-.7.7-7-7 .7-.7Zm9.96 9.43a.7.7 0 0 0-.11.42v.05L15.5 36h18.31l-1.8-11.42.98-.16L34.83 36h1.67c.41 0 .8.14 1.08.42.28.28.42.67.42 1.08v4c0 .41-.14.8-.42 1.08a1.5 1.5 0 0 1-1.08.42h-24c-.41 0-.8-.14-1.08-.42A1.5 1.5 0 0 1 11 41.5v-4c0-.41.14-.8.42-1.08A1.5 1.5 0 0 1 12.5 36h1.99l3.71-19.55c0-.36.1-.71.32-.98.24-.3.58-.47.98-.47H26v1h-6.5c-.1 0-.16.03-.2.08ZM35 19v-2h1v2h-1Zm0-4V9h1v6h-1Zm-21 9H4v-1h10v1Zm-1.87 13.13c-.07.07-.13.18-.13.37v4c0 .19.06.3.13.37s.18.13.37.13h24c.19 0 .3-.06.37-.13s.13-.18.13-.37v-4c0-.19-.06-.3-.13-.37S36.7 37 36.5 37h-24c-.19 0-.3.06-.37.13Z"/></svg>