<svg width="48" height="48" fill="none" xmlns="http://www.w3.org/2000/svg"><path fill="currentColor" d="M25 2v10h-1V2h1Zm16.45 5.36-7.1 7-.7-.72 7.1-7 .7.72Zm-32.1-.71 7 7-.7.7-7-7 .7-.7Zm9.77 9.46a.68.68 0 0 0-.12.39v.05L15.2 36h18.5l-3.9-19.45v-.15a.4.4 0 0 0-.4-.4H19.3c-.06 0-.12.03-.18.1ZM12.5 37c-.19 0-.3.06-.37.13s-.13.18-.13.37v4c0 .19.06.3.13.37s.18.13.37.13h24c.19 0 .3-.06.37-.13s.13-.18.13-.37v-4c0-.19-.06-.3-.13-.37S36.7 37 36.5 37h-24Zm1.69-1L18 16.45c.01-.33.11-.66.3-.93.22-.3.56-.52 1-.52h10.1c.78 0 1.4.62 1.4 1.4v.05L34.71 36h1.79c.41 0 .8.14 1.08.42.28.28.42.67.42 1.08v4c0 .41-.14.8-.42 1.08a1.5 1.5 0 0 1-1.08.42h-24c-.41 0-.8-.14-1.08-.42A1.5 1.5 0 0 1 11 41.5v-4c0-.41.14-.8.42-1.08A1.5 1.5 0 0 1 12.5 36h1.69ZM14 25H4v-1h10v1Zm21-1h10v1H35v-1Z"/></svg>