<svg width="24" height="24" fill="none" xmlns="http://www.w3.org/2000/svg"><path fill="currentColor" d="M9.2 9a2 2 0 0 1-1.1-.33 2.99 2.99 0 0 0 0-3.34 2 2 0 0 1 2.2 0 2.99 2.99 0 0 0 0 3.34A2 2 0 0 1 9.2 9ZM7.6 7a2 2 0 0 1-.2.87 2 2 0 0 1 0-1.74 2 2 0 0 1 .2.87ZM6.2 7c0 .62.19 1.19.5 1.67a2 2 0 1 1 0-3.33c-.3.46-.5 1.03-.5 1.66Zm4.6 0a2 2 0 0 1 .2-.87 2 2 0 0 1 0 1.74 2 2 0 0 1-.2-.87Zm2 2a2 2 0 0 1-1.1-.33 2.99 2.99 0 0 0 0-3.34 2 2 0 0 1 2.2 0 2.99 2.99 0 0 0 0 3.34 2 2 0 0 1-1.1.33Zm1.6-2a2 2 0 0 1 .2-.87 2 2 0 0 1 0 1.74 2 2 0 0 1-.2-.87Zm2 2a2 2 0 0 1-1.1-.33 2.99 2.99 0 0 0 0-3.34A2 2 0 1 1 16.4 9Z"/><path fill="currentColor" d="M18.5.5c1.7 0 3 1.3 3 3v15c0 1.7-1.3 3-3 3h-15c-1.7 0-3-1.3-3-3v-15c0-1.7 1.3-3 3-3h15ZM5.6 4a3 3 0 1 0 1.8 5.4 2.99 2.99 0 0 0 3.6 0 2.99 2.99 0 0 0 3.6 0 3 3 0 1 0 0-4.8 2.99 2.99 0 0 0-3.6 0 2.99 2.99 0 0 0-3.6 0C6.9 4.22 6.28 4 5.6 4Z"/><path fill="currentColor" d="M24 3v15.75A5.2 5.2 0 0 1 18.75 24H3v-1.5h15.75a3.7 3.7 0 0 0 3.75-3.75V3H24Z"/></svg>