<svg width="24" height="24" fill="none" xmlns="http://www.w3.org/2000/svg"><path fill="currentColor" d="M3.5 1A2.45 2.45 0 0 0 1 3.5v15C1 19.92 2.08 21 3.5 21h15c1.42 0 2.5-1.08 2.5-2.5v-15C21 2.08 19.92 1 18.5 1h-15ZM0 3.5C0 1.52 1.52 0 3.5 0h15c1.67 0 3.02 1.1 3.4 2.63A3.78 3.78 0 0 1 24 6v14.2c0 2.08-1.72 3.8-3.8 3.8H6.1a3.78 3.78 0 0 1-3.36-2.08A3.44 3.44 0 0 1 0 18.5v-15ZM3.98 22c.52.62 1.3 1 2.12 1h14.1c1.52 0 2.8-1.28 2.8-2.8V6c0-.82-.38-1.6-1-2.12V18.5c0 1.98-1.52 3.5-3.5 3.5H3.98ZM2.6 7a3 3 0 0 1 4.8-2.4 2.99 2.99 0 0 1 3.6 0 2.99 2.99 0 0 1 3.6 0 3 3 0 1 1 0 4.8 2.99 2.99 0 0 1-3.6 0 2.99 2.99 0 0 1-3.6 0A3 3 0 0 1 2.6 7Zm5.5 1.67a2 2 0 0 0 2.2 0 2.99 2.99 0 0 1 0-3.34 2 2 0 0 0-2.2 0 2.99 2.99 0 0 1 0 3.34Zm-.7-2.54a2 2 0 0 0 0 1.74 2 2 0 0 0 0-1.74Zm-.7-.8a2 2 0 1 0 0 3.33 2.99 2.99 0 0 1 0-3.33Zm4.3.8a2 2 0 0 0 0 1.74 2 2 0 0 0 0-1.74Zm.7 2.54a2 2 0 0 0 2.2 0 2.99 2.99 0 0 1 0-3.34 2 2 0 0 0-2.2 0 2.99 2.99 0 0 1 0 3.34Zm2.9-2.54a2 2 0 0 0 0 1.74 2 2 0 0 0 0-1.74Zm.7 2.54a2 2 0 1 0 0-3.33 2.99 2.99 0 0 1 0 3.33Z"/></svg>