<svg width="16" height="16" fill="none" xmlns="http://www.w3.org/2000/svg"><path fill="currentColor" d="M2.36 1C1.58 1 1 1.58 1 2.36v9.28c0 .78.58 1.36 1.36 1.36h9.28c.78 0 1.36-.58 1.36-1.36V2.36C13 1.58 12.42 1 11.64 1H2.36ZM0 2.36A2.32 2.32 0 0 1 2.36 0h9.28c1.22 0 2.18.86 2.34 2.02A2.32 2.32 0 0 1 16 4.36v9.28A2.32 2.32 0 0 1 13.64 16H4.36a2.32 2.32 0 0 1-2.34-2.02A2.32 2.32 0 0 1 0 11.64V2.36ZM3.04 14c.15.6.67 1 1.32 1h9.28c.78 0 1.36-.58 1.36-1.36V4.36c0-.65-.4-1.17-1-1.32v8.6A2.32 2.32 0 0 1 11.64 14h-8.6Z"/></svg>