<svg width="48" height="48" fill="none" xmlns="http://www.w3.org/2000/svg"><path fill="currentColor" d="M6.5 4A2.45 2.45 0 0 0 4 6.5v29C4 36.92 5.08 38 6.5 38h29c1.42 0 2.5-1.08 2.5-2.5v-29C38 5.08 36.92 4 35.5 4h-29ZM3 6.5C3 4.52 4.52 3 6.5 3h29C37.48 3 39 4.52 39 6.5V9h2.5c1.98 0 3.5 1.52 3.5 3.5v29c0 1.98-1.52 3.5-3.5 3.5h-29A3.45 3.45 0 0 1 9 41.5V39H6.5A3.45 3.45 0 0 1 3 35.5v-29ZM10 39v2.5c0 1.42 1.08 2.5 2.5 2.5h29c1.42 0 2.5-1.08 2.5-2.5v-29c0-1.42-1.08-2.5-2.5-2.5H39v25.5c0 1.98-1.52 3.5-3.5 3.5H10ZM6 14.1a5.1 5.1 0 0 1 8.4-3.89 5.08 5.08 0 0 1 6.6 0 5.08 5.08 0 0 1 6.6 0 5.1 5.1 0 1 1 0 7.78 5.08 5.08 0 0 1-6.6 0 5.08 5.08 0 0 1-6.6 0A5.1 5.1 0 0 1 6 14.1Zm9.1 3.17a4.08 4.08 0 0 0 5.2 0 5.08 5.08 0 0 1 0-6.34 4.08 4.08 0 0 0-5.2 0 5.08 5.08 0 0 1 0 6.34Zm-.7-5.6a4.08 4.08 0 0 0 0 4.86 4.08 4.08 0 0 0 0-4.86Zm-.7-.74a4.1 4.1 0 1 0 0 6.34 5.08 5.08 0 0 1 0-6.34Zm7.3.74a4.08 4.08 0 0 0 0 4.86 4.08 4.08 0 0 0 0-4.86Zm.7 5.6a4.08 4.08 0 0 0 5.2 0 5.08 5.08 0 0 1 0-6.34 4.08 4.08 0 0 0-5.2 0 5.08 5.08 0 0 1 0 6.34Zm5.9-5.6a4.08 4.08 0 0 0 0 4.86 4.08 4.08 0 0 0 0-4.86Zm.7 5.6a4.1 4.1 0 1 0 0-6.34 5.08 5.08 0 0 1 0 6.34Z"/></svg>