<svg width="48" height="48" fill="none" xmlns="http://www.w3.org/2000/svg"><path fill="currentColor" d="m41.85 6.85-34 34-.7-.7 34-34 .7.7ZM24 10.57V22h-1v-9.57l-8 5.34V31H6V17h8.35L24 10.57ZM14 18H7v12h7V18Zm26.86 4.57c-.5-4-2.67-7.25-4.24-9.15l.76-.64c1.64 1.96 3.94 5.4 4.47 9.67.54 4.3-.73 9.4-6.1 14.6l-.7-.7c5.17-5.02 6.3-9.8 5.8-13.78Zm-8.04 1.36a10.72 10.72 0 0 0-1.62-5.17l.85-.52c.8 1.33 1.7 3.32 1.77 5.66.07 2.36-.7 5.04-3.15 7.74l-.74-.68c2.28-2.5 2.95-4.94 2.89-7.03ZM24 27v10.43L17.33 33l.55-.84L23 35.57V27h1Z"/></svg>