<svg width="48" height="48" fill="none" xmlns="http://www.w3.org/2000/svg"><path fill="currentColor" d="M24 10.53v26.94L14.96 31H6V17h8.96L24 10.53Zm-8.8 19.41 7.8 5.59V12.47l-7.8 5.59v11.88ZM14 18H7v12h7V18Zm20.97-6.32a73.14 73.14 0 0 0 .66-.76l.01.02.04.02a10.21 10.21 0 0 1 .54.54 21.64 21.64 0 0 1 4.74 7.34c.9 2.41 1.35 5.27.7 8.38-.66 3.12-2.43 6.46-5.91 9.84l-.7-.72c3.37-3.27 5.02-6.43 5.62-9.32.61-2.9.2-5.56-.65-7.83A19.97 19.97 0 0 0 35 11.7l-.02-.03h-.01Zm-5.03 5.37.36-.35.36-.35v.01l.03.02a5.33 5.33 0 0 1 .27.32 13.1 13.1 0 0 1 2.36 4.34c.9 2.85.89 6.7-2.65 10.6l-.74-.68c3.26-3.6 3.25-7.05 2.44-9.62a12.1 12.1 0 0 0-2.42-4.28v-.01h-.01Z"/></svg>