<svg width="24" height="24" fill="none" xmlns="http://www.w3.org/2000/svg"><path fill="currentColor" d="M10 15.65 16.48 12 10 8.35v7.3Z"/><path fill="currentColor" d="M20.5 12a8.5 8.5 0 1 1-17 0 8.5 8.5 0 0 1 17 0Zm-1.98 0L9 6.65v10.7L18.52 12Z"/><path fill="currentColor" d="M.75 12C.75 5.79 5.79.75 12 .75v1.5a9.75 9.75 0 0 0-7.54 15.94l-1.16.95A11.2 11.2 0 0 1 .75 12ZM13.56.86a11.25 11.25 0 0 1 9.4 13.7l-1.46-.35a9.78 9.78 0 0 0-8.14-11.87l.2-1.48ZM22.4 16.3a11.25 11.25 0 0 1-17.65 4.3l.96-1.15a9.75 9.75 0 0 0 15.3-3.71l1.38.57Z"/></svg>