<svg width="16" height="16" fill="none" xmlns="http://www.w3.org/2000/svg"><path fill="currentColor" d="M6.16 7.57a3.54 3.54 0 0 0 1.06.26l.42.02c.2 0 .35-.02.49-.06a.93.93 0 0 0 .33-.15.6.6 0 0 0 .19-.24c.04-.1.06-.2.06-.31 0-.1-.03-.2-.07-.28a.71.71 0 0 0-.2-.2 1.3 1.3 0 0 0-.3-.16A4.13 4.13 0 0 0 7 6.23a8.12 8.12 0 0 0-.68-.02l.1-2.71h3.17v.82h-2.2l-.04 1.06a6.83 6.83 0 0 1 1.2.22 2.43 2.43 0 0 1 .71.37 1.32 1.32 0 0 1 .5 1.09c0 .15-.02.3-.05.43a1.38 1.38 0 0 1-.8.97 3.4 3.4 0 0 1-1.18.22 5.5 5.5 0 0 1-.94-.08 2.82 2.82 0 0 1-.63-.22v-.81Z"/><path fill="currentColor" d="M2 6a6 6 0 1 1 12 0A6 6 0 0 1 2 6Zm6-5a5 5 0 1 0 0 10A5 5 0 0 0 8 1Zm7 14v1H1v-1h14Z"/></svg>