<svg width="24" height="24" fill="none" xmlns="http://www.w3.org/2000/svg"><path fill="currentColor" d="M5.5 2h6v2H14v5h-1V5H4v14.5A1.5 1.5 0 0 0 5.5 21h6a1.5 1.5 0 0 0 1.5-1.5h1a2.5 2.5 0 0 1-2.5 2.5h-6A2.5 2.5 0 0 1 3 19.5V4h2.5V2Zm1 2h4V3h-4v1ZM8 10H6V9h2V7h1v2h2v1H9v2H8v-2Zm5 4c0-2.78 2.22-5 5-5s5 2.22 5 5c0 .74-.32 1.7-.75 2.66-.43.99-1 2.06-1.57 3.03a59.54 59.54 0 0 1-2.22 3.52l-.04.05v.02L18 23l-.41.28-.01-.02-.04-.05a41.22 41.22 0 0 1-.66-1c-.43-.64-1-1.54-1.56-2.52a31.34 31.34 0 0 1-1.57-3.03A7.36 7.36 0 0 1 13 14Zm5 9-.41.28.41.6.41-.6L18 23Zm0-.9a61.62 61.62 0 0 0 1.82-2.91c.56-.96 1.1-1.99 1.52-2.93A6.5 6.5 0 0 0 22 14c0-2.23-1.77-4-4-4s-4 1.77-4 4c0 .51.24 1.3.66 2.26.41.94.96 1.97 1.52 2.93A58.44 58.44 0 0 0 18 22.1ZM16 14a2 2 0 1 1 4 0 2 2 0 0 1-4 0Zm2-1a1 1 0 1 0 0 2 1 1 0 0 0 0-2Zm-7.5 4v1h-4v-1h4Z"/></svg>