<svg width="48" height="48" fill="none" xmlns="http://www.w3.org/2000/svg"><path fill="currentColor" d="M15 4h11v4h5v14h-1V9H11v31.5a3.5 3.5 0 0 0 3.5 3.5h12a3.5 3.5 0 0 0 3.5-3.5h1a4.5 4.5 0 0 1-4.5 4.5h-12a4.5 4.5 0 0 1-4.5-4.5V8h5V4Zm1 4h9V5h-9v3Zm4 11h-4.5v-1H20v-4.5h1V18h4.5v1H21v4.5h-1V19Zm7.5 11c0-4.18 3.32-7.5 7.5-7.5s7.5 3.32 7.5 7.5c0 1.09-.48 2.53-1.14 4.03a48.51 48.51 0 0 1-2.43 4.68 92.28 92.28 0 0 1-3.44 5.46l-.06.08-.01.03L35 44l-.41.28-.02-.03-.06-.08a66.14 66.14 0 0 1-1.02-1.54 92.28 92.28 0 0 1-2.42-3.92 48.51 48.51 0 0 1-2.43-4.68c-.66-1.5-1.14-2.94-1.14-4.03ZM35 44l-.41.28.41.6.41-.6L35 44Zm0-.89a92.17 92.17 0 0 0 3.07-4.9c.87-1.5 1.73-3.1 2.38-4.58A10.42 10.42 0 0 0 41.5 30c0-3.62-2.88-6.5-6.5-6.5a6.46 6.46 0 0 0-6.5 6.5c0 .86.4 2.14 1.05 3.63a47.54 47.54 0 0 0 2.38 4.58 91.31 91.31 0 0 0 3.07 4.9ZM31.5 30a3.5 3.5 0 1 1 7 0 3.5 3.5 0 0 1-7 0Zm3.5-2.5a2.5 2.5 0 1 0 0 5 2.5 2.5 0 0 0 0-5ZM24.5 36v1h-8v-1h8Z"/></svg>