<svg width="24" height="24" fill="none" xmlns="http://www.w3.org/2000/svg"><path fill="currentColor" d="M2.5 2h6v2H11v9h-1V5H1v14.5A1.5 1.5 0 0 0 2.5 21H9v1H2.5A2.5 2.5 0 0 1 0 19.5V4h2.5V2Zm1 2h4V3h-4v1ZM5 10H3V9h2V7h1v2h2v1H6v2H5v-2Zm13 0h3v2h3v1h-3v3h3v1h-3v2h-3.05a4.64 4.64 0 0 1-.72-.05 6.32 6.32 0 0 1-1.68-.45 4.25 4.25 0 0 1-1.75-1.35 4.14 4.14 0 0 1-.78-2.15h-.52a2.5 2.5 0 0 0 0 5h1a2.5 2.5 0 0 1 2.5 2.5V24h-1v-1.5c0-.83-.67-1.5-1.5-1.5h-1a3.5 3.5 0 1 1 0-7h.52c.08-.88.37-1.6.78-2.15a4.25 4.25 0 0 1 1.75-1.35A6.33 6.33 0 0 1 18 10h.02Zm0 8h2v-7h-2.04a3.53 3.53 0 0 0-.6.04c-.39.06-.9.16-1.41.38-.5.22-.99.55-1.34 1.02a3.3 3.3 0 0 0-.6 2.06c0 .93.24 1.58.6 2.06.35.48.83.8 1.34 1.02a5.33 5.33 0 0 0 2 .42H18ZM7.5 17v1h-4v-1h4Z"/></svg>