<svg width="48" height="48" fill="none" xmlns="http://www.w3.org/2000/svg"><path fill="currentColor" d="M29.62 33.83v-1.21h1.5c.78-2.3 2.9-3.62 5.55-3.62 1.18 0 2.43.16 3.37.57v1.3a8.46 8.46 0 0 0-3.16-.58c-2.13 0-3.65.81-4.26 2.33h5.49v1.21h-5.76c-.05.26-.05.51-.05.78 0 .29.02.57.05.83h5.76v1.21h-5.45c.68 1.65 2.39 2.3 4.17 2.3 1.74 0 2.69-.28 3.3-.5v1.26c-.75.3-1.74.51-3.33.51-2.76 0-4.93-1.2-5.7-3.57h-1.48v-1.21h1.23a7.2 7.2 0 0 1 0-1.61h-1.23Z"/><path fill="currentColor" d="M18 4h11v4h5v20h-1V9H14v31.5a3.5 3.5 0 0 0 3.5 3.5h12a3.5 3.5 0 0 0 3.24-2.19l.93.38A4.5 4.5 0 0 1 29.5 45h-12a4.5 4.5 0 0 1-4.5-4.5V8h5V4Zm1 4h9V5h-9v3Zm4 11h-4.5v-1H23v-4.5h1V18h4.5v1H24v4.5h-1V19Zm4.5 17v1h-8v-1h8Z"/></svg>