<svg width="48" height="48" fill="none" xmlns="http://www.w3.org/2000/svg"><path fill="currentColor" d="M18 4h11v4h5v18.5h-1V9H14v31.5a3.5 3.5 0 0 0 3.5 3.5h12a3.5 3.5 0 0 0 1.75-.47l.5.87a4.5 4.5 0 0 1-2.25.6h-12a4.5 4.5 0 0 1-4.5-4.5V8h5V4Zm1 4h9V5h-9v3Zm4 11h-4.5v-1H23v-4.5h1V18h4.5v1H24v4.5h-1V19Zm16 7h3v2h3v1h-3v3h3v1h-3v2h-3.05a4.63 4.63 0 0 1-.72-.05 6.32 6.32 0 0 1-1.68-.45 4.25 4.25 0 0 1-1.75-1.35 4.14 4.14 0 0 1-.78-2.15h-4.25a1.37 1.37 0 0 0-.26.01c-.17.02-.4.07-.61.16-.21.1-.4.23-.55.42-.14.2-.25.48-.25.91 0 .43.11.72.25.9.14.2.34.34.55.43a2.2 2.2 0 0 0 .82.17H31c.55 0 1.11.1 1.5.56.38.43.5 1.06.5 1.84V42h-1v-5.6c0-.72-.12-1.04-.25-1.18-.1-.13-.3-.22-.75-.22h-1.22a2.5 2.5 0 0 1-.38-.02 3.2 3.2 0 0 1-.9-.23 2.33 2.33 0 0 1-.96-.76 2.49 2.49 0 0 1-.44-1.49c0-.62.16-1.11.44-1.5.27-.37.63-.6.96-.75a3.2 3.2 0 0 1 1.28-.25h4.24c.08-.88.37-1.6.78-2.15a4.25 4.25 0 0 1 1.75-1.35A6.33 6.33 0 0 1 39 26h.02Zm0 8h2v-7h-2.04a3.53 3.53 0 0 0-.6.04c-.39.06-.9.16-1.41.38-.5.22-.99.55-1.34 1.02a3.3 3.3 0 0 0-.6 2.06c0 .93.24 1.58.6 2.06.35.48.83.8 1.34 1.02a5.33 5.33 0 0 0 2 .42H39Zm-11.5 2v1h-8v-1h8Z"/></svg>