<svg width="48" height="48" fill="none" xmlns="http://www.w3.org/2000/svg"><path fill="currentColor" d="m36.17 6.98.33-.38.33-.38v.01l.03.03a7.27 7.27 0 0 1 .45.42 17.67 17.67 0 0 1 3.82 5.77c.72 1.88 1.09 4.1.54 6.5-.55 2.4-2 4.92-4.84 7.42l-.66-.74c2.71-2.4 4.03-4.75 4.53-6.9a10.2 10.2 0 0 0-.5-5.93 15.55 15.55 0 0 0-4-5.8l-.02-.02ZM16.5 11a2.6 2.6 0 0 0-2.5 2.6v5.9a2.5 2.5 0 0 0 2.5 2.5h6c1.42 0 2.5-1.08 2.5-2.5v-6c0-1.42-1.08-2.5-2.5-2.5h-6ZM13 13.6a3.6 3.6 0 0 1 3.5-3.6h6c1.98 0 3.5 1.52 3.5 3.5v6c0 1.98-1.52 3.5-3.5 3.5h-6a3.5 3.5 0 0 1-3.5-3.5v-5.9Zm17.83-2.76.37-.34.37-.34.02.02a4.56 4.56 0 0 1 .2.25 10.14 10.14 0 0 1 1.8 3.32c.68 2.17.67 5.04-2.03 7.8l-.72-.7c2.4-2.44 2.39-4.92 1.8-6.8a9.3 9.3 0 0 0-1.8-3.2v-.01ZM10.5 27A2.45 2.45 0 0 0 8 29.5V41h23V29.5c0-1.42-1.08-2.5-2.5-2.5h-18ZM7 29.5c0-1.98 1.52-3.5 3.5-3.5h18c1.98 0 3.5 1.52 3.5 3.5V42H7V29.5Z"/></svg>