<svg width="24" height="24" fill="none" xmlns="http://www.w3.org/2000/svg"><path fill="currentColor" d="M4 6.5A2.5 2.5 0 0 1 6.5 4h3A2.5 2.5 0 0 1 12 6.5v3A2.5 2.5 0 0 1 9.5 12h-3A2.5 2.5 0 0 1 4 9.5v-3ZM2.46 14H13.6c.94 0 1.5.79 1.5 1.6V23H1v-7.4c0-.42.14-.8.4-1.08.27-.28.63-.45 1.02-.51l.04-.01ZM18.21 2.47l.49-.57.49-.57.03.03a5.41 5.41 0 0 1 .27.25 10.62 10.62 0 0 1 2.31 3.47 6.8 6.8 0 0 1 .33 4 8.6 8.6 0 0 1-2.94 4.48l-.98-1.12a7.12 7.12 0 0 0 2.46-3.7 5.26 5.26 0 0 0-.27-3.12 8.43 8.43 0 0 0-2.18-3.14v-.01ZM14.65 4.9l.55-.51.55-.51.01.01a2.6 2.6 0 0 1 .14.17 6.38 6.38 0 0 1 1.14 2.08c.22.67.33 1.49.16 2.36a5.06 5.06 0 0 1-1.47 2.62l-1.06-1.06c.65-.65.95-1.28 1.06-1.85.11-.57.04-1.12-.12-1.62a4.92 4.92 0 0 0-.94-1.67l-.02-.02Z"/></svg>