<svg width="24" height="24" fill="none" xmlns="http://www.w3.org/2000/svg"><path fill="currentColor" d="m18.37 2.28.33-.38.33-.38.02.02a4.84 4.84 0 0 1 .26.25 10.36 10.36 0 0 1 2.26 3.38c.42 1.1.64 2.42.32 3.85a8.35 8.35 0 0 1-2.86 4.36l-.66-.76a7.37 7.37 0 0 0 2.54-3.83 5.4 5.4 0 0 0-.28-3.26 8.68 8.68 0 0 0-2.24-3.24h-.01v-.01ZM6.5 5C5.68 5 5 5.68 5 6.5v3c0 .82.68 1.5 1.5 1.5h3c.82 0 1.5-.68 1.5-1.5v-3c0-.82-.68-1.5-1.5-1.5h-3ZM4 6.5A2.5 2.5 0 0 1 6.5 4h3A2.5 2.5 0 0 1 12 6.5v3A2.5 2.5 0 0 1 9.5 12h-3A2.5 2.5 0 0 1 4 9.5v-3Zm10.83-1.76.37-.34.37-.34v.01a2.69 2.69 0 0 1 .14.16 6.16 6.16 0 0 1 1.1 2c.2.64.3 1.4.15 2.23a4.81 4.81 0 0 1-1.4 2.5l-.71-.71c.68-.69 1-1.36 1.12-1.98a3.5 3.5 0 0 0-.12-1.74 5.18 5.18 0 0 0-1-1.76l-.01-.02ZM2.46 14H13.6c.94 0 1.5.79 1.5 1.6V23H1v-7.4c0-.42.14-.8.4-1.08.27-.28.63-.45 1.02-.51l.04-.01Zm.09 1a.74.74 0 0 0-.4.2.55.55 0 0 0-.15.4V22h12.1v-6.4c0-.39-.24-.6-.5-.6H2.55Z"/></svg>