<svg width="16" height="16" fill="none" xmlns="http://www.w3.org/2000/svg"><path fill="currentColor" d="M1.86 3.1c.3-.09.67-.1 1.14-.1.47 0 .93.28 1.36.63.45.37.95.9 1.52 1.54l.52.58.06.07.1.22-.83.32-.07.06-.02-.02h-.02l-.02-.05-.48-.52a11.09 11.09 0 0 0-1.4-1.42C3.33 4.08 3.1 4 3 4c-.5 0-.7.02-.83.06-.08.03-.15.07-.32.27l-.76-.66c.21-.24.43-.45.77-.56Zm13.92 1.84a22.1 22.1 0 0 0-3.92 0 4.6 4.6 0 0 0-1.21.25c-.2.08-.54.3-1.05.73-.5.41-1.13.98-1.9 1.71l-.11.12-.16.02a22.1 22.1 0 0 0-3.62.7c-.49.17-.9.4-1.2.66-.32.27-.49.51-.54.66-.03.12-.06.28-.07.55v1.11c0 .1.05.24.18.37.12.13.25.18.32.18l2 .03v.5c0 .95.77 1.72 1.73 1.72h.02c.97 0 1.75-.78 1.75-1.75V12h8v1H8.95a2.75 2.75 0 0 1-2.7 2.25h-.02a2.73 2.73 0 0 1-2.69-2.24L2.5 13c-.43 0-.8-.23-1.05-.5A1.58 1.58 0 0 1 1 11.46V10.3c.02-.28.04-.57.13-.82.13-.4.44-.79.83-1.11.4-.34.93-.64 1.53-.84.75-.25 1.9-.5 3.64-.73a33 33 0 0 1 1.83-1.65 5.8 5.8 0 0 1 1.3-.88c.38-.17.93-.26 1.5-.32a23.09 23.09 0 0 1 4.1 0l-.08.99Z"/></svg>