<svg width="24" height="24" fill="none" xmlns="http://www.w3.org/2000/svg"><path fill="currentColor" d="M2.13 5.75c-.48 0-1.47.03-2.1.76l1.14.98a.65.65 0 0 1 .34-.18c.18-.05.4-.06.62-.06.45 0 .77.15 1.11.49.39.37.76.94 1.3 1.76l1.25-.82-.03-.05c-.49-.75-.95-1.46-1.47-1.97a2.96 2.96 0 0 0-2.16-.91Zm14.4 1.51a6.88 6.88 0 0 0-1.7-.32 23.2 23.2 0 0 0-4.06.01c-.58.06-1.13.15-1.51.32a6.1 6.1 0 0 0-1.3.88c-.5.41-1.1.96-1.82 1.65-1.74.24-2.89.48-3.64.73-.6.2-1.13.5-1.53.84-.39.32-.7.71-.83 1.1-.09.26-.11.55-.12.83L0 14v.45c0 .41.2.8.45 1.06s.62.49 1.05.49l1.04.01a2.73 2.73 0 0 0 2.68 2.24h.03c1.34 0 2.46-.97 2.7-2.25l8.08.02a2.73 2.73 0 0 0 2.68 2.23h.04c1.36 0 2.5-1 2.7-2.3l1.1-.2A1.57 1.57 0 0 0 24 14.07l-.2-2.63a2.01 2.01 0 0 0-1.53-1.76 48 48 0 0 1-.18-.05c-.3-.07-.57-.15-.92-.2-.2-.04-.5-.14-.87-.3a21.97 21.97 0 0 1-1.56-.8c-.75-.4-1.54-.81-2.2-1.06Z"/></svg>