<svg width="24" height="24" fill="none" xmlns="http://www.w3.org/2000/svg"><path fill="currentColor" d="M.86 6.1c.3-.09.67-.1 1.14-.1.47 0 .93.28 1.36.63.45.37.95.9 1.52 1.54l.52.58.06.07.1.22-.83.32-.07.06-.02-.02h-.02l-.02-.05-.48-.52a11.09 11.09 0 0 0-1.4-1.42C2.33 7.08 2.1 7 2 7c-.5 0-.7.02-.83.06-.08.03-.15.07-.32.27l-.76-.66c.21-.24.43-.45.77-.56Zm13.89 1.84a22.22 22.22 0 0 0-3.88 0c-.57.06-.98.15-1.22.25-.2.08-.54.3-1.05.73-.5.41-1.13.98-1.89 1.71l-.11.12-.17.02c-1.8.24-2.93.48-3.61.7-.49.17-.9.4-1.2.66a1.7 1.7 0 0 0-.53.66 1.7 1.7 0 0 0-.07.55l-.01.64v.47c0 .1.05.24.18.37.12.13.25.18.32.18l2 .03v.5c0 .95.77 1.72 1.73 1.72h.02c.96 0 1.74-.78 1.74-1.75V15l10 .02v.5c0 .96.77 1.73 1.72 1.73h.04c.96 0 1.73-.77 1.73-1.73v-.42l1.95-.34h.03c.3-.02.54-.29.52-.63l-.2-2.63c-.03-.38-.35-.75-.78-.86l-.19-.05c-.3-.08-.53-.14-.82-.19-.34-.05-.73-.2-1.12-.38-.4-.17-.83-.4-1.26-.62l-.37-.2c-.75-.4-1.48-.78-2.07-1-.3-.12-.8-.2-1.43-.26Zm.09-1c.64.06 1.25.15 1.7.32.65.25 1.44.67 2.19 1.06a137.46 137.46 0 0 0 1.56.8c.37.16.66.26.87.3.35.05.62.13.92.2l.18.05c.79.2 1.46.89 1.53 1.76l.2 2.63c.05.85-.55 1.62-1.43 1.7l-1.1.19a2.73 2.73 0 0 1-2.7 2.3h-.04a2.73 2.73 0 0 1-2.68-2.23L7.96 16a2.75 2.75 0 0 1-2.7 2.25h-.02a2.73 2.73 0 0 1-2.69-2.24L1.51 16c-.43 0-.8-.23-1.05-.5A1.58 1.58 0 0 1 0 14.46V13.3c.02-.28.04-.57.13-.82.13-.4.44-.79.83-1.11.4-.34.93-.64 1.53-.84.75-.25 1.9-.5 3.64-.73a34.1 34.1 0 0 1 1.82-1.65 6.1 6.1 0 0 1 1.3-.88c.38-.17.93-.26 1.5-.32a23.2 23.2 0 0 1 4.07-.01Z"/></svg>