<svg width="48" height="48" fill="none" xmlns="http://www.w3.org/2000/svg"><path fill="currentColor" d="M5.5 25a18.5 18.5 0 0 1 36.97-1.03l-1 .06a17.5 17.5 0 1 0-14.55 18.23l.16.98A18.5 18.5 0 0 1 5.5 25Zm-5 0c0-6.06 2.3-11.58 6.06-15.75l.74.67A22.43 22.43 0 0 0 1.5 25c0 6.43 2.7 12.23 7.02 16.33l-.69.72A23.43 23.43 0 0 1 .5 25Zm46 0c0-5.8-2.2-11.09-5.8-15.08l.74-.67a23.42 23.42 0 0 1 4.95 22.9l-.95-.3A22.49 22.49 0 0 0 46.5 25Zm-30 0a7.5 7.5 0 0 1 14.69-2.14l-.96.28a6.5 6.5 0 1 0-4.37 8.1l.28.95A7.5 7.5 0 0 1 16.5 25Zm19.48-5.87.4.59-.4.28-.41-.29.4-.58Zm9 17.74a8.87 8.87 0 0 1-8.5 9.12h-.52c-5-.12-8.98-4.1-8.98-9.11 0-1.3.57-3.03 1.37-4.84.8-1.83 1.88-3.8 2.95-5.63a109.82 109.82 0 0 1 4.17-6.56l.07-.1.02-.03.42.28.4-.28h.01l.02.03.07.1a75.99 75.99 0 0 1 1.24 1.86c.8 1.23 1.87 2.92 2.94 4.75a59.45 59.45 0 0 1 2.94 5.63c.8 1.8 1.37 3.51 1.37 4.78Zm-9-15.98a107.3 107.3 0 0 0-3.82 6.02 56.82 56.82 0 0 0-2.9 5.53c-.8 1.8-1.28 3.37-1.28 4.44 0 4.45 3.53 8 8 8.12h.47a7.87 7.87 0 0 0 7.52-8.11v-.01c0-1.04-.48-2.59-1.28-4.39a58.46 58.46 0 0 0-2.9-5.53 113.14 113.14 0 0 0-3.82-6.07ZM20.5 25a3.5 3.5 0 1 1 7 0 3.5 3.5 0 0 1-7 0Zm3.5-2.5a2.5 2.5 0 1 0 0 5 2.5 2.5 0 0 0 0-5Z"/></svg>