<svg width="24" height="24" fill="none" xmlns="http://www.w3.org/2000/svg"><path fill="currentColor" fill-rule="evenodd" d="M2.5 12a9.5 9.5 0 1 1 19 0 9.5 9.5 0 0 1-19 0ZM12 3.5a8.5 8.5 0 0 0-7.97 11.46c.26-.05.54-.17.81-.4.4-.33.81-.96 1-2.14h.99c.21 1.36.83 1.97 1.35 2.27a2.4 2.4 0 0 0 1.04.3c.05 0 .13 0 .22-.03.2-.04.45-.11.72-.27.51-.3 1.13-.91 1.35-2.27h.98c.22 1.36.84 1.97 1.35 2.27a2.4 2.4 0 0 0 1.05.3c.05 0 .13 0 .22-.03.19-.04.44-.11.71-.27.52-.3 1.14-.91 1.35-2.27h1c.17 1.16.59 1.79.99 2.13.27.24.56.35.81.4A8.5 8.5 0 0 0 12 3.5Zm7.56 12.38a2.8 2.8 0 0 1-1.05-.57 3.47 3.47 0 0 1-.86-1.14 3.47 3.47 0 0 1-2.67 1.82 2.15 2.15 0 0 1-.3 0A3.4 3.4 0 0 1 12 14.13 3.48 3.48 0 0 1 9.32 16a2.14 2.14 0 0 1-.29 0 3.4 3.4 0 0 1-2.66-1.82c-.24.5-.54.88-.88 1.16-.34.29-.7.46-1.04.56a8.5 8.5 0 0 0 15.12 0ZM0 12.02C0 8.98 1.13 6.2 3 4.1l.75.66a10.97 10.97 0 0 0 .86 15.42l-.68.74A11.97 11.97 0 0 1 0 12.02ZM21.01 4.1a11.97 11.97 0 0 1-1.1 16.94l-.65-.75a10.97 10.97 0 0 0 1-15.53l.75-.66Z" clip-rule="evenodd"/></svg>