<svg width="24" height="24" fill="none" xmlns="http://www.w3.org/2000/svg"><path fill="currentColor" d="M2.5 12a9.5 9.5 0 1 1 18.52 2.99h-.71c-.3 0-.75-.1-1.15-.44-.4-.34-.82-.97-1-2.13h-.99c-.21 1.36-.83 1.97-1.35 2.27a2.4 2.4 0 0 1-.71.27c-.2.04-.36.04-.55 0a2.4 2.4 0 0 1-.72-.27c-.51-.3-1.13-.91-1.35-2.27h-.98c-.22 1.36-.84 1.97-1.35 2.27a2.4 2.4 0 0 1-.72.27c-.19.04-.36.04-.55 0a2.4 2.4 0 0 1-.71-.27c-.52-.3-1.14-.91-1.35-2.27h-1c-.18 1.18-.6 1.81-.99 2.15-.4.33-.85.42-1.18.42h-.68A9.5 9.5 0 0 1 2.5 12Z"/><path fill="currentColor" d="M20.32 15.99h.3a9.5 9.5 0 0 1-17.24 0h.27c.51 0 1.2-.13 1.83-.66.34-.28.64-.66.88-1.15a3.47 3.47 0 0 0 2.33 1.76c.32.07.63.07.95 0a3.4 3.4 0 0 0 2.36-1.8 3.48 3.48 0 0 0 2.36 1.8c.32.07.63.07.95 0a3.4 3.4 0 0 0 2.34-1.77c.23.49.53.86.86 1.14.61.53 1.3.68 1.81.68Z"/><path fill="currentColor" d="M1.5 12c0-2.66.99-5.09 2.62-6.94l-1.13-1a12.04 12.04 0 0 0 .96 16.84l1-1.11A10.47 10.47 0 0 1 1.5 12ZM24 12c0-3.04-1.13-5.82-3-7.93l-1.12 1a10.47 10.47 0 0 1-.84 14.73l1.01 1.1A11.97 11.97 0 0 0 24 12Z"/></svg>