<svg width="48" height="48" fill="none" xmlns="http://www.w3.org/2000/svg"><path fill="currentColor" d="M5.5 25a18.5 18.5 0 1 1 37 0 18.5 18.5 0 0 1-37 0ZM24 7.5a17.5 17.5 0 1 0 0 35 17.5 17.5 0 0 0 0-35ZM1.93 17.91a23.6 23.6 0 0 1 4.82-8.9l.75.65a22.6 22.6 0 0 0-4.6 8.53l-.97-.28Zm39.35-8.87a23.6 23.6 0 0 1 4.56 8.13l-.95.3a22.6 22.6 0 0 0-4.37-7.78l.76-.65ZM16.5 25a7.5 7.5 0 1 1 15 0 7.5 7.5 0 0 1-15 0Zm7.5-6.5a6.5 6.5 0 1 0 0 13 6.5 6.5 0 0 0 0-13Zm22.39.63a24.04 24.04 0 0 1-.55 12.8l-.95-.32a22.92 22.92 0 0 0 .52-12.25l.98-.23ZM1 24.55c0-1.6.15-3.15.45-4.65l.98.2a23.08 23.08 0 0 0 .46 10.78l-.97.28c-.6-2.1-.92-4.32-.92-6.61Zm19.5.45a3.5 3.5 0 1 1 7 0 3.5 3.5 0 0 1-7 0Zm3.5-2.5a2.5 2.5 0 1 0 0 5 2.5 2.5 0 0 0 0-5ZM8.54 41.94a23.56 23.56 0 0 1-5.95-8.8l.93-.36a22.56 22.56 0 0 0 5.7 8.43l-.68.73Zm36.59-8.1a23.55 23.55 0 0 1-5.96 8.36l-.66-.75a22.55 22.55 0 0 0 5.7-8l.92.39Z"/></svg>