<svg width="16" height="16" fill="none" xmlns="http://www.w3.org/2000/svg"><path fill="currentColor" d="M2 8a6 6 0 1 1 12 0A6 6 0 0 1 2 8Zm6-5a5 5 0 1 0 0 10A5 5 0 0 0 8 3ZM.5 5.2c.4-1.04 1-2.02 1.84-2.86l.71.71a6.97 6.97 0 0 0-1.6 2.5L.5 5.2Zm14.05.35a6.97 6.97 0 0 0-1.6-2.5l.7-.7a7.97 7.97 0 0 1 1.84 2.85l-.94.35ZM.2 9.79a8.04 8.04 0 0 1 0-3.58l.98.22a7.04 7.04 0 0 0 0 3.14l-.98.22Zm15.6 0-.98-.22c.23-1.03.23-2.1 0-3.14l.97-.22c.27 1.18.27 2.4 0 3.58ZM2.33 13.66A7.97 7.97 0 0 1 .5 10.8l.94-.35a7 7 0 0 0 1.61 2.5l-.7.7Zm10.6-.71a6.97 6.97 0 0 0 1.61-2.5l.94.35a7.97 7.97 0 0 1-1.84 2.86l-.7-.71Z"/></svg>