<svg width="48" height="48" fill="none" xmlns="http://www.w3.org/2000/svg"><path fill="currentColor" fill-rule="evenodd" d="M5.5 25a18.5 18.5 0 1 1 37 0 18.5 18.5 0 0 1-37 0ZM24 7.5A17.5 17.5 0 0 0 7.86 31.79H10c.82 0 1.95-.56 2.91-1.48.97-.92 1.63-2.07 1.66-3.11l.02-.49h.48c.32 0 .46.27.58.52.2.38.58 1.13 1.1 1.87.38.52.8 1.02 1.27 1.39.47.37.94.57 1.4.57 1.13 0 2.08-.34 2.75-.96a3.84 3.84 0 0 0 1.1-2.9v-.49h.5c.33 0 .46.28.58.53.19.38.55 1.12 1.06 1.86a6.3 6.3 0 0 0 1.25 1.39c.47.36.96.57 1.46.57 1.2 0 2.15-.34 2.8-.96.64-.62 1.04-1.56 1.05-2.9v-.49h.5c.31 0 .45.25.57.5.19.36.58 1.13 1.12 1.89.37.52.8 1.02 1.26 1.39.47.37.94.57 1.4.57h3.6A17.5 17.5 0 0 0 24 7.5Zm16.02 24.56h-3.2a3.3 3.3 0 0 1-2.02-.78 7.73 7.73 0 0 1-1.46-1.6c-.21-.3-.4-.6-.57-.88a4.3 4.3 0 0 1-1.16 2.02 4.9 4.9 0 0 1-3.48 1.24c-.8 0-1.5-.33-2.08-.78a7.28 7.28 0 0 1-1.46-1.6l-.54-.86a4.27 4.27 0 0 1-1.2 2 4.92 4.92 0 0 1-3.43 1.24c-.76 0-1.44-.34-2.01-.78a7.73 7.73 0 0 1-1.47-1.6 21.8 21.8 0 0 1-.67-1.05c-.34.9-.96 1.73-1.67 2.4-1.05 1-2.42 1.76-3.6 1.76H8.32a17.5 17.5 0 0 0 31.7-.73ZM.5 25c0-6.06 2.3-11.58 6.06-15.75l.74.67A22.43 22.43 0 0 0 1.5 25c0 6.43 2.7 12.23 7.02 16.33l-.69.72A23.43 23.43 0 0 1 .5 25Zm46.18 0c0-5.8-2.2-11.09-5.8-15.08l.74-.67A23.42 23.42 0 0 1 47.68 25c0 6.71-2.82 12.77-7.34 17.05l-.68-.72c4.32-4.1 7.02-9.9 7.02-16.33Z" clip-rule="evenodd"/></svg>