<svg width="24" height="24" fill="none" xmlns="http://www.w3.org/2000/svg"><path fill="currentColor" d="M2.5 12a9.5 9.5 0 1 1 18.77 2.09 61.69 61.69 0 0 0-3.45-5.53l-.81-1.18-.83 1.17a68.86 68.86 0 0 0-2.72 4.22c-.58.98-1.17 2.08-1.63 3.1a8.2 8.2 0 0 0-.83 3.06c0 .92.2 1.79.56 2.56A9.5 9.5 0 0 1 2.5 12Z"/><path fill="currentColor" d="M22 18.93A4.94 4.94 0 0 1 17.28 24H17a5.07 5.07 0 0 1-5-5.07c0-.74.32-1.7.75-2.65.43-.98 1-2.04 1.57-3A58.36 58.36 0 0 1 17 9.12a70.86 70.86 0 0 1 2.68 4.17c.57.97 1.14 2.03 1.57 3 .42.96.75 1.9.75 2.63ZM4.12 5.06a10.47 10.47 0 0 0 .84 14.73l-1.01 1.1a11.97 11.97 0 0 1-.96-16.82l1.13.99ZM22.5 12c0-2.65-.98-5.07-2.6-6.92l1.12-.99a11.96 11.96 0 0 1 2.55 11.11l-1.45-.4c.25-.89.38-1.83.38-2.8Z"/></svg>