<svg width="16" height="16" fill="none" xmlns="http://www.w3.org/2000/svg"><path fill="currentColor" fill-rule="evenodd" d="M2 8a6 6 0 1 1 12 0A6 6 0 0 1 2 8Zm6-5a5 5 0 0 0-4.6 6.94c.22-.05.5-.16.77-.36.4-.31.83-.9.83-2.08h1c0 1.33.54 1.9 1 2.18a2.19 2.19 0 0 0 1.07.29l.23-.03c.2-.04.45-.11.7-.26.46-.27 1-.85 1-2.18h1c0 .95.34 1.5.72 1.84.29.24.63.4.93.5A4.99 4.99 0 0 0 8 3Zm4.19 7.73a3.45 3.45 0 0 1-1.12-.64c-.2-.17-.38-.37-.53-.6a2.9 2.9 0 0 1-1.04 1.05 3.19 3.19 0 0 1-1.64.42 3.05 3.05 0 0 1-1.36-.42 2.82 2.82 0 0 1-1-.98 2.86 2.86 0 0 1-1.62 1.28 5 5 0 0 0 8.3-.1ZM3.05 3.05a7 7 0 0 0 0 9.9l-.7.7a8 8 0 0 1 0-11.3l.7.7Zm10.6 10.6-.7-.7a7 7 0 0 0 0-9.9l.7-.7a8 8 0 0 1 0 11.3Z" clip-rule="evenodd"/></svg>