<svg width="24" height="24" fill="none" xmlns="http://www.w3.org/2000/svg"><path fill="currentColor" d="M2.5 12a9.5 9.5 0 1 1 19 0 9.5 9.5 0 0 1-19 0ZM12 3.5a8.5 8.5 0 1 0 0 17 8.5 8.5 0 0 0 0-17ZM.49 8.63c.5-1.7 1.36-3.25 2.5-4.54l.76.66a10.98 10.98 0 0 0-2.3 4.17l-.96-.29ZM21 4.1c1.06 1.2 1.87 2.6 2.39 4.15l-.95.32a10.98 10.98 0 0 0-2.19-3.8L21 4.1Zm2.67 5.16a12.03 12.03 0 0 1-.28 6.53l-.95-.31a10.99 10.99 0 0 0 .26-6l.97-.22ZM0 12.02c0-.8.08-1.6.23-2.37l.99.2a11.05 11.05 0 0 0 .22 5.27l-.96.28A12 12 0 0 1 0 12.02Zm3.93 8.89a12.02 12.02 0 0 1-3.1-4.5l.93-.36c.62 1.58 1.6 2.99 2.85 4.12l-.68.74Zm19.1-4.14a12.03 12.03 0 0 1-3.11 4.27l-.66-.75c1.22-1.07 2.2-2.4 2.85-3.92l.91.4Z"/></svg>