<svg width="24" height="24" fill="none" xmlns="http://www.w3.org/2000/svg"><path fill="currentColor" d="M12 2.5a9.5 9.5 0 1 1 0 19 9.5 9.5 0 0 1 0-19ZM3.06 3.92l1.13 1a10.73 10.73 0 0 0-2.26 4.07L.5 8.56a12.2 12.2 0 0 1 2.56-4.64Z"/><path fill="currentColor" d="m23.34 8.17-1.42.48a10.74 10.74 0 0 0-2.13-3.72l1.12-1a12.24 12.24 0 0 1 2.43 4.24Zm.62 3.85c0 1.34-.22 2.64-.62 3.85l-1.42-.47a10.74 10.74 0 0 0 .25-5.86l1.46-.34c.22.9.33 1.85.33 2.82ZM.24 9.6l1.47.3a10.8 10.8 0 0 0 .22 5.15l-1.44.42A12.25 12.25 0 0 1 .24 9.6Zm.61 6.9 1.4-.54a10.77 10.77 0 0 0 2.77 4.02l-1 1.11a12.27 12.27 0 0 1-3.17-4.58Zm18.95 4.73-1-1.13a10.78 10.78 0 0 0 2.79-3.82l1.37.59a12.28 12.28 0 0 1-3.16 4.36Z"/></svg>