<svg width="16" height="16" fill="none" xmlns="http://www.w3.org/2000/svg"><path fill="currentColor" d="m8.74.72-.4.28-.42-.29.42-.58.4.59Zm4.93 9.87A5.26 5.26 0 0 1 8.64 16l-.02.01h-.3A5.4 5.4 0 0 1 3 10.6c0-.79.34-1.8.8-2.84a33.07 33.07 0 0 1 1.69-3.22A62.65 62.65 0 0 1 7.87.79L7.9.73l.01-.01.41.28.41-.28.02.02.04.06a42.18 42.18 0 0 1 .7 1.06c.46.7 1.07 1.66 1.68 2.7a34 34 0 0 1 1.69 3.23c.45 1.02.8 2.03.8 2.8ZM8.33 1.9a63.37 63.37 0 0 0-1.98 3.15A32.1 32.1 0 0 0 4.7 8.16 6.93 6.93 0 0 0 4 10.6 4.4 4.4 0 0 0 8.34 15h.26a4.26 4.26 0 0 0 4.07-4.39v-.01a6.9 6.9 0 0 0-.72-2.4c-.44-1-1.03-2.1-1.63-3.13a64.14 64.14 0 0 0-1.99-3.18Z"/></svg>