<svg width="48" height="48" fill="none" xmlns="http://www.w3.org/2000/svg"><path fill="currentColor" d="M25.35 4.35C23.76 5.95 23 7.65 23 9.5c0 1.31.64 2.19 1.4 3.2l.03.03c.73.99 1.57 2.1 1.57 3.77 0 1.07-.22 2-.7 2.77A4.35 4.35 0 0 1 23.2 21l-.4-.92a3.35 3.35 0 0 0 1.65-1.33c.36-.57.55-1.3.55-2.24 0-1.31-.64-2.19-1.4-3.2l-.03-.03c-.73-.99-1.57-2.1-1.57-3.77 0-2.16.9-4.11 2.65-5.85l.7.7Zm-5.43 4.93c-.61.9-.92 1.98-.92 3.22 0 .36.13.7.38 1.04.24.34.58.67.95 1.04l.02.02.03.03c.71.7 1.62 1.58 1.62 2.87 0 .81-.24 1.53-.74 2.13-.5.59-1.2 1.03-2.1 1.34l-.33-.94a3.7 3.7 0 0 0 1.66-1.04c.34-.4.51-.89.51-1.49 0-.82-.57-1.42-1.35-2.19l-.05-.05a8.85 8.85 0 0 1-1.04-1.15A2.75 2.75 0 0 1 18 12.5c0-1.42.36-2.68 1.08-3.78l.84.56Zm9.03-.06A6.5 6.5 0 0 0 28.5 12c0 .79.48 1.37 1.13 2.13l.02.02c.6.71 1.35 1.6 1.35 2.85 0 1.66-1 2.97-2.76 3.94l-.48-.88C29.33 19.2 30 18.16 30 17c0-.85-.49-1.47-1.13-2.22l-.06-.07c-.6-.7-1.31-1.54-1.31-2.71 0-1.36.17-2.45.55-3.22l.9.44Zm5.9 13.41c.07.08.15.2.15.37 0 .6-.02 1.19-.04 1.77a6.74 6.74 0 0 1 2.78-1.08c.76-.1 1.58-.03 2.23.42.67.47 1.03 1.28 1.03 2.39 0 2.8-2.06 4.43-4.03 5.56a33.73 33.73 0 0 1-1.73.92l-1.08.57c-.4.22-.75.43-1.01.63s-.41.37-.5.52a11.05 11.05 0 0 1-2.01 3c-.8.8-1.7 1.3-2.64 1.3h-8c-.93 0-1.84-.5-2.64-1.3s-1.55-1.96-2.2-3.37A28.4 28.4 0 0 1 13 23c0-.17.08-.3.14-.37a.67.67 0 0 1 .18-.14 5.72 5.72 0 0 1 1.02-.24c.6-.07 1.43-.12 2.42-.17 1.98-.1 4.61-.14 7.24-.14s5.26.04 7.24.14c.99.05 1.83.1 2.42.18a3.72 3.72 0 0 1 1.03.23l.17.14Zm-3.08 11.62.15-.33A26.81 26.81 0 0 0 34 23.32a34.38 34.38 0 0 0-2.8-.24c-1.96-.1-4.58-.14-7.2-.14s-5.24.04-7.2.14a34.38 34.38 0 0 0-2.8.24c.04 4.3.9 7.99 2.08 10.6.6 1.34 1.3 2.38 2 3.07.7.7 1.35 1.01 1.92 1.01h8c.57 0 1.23-.3 1.93-1a10.05 10.05 0 0 0 1.84-2.75Zm1.68-1.45.23-.13 1.11-.58.25-.13c.47-.24.96-.5 1.44-.77C38.4 30.1 40 28.71 40 26.5c0-.89-.28-1.34-.6-1.57-.36-.25-.89-.33-1.53-.25-.64.09-1.32.33-1.9.64-.51.28-.9.58-1.12.84a27.6 27.6 0 0 1-1.4 6.64ZM38 41v1H10v-1h28Z"/></svg>