<svg width="24" height="24" fill="none" xmlns="http://www.w3.org/2000/svg"><path fill="currentColor" d="M11.73 1.93C10.47 2.57 10 3.27 10 4c0 .51.32.87.85 1.4l.05.04c.47.47 1.1 1.1 1.1 2.06 0 .59-.15 1.11-.47 1.55-.33.44-.8.74-1.37.94l-.32-.95c.43-.14.7-.35.88-.58.18-.24.28-.55.28-.96 0-.51-.32-.87-.85-1.4l-.05-.04C9.63 5.59 9 4.96 9 4c0-1.27.87-2.25 2.27-2.96l.46.9Zm3.04 2.49c-.59.38-.77.75-.77 1.08 0 .08.03.19.12.34.09.14.2.28.34.45l.05.07c.3.37.74.91.74 1.64 0 .46-.14.88-.43 1.23-.28.33-.68.58-1.15.74l-.34-.94c.37-.13.59-.28.72-.44.13-.16.2-.34.2-.59 0-.33-.2-.62-.51-1.02l-.06-.06c-.13-.17-.29-.36-.41-.56A1.64 1.64 0 0 1 13 5.5c0-.8.48-1.43 1.23-1.92l.54.84Zm2.99 6.98c.06.04.24.19.24.45v.25a4 4 0 0 1 1.12-.29c.4-.03.88.01 1.27.3.4.3.61.78.61 1.39 0 1.54-1.1 2.42-2.08 3l-.74.4-.13.07-.51.27c-.2.11-.35.2-.46.3a.85.85 0 0 0-.16.15 6.2 6.2 0 0 1-1 1.6c-.4.4-.88.71-1.42.71h-5c-.54 0-1.02-.3-1.41-.72a5.9 5.9 0 0 1-1.06-1.72A14.83 14.83 0 0 1 6 11.85c0-.26.18-.41.24-.45a.86.86 0 0 1 .22-.11c.13-.04.28-.07.44-.1.32-.05.77-.09 1.29-.12a67.38 67.38 0 0 1 7.62 0c.52.03.97.07 1.3.12l.43.1c.05.02.14.05.22.1Zm-.3 4.75.13-.07.13-.07c.23-.12.46-.24.69-.38.92-.54 1.59-1.17 1.59-2.13 0-.39-.12-.53-.2-.59-.1-.08-.3-.13-.6-.1a2.98 2.98 0 0 0-1.25.44 15.49 15.49 0 0 1-.49 2.9Zm-.49-3.3.03-.66-.05-.01c-.28-.04-.69-.08-1.2-.11a66.36 66.36 0 0 0-7.5 0 13.92 13.92 0 0 0-1.25.12c.04 2.04.43 3.76.95 4.98.27.64.57 1.11.87 1.42.3.32.53.41.68.41h5c.15 0 .39-.09.69-.4.26-.28.53-.7.78-1.24l1-4.52ZM19 21v1H5v-1h14Z"/></svg>