<svg width="16" height="16" fill="none" xmlns="http://www.w3.org/2000/svg"><path fill="currentColor" d="M7.18 2.2c-.1.08-.18.2-.18.43 0 .1.07.2.36.5l.02.03c.23.23.62.63.62 1.22 0 .44-.2.86-.56 1.16C7.08 5.84 6.6 6 6 6V5c.41 0 .67-.11.8-.23a.5.5 0 0 0 .2-.4c0-.14-.08-.26-.36-.54L6.6 3.8c-.22-.22-.6-.6-.6-1.16 0-.49.18-.92.57-1.23.37-.28.87-.4 1.43-.4v1c-.44 0-.69.1-.82.2Zm5.14 5.1c.07.04.25.18.25.44V8H13a2.5 2.5 0 0 1 0 5h-1.38l-.03.07c-.29.65-.63 1.1-1.03 1.4-.4.31-.83.43-1.24.43H4.75c-.5 0-.94-.24-1.3-.6a4.84 4.84 0 0 1-1-1.48 12.38 12.38 0 0 1-.95-5.08c0-.26.18-.4.24-.45a.83.83 0 0 1 .21-.1l.4-.1a61.68 61.68 0 0 1 9.35 0c.16.03.3.06.41.1a.8.8 0 0 1 .21.1Zm-.34 4.7H13a1.5 1.5 0 0 0 0-3h-.48a13.9 13.9 0 0 1-.54 3ZM2.5 8.09c.04 1.84.4 3.3.86 4.32.24.53.51.92.77 1.17.26.25.47.32.62.32h4.57c.2 0 .42-.06.64-.22.22-.17.47-.46.7-.99a11.75 11.75 0 0 0 .9-4.6c-.26-.04-.63-.08-1.1-.1a60.7 60.7 0 0 0-7.95.1Z"/></svg>