<svg width="24" height="24" fill="none" xmlns="http://www.w3.org/2000/svg"><path fill="currentColor" d="M10.25 4c0 .4.24.68.78 1.22l.06.05c.46.46 1.16 1.16 1.16 2.23 0 .63-.16 1.21-.52 1.7s-.88.82-1.49 1.02l-.48-1.41c.4-.14.62-.32.76-.5.14-.19.23-.44.23-.81 0-.4-.24-.68-.78-1.22l-.06-.05C9.45 5.77 8.75 5.07 8.75 4c0-1.41.96-2.45 2.41-3.18l.68 1.33c-1.22.62-1.59 1.26-1.59 1.85Zm4 1.5c0 .02 0 .08.08.2.08.13.18.26.33.43l.06.08c.3.36.78.97.78 1.79 0 .51-.16.99-.49 1.39-.32.38-.76.64-1.26.82l-.5-1.42c.33-.11.52-.25.61-.37.09-.1.14-.23.14-.42 0-.23-.13-.45-.46-.86l-.05-.06c-.13-.17-.3-.38-.43-.59a1.85 1.85 0 0 1-.31-.99c0-.91.56-1.61 1.34-2.13l.82 1.26c-.55.36-.66.66-.66.87Zm2.69 12.15c-.3.67-.65 1.23-1.03 1.63-.39.42-.87.72-1.41.72h-5c-.54 0-1.02-.3-1.41-.72a5.9 5.9 0 0 1-1.06-1.72A14.83 14.83 0 0 1 6 11.85c0-.26.18-.4.24-.45a.86.86 0 0 1 .22-.11c.13-.04.28-.07.44-.1.32-.05.77-.09 1.29-.12a67.28 67.28 0 0 1 7.62 0c.52.03.97.07 1.3.12l.43.1c.05.02.14.05.22.1.05.04.18.15.23.33.28-.07.58-.13.89-.16.47-.03 1.05 0 1.54.31.54.34.83.91.83 1.63 0 1.73-1.4 2.66-2.46 3.23-.28.15-.57.28-.83.4l-.12.06a21.72 21.72 0 0 0-.9.46Zm1-4.33c-.06.84-.19 1.62-.35 2.33l.5-.25c1.06-.56 1.66-1.12 1.66-1.9 0-.28-.09-.33-.12-.36-.1-.05-.3-.1-.63-.08a3.66 3.66 0 0 0-1.06.26ZM5 21h14v1.5H5V21Z"/></svg>