<svg width="24" height="24" fill="none" xmlns="http://www.w3.org/2000/svg"><path fill="currentColor" d="M11.21 2.38c-.64-.64-1.82-.63-2.64.2l-1.41 1.4 12.72 12.73 1.42-1.41c.82-.82.83-2 .19-2.64L11.2 2.38Zm4.08 2.67 3.18-3.19a2.5 2.5 0 0 1 3.54 0l1.74 1.75-4.95 4.95 3.4 3.4c1.1 1.1.94 2.91-.2 4.05l-2.12 2.12L5.74 3.99l2.12-2.13C9 .73 10.81.57 11.92 1.68l3.37 3.37Zm.7.7 2.1 2.1 4.25-4.24-1.04-1.04a1.5 1.5 0 0 0-2.12 0L16 5.75Zm-9.54.36-.39.39L2.28 9l7.8 7.79 3.17-1.77 1.24 1.24-1.76 3.18 2.13 2.14 2.51-3.78.4-.39.7.7-.32.33-3.14 4.7-3.52-3.52 1.76-3.18-.17-.18-3.18 1.77L.72 8.86l4.7-3.14.32-.32.71.7Z"/></svg>