<svg width="48" height="48" fill="none" xmlns="http://www.w3.org/2000/svg"><path fill="currentColor" d="M42.04 6.08a3.5 3.5 0 0 0-4.95 0l-7.43 7.43 4.25 4.24 9.9-9.9-1.77-1.77ZM34.6 18.46l6.64 6.63a4.56 4.56 0 0 1 .08 6.45l-3.18 3.18L12.69 9.26l3.18-3.18a4.56 4.56 0 0 1 6.45.08l6.64 6.64 7.42-7.43a4.5 4.5 0 0 1 6.36 0l2.48 2.48-10.6 10.6Zm-13-11.59a3.56 3.56 0 0 0-5.03-.08L14.1 9.26l24.04 24.05 2.47-2.48a3.56 3.56 0 0 0-.08-5.03L21.61 6.87Zm-8.2 5.93-.39.38-8.73 6.05 14.88 14.89 8.52-2.8.84.85-4.61 6.7 4.27 4.26 6.05-8.73.38-.39.71.7-.32.33-6.68 9.65-5.7-5.7 4.4-6.4-8.13 2.67L2.72 19.1l9.65-6.68.32-.32.71.7Z"/></svg>