<svg width="24" height="24" fill="none" xmlns="http://www.w3.org/2000/svg"><path fill="currentColor" d="M5.8 2C4.78 2 4 2.78 4 3.8V6h2V4h1v2h3V3.82A1.91 1.91 0 0 0 8.1 2H5.8ZM11 6h11.5c.41 0 .78.2 1.04.46s.46.63.46 1.04V22H1.5C.76 22 0 21.4 0 20.5V6h3V3.8C3 2.22 4.22 1 5.8 1h2.3A2.91 2.91 0 0 1 11 3.76V6Zm-1 1H7v3.5c0 .44.19 1.1.52 1.66.16.27.34.5.52.64.18.15.33.2.46.2s.28-.05.46-.2c.18-.15.36-.37.52-.64.33-.56.52-1.22.52-1.66V7ZM6 7H1v13.5c0 .3.24.5.5.5H23V7.5a.51.51 0 0 0-.17-.33.51.51 0 0 0-.33-.17H11v3.5c0 .66-.26 1.5-.66 2.17-.2.34-.45.66-.75.9-.3.25-.67.43-1.09.43-.42 0-.8-.18-1.1-.43A4.6 4.6 0 0 1 6 10.5V7Zm11 10v1H3v-1h14Z"/></svg>