<svg width="24" height="24" fill="none" xmlns="http://www.w3.org/2000/svg"><path fill="currentColor" d="M8.5 3C7.68 3 7 3.68 7 4.5v3C7 8.32 7.68 9 8.5 9h3c.83 0 1.5-.68 1.5-1.5v-3c0-.82-.67-1.5-1.5-1.5h-3ZM6 4.5A2.5 2.5 0 0 1 8.5 2h3A2.5 2.5 0 0 1 14 4.5v3a2.5 2.5 0 0 1-2.5 2.5h-3A2.5 2.5 0 0 1 6 7.5v-3Zm-3 9.51a1.93 1.93 0 0 1 0-.28c.02-.17.06-.4.14-.65.1-.25.25-.52.51-.73.27-.22.62-.35 1.05-.35H14v1H4.7a.65.65 0 0 0-.42.12.67.67 0 0 0-.2.3 1.47 1.47 0 0 0-.08.54V20h10v1H3v-6.99ZM15 12h7v10h-3v-2h-1v2h-3V12Zm1 1v8h1v-2h3v2h1v-8h-5Zm.95.95h1.1v1.1h-1.1v-1.1Zm2 0h1.1v1.1h-1.1v-1.1Zm-2 2h1.1v1.1h-1.1v-1.1Zm2 0h1.1v1.1h-1.1v-1.1Z"/></svg>