<svg width="48" height="48" fill="none" xmlns="http://www.w3.org/2000/svg"><path fill="currentColor" d="M13.5 3A2.5 2.5 0 0 0 11 5.5v37a2.5 2.5 0 0 0 2.5 2.5h21a2.5 2.5 0 0 0 2.5-2.5v-37A2.5 2.5 0 0 0 34.5 3h-21ZM10 5.5A3.5 3.5 0 0 1 13.5 2h21A3.5 3.5 0 0 1 38 5.5v37a3.5 3.5 0 0 1-3.5 3.5h-21a3.5 3.5 0 0 1-3.5-3.5v-37ZM12 9h24v9H12V9Zm1 1v7h22v-7H13Zm5 16v-3h1v3h3v1h-3v3h-1v-3h-3v-1h3Zm8 0h7v1h-7v-1Zm-11 8v-1h1v1h-1Zm6.85-.15-6 6-.7-.7 6-6 .7.7ZM26 34h7v1h-7v-1Zm0 3h7v1h-7v-1Zm-5 3v-1h1v1h-1Z"/></svg>