<svg width="24" height="24" fill="none" xmlns="http://www.w3.org/2000/svg"><path fill="currentColor" d="M1 1.5V0h17v1.5H1Zm0 1h17V14h-5v5H1.5a.5.5 0 0 1-.5-.5v-16Zm5.1 2.9L4 5.9v.8l1.8-.4v4.9H4v.8h4.5v-.8H6.7V5.4h-.6Zm5.9 5.9c-.8-.1-1.6-.2-2.3-.4v.8c.7.2 1.4.4 2.2.4 2.1 0 3-.9 3-2 0-1.6-2.2-2-4.1-2.1l.1-1.8h3.7v-.8h-4.5l-.2 3.3c1.4 0 4.1.2 4.1 1.4 0 .7-.6 1.2-2 1.2Z"/><path fill="currentColor" d="M19 6h4v16.5c0 .41-.14.8-.42 1.08a1.5 1.5 0 0 1-1.08.42h-15c-.41 0-.8-.14-1.08-.42A1.5 1.5 0 0 1 5 22.5V20h8.7l5.3-5.3V6Z"/><path fill="currentColor" d="M17.3 15 14 18.3V15h3.3Z"/></svg>