<svg width="24" height="24" fill="none" xmlns="http://www.w3.org/2000/svg"><path fill="currentColor" d="m4 5.9 2.1-.5h.6v5.8h1.8v.8H4v-.8h1.8V6.3L4 6.7v-.8Zm5.7 5.8v-.8c.7.2 1.5.3 2.3.4 1.4 0 2-.5 2-1.2 0-1.2-2.7-1.4-4.1-1.4l.2-3.3h4.5v.8h-3.7L10.8 8c1.9.1 4.1.5 4.1 2.1 0 1.1-.9 2-3 2-.8 0-1.5-.2-2.2-.4Z"/><path fill="currentColor" d="M19 1H0V0h19v1ZM0 18.5V3h1v15.5c0 .26.2.5.5.5H13v-5h5V3h1v11.7L13.7 20H6v2.5c0 .19.06.3.13.37s.18.13.37.13h15c.19 0 .3-.06.37-.13s.13-.18.13-.37V6h1v16.5c0 .41-.14.8-.42 1.08a1.5 1.5 0 0 1-1.08.42h-15c-.41 0-.8-.14-1.08-.42A1.5 1.5 0 0 1 5 22.5V20H1.5C.6 20 0 19.24 0 18.5ZM17.3 15H14v3.3l3.3-3.3Z"/></svg>