<svg width="48" height="48" fill="none" xmlns="http://www.w3.org/2000/svg"><path fill="currentColor" d="M13 11.9v-.1h1v12h3.6v.8H9.1v-.8h3.6v-11l-3.6.8v-.8l3.9-.9Zm9.3 5.3c5.5.3 8.3 1.6 8.3 4s-2.1 3.7-5.9 3.7c-1.5 0-2.9-.2-4.3-.6v-.9c1.4.4 2.8.6 4.3.6 3.8 0 4.6-1.5 4.6-2.8 0-2-2.8-3.1-8.4-3.2l.2-6h8.7v.8h-7.7l-.2 4.4h.4Z"/><path fill="currentColor" d="M38 3H3V2h35v1ZM3 36.6V7h1v29.6c0 .74.6 1.4 1.4 1.4H27V28h10V7h1v21.8L27.8 39H13v4.6c0 .74.6 1.4 1.4 1.4h28.2c.74 0 1.4-.6 1.4-1.4V13h1v30.6a2.4 2.4 0 0 1-2.4 2.4H14.4a2.4 2.4 0 0 1-2.4-2.4V39H5.4A2.4 2.4 0 0 1 3 36.6ZM36.4 29H28v8.4l8.4-8.4Z"/></svg>