<svg width="16" height="16" fill="none" xmlns="http://www.w3.org/2000/svg"><path fill="currentColor" d="M4.13 2.13C4.06 2.2 4 2.3 4 2.5V4H1.5c-.19 0-.3.06-.37.13S1 4.3 1 4.5V14h13.5c.19 0 .3-.06.37-.13s.13-.18.13-.37V4h-3V2.5c0-.19-.06-.3-.13-.37S11.7 2 11.5 2h-7c-.19 0-.3.06-.37.13Zm-.7-.7A1.5 1.5 0 0 1 4.5 1h7c.41 0 .8.14 1.08.42.28.28.42.67.42 1.08V3h3v10.5c0 .41-.14.8-.42 1.08a1.5 1.5 0 0 1-1.08.42H0V4.5c0-.41.14-.8.42-1.08A1.5 1.5 0 0 1 1.5 3H3v-.5c0-.41.14-.8.42-1.08ZM4 8.5a4 4 0 1 1 8 0 4 4 0 0 1-8 0Zm4-3a3 3 0 1 0 0 6 3 3 0 0 0 0-6Z"/></svg>