<svg width="24" height="24" fill="none" xmlns="http://www.w3.org/2000/svg"><path fill="currentColor" d="M7.13 6.13C7.06 6.2 7 6.3 7 6.5V8H2.5c-.19 0-.3.06-.37.13S2 8.3 2 8.5V19h19.5c.19 0 .3-.06.37-.13s.13-.18.13-.37V8h-5V6.5c0-.19-.06-.3-.13-.37S16.7 6 16.5 6h-9c-.19 0-.3.06-.37.13Zm-.7-.7A1.5 1.5 0 0 1 7.5 5h9c.41 0 .8.14 1.08.42.28.28.42.67.42 1.08V7h5v11.5c0 .41-.14.8-.42 1.08a1.5 1.5 0 0 1-1.08.42H1V8.5c0-.41.14-.8.42-1.08A1.5 1.5 0 0 1 2.5 7H6v-.5c0-.41.14-.8.42-1.08ZM7 13a5 5 0 1 1 10 0 5 5 0 0 1-10 0Zm5-4a4 4 0 1 0 0 8 4 4 0 0 0 0-8Z"/></svg>