<svg width="48" height="48" fill="none" xmlns="http://www.w3.org/2000/svg"><path fill="currentColor" d="M23.25 1h1.5l.15.2c2.9 3.87 7.52 5.83 11.47 6.82a34.62 34.62 0 0 0 7.1.98H44v.5c0 15.62-4.92 24.99-9.88 30.46a28.22 28.22 0 0 1-6.82 5.55 21 21 0 0 1-3.13 1.46h-.02L24 46.5l-.15.48h-.02a3.32 3.32 0 0 1-.22-.08 21 21 0 0 1-2.9-1.38 28.22 28.22 0 0 1-6.83-5.56C8.92 34.5 4 25.12 4 9.5V9h.53a10.32 10.32 0 0 0 .52-.02 34.63 34.63 0 0 0 6.58-.97c3.95-.98 8.57-2.94 11.47-6.81l.15-.2ZM5 9.99c.1 15.09 4.89 24.08 9.62 29.3 2.4 2.64 4.8 4.33 6.58 5.35a20.03 20.03 0 0 0 2.75 1.31l.05.02c.02 0 .03 0 .05-.02l.6-.23a20.3 20.3 0 0 0 2.15-1.08 27.22 27.22 0 0 0 6.58-5.35c4.73-5.22 9.52-14.21 9.62-29.3a23.23 23.23 0 0 1-1.67-.12 35.62 35.62 0 0 1-5.2-.88C32.15 7.99 27.36 6 24.25 2h-.5c-3.11 4-7.9 5.99-11.88 6.99a35.62 35.62 0 0 1-6.87 1ZM24 46.5l-.15.48.15.04.15-.04-.15-.48Zm2.28-27.06a22.27 22.27 0 0 0-3.88 0 4.6 4.6 0 0 0-1.22.25c-.2.08-.54.3-1.05.73-.5.41-1.13.98-1.9 1.71l-.1.12-.17.02a22.1 22.1 0 0 0-3.62.7c-.49.17-.9.4-1.2.66a1.7 1.7 0 0 0-.53.66 1.7 1.7 0 0 0-.07.55l-.01.64v.47c0 .1.05.24.18.37.12.13.25.18.32.18l2 .03v.5c0 .95.78 1.72 1.73 1.72h.02c.97 0 1.75-.78 1.75-1.75v-.5l10 .02v.5c0 .96.78 1.73 1.73 1.73h.04c.96 0 1.73-.77 1.73-1.73v-.42l1.95-.34h.03a.57.57 0 0 0 .52-.63l-.2-2.63c-.02-.38-.34-.75-.77-.86l-.2-.05c-.3-.08-.52-.14-.82-.19-.34-.05-.73-.2-1.12-.38a22.98 22.98 0 0 1-1.63-.82c-.75-.4-1.48-.78-2.07-1a6 6 0 0 0-1.44-.26Zm.1-1a6.9 6.9 0 0 1 1.69.32c.66.25 1.45.67 2.2 1.06a137.28 137.28 0 0 0 1.56.8c.37.16.67.26.87.3.35.05.63.13.93.2l.17.05a2 2 0 0 1 1.53 1.76l.2 2.63c.06.85-.55 1.62-1.42 1.7l-1.11.19a2.73 2.73 0 0 1-2.7 2.3h-.04a2.73 2.73 0 0 1-2.68-2.23l-8.1-.02a2.75 2.75 0 0 1-2.7 2.25h-.02a2.73 2.73 0 0 1-2.68-2.24l-1.05-.01c-.43 0-.8-.23-1.05-.5a1.58 1.58 0 0 1-.45-1.05V24.8c.02-.28.04-.57.13-.82.13-.4.44-.79.83-1.11.4-.34.93-.64 1.53-.84.75-.25 1.9-.5 3.64-.73a34.1 34.1 0 0 1 1.83-1.65 5.8 5.8 0 0 1 1.3-.88c.38-.17.93-.26 1.5-.32a23.3 23.3 0 0 1 4.07-.01Z"/></svg>