<svg width="24" height="24" fill="none" xmlns="http://www.w3.org/2000/svg"><path fill="currentColor" d="M12.4.2c1.4 1.87 3.64 2.83 5.6 3.31a17.06 17.06 0 0 0 3.49.49H22v.5c0 7.87-2.54 12.71-5.13 15.6a15.5 15.5 0 0 1-4.73 3.58 7.49 7.49 0 0 1-.44.18h-.03v.01l-.17.06-.16-.06h-.01l-.03-.01a4.43 4.43 0 0 1-.44-.18 15.5 15.5 0 0 1-4.74-3.58C3.55 17.2 1 12.37 1 4.5V4h.51a4.74 4.74 0 0 0 .25 0l.76-.06c.63-.06 1.51-.18 2.48-.43C6.96 3.03 9.2 2.07 10.6.2l.15-.2h1.5l.15.2ZM9 12.57h4.5c0 .62.5 1.12 1.12 1.12h.02c.61 0 1.11-.5 1.11-1.11l.76-.13c.3-.02.51-.28.5-.58l-.1-1.32a.76.76 0 0 0-.58-.65l-.1-.03-.43-.1c-.32-.05-.8-.3-1.3-.57-.38-.2-.76-.4-1.07-.52a6.24 6.24 0 0 0-1.82-.18c-.67 0-1.32.05-1.63.18-.27.12-.79.54-1.55 1.27-.9.13-1.5.25-1.85.37-.55.18-.94.54-1.03.82-.05.15-.05.38-.05.67v.24c0 .25.25.52.5.52h.75a1.13 1.13 0 0 0 2.25 0Z"/></svg>