<svg width="24" height="24" fill="none" xmlns="http://www.w3.org/2000/svg"><path fill="currentColor" d="M1 7.8a6.16 6.16 0 0 0 6.1 6.1h.4A5.7 5.7 0 0 0 13 7.91V7.9a6.1 6.1 0 0 0-5.91-6A5.93 5.93 0 0 0 1 7.8Zm-1 0C0 3.92 3.23.8 7.11.9a7.1 7.1 0 0 1 6.89 7c.06 2.33-1 4.44-2.73 5.71L14.8 19H20v1.5c0 .28.22.5.5.5h2a.5.5 0 0 0 .5-.5v-7.8l-1.9-1.9-.04-.06a54.64 54.64 0 0 0-2.84-4.71c-1.42-.1-2.49-.17-3.2-.2l.04-1c.77.04 1.93.1 3.48.22l.24.02.14.2a54.68 54.68 0 0 1 2.99 4.93L24 12.3v8.2c0 .83-.67 1.5-1.5 1.5h-2a1.5 1.5 0 0 1-1.5-1.5V20h-3.55l1.67 2.54-.84.54L14.26 20 5 19.96v.54c0 .83-.67 1.5-1.5 1.5h-2A1.5 1.5 0 0 1 0 20.5v-7.08h1v7.08c0 .28.22.5.5.5h2a.5.5 0 0 0 .5-.5v-1.54l9.6.02-3.17-4.83c-.87.45-1.85.72-2.92.75H7.1c-3.88 0-7-3.13-7.1-7.09V7.8Zm5.47-2.75c1.86-.12 3.37-.2 4.52-.24l.03 1c-1.08.03-2.5.1-4.24.22L4.51 8c-.27.43-.6 1-1 1.7l-.87-.48c.4-.72.74-1.3 1.03-1.76.4-.64.87-1.37 1.41-2.19l.14-.2.25-.02Z"/></svg>