<svg width="24" height="24" fill="none" xmlns="http://www.w3.org/2000/svg"><path fill="currentColor" d="M21.5 4v-.01h.5v.5c0 8.17-2.79 12.99-5.13 15.6-2.56 2.86-5.1 3.74-5.21 3.78l-.16.05-.16-.05C11.24 23.84 1 20.18 1 4.5V4h.5c.06 0 6.29-.05 9.1-3.8l.15-.2h1.5l.15.2C15.21 3.95 21.44 4 21.5 4Zm-10 18.86c1.3-.52 9.3-4.25 9.49-17.88-1.6-.08-6.55-.62-9.24-3.98h-.51C8.55 4.35 3.6 4.89 2 4.98c.19 13.51 8.26 17.37 9.5 17.88ZM9.78 8.22v.02c.12-.05.5-.22 1.83-.22.65 0 1.51.03 2 .21.34.13.74.34 1.12.54.41.21.92.48 1.15.52l.48.11c.61.16 1 .61 1.04 1.13l.1 1.31a1.03 1.03 0 0 1-.95 1.11l-.35.06a1.62 1.62 0 0 1-1.56 1.18c-.74 0-1.35-.46-1.56-1.12H9.42a1.63 1.63 0 0 1-3.1-.01h-.33c-.51 0-.99-.48-.99-1.02v-.23c0-.34 0-.6.08-.84.15-.46.69-.91 1.34-1.13.39-.13.97-.25 1.78-.36a6.13 6.13 0 0 1 1.58-1.26Zm3.48.93v.02c-.26-.1-.88-.16-1.64-.15-1.04 0-1.37.11-1.44.14-.08.03-.4.21-1.4 1.17l-.12.11-.16.02c-.81.11-1.41.22-1.76.34-.43.14-.68.41-.71.5-.02.07-.02.3-.02.51l.04.28h1.21v.49c0 .34.25.62.61.62s.64-.28.64-.63v-.49h5.5v.5a.63.63 0 0 0 1.25 0v-.42l1.17-.2-.02-1.37c-.01-.09-.1-.18-.2-.21-.23-.06-.34-.09-.49-.11a5.83 5.83 0 0 1-1.45-.63c-.36-.19-.73-.38-1.01-.49Z"/></svg>