<svg width="24" height="24" fill="none" xmlns="http://www.w3.org/2000/svg"><path fill="currentColor" d="M12.01 3.77c2.15 0 4.33.1 6.53.28l.24.02.14.2A52.18 52.18 0 0 1 21.8 9H2.2a52.2 52.2 0 0 1 2.88-4.73l.14-.2.24-.02A79.8 79.8 0 0 1 12 3.77Zm-4.94 9.87.64-.64h8.58l.64.64c-.28.84-.52 1.47-.73 1.89-.12.23-.21.38-.28.46l-.01.01H8.09l-.01-.01a2.34 2.34 0 0 1-.28-.46c-.21-.42-.45-1.05-.73-1.9Z"/><path fill="currentColor" d="m22.7 10 1.3 1.3v.7h-5v1h5v6.5c0 .83-.67 1.5-1.5 1.5h-2a1.5 1.5 0 0 1-1.5-1.5V19l-14-.04v.54c0 .83-.67 1.5-1.5 1.5h-2A1.5 1.5 0 0 1 0 19.5V13h5v-1H0v-.7L1.3 10h21.4Zm-6 2H7.3l-1.37 1.36.1.3c.31 1 .6 1.78.88 2.31.13.27.27.5.41.67.13.15.36.36.68.36h8a.9.9 0 0 0 .68-.36c.14-.17.28-.4.41-.67.27-.53.57-1.31.89-2.32l.09-.29L16.7 12Z"/></svg>