<svg width="24" height="24" fill="none" xmlns="http://www.w3.org/2000/svg"><path fill="currentColor" d="M10.02 5.05c-.47.04-.83.1-1.03.18-.42.16-.95.44-1.5.73l-.27.14c-.32.17-.63.34-.93.47-.29.13-.58.24-.85.28-.27.05-.53.1-.8.17a.56.56 0 0 0-.43.5v.02l-.21 2c0 .05.02.11.09.18a.4.4 0 0 0 .26.13h.02l1.63.21v.44a1 1 0 1 0 2 0V10h8v.5a1 1 0 1 0 2 0v-.47l1.82-.1h.01c.1 0 .17-.08.17-.17v-.21c0-.52-.04-.85-.1-1.04a1.12 1.12 0 0 0-.34-.43 2.4 2.4 0 0 0-.81-.45 16.9 16.9 0 0 0-2.7-.5l-.16-.03-.12-.11c-.55-.54-1-.95-1.37-1.25a3.8 3.8 0 0 0-.74-.51 3.17 3.17 0 0 0-.83-.17 16.58 16.58 0 0 0-2.81 0Zm-.1-1a17.56 17.56 0 0 1 3.01.01c.42.05.83.12 1.13.25.26.11.6.35.98.66.36.3.8.7 1.3 1.18 1.25.17 2.17.35 2.72.53.47.16.85.39 1.15.65.3.25.53.55.63.86.12.35.16.81.16 1.36v.21c0 .64-.51 1.15-1.15 1.16l-.9.06a2 2 0 0 1-3.89.02H8.94a2 2 0 0 1-3.89-.05l-.78-.1a1.44 1.44 0 0 1-.89-.42c-.23-.23-.4-.57-.38-.96v-.01l.22-2.01c.05-.67.52-1.23 1.17-1.4l.89-.18c.13-.03.33-.1.6-.22a15.96 15.96 0 0 0 1.14-.57c.54-.29 1.13-.6 1.62-.78.34-.13.8-.2 1.29-.24Zm11.1 10.63-5.55 1.66A2.05 2.05 0 0 1 13.5 18H7v-1h6.5c.52 0 1-.48 1-1s-.48-1-1-1H8.8c-1.42 0-2.94.38-4.16 1.04a136.91 136.91 0 0 0-1.18.61c-.29.15-.53.25-.8.3a3.9 3.9 0 0 1-.84.06 38 38 0 0 1-.42 0H1V21h8.5a12.3 12.3 0 0 0 4.4-.86l.74-.34a972.98 972.98 0 0 1 6.82-3.14c.37-.18.73-.36 1.02-.6.33-.26.52-.56.52-.96 0-.2-.07-.29-.17-.35a1.42 1.42 0 0 0-.66-.16 4.3 4.3 0 0 0-1.14.1ZM14.1 20.6l.19.46h-.01l-.02.02a6.52 6.52 0 0 1-.38.13A14.92 14.92 0 0 1 9.5 22H0v-6h1.45l.38.01c.3 0 .48 0 .63-.04.15-.03.3-.09.56-.21l.66-.34.49-.26A10.06 10.06 0 0 1 8.8 14h4.7c.84 0 1.59.56 1.88 1.33l5.4-1.61.12.48-.11-.49h.04a3.64 3.64 0 0 1 .41-.08c.26-.03.62-.06.99-.04.36.02.78.1 1.13.31.39.25.64.65.64 1.2 0 .8-.41 1.35-.88 1.74-.4.32-.87.55-1.23.73l-.17.08h-.02a494.93 494.93 0 0 0-6.64 3.05l-.75.35-.21-.45Zm0 0 .19.46h.02l-.21-.46Z"/></svg>