<svg width="48" height="48" fill="none" xmlns="http://www.w3.org/2000/svg"><path fill="currentColor" d="M21.7 10.1c-.87.08-1.57.2-2.02.37-.83.3-1.84.84-2.87 1.4l-.51.26c-.6.31-1.19.62-1.73.86a6.5 6.5 0 0 1-1.48.5c-.52.09-1.04.2-1.56.33a1.5 1.5 0 0 0-1.12 1.35v.01L10 18.8a.9.9 0 0 0 .29.7c.2.2.5.34.78.36l2.42.18v.46a2.5 2.5 0 0 0 5 0V20h14v.5a2.5 2.5 0 0 0 5 0V20h2.75c.42 0 .75-.34.75-.75V19c0-.98-.08-1.67-.22-2.1a2.52 2.52 0 0 0-.76-.99c-.42-.36-.99-.7-1.68-.94-.95-.31-2.65-.64-5.15-.97l-.17-.03-.11-.1a48.79 48.79 0 0 0-2.61-2.37 7.4 7.4 0 0 0-1.5-1.04 6.47 6.47 0 0 0-1.72-.35 29.3 29.3 0 0 0-2.58-.1 25.2 25.2 0 0 0-2.8.1Zm-.09-1a31.8 31.8 0 0 1 5.57.02c.8.08 1.52.2 2.02.42.44.19 1.03.6 1.74 1.19.7.57 1.54 1.34 2.54 2.3 2.42.32 4.15.65 5.18 1 .81.27 1.5.67 2.01 1.12.52.45.9.96 1.06 1.44.19.58.27 1.4.27 2.41v.25c0 .97-.78 1.75-1.75 1.75h-1.78a3.5 3.5 0 0 1-6.93 0H19.47a3.5 3.5 0 0 1-6.94-.03l-1.52-.11a2.27 2.27 0 0 1-1.42-.66A1.9 1.9 0 0 1 9 18.72l.4-3.63a2.5 2.5 0 0 1 1.88-2.24c.55-.14 1.1-.25 1.64-.34.31-.05.73-.2 1.25-.43a30.4 30.4 0 0 0 2.16-1.1c1.03-.54 2.1-1.11 3-1.45.58-.21 1.4-.35 2.28-.43Zm20.61 16.88L31 29.38A2.84 2.84 0 0 1 28.1 32H15v-1h13.1c1.13 0 1.98-.87 1.9-1.96v-.08A1.84 1.84 0 0 0 28.1 27H17.4c-2.93 0-6.15.69-8.68 1.95a19.63 19.63 0 0 0-2.84 1.7c-.32.23-.62.44-.9.6-.89.52-1.83.72-3.98.75v8h18c2.39 0 4.7-.46 6.4-.93a28.34 28.34 0 0 0 2.76-.91l.04-.02.38-.18a1023.35 1023.35 0 0 1 14.61-6.81l.23-.11c.81-.38 1.67-.78 2.35-1.34A2.97 2.97 0 0 0 47 27.3c0-.56-.24-.9-.6-1.12-.4-.25-.98-.37-1.63-.4a9.89 9.89 0 0 0-2.51.2h-.04ZM28.4 38.6l.2.46h-.02l-.04.02a12.3 12.3 0 0 1-.75.29c-.51.18-1.24.42-2.12.66-1.76.48-4.16.97-6.67.97H0V31h.5c2.49 0 3.27-.2 3.98-.6.25-.15.48-.32.77-.52l.57-.4c.58-.4 1.33-.87 2.46-1.43A21.2 21.2 0 0 1 17.4 26h10.7c1.43 0 2.63.98 2.87 2.34l11-3.32H42l.11.48-.1-.49H42l.05-.01a9.65 9.65 0 0 1 .82-.14 11.7 11.7 0 0 1 1.95-.08c.7.04 1.48.17 2.09.55A2.2 2.2 0 0 1 48 27.3c0 1.44-.7 2.45-1.6 3.18a12.1 12.1 0 0 1-2.55 1.46l-.24.11a676.4 676.4 0 0 0-13.5 6.29l-1.1.52-.4.2-.21-.46Zm0 0 .2.46h.02l-.22-.46Z"/></svg>