<svg width="24" height="24" fill="none" xmlns="http://www.w3.org/2000/svg"><path fill="currentColor" d="M10.02 5.05c-.47.04-.82.1-1.03.18-.42.16-.94.44-1.5.73a120.56 120.56 0 0 1-1.2.6c-.28.14-.58.25-.85.3-.26.04-.53.1-.8.16a.56.56 0 0 0-.42.5v.02l-.22 2c0 .05.02.11.09.18a.4.4 0 0 0 .27.13h.01l1.63.21v.44a1 1 0 1 0 2 0V10h8v.5a1 1 0 1 0 2 0v-.47l1.82-.1h.02c.09 0 .16-.08.16-.17v-.21c0-.52-.04-.85-.1-1.04a1.12 1.12 0 0 0-.34-.43 2.4 2.4 0 0 0-.81-.45 16.9 16.9 0 0 0-2.7-.5l-.16-.03-.12-.11c-.55-.54-1-.95-1.37-1.25a3.8 3.8 0 0 0-.74-.51 3.17 3.17 0 0 0-.83-.17 16.58 16.58 0 0 0-2.81 0Zm-.09-1a17.56 17.56 0 0 1 3 .01c.42.05.83.12 1.13.25.27.11.6.35.98.66.36.3.8.7 1.3 1.18 1.25.17 2.17.35 2.73.53.46.16.85.39 1.14.65.3.25.53.55.63.86.12.35.16.81.16 1.36v.21c0 .64-.51 1.15-1.15 1.16l-.9.06a2 2 0 0 1-3.89.02H8.94a2 2 0 0 1-3.89-.05l-.78-.1a1.44 1.44 0 0 1-.89-.42c-.23-.23-.4-.57-.38-.96v-.01l.22-2.01c.05-.67.52-1.23 1.17-1.4l.89-.18c.13-.03.33-.1.6-.22a15.96 15.96 0 0 0 1.14-.57c.54-.29 1.13-.6 1.62-.78.34-.13.8-.2 1.29-.24ZM4 18v2H3v-5h1v2h16v-2h1v5h-1v-2H4Z"/></svg>