<svg width="16" height="16" fill="none" xmlns="http://www.w3.org/2000/svg"><path fill="currentColor" d="M3.72 2.68a52.21 52.21 0 0 1 8.56 0l.24.02.14.2.92 1.43c.27.43.61 1.03 1.03 1.8L16 7.83v5.1c0 .64-.52 1.15-1.15 1.15h-1.3c-.64 0-1.16-.51-1.16-1.15v-.15l-8.78-.03v.18c0 .64-.52 1.15-1.15 1.15h-1.3c-.64 0-1.16-.51-1.16-1.15v-5.1l1.39-1.7A35.86 35.86 0 0 1 3.34 2.9l.14-.2.24-.02ZM2.04 6.91 1.14 8H4v1H1v3.93c0 .08.07.15.15.15h1.3c.1 0 .16-.07.16-.15v-1.18l10.78.03v1.15c0 .08.07.15.15.15h1.3c.1 0 .16-.07.16-.15V9h-3V8h2.85l-.9-1.1H2.06Zm11.3-1a25.94 25.94 0 0 0-1.38-2.25 50.52 50.52 0 0 0-7.92 0l-.77 1.2c-.17.27-.38.62-.62 1.05h10.7ZM10 10H6V9h4v1Z"/></svg>