<svg width="48" height="48" fill="none" xmlns="http://www.w3.org/2000/svg"><path fill="currentColor" d="M12.46 9.5a131.22 131.22 0 0 1 23.08 0l.2.02.14.16a37 37 0 0 1 3.04 4.05 58.79 58.79 0 0 1 2.49 4.47L46 22.8V37a2 2 0 0 1-2 2h-5a2 2 0 0 1-2-2v-1H11v1a2 2 0 0 1-2 2H4a2 2 0 0 1-2-2V22.8l4.59-4.6c.92-1.8 1.75-3.3 2.49-4.47a37 37 0 0 1 3.04-4.05l.13-.16.2-.02ZM7.2 19 3 23.2V37a1 1 0 0 0 1 1h5a1 1 0 0 0 1-1v-2h28v2a1 1 0 0 0 1 1h5a1 1 0 0 0 1-1V23.2L40.8 19H7.2Zm32.97-1a35.4 35.4 0 0 0-4.93-7.52 128.88 128.88 0 0 0-22.5 0A35.37 35.37 0 0 0 7.82 18h32.36ZM5.01 24.05a4.54 4.54 0 0 0 .19 1.29c.1.2.25.4.4.54.18.15.31.2.4.2h2l.06-.01.18-.03.53-.12a29.23 29.23 0 0 0 2.92-.87 5.99 5.99 0 0 0 .66-.3l.05-.03.23-.25a84.21 84.21 0 0 0-3.67-.4 30 30 0 0 0-3.95-.02Zm-.54-.97c1.78-.1 3.3-.1 4.57 0 1.24.1 2.75.27 4.53.5l.7.1-.32.62c-.2.4-.48.77-.85 1.13-.12.12-.3.22-.45.3-.18.09-.38.17-.6.26a30.4 30.4 0 0 1-3.63 1.04c-.15.02-.3.04-.42.04H6c-.41 0-.78-.2-1.05-.43-.27-.24-.5-.55-.65-.87a3.03 3.03 0 0 1-.23-.91A9.62 9.62 0 0 1 4 23.57v-.47l.47-.02Zm38.52.97a31.47 31.47 0 0 0-3.95.02 95.6 95.6 0 0 0-3.67.4l.23.25.05.03.15.09.51.21a29.22 29.22 0 0 0 3.63 1.02H42c.09 0 .22-.04.4-.19a2 2 0 0 0 .4-.54c.05-.1.1-.3.14-.6.03-.2.04-.43.05-.7Zm-4.03-.97c1.26-.1 2.79-.1 4.57 0l.47.02v.47c0 .5-.02.93-.07 1.29a2.69 2.69 0 0 1-.88 1.78c-.27.23-.64.43-1.05.43h-2a13.12 13.12 0 0 1-1-.18 30.4 30.4 0 0 1-3.05-.9 6.94 6.94 0 0 1-.6-.26 1.78 1.78 0 0 1-.45-.3 4.41 4.41 0 0 1-.85-1.13l-.31-.63.7-.1c1.77-.22 3.28-.4 4.52-.5Zm-22.2.92h14.48l2.33 2.9-.1.27a32.43 32.43 0 0 1-1.78 4.2c-.26.47-.51.85-.76 1.12-.23.25-.54.51-.93.51H18c-.39 0-.7-.26-.93-.5-.25-.28-.5-.66-.76-1.14a32.43 32.43 0 0 1-1.78-4.19l-.1-.26L16.76 24Zm.48 1-1.67 2.1a30.2 30.2 0 0 0 1.62 3.79 5 5 0 0 0 .62.93c.13.14.2.17.2.18h11.97c.01 0 .08-.04.21-.18a5 5 0 0 0 .62-.93c.46-.84 1-2.1 1.62-3.8L30.76 25H17.24Z"/></svg>