<svg width="24" height="24" fill="none" xmlns="http://www.w3.org/2000/svg"><path fill="currentColor" d="M5.46 4.05a79.8 79.8 0 0 1 13.08 0l.24.02.14.2A54.68 54.68 0 0 1 21.9 9.2l2.1 2.1v8.2c0 .83-.67 1.5-1.5 1.5h-2a1.5 1.5 0 0 1-1.5-1.5V19l-14-.04v.54c0 .83-.67 1.5-1.5 1.5h-2A1.5 1.5 0 0 1 0 19.5v-8.2l2.1-2.1a54.74 54.74 0 0 1 2.98-4.93l.14-.2.24-.02ZM2.7 10 1 11.7v.3h4v1H1v6.5c0 .28.22.5.5.5h2a.5.5 0 0 0 .5-.5v-1.55L20 18v1.5c0 .28.22.5.5.5h2a.5.5 0 0 0 .5-.5V13h-4v-1h4v-.3L21.3 10H2.7Zm17.94-1a45.13 45.13 0 0 0-2.43-3.98 77.8 77.8 0 0 0-12.44 0L4.51 7c-.3.5-.7 1.16-1.16 2.01h17.3ZM7.3 12h9.42l1.36 1.36-.1.3c-.31 1-.6 1.78-.88 2.31-.13.27-.27.5-.41.67-.13.15-.36.36-.68.36H8a.9.9 0 0 1-.68-.36c-.14-.17-.28-.4-.41-.67a17.1 17.1 0 0 1-.89-2.32l-.09-.29L7.3 12Zm.42 1-.64.64c.28.84.52 1.47.73 1.89a2.35 2.35 0 0 0 .3.47h7.8l.02-.01c.07-.08.16-.23.28-.46.21-.42.45-1.05.73-1.9L16.3 13H7.71Z"/></svg>