<svg width="24" height="24" fill="none" xmlns="http://www.w3.org/2000/svg"><path fill="currentColor" d="M11.5 4c-.53 0-1.08.01-1.57.06a5.2 5.2 0 0 0-1.3.24c-.48.18-1.07.5-1.61.78l-.27.14a8.7 8.7 0 0 1-1.47.65c-.3.05-.6.1-.89.18-.65.17-1.12.73-1.17 1.4l-.22 2v.02c-.03.39.15.73.38.96.23.23.55.39.89.42l.78.1a2 2 0 0 0 3.89.05h6.12a2 2 0 0 0 3.88-.02l.91-.06c.64 0 1.15-.52 1.15-1.16v-.21c0-.55-.04-1.01-.16-1.36a2.1 2.1 0 0 0-.63-.86 3.4 3.4 0 0 0-1.15-.65 17.3 17.3 0 0 0-2.71-.53c-.51-.49-.95-.88-1.31-1.18a4.58 4.58 0 0 0-.98-.66 4.3 4.3 0 0 0-1.13-.25A15.9 15.9 0 0 0 11.5 4Zm3.56 16.7a918.7 918.7 0 0 1 3.64-1.66c1.02-.45 2.03-.9 3.02-1.4l.16-.07c.37-.18.84-.41 1.24-.73.47-.39.88-.94.88-1.74 0-.55-.25-.95-.64-1.2-.35-.22-.77-.3-1.13-.31a5.31 5.31 0 0 0-1.46.13l-5.27 1.57V16c0 1.08-.92 2-2 2H7v-1h6.5c.52 0 1-.48 1-1 0-1 .29-2-1-2H8.8a10.06 10.06 0 0 0-5.12 1.42l-.66.34c-.26.12-.41.18-.56.21-.15.04-.32.05-.63.04A35.81 35.81 0 0 1 .5 16H0v6h9.5a13.3 13.3 0 0 0 4.81-.95l.75-.35Z"/></svg>