<svg width="24" height="24" fill="none" xmlns="http://www.w3.org/2000/svg"><path fill="currentColor" d="m2.2 11.02-.84.53a7.03 7.03 0 0 0 5.99 3.35h.41a6.64 6.64 0 0 0 2.92-.75l3.83 5.84L5 19.96v.54c0 .83-.67 1.5-1.5 1.5h-2A1.5 1.5 0 0 1 0 20.5v-7.23l1.1-1.68A7.69 7.69 0 0 1 0 7.82V7.8A7.18 7.18 0 0 1 7.37.65a7.41 7.41 0 0 1 6.4 4.12l-.12.06h1.41c.77.04 1.93.1 3.48.22l.24.02.14.2c.54.82 1.01 1.55 1.41 2.2a24.6 24.6 0 0 0 3.52 4.68l.15.15v8.2c0 .83-.67 1.5-1.5 1.5h-2a1.5 1.5 0 0 1-1.5-1.5V20h-3l1.58 2.39-1.26.82-1.9-2.9 1.04-.69-3.94-6a6.84 6.84 0 0 0 2.73-5.73c0-1.07-.26-2.1-.7-3.01l-.9.44c.38.79.6 1.66.6 2.58v.01a5.7 5.7 0 0 1-5.5 5.99h-.4a6.03 6.03 0 0 1-5.14-2.88Zm-.17-.87.62-.95a58.58 58.58 0 0 1 2.43-3.93l.14-.2.25-.02c1.86-.12 3.37-.2 4.52-.24h2.08a5.9 5.9 0 0 0-4.74-2.66A5.68 5.68 0 0 0 1.5 7.79c.02.85.21 1.64.53 2.36Z"/></svg>