<svg width="24" height="24" fill="none" xmlns="http://www.w3.org/2000/svg"><path fill="currentColor" d="M11.5 4c-.52 0-1.08.01-1.57.06-.48.04-.95.11-1.29.24a15.3 15.3 0 0 0-1.88.92 9.98 9.98 0 0 1-1.48.65c-.3.05-.6.1-.89.18-.65.17-1.12.73-1.17 1.4l-.22 2v.02c-.02.39.15.73.38.96.23.23.55.39.89.42l.78.1a2 2 0 0 0 3.89.05h6.12a2 2 0 0 0 3.88-.02l.91-.06c.64 0 1.15-.52 1.15-1.16v-.21c0-.55-.04-1.01-.16-1.36-.1-.3-.33-.61-.63-.86a3.4 3.4 0 0 0-1.14-.65c-.56-.18-1.48-.36-2.72-.53-.51-.49-.95-.88-1.31-1.18a4.58 4.58 0 0 0-.98-.66c-.3-.13-.7-.2-1.13-.25-.43-.04-.92-.06-1.43-.06ZM2.75 15v5h1.5v-1.75h15.5V20h1.5v-5h-1.5v1.75H4.25V15h-1.5Z"/></svg>