<svg width="48" height="48" fill="none" xmlns="http://www.w3.org/2000/svg"><path fill="currentColor" d="M2 14.4c.1 6.42 5.28 11.5 11.6 11.6C19.93 26 25 21.41 25 14.4 25 8.08 19.92 3 13.6 3A11.6 11.6 0 0 0 2 14.4Zm-1 0A12.6 12.6 0 0 1 13.6 2C20.48 2 26 7.52 26 14.4c0 4.68-2.1 8.38-5.33 10.53l11.95 19-.84.54-11.96-19.02c-1.83 1-3.95 1.55-6.22 1.55A12.77 12.77 0 0 1 1 14.4Zm11.47-3.9c4.24-.3 7.34-.47 9.52-.5l.02 1c-2.12.03-5.13.2-9.26.48A35.34 35.34 0 0 0 7.82 19H21v1H6.18l.37-.73a59.25 59.25 0 0 1 2.53-4.54 36.66 36.66 0 0 1 3.04-4.05l.13-.16.22-.02Zm20.07-.24 3 .24.2.02.14.16a37.02 37.02 0 0 1 3.04 4.05 58.83 58.83 0 0 1 2.49 4.47L46 23.8V38a2 2 0 0 1-2 2h-5a2 2 0 0 1-2-2v-1h-6v-1h7v2a1 1 0 0 0 1 1h5a1 1 0 0 0 1-1V24.2L40.8 20H28v-1h12.18a35.36 35.36 0 0 0-4.93-7.52l-2.84-.23c-1.4-.12-2.52-.22-3.43-.25l.04-1c.92.03 2.09.13 3.52.26Zm10.45 14.79a31.47 31.47 0 0 0-3.95.02 95.6 95.6 0 0 0-3.67.4l.23.25.05.03.15.09.51.21a29.22 29.22 0 0 0 3.63 1.02H42c.09 0 .22-.04.4-.19a2 2 0 0 0 .4-.54c.05-.1.1-.3.14-.6.03-.2.04-.43.05-.7Zm-4.03-.97c1.26-.1 2.79-.1 4.57 0l.47.02v.47c0 .5-.02.93-.07 1.29a2.69 2.69 0 0 1-.88 1.78c-.27.23-.63.43-1.05.43h-2a13.12 13.12 0 0 1-1-.18 30.4 30.4 0 0 1-3.05-.9 6.94 6.94 0 0 1-.6-.26 1.78 1.78 0 0 1-.45-.3 4.42 4.42 0 0 1-.85-1.13l-.31-.63.7-.1c1.77-.22 3.28-.4 4.52-.5ZM2 38V25h1v13a1 1 0 0 0 1 1h5a1 1 0 0 0 1-1v-2h14v1H11v1a2 2 0 0 1-2 2H4a2 2 0 0 1-2-2Zm28.76-12H24v-1h7.24l2.33 2.9-.1.27a32.46 32.46 0 0 1-1.78 4.2c-.26.47-.51.85-.76 1.12-.23.25-.54.51-.93.51h-1v-1h.98c.01 0 .08-.04.21-.18a5 5 0 0 0 .62-.93c.46-.84 1-2.1 1.62-3.8L30.76 26Zm-25.67-.07c.03.2.07.33.11.4.1.21.25.41.4.55.18.15.31.2.4.2h2v1H6c-.41 0-.78-.2-1.05-.44s-.5-.55-.65-.87c-.1-.2-.15-.42-.2-.67l.99-.18ZM18.02 33H22v1h-4c-.33 0-.61-.19-.82-.39-.23-.2-.45-.5-.67-.85-.45-.7-.94-1.74-1.47-3.08l.93-.36a18.3 18.3 0 0 0 1.38 2.9c.2.33.37.54.5.66.1.1.16.11.17.12Z"/></svg>