<svg width="48" height="48" fill="none" xmlns="http://www.w3.org/2000/svg"><path fill="currentColor" d="M20.7 11.1c-.87.08-1.57.2-2.02.37-.83.3-1.84.84-2.87 1.4l-.51.26c-.6.31-1.19.62-1.73.86a6.5 6.5 0 0 1-1.48.5c-.52.09-1.04.2-1.56.33a1.5 1.5 0 0 0-1.12 1.35v.01L9 19.8a.9.9 0 0 0 .29.7c.2.2.5.34.78.36l2.42.18v.46a2.5 2.5 0 0 0 5 0V21h14v.5a2.5 2.5 0 0 0 5 0V21h2.75c.42 0 .75-.34.75-.75V20c0-.98-.08-1.67-.22-2.1a2.52 2.52 0 0 0-.76-.99c-.42-.36-.99-.7-1.68-.94-.95-.31-2.65-.64-5.15-.97l-.17-.03-.11-.1a48.79 48.79 0 0 0-2.61-2.37 7.4 7.4 0 0 0-1.5-1.04 6.47 6.47 0 0 0-1.72-.35 29.3 29.3 0 0 0-2.58-.1 25.2 25.2 0 0 0-2.8.1Zm-.09-1a31.79 31.79 0 0 1 5.57.02c.8.08 1.52.2 2.02.42.44.19 1.03.6 1.74 1.19.7.57 1.54 1.34 2.54 2.3 2.42.32 4.15.65 5.18 1 .81.27 1.5.67 2.01 1.12.52.45.9.96 1.06 1.44.19.58.27 1.4.27 2.41v.25c0 .97-.78 1.75-1.75 1.75h-1.78a3.5 3.5 0 0 1-6.93 0H18.47a3.5 3.5 0 0 1-6.94-.03l-1.52-.11a2.27 2.27 0 0 1-1.42-.66A1.9 1.9 0 0 1 8 19.72l.4-3.63a2.5 2.5 0 0 1 1.88-2.24c.55-.14 1.1-.25 1.64-.34.31-.05.73-.2 1.25-.43a30.4 30.4 0 0 0 2.16-1.1c1.03-.54 2.1-1.11 3-1.45.58-.21 1.4-.35 2.28-.43ZM7 37v-9h1v4h32v-4h1v9h-1v-4H8v4H7Z"/></svg>