<svg width="24" height="24" fill="none" xmlns="http://www.w3.org/2000/svg"><path fill="currentColor" d="M21 7.26v-.02h-3v2.5h3v1.5h-3v1.75h-3.2l-.55-.05a6.32 6.32 0 0 1-1.68-.45 4.23 4.23 0 0 1-1.75-1.34 4.02 4.02 0 0 1-.75-1.9H5.74l-.18.01c-.16.02-.35.06-.54.14a.98.98 0 0 0-.45.34c-.1.14-.2.37-.2.76s.1.62.2.76c.1.15.27.26.45.34a1.96 1.96 0 0 0 .72.15H7c.58 0 1.23.12 1.69.65.44.5.56 1.21.56 2V20h-1.5v-5.6c0-.71-.12-.95-.2-1.02-.03-.04-.13-.13-.55-.13H5.69l-.32-.02a3.38 3.38 0 0 1-.97-.25 2.53 2.53 0 0 1-1.56-2.48A2.53 2.53 0 0 1 4.4 8.02c.36-.15.72-.22.97-.25.13-.02.24-.02.32-.02h4.36c.1-.77.37-1.39.75-1.9a4.32 4.32 0 0 1 1.75-1.34 6.32 6.32 0 0 1 2.23-.5h3.21v1.75h3v1.5Z"/></svg>