<svg width="48" height="48" fill="none" xmlns="http://www.w3.org/2000/svg"><path fill="currentColor" d="M9 5h6v3h12V5h6v3h5v20H4V8h5V5Zm1 3h4V6h-4v2ZM5 9v18h32V9H5Zm27-1V6h-4v2h4Zm8 22V11h1v20H29v-1h11ZM30 17v3h-1v-3h-3v-1h3v-3h1v3h3v1h-3Zm13 16V14h1v20H32v-1h11ZM16 17H9v-1h7v1Zm2 16a17 17 0 0 0-9.8 3.04l-.58-.82A18 18 0 0 1 18 32c3.59 0 6.92 1.01 9.66 2.74l-.53.85A17.08 17.08 0 0 0 18 33Zm0 4c-2.62 0-5.03.78-6.97 2.1l-.56-.82A13.36 13.36 0 0 1 18 36c2.5 0 4.83.66 6.79 1.8l-.5.87A12.43 12.43 0 0 0 18 37ZM4 42h29v3H4v-3Zm1 1v1h27v-1H5Z"/></svg>