<svg width="24" height="24" fill="none" xmlns="http://www.w3.org/2000/svg"><path fill="currentColor" d="M4 1h4v2h5V1h4v2h3v12H1V3h3V1Zm1 2h2V2H5v1ZM2 4v10h17V4H2Zm14-1V2h-2v1h2Zm-1 6v2h-1V9h-2V8h2V6h1v2h2v1h-2Zm6 7V6h1v11h-7v-1h6ZM8 9H4V8h4v1Zm15 9V8h1v11h-8v-1h7Zm-14.5-.95a8 8 0 0 0-5.09 1.76l-.63-.77a9 9 0 0 1 5.72-1.99 9 9 0 0 1 5.72 1.99l-.63.77a8 8 0 0 0-5.09-1.76Zm0 2.9c-1.05 0-2 .35-2.7.9l-.62-.78a5.37 5.37 0 0 1 3.32-1.12c1.27 0 2.43.42 3.32 1.12l-.62.78a4.37 4.37 0 0 0-2.7-.9ZM17 23H1v-1h16v1Z"/></svg>