<svg width="24" height="24" fill="none" xmlns="http://www.w3.org/2000/svg"><path fill="currentColor" d="M7 1v2h5V1h4v2h3v12H0V3h3V1h4Zm7 10V9h2V8h-2V6h-1v2h-2v1h2v2h1ZM3 9h4V8H3v1Z"/><path fill="currentColor" d="M20 16V6.5h1.5v11H15V16h5Zm2.5 2.5V8.75H24V20h-8v-1.5h6.5Zm-15-.5c-1.92 0-3.65.65-4.93 1.7l-.95-1.15A9.26 9.26 0 0 1 7.5 16.5c2.26 0 4.33.77 5.88 2.05l-.95 1.16A7.76 7.76 0 0 0 7.5 18Zm0 2.9c-1 0-1.88.33-2.55.85l-.92-1.18A5.62 5.62 0 0 1 7.5 19.4c1.32 0 2.54.44 3.47 1.17l-.92 1.18a4.12 4.12 0 0 0-2.55-.85ZM16 24H0v-1.5h16V24Z"/></svg>