<svg width="48" height="48" fill="none" xmlns="http://www.w3.org/2000/svg"><path fill="currentColor" d="M3 2h28.03v44H20.2V34.94h-6.37V46H3V2Zm1 1v42h8.83V33.94h8.37V45h8.83V3H4Zm3.91 3.91h7.15v7.15H7.9V6.9Zm1 1v5.15h5.15V7.9H8.9Zm10.06-1h7.14v7.15h-7.14V6.9Zm1 1v5.15h5.14V7.9h-5.14ZM44 12H32v-1h13v35H32v-1h12V12Zm-5 6h-7v-1h8v5h-8v-1h7v-3ZM7.91 20.43h7.15v7.14H7.9v-7.14Zm1 1v5.14h5.15v-5.14H8.9Zm10.06-1h7.14v7.14h-7.14v-7.14Zm1 1v5.14h5.14v-5.14h-5.14ZM39 25h-7v-1h8v5h-8v-1h7v-3Zm0 7h-7v-1h8v5h-8v-1h7v-3Z"/></svg>