<svg width="16" height="16" fill="none" xmlns="http://www.w3.org/2000/svg"><path fill="currentColor" d="M2.2 6.71V6.7l-.02-.01c-.84-.85-1-1.88-.8-2.8.19-.92.71-1.75 1.27-2.31.24-.25.6-.53 1.03-.69.44-.16.98-.2 1.48.15.48.32.83.92 1.06 1.8.2.75.32 1.76.34 3.1a2.52 2.52 0 0 1 1.8-.41c-.02-.38-.02-.86.04-1.36.1-.8.36-1.77 1.05-2.46a3.09 3.09 0 0 1 2.86-.8 4.75 4.75 0 0 1 3.2 2.45c.22.45.35 1.03.07 1.58-.28.55-.87.92-1.74 1.17-.87.25-2.11.39-3.82.39a2.52 2.52 0 0 1 .46 1.83 5.04 5.04 0 0 1 1.08-.02 4.3 4.3 0 0 1 2.65 1.13c.89.84 1.01 1.84.76 2.74a5.22 5.22 0 0 1-1.35 2.17 3 3 0 0 1-1.19.75c-.49.17-1.07.19-1.62-.14-.54-.32-.95-.92-1.23-1.83-.22-.72-.36-1.68-.4-2.91a2.55 2.55 0 0 1-1.26.28 5.07 5.07 0 0 1-1.28 3.83l-.01.02a2.8 2.8 0 0 1-2.76.83 4.8 4.8 0 0 1-2.22-1.3c-.3-.3-.59-.73-.71-1.22-.13-.5-.09-1.08.28-1.61.37-.52 1-.93 1.93-1.2.72-.21 1.64-.35 2.8-.4a2.52 2.52 0 0 1-.45-1.59 4.81 4.81 0 0 1-3.3-1.15ZM5.26 3.1c-.2-.77-.46-1.1-.65-1.23-.16-.1-.34-.12-.57-.03a2 2 0 0 0-.68.46c-.44.44-.85 1.1-1 1.8-.13.66-.02 1.32.52 1.88.75.63 1.7.93 2.67.89l.03-.23c0-1.64-.13-2.79-.33-3.54Zm2.29 6.34.11.03c.11.03.23.04.35.04.86 0 1.5-.64 1.5-1.5S8.86 6.5 8 6.5 6.5 7.14 6.5 8c0 .7.42 1.25 1.04 1.43Zm-4.1 1.38c-.81.23-1.21.54-1.4.81a.93.93 0 0 0-.13.8c.07.28.25.56.44.76.46.45 1.1.88 1.74 1.02a1.8 1.8 0 0 0 1.8-.54 4.04 4.04 0 0 0 1.02-3.15l-.02-.08c-1.57 0-2.68.15-3.45.38ZM10 5.5c1.68 0 2.82-.14 3.57-.35.76-.22 1.03-.49 1.12-.66.08-.16.08-.38-.08-.69a3.7 3.7 0 0 0-.7-.91 3.75 3.75 0 0 0-1.8-1 2.09 2.09 0 0 0-1.96.53 3.19 3.19 0 0 0-.76 1.87c-.06.46-.05.9-.02 1.21H10Zm.54 7.34c.23.77.54 1.12.78 1.26.24.14.5.15.8.05.3-.1.59-.3.8-.5.46-.47.91-1.1 1.09-1.73.17-.6.1-1.2-.49-1.76a3.3 3.3 0 0 0-2.04-.85c-.33-.03-.6-.02-.8 0l-.51.14c0 1.56.14 2.65.37 3.4Z"/></svg>