<svg width="24" height="24" fill="none" xmlns="http://www.w3.org/2000/svg"><path fill="currentColor" d="m3.47 9.88-.01-.01-.01-.02A4.2 4.2 0 0 1 2.3 5.87a6.9 6.9 0 0 1 1.84-3.32c.35-.36.87-.76 1.46-.98.6-.22 1.32-.26 2 .2.64.43 1.14 1.26 1.48 2.55.31 1.2.5 2.85.51 5.1a3.5 3.5 0 0 1 3.23-.83 9.8 9.8 0 0 1 .01-2.3c.14-1.2.54-2.58 1.5-3.54l.01-.01a4.38 4.38 0 0 1 4.06-1.13 6.88 6.88 0 0 1 3.34 1.84c.47.46.98 1.06 1.3 1.7.3.64.47 1.42.1 2.15-.37.72-1.19 1.26-2.46 1.62-1.28.37-3.12.58-5.69.58h-.52a3.49 3.49 0 0 1 .94 3.29l.47-.06a8.1 8.1 0 0 1 1.43-.02 6.2 6.2 0 0 1 3.83 1.63 3.7 3.7 0 0 1 1.07 3.87 7.58 7.58 0 0 1-1.97 3.14c-.41.42-1 .84-1.68 1.07-.68.22-1.48.25-2.23-.2-.73-.43-1.32-1.27-1.73-2.6a17.6 17.6 0 0 1-.6-4.73 3.53 3.53 0 0 1-2.42.59v.04a7.3 7.3 0 0 1-1.81 5.8l-.01.02a3.94 3.94 0 0 1-3.9 1.18 6.96 6.96 0 0 1-3.22-1.87 3.83 3.83 0 0 1-1-1.72 2.6 2.6 0 0 1 .4-2.22c.5-.71 1.38-1.3 2.75-1.7 1.15-.34 2.66-.56 4.63-.6a3.5 3.5 0 0 1-.9-2.88 6.99 6.99 0 0 1-5.06-1.65Zm.67-.75a6 6 0 0 0 4.4 1.4l.06-.56c.02-2.5-.17-4.22-.48-5.4-.3-1.19-.72-1.74-1.07-1.98-.33-.22-.7-.23-1.1-.08-.4.15-.8.45-1.1.74A5.9 5.9 0 0 0 3.3 6.08a3.2 3.2 0 0 0 .85 3.05Zm7.14 5.27c.23.07.47.1.72.1 1.42 0 2.5-1.08 2.5-2.5S13.42 9.5 12 9.5A2.45 2.45 0 0 0 9.5 12c0 1.17.72 2.1 1.77 2.4Zm-6.2 1.57c-1.24.37-1.9.86-2.22 1.32-.32.45-.36.93-.24 1.4.12.48.41.93.73 1.26a6 6 0 0 0 2.74 1.6c1 .23 2.03.06 2.94-.89a6.3 6.3 0 0 0 1.58-4.95l-.09-.31c-2.46-.02-4.21.2-5.44.57ZM15 8.5c2.53 0 4.26-.21 5.42-.54 1.17-.33 1.65-.76 1.84-1.11.17-.34.13-.76-.11-1.26-.25-.5-.67-1-1.1-1.44A5.88 5.88 0 0 0 18.2 2.6a3.38 3.38 0 0 0-3.16.87 5.02 5.02 0 0 0-1.22 2.95 9 9 0 0 0 0 2.09H15Zm.98 5.22c-.31.03-.41.05-.66.15l-.32.14c-.02 2.44.21 4.15.57 5.32.36 1.2.85 1.78 1.29 2.04.43.26.9.26 1.4.1.49-.16.95-.5 1.29-.82a6.6 6.6 0 0 0 1.7-2.7 2.7 2.7 0 0 0-.8-2.89 5.2 5.2 0 0 0-3.22-1.35c-.5-.04-.93-.02-1.25.01Z"/></svg>