<svg width="48" height="48" fill="none" xmlns="http://www.w3.org/2000/svg"><path fill="currentColor" d="M15.2 4.7a6.44 6.44 0 0 1 1.7 2.24c.46.9.82 1.9 1.08 2.81.62 1.88.82 4.74.92 6.62a78.38 78.38 0 0 1 .1 3.31 6.45 6.45 0 0 1 5-2.28c1.1 0 2.12.25 3.02.7v-.06a35.77 35.77 0 0 1 .49-3.83c.4-2.34 1.32-4.79 1.74-5.63v-.01h.01c.33-.61.91-1.37 1.61-2.06a7.42 7.42 0 0 1 2.45-1.68h.01c.79-.28 1.8-.36 2.78-.28 1 .08 2.03.32 2.88.69a15.1 15.1 0 0 1 4.36 3c.5.5.95 1.14 1.28 1.8.33.64.57 1.35.57 1.96 0 1.1-.34 1.89-.55 2.32A5.48 5.48 0 0 1 43.1 16c-.25.2-.5.4-.88.61-.37.2-.84.41-1.55.67-1.46.62-3.41 1.13-6.74 1.43a57.22 57.22 0 0 1-5.7.21 6.45 6.45 0 0 1 2.26 4.99c0 1.12-.26 2.16-.73 3.06l.75-.06c.68-.05 1.61-.08 2.67-.04 2.1.1 4.76.5 6.78 1.82a7.95 7.95 0 0 1 3.34 3.64c.49 1.15.49 2.1.49 2.48 0 .78-.12 2.17-1.37 4.26a16.93 16.93 0 0 1-2.88 3.7c-.4.4-1.05.85-1.82 1.18a4.7 4.7 0 0 1-2.62.35 5.61 5.61 0 0 1-3.17-1.92c-.81-.92-1.4-2-1.71-2.9v-.01c-.31-.92-.92-2.96-1.13-5.21a92.8 92.8 0 0 1-.3-5.65v-.1l.03-.09c.03-.05.04-.1.06-.16A6.46 6.46 0 0 1 24 30.4a6.67 6.67 0 0 1-2.9-.65 29.2 29.2 0 0 1-.4 3.6c-.35 2.12-1.01 4.78-2.27 6.71a6.64 6.64 0 0 1-5.92 3.34c-.84 0-2.54 0-4.66-1.27a11.3 11.3 0 0 1-3.32-2.7 7.13 7.13 0 0 1-1.08-1.85A5.4 5.4 0 0 1 3 34.94v-.03a4.9 4.9 0 0 1 1.91-3c.91-.72 2-1.22 2.9-1.58h.03c.93-.31 2.46-.72 4.88-1.12h.01c2.23-.31 5.56-.41 5.97-.41h.06l.06.01a9 9 0 0 0 1 .13 6.45 6.45 0 0 1-2.32-5.04c0-1.08.24-2.09.68-2.97a64.6 64.6 0 0 1-3.08.17h-.04c-1.42-.1-3.16-.3-5.32-1.02-2.64-.85-4.78-3.07-5.33-5.36-.54-2.18.23-4.32 1.05-5.77.42-.72 1.03-1.67 1.8-2.56a8.68 8.68 0 0 1 2.72-2.24 4.64 4.64 0 0 1 5.23.56ZM18 19.95a99.28 99.28 0 0 0-.1-3.51c-.1-1.92-.3-4.65-.88-6.37v-.03a15.9 15.9 0 0 0-1-2.64 5.58 5.58 0 0 0-1.42-1.89h-.01l-.01-.02c-1.06-.88-2.45-1.24-4.17-.43a7.7 7.7 0 0 0-2.4 1.99c-.7.83-1.29 1.73-1.68 2.4-.77 1.36-1.4 3.22-.95 5.04.46 1.91 2.31 3.89 4.67 4.64 2.04.68 3.7.88 5.07.98a32.98 32.98 0 0 0 2.88-.16Zm10.04-2.03a59.2 59.2 0 0 0 5.81-.2c3.27-.3 5.12-.8 6.45-1.37h.02l.01-.01a9.5 9.5 0 0 0 1.41-.6c.3-.17.5-.32.75-.52a4.57 4.57 0 0 0 1.26-1.33c.18-.37.45-.99.45-1.88 0-.39-.16-.93-.46-1.51a6.28 6.28 0 0 0-1.1-1.54 14.1 14.1 0 0 0-4.03-2.79h-.01a8.21 8.21 0 0 0-2.57-.61c-.9-.07-1.75 0-2.36.22-.7.27-1.45.81-2.1 1.45a8.5 8.5 0 0 0-1.43 1.81c-.38.77-1.26 3.11-1.65 5.36a41.57 41.57 0 0 0-.45 3.52ZM24 18.4a5.4 5.4 0 0 0-5.5 5.5 5.4 5.4 0 0 0 5.5 5.5 5.4 5.4 0 0 0 5.5-5.5 5.4 5.4 0 0 0-5.5-5.5Zm5.97 9.55c-.03.2-.08.47-.17.74.01.63.1 3.5.3 5.46.2 2.15.78 4.1 1.07 4.99a8 8 0 0 0 1.52 2.57 4.7 4.7 0 0 0 2.6 1.6c.67.12 1.4-.02 2.05-.3a4.8 4.8 0 0 0 1.5-.96h.01c.68-.7 1.55-1.56 2.72-3.5 1.15-1.92 1.23-3.13 1.23-3.75 0-.33 0-1.12-.41-2.1a6.96 6.96 0 0 0-2.95-3.17l-.02-.01c-1.78-1.18-4.22-1.57-6.27-1.66a23.45 23.45 0 0 0-3.18.09Zm-17.1 2.24c-2.36.4-3.83.8-4.7 1.08-.88.34-1.85.8-2.64 1.42A3.92 3.92 0 0 0 4 35.07c-.08.68.1 1.44.37 2.13.28.7.66 1.27.92 1.57l.01.02c.57.66 1.14 1.32 3.07 2.48a7.41 7.41 0 0 0 4.13 1.13c.86 0 3.42-.1 5.08-2.86v-.01c1.15-1.76 1.79-4.25 2.14-6.35a33.09 33.09 0 0 0 .36-3.22 42.24 42.24 0 0 1-1.42-.16c-.57 0-3.69.11-5.78.4Z"/></svg>