<svg width="24" height="24" fill="none" xmlns="http://www.w3.org/2000/svg"><path fill="currentColor" d="M10.42 1.42A1.5 1.5 0 0 1 11.5 1c.41 0 .8.14 1.08.42.28.28.42.67.42 1.08V4h2v1h-2v1h2v1h-2v1h2v1h-2v6.36c1.21.55 2 1.75 2 3.14 0 1.98-1.52 3.5-3.5 3.5A3.45 3.45 0 0 1 8 18.5c0-1.29.78-2.57 2-3.14V2.5c0-.41.14-.8.42-1.08Zm.7.7a.61.61 0 0 0-.12.38V11h1V2.5c0-.19-.06-.3-.13-.37S11.7 2 11.5 2s-.3.06-.37.13ZM12 12h-1v4.06l-.34.11A2.5 2.5 0 0 0 9 18.5c0 1.42 1.08 2.5 2.5 2.5s2.5-1.08 2.5-2.5c0-1.09-.66-2-1.66-2.33l-.34-.11V12Z"/></svg>