<svg width="24" height="24" fill="none" xmlns="http://www.w3.org/2000/svg"><path fill="currentColor" d="M2.42.42A1.5 1.5 0 0 1 3.5 0c.41 0 .8.14 1.08.42C4.86.7 5 1.1 5 1.5v.75h2v1.5H5v1h2v1.5H5v1h2v1.5H5V10H2V1.5c0-.41.14-.8.42-1.08ZM2 14.36V11h3v3.36c1.21.55 2 1.75 2 3.14C7 19.48 5.48 21 3.5 21A3.45 3.45 0 0 1 0 17.5c0-1.29.78-2.57 2-3.14ZM11.5.42l3.04 3.16-1.08 1.04-1.21-1.26V7c0 1.22.59 2.15 1.34 3.34l.04.07c.76 1.2 1.62 2.6 1.62 4.59 0 3.97-2.8 6.25-5.25 6.25v-1.5c1.55 0 3.75-1.52 3.75-4.75 0-1.52-.64-2.6-1.38-3.79l-.12-.17c-.7-1.1-1.5-2.37-1.5-4.04V3.36l-1.2 1.26-1.1-1.04L11.5.42Zm8 .02 4.03 4.03-1.06 1.06-2.22-2.22V7c0 1.22.59 2.15 1.34 3.34l.04.07c.76 1.2 1.62 2.6 1.62 4.59 0 3.97-2.8 6.25-5.25 6.25v-1.5c1.55 0 3.75-1.52 3.75-4.75 0-1.52-.64-2.6-1.38-3.79l-.12-.17c-.7-1.1-1.5-2.37-1.5-4.04V3.31l-2.22 2.22-1.06-1.06L19.5.44ZM24 24H0v-1.5h24V24Z"/></svg>