<svg width="16" height="16" fill="none" xmlns="http://www.w3.org/2000/svg"><path fill="currentColor" d="M2 1.5a1.5 1.5 0 1 1 3 0V2h2v1H5v1h2v1H5v4.34a3.5 3.5 0 1 1-3 0V1.5ZM3.5 1a.5.5 0 0 0-.5.5V6h1V1.5a.5.5 0 0 0-.5-.5Zm7.1-.7 2.85 2.85-.7.7L11 2.11V5.5c0 .82.46 1.18 1.2 1.75l.1.1c.39.3.82.65 1.15 1.15.34.52.55 1.16.55 2 0 1.93-1.79 3.5-4 3.5v-1c1.79 0 3-1.23 3-2.5 0-.66-.16-1.1-.39-1.45a3.95 3.95 0 0 0-.92-.92l-.16-.12C10.85 7.48 10 6.83 10 5.5V2.3L8.45 3.86l-.7-.7L10.6.29ZM3 7v3.02l-.33.12a2.5 2.5 0 1 0 1.66 0L4 10.02V7H3Zm13 9H7.5v-1H16v1Z"/></svg>