<svg width="24" height="24" fill="none" xmlns="http://www.w3.org/2000/svg"><path fill="currentColor" d="m11.5-.01 2.86 2.96-.72.7L12 1.95V7c0 1.3.62 2.28 1.36 3.45l.06.1C14.17 11.74 15 13.09 15 15c0 3.85-2.7 6-5 6v-1c1.7 0 4-1.65 4-5 0-1.6-.67-2.74-1.42-3.92l-.1-.17C11.76 9.8 11 8.6 11 7V1.95l-1.64 1.7-.72-.7L11.5 0Zm8 .01 3.85 3.85-.7.7L20 1.91V7c0 1.3.62 2.28 1.36 3.45l.06.1C22.17 11.74 23 13.09 23 15c0 3.85-2.7 6-5 6v-1c1.7 0 4-1.65 4-5 0-1.6-.67-2.74-1.42-3.92l-.1-.17C19.76 9.8 19 8.6 19 7V1.91l-2.65 2.64-.7-.7L19.5 0ZM2.42.43A1.5 1.5 0 0 1 3.5.01c.41 0 .8.14 1.08.42.28.28.42.67.42 1.08V3h2v1H5v1h2v1H5v1h2v1H5v6.36c1.21.55 2 1.75 2 3.14C7 19.48 5.48 21 3.5 21A3.45 3.45 0 0 1 0 17.5c0-1.29.78-2.57 2-3.14V1.51c0-.41.14-.8.42-1.08Zm.7.7a.61.61 0 0 0-.12.38V10h1V1.51c0-.19-.06-.3-.13-.37S3.7 1 3.5 1s-.3.06-.37.13ZM4 11H3v4.06l-.34.11A2.5 2.5 0 0 0 1 17.5C1 18.92 2.08 20 3.5 20S6 18.92 6 17.5c0-1.09-.66-2-1.66-2.33L4 15.06V11Zm20 12v1H0v-1h24Z"/></svg>