<svg width="24" height="24" fill="none" xmlns="http://www.w3.org/2000/svg"><path fill="currentColor" d="M13.36 13.27c.34 0 .64-.07.88-.2s.42-.32.55-.57c.13-.25.19-.54.19-.89 0-.34-.06-.63-.19-.88a1.29 1.29 0 0 0-.55-.57c-.24-.13-.54-.2-.88-.2-.34 0-.63.07-.88.2a1.3 1.3 0 0 0-.55.57c-.13.25-.2.54-.2.88 0 .35.07.64.2.9.13.25.31.44.55.57a2 2 0 0 0 .88.19Z"/><path fill="currentColor" d="M14 3c-1.82 0-3.46.82-4.56 2.1a4.52 4.52 0 0 0-5.43 4.15A4.5 4.5 0 0 0 5.28 18l.2.01h13.24A4.5 4.5 0 0 0 20 9.25V9a6 6 0 0 0-6-6ZM9.97 13.8l-.5.15a4.68 4.68 0 0 1-2.8-.14c-.4-.2-.7-.49-.93-.87a2.65 2.65 0 0 1-.32-1.33c0-.49.11-.92.33-1.3.22-.39.54-.68.95-.88.4-.2.88-.3 1.43-.3a4.69 4.69 0 0 1 1.77.34v.84a4.4 4.4 0 0 0-1.7-.36c-.35 0-.66.06-.91.2-.25.13-.45.32-.58.57-.13.25-.2.55-.2.9 0 .34.07.64.2.9.13.24.33.44.58.57.25.13.56.2.91.2a5.31 5.31 0 0 0 1.77-.3v.8Zm3.4.3a3.3 3.3 0 0 1-1.47-.3c-.4-.2-.71-.48-.93-.86a2.64 2.64 0 0 1-.32-1.33c0-.49.1-.92.33-1.3.22-.39.54-.68.94-.88.41-.2.9-.3 1.44-.3.57 0 1.05.1 1.46.3.4.2.72.48.93.86.22.38.32.82.32 1.32 0 .5-.1.93-.33 1.31a2.2 2.2 0 0 1-.94.88c-.4.2-.89.3-1.44.3Zm3.6.31 1.19-.73c.14-.1.25-.18.33-.26a.96.96 0 0 0 .2-.23.49.49 0 0 0 .06-.24c0-.11-.03-.2-.08-.28a.5.5 0 0 0-.26-.18 1.25 1.25 0 0 0-.4-.06 2.45 2.45 0 0 0-.88.18v-.65a2.46 2.46 0 0 1 .96-.18c.33 0 .61.04.85.13.24.1.42.22.54.4a1.02 1.02 0 0 1 .07 1.04c-.08.14-.19.27-.34.4a3.7 3.7 0 0 1-.6.38l-.38.22H20v.6h-3.03v-.54Z"/></svg>