<svg width="24" height="24" fill="none" xmlns="http://www.w3.org/2000/svg"><path fill="currentColor" d="M14.75 8.25v6.5h2.81c.86 0 1.56-.15 2.05-.47.5-.33.76-.83.76-1.45a1.49 1.49 0 0 0-.89-1.42c.1-.08.2-.16.28-.26.2-.26.31-.59.31-.98 0-.62-.25-1.12-.76-1.45a3.76 3.76 0 0 0-2.05-.47h-2.51Zm2.63 5.31H16.1v-1.48h1.28c.6 0 1.02.06 1.28.18.12.06.2.14.25.22.05.08.08.19.08.35 0 .15-.03.26-.08.34a.57.57 0 0 1-.25.21c-.26.13-.68.18-1.28.18Zm-.3-2.64h-.98V9.44h.98c.6 0 1.02.05 1.28.18.12.06.2.13.25.2.05.09.09.2.09.35 0 .16-.04.27-.09.35a.58.58 0 0 1-.25.22c-.26.12-.67.18-1.28.18Zm-5.68 3.83-3.26-6.5h-1.3l-3.24 6.5h1.5l.73-1.48h3.3l.75 1.48h1.51Zm-2.82-2.68h-2.2l1.1-2.22 1.1 2.22ZM12 19V4h1.5v15H12Z"/></svg>