<svg width="48" height="48" fill="none" xmlns="http://www.w3.org/2000/svg"><path fill="currentColor" d="M32.82 17.5c2.84 0 4.33.98 4.33 2.83 0 1.16-.62 1.8-1.64 2.14 1.36.35 2.14 1.06 2.14 2.34 0 1.85-1.48 2.83-4.32 2.83H29V17.5h3.82Zm-16.52 0 5.07 10.14h-1.6l-1.27-2.51h-6.1l-1.25 2.5H9.57l5.07-10.13h1.66Zm16.72 5.63h-2.58v3.34h2.58c2.06 0 3.15-.36 3.15-1.66 0-1.3-1.1-1.68-3.15-1.68Zm-17.57-4.3-2.53 5.12h5.06l-2.53-5.12Zm17.06-.17h-2.07v3.35h2.07c2.06 0 3.15-.38 3.15-1.68 0-1.3-1.09-1.67-3.15-1.67ZM24 38V9h1v29h-1Z"/></svg>