<svg width="24" height="24" fill="none" xmlns="http://www.w3.org/2000/svg"><path fill="currentColor" d="M2.13 1.13C2.06 1.2 2 1.3 2 1.5v21c0 .19.06.3.13.37s.18.13.37.13h12c.19 0 .3-.06.37-.13s.13-.18.13-.37v-21c0-.19-.06-.3-.13-.37S14.7 1 14.5 1h-12c-.19 0-.3.06-.37.13Zm-.7-.7A1.5 1.5 0 0 1 2.5 0h12c.41 0 .8.14 1.08.42.28.28.42.67.42 1.08v21c0 .41-.14.8-.42 1.08a1.5 1.5 0 0 1-1.08.42h-12c-.41 0-.8-.14-1.08-.42A1.5 1.5 0 0 1 1 22.5v-21c0-.41.14-.8.42-1.08ZM5 5.5C5 3.52 6.52 2 8.5 2S12 3.52 12 5.5c0 1.39-.79 2.59-2 3.14v1.7L11.1 12l-1 1.5 1.02 1.53-2.58 3.22L7 16.7V8.64A3.41 3.41 0 0 1 5 5.5ZM8.5 3A2.45 2.45 0 0 0 6 5.5c0 1.09.66 2 1.66 2.33l.34.11v8.35l.46.46 1.42-1.78-.98-1.47 1-1.5-.9-1.35V7.94l.34-.11c1-.34 1.66-1.24 1.66-2.33C11 4.08 9.92 3 8.5 3Zm12.37 3.16A8.46 8.46 0 0 1 23 12c0 2.1-.63 4.23-2.13 5.84l-.74-.68A7.46 7.46 0 0 0 22 12c0-1.9-.57-3.77-1.87-5.16l.74-.68Zm-2 2.71A4.7 4.7 0 0 1 20 12c0 1.1-.33 2.23-1.15 3.05l-.7-.7c.58-.58.85-1.44.85-2.35 0-.9-.27-1.78-.88-2.47l.76-.66ZM13 20v1H4v-1h9Z"/></svg>