<svg width="48" height="48" fill="none" xmlns="http://www.w3.org/2000/svg"><path fill="currentColor" d="M9.5 4C8.68 4 8 4.68 8 5.5v37c0 .82.68 1.5 1.5 1.5h19c.82 0 1.5-.68 1.5-1.5v-37c0-.82-.68-1.5-1.5-1.5h-19ZM7 5.5A2.5 2.5 0 0 1 9.5 3h19A2.5 2.5 0 0 1 31 5.5v37a2.5 2.5 0 0 1-2.5 2.5h-19A2.5 2.5 0 0 1 7 42.5v-37ZM22 8h-6V7h6v1Zm-8 8c0-2.78 2.22-5 5-5 2.77 0 5 2.22 5 5 0 1.31-.26 2.36-.84 3.2A4.81 4.81 0 0 1 21 20.83v1.54l1.06 2.12-1 2 1 2-1.02 2.04 1.03 3.1-2.57 2.57-2.5-2.5V20.84c-.9-.39-1.64-.9-2.16-1.65A5.43 5.43 0 0 1 14 16Zm5-4c-2.22 0-4 1.78-4 4 0 1.19.24 2.01.66 2.62.42.6 1.07 1.06 2.02 1.41l.32.12V33.3l1.5 1.5 1.43-1.42-.97-2.9.98-1.97-1-2 1-2-.94-1.88v-2.47l.32-.12c.95-.35 1.6-.8 2.02-1.4.42-.62.66-1.44.66-2.63 0-2.22-1.78-4-4-4Zm-1 3a1 1 0 1 1 2 0 1 1 0 0 1-2 0Zm20.15-.85A13.87 13.87 0 0 1 42 24a14.5 14.5 0 0 1-3.83 9.84l-.74-.68A13.5 13.5 0 0 0 41 24c0-3.4-1.16-6.76-3.55-9.15l.7-.7Zm-2.78 5.01C36.59 20.5 37 22.44 37 24s-.41 3.5-1.63 4.84l-.74-.68C35.61 27.1 36 25.44 36 24s-.39-3.1-1.37-4.16l.74-.68ZM25 40v1H13v-1h12Z"/></svg>