<svg width="16" height="16" fill="none" xmlns="http://www.w3.org/2000/svg"><path fill="currentColor" d="M1 3.5C1 1.52 2.52 0 4.5 0S8 1.52 8 3.5c0 1.39-.79 2.59-2 3.14v2.2l1.1 1.66-1 1.5 1.04 1.56L4.71 16H3V6.64A3.41 3.41 0 0 1 1 3.5ZM4.5 1A2.45 2.45 0 0 0 2 3.5c0 1.09.66 2 1.66 2.33l.34.11V15h.3l1.56-1.56L4.9 12l1-1.5L5 9.15V5.94l.34-.11C6.34 5.49 7 4.59 7 3.5 7 2.08 5.92 1 4.5 1Zm8.37 1.16A8.46 8.46 0 0 1 15 8c0 2.1-.63 4.23-2.13 5.84l-.74-.68A7.46 7.46 0 0 0 14 8c0-1.9-.57-3.77-1.87-5.16l.74-.68Zm-2 2.71A4.7 4.7 0 0 1 12 8c0 1.09-.33 2.23-1.15 3.05l-.7-.7A3.3 3.3 0 0 0 11 8c0-.9-.27-1.78-.88-2.47l.76-.66Z"/></svg>