<svg width="24" height="24" fill="none" xmlns="http://www.w3.org/2000/svg"><path fill="currentColor" d="M8.5 3A2.45 2.45 0 0 0 6 5.5c0 1.09.66 2 1.66 2.33l.34.11v8.35l.46.46 1.42-1.78-.98-1.47 1-1.5-.9-1.35V7.94l.34-.11c1-.34 1.66-1.24 1.66-2.33C11 4.08 9.92 3 8.5 3Z"/><path fill="currentColor" d="M2.5 0c-.41 0-.8.14-1.08.42A1.5 1.5 0 0 0 1 1.5v21c0 .41.14.8.42 1.08.28.28.67.42 1.08.42h12c.41 0 .8-.14 1.08-.42.28-.28.42-.67.42-1.08v-21c0-.41-.14-.8-.42-1.08A1.5 1.5 0 0 0 14.5 0h-12ZM13 21H4v-1h9v1ZM5 5.5C5 3.52 6.52 2 8.5 2S12 3.52 12 5.5c0 1.39-.79 2.59-2 3.14v1.7L11.1 12l-1 1.5 1.02 1.53-2.58 3.22L7 16.7V8.64A3.41 3.41 0 0 1 5 5.5ZM23.25 12a8.7 8.7 0 0 0-2.2-6.01L19.95 7a7.21 7.21 0 0 1 1.8 4.99c0 1.86-.56 3.66-1.8 4.99l1.1 1.02a8.7 8.7 0 0 0 2.2-6.01Z"/><path fill="currentColor" d="M20.25 12c0-1.15-.35-2.33-1.19-3.3l-1.12 1c.56.63.81 1.45.81 2.3 0 .86-.26 1.65-.78 2.17l1.06 1.06A4.52 4.52 0 0 0 20.25 12Z"/></svg>