<svg width="24" height="24" fill="none" xmlns="http://www.w3.org/2000/svg"><path fill="currentColor" d="m11.91 1.22-.41.28-.41-.29.41-.58.41.59ZM19 15.39c.1 4.07-3 7.4-7.07 7.6l-.02.01h-.42A7.6 7.6 0 0 1 4 15.4c0-1.09.48-2.53 1.14-4.02a47.68 47.68 0 0 1 2.43-4.65A90.52 90.52 0 0 1 11 1.33l.06-.09.01-.02h.01l.41.28.41-.28.02.03.06.08A55.94 55.94 0 0 1 13 2.86a94.1 94.1 0 0 1 2.42 3.91 49 49 0 0 1 2.43 4.65c.66 1.48 1.14 2.9 1.14 3.97Zm-7.5-13a89.6 89.6 0 0 0-3.07 4.85 46.7 46.7 0 0 0-2.38 4.54A10.22 10.22 0 0 0 5 15.4a6.6 6.6 0 0 0 6.5 6.6h.39A6.4 6.4 0 0 0 18 15.41v-.01c0-.84-.4-2.1-1.05-3.57a48.08 48.08 0 0 0-2.38-4.55 93.13 93.13 0 0 0-3.07-4.9Z"/></svg>