<svg width="48" height="48" fill="none" xmlns="http://www.w3.org/2000/svg"><path fill="currentColor" d="m19.9 5.21-.4.29-.4-.29.4-.58.4.58Zm-.4 1.17.1.15a153.88 153.88 0 0 1 5.47 8.59 81 81 0 0 1 4.1 7.75C30.29 25.4 31 27.6 31 29.1 31 35.35 25.8 41 19.5 41S8 35.45 8 29.1c0-1.54.7-3.75 1.83-6.27 1.12-2.5 2.6-5.22 4.1-7.75a152.97 152.97 0 0 1 5.57-8.7Zm0-.88-.4-.29-.02.01-.02.04-.1.15a103.68 103.68 0 0 0-1.75 2.57 153.8 153.8 0 0 0-4.14 6.6 80.61 80.61 0 0 0-4.15 7.84C7.79 24.95 7 27.34 7 29.1 7 35.95 12.6 42 19.5 42S32 35.85 32 29.1c0-1.74-.8-4.11-1.92-6.63a81.95 81.95 0 0 0-4.15-7.86 157.56 157.56 0 0 0-5.99-9.35l-.02-.03-.01-.02-.41.29Zm13.1 4.71-.4.29-.41-.28.4-.6.42.6Zm6.9 15.68a7.43 7.43 0 0 1-6 7.22l.2.98a8.43 8.43 0 0 0 6.8-8.18v-.01c0-1.19-.53-2.77-1.26-4.42a52.97 52.97 0 0 0-2.7-5.15 100.8 100.8 0 0 0-3.84-5.99l-.07-.1-.01-.02h-.01l-.41.28-.41-.28-.02.02-.05.08a82.96 82.96 0 0 0-.9 1.36c-.6.9-1.4 2.15-2.25 3.56l.86.52a130.06 130.06 0 0 1 2.78-4.37 99.87 99.87 0 0 1 3.46 5.45 51.92 51.92 0 0 1 2.65 5.04c.73 1.64 1.18 3.05 1.18 4.01Z"/></svg>