<svg width="48" height="48" fill="none" xmlns="http://www.w3.org/2000/svg"><path fill="currentColor" d="M15.15 9h3.68l1.04-.79a30.05 30.05 0 0 1 4.9-3.28C27.1 3.76 29.94 3 34 3v1c-3.93 0-6.6.74-8.78 1.82-1.74.88-3.17 1.98-4.71 3.16l-.55.42c9.88 4.6 16.42 15.1 20.53 36l.12.6H7.04l.55-.79c7.15-10.28 10.95-17.7 11.94-23.26.5-2.77.3-5.05-.52-7a11.9 11.9 0 0 0-4.3-5.04l-1.31-.9c-1.28-.89-2.76-1.92-4.4-2.82C6.8 4.95 4.38 4 2 4V3c2.63 0 5.21 1.05 7.5 2.31 1.67.93 3.22 2.01 4.5 2.9l1.15.79Zm1.31 1a12.09 12.09 0 0 1 3.47 4.57c.9 2.16 1.1 4.64.59 7.55-1 5.65-4.75 12.99-11.57 22.88H39.4c-4.2-20.9-10.82-30.83-20.54-35h-2.39ZM40.5 6a4.5 4.5 0 1 0 0 9 4.5 4.5 0 0 0 0-9ZM35 10.5a5.5 5.5 0 1 1 6 5.48V25h-1v-9.02a5.5 5.5 0 0 1-5-5.48Zm-27.5-.49L13.21 26H8v9H7v-9H1.8l5.7-15.99ZM3.21 25h8.58L7.5 12.99 3.21 25Z"/></svg>