<svg width="24" height="24" fill="none" xmlns="http://www.w3.org/2000/svg"><path fill="currentColor" d="m9.87 1.1-1.16.36a1 1 0 0 0-.7.96v10.12c0 .82.66 1.5 1.5 1.5h4c.82 0 1.5-.68 1.5-1.5V2.44a1 1 0 0 0-.76-.98l-1.49-.38a2.5 2.5 0 0 0-.62-.08H10.6c-.25 0-.5.04-.73.1ZM14 7H9V6h5v1Zm0 5H9v-1h5v1Zm-10.28.25a8.26 8.26 0 0 0 2.46 3.55l.97-1.14a6.76 6.76 0 0 1-2.01-2.91l-1.42.5Zm13.11 3.55a8.26 8.26 0 0 0 2.45-3.55l-1.41-.5a6.76 6.76 0 0 1-2.01 2.9l.97 1.15ZM5.58 17.25a9.76 9.76 0 0 1-3.55-5.43l-1.46.36c.62 2.53 2.1 4.72 4.1 6.26l.91-1.2Zm15.39-5.43a9.76 9.76 0 0 1-3.55 5.43l.91 1.19c2-1.54 3.48-3.73 4.1-6.26l-1.46-.36Zm-8.72 8.87V16h-1.5v4.69l-1.72-1.72-1.06 1.06 3.53 3.53 3.53-3.53-1.06-1.06-1.72 1.72Z"/></svg>