<svg width="48" height="48" fill="none" xmlns="http://www.w3.org/2000/svg"><path fill="currentColor" d="M25.43 6a19.9 19.9 0 0 0-3.86 0c-.38.05-.91.2-1.61.48a1.5 1.5 0 0 0-.96 1.4V25.5c0 .83.67 1.5 1.5 1.5h6c.83 0 1.5-.67 1.5-1.5V7.89a1.5 1.5 0 0 0-.96-1.4A8.23 8.23 0 0 0 25.43 6Zm-4-.99c1.05-.15 3.2-.13 4.14 0a9.1 9.1 0 0 1 1.83.55A2.5 2.5 0 0 1 29 7.89V25.5a2.5 2.5 0 0 1-2.5 2.5h-6a2.5 2.5 0 0 1-2.5-2.5V7.88a2.5 2.5 0 0 1 1.6-2.34 8.69 8.69 0 0 1 1.83-.53Zm-1.4 7.47a1.5 1.5 0 0 1 1.5-1.48h3.92c.83 0 1.5.67 1.5 1.5V15H20l.04-2.52Zm1.5-.48a.5.5 0 0 0-.5.5L21 14h4.94v-1.5a.5.5 0 0 0-.5-.5h-3.92Zm-1.54 9h6.96v2.5c0 .83-.67 1.5-1.5 1.5h-3.92a1.5 1.5 0 0 1-1.5-1.48L19.99 21Zm1.02 1 .02 1.5c0 .28.23.5.5.5h3.92a.5.5 0 0 0 .5-.5V22h-4.94Zm-4.69 9.47a9.97 9.97 0 0 1-2.7-5.4l.99-.15a8.97 8.97 0 0 0 2.43 4.85l-.72.7Zm17.05-5.4a9.96 9.96 0 0 1-2.3 4.97l-.76-.66a8.96 8.96 0 0 0 2.08-4.46l.98.16Zm-21.79-.13c.37 3.08 1.9 5.8 4.16 7.71l-.65.76a12.98 12.98 0 0 1-4.5-8.35l1-.12Zm20.14 7.3a12 12 0 0 0 3.7-7.3l.99.12a12.97 12.97 0 0 1-4 7.91l-.7-.73ZM8.57 25.95c.41 4.3 2.64 8.07 5.9 10.53l-.6.8a15.98 15.98 0 0 1-6.3-11.23l1-.1Zm24.5 10.1a14.97 14.97 0 0 0 5.36-10.1l1 .1a15.97 15.97 0 0 1-5.72 10.77l-.64-.77ZM24 32v10.3l3.65-3.65.7.7-4.85 4.86-4.85-4.86.7-.7L23 42.29V32h1Z"/></svg>