<svg width="48" height="48" fill="none" xmlns="http://www.w3.org/2000/svg"><path fill="currentColor" d="M19.5 5A2.45 2.45 0 0 0 17 7.5V10h17V7.5C34 6.08 32.92 5 31.5 5h-12ZM34 11H17v11h17V11ZM16 7.5C16 5.52 17.52 4 19.5 4h12C33.48 4 35 5.52 35 7.5V23h-7.27L22.7 34.9a5.5 5.5 0 0 1 1.3 3.6c0 3.08-2.42 5.5-5.5 5.5a5.51 5.51 0 0 1-5.5-5.5 5.52 5.52 0 0 1 5.06-5.48L22.25 23H16V7.5ZM23.33 23l-4.2 10.04c1.05.11 2 .51 2.78 1.12L26.64 23h-3.3ZM18.5 34a4.51 4.51 0 0 0-4.5 4.5c0 2.52 2.07 4.5 4.5 4.5 2.52 0 4.5-1.98 4.5-4.5S21.02 34 18.5 34Z"/></svg>