<svg width="48" height="48" fill="none" xmlns="http://www.w3.org/2000/svg"><path fill="currentColor" fill-opacity=".01" d="M0 0h48v48H0z"/><path fill="currentColor" fill-rule="evenodd" d="M33.63 12H4v-1h29.63a2.48 2.48 0 0 1 2.48 2.48v2.47h3.14c1.6 0 3.07.85 3.87 2.24L46 23.24v8.26a2.48 2.48 0 0 1-2.48 2.48H43a4.46 4.46 0 0 1-8.85 0H19.83a4.46 4.46 0 0 1-8.86 0h-4.5A2.48 2.48 0 0 1 4 31.5V21h1v10.5c0 .82.66 1.48 1.48 1.48h5.47v.5a3.46 3.46 0 0 0 6.9 0v-.5h16.27v.5a3.46 3.46 0 0 0 6.91 0v-.5h1.5c.8 0 1.47-.66 1.47-1.48v-8l-2.75-4.81a3.46 3.46 0 0 0-3-1.74H36.1v9.89h-1V13.48c0-.82-.66-1.48-1.48-1.48ZM10 15H0v-1h10v1Zm0 3H4v-1h6v1Z" clip-rule="evenodd"/></svg>