<svg width="24" height="24" fill="none" xmlns="http://www.w3.org/2000/svg"><path fill="currentColor" fill-opacity=".01" d="M0 0h24v24H0z"/><path fill="currentColor" fill-rule="evenodd" d="M17.5 6H1V5h16.5c.83 0 1.5.67 1.5 1.5v1h1.34c.9 0 1.72.48 2.17 1.26l1.49 2.6v4.14c0 .83-.67 1.5-1.5 1.5h-.05a2.5 2.5 0 0 1-4.9 0h-8.1a2.5 2.5 0 0 1-4.9 0H3.5A1.5 1.5 0 0 1 2 15.5V14h1v1.5c0 .28.22.5.5.5h2v.5a1.5 1.5 0 0 0 3 0V16h10v.5a1.5 1.5 0 0 0 3 0V16h1a.5.5 0 0 0 .5-.5v-3.87l-1.36-2.37a1.5 1.5 0 0 0-1.3-.76H19V13h-1V6.5a.5.5 0 0 0-.5-.5ZM5 9H0V8h5v1Zm0 3H1v-1h4v1Z" clip-rule="evenodd"/></svg>