<svg width="24" height="24" fill="none" xmlns="http://www.w3.org/2000/svg"><path fill="currentColor" d="M7 1v.75H5.76a1.75 1.75 0 0 0-1.7 2.15l1.7 7.26c.12.53.42 1.28 1 1.91.47.52 1.13.95 1.99 1.11v2.32c0 .69-.56 1.25-1.25 1.25h-2a2.75 2.75 0 1 0 0 5.5h11a2.75 2.75 0 0 0 2.75-2.75v-4.35a2.75 2.75 0 1 0-1.5 0v4.35c0 .69-.56 1.25-1.25 1.25h-11a1.25 1.25 0 1 1 0-2.5h2a2.75 2.75 0 0 0 2.75-2.75v-2.32c.86-.16 1.52-.6 1.99-1.11.58-.63.88-1.38 1-1.91l1.7-7.26a1.75 1.75 0 0 0-1.7-2.15H12V1h-1.5v3H12v-.75h1.24c.16 0 .28.15.24.3l-1.71 7.3c-.07.3-.26.8-.63 1.2-.36.4-.88.7-1.64.7a2.1 2.1 0 0 1-1.64-.7c-.37-.4-.56-.9-.62-1.2l-1.72-7.3a.25.25 0 0 1 .24-.3H7V4h1.5V1H7Z"/></svg>