<svg width="16" height="16" fill="none" xmlns="http://www.w3.org/2000/svg"><g clip-path="url(#diagnostics-xs_svg__a)"><path fill="currentColor" d="M2.5 1V0h1v3h-1V2h-.64a.5.5 0 0 0-.48.65l1.65 5.27a1.55 1.55 0 0 0 2.94 0l1.65-5.27A.5.5 0 0 0 7.14 2H6.5v1h-1V0h1v1h.64a1.5 1.5 0 0 1 1.43 1.95L6.92 8.22A2.54 2.54 0 0 1 5 9.95v.55A2.5 2.5 0 0 1 2.5 13H2a1 1 0 0 0-1 1 1 1 0 0 0 1 1h9.5c.83 0 1.5-.67 1.5-1.5v-2.55a2.5 2.5 0 1 1 1 0v2.55a2.5 2.5 0 0 1-2.5 2.5H2a2 2 0 0 1-2-2c0-1.1.9-2 2-2h.5c.83 0 1.5-.67 1.5-1.5v-.55a2.54 2.54 0 0 1-1.92-1.73L.43 2.95A1.5 1.5 0 0 1 1.86 1h.64Zm11 6a1.5 1.5 0 1 0 0 3 1.5 1.5 0 0 0 0-3Z"/></g><defs><clipPath id="diagnostics-xs_svg__a"><path fill="currentColor" d="M0 0h16v16H0z"/></clipPath></defs></svg>