<svg width="48" height="48" fill="none" xmlns="http://www.w3.org/2000/svg"><path fill="currentColor" d="M14 4V2h1v5h-1V5h-2.97c-.97 0-1.69.9-1.46 1.84l3.42 14.55v.01c.15.76.62 1.92 1.5 2.89A5.24 5.24 0 0 0 18.5 26c1.84 0 3.13-.76 4-1.71a6.35 6.35 0 0 0 1.51-2.89l3.42-14.56A1.5 1.5 0 0 0 25.97 5H23v2h-1V2h1v2h2.97a2.5 2.5 0 0 1 2.44 3.07l-3.42 14.54a7.35 7.35 0 0 1-1.75 3.35A6.19 6.19 0 0 1 19 26.98v5.52a4.5 4.5 0 0 1-4.5 4.5h-4a3.5 3.5 0 1 0 0 7h23a3.5 3.5 0 0 0 3.5-3.5v-9.53a4.5 4.5 0 1 1 1 0v9.53a4.5 4.5 0 0 1-4.5 4.5h-23a4.5 4.5 0 1 1 0-9h4a3.5 3.5 0 0 0 3.5-3.5v-5.52a6.19 6.19 0 0 1-4.24-2.02A7.35 7.35 0 0 1 12 21.61L8.6 7.07A2.5 2.5 0 0 1 11.03 4H14Zm23.5 19a3.5 3.5 0 1 0 0 7 3.5 3.5 0 0 0 0-7Z"/></svg>