<svg width="24" height="24" fill="none" xmlns="http://www.w3.org/2000/svg"><path fill="currentColor" d="M7 2V1h1v3H7V3H5.76a.5.5 0 0 0-.48.61l1.7 7.28.01.01c.07.34.28.88.69 1.32.4.43.98.78 1.82.78.84 0 1.42-.35 1.82-.78a3 3 0 0 0 .69-1.32l1.71-7.29a.5.5 0 0 0-.48-.61H12v1h-1V1h1v1h1.24c.96 0 1.68.9 1.46 1.84l-1.71 7.27c-.1.49-.39 1.2-.93 1.8A3.4 3.4 0 0 1 10 13.97v2.53A2.5 2.5 0 0 1 7.5 19h-2a1.5 1.5 0 0 0 0 3h11c.83 0 1.5-.67 1.5-1.5v-4.55a2.5 2.5 0 1 1 1 0v4.55a2.5 2.5 0 0 1-2.5 2.5h-11a2.5 2.5 0 0 1 0-5h2c.83 0 1.5-.67 1.5-1.5v-2.53a3.33 3.33 0 0 1-2.06-1.07c-.54-.6-.83-1.3-.93-1.8l-1.7-7.26A1.5 1.5 0 0 1 5.75 2H7Zm11.5 10a1.5 1.5 0 1 0 0 3 1.5 1.5 0 0 0 0-3Z"/></svg>