<svg width="24" height="24" fill="none" xmlns="http://www.w3.org/2000/svg"><path fill="currentColor" d="m0 17.3 8 4.3V4L0 .2v17.1ZM15 .7 9 3.96V21.6l3.54-1.92-.59-.99a33 33 0 0 1-1.62-3.12 8.26 8.26 0 0 1-.83-3.07c0-3.17 2.4-5.73 5.5-5.98V.7Zm4.05 18-.57.94L23 22.03V4.92l-7-4.2v5.8c3.1.25 5.5 2.81 5.5 5.98 0 .97-.4 2.1-.83 3.07a32.34 32.34 0 0 1-1.62 3.12Z"/><path fill="currentColor" d="M15.5 7.5c-2.78 0-5 2.22-5 5 0 .74.32 1.7.75 2.66.43.99 1 2.06 1.57 3.03a59.54 59.54 0 0 0 2.22 3.52l.04.05v.02l.42.6.41-.6.01-.02.04-.05a41.22 41.22 0 0 0 .66-1 42.45 42.45 0 0 0 3.13-5.55 7.2 7.2 0 0 0 .75-2.66c0-2.78-2.22-5-5-5Zm0 14 .41.28-.41-.28Zm1.5-9a1.5 1.5 0 1 1-3 0 1.5 1.5 0 0 1 3 0Z"/></svg>