<svg width="48" height="48" fill="none" xmlns="http://www.w3.org/2000/svg"><path fill="currentColor" d="m2 6.22 12.5 5.73 12-5.5L39 12.18V18h-1v-5.18L27 7.78v26.41l4.63 2.36-.46.9-4.66-2.39-12.01 6.5L2 34.8V6.22ZM26 34.2V7.78l-11 5.04v27.34l11-5.96Zm-12 5.96V12.82L3 7.78V34.2l11 5.96ZM38.39 21.1c-3.5-.1-6.44 2.96-6.49 6.6-.01.86.38 2.09 1.04 3.51.65 1.4 1.53 2.93 2.41 4.34a77.84 77.84 0 0 0 3.15 4.61 77.82 77.82 0 0 0 3.13-4.61 41.72 41.72 0 0 0 2.4-4.34 9.45 9.45 0 0 0 1.07-3.5 6.78 6.78 0 0 0-6.7-6.61h-.01ZM38.5 41l-.4.3-.02-.03-.06-.08a44.1 44.1 0 0 1-1.04-1.43 78.8 78.8 0 0 1-2.47-3.68c-.9-1.43-1.8-3-2.48-4.45-.66-1.43-1.15-2.84-1.13-3.94.06-4.14 3.4-7.7 7.5-7.59a7.78 7.78 0 0 1 7.7 7.59v.01c0 1.1-.49 2.5-1.16 3.93a42.72 42.72 0 0 1-2.47 4.45 80.46 80.46 0 0 1-3.49 5.11l-.06.08-.02.02v.01l-.4-.3Zm0 0 .4.3-.4.53-.4-.53.4-.3Zm0-16.1a2.6 2.6 0 0 0-2.6 2.5c0 1.42 1.18 2.6 2.6 2.6h.1c1.4 0 2.5-1.15 2.5-2.6 0-1.4-1.15-2.5-2.6-2.5Zm-3.6 2.5a3.6 3.6 0 0 1 3.6-3.5c1.95 0 3.6 1.5 3.6 3.5 0 1.95-1.5 3.6-3.5 3.6h-.1a3.62 3.62 0 0 1-3.6-3.6Z"/></svg>