<svg width="16" height="16" fill="none" xmlns="http://www.w3.org/2000/svg"><path fill="currentColor" d="M6 6c0-2.78 2.22-5 5-5s5 2.22 5 5c0 .74-.32 1.7-.75 2.66-.43.99-1 2.06-1.57 3.03a59.54 59.54 0 0 1-2.22 3.52l-.04.05v.02L11 15l-.41.28-.01-.02-.04-.05a41.22 41.22 0 0 1-.66-1c-.43-.64-1-1.54-1.56-2.52a31.35 31.35 0 0 1-1.57-3.03A7.36 7.36 0 0 1 6 6Zm5 9-.41.28.41.6.41-.6L11 15Zm0-.9a61.62 61.62 0 0 0 1.82-2.91c.56-.96 1.1-1.99 1.52-2.93A6.5 6.5 0 0 0 15 6c0-2.23-1.77-4-4-4S7 3.77 7 6c0 .51.24 1.3.66 2.26.41.94.96 1.97 1.52 2.93A58.44 58.44 0 0 0 11 14.1ZM0 1.24l5.25 2.31-.4.92L1 2.76v9.91l4 1.76V9.7h1v4.73l1.8-.79.4.92-2.7 1.19L0 13.33V1.23ZM9 6a2 2 0 1 1 4 0 2 2 0 0 1-4 0Zm2-1a1 1 0 1 0 0 2 1 1 0 0 0 0-2Zm4 9.43V11.5h1v4.47l-2.58-1.14.4-.91 1.18.51Z"/></svg>