<svg width="24" height="24" fill="none" xmlns="http://www.w3.org/2000/svg"><path fill="currentColor" d="M9.73 19.21v-1.3a9.06 9.06 0 0 1-2.63-.4v-.85c.57.17 1.76.38 2.73.38 1.58 0 2.53-.46 2.53-1.09 0-.66-.65-.99-2.18-1.36C8 14.05 7.2 13.5 7.2 12.35c0-.96.81-1.7 2.53-1.87V9.2h.89v1.23a6.9 6.9 0 0 1 2.43.4v.87a7.69 7.69 0 0 0-2.52-.41c-1.45 0-2.21.43-2.21 1.05 0 .65.62.98 2.18 1.36 2.07.5 2.98 1.09 2.98 2.24 0 .97-1.04 1.77-2.86 1.94v1.33h-.9Z"/><path fill="currentColor" d="M3 2h12.2L20 6.8V23H3V2Zm1 1v19h15V8h-5V3H4Zm11 .2V7h3.8L15 3.2Z"/></svg>