<svg width="48" height="48" fill="none" xmlns="http://www.w3.org/2000/svg"><path fill="currentColor" d="M10.75 20.02v-.92h7.58v.92H15.1v7.04h-1.14v-7.04h-3.22Zm7.58 7.04 3.99-7.96h1.3l3.99 7.96h-1.27l-.99-1.96h-4.8l-.97 1.96h-1.25Zm4.62-6.91-1.99 4.02h3.99l-2-4.03Zm5.27 6.91 3.53-4.11-3.28-3.85h1.43l2.54 3.08L35 19.1h1.36l-3.26 3.8 3.58 4.16h-1.43l-2.84-3.38-2.84 3.38h-1.35Z"/><path fill="currentColor" d="M7 2h23.7L42 13.3V46H7V2Zm1 1v42h33V14H30V3H8Zm23 .7V13h9.3L31 3.7ZM35 34H13v-1h22v1Zm-6 4H13v-1h16v1Z"/></svg>