<svg width="48" height="48" fill="none" xmlns="http://www.w3.org/2000/svg"><path fill="currentColor" d="M12.62 14.33v-1.21h1.5c.78-2.3 2.9-3.62 5.55-3.62 1.18 0 2.43.16 3.37.57v1.3a8.46 8.46 0 0 0-3.16-.58c-2.13 0-3.65.81-4.26 2.33h5.49v1.21h-5.76c-.05.26-.05.51-.05.78 0 .29.02.57.05.83h5.76v1.21h-5.45c.68 1.65 2.39 2.3 4.17 2.3 1.74 0 2.69-.27 3.3-.5v1.26c-.75.3-1.74.51-3.33.51-2.76 0-4.93-1.2-5.7-3.57h-1.48v-1.21h1.23a7.2 7.2 0 0 1 0-1.61h-1.23Z"/><path fill="currentColor" d="M7 2h23.7L42 13.3V46H7V2Zm1 1v42h33V14H30V3H8Zm23 .7V13h9.3L31 3.7ZM15 32h-2v-1h2v1Zm20 0H17v-1h18v1Zm-20 6h-2v-1h2v1Zm14 0H17v-1h12v1Z"/></svg>