<svg width="24" height="24" fill="none" xmlns="http://www.w3.org/2000/svg"><path fill="currentColor" d="M3 2h11v6h6v15H3V2Zm6.73 15.9v1.31h.89v-1.33c1.82-.17 2.86-.97 2.86-1.94 0-1.15-.91-1.75-2.98-2.24-1.56-.38-2.18-.7-2.18-1.36 0-.62.76-1.05 2.21-1.05 1 0 1.91.19 2.52.4v-.85a6.9 6.9 0 0 0-2.43-.4V9.2h-.9v1.28c-1.7.16-2.52.9-2.52 1.87 0 1.15.8 1.7 2.98 2.24 1.53.37 2.18.7 2.18 1.36 0 .63-.95 1.1-2.53 1.1-.97 0-2.16-.22-2.73-.4v.86c.58.2 1.5.37 2.63.4Z"/><path fill="currentColor" d="M20 6.8V7h-5V2h.2L20 6.8Z"/></svg>