<svg width="24" height="24" fill="none" xmlns="http://www.w3.org/2000/svg"><path fill="currentColor" d="M4.9 12v.67h2.34v5.12h.83v-5.12h2.34V12H4.9Z"/><path fill="currentColor" d="M14 2H3v21h17v-5.35l-.94 1.12.02.02H15.9l-.7-1.43h-2.25l-.71 1.43H9.1L13 11h2.18l2.55 5.1 1.12-1.3L15.6 11h3.68l.71.86V8h-6V2ZM3.9 11h7.51v2.67H9.07v5.12H6.24v-5.12H3.9V11Z"/><path fill="currentColor" d="M20 7v-.2L15.2 2H15v5h5Zm-6.39 5-2.9 5.8h.9l.72-1.44h3.49l.72 1.43h.92L14.56 12h-.95Zm-.98 3.69 1.44-2.93 1.45 2.93h-2.9Zm7.53-.89-2.57 3h.99l2.06-2.47 2.07 2.46h1.04l-2.6-3.02L23.5 12h-.98l-1.86 2.24L18.82 12h-1.04l2.38 2.8Z"/></svg>