<svg width="24" height="24" fill="none" xmlns="http://www.w3.org/2000/svg"><path fill="currentColor" d="M6.03 18v-5.8h2.29c1.78 0 2.42.75 2.42 1.8 0 1.06-.68 1.84-2.46 1.84H6.85V18h-.82Zm2.11-5.12H6.85v2.29h1.29c1.34 0 1.76-.42 1.76-1.16 0-.75-.42-1.13-1.76-1.13ZM12.16 18v-5.8h2.3c2.04 0 3.18 1.14 3.18 2.9 0 1.7-1.19 2.9-3.17 2.9h-2.3Zm2.36-5.12H13v4.45h1.53c1.52 0 2.28-.93 2.28-2.23 0-1.3-.76-2.22-2.28-2.22ZM19.18 18H20v-2.46h3.01v-.68h-3v-1.98h3.5v-.67h-4.33V18Z"/><path fill="currentColor" d="M3 2h12.2L20 6.8V10h-1V8h-5V3H4v19h15v-2h1v3H3V2Zm12 1.2V7h3.8L15 3.2Z"/></svg>