<svg width="24" height="24" fill="none" xmlns="http://www.w3.org/2000/svg"><path fill="currentColor" d="M14 2H3v21h17v-4h-1.82v-2c-.18.34-.41.65-.7.92A4.3 4.3 0 0 1 14.47 19h-3.3v-3.26c-.1.12-.22.24-.35.35a3.9 3.9 0 0 1-2.54.75h-.43V19H5.03v-7.8h3.29c1 0 1.88.21 2.52.74.12.1.23.22.32.33v-1.06h3.3c1.2 0 2.27.33 3.04 1.05.28.27.5.57.68.9V11.2H20V8h-6V2Z"/><path fill="currentColor" d="M20 7v-.2L15.2 2H15v5h5ZM6.03 12.2V18h.82v-2.16h1.43c1.78 0 2.46-.78 2.46-1.83 0-1.06-.64-1.8-2.42-1.8h-2.3Zm.82.68h1.29c1.34 0 1.76.38 1.76 1.13 0 .74-.42 1.16-1.76 1.16H6.85v-2.29Zm5.31-.68V18h2.3c2 0 3.18-1.2 3.18-2.9 0-1.76-1.14-2.9-3.17-2.9h-2.3Zm.83.68h1.53c1.52 0 2.28.93 2.28 2.22 0 1.3-.76 2.23-2.28 2.23H13v-4.45ZM20 18v-2.46h3.01v-.68h-3v-1.98h3.5v-.67h-4.33V18H20Z"/></svg>