<svg width="24" height="24" fill="none" xmlns="http://www.w3.org/2000/svg"><path fill="currentColor" d="M3 2h11v6h6v15H3V2Zm3.4 10.85v.9h.9a4.85 4.85 0 0 0 0 1.17h-.9v.89h1.1c.56 1.74 2.15 2.62 4.17 2.62a6.4 6.4 0 0 0 2.45-.38v-.92c-.45.17-1.15.36-2.42.36-1.31 0-2.57-.47-3.06-1.68h4v-.9H8.4a5.49 5.49 0 0 1-.04-.6c0-.2 0-.38.04-.57h4.22v-.89H8.61c.45-1.11 1.56-1.7 3.12-1.7.73 0 1.53.1 2.32.42v-.95a6.5 6.5 0 0 0-2.47-.42c-1.94 0-3.5.97-4.07 2.65H6.4Z"/><path fill="currentColor" d="M20 6.8V7h-5V2h.2L20 6.8Z"/></svg>