<svg width="48" height="48" fill="none" xmlns="http://www.w3.org/2000/svg"><path fill="currentColor" d="M15.9 32.04c2.45 0 3.33 1.02 3.33 2.47 0 1.45-.94 2.52-3.39 2.52h-1.96V40h-1.13v-7.96h3.15Zm8.88 0c2.8 0 4.35 1.55 4.35 3.98 0 2.34-1.62 3.98-4.35 3.98H21.6v-7.96h3.17Zm12.86 0v.92h-4.83v2.73h4.14v.92H32.8V40h-1.13v-7.96h5.96Zm-12.78.92h-2.12v6.12h2.12c2.09 0 3.12-1.28 3.12-3.06s-1.03-3.06-3.12-3.06Zm-9.2 0h-1.78v3.15h1.77c1.84 0 2.42-.58 2.42-1.6s-.58-1.55-2.42-1.55Z"/><path fill="currentColor" d="M7 2h23.7L42 13.3V46H7V2Zm1 1v42h33V14H30V3H8Zm23 .7V13h9.3L31 3.7Z"/></svg>