<svg width="48" height="48" fill="none" xmlns="http://www.w3.org/2000/svg"><path fill="currentColor" d="M17.15 22.35v-1.78a12.35 12.35 0 0 1-3.59-.54v-1.16c.78.24 2.4.53 3.72.53 2.16 0 3.45-.63 3.45-1.49 0-.9-.88-1.35-2.97-1.86-2.97-.73-4.06-1.48-4.06-3.06 0-1.3 1.1-2.32 3.45-2.55V8.7h1.21v1.68a9.4 9.4 0 0 1 3.32.56v1.17c-.83-.3-2.07-.56-3.44-.56-1.98 0-3.01.59-3.01 1.43 0 .9.84 1.35 2.97 1.86 2.82.67 4.06 1.48 4.06 3.06 0 1.32-1.4 2.41-3.9 2.64v1.81h-1.21Z"/><path fill="currentColor" d="M7 2h23.7L42 13.3V46H7V2Zm1 1v42h33V14H30V3H8Zm23 .7V13h9.3L31 3.7ZM15 32h-2v-1h2v1Zm20 0H17v-1h18v1Zm-20 6h-2v-1h2v1Zm14 0H17v-1h12v1Z"/></svg>