<svg width="16" height="16" fill="none" xmlns="http://www.w3.org/2000/svg"><path fill="currentColor" d="M6.79 1c-.34 0-.67.05-.99.16l-1.53.51a.4.4 0 0 0-.27.38v4.62L.9 10.8l-.8-.6L3 6.33V2.05c0-.6.38-1.13.95-1.32L5.48.2a4.1 4.1 0 0 1 1.3-.2h2.05c.38 0 .76.05 1.13.16l2.03.58c.6.17 1.01.72 1.01 1.34v4.25l2.9 3.87-.8.6L12 6.67V2.08a.4.4 0 0 0-.29-.38l-2.03-.58A3.1 3.1 0 0 0 8.83 1H6.8ZM11 7H5V6h6v1Zm-7.76 4h.75L4 12h-.26L.9 15.8l-.8-.6L3.24 11Zm8.75 0h.77l3.14 4.2-.8.6-2.84-3.8h-.25l-.02-1ZM11 16H5v-1h6v1Z"/></svg>