<svg width="24" height="24" fill="none" xmlns="http://www.w3.org/2000/svg"><path fill="currentColor" d="M10.79 3c-.34 0-.67.05-.99.16l-1.53.51a.4.4 0 0 0-.27.38v4.32l-4.15 4.15-.7-.7L7 7.95v-3.9c0-.6.38-1.14.95-1.33l1.53-.52a4.1 4.1 0 0 1 1.3-.21h2.05c.38 0 .76.05 1.13.16l2.03.58c.6.17 1.01.72 1.01 1.34v3.88l3.85 3.85-.7.71L16 8.37V4.08a.4.4 0 0 0-.29-.38l-2.03-.58a3.1 3.1 0 0 0-.85-.12H10.8ZM15 10H9V9h6v1Zm-7.72 3.33H8v1h-.3L3.85 18.2l-.7-.71 4.13-4.15Zm8.71 0h.73l4.13 4.15-.7.7-3.85-3.84H16v-1ZM15 19H9v-1h6v1Z"/><path fill="currentColor" d="M8 20.7c0 .72.58 1.3 1.3 1.3h5.4c.72 0 1.3-.58 1.3-1.3V18h1v2.7a2.3 2.3 0 0 1-2.3 2.3H9.3A2.3 2.3 0 0 1 7 20.7l.01-2.7h1L8 20.7Zm7-1.7H9v-1h6v1Z"/></svg>