<svg width="48" height="48" fill="none" xmlns="http://www.w3.org/2000/svg"><path fill="currentColor" d="M27.03 6.17a37.5 37.5 0 0 0-7.06 0c-.72.1-1.7.36-2.94.82A3.1 3.1 0 0 0 15 9.89v9.82l-7.15 7.14-.7-.7L14 19.29V9.9a4.1 4.1 0 0 1 2.68-3.84c1.28-.47 2.33-.77 3.15-.87 1.85-.25 5.68-.23 7.34 0 .75.1 1.8.4 3.14.89A4.1 4.1 0 0 1 33 9.92v9.37l6.85 6.86-.7.7L32 19.71V9.92a3.1 3.1 0 0 0-2.03-2.91 15.48 15.48 0 0 0-2.94-.84Zm-9.69 11.88a2.3 2.3 0 0 1 2.29-2.07h7.74c1.18 0 2.17.9 2.29 2.07l.4 3.95H16.94l.4-3.95Zm2.29-1.07c-.67 0-1.23.5-1.3 1.17L18.06 21h10.9l-.29-2.85a1.3 1.3 0 0 0-1.29-1.17h-7.74ZM15 30.5v9.4a3.1 3.1 0 0 0 3.1 3.1h10.8a3.1 3.1 0 0 0 3.1-3.1v-9.4h1v9.4a4.1 4.1 0 0 1-4.1 4.1H18.1a4.1 4.1 0 0 1-4.1-4.1v-9.4h1Zm1.95 1.5h13.1l-.39 3.93A2.3 2.3 0 0 1 27.37 38h-7.74a2.3 2.3 0 0 1-2.29-2.07l-.4-3.93Zm1.1 1 .29 2.83A1.3 1.3 0 0 0 19.63 37h7.74c.67 0 1.23-.5 1.3-1.17l.28-2.83h-10.9Z"/></svg>