<svg width="48" height="48" fill="none" xmlns="http://www.w3.org/2000/svg"><path fill="currentColor" d="M39.5 1c-1.6 0-3.08.5-4.3 1.36h-.01L8.3 19.15A14.97 14.97 0 0 0 16 47c5.47 0 10.24-2.93 12.86-7.3v-.01L45.64 12.8h.01A7.5 7.5 0 0 0 39.5 1Zm-4.87.53a8.5 8.5 0 0 1 11.83 11.83L29.73 40.22A15.97 15.97 0 0 1 0 32a16 16 0 0 1 7.79-13.72L34.63 1.53ZM39.5 4a4.5 4.5 0 1 0 0 9 4.5 4.5 0 0 0 0-9ZM34 8.5a5.5 5.5 0 1 1 11 0 5.5 5.5 0 0 1-11 0ZM16 20a12 12 0 1 0 0 24 12 12 0 0 0 0-24ZM3 32a13 13 0 1 1 26 0 13 13 0 0 1-26 0Zm13-8a8 8 0 1 0 0 16 8 8 0 0 0 0-16Zm-9 8a9 9 0 1 1 18 0 9 9 0 0 1-18 0Z"/></svg>