<svg width="24" height="24" fill="none" xmlns="http://www.w3.org/2000/svg"><path fill="currentColor" d="m10.17 15.5-1.8-8.4-8.1 2.87 2.36 1.31A4.74 4.74 0 0 0 3 15.27l2.04 3.54c.17.3.38.57.6.8v.01c.88 1 2.16 1.58 3.53 1.59h1.9v-1.5h-1.9c-.93 0-1.8-.4-2.42-1.09a3.2 3.2 0 0 1-.4-.56c-.31-.53.09-1.43.36-1.9l.13-.23 1-1.74 2.33 1.31Zm1.19-8.4 8.17 2.64 1.56-8.43-2.3 1.38a4.74 4.74 0 0 0-3.64-1.67h-4.1a4.77 4.77 0 0 0-4.14 2.37l-.95 1.65 1.3.75.95-1.64a3.27 3.27 0 0 1 2.16-1.56c.22-.05.45-.07.69-.07.6 0 1.18.8 1.46 1.27l.13.22 1 1.73-2.3 1.37Zm6.3 5.24-6.36 5.75 6.52 5.58-.04-2.7a4.74 4.74 0 0 0 3.26-2.3l2.05-3.55c.17-.3.3-.6.4-.92h.01a4.77 4.77 0 0 0-.4-3.86l-.95-1.64-1.3.75.95 1.64c.47.81.56 1.77.27 2.65a3.2 3.2 0 0 1-.28.63c-.3.52-1.28.63-1.83.63h-.26l-2 .01-.04-2.67Z"/></svg>