<svg width="24" height="24" fill="none" xmlns="http://www.w3.org/2000/svg"><path fill="currentColor" d="M12.19 2c.43.34.8.77 1.08 1.25l.14.23 1.5 2.58-1.24.75 4.97 1.6.96-5.14-1.25.75-.26-.41A3.5 3.5 0 0 0 15.13 2h-2.94Zm-2.1-.9c.3-.06.62-.1.95-.1h4.09c1.37 0 2.67.62 3.52 1.67l2.34-1.4-1.57 8.44-8.17-2.63 2.3-1.37-1.01-1.73-.13-.22a3.55 3.55 0 0 0-2.23-1.66c-.92.23-1.72.82-2.2 1.65L7.01 5.4l-.86-.5.95-1.65a4.52 4.52 0 0 1 2.98-2.15ZM8.38 7.07l1.8 8.4-2.33-1.32-1 1.74-.12.23a3.55 3.55 0 0 0-.32 2.76 3.52 3.52 0 0 0 2.53 1.08h1.9v1h-1.9a4.53 4.53 0 0 1-3.91-2.27l-2.05-3.54a4.53 4.53 0 0 1-.31-3.9L.29 9.94l8.09-2.86ZM5.31 17.19c.09-.54.27-1.08.55-1.57l.13-.23 1.48-2.6 1.27.72-1.1-5.12-4.93 1.75 1.27.7-.22.43a3.52 3.52 0 0 0 .09 3.38l1.46 2.54Zm16.88-6.12-.95-1.64.87-.5.95 1.64a4.57 4.57 0 0 1-.02 4.53L21 18.64c-.7 1.2-1.88 2-3.22 2.21l.05 2.73L11.3 18l6.37-5.75.03 2.67 2-.01h.27c.97 0 1.9-.41 2.54-1.1.27-.91.16-1.9-.32-2.74Zm-.6 4.53c-.5.2-1.05.3-1.62.31h-.27l-2.98.02-.02-1.46-3.88 3.51 3.97 3.4-.02-1.45.48-.03a3.52 3.52 0 0 0 2.88-1.76l1.47-2.54Z"/></svg>