<svg width="16" height="16" fill="none" xmlns="http://www.w3.org/2000/svg"><path fill="currentColor" d="M.26.8 8.7 2.38l-2.63 8.17-1.37-2.3-1.73 1.01-.23.13a3.55 3.55 0 0 0-1.64 2.2l.01.03h-.02.02A3.5 3.5 0 0 0 4.43 14H5v1h-.57a4.5 4.5 0 0 1-4.27-3.07l-.06-.2-.01-.02a4.45 4.45 0 0 1-.09-.95v-4.1C0 5.3.6 4 1.66 3.15L.26.81ZM1 9.6c.34-.42.76-.79 1.24-1.07l.23-.13 2.58-1.51.74 1.25 1.6-4.98-5.13-.96L3 3.44l-.4.26A3.5 3.5 0 0 0 1 6.67v2.92ZM11.56 2H11V1h.56a4.5 4.5 0 0 1 4.27 3.07l.06.2v.02c.07.3.11.63.11.95v4.1c0 1.37-.62 2.67-1.68 3.52l1.4 2.33-8.43-1.56 2.63-8.17 1.37 2.3 1.73-1.01.22-.13a3.55 3.55 0 0 0 1.65-2.2l-.01-.03h.02-.02A3.5 3.5 0 0 0 11.56 2ZM15 6.4c-.34.43-.77.8-1.25 1.08l-.23.13-2.58 1.51-.75-1.25-1.6 4.98 5.14.96-.75-1.25.41-.26c1-.64 1.61-1.76 1.61-2.97V6.4Z"/></svg>