<svg width="48" height="48" fill="none" xmlns="http://www.w3.org/2000/svg"><path fill="currentColor" d="M28.99 3.6c.34-.1.73-.11 1.1.04h.02l3.61 1.81c.35.18.58.5.68.84.1.34.11.73-.04 1.1v.01l-2.01 4.06 4.02 2.02-6.72 13.44-.9-.44 6.28-12.56-3.13-1.56-13.6 27.47-6.3 4.66v-7.8L28.15 4.27c.18-.35.5-.58.84-.68Zm2.46 7.42 2-4.02a.65.65 0 0 0 0-.41c-.05-.14-.12-.22-.17-.24l-3.58-1.8a.65.65 0 0 0-.41 0c-.14.05-.22.12-.24.17L27.02 8.8l4.43 2.22Zm-4.88-1.33-13.4 26.89 4.5 2.25L31.01 11.9l-4.44-2.2ZM13 37.61v4.9l3.95-2.93L13 37.61Z"/></svg>