<svg width="48" height="48" fill="none" xmlns="http://www.w3.org/2000/svg"><path fill="currentColor" d="m11.5 3.9.27.18a15.54 15.54 0 0 1 6.4 8.12 15.54 15.54 0 0 1 10.34-1.24l.3.07.08.31a15.49 15.49 0 0 1-4.16 14.39 14.68 14.68 0 0 1-6.08 3.76c-1.1.35-2.9.57-4.39.7a66.68 66.68 0 0 1-2.26.17v3.14A4.5 4.5 0 0 1 7.5 38h-1a3.5 3.5 0 1 0 0 7h29a3.5 3.5 0 0 0 3.5-3.5V21.98a6.5 6.5 0 0 1-6-6.48V9h3V5h1v4h5V5h1v4h3v6.5a6.5 6.5 0 0 1-6 6.48V41.5a4.5 4.5 0 0 1-4.5 4.5h-29a4.5 4.5 0 1 1 0-9h1a3.5 3.5 0 0 0 3.5-3.5v-3.35a15.49 15.49 0 0 1 .23-26.07l.27-.17Zm1.7 25.38.97-.08c1.5-.14 3.2-.35 4.18-.67 2-.63 3.87-1.7 5.67-3.51a14.49 14.49 0 0 0 3.96-13.15 14.54 14.54 0 0 0-9.5 1.3l.03.13a15.53 15.53 0 0 1-5.3 15.98Zm-1.2-.34a14.48 14.48 0 0 0-.5-23.84 14.49 14.49 0 0 0-.5 23.84V14.5h1v14.44ZM34 10v5.5a5.5 5.5 0 1 0 11 0V10H34Z"/></svg>