<svg width="24" height="24" fill="none" xmlns="http://www.w3.org/2000/svg"><path fill="currentColor" d="M17 4V1h1v3h3V1h1v3h1v3.5a3.5 3.5 0 0 1-3 3.46v9.54a2.5 2.5 0 0 1-2.5 2.5H3a2.5 2.5 0 0 1 0-5h.5c.83 0 1.5-.67 1.5-1.5v-1.54a8 8 0 0 1 .23-13.38l.27-.17.27.17c1.45.92 2.6 2.3 3.21 3.92 1.6-.72 3.39-.9 5.08-.51l.3.07.08.3a8 8 0 0 1-5.29 9.37l-.3-.95a7 7 0 0 0 4.68-7.88 7.02 7.02 0 0 0-4.25.57A8.02 8.02 0 0 1 6 14.97v1.53A2.5 2.5 0 0 1 3.5 19H3a1.5 1.5 0 0 0 0 3h14.5c.83 0 1.5-.67 1.5-1.5v-9.54a3.5 3.5 0 0 1-3-3.46V4h1Zm5 1h-5v2.5a2.5 2.5 0 0 0 5 0V5ZM6 13.7a6.98 6.98 0 0 0-.5-11.1A7 7 0 0 0 5 13.7V7h1v6.7Z"/></svg>