<svg width="24" height="24" fill="none" xmlns="http://www.w3.org/2000/svg"><path fill="currentColor" d="M18.5 4V1H17v3h1.5ZM22 4V1h-1.5v3H22Z"/><path fill="currentColor" d="M18.75 10.92A3.5 3.5 0 0 1 16 7.5V4h7v3.5a3.5 3.5 0 0 1-2.75 3.42v9.33A2.75 2.75 0 0 1 17.5 23H3a2.75 2.75 0 1 1 0-5.5h.5c.69 0 1.25-.56 1.25-1.25v-1.47a7.99 7.99 0 0 1 .48-13.2l.27-.17.27.17a8.02 8.02 0 0 1 .48 13.2v1.47A2.75 2.75 0 0 1 3.5 19H3a1.25 1.25 0 1 0 0 2.5h14.5c.69 0 1.25-.56 1.25-1.25v-9.33ZM5 14.5h1V7H5v7.5Z"/><path fill="currentColor" d="M9.92 5.15a8.96 8.96 0 0 1-2.46 9.94 8 8 0 0 0 6.98-9.72l-.07-.31-.31-.07a8.04 8.04 0 0 0-4.14.16Z"/></svg>