<svg width="48" height="48" fill="none" xmlns="http://www.w3.org/2000/svg"><path fill="currentColor" d="M18 9h11v1h-5v3h5.79L37 19.27v2.63h2V18h2.5c1.95 0 3.5 1.4 3.5 3.4v9.1c0 1.98-1.52 3.5-3.5 3.5H39v-3h-2v2.8c0 1.51-.63 2.36-1.34 2.79a2.86 2.86 0 0 1-1.34.41h-.01l-.01-.5v.5H20.06l-4.8-6H8v-6H4v6H3V19h1v5h4v-5.84L14.32 13H23v-3h-5V9Zm-3.32 5L9 18.64V30h6.74l4.8 6h13.81l.2-.03c.16-.04.38-.1.59-.23.4-.25.86-.75.86-1.94V30h4v3h1.5c1.42 0 2.5-1.08 2.5-2.5v-9.1c0-1.4-1.05-2.4-2.5-2.4H40v3.9h-4v-3.17L29.41 14H14.68Z"/></svg>