<svg width="16" height="16" fill="none" xmlns="http://www.w3.org/2000/svg"><path fill="currentColor" d="M8.78 1.5c-.23.1-.5.17-.77.17-.28 0-.54-.08-.77-.17a7.71 7.71 0 0 1-.5-.22l-.12-.06c-.2-.1-.36-.16-.5-.2-.14-.03-.22-.02-.27 0-.06.01-.13.06-.22.17a3 3 0 0 0-.35.57L5 2.25c-.13.2-.3.41-.52.58-.22.16-.48.24-.7.3l-.54.12-.14.02c-.22.05-.39.09-.53.14-.13.06-.2.1-.23.15a.6.6 0 0 0-.07.27 3.05 3.05 0 0 0 .05.7l.05.53c.01.23 0 .5-.07.76-.09.26-.25.48-.4.66-.1.14-.24.27-.35.4l-.1.1c-.16.16-.27.3-.35.42-.08.13-.1.21-.1.28 0 .06.02.15.1.27a2.82 2.82 0 0 0 .43.51c.12.13.26.26.37.4.15.19.31.41.4.68.08.26.09.53.07.77 0 .18-.03.38-.05.55l-.02.13a3 3 0 0 0-.03.54c.01.14.04.22.07.26.04.05.1.1.24.16a3.05 3.05 0 0 0 .66.16l.54.11c.22.06.48.15.7.31.23.17.39.38.52.58l.28.48.06.12c.11.2.2.35.3.46.1.11.16.16.21.18a.5.5 0 0 0 .26-.02c.14-.03.3-.1.5-.2l.12-.05.51-.23c.23-.08.5-.16.77-.16.28 0 .54.08.77.16a7.68 7.68 0 0 1 .62.29c.2.09.36.16.5.2.14.03.22.02.27 0 .06-.01.13-.06.22-.17a3 3 0 0 0 .35-.57l.28-.49c.13-.2.3-.42.52-.58.22-.16.48-.25.7-.3l.54-.12c.05 0 .1-.02.14-.03.22-.04.39-.08.53-.13.13-.06.2-.11.23-.16.03-.04.06-.12.07-.26.01-.15 0-.33-.03-.55l-.02-.15a8.41 8.41 0 0 1-.05-.53c-.01-.24 0-.5.07-.76.09-.27.25-.49.4-.66a8.09 8.09 0 0 1 .46-.5c.15-.17.26-.3.34-.43.08-.12.1-.2.1-.27a.51.51 0 0 0-.1-.27 2.82 2.82 0 0 0-.43-.51l-.37-.4a2.26 2.26 0 0 1-.4-.68 2.05 2.05 0 0 1-.07-.77c0-.18.03-.38.05-.55l.02-.14a3 3 0 0 0 .03-.53.56.56 0 0 0-.07-.27c-.04-.04-.1-.1-.24-.15a3.04 3.04 0 0 0-.66-.16l-.54-.12a2.1 2.1 0 0 1-.7-.3 2.12 2.12 0 0 1-.52-.58l-.28-.48-.06-.12c-.11-.2-.2-.35-.3-.46-.1-.12-.16-.16-.21-.18a.5.5 0 0 0-.26.02 3 3 0 0 0-.5.2c-.04 0-.08.03-.12.05-.16.07-.34.16-.51.22ZM9.66.06c.25-.07.54-.1.83 0 .3.1.5.3.66.5.16.18.3.4.4.6l.08.14.23.4c.1.16.19.26.26.32.08.05.2.1.38.15l.44.1.17.02c.22.05.47.1.7.2a1.36 1.36 0 0 1 .94 1.27c.01.25-.01.5-.04.72l-.02.17-.05.45c0 .2 0 .32.04.42.02.08.09.2.2.34a6.18 6.18 0 0 0 .43.45c.15.16.33.35.46.57a1.49 1.49 0 0 1 0 1.6c-.14.22-.3.41-.46.58l-.14.14-.29.32a.87.87 0 0 0-.2.32c-.03.09-.04.21-.03.4 0 .14.02.28.04.44l.03.19c.02.22.05.48.03.73a1.5 1.5 0 0 1-.27.78c-.18.25-.43.4-.66.5-.23.09-.49.14-.7.18l-.17.04-.45.1a1 1 0 0 0-.38.15 1.1 1.1 0 0 0-.26.3l-.23.4-.07.14c-.11.2-.24.42-.4.62-.16.2-.38.39-.67.48-.3.1-.59.07-.83.01a3.86 3.86 0 0 1-.68-.26l-.14-.07a6.3 6.3 0 0 0-.43-.18 1.1 1.1 0 0 0-.4-.1 3.25 3.25 0 0 0-.84.29l-.14.06c-.2.1-.43.2-.67.26-.25.06-.54.1-.83 0-.3-.1-.5-.3-.66-.5a4.1 4.1 0 0 1-.48-.75l-.23-.4c-.1-.16-.19-.25-.26-.3-.08-.06-.2-.11-.38-.16a6.57 6.57 0 0 0-.61-.13c-.22-.04-.47-.1-.7-.19-.24-.09-.5-.24-.67-.49a1.48 1.48 0 0 1-.27-.78c-.01-.25.01-.5.04-.73l.02-.16.05-.46c0-.18 0-.31-.04-.4a1.1 1.1 0 0 0-.2-.35l-.3-.33-.13-.12a3.76 3.76 0 0 1-.46-.57 1.5 1.5 0 0 1-.25-.8c0-.32.11-.59.25-.8a3.81 3.81 0 0 1 .6-.72l.29-.32a.96.96 0 0 0 .2-.32c.03-.09.04-.21.03-.4 0-.14-.02-.28-.04-.44l-.03-.19a3.98 3.98 0 0 1-.03-.73c.02-.25.08-.53.27-.79.18-.25.43-.4.66-.49.23-.09.49-.14.7-.19.06 0 .12-.02.17-.03l.45-.1c.18-.04.3-.1.38-.15.07-.05.16-.15.26-.3l.23-.4.07-.15c.11-.2.24-.42.4-.6.16-.2.38-.4.67-.5.3-.1.59-.07.83 0 .24.06.48.16.68.26l.14.06.43.2c.17.06.3.09.4.09.1 0 .23-.03.4-.1A6.49 6.49 0 0 0 9 .31c.2-.09.43-.2.67-.25Zm1.38 5.76L7.28 10.6 4.97 8.35l.7-.72 1.51 1.48 3.08-3.91.78.62Z"/></svg>