<svg width="24" height="24" fill="none" xmlns="http://www.w3.org/2000/svg"><path fill="currentColor" d="M14.75 3.94a22.27 22.27 0 0 0-3.89 0 4.6 4.6 0 0 0-1.21.25c-.2.08-.54.31-1.05.73-.5.42-1.13.98-1.9 1.71l-.11.12-.16.02a22.1 22.1 0 0 0-3.62.7c-.49.17-.9.4-1.2.66-.32.27-.49.51-.54.66-.03.12-.06.28-.07.55v1.12c0 .09.05.23.18.36.12.13.25.18.32.18l2 .03v.5c0 .95.77 1.72 1.73 1.72h.02c.97 0 1.75-.78 1.75-1.75V11h3v1H7.95a2.75 2.75 0 0 1-2.7 2.25h-.02a2.73 2.73 0 0 1-2.69-2.24L1.5 12c-.43 0-.8-.23-1.05-.5A1.58 1.58 0 0 1 0 10.47V9.3c.02-.28.04-.57.13-.82.13-.4.44-.79.83-1.11.4-.34.93-.64 1.53-.84.75-.25 1.9-.5 3.64-.73a33 33 0 0 1 1.83-1.65 5.8 5.8 0 0 1 1.3-.88c.38-.17.93-.26 1.5-.32a23.25 23.25 0 0 1 4.07-.01 6.9 6.9 0 0 1 1.7.32c.67.25 1.46.67 2.2 1.06a122.83 122.83 0 0 0 1.57.8c.37.16.66.26.87.3a10.05 10.05 0 0 1 1.1.25 2 2 0 0 1 1.53 1.76V9h-1V7.48c-.03-.37-.35-.73-.77-.84l-.2-.05c-.3-.08-.52-.14-.82-.19-.34-.05-.73-.2-1.12-.37-.4-.18-.83-.4-1.26-.63l-.37-.2c-.76-.4-1.48-.78-2.07-1a6 6 0 0 0-1.44-.26Zm.6 4.58c-.11-.03-.17-.02-.2-.01-.03 0-.08.04-.16.13l-.24.38-.06.1c-.07.14-.15.29-.24.43a2 2 0 0 1-.46.52c-.2.14-.44.22-.64.28a7.19 7.19 0 0 1-.59.12c-.18.03-.33.07-.44.11a.68.68 0 0 0-.17.11c-.02.03-.04.08-.05.2a2.58 2.58 0 0 0 .04.59l.05.46c0 .2 0 .45-.07.69-.08.24-.22.43-.35.6a7.1 7.1 0 0 1-.4.43c-.13.14-.23.25-.3.35a.38.38 0 0 0-.07.2c0 .04.01.1.07.2.07.1.16.21.29.35l.08.08.33.36c.13.16.27.36.35.6.08.24.08.48.07.7 0 .15-.03.33-.05.48l-.01.11c-.03.19-.04.33-.03.45 0 .12.03.17.05.2.02.02.06.06.17.1a2.58 2.58 0 0 0 .56.14l.47.1c.2.06.44.14.64.28.2.15.35.34.46.52.09.13.17.29.24.42a15.73 15.73 0 0 0 .3.49c.09.1.14.12.16.13.03 0 .08.02.19-.01s.25-.09.42-.17l.1-.04c.14-.07.3-.15.45-.2.2-.08.44-.15.69-.15.25 0 .5.07.69.15.15.05.3.13.44.2l.1.04c.18.08.3.14.42.17.11.03.17.02.2 0 .03 0 .08-.03.16-.12.07-.1.15-.22.24-.39l.06-.1.24-.42c.11-.18.26-.37.46-.52.2-.15.44-.23.64-.28l.47-.1.12-.02c.18-.04.33-.07.44-.12.1-.04.15-.08.17-.1.02-.03.04-.08.05-.2a2.58 2.58 0 0 0-.04-.59l-.05-.47c0-.2 0-.45.07-.68.08-.24.22-.44.35-.6l.31-.34.1-.1c.12-.13.22-.24.28-.34.07-.1.08-.17.08-.2 0-.05-.01-.1-.07-.2a2.37 2.37 0 0 0-.37-.44l-.32-.35a1.86 1.86 0 0 1-.36-.6 1.91 1.91 0 0 1-.07-.7c0-.16.03-.33.05-.48l.01-.11c.03-.2.04-.34.03-.46a.3.3 0 0 0-.05-.19c-.02-.02-.06-.06-.17-.1a2.57 2.57 0 0 0-.44-.12l-.12-.02-.47-.1c-.2-.06-.44-.14-.64-.28a1.9 1.9 0 0 1-.46-.52l-.24-.42a14.48 14.48 0 0 0-.3-.5c-.09-.09-.14-.11-.16-.12-.03-.01-.08-.02-.19.01a2.54 2.54 0 0 0-.52.21l-.45.2c-.2.08-.44.15-.69.15-.25 0-.5-.07-.69-.15l-.44-.2-.1-.05c-.18-.08-.3-.13-.42-.16ZM16.67 8c.15.06.26.08.33.08a.9.9 0 0 0 .33-.08l.37-.16.12-.06c.17-.08.38-.18.6-.23.21-.05.48-.08.75.01.27.1.46.27.6.44.14.17.26.37.35.54l.07.12.2.35c.09.13.16.2.21.25a.9.9 0 0 0 .3.12 5.65 5.65 0 0 0 .53.1c.19.04.41.1.62.17.2.09.44.22.6.45.18.23.23.5.25.72.01.22-.01.44-.03.64l-.02.14-.04.39a1 1 0 0 0 .02.33.9.9 0 0 0 .18.27c.07.1.15.18.25.28l.1.11c.14.14.3.31.41.5a1.27 1.27 0 0 1 0 1.46 3.36 3.36 0 0 1-.52.63l-.25.28a.9.9 0 0 0-.17.26.93.93 0 0 0-.02.32 5.8 5.8 0 0 0 .06.53c.02.2.04.43.03.65-.02.22-.07.48-.24.72-.17.23-.4.36-.6.44a3.49 3.49 0 0 1-.78.2l-.38.08a.96.96 0 0 0-.3.12.9.9 0 0 0-.2.25c-.08.1-.13.21-.2.34l-.07.13c-.1.16-.2.36-.35.54a1.4 1.4 0 0 1-.62.44c-.27.09-.53.06-.75 0a3.4 3.4 0 0 1-.73-.28 5.4 5.4 0 0 0-.35-.16.95.95 0 0 0-.33-.08.97.97 0 0 0-.33.08c-.12.04-.23.1-.37.16l-.12.06c-.17.08-.38.17-.6.23-.21.05-.48.08-.75-.01a1.4 1.4 0 0 1-.6-.44 3.61 3.61 0 0 1-.42-.67 5.71 5.71 0 0 0-.2-.34.94.94 0 0 0-.21-.25.92.92 0 0 0-.3-.12l-.38-.08-.15-.03a3.5 3.5 0 0 1-.62-.17 1.35 1.35 0 0 1-.6-.44 1.35 1.35 0 0 1-.25-.72c-.01-.22.01-.45.03-.64l.02-.14.04-.4a.96.96 0 0 0-.02-.32.9.9 0 0 0-.18-.28l-.25-.28-.1-.1a3.31 3.31 0 0 1-.41-.5c-.13-.2-.23-.45-.23-.74s.1-.53.23-.73a3.37 3.37 0 0 1 .52-.63l.25-.27a.9.9 0 0 0 .17-.26.93.93 0 0 0 .02-.32 5.8 5.8 0 0 0-.06-.54 4.36 4.36 0 0 1-.03-.64c.02-.23.07-.49.24-.72.17-.23.4-.36.6-.45a3.48 3.48 0 0 1 .78-.2l.38-.07a.96.96 0 0 0 .3-.13.9.9 0 0 0 .2-.24 5.41 5.41 0 0 0 .27-.47c.1-.17.2-.37.35-.54.15-.17.34-.35.62-.44.27-.1.53-.07.75-.01a3.4 3.4 0 0 1 .73.29l.35.16Zm3 4.64-3.3 4.2-2.05-2 .7-.71 1.26 1.22 2.61-3.32.79.61Z"/></svg>