<svg width="48" height="48" fill="none" xmlns="http://www.w3.org/2000/svg"><path fill="currentColor" d="M29.29 11.14a45.55 45.55 0 0 0-7.61.02c-1.1.11-1.96.28-2.49.5-.44.2-1.15.67-2.15 1.5-.98.8-2.2 1.91-3.67 3.33l-.12.1-.16.03c-3.52.47-5.94.93-7.3 1.39-.98.33-1.8.82-2.42 1.35a3.74 3.74 0 0 0-1.12 1.5A7.4 7.4 0 0 0 2 23.39v.35c0 .7.56 1.26 1.26 1.26H7v.5a3.5 3.5 0 0 0 3.5 3.5h.5a3.5 3.5 0 0 0 3.5-3.5V25H26v1H15.47A4.5 4.5 0 0 1 11 30h-.5a4.5 4.5 0 0 1-4.47-4H3.26A2.26 2.26 0 0 1 1 23.74v-.35c0-1.4.04-2.07.3-2.85a4.7 4.7 0 0 1 1.42-1.94 8.19 8.19 0 0 1 2.76-1.54c1.43-.48 3.88-.95 7.31-1.4a66.57 66.57 0 0 1 3.62-3.28c1-.82 1.8-1.38 2.4-1.64.67-.28 1.66-.46 2.77-.57 1.13-.12 2.43-.16 3.74-.17 1.39 0 2.8.03 4.05.15 1.25.1 2.37.3 3.16.59a39.7 39.7 0 0 1 4.2 2.02l.7.37c.83.44 1.63.85 2.35 1.18.73.32 1.34.54 1.8.62.76.13 1.52.29 2.28.48 1.46.37 2.14 1.77 2.47 2.87a20.16 20.16 0 0 1 .66 4.95A2.96 2.96 0 0 1 44.36 26H43v-1h1.3c.88-.07 1.64-.9 1.7-1.83.03-.53-.04-1.4-.17-2.32-.13-.9-.3-1.78-.46-2.28-.31-1.05-.86-1.96-1.75-2.19-.74-.19-1.47-.34-2.2-.46-.6-.1-1.3-.37-2.05-.7a43.91 43.91 0 0 1-3.13-1.58 38.77 38.77 0 0 0-4.06-1.97c-.65-.24-1.67-.42-2.9-.53Zm-2.14 13.61a7.25 7.25 0 1 1 12.81 4.65l2.6 9.09-3.23-1.3-2.05 2.82-2.3-8.03a7.35 7.35 0 0 1-1.15 0L31.53 40l-2.06-2.81-3.23 1.3 2.6-9.08a7.22 7.22 0 0 1-1.7-4.66Zm2.5 5.48-1.89 6.57 2.06-.83 1.3 1.8 1.7-5.94a7.23 7.23 0 0 1-3.17-1.6Zm6.32 1.6 1.7 5.93 1.31-1.79 2.06.83-1.89-6.58a7.23 7.23 0 0 1-3.18 1.6ZM34.4 18.5a6.25 6.25 0 1 0 0 12.5 6.25 6.25 0 0 0 0-12.5Zm3.4 3.8-4.2 5.34-2.55-2.49.7-.71 1.75 1.7L37 21.7l.8.62Z"/></svg>