<svg width="24" height="24" fill="none" xmlns="http://www.w3.org/2000/svg"><path fill="currentColor" d="M16.54 3.4c.66.24 1.45.66 2.2 1.06l.35.19c.44.23.84.44 1.2.6.38.17.67.27.88.3a10.05 10.05 0 0 1 1.1.26 2 2 0 0 1 1.53 1.75l.2 2.64c.05.76-.43 1.46-1.16 1.65a9.45 9.45 0 0 1 .05-.39c.02-.19.04-.42.03-.64a1.35 1.35 0 0 0-.24-.71c-.17-.24-.4-.37-.61-.45-.21-.09-.43-.13-.63-.17l-.14-.03-.38-.08a.92.92 0 0 1-.3-.12.95.95 0 0 1-.21-.25l-.2-.34a3.62 3.62 0 0 0-.42-.66 1.36 1.36 0 0 0-.6-.45c-.28-.1-.54-.06-.76 0a3.48 3.48 0 0 0-.72.28l-.37.16a.97.97 0 0 1-.33.08.95.95 0 0 1-.33-.08l-.36-.16-.12-.06a3.41 3.41 0 0 0-.6-.23 1.34 1.34 0 0 0-.76 0c-.27.1-.47.28-.61.45-.15.17-.26.37-.35.54l-.07.13-.2.34a.9.9 0 0 1-.2.25.96.96 0 0 1-.31.12 5.7 5.7 0 0 1-.53.1c-.19.05-.41.1-.62.18-.2.08-.44.22-.6.45-.17.23-.23.49-.25.71-.01.23 0 .46.03.65l.02.16a5.81 5.81 0 0 1 .04.51H7.95a2.75 2.75 0 0 1-2.7 2.25h-.02a2.73 2.73 0 0 1-2.69-2.24l-1.04-.01c-.43 0-.8-.23-1.05-.5A1.58 1.58 0 0 1 0 10.6V9.44c.02-.29.04-.57.13-.83.13-.39.44-.78.83-1.1.4-.34.93-.65 1.53-.85.75-.25 1.9-.49 3.64-.72a33 33 0 0 1 1.83-1.65c.52-.43.96-.74 1.3-.89.38-.16.93-.25 1.5-.31a23.26 23.26 0 0 1 4.07-.01 6.9 6.9 0 0 1 1.7.32Z"/><path fill="currentColor" d="m17.7 8.93.45-.2a19.32 19.32 0 0 1 .52-.21c.12-.03.17-.02.2-.01.02 0 .07.03.15.13a2.7 2.7 0 0 1 .3.49l.25.42c.1.18.26.37.46.52.2.14.43.23.63.28l.48.1a13.34 13.34 0 0 1 .56.14c.1.04.15.08.17.1.02.03.04.08.05.2a2.54 2.54 0 0 1-.04.57l-.05.48c-.01.2 0 .46.07.7.08.24.22.44.35.6a6.8 6.8 0 0 0 .4.44c.14.14.23.24.3.35.06.1.07.15.07.2 0 .03-.01.1-.08.2-.06.1-.16.21-.29.35l-.09.1c-.1.1-.21.22-.3.34a1.6 1.6 0 0 0-.43 1.28l.05.46.02.13c.02.2.03.34.02.46 0 .12-.03.18-.05.2-.02.03-.06.07-.17.11a2.56 2.56 0 0 1-.56.14l-.47.1c-.2.05-.44.13-.64.28-.2.14-.35.34-.47.52a6.8 6.8 0 0 0-.3.52c-.09.17-.16.3-.24.39-.07.09-.12.12-.16.13-.03 0-.08.01-.2-.01a2.47 2.47 0 0 1-.41-.17l-.1-.05-.45-.2c-.2-.07-.44-.14-.69-.14-.25 0-.5.07-.69.14l-.45.2-.1.05c-.17.08-.3.14-.42.17-.12.02-.17.02-.2 0-.02 0-.07-.03-.15-.12a2.7 2.7 0 0 1-.3-.5l-.25-.41a1.9 1.9 0 0 0-.46-.52c-.2-.15-.43-.23-.63-.28a19.3 19.3 0 0 1-1.03-.24.4.4 0 0 1-.18-.1.46.46 0 0 1-.05-.2c0-.12 0-.27.03-.46l.01-.11.05-.48c.01-.21 0-.46-.07-.7a1.86 1.86 0 0 0-.35-.6c-.1-.13-.22-.25-.33-.36l-.08-.08a2.38 2.38 0 0 1-.29-.35.38.38 0 0 1-.07-.2c0-.04.01-.1.08-.2.06-.1.16-.21.29-.35l.09-.1a3.3 3.3 0 0 0 .66-.94c.08-.23.08-.48.07-.68l-.05-.47-.02-.13a2.6 2.6 0 0 1-.02-.46c0-.12.03-.17.05-.2.02-.02.06-.06.17-.1a2.55 2.55 0 0 1 .56-.14l.47-.1c.2-.05.44-.13.64-.28.2-.15.35-.35.47-.52l.24-.43.05-.1c.1-.16.17-.29.25-.38.07-.1.12-.12.15-.13.04-.01.1-.02.2.01a2.48 2.48 0 0 1 .52.21l.45.2c.2.08.44.15.69.15.25 0 .5-.07.69-.15Zm-1.32 7.93 3.31-4.2-.78-.63-2.62 3.34-1.26-1.23-.7.71 2.05 2Z"/></svg>