<svg width="16" height="16" fill="none" xmlns="http://www.w3.org/2000/svg"><path fill="currentColor" d="M14.35 2.29 2.7 14.04l-.71-.7L13.65 1.59l.7.7ZM1 7.94l-.41.28-.2-.28.2-.28.41.28Zm9.02-3.45A5.72 5.72 0 0 0 8 4.1c-1.86 0-3.5 1-4.7 2.05a12.8 12.8 0 0 0-1.68 1.79 11.99 11.99 0 0 0 2.4 2.36l.14.12-.7.72a.8.8 0 0 0-.03-.03h-.01A13.17 13.17 0 0 1 .6 8.23v-.02H.58L1 7.94l-.41-.28v-.02a4.72 4.72 0 0 1 .14-.19l.4-.51c.36-.42.87-.98 1.52-1.55C3.93 4.28 5.79 3.1 8 3.1a6.73 6.73 0 0 1 2.55.54c.04.02.13.08.2.15l-.7.71.02.01v.01s.01 0 0 0a.48.48 0 0 0-.05-.03Zm2 1.11a1.62 1.62 0 0 1-.13-.11l.7-.71h.01l.02.02a13.2 13.2 0 0 1 2.78 2.84v.01h.01l-.41.29.41.28v.01a3.56 3.56 0 0 1-.14.2 13.8 13.8 0 0 1-1.91 2.06c-1.29 1.1-3.15 2.28-5.36 2.28a6.74 6.74 0 0 1-2.43-.47h-.02l-.01-.01-.03-.02-.05-.02c-.02-.02-.1-.06-.16-.12l.7-.73-.03-.01-.02-.01h.02c.64.25 1.32.4 2.03.4 1.86 0 3.5-1 4.7-2.05a12.8 12.8 0 0 0 1.68-1.8 11.99 11.99 0 0 0-2.36-2.33ZM15 7.94l.41.28.2-.28-.2-.28-.41.28Zm-2.42-3.17Z"/></svg>