<svg width="24" height="24" fill="none" xmlns="http://www.w3.org/2000/svg"><path fill="currentColor" d="M9 12a3 3 0 1 1 6 0 3 3 0 0 1-6 0Z"/><path fill="currentColor" d="m22.91 11.72.2.28-.2.28-.01.02a7.54 7.54 0 0 1-.2.28l-.6.76a21.8 21.8 0 0 1-2.23 2.29C17.97 17.28 15.23 19 12 19c-3.23 0-5.97-1.72-7.87-3.37A20.45 20.45 0 0 1 1.1 12.3l-.01-.01v-.01L.89 12l.2-.28.01-.02a7.02 7.02 0 0 1 .2-.28l.6-.76a21.8 21.8 0 0 1 2.23-2.29C6.03 6.72 8.77 5 12 5c3.23 0 5.97 1.72 7.87 3.37a20.45 20.45 0 0 1 3.03 3.33v.01h.01ZM12 8a4 4 0 1 0 0 8 4 4 0 0 0 0-8Z"/></svg>