<svg width="24" height="24" fill="none" xmlns="http://www.w3.org/2000/svg"><path fill="currentColor" d="M2.12 12a19.44 19.44 0 0 0 2.67 2.87C6.62 16.47 9.13 18 12 18s5.38-1.53 7.2-3.13A19.44 19.44 0 0 0 21.89 12a19.44 19.44 0 0 0-2.67-2.87C17.38 7.53 14.87 6 12 6S6.62 7.53 4.8 9.13A19.44 19.44 0 0 0 2.11 12Zm20.38 0 .41.28-.01.02-.04.06a11.5 11.5 0 0 1-.76.98 21.8 21.8 0 0 1-2.23 2.29C17.97 17.28 15.23 19 12 19c-3.23 0-5.97-1.72-7.87-3.37A20.45 20.45 0 0 1 1.1 12.3v-.01h-.01v-.01L1.5 12l-.41.28-.2-.28.2-.28.41.28-.41-.28.01-.02a7.02 7.02 0 0 1 .2-.28l.6-.76a21.8 21.8 0 0 1 2.23-2.29C6.03 6.72 8.77 5 12 5c3.23 0 5.97 1.72 7.87 3.37a20.44 20.44 0 0 1 2.99 3.27l.04.06v.01h.01l-.41.29Zm0 0 .41.28.2-.28-.2-.28-.41.28ZM8 12a4 4 0 1 1 8 0 4 4 0 0 1-8 0Zm4-3a3 3 0 1 0 0 6 3 3 0 0 0 0-6Z"/></svg>