<svg width="24" height="24" fill="none" xmlns="http://www.w3.org/2000/svg"><path fill="currentColor" d="M21.35 3.35 3.85 20.98l-.7-.7 17.5-17.63.7.7ZM1.5 12l-.41.28-.2-.28.2-.28.41.28Zm13.62-5.4A8.84 8.84 0 0 0 12 6C9.13 6 6.62 7.53 4.8 9.13A19.44 19.44 0 0 0 2.11 12a12.41 12.41 0 0 0 .85 1.05 18.5 18.5 0 0 0 3.1 2.86l-.7.71a1.47 1.47 0 0 0-.08-.07c-.01 0 0 0 0 0A19.5 19.5 0 0 1 1.1 12.3l-.02-.02v-.01L1.5 12l-.41-.28.01-.02a7.02 7.02 0 0 1 .2-.28l.6-.76a21.8 21.8 0 0 1 2.23-2.29C6.03 6.72 8.77 5 12 5a9.84 9.84 0 0 1 3.7.77c.06.03.18.1.26.18l-.7.72s.01.01 0 0a.97.97 0 0 0-.14-.08Zm3.06 1.7a2.2 2.2 0 0 1-.18-.15l.7-.71h.02l.02.03.03.02a19.56 19.56 0 0 1 4.12 4.2l.02.02-.41.29.41.28-.01.02-.04.06a11.5 11.5 0 0 1-.76.98 21.8 21.8 0 0 1-2.23 2.29C17.97 17.28 15.23 19 12 19a9.86 9.86 0 0 1-3.53-.68h-.03v-.01h-.02v-.01l-.03-.02a2.37 2.37 0 0 1-.27-.18l.7-.72-.02-.01h.02l.01.02.03.01c.98.37 2.03.6 3.14.6 2.87 0 5.38-1.53 7.2-3.13A19.44 19.44 0 0 0 21.89 12a12.82 12.82 0 0 0-.83-1.03 18.56 18.56 0 0 0-2.87-2.68ZM22.5 12l.41.28.2-.28-.2-.28-.41.28ZM8 12a4 4 0 0 1 5.02-3.87h.01a.64.64 0 0 1 .06.03 1.68 1.68 0 0 1 .4.25l-.69.73-.02-.02a.54.54 0 0 0-.08-.04 3.01 3.01 0 0 0-3.62 3.6 1.53 1.53 0 0 0 .07.1l.01.01v.01h.01l-.72.7a2.16 2.16 0 0 1-.26-.35c-.01-.02-.04-.07-.06-.15A4 4 0 0 1 8 12Zm7.85-1.02c0 .01.04.08.05.15a4.02 4.02 0 0 1-4.8 4.77l-.1-.03a1.14 1.14 0 0 1-.14-.07 1.44 1.44 0 0 1-.24-.16l.64-.76s-.01-.01 0 0a1.06 1.06 0 0 0 .1.05 3.01 3.01 0 0 0 3.58-3.55.89.89 0 0 0-.06-.1l.7-.71a1.25 1.25 0 0 1 .27.4Z"/></svg>