<svg width="48" height="48" fill="none" xmlns="http://www.w3.org/2000/svg"><path fill="currentColor" d="m41.85 6.85-34 34-.7-.7 34-34 .7.7ZM3.61 23.5l.46.62a37.73 37.73 0 0 0 8.9 8.32l.14.1.08.08.02.02-.7.72-.03-.03-.06-.06a38.74 38.74 0 0 1-9.78-9.42l-.04-.05-.01-.01v-.01L3 23.5l-.41.28-.2-.28.2-.28.41.28a22.9 22.9 0 0 1-.41-.28v-.01l.02-.03a11.68 11.68 0 0 1 .4-.54 40.4 40.4 0 0 1 5.6-6.02C12.35 13.34 17.7 10 23.99 10c2.1 0 4.84.67 8.22 1.97l.45.18a2.52 2.52 0 0 1 .65.41l-.7.7v.01s-.02 0-.04-.03a2.27 2.27 0 0 0-.24-.14l-.04-.02-.44-.18C28.52 11.62 25.9 11 24 11c-5.92 0-11.06 3.16-14.75 6.38a39.39 39.39 0 0 0-5.64 6.12Zm31.93-8.6-.18-.15.71-.7v-.01a.78.78 0 0 0 .07.05l.06.05.02.01a37.5 37.5 0 0 1 9.15 9l.03.05.01.01-.41.29.41.28v.01l-.02.03a15.56 15.56 0 0 1-.4.54 40.4 40.4 0 0 1-5.6 6.02C35.65 33.66 30.3 37 24.01 37a19.82 19.82 0 0 1-8.45-1.98.94.94 0 0 1-.24-.18l.66-.73h-.02s-.01 0 0 0h.02l.03.01.04.02A18.83 18.83 0 0 0 24 36c5.92 0 11.06-3.16 14.75-6.38a39.39 39.39 0 0 0 5.64-6.12l-.42-.56a36.5 36.5 0 0 0-8.43-8.05ZM45 23.5l.41.28.2-.28-.2-.28-.41.28Zm-28.5 0a7.5 7.5 0 0 1 11.82-6.13v.01a.56.56 0 0 1 .04.04l.02.03.02.01v.01l-.7.7a1.18 1.18 0 0 1-.04-.04l-.02-.01a6.5 6.5 0 0 0-9 9.06 1.46 1.46 0 0 0 .03.04v-.01l-.7.71a7.47 7.47 0 0 1-1.47-4.42Zm14.02-3.68a7.47 7.47 0 0 1 .98 3.68 7.5 7.5 0 0 1-11.16 6.53 1.62 1.62 0 0 1-.13-.12l.7-.7h-.02.02a2.27 2.27 0 0 0 .03.03 6.5 6.5 0 0 0 8.79-8.8l-.01-.03h-.01l.7-.71.11.12Z"/></svg>