<svg width="48" height="48" fill="none" xmlns="http://www.w3.org/2000/svg"><path fill="currentColor" d="M3.61 23.5a23.34 23.34 0 0 0 1.34 1.71c1 1.2 2.47 2.81 4.3 4.41C12.95 32.84 18.08 36 24 36s11.06-3.16 14.75-6.38a39.39 39.39 0 0 0 5.64-6.12 22.95 22.95 0 0 0-1.34-1.71c-1-1.2-2.47-2.81-4.3-4.41C35.05 14.16 29.92 11 24 11s-11.06 3.16-14.75 6.38a39.39 39.39 0 0 0-5.64 6.12Zm41.39 0 .41.28v.01l-.02.03a15.56 15.56 0 0 1-.4.54 40.4 40.4 0 0 1-5.6 6.02C35.65 33.66 30.3 37 24.01 37c-6.28 0-11.64-3.34-15.4-6.62a40.4 40.4 0 0 1-5.99-6.56l-.02-.03.41-.29-.41.28-.2-.28.2-.28.41.28-.41-.28v-.01l.02-.03a11.68 11.68 0 0 1 .4-.54 40.4 40.4 0 0 1 5.6-6.02C12.35 13.34 17.7 10 23.99 10c6.28 0 11.64 3.34 15.4 6.62a40.4 40.4 0 0 1 5.99 6.56l.02.03-.41.29Zm0 0 .41.28.2-.28-.2-.28-.41.28Zm-28.5 0a7.5 7.5 0 1 1 15 0 7.5 7.5 0 0 1-15 0ZM24 17a6.5 6.5 0 1 0 0 13 6.5 6.5 0 0 0 0-13Z"/></svg>