<svg width="24" height="24" fill="none" xmlns="http://www.w3.org/2000/svg"><path fill="currentColor" d="M17.5.5a6 6 0 1 1 0 12 6 6 0 0 1 0-12Zm1.2 8.58c.27-.03.57-.1.9-.2v-.82a6.28 6.28 0 0 1-1.7.24c-.26 0-.51-.03-.74-.09a1.84 1.84 0 0 1-.59-.27 1.4 1.4 0 0 1-.38-.43h2.54v-.67h-2.74a2.87 2.87 0 0 1-.01-.62h2.75v-.67h-2.59c.1-.18.22-.33.4-.46.16-.13.37-.23.6-.3.23-.07.49-.1.77-.1a4.5 4.5 0 0 1 1.66.32v-.85a4.4 4.4 0 0 0-1.74-.31c-.45 0-.86.07-1.23.2a2.39 2.39 0 0 0-1.5 1.5h-.6v.67h.46a3.99 3.99 0 0 0 0 .62h-.46v.67h.62a2.3 2.3 0 0 0 1.48 1.45c.36.12.77.18 1.23.18.31 0 .6-.02.87-.06Zm-1.78 10.76-1.86.86-.75.35a4.62 4.62 0 0 1-.43.16A14.98 14.98 0 0 1 9.5 22H0v-6h.5a57.25 57.25 0 0 1 1.33.01c.3 0 .48 0 .63-.04.15-.03.3-.09.56-.21l.66-.34.49-.26A10.06 10.06 0 0 1 8.8 14h4.7c1.08 0 1.05.7 1.01 1.52l-.01.48c0 .52-.48 1-1 1H7v1h6.5c1.08 0 2-.92 2-2v-.71l5.27-1.57a4.58 4.58 0 0 1 .47-.09c.26-.03.62-.06.99-.04.36.02.78.1 1.13.31.39.25.64.65.64 1.2 0 .8-.41 1.35-.88 1.74-.4.32-.87.55-1.24.73l-.16.08c-.99.5-2 .94-3.02 1.4-.6.26-1.19.52-1.78.8Z"/></svg>