<svg width="16" height="16" fill="none" xmlns="http://www.w3.org/2000/svg"><path fill="currentColor" d="M0 8a8 8 0 1 1 16 0A8 8 0 0 1 0 8Zm8-7a7 7 0 1 0 0 14A7 7 0 0 0 8 1Z"/><path fill="currentColor" d="M3 7.2v-.93h1.15C4.75 4.51 6.38 3.5 8.4 3.5c.91 0 1.87.13 2.6.44v1a6.48 6.48 0 0 0-2.43-.45c-1.64 0-2.8.62-3.27 1.78h4.2v.93H5.1c-.04.2-.04.4-.04.6 0 .22.01.44.03.63h4.42v.93H5.33c.52 1.27 1.83 1.76 3.2 1.76 1.34 0 2.06-.2 2.53-.38v.97a6.7 6.7 0 0 1-2.55.4c-2.12 0-3.79-.93-4.37-2.75H3v-.93h.94a5.52 5.52 0 0 1 0-1.23H3Z"/></svg>