<svg width="48" height="48" fill="none" xmlns="http://www.w3.org/2000/svg"><path fill="currentColor" d="M33.84 14.23a4.53 4.53 0 0 0 1.37.33l.54.03c.25 0 .45-.03.63-.07.17-.05.31-.12.42-.2.11-.09.2-.19.24-.3a1 1 0 0 0 .08-.4.67.67 0 0 0-.1-.36.91.91 0 0 0-.25-.27c-.1-.08-.23-.14-.37-.2a5.26 5.26 0 0 0-1.47-.28 10.39 10.39 0 0 0-.88-.03L34.17 9h4.08v1.05h-2.82l-.06 1.37a8.75 8.75 0 0 1 1.04.14 5.54 5.54 0 0 1 1 .34c.15.08.3.17.42.28a1.7 1.7 0 0 1 .64 1.4c0 .19-.02.37-.06.55a1.78 1.78 0 0 1-1.04 1.25 4.38 4.38 0 0 1-1.51.29 7.03 7.03 0 0 1-1.2-.11 3.62 3.62 0 0 1-.82-.28v-1.05Z"/><path fill="currentColor" d="M26.5 12a9.5 9.5 0 1 1 19 0 9.5 9.5 0 0 1-19 0ZM36 3.5a8.5 8.5 0 1 0 0 17 8.5 8.5 0 0 0 0-17Zm6.22 21.49-11.15 3.36A3 3 0 0 1 28.09 31H15v-1h13.09a2 2 0 1 0 0-4H17.42c-2.98 0-6.18.65-8.7 1.94a22.17 22.17 0 0 0-2.32 1.39l-.45.31c-.34.24-.65.46-.96.64-.89.5-1.84.7-3.99.72v8h18c2.36 0 4.65-.46 6.37-.93a28.93 28.93 0 0 0 2.76-.91l.04-.02.39-.18a1938.7 1938.7 0 0 1 14.85-6.93c.8-.36 1.66-.75 2.35-1.31A2.99 2.99 0 0 0 47 26.29c0-.56-.24-.9-.6-1.12-.4-.24-.98-.36-1.63-.4a9.91 9.91 0 0 0-2.51.21l-.04.01Zm-13.85 12.6.2.47h-.02l-.04.02a11.6 11.6 0 0 1-.76.29A29.04 29.04 0 0 1 19 40H0V30h.5c2.5 0 3.29-.2 4-.6.26-.14.5-.32.83-.54l.5-.36c.58-.4 1.33-.87 2.44-1.44A20.61 20.61 0 0 1 17.42 25h10.67a3 3 0 0 1 2.92 2.33l10.96-3.3.02-.01.1.49-.1-.5h.06a9.62 9.62 0 0 1 .82-.14c.53-.07 1.24-.13 1.95-.1.71.04 1.48.18 2.1.55.64.4 1.08 1.04 1.08 1.97 0 1.46-.7 2.48-1.6 3.2-.8.65-1.78 1.1-2.56 1.45l-.22.1a1284.82 1284.82 0 0 0-14.63 6.82l-.4.19-.22-.45Zm0 0 .2.47.01-.01-.2-.45Z"/></svg>