<svg width="24" height="24" fill="none" xmlns="http://www.w3.org/2000/svg"><path fill="currentColor" d="m15.66 8.07.3.11.36.09.4.06.42.02c.19 0 .35-.02.48-.05.13-.04.24-.09.33-.15a.61.61 0 0 0 .19-.24c.04-.09.06-.2.06-.31a.5.5 0 0 0-.07-.27.66.66 0 0 0-.2-.21 1.13 1.13 0 0 0-.29-.15 3.07 3.07 0 0 0-.75-.18l-.4-.04-.37-.02h-.31l.09-2.71h3.17v.82h-2.2l-.04 1.07a5.85 5.85 0 0 1 .8.11l.4.11c.13.04.26.09.38.16.12.06.23.13.33.22.1.08.19.18.26.28.07.11.13.23.17.36.04.13.06.28.06.45 0 .15-.02.29-.05.43a1.32 1.32 0 0 1-.42.72 1.87 1.87 0 0 1-.91.41c-.2.04-.41.06-.66.06-.18 0-.34 0-.5-.02-.16-.01-.3-.03-.43-.06a2.6 2.6 0 0 1-.64-.21v-.82l.04-.04ZM9.56 22H0v-6h.5l1.04.01a4.6 4.6 0 0 0 2.16-.57l.49-.25a10.43 10.43 0 0 1 4.59-1.18h4.72c.85 0 1.58.54 1.87 1.29l5.34-1.61c.23-.05 1.93-.41 2.79.28.32.26.5.63.5 1.07 0 1.51-1.37 2.14-2.19 2.51l-.1.05a973.4 973.4 0 0 0-7.35 3.43c-.12.05-2.36.98-4.8.98V22Zm-8.55-1h8.55c2.24 0 4.37-.88 4.39-.89 0 0 4.42-2.09 7.34-3.43l.11-.05c.91-.41 1.6-.79 1.6-1.6 0-.17-.06-.24-.12-.29-.35-.28-1.33-.22-1.92-.09l-5.49 1.65c-.15.96-.98 1.7-1.98 1.7h-6.5v-1h6.5a1 1 0 0 0 1-1 1 1 0 0 0-1-1H8.77c-1.31 0-2.81.39-4.13 1.07l-.49.25c-1.33.69-1.41.71-2.64.69H.99v4l.02-.01Zm16.5-8.5a6 6 0 1 1 5.99-6 6 6 0 0 1-6 6h.01Zm0-11a5 5 0 1 0 0 10 5 5 0 0 0 0-10Z"/></svg>