<svg width="24" height="24" fill="none" xmlns="http://www.w3.org/2000/svg"><path fill="currentColor" d="M11.5 6.5a6 6 0 1 1 12 0 6 6 0 0 1-12 0Zm4.46 1.68a2.26 2.26 0 0 1-.3-.11v.81c.07.05.17.09.27.13a2.82 2.82 0 0 0 .8.15 5.5 5.5 0 0 0 1.15-.04c.2-.04.37-.09.52-.16a1.52 1.52 0 0 0 .66-.58c.06-.12.12-.25.15-.39a1.9 1.9 0 0 0-.02-.88 1.32 1.32 0 0 0-.43-.64 1.96 1.96 0 0 0-.7-.37 4.3 4.3 0 0 0-1.21-.22l.04-1.06h2.2V4H15.9l-.09 2.7.31.01a8.12 8.12 0 0 1 1.16.13l.36.1.29.16a.8.8 0 0 1 .2.21c.04.08.07.17.07.28 0 .11-.02.21-.06.3a.6.6 0 0 1-.2.25.93.93 0 0 1-.32.15c-.14.04-.3.06-.49.06a4.19 4.19 0 0 1-1.18-.17Zm-.9 12.52a918.7 918.7 0 0 1 3.64-1.66c1.02-.45 2.03-.9 3.02-1.4l.16-.07c.37-.18.84-.41 1.24-.73.47-.39.88-.94.88-1.74 0-.55-.25-.95-.64-1.2-.35-.22-.77-.3-1.13-.31a5.31 5.31 0 0 0-1.46.13l-5.27 1.57V16c0 1.08-.92 2-2 2H7v-1h6.5c.52 0 1-.48 1-1l.01-.48c.04-.82.07-1.52-1.01-1.52H8.8a10.06 10.06 0 0 0-5.12 1.42l-.66.34c-.26.12-.41.18-.56.21-.15.04-.32.05-.63.04A35.81 35.81 0 0 1 .5 16H0v6h9.5a13.3 13.3 0 0 0 4.81-.95l.75-.35Z"/></svg>