<svg width="16" height="16" fill="none" xmlns="http://www.w3.org/2000/svg"><path fill="currentColor" d="M6.46 7.68a2.26 2.26 0 0 1-.3-.11v.81c.07.05.17.09.27.13a2.82 2.82 0 0 0 .8.15 5.5 5.5 0 0 0 1.15-.04c.2-.04.37-.09.52-.16a1.52 1.52 0 0 0 .66-.58c.06-.12.12-.25.15-.39a1.9 1.9 0 0 0-.02-.88 1.32 1.32 0 0 0-.43-.64 1.96 1.96 0 0 0-.7-.37 4.3 4.3 0 0 0-1.21-.22l.04-1.06h2.2V3.5H6.4l-.09 2.7.31.01a8.12 8.12 0 0 1 1.16.13l.36.1.29.16a.8.8 0 0 1 .2.21c.04.08.07.17.07.28 0 .11-.02.21-.06.3a.6.6 0 0 1-.2.25.93.93 0 0 1-.32.15c-.14.04-.3.06-.49.06a4.19 4.19 0 0 1-1.18-.17Z"/><path fill="currentColor" d="M8 0a6 6 0 1 0 0 12A6 6 0 0 0 8 0ZM3 6a5 5 0 1 1 10 0A5 5 0 0 1 3 6Zm12 10v-1H1v1h14Z"/></svg>