<svg width="16" height="16" fill="none" xmlns="http://www.w3.org/2000/svg"><path fill="currentColor" d="M4.52 15.7a3.65 3.65 0 0 1-1.63.3c-.5 0-.91-.11-1.25-.31a2 2 0 0 1-.78-.91 3.5 3.5 0 0 1-.27-1.45c0-.54.1-1.01.28-1.41.19-.4.46-.7.8-.9.36-.22.78-.32 1.27-.32.3 0 .58.03.83.08.26.06.5.13.7.24v.83a3.97 3.97 0 0 0-1.47-.3c-.3 0-.54.08-.74.21-.2.14-.36.34-.46.6-.1.27-.16.59-.16.97 0 .41.05.76.15 1.02.1.27.26.47.46.6s.46.19.78.19a3.65 3.65 0 0 0 1.5-.27v.83Zm4.21.18L6.8 12.94a6.8 6.8 0 0 1-.43-.76c.04.36.06.62.06.77v2.93h-.98v-5.07h1.06l1.93 2.94c.14.2.28.46.42.76a7.5 7.5 0 0 1-.04-.77v-2.93h.97v5.07H8.73Zm5.55-2.45h1v2.2a5.79 5.79 0 0 1-1.97.36 2.9 2.9 0 0 1-1.38-.3 1.9 1.9 0 0 1-.83-.88c-.19-.4-.28-.9-.28-1.48 0-.55.1-1.02.3-1.42.2-.4.48-.7.86-.9.38-.2.83-.31 1.36-.31.33 0 .63.03.9.08.28.06.52.14.74.25v.84a4.26 4.26 0 0 0-1.57-.31c-.34 0-.62.06-.85.2-.23.13-.4.33-.52.6-.11.25-.17.58-.17.97 0 .41.06.75.17 1.02.1.27.27.47.5.6.22.13.5.2.85.2.34 0 .64-.04.89-.1v-1.62ZM3.5 1C2.67 1 2 1.67 2 2.5v7H1v-7A2.5 2.5 0 0 1 3.5 0h3A2.5 2.5 0 0 1 9 2.5V6h.5A2.5 2.5 0 0 1 12 8.5v1h-1v-1c0-.83-.67-1.5-1.5-1.5H9v2.5H8v-7C8 1.67 7.33 1 6.5 1h-3Zm10.36 5.61a16.15 16.15 0 0 0-2.75-5.3l.78-.62a17.14 17.14 0 0 1 2.93 5.62c.12.41.18.83.18 1.25V9.5h-1V7.56a3 3 0 0 0-.14-.95ZM7 7H3V6h4v1Z"/></svg>