<svg width="24" height="24" fill="none" xmlns="http://www.w3.org/2000/svg"><path fill="currentColor" d="M8.5 1h4A2.5 2.5 0 0 1 15 3.5v3.25h.51c.96 0 1.74.77 1.75 1.72l.06 3.56c0 .4.33.72.72.72a.7.7 0 0 0 .71-.7V5.6c-.38-1.37-1-2.58-1.84-3.63l1.18-.94c1 1.25 1.7 2.67 2.13 4.28l.03.1v6.63a2.2 2.2 0 0 1-2.2 2.21 2.23 2.23 0 0 1-2.23-2.2l-.06-3.55a.25.25 0 0 0-.25-.25H15v7.25h1V17H5v-1.5h1v-12A2.5 2.5 0 0 1 8.5 1ZM13 7H8v1h5V7ZM8.93 23.5a3.65 3.65 0 0 1-1.64.3c-.49 0-.9-.11-1.25-.31a2 2 0 0 1-.78-.91c-.17-.4-.26-.88-.26-1.45 0-.54.1-1.01.28-1.41.19-.4.45-.7.8-.9.36-.22.78-.32 1.26-.32.3 0 .58.03.84.08.26.06.49.13.69.24v.83a3.97 3.97 0 0 0-1.47-.3c-.29 0-.53.08-.74.21-.2.14-.35.34-.45.6-.1.27-.16.59-.16.97 0 .41.05.76.15 1.02.1.27.25.47.45.6s.47.19.78.19a3.65 3.65 0 0 0 1.5-.27v.83Zm4.21.18-1.94-2.94a6.8 6.8 0 0 1-.42-.76c.04.36.05.62.05.77v2.93h-.97v-5.07h1.06l1.93 2.94c.13.2.27.46.42.76a7.78 7.78 0 0 1-.05-.77v-2.93h.98v5.07h-1.06Zm5.54-2.45h1.01v2.2a5.79 5.79 0 0 1-1.97.36 2.9 2.9 0 0 1-1.38-.3 1.9 1.9 0 0 1-.83-.88c-.2-.4-.28-.9-.28-1.48 0-.55.1-1.02.3-1.42.2-.4.48-.7.86-.9.38-.2.83-.31 1.36-.31.33 0 .63.03.9.08.27.06.52.14.73.25v.84a4.26 4.26 0 0 0-1.57-.31c-.33 0-.62.06-.84.2-.23.13-.4.33-.52.6-.11.25-.17.58-.17.97 0 .41.05.75.16 1.02s.28.47.5.6c.22.13.5.2.86.2.34 0 .63-.04.88-.1v-1.62Z"/></svg>