<svg width="48" height="48" fill="none" xmlns="http://www.w3.org/2000/svg"><path fill="currentColor" d="M35.94 45.16c-3.3 0-5.34-1.73-5.34-4.87 0-3.02 2.05-4.86 5.4-4.86 1.13 0 2.56.16 3.38.5v1.17a9.33 9.33 0 0 0-3.18-.52c-2.73 0-4.23 1.22-4.23 3.71 0 2.7 1.7 3.73 4.17 3.73a9.6 9.6 0 0 0 2.69-.35v-3.2h1.33v4.09c-1.06.38-2.47.6-4.22.6ZM18.75 45v-9.41h1.46l6.59 7.75v-7.75h1.31V45h-1.46l-6.59-7.73V45h-1.31Zm-5.6.16c-3 0-5.2-1.64-5.2-4.87 0-3.05 2.2-4.86 5.08-4.86 1.03 0 2.15.16 2.97.5v1.17a7.55 7.55 0 0 0-2.79-.52c-2.35 0-3.9 1.22-3.9 3.71 0 2.79 1.97 3.73 3.87 3.73 1.5 0 2.5-.26 3.02-.45v1.12a8.5 8.5 0 0 1-3.05.47ZM14 5.5A3.5 3.5 0 0 1 17.5 2h8A3.5 3.5 0 0 1 29 5.5V14h1.54a2.5 2.5 0 0 1 2.5 2.5v9c0 .83.68 1.5 1.5 1.5h1.96c.83 0 1.5-.67 1.5-1.5V11.1a29.77 29.77 0 0 0-4.39-7.79l.78-.62a30.9 30.9 0 0 1 4.58 8.13l.03.09V25.5a2.5 2.5 0 0 1-2.5 2.5h-1.96a2.5 2.5 0 0 1-2.5-2.5v-9c0-.83-.67-1.5-1.5-1.5H29v16h2v1H12v-1h2V5.5ZM15 31h13V5.5A2.5 2.5 0 0 0 25.5 3h-8A2.5 2.5 0 0 0 15 5.5V31Zm12-16H16v-1h11v1Z"/></svg>