<svg width="16" height="16" fill="none" xmlns="http://www.w3.org/2000/svg"><path fill="currentColor" d="M3 5c0-2.78 2.22-5 5-5s5 2.22 5 5c0 .74-.32 1.7-.75 2.66-.43.99-1 2.06-1.57 3.03a59.53 59.53 0 0 1-2.22 3.52l-.04.05v.02L8 14l-.41.28-.01-.02-.04-.05a37.55 37.55 0 0 1-.66-1c-.43-.64-1-1.54-1.56-2.52a31.35 31.35 0 0 1-1.57-3.03A7.36 7.36 0 0 1 3 5Zm5 9-.41.28.41.6.41-.6L8 14Zm0-.9a60.84 60.84 0 0 0 1.82-2.91c.56-.96 1.1-1.99 1.52-2.93A6.5 6.5 0 0 0 12 5c0-2.23-1.77-4-4-4S4 2.77 4 5c0 .51.24 1.3.66 2.26.41.94.96 1.97 1.52 2.93A58.5 58.5 0 0 0 8 13.1ZM6 5a2 2 0 1 1 4 0 2 2 0 0 1-4 0Zm2-1a1 1 0 1 0 0 2 1 1 0 0 0 0-2ZM3.32 14.5c.22.07.51.15.88.22.96.17 2.3.28 3.8.28s2.84-.11 3.8-.28c.37-.07.66-.15.88-.22h-.02c-.4-.14-.98-.25-1.72-.34l.12-1c.77.1 1.43.22 1.91.38.24.08.46.17.64.3.15.1.39.32.39.66 0 .27-.15.46-.28.58-.13.11-.3.2-.45.27-.33.14-.78.26-1.3.35-1.02.19-2.43.3-3.97.3s-2.95-.11-3.98-.3a6.9 6.9 0 0 1-1.29-.35 1.7 1.7 0 0 1-.45-.27.77.77 0 0 1-.28-.58c0-.34.24-.56.4-.66.17-.13.4-.22.63-.3a10.1 10.1 0 0 1 1.91-.37l.12.99c-.74.09-1.33.2-1.72.33l-.02.01Z"/></svg>