<svg width="24" height="24" fill="none" xmlns="http://www.w3.org/2000/svg"><path fill="currentColor" d="M11.5 1.8h.01c3.57.1 6.5 3.23 6.29 6.72 0 .9-.4 2.1-.95 3.33a39.86 39.86 0 0 1-2.02 3.85 75.97 75.97 0 0 1-2.85 4.49l-.05.07-.02.02-.41-.28-.41.29v-.01l-.02-.02-.05-.07a47.4 47.4 0 0 1-.84-1.26 75.92 75.92 0 0 1-2.01-3.23 39.86 39.86 0 0 1-2.02-3.85A9.24 9.24 0 0 1 5.2 8.5a6.59 6.59 0 0 1 6.28-6.71h.02Zm0 18.2-.41.29.41.58.41-.58-.41-.29Zm0-.89a75.8 75.8 0 0 0 2.47-3.91 38.87 38.87 0 0 0 1.97-3.76c.54-1.22.86-2.25.86-2.94v-.03a5.52 5.52 0 0 0-5.3-5.67 5.59 5.59 0 0 0-5.3 5.68v.02c0 .69.32 1.72.86 2.94.54 1.2 1.25 2.53 1.97 3.76a74.92 74.92 0 0 0 2.47 3.91Zm0-12.61c-1.12 0-2 .88-2 2s.88 2 2 2 2-.88 2-2-.88-2-2-2Zm-3 2c0-1.68 1.32-3 3-3s3 1.32 3 3-1.32 3-3 3-3-1.32-3-3ZM2.07 20.62c-.24.22-.27.35-.27.38 0 .07.06.27.54.55.45.27 1.13.52 2.02.74 1.76.44 4.22.71 6.94.71 2.72 0 5.2-.27 7-.71.9-.22 1.59-.48 2.04-.74.5-.29.56-.49.56-.55 0-.04-.03-.17-.27-.38a4.3 4.3 0 0 0-1.11-.63c-1-.43-2.46-.8-4.18-1l.12-.99c1.78.2 3.33.6 4.45 1.06.55.24 1.03.5 1.37.8.33.3.62.68.62 1.14 0 .64-.51 1.1-1.05 1.41-.58.34-1.38.62-2.32.85-1.89.46-4.45.74-7.23.74-2.78 0-5.32-.28-7.18-.74a8.8 8.8 0 0 1-2.29-.85C1.3 22.1.8 21.63.8 21c0-.47.29-.85.62-1.14.35-.3.83-.56 1.4-.8 1.15-.47 2.74-.85 4.63-1.06l.1 1c-1.82.2-3.32.56-4.35.99-.51.21-.89.43-1.13.63Z"/></svg>