<svg width="24" height="24" fill="none" xmlns="http://www.w3.org/2000/svg"><path fill="currentColor" d="M17.5.01 24 13H11L17.49.01Zm0 2.24L12.6 12h9.79l-4.9-9.75ZM5.2 7.42a6.37 6.37 0 0 1 7.28-5.31l-.16.98a5.37 5.37 0 0 0-6.18 4.93v.01c-.02.16-.04.27-.04.37 0 .71.33 1.78.88 3.03a39.81 39.81 0 0 0 2 3.86 76.4 76.4 0 0 0 2.52 4.02 83.2 83.2 0 0 0 3.26-5.35l.88.48A73.87 73.87 0 0 1 12 20.35l-.07.1-.01.02v.01l-.42-.28-.41.28-.02-.02-.05-.07a53.27 53.27 0 0 1-.86-1.3 77.4 77.4 0 0 1-2.04-3.3 40.8 40.8 0 0 1-2.06-3.95A9.52 9.52 0 0 1 5.1 8.4c0-.2.03-.38.05-.52a21.2 21.2 0 0 0 .05-.38v-.08Zm6.3 12.78-.41.28.41.6.41-.6-.41-.28ZM17 8V5h1v3h-1ZM8.75 6.98a2.97 2.97 0 0 1 4.1-1.21l-.5.86a1.98 1.98 0 0 0-2.7.8c-.4.8-.25 1.78.32 2.44l-.75.66a3.24 3.24 0 0 1-.47-3.55ZM17 11V9h1v2h-1ZM2.17 20.62c-.25.22-.27.34-.27.38 0 .06.06.27.54.55.45.27 1.13.52 2.02.74 1.76.44 4.22.71 6.94.71 2.72 0 5.2-.27 7-.71a8.4 8.4 0 0 0 2.04-.74c.5-.29.56-.49.56-.55 0-.04-.03-.17-.27-.38a4.3 4.3 0 0 0-1.11-.64 15.8 15.8 0 0 0-4.18-.98l.12-1c1.78.2 3.33.59 4.45 1.06.55.24 1.03.5 1.37.8.33.3.62.68.62 1.14 0 .64-.51 1.1-1.06 1.41a8.7 8.7 0 0 1-2.31.85c-1.89.46-4.45.74-7.23.74-2.78 0-5.32-.28-7.18-.74a8.8 8.8 0 0 1-2.29-.85C1.4 22.1.9 21.63.9 21c0-.47.28-.85.62-1.14.35-.3.83-.56 1.4-.8 1.14-.47 2.74-.85 4.62-1.06l.11 1c-1.82.2-3.32.56-4.35.99-.52.21-.9.43-1.13.63Z"/></svg>