<svg width="48" height="48" fill="none" xmlns="http://www.w3.org/2000/svg"><path fill="currentColor" d="M11.9 15.5C11.9 9.12 17.02 4 23.4 4s11.5 5.12 11.5 11.5c0 1.64-.73 3.82-1.76 6.1a70.57 70.57 0 0 1-3.81 7.1 133.63 133.63 0 0 1-5.5 8.35l-.02.03v.01l-.41-.29-.4.3-.01-.02-.03-.03a80.91 80.91 0 0 1-1.7-2.44 133.63 133.63 0 0 1-3.79-5.91 70.57 70.57 0 0 1-3.8-7.1c-1.04-2.28-1.77-4.46-1.77-6.1Zm11.5 21.3-.4.3.4.55.4-.56-.4-.29Zm0-.86.06-.1a130.04 130.04 0 0 0 5.01-7.66 69.63 69.63 0 0 0 3.76-6.98c1.02-2.28 1.67-4.29 1.67-5.7C33.9 9.68 29.22 5 23.4 5S12.9 9.68 12.9 15.5c0 1.41.65 3.42 1.67 5.7a69.63 69.63 0 0 0 3.76 6.98 132.92 132.92 0 0 0 5 7.67l.07.09Zm-6-20.44a6 6 0 1 1 12 0 6 6 0 0 1-12 0Zm6-5a5 5 0 1 0 0 10 5 5 0 0 0 0-10ZM5.76 36.86c-.58.42-.76.78-.76 1.04 0 .36.3.84 1.24 1.38.9.52 2.24 1 3.93 1.4C13.54 41.5 18.23 42 23.4 42s9.85-.52 13.23-1.35c1.7-.41 3.03-.9 3.93-1.41.94-.54 1.24-1.01 1.24-1.34 0-.26-.18-.62-.76-1.04a9.6 9.6 0 0 0-2.54-1.21A39.77 39.77 0 0 0 29.36 34l.08-1c3.77.3 7.04.9 9.38 1.7 1.17.4 2.13.85 2.82 1.35.66.5 1.16 1.11 1.16 1.85 0 .92-.77 1.65-1.74 2.2-1.02.59-2.46 1.1-4.2 1.52A59.39 59.39 0 0 1 23.4 43c-5.23 0-10-.5-13.47-1.34a16.36 16.36 0 0 1-4.19-1.51C4.76 39.58 4 38.84 4 37.9c0-.74.5-1.36 1.16-1.85.69-.5 1.65-.95 2.82-1.35 2.34-.8 5.6-1.4 9.38-1.7l.08 1c-3.73.3-6.9.9-9.14 1.65a9.6 9.6 0 0 0-2.54 1.2Z"/></svg>