<svg width="24" height="24" fill="none" xmlns="http://www.w3.org/2000/svg"><path fill="currentColor" d="m11.33 22.76.83-1.2.02-.02.05-.08a49.67 49.67 0 0 0 .93-1.4c.36-.54.78-1.2 1.24-1.95 1.6.12 3.05.34 4.23.63a8.7 8.7 0 0 1 2.31.85c.55.31 1.06.77 1.06 1.41 0 .64-.51 1.1-1.06 1.41a8.7 8.7 0 0 1-2.31.85c-1.89.46-4.45.74-7.23.74-2.78 0-5.32-.28-7.18-.74a8.8 8.8 0 0 1-2.29-.85C1.4 22.1.9 21.63.9 21c0-.64.5-1.1 1.03-1.41a8.8 8.8 0 0 1 2.29-.85 25.8 25.8 0 0 1 4.06-.62 89.38 89.38 0 0 0 2.16 3.34l.05.08.02.02.82 1.2Z"/><path fill="currentColor" d="M9.4 18.05A88.58 88.58 0 0 0 11.34 21l.6-.9c.35-.51.81-1.23 1.33-2.06a40.79 40.79 0 0 0-3.85 0Z"/><path fill="currentColor" d="M11.33 11.05a2.71 2.71 0 1 1 0-5.43 2.71 2.71 0 0 1 0 5.43Zm6.34-2.72A6.3 6.3 0 0 0 11.33 2 6.3 6.3 0 0 0 5 8.33C5 11.86 11.33 21 11.33 21s6.34-9.14 6.34-12.67Z"/></svg>