<svg width="48" height="48" fill="none" xmlns="http://www.w3.org/2000/svg"><path fill="currentColor" d="M35.5 1.47 46.35 21h-21.7L35.5 1.47ZM26.35 20h18.3L35.5 3.53 26.35 20Zm-15.2-5.73a11.62 11.62 0 0 1 15.48-5.12l-.45.9a10.62 10.62 0 0 0-14.13 4.68 10.05 10.05 0 0 0-1.15 4.77c0 1.41.65 3.42 1.68 5.7a69.6 69.6 0 0 0 3.75 6.98 132.74 132.74 0 0 0 5.07 7.76A112.12 112.12 0 0 0 24.74 35c2.06-3.19 4.47-7.23 5.9-10.7l.92.4c-1.46 3.53-3.91 7.64-5.98 10.85a136.77 136.77 0 0 1-3.7 5.44l-.05.08-.02.02-.4-.29-.41.3-.01-.02-.03-.03a41.27 41.27 0 0 1-.44-.63 130.28 130.28 0 0 1-5.05-7.72 70.61 70.61 0 0 1-3.8-7.1c-1.04-2.28-1.77-4.46-1.77-6.1 0-1.87.42-3.65 1.26-5.23ZM21.4 40.8l-.4.3.4.55.4-.56-.4-.29ZM35 14V8h1v6h-1Zm-19.06 3.1a5.97 5.97 0 0 1 7.86-3.16l-.4.92a4.97 4.97 0 0 0-6.54 2.64 4.97 4.97 0 0 0 2.64 6.54c1.44.63 3.18.46 4.57-.28l.47.88a6.34 6.34 0 0 1-5.44.32 5.97 5.97 0 0 1-3.16-7.86ZM35 18v-2h1v2h-1ZM3.86 39.86c-.58.42-.76.78-.76 1.04 0 .36.3.84 1.24 1.38.9.52 2.24 1 3.93 1.4C11.64 44.5 16.33 45 21.5 45s9.86-.52 13.23-1.35c1.7-.41 3.03-.9 3.93-1.41.94-.54 1.24-1.01 1.24-1.34 0-.26-.18-.62-.76-1.04a9.6 9.6 0 0 0-2.54-1.21A39.77 39.77 0 0 0 27.46 37l.08-1c3.78.3 7.04.9 9.38 1.7 1.17.4 2.13.85 2.82 1.35.67.5 1.16 1.11 1.16 1.85 0 .92-.76 1.65-1.74 2.2-1.02.59-2.46 1.1-4.19 1.52A59.39 59.39 0 0 1 21.5 46c-5.23 0-10-.5-13.47-1.34a16.36 16.36 0 0 1-4.19-1.51c-.98-.57-1.74-1.31-1.74-2.25 0-.74.5-1.36 1.17-1.85.68-.5 1.64-.95 2.8-1.35 2.35-.8 5.62-1.4 9.4-1.7l.07 1c-3.72.3-6.9.9-9.14 1.65a9.6 9.6 0 0 0-2.54 1.2Z"/></svg>