<svg width="48" height="48" fill="none" xmlns="http://www.w3.org/2000/svg"><path fill="currentColor" d="M2.5 2.5H43A2.5 2.5 0 0 1 45.5 5v40.5H5A2.5 2.5 0 0 1 2.5 43V2.5Zm1 1V24h16.94l-.53-.13a6.8 6.8 0 0 1-4.9-4.73 2.52 2.52 0 0 1 3.13-3.12 8.16 8.16 0 0 1 5.25 4.63l.61 1.41V3.5H3.5Zm20.14 20.27-1.17-2.73a7.16 7.16 0 0 0-4.6-4.06 1.52 1.52 0 0 0-1.89 1.88 5.8 5.8 0 0 0 4.17 4.04l3.5.87ZM23.3 25H3.5v18c0 .83.67 1.5 1.5 1.5h19V25.7l-7.65 7.65-.7-.7L23.29 25Zm1.71.7v18.8h19.5V25H25.7l7.65 7.65-.7.7L25 25.71Zm3.56-1.7H44.5V5c0-.83-.67-1.5-1.5-1.5H25v18.56l.6-1.41a8.16 8.16 0 0 1 5.26-4.63 2.52 2.52 0 0 1 3.12 3.12 6.8 6.8 0 0 1-4.89 4.73l-.53.13Zm-3.2-.23 3.49-.87a5.8 5.8 0 0 0 4.17-4.04 1.52 1.52 0 0 0-1.88-1.88 7.16 7.16 0 0 0-4.61 4.06l-1.17 2.73Z"/></svg>