<svg width="16" height="16" fill="none" xmlns="http://www.w3.org/2000/svg"><path fill="currentColor" d="M5.5 1C4.68 1 4 1.68 4 2.5v2C4 5.32 4.68 6 5.5 6h2C8.32 6 9 5.32 9 4.5v-2C9 1.68 8.32 1 7.5 1h-2ZM3 2.5A2.5 2.5 0 0 1 5.5 0h2A2.5 2.5 0 0 1 10 2.5v2A2.5 2.5 0 0 1 7.5 7h-2A2.5 2.5 0 0 1 3 4.5v-2Zm9 0c0-.82-.68-1.5-1.5-1.5V0A2.5 2.5 0 0 1 13 2.5v2A2.5 2.5 0 0 1 10.5 7V6c.82 0 1.5-.68 1.5-1.5v-2ZM2.5 9C1.67 9 1 9.67 1 10.5V15h11v-4.5c0-.83-.67-1.5-1.5-1.5h-8ZM0 10.5A2.5 2.5 0 0 1 2.5 8h8a2.5 2.5 0 0 1 2.5 2.5V16H0v-5.5Zm15 0c0-.83-.67-1.5-1.5-1.5V8a2.5 2.5 0 0 1 2.5 2.5V16h-2v-1h1v-4.5Z"/></svg>