<svg width="24" height="24" fill="none" xmlns="http://www.w3.org/2000/svg"><path fill="currentColor" d="M15.5 2A2.5 2.5 0 0 0 13 4.5v2A2.5 2.5 0 0 0 15.5 9h2A2.5 2.5 0 0 0 20 6.5v-2A2.5 2.5 0 0 0 17.5 2h-2Zm-13 11c-.41 0-.8.14-1.08.42A1.5 1.5 0 0 0 1 14.5V21h13v-7a1 1 0 0 0-.28-.72A1 1 0 0 0 13 13H2.5Z"/><path fill="currentColor" d="M15 19h8v-6.5c0-.41-.14-.8-.42-1.08A1.5 1.5 0 0 0 21.5 11h-10a1.4 1.4 0 0 0-1.43 1H13a2 2 0 0 1 1.43.57A2 2 0 0 1 15 14v5ZM4 6.5A2.5 2.5 0 0 1 6.5 4h2A2.5 2.5 0 0 1 11 6.5v2A2.5 2.5 0 0 1 8.5 11h-2A2.5 2.5 0 0 1 4 8.5v-2Z"/></svg>