<svg width="24" height="24" fill="none" xmlns="http://www.w3.org/2000/svg"><path fill="currentColor" d="m21.6 5.04 1.86 5.59-1.33.88a3.5 3.5 0 0 0-.2-.76L20.34 6.6a3.5 3.5 0 0 0-1.73-1.89l.79-.48a1.5 1.5 0 0 1 2.2.8Zm-18 1.7-1.53 4c-.1.26-.17.52-.2.77l-1.33-.88 1.85-5.59a1.5 1.5 0 0 1 2.21-.8l.9.54a3.5 3.5 0 0 0-1.9 1.96Zm5.49 2.25 3.52-3.5h.02a2.5 2.5 0 0 1 1.63-.42l3.06.31c.94.1 1.75.7 2.09 1.59L21 11.11a2.5 2.5 0 0 1-.57 2.66l-.28.29L15 9.39a2.5 2.5 0 0 0-3.2-.36l-2.1 1.4a.75.75 0 0 1-.93-1.17l.1-.1.03-.02.2-.14Z"/><path fill="currentColor" d="m8.38 8.28-.11.1-.02.02-.14.12a1.75 1.75 0 0 0 2.15 2.74l2.1-1.4a1.5 1.5 0 0 1 1.93.23l.02.01 5.13 4.66a2 2 0 0 1-.75 1.75l-3.85 2.67c-.8.56-1.86.6-2.7.1L11.7 19l.64-.64c.75-.74.66-1.98-.18-2.62l-4.02-3.01a1.77 1.77 0 0 0-2.26.13l-.65.72c-.31.3-.49.68-.53 1.07l-.68-.43-.45-.45A2.5 2.5 0 0 1 3 11.11l1.54-4A2.5 2.5 0 0 1 6.87 5.5h4.31l-2.8 2.78Z"/><path fill="currentColor" d="M6.59 13.57a.75.75 0 0 1 .95-.04l4.02 3.01c.36.27.4.8.08 1.12l-.78.77a.74.74 0 0 1-.92.1l-3.9-3.02-.02-.01a.77.77 0 0 1-.1-1.2l.03-.02.64-.71Z"/></svg>