<svg width="48" height="48" fill="none" xmlns="http://www.w3.org/2000/svg"><path fill="currentColor" d="M42.44 10.1a1.57 1.57 0 0 0-2.32-.84l-3.42 2.1a4.64 4.64 0 0 1 2.14 2.43l3.3 8.57c.07.19.13.38.17.58l3.6-2.4-3.47-10.44Zm0 13.95c0 1.2-.48 2.38-1.35 3.26l-2.26 2.23a3.6 3.6 0 0 1-1.51 3.54l-7.75 5.36a4.64 4.64 0 0 1-5 .18l-1.29-.76-.54.55a3.07 3.07 0 0 1-3.87.38h-.02l-8.1-6.27a3.13 3.13 0 0 1-1.35-2.85l-2.48-2.36a4.64 4.64 0 0 1-1.36-3.25l-4.65-3.1L4.6 9.77a2.57 2.57 0 0 1 3.8-1.38l4.56 2.71.42-.02H25.4l.2-.12a4.6 4.6 0 0 1 3.03-.76l6.34.63.54.09L39.6 8.4a2.57 2.57 0 0 1 3.79 1.38l3.7 11.17-4.65 3.1Zm-3.96 4.43 1.9-1.88a3.64 3.64 0 0 0 .82-3.88l-3.3-8.57a3.64 3.64 0 0 0-3.03-2.31l-6.34-.64a3.64 3.64 0 0 0-2.38.6l-8.91 5.94a2.08 2.08 0 1 0 2.3 3.47l4.36-2.9a4.64 4.64 0 0 1 5.97.7l8.04 8.65c.23.26.42.53.57.82ZM24 37.13l1.07.63c1.22.72 2.76.67 3.92-.14l7.75-5.36a2.6 2.6 0 0 0 .42-3.92l-8.03-8.65a3.64 3.64 0 0 0-4.69-.55l-4.35 2.9a3.08 3.08 0 0 1-3.42-5.13l7.22-4.82H13.4c-1.5 0-2.86.93-3.4 2.34l-3.2 8.29a3.64 3.64 0 0 0 .82 3.88l2.08 1.97c.16-.33.38-.64.67-.92l1.34-1.47.01-.02a3.1 3.1 0 0 1 3.97-.2l2.27 1.7 6.05 4.53a3.06 3.06 0 0 1 .32 4.62l-.32.32ZM5.7 22.94c.05-.2.1-.39.18-.58l3.19-8.3a4.64 4.64 0 0 1 2.53-2.6l-3.71-2.2c-.86-.54-2-.13-2.32.84L2.1 20.54l3.6 2.4Zm6.73 3.94-1.33 1.48-.02.01c-1 .93-.88 2.56.25 3.33h.01l8.1 6.27c.82.53 1.9.42 2.6-.27l1.6-1.6c.89-.89.78-2.35-.22-3.1l-6.04-4.54-2.28-1.7a2.1 2.1 0 0 0-2.67.12Z"/></svg>