<svg width="24" height="24" fill="none" xmlns="http://www.w3.org/2000/svg"><path fill="currentColor" d="M20.66 5.36a.5.5 0 0 0-.74-.27l-1.3.8c.35.28.62.65.79 1.08l1.58 4.1 1.28-.85-1.61-4.86Zm.5 6.8a2.5 2.5 0 0 1-.73 1.61l-1 1a2 2 0 0 1-.85 1.82l-3.74 2.6c-.8.55-1.86.58-2.7.09L11.7 19l-.12.12c-.58.6-1.5.68-2.2.22L5.43 16.3c-.5-.35-.76-.91-.76-1.47l-1.11-1.07a2.5 2.5 0 0 1-.73-1.6l-2.3-1.54 1.85-5.59a1.5 1.5 0 0 1 2.21-.8l2.03 1.25-.02.02.26-.01h5.73l.03-.02a2.5 2.5 0 0 1 1.63-.4l3.06.3c.07 0 .13.01.19.03l1.89-1.17a1.5 1.5 0 0 1 2.2.8l1.86 5.59-2.3 1.53Zm-2.12 1.59.69-.68a1.5 1.5 0 0 0 .34-1.6l-1.6-4.14a1.5 1.5 0 0 0-1.25-.96l-3.06-.3a1.5 1.5 0 0 0-.98.24l-4.3 2.87a.75.75 0 0 0 .82 1.25l2.1-1.4a2.5 2.5 0 0 1 3.22.38l3.89 4.18.13.16Zm-6.62 4.53.23.14c.5.3 1.14.27 1.62-.06L18 15.77a1 1 0 0 0 .16-1.5l-3.88-4.18a1.5 1.5 0 0 0-1.93-.23l-2.1 1.4a1.75 1.75 0 0 1-1.94-2.9L11.1 6.5H6.87a1.5 1.5 0 0 0-1.4.96l-1.54 4a1.5 1.5 0 0 0 .34 1.6l.77.73c.05-.07.12-.14.2-.21l.64-.72.01-.01a1.75 1.75 0 0 1 2.25-.12l4.02 3.01c.81.62.92 1.79.26 2.54Zm-9.4-7.2L4.53 7.1c.19-.48.5-.88.91-1.16L4.08 5.1a.5.5 0 0 0-.74.27l-1.62 4.86 1.3.86Zm3.57 2.49-.64.7-.02.02a.77.77 0 0 0 .09 1.2l.01.02 3.91 3.02c.3.18.68.14.92-.1l.78-.77a.74.74 0 0 0-.08-1.12l-4.02-3.01a.75.75 0 0 0-.95.04Z"/></svg>