<svg width="16" height="16" fill="none" xmlns="http://www.w3.org/2000/svg"><path fill="currentColor" d="M3.23 1h9.5L16 4.82v1.86a3.5 3.5 0 0 1-1.13 2.58l-4.17 3.82a3.5 3.5 0 0 1-2.37.92h-.62l-.14.13c-.58.6-1.5.68-2.2.22L1.43 11.3a1.77 1.77 0 0 1-.2-2.73L0 5.95 3.23 1ZM1.97 7.78a1.75 1.75 0 0 1 2.17-.05l4.02 3.01c.71.54.89 1.5.47 2.24.52-.06 1-.28 1.4-.64l3.2-2.94-3.8-4.23L7.3 6.68a1.78 1.78 0 0 1-2.12-2.84L7.54 2H3.77L1.15 6.04l.82 1.74Zm12 .94.22-.2A2.5 2.5 0 0 0 15 6.68v-1.5L12.27 2h-3.1L5.8 4.63a.78.78 0 0 0 .92 1.24l2.85-2.04 4.4 4.9ZM2.6 8.57l-.64.7-.02.02a.77.77 0 0 0 .09 1.2l.01.02 3.91 3.02c.3.18.68.14.92-.1l.78-.77a.74.74 0 0 0-.08-1.12L3.54 8.53a.75.75 0 0 0-.95.04Z"/></svg>