<svg width="16" height="16" fill="none" xmlns="http://www.w3.org/2000/svg"><path fill="currentColor" d="M0 7.5a7.5 7.5 0 1 1 15 0 7.5 7.5 0 0 1-15 0ZM7.5 1a6.5 6.5 0 1 0 0 13 6.5 6.5 0 0 0 0-13ZM6.22 4.95 6 4.5l-.22-.45h.01l.03-.02a4.7 4.7 0 0 1 .5-.2 6.2 6.2 0 0 1 1.23-.33c.95-.13 2.25-.02 2.9 1.28.3.61.22 1.23 0 1.77a4.92 4.92 0 0 1-1.01 1.4A9.76 9.76 0 0 1 8 9.16V10H7V8.6l.24-.15.03-.02a6.36 6.36 0 0 0 .45-.31c.29-.22.66-.52 1-.87.35-.35.65-.73.8-1.1.16-.35.17-.65.03-.93-.35-.7-1.05-.84-1.85-.73a5.21 5.21 0 0 0-1.45.45h-.02ZM7 12v-1h1v1H7Z"/></svg>