<svg width="24" height="24" fill="none" xmlns="http://www.w3.org/2000/svg"><path fill="currentColor" d="M11.5 0a11.5 11.5 0 1 1 0 23 11.5 11.5 0 0 1 0-23ZM9.92 6.96a5.1 5.1 0 0 0-.2.07l.36.94a4.38 4.38 0 0 1 .6-.2c.38-.1.87-.21 1.37-.25.5-.03.96.02 1.3.18.81.38.78 1.35.41 2.02-.23.42-.58.85-.97 1.24a11.54 11.54 0 0 1-1.73 1.43l-.06.04V14h1v-1.04a13.18 13.18 0 0 0 1.5-1.3 6.8 6.8 0 0 0 1.14-1.46c.29-.54.48-1.16.35-1.8a2.14 2.14 0 0 0-1.2-1.6 3.67 3.67 0 0 0-1.81-.27 8.03 8.03 0 0 0-2.06.43ZM11 15v1h1v-1h-1Z"/></svg>