<svg width="16" height="16" fill="none" xmlns="http://www.w3.org/2000/svg"><path fill="currentColor" d="M0 8a8 8 0 1 1 16 0A8 8 0 0 1 0 8Zm8-7a7 7 0 1 0 0 14A7 7 0 0 0 8 1ZM6.72 5.45 6.5 5l-.22-.45h.01l.03-.02a4.7 4.7 0 0 1 .5-.2A6.2 6.2 0 0 1 8.04 4c.95-.13 2.25-.02 2.9 1.28.3.61.22 1.23 0 1.77a4.92 4.92 0 0 1-1.01 1.4 9.76 9.76 0 0 1-1.44 1.2v.85h-1V9.1l.24-.15.03-.02a6.36 6.36 0 0 0 .45-.31c.29-.22.66-.52 1-.87.35-.35.65-.73.8-1.1.16-.35.17-.65.03-.93C9.7 5.02 9 4.88 8.2 5a5.21 5.21 0 0 0-1.45.45h-.02Zm.78 7.05v-1h1v1h-1Z"/></svg>