<svg width="48" height="48" fill="none" xmlns="http://www.w3.org/2000/svg"><path fill="currentColor" d="M1 23.5a22.5 22.5 0 1 1 45 0 22.5 22.5 0 0 1-45 0ZM23.5 2a21.5 21.5 0 1 0 0 43 21.5 21.5 0 0 0 0-43Zm-3.31 15.86L20 17.4l-.19-.46.02-.01a4.76 4.76 0 0 1 .26-.1A12.6 12.6 0 0 1 23 16.2a5 5 0 0 1 2.52.38c.81.4 1.43 1.1 1.66 2.23.16.84-.1 1.68-.5 2.43-.4.75-.97 1.46-1.54 2.07A18.27 18.27 0 0 1 23 25.25V27h-1v-2.26l.2-.14.02-.01.03-.03a11 11 0 0 0 .66-.52c.42-.35.97-.84 1.51-1.42a9.05 9.05 0 0 0 1.4-1.86c.34-.65.48-1.25.39-1.76a2.02 2.02 0 0 0-1.11-1.53 4.03 4.03 0 0 0-2.01-.28 10 10 0 0 0-2.89.67h-.01ZM22 31v-2h1v2h-1Z"/></svg>