<svg width="24" height="24" fill="none" xmlns="http://www.w3.org/2000/svg"><path fill="currentColor" d="M0 11.5a11.5 11.5 0 1 1 23 0 11.5 11.5 0 0 1-23 0ZM11.5 1a10.5 10.5 0 1 0 0 21 10.5 10.5 0 0 0 0-21Zm-1.42 6.97a71.03 71.03 0 0 0-.36-.94h.01L9.77 7a6.63 6.63 0 0 1 .64-.2c.41-.12.98-.24 1.57-.28.58-.04 1.24 0 1.8.27.6.28 1.05.8 1.21 1.6.13.64-.06 1.26-.35 1.8-.3.54-.72 1.04-1.13 1.46a12.52 12.52 0 0 1-1.51 1.3V14h-1v-1.57l.22-.14.03-.03a7.98 7.98 0 0 0 .47-.34c.3-.24.7-.57 1.07-.96.39-.39.74-.82.97-1.24.23-.43.32-.8.25-1.12-.1-.5-.34-.75-.65-.9a2.7 2.7 0 0 0-1.31-.18 7.03 7.03 0 0 0-1.93.43l-.03.01ZM11 16v-1h1v1h-1Z"/></svg>