<svg width="16" height="16" fill="none" xmlns="http://www.w3.org/2000/svg"><path fill="currentColor" d="M13.5 3v.5c0 .63-.45 3.17-2.5 3.17H2.5s-.84-.02-1.67-.76L0 5.17v6.67l.83-.74a2.78 2.78 0 0 1 1.67-.76h1.37c-.54.38-.87.87-.87 1.42 0 1.28 1.72 2.25 4 2.25 2.28 0 4-.97 4-2.25 0-.55-.33-1.03-.87-1.42H11c2.05 0 2.5 2.54 2.5 3.17v.5H16V3h-2.5ZM7 13c-1.86 0-3-.73-3-1.25s1.14-1.25 3-1.25 3 .73 3 1.25S8.86 13 7 13Zm8 0h-.54c-.19-1.42-1.14-3.67-3.46-3.67H2.5s-.7 0-1.5.43V7.22c.8.43 1.46.43 1.5.43H11c2.32 0 3.28-2.25 3.46-3.67H15V13Z"/></svg>