<svg width="48" height="48" fill="none" xmlns="http://www.w3.org/2000/svg"><path fill="currentColor" d="M11 3.3V10h7v7h-7v6.7L.8 13.5 11 3.3Zm17 0 10.2 10.2L28 23.7V17h-7v-7h7V3.3ZM2.2 13.5l7.8 7.8V16h7v-5h-7V5.7l-7.8 7.8ZM29 5.7V11h-7v5h7v5.3l7.8-7.8L29 5.7ZM43.03 19H46v25h-3v-.5c0-2.4-.62-4.18-1.52-5.5a8.47 8.47 0 0 0-3.35-2.8 12.43 12.43 0 0 0-4.9-1.2h-1.31c.98.37 1.85.8 2.59 1.3 1.6 1.09 2.6 2.54 2.49 4.23-.12 1.82-1.6 3.32-3.65 4.27a15.89 15.89 0 0 1-7.9 1.2 16.42 16.42 0 0 1-7.51-2.36c-1.86-1.22-3.06-2.86-2.94-4.67v-.01c.12-1.41 1.03-2.54 2.36-3.35.37-.22.78-.43 1.21-.61h-1.56a13.13 13.13 0 0 0-7.17 2.37l-.02.02-.82.65v-11.7l.92 1.38c.27.4.8.78 1.54 1.1.73.31 1.59.55 2.42.73a24.74 24.74 0 0 0 3.09.45H33.2c4.58 0 7-2.36 8.31-4.74A12.98 12.98 0 0 0 43 19.49v-.02l.03-.47Zm.92 1a13.99 13.99 0 0 1-1.56 4.74C40.95 27.36 38.22 30 33.2 30H16.97l.03-.5-.03.5h-.08a15.05 15.05 0 0 1-.92-.1 25.7 25.7 0 0 1-2.3-.37 13.5 13.5 0 0 1-2.6-.8 6.47 6.47 0 0 1-1.07-.57v6.9A14.13 14.13 0 0 1 16.99 33H23v1h-.37c-1.94.25-3.58.75-4.74 1.46-1.17.72-1.8 1.6-1.9 2.58-.07 1.29.78 2.64 2.5 3.77a15.44 15.44 0 0 0 7.05 2.2 14.9 14.9 0 0 0 7.39-1.11c1.92-.9 2.99-2.15 3.07-3.43.08-1.2-.61-2.36-2.06-3.34A15.18 15.18 0 0 0 27.86 34H27v-1h6.2v.5-.5h.04a5.3 5.3 0 0 1 .44.02 13.53 13.53 0 0 1 4.89 1.28 9.47 9.47 0 0 1 3.73 3.14A10.3 10.3 0 0 1 44 43h1V20h-1.05ZM21.52 36.3a15.6 15.6 0 0 1 5.02-.3c1.85.15 3.44.38 4.56.8.56.2 1.05.47 1.39.83.36.39.54.86.5 1.4-.06 1.1-1 1.91-2.2 2.4-1.24.5-2.92.72-4.83.57a15.79 15.79 0 0 1-4.83-1.05 4.7 4.7 0 0 1-1.54-1 1.97 1.97 0 0 1-.59-1.48 1.9 1.9 0 0 1 .81-1.4 5 5 0 0 1 1.71-.77Zm-1.1 1.57c-.3.22-.4.44-.42.66-.02.23.07.47.32.73s.65.53 1.2.77c1.11.48 2.7.82 4.52.97a9.9 9.9 0 0 0 4.37-.5c1.1-.44 1.56-1.03 1.6-1.53a.82.82 0 0 0-.25-.65c-.2-.2-.52-.4-1-.59-.99-.36-2.45-.58-4.3-.73a14.62 14.62 0 0 0-4.68.27 3.9 3.9 0 0 0-1.36.6Z"/></svg>