<svg width="24" height="24" fill="none" xmlns="http://www.w3.org/2000/svg"><path fill="currentColor" d="M24 4h-2.8v.55a4.43 4.43 0 0 1-.09.8 6.79 6.79 0 0 1-.62 1.92 4.8 4.8 0 0 1-1.64 1.87c-.76.5-1.81.86-3.25.86H7c-.45 0-1.65-.12-2.93-.48C2.8 9.15 1.55 8.56.9 7.7L0 6.5V17l.9-1.2.04-.05.2-.18c.19-.16.5-.4.96-.62a8.61 8.61 0 0 1 2.36-.74c-.34.4-.57.9-.6 1.49-.08 1.3.8 2.35 1.92 3.05 1.15.71 2.72 1.19 4.45 1.35 1.74.16 3.4-.05 4.66-.57 1.23-.5 2.29-1.41 2.36-2.74.06-1.18-.59-2.12-1.52-2.8a4.52 4.52 0 0 1 .78.02c.54.04 1.24.16 1.94.47.69.3 1.37.8 1.88 1.57.5.78.87 1.88.87 3.45v.5H24V4ZM11.35 14c1.4.2 2.57.59 3.35 1.1.79.52 1.08 1.07 1.05 1.6-.02.48-.42 1.03-1.44 1.44-.98.41-2.38.6-3.94.46a8.89 8.89 0 0 1-3.8-1.12c-.92-.58-1.25-1.18-1.22-1.68.03-.38.25-.74.8-1.07a6.58 6.58 0 0 1 2.4-.73h2.8Z"/></svg>