<svg width="24" height="24" fill="none" xmlns="http://www.w3.org/2000/svg"><path fill="currentColor" d="M21.2 4H24v16h-2.8v-.5c0-1.57-.36-2.67-.87-3.45a4.27 4.27 0 0 0-1.88-1.57 6.06 6.06 0 0 0-2.8-.48h-.79l.53.3c1 .66 1.67 1.58 1.6 2.73-.06 1.18-1 2.03-2.2 2.52-1.22.5-2.83.7-4.54.55-1.7-.16-3.23-.62-4.34-1.31-1.1-.68-1.87-1.65-1.8-2.82.05-.8.48-1.42 1.11-1.87a9.3 9.3 0 0 0-3.12.85 4.71 4.71 0 0 0-1.2.85L0 17V6.5l.9 1.2c.65.86 1.89 1.45 3.17 1.82C5.35 9.88 6.55 10 7 10h8.6a5.7 5.7 0 0 0 3.25-.86 4.8 4.8 0 0 0 1.64-1.87 6.79 6.79 0 0 0 .7-2.72l.01-.04V4Zm.97 1a8.05 8.05 0 0 1-.79 2.73 5.79 5.79 0 0 1-1.98 2.25A6.77 6.77 0 0 1 15.6 11H7c-.55 0-1.85-.13-3.2-.52A8.74 8.74 0 0 1 1 9.18v5.25c.18-.13.4-.25.65-.38A11.87 11.87 0 0 1 7 13h8.58a3.42 3.42 0 0 1 .27-.01 7.3 7.3 0 0 1 3 .58c.84.37 1.68.97 2.31 1.93a6.8 6.8 0 0 1 1.03 3.5H23V5h-.83Zm-10.8 9H8.53a6.7 6.7 0 0 0-2.51.77c-.6.35-.88.78-.92 1.26-.03.64.38 1.31 1.34 1.9a9.13 9.13 0 0 0 3.9 1.17 8.9 8.9 0 0 0 4.07-.47c1.05-.44 1.56-1.04 1.6-1.66.03-.65-.34-1.28-1.17-1.83A8.56 8.56 0 0 0 11.37 14Z"/></svg>