<svg width="24" height="24" fill="none" xmlns="http://www.w3.org/2000/svg"><path fill="currentColor" d="M3.3 0H5v3.3l.7.7h2.6l.7-.7V0h1.7L13 2.3v4.4l-3 3V21c0 .69-.3 1.42-.76 1.98A2.57 2.57 0 0 1 7.3 24h-.6c-.79 0-1.47-.42-1.93-.98A3.22 3.22 0 0 1 4 21V9.7l-3-3V2.3L3.3 0Zm.4 1L2 2.7v3.6l3 3V21c0 .47.2.98.53 1.38.34.4.76.62 1.17.62h.6c.4 0 .82-.24 1.16-.65.34-.42.54-.94.54-1.35V9.3l3-3V2.7L10.3 1H10v2.7L8.7 5H5.3L4 3.7V1h-.3Zm12.44-1h3.72L21 3.42V6.7l-1 1V14h1v7.5a2.5 2.5 0 0 1-2.5 2.5h-1a2.5 2.5 0 0 1-2.5-2.5V14h1V7.7l-1-1V3.43L16.14 0ZM16 15v6.5c0 .82.68 1.5 1.5 1.5h1c.82 0 1.5-.68 1.5-1.5V15h-4Zm3-1V7.3l1-1V3.57L19.14 1h-2.28L16 3.58V6.3l1 1V14h2Z"/></svg>