<svg width="48" height="48" fill="none" xmlns="http://www.w3.org/2000/svg"><path fill="currentColor" d="M11.5 1.8 13 3.3v4l.7.7h4.6l.7-.7v-4l1.5-1.5L25 6.3v6.4l-5 5v24.8c0 1.98-1.52 3.5-3.5 3.5h-1a3.45 3.45 0 0 1-3.5-3.5V17.7l-5-5V6.3l4.5-4.5Zm21.2.2h4.6L40 6.87v4.84l-3 3L36.9 26H40v3.12l-1 2v5.26l1 2v5.12a2.5 2.5 0 0 1-2.5 2.5h-5a2.5 2.5 0 0 1-2.5-2.5v-5.12l1-2v-5.26l-1-2V26h3V14.7l-3-3V6.88L32.7 2Zm3.2 23.9.1-11.6 3-3V7.12L36.7 3h-3.4L31 7.13v4.16l3 3V25.9h1.9ZM8 6.7v5.6l5 5v25.2c0 1.42 1.08 2.5 2.5 2.5h1c1.42 0 2.5-1.08 2.5-2.5V17.3l5-5V6.7l-3.5-3.5-.5.5v4L18.7 9h-5.4L12 7.7v-4l-.5-.5L8 6.7ZM31 27v1.88l1 2v5.74l-1 2v4.88c0 .82.68 1.5 1.5 1.5h5c.82 0 1.5-.68 1.5-1.5v-4.88l-1-2v-5.74l1-2V27h-8Z"/></svg>