<svg width="48" height="48" fill="none" xmlns="http://www.w3.org/2000/svg"><path fill="currentColor" d="M25.16 12c2.22 0 2.68.02 3.79.07a8.8 8.8 0 0 1 2.91.56c.79.3 1.46.72 2.13 1.38a5.88 5.88 0 0 1 1.38 2.13c.3.76.5 1.64.56 2.91.06 1.28.07 1.7.07 4.95 0 3.26-.01 3.67-.07 4.95a8.81 8.81 0 0 1-.56 2.91 5.9 5.9 0 0 1-1.38 2.13 5.88 5.88 0 0 1-2.13 1.38c-.76.3-1.63.5-2.91.56-1.28.06-1.7.07-4.95.07-3.26 0-3.67-.01-4.95-.07a8.8 8.8 0 0 1-2.91-.56 5.88 5.88 0 0 1-2.13-1.38 5.88 5.88 0 0 1-1.38-2.13 8.8 8.8 0 0 1-.56-2.91 64.7 64.7 0 0 1-.07-3.79v-2.32c0-2.22.02-2.68.07-3.79a8.8 8.8 0 0 1 .56-2.91 5.9 5.9 0 0 1 1.38-2.13 5.88 5.88 0 0 1 2.13-1.38 8.8 8.8 0 0 1 2.91-.56 64.7 64.7 0 0 1 3.79-.07h2.32Zm-.02 2.16h-2.28c-2.18 0-2.61.02-3.7.07a6.69 6.69 0 0 0-2.24.42c-.56.21-.96.47-1.38.9-.42.41-.68.81-.9 1.37a6.64 6.64 0 0 0-.4 2.23c-.06 1.1-.07 1.53-.08 3.71v2.28c0 2.18.02 2.61.07 3.7.06 1.18.25 1.81.42 2.24.21.56.47.96.9 1.38.41.42.81.68 1.37.9.43.16 1.06.35 2.23.4 1.1.06 1.53.07 3.71.08h2.28c2.18 0 2.61-.02 3.7-.07a6.64 6.64 0 0 0 2.24-.42c.56-.21.96-.47 1.38-.9.42-.41.68-.81.9-1.37.16-.43.35-1.06.4-2.23.06-1.1.07-1.53.08-3.71v-2.28c0-2.18-.02-2.61-.07-3.7a6.64 6.64 0 0 0-.42-2.24 3.72 3.72 0 0 0-.9-1.38 3.72 3.72 0 0 0-1.37-.9 6.64 6.64 0 0 0-2.23-.4c-1.1-.06-1.53-.07-3.71-.08ZM24 17.84a6.16 6.16 0 1 1 0 12.32 6.16 6.16 0 0 1 0-12.32ZM24 20a4 4 0 1 0 0 8 4 4 0 0 0 0-8Zm6.4-3.85a1.44 1.44 0 1 1 0 2.88 1.44 1.44 0 0 1 0-2.88Z"/></svg>