<svg width="24" height="24" fill="none" xmlns="http://www.w3.org/2000/svg"><path fill="currentColor" d="M12.67 6c1.03 0 1.26.01 1.8.04a4.4 4.4 0 0 1 1.46.28c.4.15.73.35 1.06.69.34.33.54.67.7 1.06.14.38.24.82.27 1.46.03.64.04.84.04 2.47 0 1.63 0 1.83-.04 2.47a4.4 4.4 0 0 1-.28 1.46c-.15.4-.35.73-.69 1.06-.33.34-.67.54-1.06.7a4.4 4.4 0 0 1-1.46.27c-.64.03-.84.04-2.47.04-1.63 0-1.83 0-2.47-.04a4.4 4.4 0 0 1-1.46-.28c-.4-.15-.73-.35-1.06-.69a2.94 2.94 0 0 1-.7-1.06 4.4 4.4 0 0 1-.27-1.46C6 13.93 6 13.7 6 12.67v-1.34c0-1.03.01-1.26.04-1.8a4.4 4.4 0 0 1 .27-1.46c.16-.4.36-.73.7-1.06.33-.34.67-.54 1.06-.7a4.4 4.4 0 0 1 1.46-.27c.54-.03.77-.04 1.8-.04h1.34Zm0 1.08h-1.33c-1.01 0-1.23.01-1.76.04-.59.02-.9.12-1.12.2a1.96 1.96 0 0 0-1.14 1.15c-.08.2-.18.52-.2 1.1-.03.54-.04.76-.04 1.77v1.32c0 1.01.01 1.23.04 1.76.02.59.12.9.2 1.12a1.96 1.96 0 0 0 1.15 1.14c.2.08.52.18 1.1.2.54.03.76.04 1.77.04h1.32c1.01 0 1.23-.01 1.76-.04.59-.02.9-.12 1.12-.2a1.96 1.96 0 0 0 1.14-1.15c.08-.2.18-.52.2-1.1.03-.54.04-.76.04-1.77v-1.32c0-1.01-.01-1.23-.04-1.76-.02-.59-.12-.9-.2-1.12a1.88 1.88 0 0 0-.45-.69 1.86 1.86 0 0 0-.7-.45 3.32 3.32 0 0 0-1.1-.2c-.54-.03-.76-.04-1.77-.04ZM12 8.92a3.08 3.08 0 1 1 0 6.16 3.08 3.08 0 0 1 0-6.16ZM12 10a2 2 0 1 0 0 4 2 2 0 0 0 0-4Zm3.2-1.92a.72.72 0 1 1 0 1.44.72.72 0 0 1 0-1.44Z"/></svg>