<svg width="24" height="24" fill="none" xmlns="http://www.w3.org/2000/svg"><path fill="currentColor" d="M19.5 1c-.9 0-1.5.76-1.5 1.5v4c0 .41.2.78.46 1.04s.63.46 1.04.46h1.1c.9 0 1.5-.76 1.5-1.5v-4c0-.41-.2-.78-.46-1.04A1.5 1.5 0 0 0 20.6 1h-1.1Zm-3.65 21.7.67-1.46a5954.88 5954.88 0 0 1 4.33-9.43v-.01c.38-.86.24-1.7.02-2.36l-.06-.2-.18-.08a2.99 2.99 0 0 0-2.58-.1c-.8.33-1.55.94-2.2 1.67a17.57 17.57 0 0 0-3.8 7.62L15.6 23h.11l.13-.3Zm-.45-.2.45.2-.45-.2Zm-1.05.5h-2.08L2 21.95v-2.43c-.11-1.48 1-2.7 2.46-2.82h.44c1.35 0 3.3.6 4.86 1.18l.95.36L14.35 23Z"/></svg>