<svg width="16" height="16" fill="none" xmlns="http://www.w3.org/2000/svg"><path fill="currentColor" d="M13.05 1.05a.18.18 0 0 0-.05.12v2.67l.01.03.05.07c.06.05.1.06.1.06h.67c.06 0 .1-.02.12-.05a.18.18 0 0 0 .05-.12V1.16l-.01-.03a.26.26 0 0 0-.05-.07.26.26 0 0 0-.07-.05h-.03V1h-.67a.15.15 0 0 0-.12.05ZM12 1.17C12 .59 12.46 0 13.17 0h.66c.33 0 .62.16.82.35.2.2.35.49.35.82v2.66C15 4.41 14.54 5 13.83 5h-.66c-.33 0-.62-.16-.82-.35-.19-.2-.35-.49-.35-.82V1.17Zm-.78 6.27c.73-.7 1.44-.94 2.11-.62v.1a2.3 2.3 0 0 1-.19.6c-.28.6-1.05 2.56-1.76 4.34a697.55 697.55 0 0 0-1.07 2.74l-1.78-1.78c.06-.32.18-.73.34-1.18.2-.54.42-1.08.59-1.43v-.02a8.24 8.24 0 0 1 1.76-2.75Zm-.72 8.06.47.18.1-.29a916.97 916.97 0 0 1 1.25-3.17c.7-1.8 1.47-3.73 1.73-4.27v-.01l.01-.01c.1-.24.23-.58.26-.91.03-.31 0-.81-.49-1.06-1.25-.65-2.43-.08-3.3.75a9.22 9.22 0 0 0-1.99 3.1 20.8 20.8 0 0 0-.91 2.46c-.31-.14-.73-.32-1.19-.5a9.92 9.92 0 0 0-3.17-.8h-.31c-.49.04-.95.2-1.3.57-.33.37-.5.87-.5 1.46v1.76L8.47 16h2.38l.13-.32-.47-.18ZM9.3 15h-.76l-6.37-1.09V13c0-.41.1-.64.23-.78.12-.13.32-.22.62-.25h.25c.72 0 1.83.34 2.8.73a24.21 24.21 0 0 1 1.64.71L9.29 15Z"/></svg>