<svg width="24" height="24" fill="none" xmlns="http://www.w3.org/2000/svg"><path fill="currentColor" d="M19.5 2a.5.5 0 0 0-.5.5v4c0 .09.05.22.17.33.11.12.24.17.33.17h1.1c.3 0 .5-.24.5-.5v-4a.51.51 0 0 0-.17-.33.51.51 0 0 0-.33-.17h-1.1Zm-1.5.5c0-.74.6-1.5 1.5-1.5h1.1c.41 0 .78.2 1.04.46s.46.63.46 1.04v4c0 .74-.6 1.5-1.5 1.5h-1.1c-.41 0-.78-.2-1.04-.46A1.5 1.5 0 0 1 18 6.5v-4Zm-1.42 8.9a5.35 5.35 0 0 1 1.84-1.4A2 2 0 0 1 20 9.95c.13.48.15.96-.05 1.44a1080.83 1080.83 0 0 0-4.33 9.43L15.08 22h-.23l-1.95-2.53c.1-1.13.4-2.35.86-3.36v-.02a16.6 16.6 0 0 1 2.82-4.7ZM15.4 22.5l.46.2.66-1.46a6071.9 6071.9 0 0 1 4.33-9.43l.01-.01c.37-.86.23-1.7.01-2.36l-.06-.2-.18-.08a2.99 2.99 0 0 0-2.58-.1c-.8.33-1.55.94-2.2 1.67a17.58 17.58 0 0 0-3.01 4.97c-.43.95-.71 2.03-.86 3.07a38.59 38.59 0 0 0-2.22-.89c-1.55-.57-3.5-1.18-4.86-1.18h-.44A2.64 2.64 0 0 0 2 19.52v2.43L12.27 23h3.45l.13-.3-.45-.2Zm-1.81-.5h-1.26L3 21.05v-1.59c-.08-.9.59-1.67 1.52-1.76h.38c1.15 0 2.94.54 4.51 1.12a44.12 44.12 0 0 1 2.52 1.02L13.59 22Z"/></svg>