<svg width="16" height="16" fill="none" xmlns="http://www.w3.org/2000/svg"><path fill="currentColor" d="M13.05 1.05a.18.18 0 0 0-.05.12v2.67l.01.03.05.07c.06.05.1.06.1.06h.67c.06 0 .1-.02.12-.05a.18.18 0 0 0 .05-.12V1.16l-.01-.03a.26.26 0 0 0-.05-.07.26.26 0 0 0-.07-.05h-.03V1h-.67a.15.15 0 0 0-.12.05ZM12 1.17C12 .59 12.46 0 13.17 0h.66c.33 0 .62.16.82.35.2.2.35.49.35.82v2.66C15 4.41 14.54 5 13.83 5h-.66c-.33 0-.62-.16-.82-.35-.19-.2-.35-.49-.35-.82V1.17Zm-.78 6.27a8.24 8.24 0 0 0-1.76 2.75v.02c-.17.35-.4.9-.59 1.43a8.3 8.3 0 0 0-.34 1.18l1.78 1.78a849.53 849.53 0 0 1 1.07-2.74c.7-1.78 1.48-3.74 1.76-4.33a2.3 2.3 0 0 0 .19-.7c-.67-.33-1.38-.1-2.1.6Zm-.72 8.06.47.18-.13.32H8.46l-7.3-1.24V13c0-.59.17-1.1.5-1.46.35-.36.81-.53 1.3-.57h.31c.94 0 2.2.42 3.17.8.46.18.88.36 1.19.5a20.8 20.8 0 0 1 .91-2.47 9.22 9.22 0 0 1 1.99-3.09c.87-.83 2.05-1.4 3.3-.75.48.25.52.75.5 1.06-.04.33-.17.67-.27.91v.02c-.27.54-1.03 2.47-1.74 4.27a721.58 721.58 0 0 0-1.24 3.17l-.11.29-.47-.18ZM9.3 15l-1.6-1.59a12.44 12.44 0 0 0-.41-.2l-1.21-.51a9.08 9.08 0 0 0-2.81-.73h-.25c-.3.03-.5.12-.62.25-.12.14-.23.37-.23.78v.91L8.54 15h.75Z"/></svg>