<svg width="48" height="48" fill="none" xmlns="http://www.w3.org/2000/svg"><path fill="currentColor" d="M6 21.5A19.5 19.5 0 0 0 25.5 2h1A19.5 19.5 0 0 0 46 21.5v1A19.5 19.5 0 0 0 26.5 42h-1A19.5 19.5 0 0 0 6 22.5v-1Zm4.52.5A20.53 20.53 0 0 1 26 37.48 20.53 20.53 0 0 1 41.48 22 20.53 20.53 0 0 1 26 6.52 20.53 20.53 0 0 1 10.52 22ZM9.5 31v-1h1v1a6.5 6.5 0 0 0 6.5 6.5h1v1h-1a6.5 6.5 0 0 0-6.5 6.5v1h-1v-1A6.5 6.5 0 0 0 3 38.5H2v-1h1A6.5 6.5 0 0 0 9.5 31Zm.5 2.7A7.52 7.52 0 0 1 5.7 38a7.52 7.52 0 0 1 4.3 4.3 7.52 7.52 0 0 1 4.3-4.3 7.52 7.52 0 0 1-4.3-4.3Z"/></svg>