<svg width="48" height="48" fill="none" xmlns="http://www.w3.org/2000/svg"><path fill="currentColor" fill-opacity=".01" d="M0 0h48v48H0z"/><path fill="currentColor" fill-rule="evenodd" d="M2 11h40.5c1.98 0 3.5 1.52 3.5 3.5V38H5.5A3.45 3.45 0 0 1 2 34.5V11Zm1 1v22.5C3 35.92 4.08 37 5.5 37H45V14.5c0-1.42-1.08-2.5-2.5-2.5H3Zm9 6H8v-1h4v1Zm7 0h-4v-1h4v1Zm7 0h-4v-1h4v1Zm7 0h-4v-1h4v1Zm7 0h-4v-1h4v1Zm-28 4H8v-1h4v1Zm7 0h-4v-1h4v1Zm7 0h-4v-1h4v1Zm7 0h-4v-1h4v1Zm7 0h-4v-1h4v1Zm-28 4H8v-1h4v1Zm7 0h-4v-1h4v1Zm7 0h-4v-1h4v1Zm7 0h-4v-1h4v1Zm7 0h-4v-1h4v1Zm-6 6H14v-1h20v1Z" clip-rule="evenodd"/></svg>