<svg width="24" height="24" fill="none" xmlns="http://www.w3.org/2000/svg"><path fill="currentColor" fill-opacity=".01" d="M0 0h24v24H0z"/><path fill="currentColor" fill-rule="evenodd" d="M0 5h22.5c.41 0 .8.14 1.08.42.28.28.42.67.42 1.08V19H1.5c-.41 0-.8-.14-1.08-.42A1.5 1.5 0 0 1 0 17.5V5Zm1 1v11.5c0 .19.06.3.13.37s.18.13.37.13H23V6.5c0-.19-.06-.3-.13-.37S22.7 6 22.5 6H1Zm4 3H3V8h2v1Zm4 0H7V8h2v1Zm4 0h-2V8h2v1Zm4 0h-2V8h2v1Zm4 0h-2V8h2v1ZM5 12H3v-1h2v1Zm4 0H7v-1h2v1Zm4 0h-2v-1h2v1Zm4 0h-2v-1h2v1Zm4 0h-2v-1h2v1Zm-4 4H7v-1h10v1Z" clip-rule="evenodd"/></svg>