<svg width="24" height="24" fill="none" xmlns="http://www.w3.org/2000/svg"><path fill="currentColor" d="M1.01 11h5c.02-1.41.17-2.76.42-4H2a10.44 10.44 0 0 0-1 4Zm1.54-5h4.1c.23-.91.52-1.75.86-2.49.38-.84.85-1.6 1.38-2.18A10.52 10.52 0 0 0 2.55 6Zm8.95-6a11.5 11.5 0 1 1 0 23 11.5 11.5 0 0 1 0-23Zm0 1c-1.06 0-2.2.97-3.08 2.93A13.7 13.7 0 0 0 7.69 6h7.62a13.7 13.7 0 0 0-.73-2.07C13.69 1.97 12.56 1 11.5 1Zm4.85 5h4.1c-1.41-2.29-3.67-4-6.34-4.67.53.59 1 1.34 1.38 2.18.34.74.63 1.58.86 2.49Zm-.8 1h-8.1A21.8 21.8 0 0 0 7 11h8.98a21.8 21.8 0 0 0-.44-4ZM17 11h4.99a10.45 10.45 0 0 0-1-4h-4.42c.25 1.24.4 2.59.43 4Zm-1 1H7c.03 1.43.2 2.78.45 4h8.1c.26-1.22.42-2.57.44-4Zm.57 4H21c.58-1.22.93-2.57 1-4h-5a22.97 22.97 0 0 1-.42 4Zm-1.26 1H7.7c.2.76.45 1.46.73 2.07.89 1.96 2.02 2.93 3.08 2.93s2.2-.97 3.08-2.93c.28-.61.53-1.31.73-2.07Zm-1.2 4.67A10.52 10.52 0 0 0 20.45 17h-4.1c-.23.91-.52 1.75-.86 2.49-.38.84-.85 1.6-1.38 2.18Zm-5.22 0c-.53-.59-1-1.34-1.38-2.18-.34-.74-.63-1.58-.86-2.49h-4.1c1.41 2.29 3.67 4 6.34 4.67ZM2.01 16h4.42A22.8 22.8 0 0 1 6 12H1.01c.07 1.43.42 2.78 1 4Z"/></svg>