<svg width="24" height="24" fill="none" xmlns="http://www.w3.org/2000/svg"><path fill="currentColor" d="M8.43 3.2A7.64 7.64 0 0 1 9.9.8c.54-.55 1.07-.8 1.59-.8s1.05.25 1.59.8a7.64 7.64 0 0 1 1.48 2.4c.34.82.63 1.76.86 2.8H7.57c.23-1.04.52-1.98.86-2.8Zm.6-2.94A8.99 8.99 0 0 0 7.5 2.82c-.38.93-.7 2-.96 3.18H1.4A11.52 11.52 0 0 1 9.03.26Zm4.94 0A11.5 11.5 0 0 1 21.6 6h-5.14a17.87 17.87 0 0 0-.96-3.18A8.99 8.99 0 0 0 13.97.26ZM22.09 7c.52 1.24.84 2.59.9 4h-6a27.5 27.5 0 0 0-.35-4h5.45Zm.9 5a11.44 11.44 0 0 1-.9 4h-5.45c.21-1.25.33-2.6.36-4h5.99Zm-1.39 5a11.52 11.52 0 0 1-7.63 5.74 8.99 8.99 0 0 0 1.53-2.56c.38-.93.7-2 .96-3.18h5.14Zm-10.1 6c-.52 0-1.05-.25-1.59-.8a7.64 7.64 0 0 1-1.48-2.4c-.34-.82-.63-1.76-.86-2.8h7.86a16.63 16.63 0 0 1-.86 2.8 7.64 7.64 0 0 1-1.48 2.4c-.54.55-1.07.8-1.59.8Zm-2.47-.26A11.52 11.52 0 0 1 1.4 17h5.14c.25 1.18.58 2.25.96 3.18.43 1.03.95 1.9 1.53 2.56ZM.91 16a11.45 11.45 0 0 1-.9-4h6c.02 1.4.14 2.75.35 4H.9Zm-.9-5c.06-1.41.38-2.76.9-4h5.45A27.5 27.5 0 0 0 6 11H.01ZM7 11c.03-1.42.16-2.76.37-4h8.26c.21 1.24.34 2.58.37 4H7Zm.37 5A26.36 26.36 0 0 1 7 12h9a26.36 26.36 0 0 1-.37 4H7.37Z"/></svg>