<svg width="24" height="24" fill="none" xmlns="http://www.w3.org/2000/svg"><path fill="currentColor" d="M7.75 4.75V3h1.5v1.75H14v1.5h-1.5a12.63 12.63 0 0 1-2.95 5.44c.97.9 2.14 1.72 3.52 2.4l-.67 1.35a16.77 16.77 0 0 1-3.9-2.68c-1.08 1-2.38 1.92-3.9 2.68l-.67-1.34a15.28 15.28 0 0 0 3.52-2.4 13.56 13.56 0 0 1-2.43-3.84L6.4 7.3a12.02 12.02 0 0 0 2.1 3.33c1.28-1.46 2.08-3 2.45-4.37H3v-1.5h4.75Zm7.64 7.01h1.72l4.32 8.93-1.35.65-1.04-2.15h-5.58l-1.04 2.15-1.35-.65 4.32-8.93Zm-1.2 5.93h4.12l-2.06-4.25-2.06 4.25Z"/></svg>