<svg width="48" height="48" fill="none" xmlns="http://www.w3.org/2000/svg"><path fill="currentColor" d="M16.5 9.5V5h1v4.5H28v1h-3.82c-.65 3.7-2.79 8.05-6.48 11.93a31.32 31.32 0 0 0 7.99 5.66l-.45.9A32.32 32.32 0 0 1 17 23.14 32.32 32.32 0 0 1 8.76 29l-.45-.9a31.32 31.32 0 0 0 7.99-5.66 26.46 26.46 0 0 1-5.34-8.09l.92-.38A25.45 25.45 0 0 0 17 21.72c3.5-3.7 5.52-7.78 6.17-11.22H6v-1h10.5ZM31.19 26h2.12l8.14 16.78-.9.44-2.29-4.72H26.24l-2.29 4.72-.9-.44L31.19 26Zm-4.47 11.5h11.06L32.68 27h-.87l-5.09 10.5Z"/></svg>