<svg width="24" height="24" fill="none" xmlns="http://www.w3.org/2000/svg"><path fill="currentColor" d="m23.6 4.58-1.2 9.08v.03a3.06 3.06 0 0 1-.06.27 5 5 0 0 1-.2.66c-.2.45-.58 1.11-1.34 1.27l-9.86 2.2h-.04a4.63 4.63 0 0 1-.82.16c-.55.06-1.33.06-2.28-.16-1.92-.46-4.48-1.8-7.29-5.28l-.46-.56L23.6 4.58Zm-2.2 8.96 1-7.52-4.97 1.62A4.27 4.27 0 0 1 17.56 9c-.04.48-.2 1.03-.62 1.45-.44.43-1.08.66-1.94.66-1.5 0-2.39-.43-2.9-.95a2.24 2.24 0 0 1-.45-.63l-9.9 3.23c2.5 2.9 4.71 4 6.28 4.36a5.78 5.78 0 0 0 2.45.06 2 2 0 0 0 .11-.03h.03l.03-.02 9.95-2.21c.24-.05.45-.28.61-.68a3.1 3.1 0 0 0 .2-.68v-.01ZM12.61 9.2c.05.07.11.15.2.24.28.28.89.65 2.19.65.69 0 1.04-.18 1.24-.37.2-.2.3-.48.32-.82.03-.33-.02-.68-.09-.96L12.61 9.2Zm6.34 3 .45-3.18 1 .14-.55 3.82-9.84 2.9h-.03l-.08-.49.08.5h-.02a.96.96 0 0 1-.1 0l-.3.01c-.24 0-.58-.05-1-.17a7.78 7.78 0 0 1-3.2-1.98l-.63-.6 5.12-1.54.3.96-3.45 1.04c.86.69 1.6 1.01 2.13 1.16a3.28 3.28 0 0 0 .97.13l9.15-2.7Z"/></svg>