<svg width="24" height="24" fill="none" xmlns="http://www.w3.org/2000/svg"><path fill="currentColor" d="M9 17.44 19.89 6.48c1.1.68 2.09 1.42 2.82 2.22A4.22 4.22 0 0 1 24 11.5c0 1.03-.53 1.97-1.29 2.8-.76.83-1.81 1.6-2.96 2.31a53.05 53.05 0 0 1-7.16 3.45c-.86.35-1.74.34-2.44-.03A2.21 2.21 0 0 1 9 18v-.56Zm7.66-12.67L9 12.47V5.1c0-.92.44-1.65 1.15-2.03a2.9 2.9 0 0 1 2.43-.04c1.2.47 2.63 1.05 4.08 1.74Zm6.74-3.24L1.9 23.15.85 22.1 22.34.47l1.07 1.06ZM7 8.25H0v-1.5h7v1.5Zm0 4H0v-1.5h7v1.5Zm-2 4H0v-1.5h5v1.5Z"/></svg>