<svg width="24" height="24" fill="none" xmlns="http://www.w3.org/2000/svg"><path fill="currentColor" d="m23.6 4.58-1.2 9.08v.03a3.19 3.19 0 0 1-.06.27 5 5 0 0 1-.2.66c-.2.45-.58 1.11-1.34 1.27l-9.86 2.2a1.76 1.76 0 0 1-.22.05c-.15.04-.37.09-.64.12-.55.05-1.33.05-2.28-.17-1.92-.46-4.48-1.8-7.29-5.28l-.46-.56L23.6 4.58Zm-2.2 8.96 1-7.52-4.97 1.62.01.06c.08.34.16.8.12 1.29-.04.48-.2 1.03-.62 1.45-.44.43-1.08.66-1.94.66-1.5 0-2.39-.43-2.9-.95a2.24 2.24 0 0 1-.45-.63l-9.9 3.23c2.5 2.9 4.71 4 6.28 4.36a5.78 5.78 0 0 0 2.45.06.2.2 0 0 0 .11-.03h.03l.03-.02 9.95-2.21c.24-.05.45-.28.61-.68a3.1 3.1 0 0 0 .2-.68v-.01ZM12.61 9.2c.05.07.11.15.2.24.28.28.89.65 2.19.65.69 0 1.04-.18 1.24-.37.2-.2.3-.48.32-.82.03-.33-.02-.68-.09-.96L12.61 9.2ZM20 10h-1V9h1v1Zm0 2h-1v-1h1v1Zm-2 1h-1v-1h1v1ZM8 14H7v-1h1v1Zm2 0H9v-1h1v1Zm2 0h-1v-1h1v1Zm2 0h-1v-1h1v1Zm2 0h-1v-1h1v1Z"/></svg>