<svg width="24" height="24" fill="none" xmlns="http://www.w3.org/2000/svg"><path fill="currentColor" d="M23.23 1.35 1.73 22.98l-.71-.7L22.52.64l.71.7ZM12.58 3.03c1.15.45 2.52 1 3.9 1.65.06.03.23.12.36.25l-.7.71a.54.54 0 0 0-.07-.05h-.01a66.58 66.58 0 0 0-3.84-1.62c-.65-.26-1.22-.22-1.6-.02-.36.2-.62.57-.62 1.15V12H9V5.1c0-.92.44-1.65 1.15-2.03a2.9 2.9 0 0 1 2.43-.04Zm7.18 3.37.15.1c1.11.69 2.12 1.44 2.85 2.26A4.17 4.17 0 0 1 24 11.5c0 1.03-.53 1.97-1.29 2.8-.76.83-1.81 1.6-2.96 2.31a53.05 53.05 0 0 1-7.16 3.45c-.86.35-1.74.34-2.44-.03A2.21 2.21 0 0 1 9 18v-1h1v1c0 .58.26.95.62 1.15.38.2.95.24 1.6-.01a52.1 52.1 0 0 0 7-3.38 12.5 12.5 0 0 0 2.75-2.14c.68-.74 1.03-1.45 1.03-2.12 0-.66-.33-1.35-.98-2.07a12.27 12.27 0 0 0-2.81-2.2c-.06-.04-.16-.1-.24-.17l.7-.72.02.01.07.05ZM7 8H0V7h7v1Zm0 4H0v-1h7v1Zm-1 4H0v-1h6v1Z"/></svg>