<svg width="16" height="16" fill="none" xmlns="http://www.w3.org/2000/svg"><path fill="currentColor" d="m15.56 3.32-.46 5.8-.5-.05.5.06v.02a1.98 1.98 0 0 1-.04.2 2.9 2.9 0 0 1-.15.46c-.13.31-.42.82-1 .95l-6.59 1.46a1.13 1.13 0 0 1-.15.03 4.34 4.34 0 0 1-1.85-.21c-1.2-.4-2.83-1.4-4.7-3.73l-.48-.58 15.42-4.4Zm-1.46 5.7.34-4.34-1.3.37A3 3 0 0 1 7.4 6.7L1.88 8.27c1.57 1.78 2.86 2.52 3.75 2.82a3.35 3.35 0 0 0 1.37.18.8.8 0 0 0 .05-.02h.02l6.63-1.47c.07-.02.18-.1.29-.35a1.9 1.9 0 0 0 .1-.4l.01-.02Zm-1.93-3.69-3.8 1.08a2 2 0 0 0 3.8-1.08Z"/></svg>