<svg width="48" height="48" fill="none" xmlns="http://www.w3.org/2000/svg"><path fill="currentColor" d="M20.7 9.4a4.22 4.22 0 0 1 3.7-.06c3.34 1.4 7.95 3.39 11.73 5.76a22.7 22.7 0 0 1 4.83 3.87c1.23 1.39 2.04 2.9 2.04 4.53 0 1.62-.81 3.14-2.04 4.53a22.54 22.54 0 0 1-4.83 3.86c-3.78 2.36-8.39 4.32-11.74 5.67a4.22 4.22 0 0 1-3.68-.06A3.4 3.4 0 0 1 19 34.4V12.5a3.4 3.4 0 0 1 1.7-3.1Zm.5.87c-.71.4-1.2 1.15-1.2 2.23v21.9c0 1.08.49 1.83 1.2 2.23.71.4 1.72.46 2.8 0h.01c3.35-1.34 7.89-3.28 11.59-5.6a21.57 21.57 0 0 0 4.61-3.67C41.36 26.07 42 24.78 42 23.5c0-1.28-.64-2.57-1.79-3.86a21.74 21.74 0 0 0-4.61-3.7c-3.7-2.32-8.24-4.28-11.6-5.68a3.23 3.23 0 0 0-2.8.01ZM4 13h13v1H4v-1Zm0 5h13v1H4v-1Zm0 5h13v1H4v-1Zm0 5h13v1H4v-1Zm0 5h13v1H4v-1Z"/></svg>