<svg width="16" height="16" fill="none" xmlns="http://www.w3.org/2000/svg"><path fill="currentColor" d="m11.37 3.26 1.39.9c.77.5 1.38.9 1.83 1.25.45.34.8.67 1.01 1.06a3.21 3.21 0 0 1-.1 3.26c-.24.37-.6.68-1.08 1-.47.31-1.1.67-1.9 1.12l-1.34.75c-.96.55-1.73.99-2.36 1.23-.64.24-1.26.34-1.83 0-.57-.33-.8-.92-.9-1.6C6 11.58 6 10.7 6 9.59v-3.4c0-1.2 0-2.14.1-2.84.1-.7.34-1.32.95-1.65.6-.33 1.25-.19 1.9.11.64.3 1.43.81 2.42 1.46Zm-2.84-.55c-.57-.26-.83-.24-1-.14-.19.1-.35.3-.44.92C7 4.1 7 4.98 7 6.22v3.32c0 1.16 0 1.97.09 2.55.08.58.23.78.4.88.18.1.43.13.97-.08.55-.2 1.26-.6 2.27-1.18L12 11c.83-.47 1.43-.8 1.87-1.1.43-.29.66-.5.78-.7.43-.68.46-1.53.08-2.24a2.6 2.6 0 0 0-.75-.75C13.56 5.88 13 5.5 12.2 5l-1.32-.87a21.45 21.45 0 0 0-2.34-1.41ZM4 5H0V4h4v1Zm0 3H0V7h4v1Zm0 3H0v-1h4v1Z"/></svg>