<svg width="24" height="24" fill="none" xmlns="http://www.w3.org/2000/svg"><path fill="currentColor" fill-rule="evenodd" d="m9.62.26.62 1.9-1.42.46L8.2.72 9.62.26Zm4.14 1.9.62-1.9 1.42.46-.62 1.9-1.42-.46ZM4.36 3.5l1.6 1.2-.86 1.21-1.63-1.18.88-1.22Zm13.66 1.2 1.62-1.18.88 1.22-1.62 1.18-.88-1.22ZM2 9.25h2v1.5H2v-1.5Zm18 0h2v1.5h-2v-1.5ZM3.47 15.27l1.62-1.18.88 1.22-1.62 1.18-.88-1.22ZM18.9 14.1l1.62 1.18-.88 1.22-1.62-1.18.88-1.22ZM15 20.5H9V19h6v1.5ZM14 23h-4v-1.5h4V23ZM10 8.41a.4.4 0 0 1 .41-.41h3.18a.4.4 0 0 1 .41.41v3.18a.41.41 0 0 1-.41.41H10.4a.41.41 0 0 1-.41-.41V8.4Z" clip-rule="evenodd"/><path fill="currentColor" fill-rule="evenodd" d="m15 17 .56-.95a7 7 0 1 0-7.12 0L9 17v1h6v-1ZM10.41 7A1.4 1.4 0 0 0 9 8.41v3.18A1.41 1.41 0 0 0 10.41 13h3.18A1.41 1.41 0 0 0 15 11.59V8.4c0-.77-.63-1.4-1.41-1.4H10.4Z" clip-rule="evenodd"/></svg>