<svg width="24" height="24" fill="none" xmlns="http://www.w3.org/2000/svg"><path fill="currentColor" d="m3.53 9.02-3.5-2.2.54-.84 3.5 2.2-.54.84Zm16.69-.83 3.2-2.2.56.82-3.2 2.2-.56-.82ZM7.12 6.52h.02c.74.55 1.68 1.24 2.43 2.04.77.8 1.43 1.8 1.43 2.94s-.66 2.14-1.43 2.94c-.76.79-1.71 1.45-2.46 1.95-.35.31-.8.31-.98.31H6.1a1.1 1.1 0 0 1-.9-.53 1.3 1.3 0 0 1-.2-.92V7.67c0-.18 0-.67.35-1.02.22-.23.52-.38.84-.42.3-.04.66.03.93.29Zm-.8.7a.47.47 0 0 0-.27.13c0 .01-.02.03-.03.1C6 7.52 6 7.59 6 7.7v7.66l-.01.06a.3.3 0 0 0 .04.21c.04.06.07.07.07.07.1 0 .18 0 .25-.02.07 0 .09-.03.1-.03l.03-.04.04-.03c.75-.5 1.64-1.12 2.33-1.84.7-.73 1.15-1.48 1.15-2.24 0-.76-.44-1.51-1.15-2.26a17.5 17.5 0 0 0-2.33-1.92l-.05-.04-.02-.03c-.02-.02-.06-.04-.14-.03Zm11.37 0c-.08 0-.12.01-.14.03l-.02.03-.05.04a17.5 17.5 0 0 0-2.33 1.92c-.7.75-1.15 1.5-1.15 2.26 0 .76.44 1.51 1.15 2.24.7.72 1.58 1.35 2.33 1.84l.04.03.03.04c.01 0 .03.02.1.03a.9.9 0 0 0 .25.02s.03-.01.07-.07a.3.3 0 0 0 .04-.2l-.01-.07V7.7a3.97 3.97 0 0 0-.02-.3l-.03-.05a.47.47 0 0 0-.26-.13Zm.12-1c.32.05.62.2.84.43.35.34.35.73.35 1.01v7.59c.06.33-.03.67-.2.92a1.1 1.1 0 0 1-.9.53h-.03c-.17 0-.63 0-.98-.3-.75-.5-1.7-1.17-2.46-1.96-.77-.8-1.43-1.8-1.43-2.94s.66-2.14 1.43-2.94c.75-.8 1.7-1.5 2.43-2.03l.02-.01c.27-.26.62-.33.93-.3ZM4 12H0v-1h4v1Zm16-1h4v1h-4v-1ZM4.07 14.82l-3.5 2.2-.54-.84 3.5-2.2.54.84ZM20.78 14l3.2 2.2-.56.82-3.2-2.2.56-.82Z"/></svg>