<svg width="48" height="48" fill="none" xmlns="http://www.w3.org/2000/svg"><path fill="currentColor" d="m19.54 4.64-.96.32-1.24-3.8.96-.32 1.24 3.8ZM29.7.84l.96.32-1.24 3.8-.96-.32L29.7.84ZM12 20.02a12 12 0 0 0 6.02 10.42l.1.06 2.3 3.2-.82.6-2.17-3.05A13.02 13.02 0 0 1 24 7a13 13 0 0 1 6.57 24.25L28.4 34.3l-.8-.58 2.3-3.21.09-.06A12.02 12.02 0 0 0 24 8a12 12 0 0 0-12 12.02Zm-.65-9.8-.58.8-3.24-2.36.58-.8 3.24 2.36Zm28.54-2.36.58.8-3.24 2.36-.58-.8 3.24-2.36ZM8 19.52v1H4v-1h4Zm36 0v1h-4v-1h4Zm-33.23 9.5.58.8-3.24 2.36-.58-.8 3.24-2.36Zm29.7 2.36-.58.8-3.24-2.36.58-.8 3.24 2.36ZM29 38H19v-1h10v1Zm0 4H19v-1h10v1Zm-2 4h-6v-1h6v1Z"/><path fill="currentColor" d="M27 23h-6v-6h6v6Zm-5-1h4v-4h-4v4Z"/><path fill="currentColor" d="M20 12h1v2h2.5v-2h1v2H27v-2h1v2.05c.98.2 1.75.97 1.95 1.95H32v1h-2v2.5h2v1h-2V23h2v1h-2.05A2.5 2.5 0 0 1 28 25.95V28h-1v-2h-2.5v2h-1v-2H21v2h-1v-2.05A2.5 2.5 0 0 1 18.05 24H16v-1h2v-2.5h-2v-1h2V17h-2v-1h2.05A2.5 2.5 0 0 1 20 14.05V12Zm-1 4.5v7c0 .83.67 1.5 1.5 1.5h7c.83 0 1.5-.67 1.5-1.5v-7c0-.83-.67-1.5-1.5-1.5h-7c-.83 0-1.5.67-1.5 1.5Z"/></svg>