<svg width="24" height="24" fill="none" xmlns="http://www.w3.org/2000/svg"><path fill="currentColor" d="m23.6 4.58-1.2 9.08v.03a3.16 3.16 0 0 1-.06.27 5 5 0 0 1-.2.66c-.2.45-.58 1.11-1.34 1.27l-9.86 2.2h-.04a4.65 4.65 0 0 1-.82.16c-.55.07-1.33.06-2.28-.16-1.92-.46-4.48-1.8-7.29-5.28l-.46-.56 10.9-3.55.23.5a1.5 1.5 0 0 0 .17.32c.12.19.31.43.6.67.6.48 1.55.91 3.05.91.86 0 1.5-.23 1.94-.66.43-.42.58-.97.62-1.45a4.3 4.3 0 0 0-.29-1.86l-.15-.44 6.48-2.11Zm-4.2 4.45-.45 3.18-9.15 2.7h-.2c-.17 0-.43-.03-.77-.13a6.13 6.13 0 0 1-2.13-1.16l3.44-1.04-.29-.96-5.12 1.55.62.6a7.78 7.78 0 0 0 3.21 1.97 4.27 4.27 0 0 0 1.4.16h.02l-.08-.5.08.5.03-.01 9.84-2.9.54-3.82-.99-.14Z"/><path fill="currentColor" d="m12.1 8.81-.19-.42L16.17 7l.16.47v.01l.01.03a3.07 3.07 0 0 1 .13.42c.06.28.12.64.1.98-.03.34-.13.62-.33.82-.2.19-.55.37-1.24.37-1.3 0-2.02-.37-2.41-.69a1.86 1.86 0 0 1-.48-.58V8.8Z"/></svg>