<svg width="16" height="16" fill="none" xmlns="http://www.w3.org/2000/svg"><path fill="currentColor" d="M15.6 1.02 1.27 15.44l-.7-.7L14.9.3l.7.7Zm-6.94.66c.54.2 1.17.58 1.92 1.07l-.54.84c-.76-.49-1.3-.81-1.73-.98-.42-.15-.63-.13-.79-.04-.18.1-.34.3-.43.92C7 4.1 7 4.98 7 6.22V7H6v-.83C6 5 6 4.04 6.1 3.34c.1-.7.34-1.32.95-1.65.51-.28 1.06-.22 1.61-.01ZM4 5H0V4h4v1Zm10.14 1.33c-.31-.26-.74-.55-1.33-.94l.55-.84c.58.39 1.05.7 1.41 1 .36.3.65.58.83.92a3.21 3.21 0 0 1-.1 3.26c-.24.37-.6.68-1.08 1-.47.31-1.1.67-1.9 1.12l-1.34.75c-.96.55-1.73.99-2.36 1.23-.64.24-1.26.34-1.83 0-.62-.36-.83-1.02-.92-1.77l1-.12c.08.7.24.92.43 1.03.17.1.42.13.96-.08.55-.2 1.26-.6 2.27-1.18L12 11c.83-.47 1.43-.8 1.87-1.1.43-.29.66-.5.78-.7.43-.68.46-1.53.08-2.24-.1-.17-.27-.37-.59-.62ZM4 8H0V7h4v1Zm-1 3H0v-1h3v1Z"/></svg>