<svg width="24" height="24" fill="none" xmlns="http://www.w3.org/2000/svg"><path fill="currentColor" d="M12.58 3.03a2.89 2.89 0 0 0-2.43.04A2.21 2.21 0 0 0 9 5.1V18c0 .92.44 1.65 1.15 2.03.7.37 1.58.38 2.44.03a53.05 53.05 0 0 0 7.16-3.45c1.15-.7 2.2-1.48 2.96-2.31A4.23 4.23 0 0 0 24 11.5c0-1.03-.53-1.97-1.29-2.8-.76-.83-1.81-1.6-2.96-2.3a47.94 47.94 0 0 0-7.17-3.37Zm-1.96.92c.38-.2.95-.24 1.6.01a47 47 0 0 1 7 3.3c1.12.67 2.08 1.38 2.75 2.12.68.74 1.03 1.45 1.03 2.12 0 .67-.35 1.38-1.03 2.12-.67.74-1.63 1.46-2.74 2.14a52.11 52.11 0 0 1-7.02 3.38c-.64.25-1.2.21-1.59 0-.36-.19-.62-.56-.62-1.14V5.1c0-.58.26-.95.62-1.15ZM.1 8.93l6.84-2.4.34.94-6.85 2.4-.33-.94Zm0 4.7 6.84-2.4.34.94-6.85 2.4-.33-.94Zm0 4.8 6.84-2.4.34.94-6.85 2.4-.33-.94Z"/></svg>