<svg width="24" height="24" fill="none" xmlns="http://www.w3.org/2000/svg"><path fill="currentColor" d="m9.39.33.62 1.9-.96.32-.62-1.9.96-.32Zm4.6 1.9.62-1.9.96.32-.62 1.9-.96-.32ZM12 4a6 6 0 0 0-2.99 11.22l.07.04 1.29 1.4-.74.68-1.19-1.3a7 7 0 1 1 7.12 0l-1.2 1.3-.73-.68 1.3-1.4.06-.04A6 6 0 0 0 12 4Zm6.18.9 1.62-1.18.58.8-1.62 1.18-.58-.8ZM4.2 3.72 5.82 4.9l-.58.8-1.62-1.18.58-.8ZM2 9.5h2v1H2v-1Zm18 0h2v1h-2v-1ZM3.62 15.48l1.62-1.18.58.8-1.62 1.18-.58-.8Zm15.14-1.18 1.62 1.18-.58.8-1.62-1.18.58-.8ZM15 19v1H9v-1h6Zm-1 3v1h-4v-1h4Z"/><path fill="currentColor" d="M10.41 7h3.18c.78 0 1.41.63 1.41 1.41v3.18A1.41 1.41 0 0 1 13.59 13H10.4A1.41 1.41 0 0 1 9 11.59V8.4c0-.77.63-1.4 1.41-1.4ZM10 8.41v3.18a.41.41 0 0 0 .41.41h3.18a.41.41 0 0 0 .41-.41V8.4a.41.41 0 0 0-.41-.41H10.4a.41.41 0 0 0-.41.41Z"/></svg>