<svg width="48" height="48" fill="none" xmlns="http://www.w3.org/2000/svg"><path fill="currentColor" d="M12.93 15.26a36.1 36.1 0 0 1 5.7 3.3 11.6 11.6 0 0 1 2.36 2.26c.6.8 1.01 1.71 1.01 2.68 0 .97-.4 1.87-1.01 2.69-.61.8-1.45 1.56-2.37 2.25a35.06 35.06 0 0 1-5.78 3.3c-.36.23-.88.38-1.35.25-1.09-.16-1.7-1.23-1.59-2.22V17.26c0-.27 0-.8.28-1.23.63-1 1.81-1.3 2.75-.77Zm-.48.87c-.45-.26-1.06-.15-1.43.44-.1.16-.12.4-.12.73v12.56c-.08.59.3 1.09.76 1.14l.05.01.05.02c.1.03.34 0 .56-.15l.03-.02.04-.01c1.7-.8 3.88-1.9 5.64-3.21.88-.66 1.63-1.35 2.16-2.05.53-.71.81-1.4.81-2.09 0-.68-.28-1.38-.81-2.09-.53-.7-1.28-1.4-2.15-2.05a35.2 35.2 0 0 0-5.56-3.21h-.01l-.02-.02Zm23.53.44c-.37-.59-.98-.7-1.43-.44l-.02.01-.01.01a35.2 35.2 0 0 0-5.56 3.21c-.87.66-1.62 1.34-2.15 2.05-.53.71-.81 1.4-.81 2.09 0 .68.28 1.38.81 2.09.53.7 1.28 1.4 2.16 2.05a34.22 34.22 0 0 0 5.64 3.2l.04.02.03.02c.22.15.46.18.56.15l.05-.02h.05c.47-.06.84-.56.76-1.15V17.3c0-.33-.01-.57-.12-.72v-.01Zm.84-.54c.28.43.28.96.28 1.23v12.51c.1.99-.5 2.06-1.6 2.22-.46.13-.98-.02-1.34-.25-1.7-.8-3.95-1.94-5.78-3.3A11.54 11.54 0 0 1 26 26.19a4.52 4.52 0 0 1-1-2.69c0-.97.4-1.87 1.01-2.68.6-.82 1.44-1.57 2.35-2.26a36.1 36.1 0 0 1 5.7-3.3 2.04 2.04 0 0 1 2.76.77Zm-35.43 0 7.5 3-.38.93-7.5-3 .38-.92Zm37.72 3 7.5-3 .38.93-7.5 3-.38-.92ZM1 23h8v1H1v-1Zm46 1h-8v-1h8v1ZM8.89 27.96l-7.5 3-.38-.92 7.5-3 .38.92Zm30.6-.92 7.5 3-.38.92-7.5-3 .38-.92Z"/></svg>