<svg width="24" height="24" fill="none" xmlns="http://www.w3.org/2000/svg"><path fill="currentColor" d="M17.76 9.9c0 .09-.08.16-.17.16h-1.67v.64h1.67c.09 0 .17.07.17.17v.6c0 .1-.08.17-.17.17h-1.67v.63h1.67c.09 0 .17.08.17.17v.6c0 .1-.08.17-.17.17h-2.46a.17.17 0 0 1-.11-.05.16.16 0 0 1-.06-.12V9.3a.17.17 0 0 1 .05-.12.17.17 0 0 1 .12-.05h2.46c.09 0 .17.08.17.17v.6Zm-3.4 3.14c0 .1-.07.17-.16.17h-.67l-.01-.01h-.02v-.01h-.01a.17.17 0 0 1-.05-.05l-1.75-2.32v2.22c0 .1-.07.17-.17.17h-.61a.17.17 0 0 1-.17-.17V9.3c0-.09.08-.17.17-.17h.63a.1.1 0 0 1 .02.01h.02a.1.1 0 0 1 .02.01h.01v.01h.01v.01h.02v.01l.01.01.02.02 1.74 2.32V9.3c0-.09.08-.17.17-.17h.62c.1 0 .17.08.17.17v3.75Zm-4.22 0c0 .1-.07.17-.17.17h-.61a.17.17 0 0 1-.17-.17V9.3c0-.09.07-.17.17-.17h.61c.1 0 .17.08.17.17v3.75Zm-1.48 0c0 .1-.07.17-.17.17H6.04a.17.17 0 0 1-.12-.05.17.17 0 0 1-.05-.12V9.3c0-.09.08-.17.17-.17h.61c.1 0 .17.08.17.17v2.98H8.5c.1 0 .17.08.17.17v.6ZM20.5 11c0-3.87-3.93-7-8.75-7S3 7.13 3 10.99c0 3.45 3.11 6.34 7.32 6.89.28.06.67.18.77.42.09.22.06.56.03.78l-.13.74c-.04.22-.17.85.76.46.93-.38 5.04-2.92 6.87-5a6.17 6.17 0 0 0 1.88-4.3Z"/></svg>