<svg width="48" height="48" fill="none" xmlns="http://www.w3.org/2000/svg"><path fill="currentColor" d="M34.98 19.78a.3.3 0 0 1-.3.3h-3.06v1.17h3.05a.3.3 0 0 1 .31.3v1.1a.3.3 0 0 1-.3.32h-3.06v1.16h3.05a.3.3 0 0 1 .31.3v1.1a.3.3 0 0 1-.3.31h-4.5a.31.31 0 0 1-.2-.08h-.01v-.01a.3.3 0 0 1-.1-.21v-6.86a.3.3 0 0 1 .1-.21v-.01a.31.31 0 0 1 .22-.09h4.48a.3.3 0 0 1 .31.3v1.11Zm-6.2 5.76a.3.3 0 0 1-.3.3h-1.13a.3.3 0 0 1-.08 0l-.02-.02h-.03l-.01-.01h-.01l-.02-.02a.3.3 0 0 1-.08-.08l-3.2-4.25v4.08a.3.3 0 0 1-.31.3h-1.13a.3.3 0 0 1-.3-.3v-6.86c0-.17.13-.3.3-.3h1.13a.28.28 0 0 1 .07 0h.03v.01a.17.17 0 0 1 .04.02h.02l.02.02.02.02h.01l.02.02c0 .02.02.03.03.04l3.19 4.24v-4.07c0-.17.14-.3.31-.3h1.12a.3.3 0 0 1 .32.3v6.86Zm-7.72 0a.3.3 0 0 1-.31.3h-1.12a.3.3 0 0 1-.31-.3v-6.86c0-.17.13-.3.3-.3h1.13a.3.3 0 0 1 .31.3v6.86Zm-2.7 0a.3.3 0 0 1-.32.3h-4.48a.31.31 0 0 1-.22-.08v-.01a.3.3 0 0 1-.1-.21v-6.86c0-.17.15-.3.32-.3h1.12a.3.3 0 0 1 .31.3v5.45h3.05a.3.3 0 0 1 .32.3v1.1ZM40 21.78C40 14.73 32.82 9 24 9S8 14.73 8 21.78c0 6.31 5.7 11.6 13.38 12.6.52.11 1.23.34 1.41.78.16.4.1 1.02.05 1.42l-.23 1.35c-.07.4-.32 1.55 1.39.85 1.7-.71 9.21-5.34 12.57-9.14 2.32-2.5 3.43-5.05 3.43-7.86Z"/></svg>