<svg width="24" height="24" fill="none" xmlns="http://www.w3.org/2000/svg"><path fill="currentColor" d="M3 1h17.5A2.5 2.5 0 0 1 23 3.5v17a2.5 2.5 0 0 1-2.5 2.5H3v-4H1v-1h2V6H1V5h2V1Zm1 5v12h2v1H4v3h16.5c.83 0 1.5-.67 1.5-1.5v-17c0-.83-.67-1.5-1.5-1.5H4v3h2v1H4Zm3 5.5a6.5 6.5 0 1 1 13 0 6.5 6.5 0 0 1-13 0Zm1.01-.33a5.58 5.58 0 0 0 1.52 4.14l1.77-1.77c-.2-.4-.3-.87-.3-1.37v-.03c0-.28 0-.63.05-.97H8Zm.15-1h3.25c.1-.14.23-.26.39-.37.21-.13.52-.2.77-.24a6.58 6.58 0 0 1 1.86 0c.25.04.56.1.77.24.16.1.29.23.39.37h3.25a5.5 5.5 0 0 0-10.68 0Zm10.83 1h-3.04c.05.34.05.69.05.97v.03c0 .5-.1.97-.3 1.37l1.77 1.77a5.48 5.48 0 0 0 1.52-4.14Zm-2.28 4.8-1.65-1.65c-.42.32-.96.49-1.56.49-.6 0-1.14-.17-1.56-.5l-1.65 1.66a5.48 5.48 0 0 0 6.42 0Zm-4.27-5.36a.56.56 0 0 0-.1.03c-.12.08-.22.24-.28.53-.06.29-.06.63-.06 1 0 .55.16.95.4 1.21.23.26.59.43 1.1.43.51 0 .87-.17 1.1-.43.24-.26.4-.66.4-1.21 0-.37 0-.71-.06-1-.06-.3-.16-.45-.28-.53l-.1-.03a5.58 5.58 0 0 0-2.11 0Z"/></svg>