<svg width="24" height="24" fill="none" xmlns="http://www.w3.org/2000/svg"><path fill="currentColor" d="M8.16 10.17a5.5 5.5 0 0 1 10.68 0h-3.25c-.1-.14-.23-.26-.39-.37-.21-.14-.52-.2-.77-.24a6.57 6.57 0 0 0-1.86 0c-.25.04-.56.1-.77.24-.16.1-.29.23-.39.37H8.16Zm-.15 1h3.04c-.05.34-.05.69-.05.97v.03c0 .5.1.97.3 1.37l-1.77 1.77a5.48 5.48 0 0 1-1.52-4.14Zm7.94 0H19a5.55 5.55 0 0 1-1.52 4.14l-1.77-1.77c.2-.4.3-.87.3-1.37v-.03c0-.28 0-.63-.05-.97Zm.75 4.8a5.48 5.48 0 0 1-6.41 0l1.65-1.65c.42.32.96.49 1.56.49.6 0 1.14-.17 1.56-.5l1.65 1.66Zm-4.36-5.33.1-.03.28-.06a5.6 5.6 0 0 1 1.94.1c.12.07.22.23.28.52.06.29.06.63.06 1 0 .55-.16.95-.4 1.21-.23.26-.59.43-1.1.43-.51 0-.87-.17-1.1-.43-.24-.26-.4-.66-.4-1.21 0-.37 0-.71.06-1 .06-.3.16-.45.28-.53Z"/><path fill="currentColor" d="M23 3.5v17a2.5 2.5 0 0 1-2.5 2.5H3v-3.75H1v-1.5h2V6.25H1v-1.5h2V1h17.5A2.5 2.5 0 0 1 23 3.5Zm-16 8a6.5 6.5 0 1 0 13 0 6.5 6.5 0 0 0-13 0Z"/></svg>