<svg width="48" height="48" fill="none" xmlns="http://www.w3.org/2000/svg"><path fill="currentColor" d="M7 2h30.5A3.5 3.5 0 0 1 41 5.5v37a3.5 3.5 0 0 1-3.5 3.5H7v-6H5v-1h2V9H5V8h2V2Zm1 7v30h1.9v1H8v5h29.5a2.5 2.5 0 0 0 2.5-2.5v-37A2.5 2.5 0 0 0 37.5 3H8v5h1.9v1H8Zm5 14a11 11 0 1 1 22 0 11 11 0 0 1-22 0Zm1.05-1a9.97 9.97 0 0 0 3.03 8.22l3.52-3.53a4.8 4.8 0 0 1-.6-2.44v-.02c0-.61 0-1.34.14-2l.05-.23h-6.14Zm.15-1h6.43c.16-.22.35-.41.6-.57.3-.2.76-.3 1.2-.37a11.14 11.14 0 0 1 3.14 0c.44.07.9.18 1.2.37.25.16.44.35.6.57h6.43a10 10 0 0 0-19.6 0Zm19.75 1h-6.14l.05.23c.14.66.14 1.39.14 2v.02c0 .92-.2 1.76-.6 2.44l3.52 3.53A9.97 9.97 0 0 0 33.95 22Zm-3.78 8.87-3.4-3.39A3.92 3.92 0 0 1 24 28.5a3.92 3.92 0 0 1-2.77-1.02l-3.4 3.4a9.96 9.96 0 0 0 12.34 0Zm-7.6-9.82c-.43.07-.7.15-.8.22-.34.22-.54.6-.66 1.16a9.46 9.46 0 0 0-.11 1.82c0 1.03.3 1.84.8 2.38.48.54 1.21.87 2.2.87.99 0 1.72-.33 2.2-.87.5-.54.8-1.35.8-2.38 0-.64 0-1.27-.11-1.82-.12-.56-.32-.94-.66-1.16a2.4 2.4 0 0 0-.8-.22 10.16 10.16 0 0 0-2.85 0Z"/></svg>