<svg width="48" height="48" fill="none" xmlns="http://www.w3.org/2000/svg"><path fill="currentColor" d="M33.45 13.52a10.42 10.42 0 0 1 13.13 6.83 10.42 10.42 0 0 1-6.82 13.13A10.42 10.42 0 0 1 26.74 27h-.9l-3.71 2.06-4.52-2-4 2-4.07-1.99-3 1.93H4.09L.02 24.49 4.39 20h22.35a10.54 10.54 0 0 1 6.7-6.48Zm12.18 7.13a9.42 9.42 0 0 0-11.87-6.17 9.54 9.54 0 0 0-6.18 6.17l-.11.35H4.8l-3.4 3.51L4.52 28h1.73l3.22-2.07 4.13 2.01 3.99-2 4.49 2 3.5-1.94h1.89l.1.35a9.42 9.42 0 0 0 11.88 6.17 9.42 9.42 0 0 0 6.18-11.86ZM39 23.5a1.5 1.5 0 1 1 3 0 1.5 1.5 0 0 1-3 0Zm1.5-.5a.5.5 0 1 0 0 1 .5.5 0 0 0 0-1Z"/></svg>