<svg width="48" height="48" fill="none" xmlns="http://www.w3.org/2000/svg"><path fill="currentColor" d="M25.8 2h3.4L32 4.8v3.5l7.7 7.7h3.5l2.8 2.8v3.4l-1 1-1.8-1.79-.6-.3-1.5 1.49.31.6 1.8 1.8-1 1h-3.42L36 23.2v-3.5L28.3 12h-3.5L22 9.2V5.8l1.01-1.02 1.95 2.07.39.1 1.6-1.6-.1-.39-2.07-1.95L25.8 2Zm.43 1 1.52 1.44.3 1.21-2.4 2.4-1.21-.3L23 6.23v2.56L25.2 11h3.5l8.3 8.3v3.5l2.2 2.2h2.6l-1.21-1.2-.7-1.4 2.51-2.5 1.4.69 1.2 1.2v-2.58L42.8 17h-3.5L31 8.7V5.2L28.8 3h-2.57ZM9.59 18.3C8 21 7 24.8 7 29c0 4.2 1 8 2.6 10.7 1.6 2.73 3.73 4.3 6 4.3h6.8c2.27 0 4.4-1.57 6-4.3C30 37 31 33.2 31 29c0-4.2-1-8-2.6-10.7-1.6-2.73-3.73-4.3-6-4.3h-6.8c-2.27 0-4.4 1.57-6 4.3Zm-.86-.51c1.7-2.89 4.1-4.79 6.86-4.79h6.82c2.76 0 5.17 1.9 6.86 4.79C30.97 20.69 32 24.65 32 29c0 4.35-1.03 8.32-2.73 11.21-1.7 2.89-4.1 4.79-6.86 4.79h-6.82c-2.76 0-5.17-1.9-6.86-4.79C7.03 37.31 6 33.35 6 29c0-4.35 1.03-8.32 2.73-11.21Zm9.23 2.14C19.16 17.61 20.92 16 23 16s3.83 1.6 5.04 3.93A20.1 20.1 0 0 1 30 29c0 3.52-.74 6.72-1.96 9.07C26.84 40.39 25.08 42 23 42s-3.83-1.6-5.04-3.93A20.1 20.1 0 0 1 16 29c0-3.52.74-6.72 1.96-9.07Zm.89.46A19.12 19.12 0 0 0 17 29c0 3.39.72 6.43 1.85 8.6C19.99 39.82 21.49 41 23 41c1.51 0 3-1.19 4.15-3.4A19.12 19.12 0 0 0 29 29c0-3.39-.72-6.43-1.85-8.6C26.01 18.18 24.51 17 23 17c-1.51 0-3 1.19-4.15 3.4Zm1.72.44.8 2.25-.94.34-.8-2.25.94-.34Zm3.06 2.25.8-2.25.94.34-.8 2.25-.94-.34Zm3.12 4.66-1.6.9-.5-.88 1.6-.9.5.88Zm-8.14-.7 2 .45-.22.97-2-.45.22-.97Zm.37 7.08 1.6-1.35.64.76-1.6 1.35-.64-.76Zm6.8.76-1.6-1.35.64-.76 1.6 1.35-.64.76ZM22.37 39l.03-2.25 1 .02-.03 2.25-1-.02Z"/></svg>