<svg width="48" height="48" fill="none" xmlns="http://www.w3.org/2000/svg"><path fill="currentColor" d="M20.5 8a2.58 2.58 0 0 0-2.5 2.5v7c0 1.32 1.18 2.5 2.5 2.5h7c1.32 0 2.5-1.18 2.5-2.5v-7C30 9.18 28.82 8 27.5 8h-7ZM17 10.5C17 8.62 18.62 7 20.5 7h7c1.88 0 3.5 1.62 3.5 3.5v7c0 1.88-1.62 3.5-3.5 3.5h-7a3.58 3.58 0 0 1-3.5-3.5v-7Zm21.5 8.7c.17.21.33.43.51.63.1.1.22.24.4.41.33.35.82.8 1.43 1.26a8.01 8.01 0 0 0 4.66 1.8h.5v.5c0 6.35-1.78 10.74-3.58 13.56a17.12 17.12 0 0 1-3.3 3.8 7.04 7.04 0 0 1-.31.24h-.02v.01h-.01L38.5 41l-.25.43-.03-.01a3.27 3.27 0 0 1-.3-.2 14.73 14.73 0 0 1-3.33-3.59C32.77 34.89 31 30.49 31 23.8v-.5h.5c1.84 0 3.49-.88 4.7-1.8a12.48 12.48 0 0 0 1.79-1.66c.17-.2.34-.43.5-.64Zm0 21.8-.25.43.27.16.26-.17-.28-.42Zm-.02-.61a16.12 16.12 0 0 0 3.09-3.56c1.66-2.6 3.34-6.66 3.43-12.55a9.32 9.32 0 0 1-4.76-1.98 14.18 14.18 0 0 1-1.73-1.55 12.8 12.8 0 0 1-1.7 1.55 9.23 9.23 0 0 1-4.8 1.98c.08 6.23 1.76 10.3 3.4 12.8a13.73 13.73 0 0 0 3.07 3.3ZM12 27.22V40h21v1H11V27.16l.5.04-.5-.04v-.01a2.18 2.18 0 0 1 .02-.15 3.57 3.57 0 0 1 .58-1.48c.55-.83 1.58-1.62 3.4-1.62h12v1H15c-1.48 0-2.2.61-2.57 1.18a2.81 2.81 0 0 0-.43 1.14Z"/></svg>