<svg width="24" height="24" fill="none" xmlns="http://www.w3.org/2000/svg"><path fill="currentColor" d="M10.5 3A2.5 2.5 0 0 0 8 5.5v3a2.5 2.5 0 0 0 2.5 2.5h3A2.5 2.5 0 0 0 16 8.5v-3A2.5 2.5 0 0 0 13.5 3h-3Zm3 10H6.42a1.8 1.8 0 0 0-1.01.52c-.27.29-.41.66-.41 1.08V22h11l-.25-.36c-1.17-1.77-2.25-4.5-2.25-8.54V13Zm5.04 10.2.15.1.24.13.1.06a82.16 82.16 0 0 1 .18-.13l.08-.05a2.06 2.06 0 0 0 .2-.15 10.01 10.01 0 0 0 1.89-2.23 14.53 14.53 0 0 0 2.02-7.83v-.5h-.5c-.89 0-1.73-.45-2.38-.95a7.1 7.1 0 0 1-1.02-.95v-.01h-.01l-.38-.47-.39.45-.01.02a4.5 4.5 0 0 1-.27.28c-.2.18-.47.43-.82.67-.7.5-1.62.96-2.62.96h-.5v.5c0 3.84 1.03 6.4 2.08 7.99a8.68 8.68 0 0 0 1.96 2.1Z"/></svg>