<svg width="16" height="16" fill="none" xmlns="http://www.w3.org/2000/svg"><path fill="currentColor" d="M5.5 2C4.68 2 4 2.68 4 3.5v2C4 6.32 4.68 7 5.5 7H6v1h-.5A2.5 2.5 0 0 1 3 5.5v-2A2.5 2.5 0 0 1 5.5 1h2c1.16 0 2.14.8 2.42 1.87l-.97.26A1.5 1.5 0 0 0 7.5 2h-2Zm5.72 1.17.4-.45.37.46.01.02a4.38 4.38 0 0 0 .26.28c.18.18.44.43.76.67.65.5 1.5.95 2.38.95h.5v.5c0 3.65-1 6.19-2.03 7.83a10.02 10.02 0 0 1-2.07 2.37h-.01v.01l-.29-.41-.25.43h-.02a2.35 2.35 0 0 1-.2-.14 8.68 8.68 0 0 1-1.96-2.1C8.03 11.99 7 9.44 7 5.6v-.5h.5c1 0 1.92-.46 2.62-.96a7.27 7.27 0 0 0 1.09-.95v-.01h.01Zm.28 12.23-.25.43.27.16.26-.18-.28-.41Zm-.02-.63a9.01 9.01 0 0 0 1.55-1.88 13.32 13.32 0 0 0 1.86-6.82 5.4 5.4 0 0 1-2.48-1.12 8.08 8.08 0 0 1-.82-.72c-.22.2-.52.46-.89.73-.67.48-1.61.98-2.7 1.11.08 3.39 1.01 5.6 1.92 6.97a7.68 7.68 0 0 0 1.56 1.73ZM2.5 10c-.83 0-1.5.67-1.5 1.5V15h7.5v1H0v-4.5A2.5 2.5 0 0 1 2.5 9H6v1H2.5Z"/></svg>