<svg width="24" height="24" fill="none" xmlns="http://www.w3.org/2000/svg"><path fill="currentColor" d="M3.3 0H5v3.3l.7.7h2.6l.7-.7V0h1.7L13 2.3v4.4L9.85 9.86l-.7-.7L12 6.29V2.71L10.3 1H10v2.7L8.7 5H5.3L4 3.7V1h-.3L2 2.7v3.6l3 3V21c0 .47.2.98.53 1.38.34.4.76.62 1.17.62h.6c.38 0 .78-.22 1.12-.6l.75.65c-.45.53-1.1.95-1.87.95h-.6c-.79 0-1.47-.42-1.93-.98A3.22 3.22 0 0 1 4 21V9.7l-3-3V2.3L3.3 0Zm12.2 10C11.9 10 9 12.9 9 16.5s2.9 6.5 6.5 6.5 6.5-2.9 6.5-6.5-2.9-6.5-6.5-6.5ZM8 16.5C8 12.34 11.34 9 15.5 9s7.5 3.34 7.5 7.5-3.34 7.5-7.5 7.5A7.48 7.48 0 0 1 8 16.5Zm8-4.5v4h2v1h-3v-5h1Z"/></svg>