<svg width="24" height="24" fill="none" xmlns="http://www.w3.org/2000/svg"><path fill="currentColor" d="M10.5 4C9.68 4 9 4.68 9 5.5v3c0 .82.68 1.5 1.5 1.5h3c.83 0 1.5-.68 1.5-1.5v-3c0-.82-.67-1.5-1.5-1.5h-3ZM8 5.5A2.5 2.5 0 0 1 10.5 3h3A2.5 2.5 0 0 1 16 5.5v3a2.5 2.5 0 0 1-2.5 2.5h-3A2.5 2.5 0 0 1 8 8.5v-3Zm10.72 5.17.4-.45.37.46.01.02a2.89 2.89 0 0 0 .26.28c.18.18.44.43.76.67.65.5 1.5.95 2.38.95h.5v.5c0 3.65-1 6.19-2.02 7.83a10.01 10.01 0 0 1-2.03 2.34l-.04.03h-.02v.01L19 22.9l-.25.43h-.02a2.35 2.35 0 0 1-.19-.14 8.68 8.68 0 0 1-1.96-2.1c-1.05-1.6-2.08-4.15-2.08-7.99v-.5h.5c1 0 1.93-.46 2.62-.96a7.27 7.27 0 0 0 1.09-.95l.01-.01ZM19 22.9l-.25.43.28.16.26-.18-.29-.41Zm-.02-.63a9.02 9.02 0 0 0 1.55-1.88 13.32 13.32 0 0 0 1.87-6.82 5.4 5.4 0 0 1-2.49-1.12 8.1 8.1 0 0 1-.82-.72c-.21.2-.52.46-.89.73a5.9 5.9 0 0 1-2.7 1.11c.09 3.39 1.02 5.6 1.92 6.97a7.68 7.68 0 0 0 1.56 1.73ZM5 15.01a1.93 1.93 0 0 1 0-.28c.02-.17.06-.4.14-.65.1-.25.25-.52.51-.73.27-.22.62-.35 1.05-.35H12v1H6.7a.65.65 0 0 0-.42.12.67.67 0 0 0-.2.3 1.47 1.47 0 0 0-.08.54V21h9v1H5v-6.99Z"/></svg>