<svg width="24" height="24" fill="none" xmlns="http://www.w3.org/2000/svg"><path fill="currentColor" d="m16.42 2.05 1.9 4.41 5.32-.59-2.75 3.44-.78-.62 1.25-1.56-3.67.4-1.11-2.58-1.09 3.51-3.53.38L15 10.72v2.35l1.11-1.38.78.62L14 15.93v-4.65L8.96 8.16l5.77-.62 1.7-5.49ZM4.26 4h7.48l1.4 1.8-.79.6-1.1-1.4h-6.5L2 8.53V9h2.5v1H2v2.75c0 .14.11.25.25.25H4c.14 0 .25-.11.25-.25V12h7.5v.75c0 .14.11.25.25.25h.5v1H12c-.6 0-1.1-.43-1.22-1H5.23c-.12.57-.63 1-1.23 1H2.25C1.56 14 1 13.44 1 12.75V8.19L4.26 4ZM19.5 9.06 22.15 19h-5.3l2.65-9.94ZM18.15 18h2.7l-1.35-5.06L18.15 18Z"/></svg>