<svg width="16" height="16" fill="none" xmlns="http://www.w3.org/2000/svg"><path fill="currentColor" d="M1 8.5a7.5 7.5 0 1 1 15 0 7.5 7.5 0 0 1-15 0Zm1.02-.45L2 8.5c0 1.78.71 3.39 1.87 4.56L5.93 11a3.59 3.59 0 0 1-.43-1.8v-.02c0-.34 0-.74.05-1.13H2.02Zm.14-1h3.67c.14-.27.33-.5.61-.7.24-.15.6-.23.92-.27a8.1 8.1 0 0 1 2.28 0c.32.04.68.12.92.28.28.18.47.42.6.69h3.68a6.5 6.5 0 0 0-12.68 0Zm12.82 1h-3.53c.05.39.05.8.05 1.13v.03a3.6 3.6 0 0 1-.43 1.79l2.06 2.06a6.48 6.48 0 0 0 1.85-5.01Zm-2.6 5.67-1.96-1.96a3 3 0 0 1-1.92.63 3 3 0 0 1-1.92-.63l-1.96 1.96a6.47 6.47 0 0 0 7.76 0ZM7.5 7.06c-.32.05-.48.1-.52.14-.2.13-.33.36-.41.73-.08.38-.08.82-.08 1.28 0 .7.2 1.25.53 1.6.32.35.8.58 1.47.58a1.9 1.9 0 0 0 1.47-.58c.33-.35.53-.9.53-1.6 0-.46 0-.9-.08-1.28-.08-.37-.21-.6-.4-.73a1.76 1.76 0 0 0-.53-.14 7.1 7.1 0 0 0-1.98 0Z"/></svg>