<svg width="48" height="48" fill="none" xmlns="http://www.w3.org/2000/svg"><path fill="currentColor" d="M9.78 8.02 8.51 10c-.3.5-.7 1.16-1.16 2.01h17.3a45.13 45.13 0 0 0-2.43-3.98 77.8 77.8 0 0 0-12.44 0ZM25.3 13H6.71L5 14.7v.3h4v1H5v6.5c0 .28.22.5.5.5h2a.5.5 0 0 0 .5-.5v-1.55L24 21v1.5c0 .28.22.5.5.5h2a.5.5 0 0 0 .43-.25l.87.5a1.5 1.5 0 0 1-1.3.75h-2a1.5 1.5 0 0 1-1.5-1.5V22l-14-.04v.54c0 .83-.67 1.5-1.5 1.5h-2A1.5 1.5 0 0 1 4 22.5v-8.2l2.1-2.1a54.77 54.77 0 0 1 2.98-4.93l.14-.2.24-.02a79.8 79.8 0 0 1 13.08 0l.24.02.14.2a54.7 54.7 0 0 1 2.99 4.93L28 14.3V16h-5v-1h4v-.3L25.3 13Zm7.64-2.98 2.52 6.03 7.18-.82-3.57 4.58-.79-.62 2.1-2.7-5.56.64-1.73-4.15-1.65 5.53-5.5.6 4.75 3.02v3.91l1.93-2.48.8.61-3.73 4.79v-6.28L23 18.43l7.66-.85 2.27-7.56ZM11.3 15h9.42l1.36 1.36-.1.3c-.31 1-.6 1.78-.88 2.31-.13.27-.27.5-.41.67-.13.15-.36.36-.68.36h-8a.9.9 0 0 1-.68-.36c-.14-.17-.28-.4-.41-.67-.27-.53-.57-1.31-.89-2.32l-.09-.29L11.3 15Zm.42 1-.64.64c.28.84.52 1.47.73 1.89.12.23.21.38.28.46l.01.01h7.82l.01-.01c.07-.08.16-.23.28-.46.21-.42.45-1.05.73-1.9L20.3 16h-8.58Zm25.79 5.12L42.16 38h-9.32l4.66-16.88ZM34.16 37h6.68L37.5 24.88 34.16 37Zm8.82 3H32v-1h10.98v1Z"/></svg>