<svg width="48" height="48" fill="none" xmlns="http://www.w3.org/2000/svg"><path fill="currentColor" d="M25.29 9.22a1.5 1.5 0 0 0-1.58 0L5.95 20.15l17.76 10.93c.49.3 1.1.3 1.58 0l17.76-10.93L25.29 9.22Zm-2.1-.85c.8-.5 1.82-.5 2.62 0l19.14 11.78-19.14 11.78c-.8.5-1.82.5-2.62 0L4.05 20.15 23.19 8.37Zm0 27.56L4.74 24.57l.52-.85 18.45 11.36c.49.3 1.1.3 1.58 0l18.45-11.36.52.85-18.45 11.36c-.8.5-1.82.5-2.62 0Zm0 4L4.74 28.57l.52-.85 18.45 11.36c.49.3 1.1.3 1.58 0l18.45-11.36.52.85-18.45 11.36c-.8.5-1.82.5-2.62 0Z"/></svg>