<svg width="48" height="48" fill="none" xmlns="http://www.w3.org/2000/svg"><path fill="currentColor" d="M16 8.5a8.5 8.5 0 0 1 17 0V13h-1V8.5a7.5 7.5 0 1 0-15 0v18c0 .6.07 1.18.2 1.73l-.97.24A8.52 8.52 0 0 1 16 26.5v-18Zm29.85-5.65-42 42-.7-.7 42-42 .7.7ZM32 26.5V18h1v8.5a8.5 8.5 0 0 1-14.67 5.84l.72-.68A7.5 7.5 0 0 0 32 26.5ZM13 22v4.5c0 1.71.37 3.33 1.04 4.8l-.9.4A12.46 12.46 0 0 1 12 26.5V22h1Zm23 4.5V22h1v4.5a12.5 12.5 0 0 1-12 12.49V47h7.5v1h-16v-1H24v-8.01c-3.26-.13-6.2-1.5-8.35-3.67l.7-.7A11.5 11.5 0 0 0 36 26.5Z"/></svg>