<svg width="24" height="24" fill="none" xmlns="http://www.w3.org/2000/svg"><path fill="currentColor" d="M9.98 16.45A4 4 0 0 0 16 13v-2.6l-6.02 6.05ZM16 5.43V4a4 4 0 0 0-8 0v9c0 .15 0 .3.03.45L16 5.43Z"/><path fill="currentColor" d="M23.4 1.53 1.9 23.15.85 22.1 22.34.47l1.07 1.06ZM6.26 11v1.86c0 .72.13 1.4.37 2.04l-1.4.53c-.3-.8-.47-1.67-.47-2.57V11h1.5Zm11.5 1.86V11h1.5v1.86a7.25 7.25 0 0 1-6.5 7.2v2.44H16V24H8v-1.5h3.25v-2.43a7.21 7.21 0 0 1-3.31-1.2l.84-1.25a5.75 5.75 0 0 0 8.97-4.76Z"/></svg>