<svg width="16" height="16" fill="none" xmlns="http://www.w3.org/2000/svg"><path fill="currentColor" d="M0 0h16v1H0V0Zm0 4V3h16v1h-2v2h-1V4H0Zm3.4 2H1V5h4l-2.95 5.92-.9-.44L3.4 6ZM6 5h3.5v1H7v1c.3 0 .7.04 1.1.12.41.1.87.25 1.24.53.39.3.66.75.66 1.35 0 .66-.28 1.16-.7 1.5-.4.32-.9.5-1.35.59a6.37 6.37 0 0 1-1.75.11h-.04a39.83 39.83 0 0 1 .09-1h.02a3.63 3.63 0 0 0 .44.02c.3 0 .67-.03 1.04-.1.37-.09.7-.22.92-.4.2-.16.33-.38.33-.72 0-.25-.1-.42-.28-.56a2.2 2.2 0 0 0-.83-.34A5.24 5.24 0 0 0 6.56 8h-.02L6 8.03V5Zm7.18 3.9c-.48 0-.96.17-1.37.49l-.62-.78c.59-.47 1.3-.71 2.01-.71h.05c.7.07 1.23.41 1.52.92.28.5.28 1.12-.04 1.64a6.1 6.1 0 0 1-1.5 1.54H16v1H0v-1h11.38a9.04 9.04 0 0 0 .94-.57c.58-.4 1.21-.93 1.55-1.5.13-.2.13-.43.02-.62-.1-.18-.32-.37-.71-.41ZM16 16H0v-1h16v1Z"/></svg>