<svg width="48" height="48" fill="none" xmlns="http://www.w3.org/2000/svg"><path fill="currentColor" d="M10.5 13c-.83 0-1.5.67-1.5 1.5v.5h29.97v-.5c0-.83-.67-1.5-1.5-1.5H10.5Zm28.47 3H9v13.73c4.78-.49 9.61-.74 14.5-.74 5.04 0 10.2.27 15.47.79V16Zm1 13.88c1.71.18 3.44.39 5.17.62l-.13 1c-7.4-1-14.56-1.5-21.51-1.5-6.95 0-13.78.5-20.5 1.5l-.15-1c1.71-.25 3.43-.47 5.15-.66v-1.98l-5.01.64-.13-1c2.19-.3 3.9-.52 5.14-.66V14.5a2.5 2.5 0 0 1 2.5-2.5h26.97a2.5 2.5 0 0 1 2.5 2.5v12.38a285 285 0 0 1 5.17.62l-.13 1c-2.15-.28-3.83-.48-5.04-.61v2ZM26 27h-4v-1h4v1Z"/></svg>