<svg width="24" height="24" fill="none" xmlns="http://www.w3.org/2000/svg"><path fill="currentColor" d="M13 0H3v15h6.34A3.48 3.48 0 0 1 9 13.5v-3A3.5 3.5 0 0 1 12.5 7h.5V0ZM3 16h5.38l-.13.02a2.8 2.8 0 0 0-1.57.82c-.45.48-.68 1.1-.68 1.76V22H4.5c-.74 0-1.5-.6-1.5-1.5V16Z"/><path fill="currentColor" d="M10 10.5A2.5 2.5 0 0 1 12.5 8h3a2.5 2.5 0 0 1 2.5 2.5v3a2.5 2.5 0 0 1-2.5 2.5h-3a2.5 2.5 0 0 1-2.5-2.5v-3Zm9.6 6.5c.94 0 1.5.79 1.5 1.6V24H7v-5.4c0-.42.14-.8.4-1.08.27-.28.63-.45 1.02-.51l.04-.01H19.6Z"/></svg>