<svg width="24" height="24" fill="none" xmlns="http://www.w3.org/2000/svg"><path fill="currentColor" d="M3 0h10v6.9h-1V1H4v14h5v1H4v4.5c0 .3.24.5.5.5H6v1H4.5c-.74 0-1.5-.6-1.5-1.5V0Zm9.5 9c-.82 0-1.5.68-1.5 1.5v3c0 .82.68 1.5 1.5 1.5h3c.82 0 1.5-.68 1.5-1.5v-3c0-.82-.68-1.5-1.5-1.5h-3ZM10 10.5A2.5 2.5 0 0 1 12.5 8h3a2.5 2.5 0 0 1 2.5 2.5v3a2.5 2.5 0 0 1-2.5 2.5h-3a2.5 2.5 0 0 1-2.5-2.5v-3ZM8.46 17H19.6c.94 0 1.5.79 1.5 1.6V24H7.5v-.5.5H7v-5.4c0-.42.14-.8.4-1.08.27-.28.63-.45 1.02-.51l.04-.01ZM8 23h12.1v-4.4c0-.39-.24-.6-.5-.6H8.55a.74.74 0 0 0-.4.2.55.55 0 0 0-.15.4V23Z"/></svg>