<svg width="48" height="48" fill="none" xmlns="http://www.w3.org/2000/svg"><path fill="currentColor" d="M7 2h17v10.9h-1V3H8v24h11v1H8v9.5c0 .82.68 1.5 1.5 1.5h3.4v1H9.5A2.5 2.5 0 0 1 7 37.5V2Zm17.5 14a2.45 2.45 0 0 0-2.5 2.5v6c0 1.42 1.08 2.5 2.5 2.5h6c1.42 0 2.5-1.08 2.5-2.5v-6c0-1.42-1.08-2.5-2.5-2.5h-6ZM21 18.5c0-1.98 1.52-3.5 3.5-3.5h6c1.98 0 3.5 1.52 3.5 3.5v6c0 1.98-1.52 3.5-3.5 3.5h-6a3.45 3.45 0 0 1-3.5-3.5v-6ZM18.5 31a2.45 2.45 0 0 0-2.5 2.5V45h23V33.5c0-1.42-1.08-2.5-2.5-2.5h-18ZM15 33.5c0-1.98 1.52-3.5 3.5-3.5h18c1.98 0 3.5 1.52 3.5 3.5V46H15V33.5Z"/></svg>