<svg width="24" height="24" fill="none" xmlns="http://www.w3.org/2000/svg"><path fill="currentColor" d="M10.5 4C9.68 4 9 4.68 9 5.5v3c0 .82.68 1.5 1.5 1.5h3c.83 0 1.5-.68 1.5-1.5v-3c0-.82-.67-1.5-1.5-1.5h-3ZM8 5.5A2.5 2.5 0 0 1 10.5 3h3A2.5 2.5 0 0 1 16 5.5v3a2.5 2.5 0 0 1-2.5 2.5h-3A2.5 2.5 0 0 1 8 8.5v-3Zm11 6a3.51 3.51 0 0 0-3.5 3.5c0 .44.21 1.13.58 1.98.37.83.86 1.74 1.35 2.6A52.92 52.92 0 0 0 19 22.1a58.35 58.35 0 0 0 1.57-2.53c.5-.85.98-1.76 1.35-2.6.37-.84.58-1.53.58-1.97 0-1.92-1.57-3.5-3.5-3.5ZM19 23l-.41.28-.01-.01-.04-.05a33.74 33.74 0 0 1-.58-.89 33.03 33.03 0 0 1-2.8-4.95A6.57 6.57 0 0 1 14.5 15a4.5 4.5 0 0 1 9 0c0 .66-.29 1.52-.67 2.38-.38.88-.9 1.83-1.4 2.7a54.06 54.06 0 0 1-1.97 3.14l-.03.05h-.01v.01L19 23Zm0 0 .41.28-.4.6-.42-.6L19 23ZM5 15.01a1.93 1.93 0 0 1 0-.28c.02-.17.06-.4.14-.65.1-.25.25-.52.51-.73.27-.22.62-.35 1.05-.35H12v1H6.7a.65.65 0 0 0-.42.12.67.67 0 0 0-.2.3 1.47 1.47 0 0 0-.08.54V21h9v1H5v-6.99Z"/></svg>