<svg width="24" height="24" fill="none" xmlns="http://www.w3.org/2000/svg"><path fill="currentColor" d="M8 5.5A2.5 2.5 0 0 1 10.5 3h3A2.5 2.5 0 0 1 16 5.5v3a2.5 2.5 0 0 1-2.5 2.5h-3A2.5 2.5 0 0 1 8 8.5v-3ZM6.46 13h7.42c-.24.62-.38 1.3-.38 2 0 .9.37 1.92.75 2.78.41.93.94 1.91 1.45 2.8l.86 1.42H5v-7.4c0-.42.14-.8.4-1.08.27-.28.63-.45 1.02-.51l.04-.01Z"/><path fill="currentColor" d="m18.54 23.22.04.05.42.61.41-.6.02-.01.03-.05a33.74 33.74 0 0 0 .59-.89c.37-.58.88-1.38 1.38-2.25a28.3 28.3 0 0 0 1.4-2.7c.38-.86.67-1.72.67-2.38a4.5 4.5 0 0 0-4.5-4.5 4.51 4.51 0 0 0-4.5 4.5c0 .66.3 1.52.67 2.38.38.88.9 1.83 1.4 2.7a53.94 53.94 0 0 0 1.97 3.14Z"/></svg>