<svg width="48" height="48" fill="none" xmlns="http://www.w3.org/2000/svg"><path fill="currentColor" d="M20.5 8a2.58 2.58 0 0 0-2.5 2.5v7c0 1.32 1.18 2.5 2.5 2.5h7c1.32 0 2.5-1.18 2.5-2.5v-7C30 9.18 28.82 8 27.5 8h-7ZM17 10.5C17 8.62 18.62 7 20.5 7h7c1.88 0 3.5 1.62 3.5 3.5v7c0 1.88-1.62 3.5-3.5 3.5h-7a3.58 3.58 0 0 1-3.5-3.5v-7Zm14 16c0-4.19 3.33-7.4 7.5-7.4s7.5 3.21 7.5 7.4c0 1.09-.48 2.53-1.14 4.03a48.51 48.51 0 0 1-2.43 4.68A92.28 92.28 0 0 1 39 40.67l-.06.08-.01.03-.42-.28-.41.28-.02-.03-.06-.08A66.14 66.14 0 0 1 37 39.13a92.28 92.28 0 0 1-2.42-3.92 48.51 48.51 0 0 1-2.43-4.68C31.48 29.03 31 27.6 31 26.5Zm7.5 14-.41.28.41.6.41-.6-.41-.28Zm0-.89a92.17 92.17 0 0 0 3.07-4.9c.87-1.5 1.73-3.1 2.38-4.58A10.42 10.42 0 0 0 45 26.5c0-3.61-2.87-6.4-6.5-6.4a6.37 6.37 0 0 0-6.5 6.4c0 .86.4 2.14 1.05 3.63a47.54 47.54 0 0 0 2.38 4.58 91.31 91.31 0 0 0 3.07 4.9Zm0-15.61a2.26 2.26 0 0 0-2.3 2.37v.06A2.39 2.39 0 0 0 38.6 29h.08a2.58 2.58 0 0 0 2.42-2.58A2.58 2.58 0 0 0 38.5 24Zm-3.3 2.4a3.26 3.26 0 0 1 3.3-3.4 3.58 3.58 0 0 1 3.6 3.37v.03a3.58 3.58 0 0 1-3.37 3.6h-.13a3.39 3.39 0 0 1-3.4-3.6Zm-23.2.82V40h21v1H11V27.16l.5.04-.5-.04v-.01a2.18 2.18 0 0 1 .02-.15 3.57 3.57 0 0 1 .58-1.48c.55-.83 1.58-1.62 3.4-1.62h12v1H15c-1.48 0-2.2.61-2.57 1.18a2.81 2.81 0 0 0-.43 1.14Z"/></svg>