<svg width="16" height="16" fill="none" xmlns="http://www.w3.org/2000/svg"><path fill="currentColor" d="M5.5 2C4.68 2 4 2.68 4 3.5v2C4 6.32 4.68 7 5.5 7H6v1h-.5A2.5 2.5 0 0 1 3 5.5v-2A2.5 2.5 0 0 1 5.5 1h2c.45 0 .88.12 1.25.34l-.5.86c-.22-.13-.48-.2-.75-.2h-2Zm6 1.5A3.51 3.51 0 0 0 8 7c0 .44.2 1.13.58 1.98.37.83.86 1.74 1.35 2.6a52.85 52.85 0 0 0 1.57 2.52 52.85 52.85 0 0 0 1.57-2.53c.5-.85.98-1.76 1.35-2.6.37-.84.58-1.53.58-1.97 0-1.92-1.58-3.5-3.5-3.5Zm0 11.5-.41.28-.01-.01-.04-.05a40.26 40.26 0 0 1-.58-.89 33.03 33.03 0 0 1-2.8-4.95A6.57 6.57 0 0 1 7 7a4.5 4.5 0 0 1 9 0c0 .66-.3 1.52-.67 2.38-.38.88-.9 1.83-1.4 2.7a54.16 54.16 0 0 1-1.97 3.14l-.04.05v.01L11.5 15Zm0 0 .41.28-.41.6-.41-.6.41-.28Zm-9-5c-.83 0-1.5.67-1.5 1.5V15h8.44v1H0v-4.5A2.5 2.5 0 0 1 2.5 9H6v1H2.5Z"/></svg>