<svg width="48" height="48" fill="none" xmlns="http://www.w3.org/2000/svg"><path fill="currentColor" d="M23 30h3v1h-3v-1Zm-1 2h5v1h-5v-1Zm-1-7s3 0 3 3h-3s-3 0-3-3h3Zm7 0h3c0 3-3 3-3 3h-3c0-3 3-3 3-3Z"/><path fill="currentColor" d="m32.39 14.49.3.4a9.08 9.08 0 0 1 2.27-.39H35v.5-.5h.5v12.55l-.01.06L35 27l.49.11-.01.03a5.38 5.38 0 0 1-.1.39 15 15 0 0 1-2.03 4.26 10.4 10.4 0 0 1-8.85 4.71 10.4 10.4 0 0 1-8.85-4.71 15 15 0 0 1-2.13-4.65v-.03L14 27l-.49.1-.01-.05V14.48l.52.02-.02.5.02-.5h.04a5.08 5.08 0 0 1 .49.05 10.05 10.05 0 0 1 1.73.38l.33-.44c.36-.45.88-1.03 1.58-1.62a9.7 9.7 0 0 1 6.31-2.37 9.7 9.7 0 0 1 6.3 2.37c.7.59 1.23 1.17 1.59 1.62Zm-13.4 1.85a8.32 8.32 0 0 1 1.21-.78 9.1 9.1 0 0 1 4.3-1.06 9.1 9.1 0 0 1 5.44 1.8l.05.03a7 7 0 0 1 1.72-1.08 10.46 10.46 0 0 0-1.54-1.62 8.7 8.7 0 0 0-5.67-2.13 8.7 8.7 0 0 0-5.67 2.13 10.49 10.49 0 0 0-1.58 1.67c.58.25 1.18.6 1.75 1.04Zm14.38-.6c-.95.23-2.1.7-3.02 1.61l-.35.36-.35-.36h-.02a2.48 2.48 0 0 0-.3-.27 8.1 8.1 0 0 0-4.83-1.58 8.1 8.1 0 0 0-5.07 1.79l-.06.05-.02.01-.33.34-.36-.32a7.45 7.45 0 0 0-3.08-1.6 9.1 9.1 0 0 0-1.08-.22v11.43a8.3 8.3 0 0 0 .41 1.25c.31.82.81 1.9 1.56 2.98a9.4 9.4 0 0 0 8.03 4.29 9.4 9.4 0 0 0 8.03-4.29 14.01 14.01 0 0 0 1.96-4.23l.01-.04v-11.4c-.29.02-.68.08-1.13.2ZM10 22c0-2.6 3-4 3-4v7.9s-3-1.3-3-3.9Zm29 0c0 2.6-3 3.9-3 3.9V18s3 1.4 3 4Z"/></svg>