<svg width="48" height="48" fill="none" xmlns="http://www.w3.org/2000/svg"><path fill="currentColor" d="M23 30v1h3v-1h-3Zm-1 2v1h5v-1h-5Zm-1-7h-3c0 3 3 3 3 3h3c0-3-3-3-3-3Zm7 0h3c0 3-3 3-3 3h-3c0-3 3-3 3-3Z"/><path fill="currentColor" fill-rule="evenodd" d="m32.39 14.49.3.4a9.08 9.08 0 0 1 2.27-.39H35v.5-.5h.5v12.55l-.01.06L35 27l.49.11-.01.03a5.38 5.38 0 0 1-.1.39 15 15 0 0 1-2.03 4.26 10.4 10.4 0 0 1-8.85 4.71 10.4 10.4 0 0 1-8.85-4.71 15 15 0 0 1-2.13-4.65v-.03L14 27l-.49.1-.01-.05V14.48l.52.02-.02.5.02-.5h.04a5.08 5.08 0 0 1 .49.05 10.05 10.05 0 0 1 1.73.38l.33-.44c.36-.45.88-1.03 1.58-1.62a9.7 9.7 0 0 1 6.31-2.37 9.7 9.7 0 0 1 6.3 2.37c.7.59 1.23 1.17 1.59 1.62Zm-13.4 1.85a7.96 7.96 0 0 0-1.74-1.04 9.3 9.3 0 0 1 1.58-1.67 8.7 8.7 0 0 1 5.67-2.13 8.7 8.7 0 0 1 5.67 2.13 10.49 10.49 0 0 1 1.54 1.62A7 7 0 0 0 30 16.33l-.05-.04a9.1 9.1 0 0 0-5.44-1.8 9.1 9.1 0 0 0-5.5 1.85Zm14.38-.6c.45-.12.84-.18 1.13-.2v11.44a8.3 8.3 0 0 1-.41 1.25c-.31.82-.81 1.9-1.56 2.98a9.4 9.4 0 0 1-8.03 4.29 9.4 9.4 0 0 1-8.03-4.29 14.01 14.01 0 0 1-1.96-4.23l-.01-.04V15.55c.28.04.66.1 1.08.22.95.25 2.11.72 3.08 1.6l.36.32.33-.34h.02a2.48 2.48 0 0 1 .3-.27 8.1 8.1 0 0 1 4.83-1.58 8.1 8.1 0 0 1 5.07 1.79l.06.05.02.01.35.36.35-.36a6.47 6.47 0 0 1 3.02-1.61Z" clip-rule="evenodd"/><path fill="currentColor" d="M10 22c0-2.6 3-4 3-4v7.9s-3-1.3-3-3.9Zm29 0c0-2.6-3-4-3-4v7.9s3-1.3 3-3.9Z"/></svg>