<svg width="24" height="24" fill="none" xmlns="http://www.w3.org/2000/svg"><path fill="currentColor" d="M9 12H7c0 1.9 2 2 2 2h2c0-1.9-2-2-2-2Zm2 4v-1h1v1h-1Zm-1 2v-1h3v1h-3Zm6-6h-2s-2 .1-2 2h2s2-.1 2-2Z"/><path fill="currentColor" fill-rule="evenodd" d="m16.9 5.52.25.29a5.08 5.08 0 0 1 1.02-.28A4.56 4.56 0 0 1 19 5.5v2.4s1.9.9 1.9 2.6c0 1.7-1.9 2.6-1.9 2.6v.96l-.09.32a9.03 9.03 0 0 1-1.37 2.67A7.25 7.25 0 0 1 11.5 20a7.25 7.25 0 0 1-6.04-2.95 9.03 9.03 0 0 1-1.46-3v-.95c-.06-.03-1.9-.93-1.9-2.6S3.94 7.93 4 7.9V5.5h.15a4.42 4.42 0 0 1 1.99.43l.02-.03.25-.34c.22-.29.55-.66 1-1.04A6.24 6.24 0 0 1 11.5 3c1.84 0 3.3.76 4.28 1.5.49.37.87.74 1.12 1.02ZM7.53 6.84a5.6 5.6 0 0 0-.52-.4 5.96 5.96 0 0 1 1.04-1.15A5.24 5.24 0 0 1 11.5 4c1.56 0 2.8.64 3.67 1.3a7.5 7.5 0 0 1 1.06.97c-.25.16-.5.35-.76.57-.21-.15-.5-.34-.87-.53a6.7 6.7 0 0 0-3.1-.81 6.7 6.7 0 0 0-3.97 1.34Zm10.2-.18.27-.08v7.36a4.6 4.6 0 0 1-.25.73c-.2.49-.53 1.13-1.01 1.78A6.25 6.25 0 0 1 11.5 19a6.25 6.25 0 0 1-5.24-2.55A8.03 8.03 0 0 1 5 13.94V6.58l.28.08c.5.17 1.18.5 1.87 1.2l.33.33.35-.31.01-.01a2.67 2.67 0 0 1 .25-.2 5.71 5.71 0 0 1 3.4-1.17 5.71 5.71 0 0 1 3.42 1.17 4.79 4.79 0 0 1 .25.2l.36.32.33-.34a4.8 4.8 0 0 1 1.87-1.19Z" clip-rule="evenodd"/></svg>