<svg width="48" height="48" fill="none" xmlns="http://www.w3.org/2000/svg"><path fill="currentColor" d="M12.5 6a2.5 2.5 0 1 0 0 5 2.5 2.5 0 0 0 0-5ZM9 8.5a3.5 3.5 0 1 1 5.98 2.47l5.43 7.24a7.47 7.47 0 0 1 9.45 1.04l5.68-4.88a3.5 3.5 0 1 1 .65.76l-5.68 4.88a7.47 7.47 0 0 1 1.37 5.82l5.38 1.34a3.5 3.5 0 1 1-.24.97l-5.38-1.34a7.5 7.5 0 0 1-12.08 3.35L11.3 38.4a3.5 3.5 0 1 1-.7-.7l8.25-8.26a7.47 7.47 0 0 1 .76-10.63l-5.43-7.24A3.5 3.5 0 0 1 9 8.5ZM38.5 10a2.5 2.5 0 1 0 0 5 2.5 2.5 0 0 0 0-5Zm-14 8a6.47 6.47 0 0 0-6.5 6.5 6.48 6.48 0 0 0 6.5 6.5 6.5 6.5 0 0 0 0-13Zm16 8a2.5 2.5 0 1 0 0 5 2.5 2.5 0 0 0 0-5Zm-32 12a2.5 2.5 0 1 0 0 5 2.5 2.5 0 0 0 0-5Z"/></svg>