<svg width="16" height="16" fill="none" xmlns="http://www.w3.org/2000/svg"><path fill="currentColor" d="M2.5 2a.5.5 0 1 0 0 1 .5.5 0 0 0 0-1ZM1 2.5a1.5 1.5 0 1 1 2.85.65l1.7 1.69a3.98 3.98 0 0 1 4.9 0l1.7-1.7A1.5 1.5 0 0 1 13.5 1a1.5 1.5 0 1 1-.65 2.85l-1.69 1.7a3.98 3.98 0 0 1 0 4.9l1.7 1.7a1.5 1.5 0 1 1-.7.7l-1.7-1.69a3.98 3.98 0 0 1-4.91 0l-1.7 1.7a1.5 1.5 0 1 1-.7-.7l1.69-1.7a3.98 3.98 0 0 1 0-4.91l-1.7-1.7A1.5 1.5 0 0 1 1 2.5ZM13.5 2a.5.5 0 1 0 0 1 .5.5 0 0 0 0-1ZM8 5a3 3 0 1 0 0 6 3 3 0 0 0 0-6Zm-5.5 8a.5.5 0 1 0 0 1 .5.5 0 0 0 0-1Zm11 0a.5.5 0 1 0 0 1 .5.5 0 0 0 0-1Z"/></svg>