<svg width="24" height="24" fill="none" xmlns="http://www.w3.org/2000/svg"><path fill="currentColor" d="M17.77 2.14c.07.17.14.36.21.6l.24.72.85-.77-.4-.98c-.18-.43-.36-.76-.61-1.23l-.12-.22-.88.48.12.22c.25.45.41.75.57 1.13l.02.05Zm5.46-.79L1.73 22.98l-.7-.7L22.51.64l.71.7Zm-9.37 2.06-.06-.1.88-.49.06.12c.27.47.44.78.58 1.1.06.14.12.3.17.47l.37 1.06-.9.76-.2-.76a7.7 7.7 0 0 0-.36-1.14c-.12-.26-.26-.52-.54-1.02Zm-5.17 7.33a8.7 8.7 0 0 0-.25-6.24l.92-.4a9.76 9.76 0 0 1 0 7.7l-.27.64-6.15-5.46C2.8 8.4 3 9.9 3.47 11.34l-.94.32a10.85 10.85 0 0 1-.42-5.77l.19-.83 6.39 5.68Zm11.2-4.3.03 1.43c.08 2.83-.6 5.33-1.98 7.87l-.88-.48a14.4 14.4 0 0 0 1.83-5.89l.01-1.62.98-1.3Zm-3.53 3.62L16 11.61a4.65 4.65 0 0 1-1.04 2.04l-.74-.66c.31-.35.54-.76.68-1.18l.15-.56 1.31-1.19ZM19.03 19c-1.05.07-1.88.9-1.94 1.96-.07 1.1.75 1.96 1.94 2.04.45 0 .92-.2 1.3-.53l.65.76c-.53.46-1.23.77-1.97.77h-.03c-1.66-.1-3-1.36-2.9-3.1a3.09 3.09 0 0 1 2.9-2.9H19c.5 0 .99.12 1.43.36l-.48.88a1.9 1.9 0 0 0-.93-.24ZM10 18h4v1h-3v2h3v1h-3v2h-1v-6Zm-3 3.7v-2.9h1V24l-2.83-2.63.68-.74L7 21.7Zm-2.96.42-.02 1.84h-1l-.03-.87 1.05-.97Z"/></svg>