<svg width="24" height="24" fill="none" xmlns="http://www.w3.org/2000/svg"><path fill="currentColor" d="M18.16.15a16.69 16.69 0 0 1 0 15.7l-1.32-.7a15.19 15.19 0 0 0 0-14.3l1.32-.7ZM14.84 2.6a10.32 10.32 0 0 1 .1 10.58l-1.28-.78a8.82 8.82 0 0 0-.1-9.02l1.28-.78Zm-4.28 7.69a8.42 8.42 0 0 0-.35-5.7L11.6 4a10 10 0 0 1 0 7.89l-.4.97L5.15 7.5a10.3 10.3 0 0 0 .56 3.76l-1.42.48a11.1 11.1 0 0 1-.42-5.9l.27-1.25 6.42 5.7Zm-7.81 7.08 4 3.38v-3.01h1.5V24l-4-3.38V24h-1.5v-6.62Zm16.22.07H19c.53 0 1.04.13 1.54.38l-.68 1.34c-.3-.15-.57-.22-.83-.22-.92.08-1.6.78-1.68 1.7-.07 1.01.64 1.73 1.7 1.8h.04l.03.01c.26.04.53-.06 1.01-.45l.94 1.18c-.51.4-1.23.9-2.16.76-1.71-.14-3.19-1.43-3.06-3.4a3.33 3.33 0 0 1 3.1-3.1h.02Zm-9.22.3H14v1.5h-2.75v1.5H14v1.5h-2.75V24h-1.5v-6.25Z"/></svg>