<svg width="24" height="24" fill="none" xmlns="http://www.w3.org/2000/svg"><path fill="currentColor" d="M17.94.27a16.44 16.44 0 0 1 0 15.46l-.88-.46a15.44 15.44 0 0 0 0-14.54l.88-.46Zm-3.31 2.47c1.89 3.15 2 7.15.1 10.32l-.86-.52a9.07 9.07 0 0 0-.1-9.28l.86-.52Zm-3.94 8a8.7 8.7 0 0 0-.25-6.24l.92-.4a9.76 9.76 0 0 1 0 7.7l-.27.64-6.15-5.46C4.8 8.4 5 9.9 5.47 11.34l-.94.32a10.85 10.85 0 0 1-.42-5.77l.19-.83 6.39 5.68Zm8.3 6.96H19c.49 0 .96.12 1.42.35l-.44.9a2.17 2.17 0 0 0-.96-.25 2.08 2.08 0 0 0-1.92 1.94c-.08 1.17.76 1.98 1.94 2.06h.04c.37.07.72-.1 1.2-.5l.63.79c-.5.4-1.15.83-1.97.7-1.61-.12-2.96-1.3-2.84-3.12a3.08 3.08 0 0 1 2.86-2.87h.02ZM8 17.75v5.7l-4-3.37V24H3v-6.08l4 3.38v-3.55h1Zm2 .25h4v1h-3v2h3v1h-3v2h-1v-6Z"/></svg>