<svg width="16" height="16" fill="none" xmlns="http://www.w3.org/2000/svg"><path fill="currentColor" d="m15.35 1.35-14 14-.7-.7 14-14 .7.7Zm-6.24 3.5A12.94 12.94 0 0 0 1 2V1a14 14 0 0 1 8.74 3.06l-.63.78ZM6.28 7.7A8.96 8.96 0 0 0 1 6V5c2.2 0 4.22.7 5.87 1.9l-.59.81ZM14 15c0-3.07-1.06-5.89-2.84-8.11l.78-.63A13.94 13.94 0 0 1 15 15h-1ZM3.44 10.63A4.97 4.97 0 0 0 1 10V9c1.06 0 2.06.28 2.93.76l-.5.87ZM10 15c0-1.97-.63-3.8-1.71-5.28l.8-.59A9.96 9.96 0 0 1 11 15h-1Zm-4 0a5 5 0 0 0-.63-2.44l.87-.49c.48.87.76 1.87.76 2.93H6Z"/></svg>