<svg width="48" height="48" fill="none" xmlns="http://www.w3.org/2000/svg"><path fill="currentColor" d="M15 16a.5.5 0 0 0-.5.5c0 .28.22.5.5.5h5a.5.5 0 0 0 .5-.5.5.5 0 0 0-.5-.5h-5Zm-1.5.5c0-.83.66-1.5 1.5-1.5h5a1.5 1.5 0 1 1 0 3h-2v3h5.67l3.92 2.94 16.45-5.48 3.72 1.86-2.11 2.81-2.17-1.08-9.65 3.86L27.77 35H9V24.73L5.82 22H1v-3.5h6.16l3.5 2.5H17v-3h-2a1.5 1.5 0 0 1-1.5-1.5ZM2 19.5V21h4.18L10 24.27V34h17.23l5.94-8.9 10.35-4.15 1.83.92.89-1.2-2.28-1.13-16.55 5.52L23.33 22H10.34l-3.5-2.5H2Zm43.5 4.1.42.62-.42.28-.42-.28.42-.62Zm0 1.84a16.96 16.96 0 0 0-.8 1.55c-.14.34-.2.59-.2.73 0 .8.52 1.28 1 1.28s1-.49 1-1.28c0-.14-.06-.39-.2-.73a9.83 9.83 0 0 0-.8-1.55Zm0-.94.42-.28v.01l.01.02.02.03.03.05a18.14 18.14 0 0 1 1.25 2.29c.14.36.27.76.27 1.1 0 1.18-.82 2.28-2 2.28-1.18 0-2-1.1-2-2.28 0-.34.13-.74.27-1.1.15-.38.35-.77.54-1.12a19.27 19.27 0 0 1 .76-1.25v-.02h.01l.42.27Z"/></svg>