<svg width="48" height="48" fill="none" xmlns="http://www.w3.org/2000/svg"><path fill="currentColor" d="M30 9a11 11 0 0 0-9.9 6.2l-.2.41-.43-.16a7 7 0 0 0-9.01 9.06l.35.9-.94-.24A5.51 5.51 0 1 0 8.3 36H25v1H8.26a6.5 6.5 0 1 1 1-12.96 8 8 0 0 1 10.14-9.67A12 12 0 0 1 42 20h-1A11 11 0 0 0 30 9Zm7.5 14a8.38 8.38 0 0 0-7.65 4.72 8.94 8.94 0 0 0-.72 2.07l-.97-.2A9.38 9.38 0 0 1 37.5 22c4.21-.01 7.3 3.12 8.5 6.45V23.6h1v6.49h-6.05v-1h4.21C44.14 25.94 41.3 23 37.5 23Zm-9.36 9.08h5.4v1h-4.2c1.02 3.17 3.86 6.1 7.66 6.1a8.4 8.4 0 0 0 8.37-6.78l.97.2a9.94 9.94 0 0 1-.79 2.3A9.38 9.38 0 0 1 37 40.18c-3.6 0-6.37-2.28-7.86-5.02v3.42h-1v-6.5Z"/></svg>