<svg width="24" height="24" fill="none" xmlns="http://www.w3.org/2000/svg"><path fill="currentColor" d="M5.46 2.05a79.8 79.8 0 0 1 13.08 0l.24.02.14.2A52.18 52.18 0 0 1 21.8 7H2.2a52.2 52.2 0 0 1 2.88-4.73l.14-.2.24-.02ZM1.3 8h21.4L24 9.3V11h-6l-1-1H7.3l-1.37 1.36.1.3c.31 1 .6 1.78.87 2.31.14.27.28.5.42.67.13.15.36.36.68.36h5.1a5.8 5.8 0 0 0-.35 2H5v.5c0 .83-.67 1.5-1.5 1.5h-2A1.5 1.5 0 0 1 0 17.5V11h5v-1H0v-.7L1.3 8Z"/><path fill="currentColor" d="m8.1 14-.02-.01a2.34 2.34 0 0 1-.28-.46c-.21-.42-.45-1.05-.73-1.9l.64-.63h8.79l.32.32A6.02 6.02 0 0 0 13.55 14H8.1Zm10.93-.3a3.7 3.7 0 0 0-3.38 2.08l-.18.42-1.41-.5a5.19 5.19 0 0 1 4.97-3.5c1.43 0 2.61.64 3.47 1.54V13H24v4.25h-3.97v-1.5h2.08a3.57 3.57 0 0 0-3.08-2.05Zm-5.28 4.05H18v1.5h-2.08A3.57 3.57 0 0 0 19 21.3a3.7 3.7 0 0 0 3.37-2.08l.18-.42 1.42.5A5.19 5.19 0 0 1 19 22.8a4.8 4.8 0 0 1-3.75-1.86V22h-1.5v-4.25Z"/></svg>