<svg width="24" height="24" fill="none" xmlns="http://www.w3.org/2000/svg"><path fill="currentColor" d="M5.46 2.05a79.8 79.8 0 0 1 13.08 0l.24.02.14.2A54.68 54.68 0 0 1 21.9 7.2L24 9.3V11h-5v-1h4v-.3L21.3 8H2.7L1 9.7v.3h4v1H1v6.5c0 .28.22.5.5.5h2a.5.5 0 0 0 .5-.5V16h8v1H5v.5c0 .83-.67 1.5-1.5 1.5h-2A1.5 1.5 0 0 1 0 17.5V9.3l2.1-2.1a54.74 54.74 0 0 1 2.98-4.93l.14-.2.24-.02ZM3.35 7h17.3a45.13 45.13 0 0 0-2.43-3.98 77.8 77.8 0 0 0-12.44 0L4.51 5c-.3.5-.7 1.16-1.16 2.01Zm3.94 3H17v1H7.7l-.63.64c.28.84.52 1.47.73 1.89a2.35 2.35 0 0 0 .3.47H12v1H8a.9.9 0 0 1-.68-.36c-.14-.17-.28-.4-.41-.67a17.1 17.1 0 0 1-.89-2.32l-.09-.29L7.3 10Zm11.74 3.45c-1.57 0-2.94.85-3.6 2.22l-.2.45-.93-.33a4.94 4.94 0 0 1 4.73-3.34A4.7 4.7 0 0 1 23 14.79V13h1v4h-3.97v-1h2.47c-.56-1.37-1.84-2.55-3.47-2.55ZM14 18h4v1h-2.47c.56 1.37 1.84 2.55 3.47 2.55a3.95 3.95 0 0 0 3.79-2.67l.94.33A4.94 4.94 0 0 1 19 22.55a4.7 4.7 0 0 1-4-2.39V22h-1v-4Z"/></svg>