<svg width="24" height="24" fill="none" xmlns="http://www.w3.org/2000/svg"><path fill="currentColor" d="M18 20.55a4.68 4.68 0 0 1-4-2.38V20h-1v-4h4v1h-2.47c.56 1.34 1.83 2.55 3.47 2.55a3.95 3.95 0 0 0 3.79-2.67l.94.33A4.95 4.95 0 0 1 18 20.55ZM11 18H5.28A4.5 4.5 0 0 1 4 9.25 4.5 4.5 0 0 1 9.43 5.1 6 6 0 0 1 19.99 9h-1a5 5 0 0 0-8.97-3.03l-.21.27-.33-.1A3.5 3.5 0 0 0 4.99 9.5v.51l-.37.1A3.5 3.5 0 0 0 5.31 17h5.68v1H11Zm12.02-3h-4v-1h2.47c-.56-1.34-1.83-2.55-3.47-2.55a3.95 3.95 0 0 0-3.79 2.67l-.94-.33a4.95 4.95 0 0 1 4.73-3.34 4.66 4.66 0 0 1 4 2.38V11h1v4Z"/></svg>