<svg width="24" height="24" fill="none" xmlns="http://www.w3.org/2000/svg"><path fill="currentColor" d="M9.44 5.1A5.99 5.99 0 0 1 20 9v.31a6.5 6.5 0 0 0-8.5 6.19V18H5.28A4.5 4.5 0 0 1 4 9.24 4.5 4.5 0 0 1 9.44 5.1Z"/><path fill="currentColor" d="M18.03 11.7a3.7 3.7 0 0 0-3.38 2.08l-.18.42-1.41-.5a5.19 5.19 0 0 1 4.97-3.5c1.6 0 2.88.79 3.75 1.86V11h1.5v4.25h-4.25v-1.5h2.08a3.57 3.57 0 0 0-3.08-2.05Zm-5.28 4.05H17v1.5h-2.08A3.57 3.57 0 0 0 18 19.3a3.7 3.7 0 0 0 3.37-2.08l.18-.42 1.42.5A5.19 5.19 0 0 1 18 20.8a4.8 4.8 0 0 1-3.75-1.86V20h-1.5v-4.25Z"/></svg>