<svg width="48" height="48" fill="none" xmlns="http://www.w3.org/2000/svg"><path fill="currentColor" d="M12.46 4.5a131.22 131.22 0 0 1 23.08 0l.2.02.14.16a37 37 0 0 1 3.04 4.05 58.78 58.78 0 0 1 2.49 4.47L46 17.8v6.7h-1v-6.3L40.8 14H7.2L3 18.2V32a1 1 0 0 0 1 1h5a1 1 0 0 0 1-1v-2h14v1H11v1a2 2 0 0 1-2 2H4a2 2 0 0 1-2-2V17.8l4.59-4.6a58.8 58.8 0 0 1 2.49-4.47 37 37 0 0 1 3.04-4.05l.13-.16.2-.02ZM7.82 13h32.36a35.39 35.39 0 0 0-4.93-7.52 128.89 128.89 0 0 0-22.5 0A35.38 35.38 0 0 0 7.82 13ZM5 19.05a4.54 4.54 0 0 0 .19 1.29c.1.2.25.4.4.54.18.15.31.2.4.2h2l.06-.01.18-.03.53-.12a29.23 29.23 0 0 0 2.92-.87 5.99 5.99 0 0 0 .66-.3l.05-.03.23-.25a84.21 84.21 0 0 0-3.67-.4A30 30 0 0 0 5 19.05Zm-.54-.97c1.78-.1 3.3-.1 4.57 0 1.24.1 2.75.27 4.53.5l.7.1-.32.62c-.2.4-.48.77-.85 1.13-.12.12-.3.22-.45.3-.18.09-.38.17-.6.26a30.4 30.4 0 0 1-3.63 1.04c-.15.02-.3.04-.42.04H6c-.41 0-.78-.2-1.05-.43-.27-.24-.5-.55-.65-.87a3.03 3.03 0 0 1-.23-.91A9.62 9.62 0 0 1 4 18.57v-.47l.47-.02Zm38.52.97a31.47 31.47 0 0 0-3.95.02 95.6 95.6 0 0 0-3.67.4l.23.25.05.03.15.09.51.21a29.22 29.22 0 0 0 3.63 1.02H42c.09 0 .22-.04.4-.19a2 2 0 0 0 .4-.54c.05-.1.1-.3.14-.6.03-.2.04-.43.05-.7Zm-4.03-.97c1.26-.1 2.79-.1 4.57 0l.47.02v.47c0 .5-.02.93-.07 1.29a2.69 2.69 0 0 1-.88 1.78c-.27.23-.64.43-1.05.43h-2a13.12 13.12 0 0 1-1-.18 30.4 30.4 0 0 1-3.05-.9 6.94 6.94 0 0 1-.6-.26 1.78 1.78 0 0 1-.45-.3 4.41 4.41 0 0 1-.85-1.13l-.31-.63.7-.1c1.77-.22 3.28-.4 4.52-.5Zm-22.2.92h14.48l2.15 2.69-.78.62L30.76 20H17.24l-1.67 2.1a30.2 30.2 0 0 0 1.62 3.79 5 5 0 0 0 .62.93c.13.14.2.17.2.18H24v1h-6c-.39 0-.7-.26-.93-.5-.25-.28-.5-.66-.76-1.14a32.43 32.43 0 0 1-1.78-4.19l-.1-.26L16.76 19Zm19.74 8a8.38 8.38 0 0 0-7.65 4.72 8.94 8.94 0 0 0-.72 2.07l-.97-.2A9.38 9.38 0 0 1 36.5 26c4.21-.01 7.3 3.12 8.5 6.45V27.6h1v6.49h-6.05v-1h4.21C43.14 29.94 40.3 27 36.5 27Zm-9.36 9.08h5.4v1h-4.2c1.02 3.17 3.86 6.1 7.66 6.1a8.4 8.4 0 0 0 8.37-6.78l.97.2a9.94 9.94 0 0 1-.79 2.3A9.38 9.38 0 0 1 36 44.18c-3.6 0-6.37-2.28-7.86-5.02v3.42h-1v-6.5Z"/></svg>