<svg width="16" height="16" fill="none" xmlns="http://www.w3.org/2000/svg"><path fill="currentColor" d="M0 7.5a7.5 7.5 0 1 1 15 0 7.5 7.5 0 0 1-15 0ZM7.5 1a6.5 6.5 0 1 0 0 13 6.5 6.5 0 0 0 0-13ZM6.16 3.25c.49-.2 1.07-.25 1.5-.25a5.5 5.5 0 0 1 2.23.39l-.45.9A4.67 4.67 0 0 0 7.67 4a3 3 0 0 0-1.12.17.71.71 0 0 0-.3.2.45.45 0 0 0-.08.3c0 .32.07.46.2.57.2.15.59.3 1.38.43.4.06 1 .22 1.5.5.5.26 1.08.74 1.08 1.5a1.88 1.88 0 0 1-.97 1.6c.23.32.3.68.3 1.06 0 .36-.1.67-.3.92-.18.24-.44.4-.69.5-.49.2-1.07.25-1.5.25a5.5 5.5 0 0 1-2.23-.39l.45-.89c.14.07.77.28 1.78.28.4 0 .81-.04 1.12-.17a.71.71 0 0 0 .29-.2.45.45 0 0 0 .09-.3c0-.32-.07-.46-.21-.57-.2-.15-.58-.3-1.37-.43-.4-.06-1-.22-1.52-.5-.49-.26-1.07-.74-1.07-1.5a1.88 1.88 0 0 1 .97-1.6c-.23-.32-.3-.68-.3-1.06 0-.36.1-.67.3-.92.19-.24.44-.4.69-.5Zm.23 3.11-.18.1h-.02a.68.68 0 0 0-.1.05c-.08.04-.17.1-.26.18a.84.84 0 0 0-.33.64c0 .18.14.4.55.62.39.21.87.34 1.2.39.46.08.86.17 1.2.3l.18-.1h.02a.68.68 0 0 0 .1-.05L9 8.3a.84.84 0 0 0 .32-.64c0-.18-.14-.4-.55-.62a3.93 3.93 0 0 0-1.19-.39 6.43 6.43 0 0 1-1.2-.3Z"/></svg>