<svg width="24" height="24" fill="none" xmlns="http://www.w3.org/2000/svg"><path fill="currentColor" d="M0 11.5a11.5 11.5 0 1 1 23 0 11.5 11.5 0 0 1-23 0ZM11.5 1a10.5 10.5 0 1 0 0 21 10.5 10.5 0 0 0 0-21ZM10 6.3a4.9 4.9 0 0 1 1.83-.3c1.4 0 2.36.29 2.73.47l-.45.9c-.2-.1-1-.37-2.28-.37-.5 0-1.04.05-1.44.22a.93.93 0 0 0-.42.3.69.69 0 0 0-.14.44c0 .43.1.64.31.8.27.22.78.41 1.77.58.5.08 1.23.27 1.85.6.6.33 1.28.9 1.28 1.77 0 .78-.42 1.32-.8 1.65-.17.14-.33.25-.47.33.34.39.44.85.44 1.35 0 .42-.13.78-.35 1.07a2 2 0 0 1-.82.59c-.59.25-1.3.3-1.83.3a6.77 6.77 0 0 1-2.73-.47l.45-.9c.2.1 1 .37 2.28.37.5 0 1.04-.05 1.44-.22.2-.08.33-.18.42-.3.08-.1.14-.23.14-.44 0-.43-.1-.64-.31-.8-.27-.22-.78-.41-1.77-.58a6.08 6.08 0 0 1-1.85-.6c-.6-.33-1.28-.9-1.28-1.77 0-.78.42-1.32.8-1.65.17-.14.33-.25.47-.33a1.98 1.98 0 0 1-.44-1.35c0-.42.13-.78.35-1.07A2 2 0 0 1 10 6.3Zm.23 3.64-.27.14h-.02v.01l-.03.01-.11.06c-.1.05-.22.13-.35.24-.25.22-.45.5-.45.9 0 .29.23.6.75.87.5.28 1.12.44 1.53.5h.01c.6.1 1.1.22 1.52.39l.28-.14h.01v-.01l.03-.01.11-.06c.1-.05.23-.13.35-.24.25-.22.45-.5.45-.9 0-.29-.23-.6-.75-.87a5.08 5.08 0 0 0-1.53-.5 7.7 7.7 0 0 1-1.53-.39Z"/></svg>