<svg width="48" height="48" fill="none" xmlns="http://www.w3.org/2000/svg"><path fill="currentColor" d="M23.5 2a21.5 21.5 0 1 0 0 43 21.5 21.5 0 0 0 0-43ZM1 23.5a22.5 22.5 0 1 1 45 0 22.5 22.5 0 0 1-45 0Zm20.02-8.04a7.58 7.58 0 0 1 2.82-.46c2.2 0 3.7.45 4.23.72l-.44.9a9.77 9.77 0 0 0-3.79-.62 6.5 6.5 0 0 0-2.43.38c-.35.14-.61.33-.79.55-.17.22-.28.5-.28.9 0 .74.17 1.19.6 1.54.5.39 1.39.7 2.98.97.76.12 1.9.41 2.87.94.95.5 1.9 1.33 1.9 2.55 0 1.13-.62 1.93-1.18 2.41a4.61 4.61 0 0 1-1.03.68h-.03c.69.6.9 1.36.9 2.25 0 .6-.18 1.1-.5 1.51-.31.4-.74.68-1.19.86-.88.38-1.97.46-2.82.46-2.2 0-3.7-.45-4.23-.72l.45-.9c.36.19 1.7.62 3.78.62.82 0 1.74-.08 2.44-.38.34-.14.6-.33.78-.55.18-.22.29-.5.29-.9 0-.74-.17-1.19-.61-1.54-.5-.39-1.38-.7-2.98-.97a9.45 9.45 0 0 1-2.87-.94c-.94-.5-1.89-1.33-1.89-2.55 0-1.13.61-1.93 1.17-2.41a4.61 4.61 0 0 1 1.04-.68h.02c-.68-.6-.9-1.36-.9-2.25 0-.6.19-1.1.5-1.51.32-.4.74-.68 1.19-.86Zm-.33 5.5h-.01a1.79 1.79 0 0 0-.25.13c-.16.1-.38.23-.6.42-.44.38-.83.92-.83 1.66 0 .64.5 1.2 1.37 1.67.84.46 1.86.73 2.55.83 1.03.17 1.86.38 2.5.65l.56-.28H26a1.79 1.79 0 0 0 .24-.13c.17-.1.39-.23.6-.42.44-.38.83-.92.83-1.66 0-.64-.5-1.2-1.36-1.67a8.46 8.46 0 0 0-2.55-.83 11.54 11.54 0 0 1-2.51-.65l-.55.28h-.02Z"/></svg>