<svg width="24" height="24" fill="none" xmlns="http://www.w3.org/2000/svg"><path fill="currentColor" d="m9.96 10.08.27-.14c.41.17.92.29 1.52.39.42.06 1.04.22 1.54.5.52.28.75.58.75.88 0 .38-.2.67-.45.9a2.07 2.07 0 0 1-.46.29l-.02.01h-.02l-.28.15a7.7 7.7 0 0 0-1.52-.39 5.08 5.08 0 0 1-1.54-.5C9.23 11.9 9 11.6 9 11.3c0-.38.2-.67.45-.9a2.07 2.07 0 0 1 .46-.29l.02-.01h.03Z"/><path fill="currentColor" d="M0 11.5a11.5 11.5 0 1 1 23 0 11.5 11.5 0 0 1-23 0ZM11.83 6a4.9 4.9 0 0 0-1.83.3 2 2 0 0 0-.82.6c-.22.28-.35.64-.35 1.06 0 .5.1.96.44 1.35-.14.08-.3.19-.47.33-.38.33-.8.87-.8 1.65 0 .87.67 1.44 1.28 1.76.63.34 1.36.53 1.85.61.99.17 1.5.36 1.77.57.21.17.3.38.3.81a.7.7 0 0 1-.13.45c-.09.1-.22.2-.42.29-.4.17-.94.22-1.44.22a5.94 5.94 0 0 1-2.28-.36l-.45.89c.37.18 1.34.47 2.73.47a4.9 4.9 0 0 0 1.83-.3 2 2 0 0 0 .82-.6c.22-.28.35-.64.35-1.06 0-.5-.1-.96-.44-1.35.14-.08.3-.19.47-.33.38-.33.8-.87.8-1.65 0-.87-.67-1.44-1.28-1.76a6.08 6.08 0 0 0-1.85-.61 4.07 4.07 0 0 1-1.77-.57c-.21-.17-.3-.38-.3-.81 0-.2.05-.35.13-.45.09-.1.22-.2.42-.29.4-.17.94-.22 1.44-.22a6.1 6.1 0 0 1 2.28.36l.45-.9A6.77 6.77 0 0 0 11.83 6Z"/></svg>