<svg width="48" height="48" fill="none" xmlns="http://www.w3.org/2000/svg"><path fill="currentColor" d="M15 2v7.5c0 4.72 3.78 8.5 8.5 8.5h1c5.28 0 9.5 4.22 9.5 9.5v7.8l4.65-4.65.7.7-5.85 5.86-5.85-5.86.7-.7L33 35.29V27.5c0-4.72-3.78-8.5-8.5-8.5h-1A9.46 9.46 0 0 1 14 9.5V2h1Zm9 0h1v4h15c1.2 0 2.21.36 2.93 1.07A4.02 4.02 0 0 1 44 10v27a5.9 5.9 0 0 1-1.02 3.36A3.61 3.61 0 0 1 40 42H25v4h-1v-5h16c.9 0 1.64-.47 2.17-1.21.53-.76.83-1.78.83-2.79V10c0-1-.3-1.74-.78-2.22C41.74 7.29 41 7 40 7H24V2Z"/></svg>