<svg width="24" height="24" fill="none" xmlns="http://www.w3.org/2000/svg"><path fill="currentColor" d="M6.76 1.5A128.99 128.99 0 0 0 7.64.3h.02a4.87 4.87 0 0 1 .2.15l.51.44c.43.38 1 .94 1.56 1.64a9.48 9.48 0 0 1 2.32 5.87v8.29l2.22-2.22 1.06 1.06-4.03 4.03-4.03-4.03 1.06-1.06 2.22 2.22V8.4a8 8 0 0 0-1.98-4.93A12.7 12.7 0 0 0 6.8 1.53l-.03-.02ZM0 5.76h5.25v15.4c0 .66.64 1.34 1.45 1.34h9.6c.83 0 1.45-.6 1.45-1.35V5.75H23v1.5h-3.75v13.9a2.88 2.88 0 0 1-2.95 2.84H6.7a2.95 2.95 0 0 1-2.95-2.85V7.25H0v-1.5Z"/></svg>