<svg width="24" height="24" fill="none" xmlns="http://www.w3.org/2000/svg"><path fill="currentColor" d="M14.23 3.47a8 8 0 0 0-1.98 4.93v8.29l2.22-2.22 1.06 1.06-4.03 4.03-4.03-4.03 1.06-1.06 2.22 2.22V8.4c0-2.44 1.2-4.48 2.32-5.87A14.2 14.2 0 0 1 15.3.33l.04-.02.02-.01.44.6.44.6v.01l-.04.02a6.8 6.8 0 0 0-.57.48c-.38.34-.9.84-1.4 1.46ZM0 5.75h5.25v15.4c0 .66.64 1.34 1.45 1.34h9.6c.83 0 1.45-.6 1.45-1.35V5.75H23v1.5h-3.75v13.9a2.88 2.88 0 0 1-2.95 2.84H6.7a2.95 2.95 0 0 1-2.95-2.85V7.25H0v-1.5Z"/></svg>