<svg width="16" height="16" fill="none" xmlns="http://www.w3.org/2000/svg"><path fill="currentColor" d="M1.4 3.85h1.1C3.09 2.17 4.65 1.2 6.59 1.2c.86 0 1.78.12 2.47.42v.95a6.2 6.2 0 0 0-2.32-.42c-1.56 0-2.67.59-3.12 1.7h4.02v.9H3.41c-.04.18-.04.37-.04.56 0 .21.02.42.04.6h4.22v.9h-4c.5 1.21 1.76 1.68 3.07 1.68.33 0 .62-.01.88-.03l-.39.96h-.52c-2.02 0-3.61-.87-4.18-2.61H1.41v-.9h.9a5.28 5.28 0 0 1 0-1.17h-.9v-.89Zm8.13 2.5 4.86 1.99-.38.92-3.3-1.35 2.65 6.6-.92.38L9.8 8.33l-1.34 3.26-.92-.38 1.99-4.86Z"/></svg>