<svg width="24" height="24" fill="none" xmlns="http://www.w3.org/2000/svg"><path fill="currentColor" d="M13.36 10.51a2.52 2.52 0 0 0 1.16-.03 1.1 1.1 0 0 0 .74-.62l.04-.07L13.4 6h1.25l1.07 2.24.23.49.23-.5L17.23 6h1.2l-1.97 3.92c-.19.37-.4.67-.63.9-.23.22-.49.39-.78.5-.3.1-.63.16-1.02.16-.27 0-.5-.04-.67-.11v-.86Zm-1.61-.71-.07-.38c-.2.16-.43.28-.7.37a3 3 0 0 1-1.8-.01 1.2 1.2 0 0 1-.57-.4 1.1 1.1 0 0 1-.19-.65c0-.27.09-.5.26-.68.18-.18.44-.32.8-.4.35-.1.8-.14 1.37-.14l.77.03v-.01a.68.68 0 0 0-.13-.43.75.75 0 0 0-.39-.25 2.2 2.2 0 0 0-.67-.08 4.38 4.38 0 0 0-1.61.3v-.82a4.5 4.5 0 0 1 2.97-.2c.32.12.56.3.72.53.16.23.24.52.24.87V9.8h-1Zm-.13-1.6h-.6c-.34 0-.62.01-.82.04-.2.04-.36.09-.45.16a.34.34 0 0 0-.15.3c0 .08.03.16.1.23.05.07.14.13.25.17.1.03.24.05.4.05.25 0 .48-.03.68-.08.21-.06.4-.15.59-.26v-.62Zm-8.9 3.16V6h1.02l.08.43c.2-.17.45-.31.72-.4.28-.1.58-.14.9-.14.45 0 .83.07 1.15.23.32.16.57.39.74.68.16.3.25.65.25 1.06 0 .42-.09.79-.26 1.1-.17.3-.43.55-.75.71-.33.17-.72.25-1.17.25-.29 0-.57-.04-.84-.11a2.1 2.1 0 0 1-.67-.3v1.85H2.72ZM3.9 8.73a2.52 2.52 0 0 0 1.3.3c.26 0 .48-.05.66-.14a.9.9 0 0 0 .4-.38c.1-.17.15-.37.15-.6 0-.24-.05-.44-.14-.6a.88.88 0 0 0-.41-.39c-.18-.08-.4-.12-.66-.12a2.35 2.35 0 0 0-1.3.3v1.63ZM1 12h19v1.5H1V12Zm16.29 2.82 5.1 2.09-.58 1.38-2.75-1.12 2.43 6.05-1.39.56-2.4-5.99-1.1 2.7-1.4-.57 2.09-5.1Z"/></svg>