<svg width="48" height="48" fill="none" xmlns="http://www.w3.org/2000/svg"><path fill="currentColor" d="M27.2 27.84a3.2 3.2 0 0 0 1.81-.1c.34-.12.63-.3.9-.56.26-.26.5-.6.73-1l.18-.33L27.3 19h1.5l2.27 4.61.47.98.48-1 2.24-4.6h1.47l-3.7 7.21c-.35.7-.72 1.25-1.12 1.65a4.02 4.02 0 0 1-3.73 1.1v-1.1ZM24.6 26l-.11-.64c-.36.25-.8.45-1.31.6a6.36 6.36 0 0 1-3.32-.05 2.33 2.33 0 0 1-1.08-.73 1.76 1.76 0 0 1-.37-1.12c0-.49.16-.9.47-1.21.3-.32.78-.56 1.41-.72a10.1 10.1 0 0 1 2.4-.24c.52 0 1.08.02 1.69.05v-.24c0-.4-.09-.73-.26-1a1.49 1.49 0 0 0-.76-.58 3.7 3.7 0 0 0-1.3-.2 7.04 7.04 0 0 0-2.98.52V19.4c.43-.19.9-.33 1.4-.42.5-.09 1.07-.13 1.7-.13.74 0 1.38.1 1.92.31.53.21.94.52 1.22.92.27.4.4.89.4 1.45V26H24.6Zm-.22-3.11h-1.35c-.78 0-1.4.04-1.87.11-.47.08-.81.2-1.03.36a.76.76 0 0 0-.33.65c0 .25.07.46.22.62.14.17.35.3.64.37a5.78 5.78 0 0 0 2.57-.05 3.7 3.7 0 0 0 1.15-.5v-1.56ZM8.32 28.88V19h1.13l.1.61a5.61 5.61 0 0 1 4.98-.34c.61.3 1.08.72 1.4 1.27.32.55.48 1.2.48 1.95 0 .76-.16 1.41-.49 1.96-.33.56-.8.98-1.43 1.27a6.02 6.02 0 0 1-3.67.27 3.77 3.77 0 0 1-1.15-.48v3.37H8.32Zm1.35-4.46a4.3 4.3 0 0 0 2.42.68c.64 0 1.18-.1 1.61-.3.44-.2.77-.49 1-.88.21-.39.32-.86.32-1.43s-.11-1.05-.33-1.44a2.08 2.08 0 0 0-.99-.88 4.66 4.66 0 0 0-4.03.38v3.87Zm25.46 3.43 6.26 2.59-.38.92-4.81-1.99 3.86 9.14-.92.38-3.79-8.96-1.89 4.56-.92-.38 2.59-6.26Z"/></svg>