<svg width="24" height="24" fill="none" xmlns="http://www.w3.org/2000/svg"><path fill="currentColor" d="M5 8.5a1.5 1.5 0 1 1 3 0 1.5 1.5 0 0 1-3 0Z"/><path fill="currentColor" fill-rule="evenodd" d="M18.53 3H1v17.53L18.53 3ZM4 8.5a2.5 2.5 0 1 1 5 0 2.5 2.5 0 0 1-5 0Z" clip-rule="evenodd"/><path fill="currentColor" d="M5.47 21H23v-3.85l-4.24-4-4.57 4.48-2.68-2.67L5.47 21Z"/><path fill="currentColor" d="m12.22 14.25 1.97 1.98 4.56-4.47L23 15.77V3.47L12.22 14.25Z"/><path fill="currentColor" fill-rule="evenodd" d="m23.53 1.53-22 22-1.06-1.06 22-22 1.06 1.06Z" clip-rule="evenodd"/></svg>