<svg width="24" height="24" fill="none" xmlns="http://www.w3.org/2000/svg"><path fill="currentColor" d="M2 12.86V2h4.29c3.34 0 4.55 1.4 4.55 3.38S9.56 8.8 6.2 8.8H3.54v4.05H2Zm3.96-9.6H3.54v4.29h2.42c2.5 0 3.3-.78 3.3-2.17 0-1.4-.8-2.12-3.3-2.12ZM8 15.5a7.5 7.5 0 1 1 15 0 7.5 7.5 0 0 1-15 0Zm1.02-.45a6.59 6.59 0 0 0 1.85 5.01L12.93 18a3.59 3.59 0 0 1-.43-1.8v-.02c0-.34 0-.74.05-1.13H9.02Zm.14-1h3.67c.14-.27.33-.5.61-.7.24-.15.6-.23.92-.27a8.1 8.1 0 0 1 2.28 0c.32.04.68.12.92.28.28.18.47.42.6.69h3.68a6.5 6.5 0 0 0-12.68 0Zm12.82 1h-3.53c.05.39.05.8.05 1.13v.03a3.6 3.6 0 0 1-.43 1.79l2.06 2.06a6.48 6.48 0 0 0 1.85-5.01Zm-2.6 5.67-1.96-1.96a3 3 0 0 1-1.92.63 3 3 0 0 1-1.92-.63l-1.96 1.96a6.47 6.47 0 0 0 7.76 0Zm-4.87-6.66c-.32.05-.48.1-.52.14-.2.13-.33.36-.41.73-.08.38-.08.82-.08 1.28 0 .7.2 1.25.53 1.6.32.35.8.58 1.47.58a1.9 1.9 0 0 0 1.47-.58c.33-.35.53-.9.53-1.6 0-.46 0-.9-.08-1.28-.08-.37-.21-.6-.4-.73a1.76 1.76 0 0 0-.53-.14 7.09 7.09 0 0 0-1.98 0Z"/></svg>