<svg width="24" height="24" fill="none" xmlns="http://www.w3.org/2000/svg"><path fill="currentColor" d="M1.5 1.5v11.86h2.54V9.31h2.17c1.74 0 3.03-.38 3.89-1.09a3.54 3.54 0 0 0 1.24-2.85c0-1.09-.34-2.1-1.2-2.81-.85-.7-2.12-1.06-3.85-1.06H1.5Zm4.46 5.55H4.04V3.76h1.92c1.23 0 1.92.18 2.3.45.34.23.5.57.5 1.17s-.16.95-.5 1.2c-.38.28-1.08.47-2.3.47Zm1.79 8.45a7.75 7.75 0 1 1 15.5 0 7.75 7.75 0 0 1-15.5 0Zm1.5-.2v.2c0 1.62.61 3.1 1.62 4.2l1.76-1.75a3.93 3.93 0 0 1-.38-1.74v-.03c0-.26 0-.57.02-.88H9.25Zm.24-1.5h3.2c.14-.25.34-.47.62-.65.29-.19.69-.27 1.01-.32a8.35 8.35 0 0 1 2.36 0c.32.04.72.13 1.01.32.28.18.48.4.62.65h3.2a6.25 6.25 0 0 0-12.02 0Zm12.26 1.5h-3.02c.02.31.02.62.02.88v.03c0 .63-.12 1.22-.38 1.74l1.76 1.75a6.23 6.23 0 0 0 1.62-4.4Zm-2.76 5.39-1.6-1.6c-.52.36-1.17.55-1.89.55s-1.37-.19-1.9-.55l-1.59 1.6a6.22 6.22 0 0 0 6.98 0Zm-4.86-6.28c-.12.07-.24.23-.3.57-.08.35-.08.76-.08 1.23 0 .66.19 1.13.46 1.43.27.3.68.5 1.29.5s1.02-.2 1.29-.5.46-.77.46-1.43c0-.47 0-.88-.07-1.23-.07-.34-.19-.5-.3-.57-.03-.01-.15-.06-.42-.1a6.85 6.85 0 0 0-2.33.1Z"/></svg>