<svg width="48" height="48" fill="none" xmlns="http://www.w3.org/2000/svg"><path fill="currentColor" d="M24.7 9c-8.2 0-12.3 5.9-12.3 10.8 0 3 1.1 5.6 3.5 6.6.4.2.7 0 .9-.4.1-.3.3-1.1.4-1.4.1-.4.1-.6-.2-1-.7-.8-1.1-1.9-1.1-3.4 0-4.4 3.3-8.3 8.5-8.3 4.6 0 7.2 2.8 7.2 6.6 0 5-2.2 9.2-5.5 9.2-1.8 0-3.2-1.5-2.7-3.3.5-2.2 1.5-4.5 1.5-6.1 0-1.4-.8-2.6-2.3-2.6-1.8 0-3.3 1.9-3.3 4.5 0 1.6.5 2.7.5 2.7l-2.2 9.4c-.7 2.8-.1 6.2-.1 6.5 0 .2.3.3.4.1.2-.2 2.4-2.9 3.1-5.6l1.2-4.7c.6 1.1 2.3 2.1 4.2 2.1 5.5 0 9.3-5.1 9.3-11.8-.1-5.1-4.4-9.9-11-9.9Z"/></svg>