<svg width="48" height="48" fill="none" xmlns="http://www.w3.org/2000/svg"><path fill="currentColor" d="M26 43.98v-2.41a.5.5 0 0 0-.5-.5h-3a.5.5 0 0 0-.5.5v2.41l-.56-.07a20.08 20.08 0 0 1-13.81-8.34A9.18 9.18 0 0 1 6 30.24v-3.16H4.5a1.5 1.5 0 0 1-1.5-1.5v-3c0-.83.67-1.5 1.5-1.5H6v-3.32c0-1.97.56-3.81 1.63-5.33a20.02 20.02 0 0 1 13.81-8.36L22 4v2.41c0 .28.22.5.5.5h3a.5.5 0 0 0 .5-.5V4l.56.07a20.08 20.08 0 0 1 13.81 8.34A9.18 9.18 0 0 1 42 17.74v3.32h1.5c.83 0 1.5.67 1.5 1.5v3c0 .83-.67 1.5-1.5 1.5H42v3.16c0 1.97-.56 3.81-1.63 5.33a19.97 19.97 0 0 1-13.81 8.34l-.56.07v.02ZM4.5 22.07a.5.5 0 0 0-.5.5v3c0 .28.22.5.5.5H7v4.16c0 1.76.5 3.41 1.45 4.75A19.04 19.04 0 0 0 21 42.83v-1.26c0-.83.67-1.5 1.5-1.5h3c.83 0 1.5.67 1.5 1.5v1.26a19 19 0 0 0 12.55-7.85A8.19 8.19 0 0 0 41 30.23v-4.16h2.5a.5.5 0 0 0 .5-.5v-3a.5.5 0 0 0-.5-.5H41v-4.32c0-1.76-.5-3.41-1.45-4.75A19.04 19.04 0 0 0 27 5.15v1.26c0 .83-.67 1.5-1.5 1.5h-3a1.5 1.5 0 0 1-1.5-1.5V5.15c-5.04.8-9.59 3.64-12.55 7.85A8.19 8.19 0 0 0 7 17.75v4.32H4.5Zm27.5 5a3 3 0 0 1-3-3 3 3 0 0 1 3-3 3 3 0 0 1 3 3 3 3 0 0 1-3 3Zm0-5a2 2 0 0 0-2 2c0 1.1.9 2 2 2a2 2 0 0 0 2-2 2 2 0 0 0-2-2Zm-16 5a3 3 0 0 1-3-3 3 3 0 0 1 3-3 3 3 0 0 1 3 3 3 3 0 0 1-3 3Zm0-5a2 2 0 0 0-2 2c0 1.1.9 2 2 2a2 2 0 0 0 2-2 2 2 0 0 0-2-2Z"/></svg>