<svg width="48" height="48" fill="none" xmlns="http://www.w3.org/2000/svg"><path fill="currentColor" d="M14.1 5.5c-.28 0-.55.08-.77.23a19.25 19.25 0 1 0 21.35 0 1.4 1.4 0 0 0-.79-.23H14.11Zm-1.33-.6c.4-.27.87-.4 1.34-.4h19.78c.47 0 .94.13 1.34.4a20.25 20.25 0 1 1-22.46 0ZM17.5 9a1.5 1.5 0 1 0 0 3 1.5 1.5 0 0 0 0-3ZM15 10.5a2.5 2.5 0 1 1 5 0 2.5 2.5 0 0 1-5 0ZM24 9a1.5 1.5 0 1 0 0 3 1.5 1.5 0 0 0 0-3Zm-2.5 1.5a2.5 2.5 0 1 1 5 0 2.5 2.5 0 0 1-5 0Zm9-1.5a1.5 1.5 0 1 0 0 3 1.5 1.5 0 0 0 0-3ZM28 10.5a2.5 2.5 0 1 1 5 0 2.5 2.5 0 0 1-5 0ZM24 15a1.5 1.5 0 1 0 0 3 1.5 1.5 0 0 0 0-3Zm-2.5 1.5a2.5 2.5 0 1 1 5 0 2.5 2.5 0 0 1-5 0Zm-7.5 1a5 5 0 1 0 0 10 5 5 0 0 0 0-10Zm-6 5a6 6 0 1 1 12 0 6 6 0 0 1-12 0Zm26-5a5 5 0 1 0 0 10 5 5 0 0 0 0-10Zm-6 5a6 6 0 1 1 12 0 6 6 0 0 1-12 0ZM24 31a2.5 2.5 0 1 0 0 5 2.5 2.5 0 0 0 0-5Zm-3.5 2.5a3.5 3.5 0 1 1 7 0 3.5 3.5 0 0 1-7 0ZM16 32a1.5 1.5 0 1 0 0 3 1.5 1.5 0 0 0 0-3Zm-2.5 1.5a2.5 2.5 0 1 1 5 0 2.5 2.5 0 0 1-5 0ZM32 32a1.5 1.5 0 1 0 0 3 1.5 1.5 0 0 0 0-3Zm-2.5 1.5a2.5 2.5 0 1 1 5 0 2.5 2.5 0 0 1-5 0Z"/></svg>