<svg width="16" height="16" fill="none" xmlns="http://www.w3.org/2000/svg"><path fill="currentColor" d="M10 2h3v2h3v1h-3v3h3v1h-3v2H9.95a4.63 4.63 0 0 1-.72-.05 6.32 6.32 0 0 1-1.68-.45A4.25 4.25 0 0 1 5.8 9.15 4.14 4.14 0 0 1 5.02 7H4.5a2.5 2.5 0 0 0 0 5h1A2.5 2.5 0 0 1 8 14.5V16H7v-1.5c0-.83-.67-1.5-1.5-1.5h-1a3.5 3.5 0 1 1 0-7h.52c.08-.88.37-1.6.78-2.15A4.25 4.25 0 0 1 7.55 2.5 6.33 6.33 0 0 1 10 2h.02Zm0 8h2V3H9.96a3.65 3.65 0 0 0-.6.04c-.39.06-.9.16-1.41.38-.5.22-.99.55-1.34 1.02a3.3 3.3 0 0 0-.6 2.06c0 .93.24 1.58.6 2.06.35.48.83.8 1.34 1.02a5.33 5.33 0 0 0 2 .42H10Z"/></svg>