<svg width="48" height="48" fill="none" xmlns="http://www.w3.org/2000/svg"><path fill="currentColor" d="M4 22a20 20 0 1 1 24 19.6V46h-8v-4.4A20 20 0 0 1 4 22Zm17 19.78V45h6v-3.22a20.16 20.16 0 0 1-6 0ZM24 3a19 19 0 1 0 0 38 19 19 0 0 0 0-38Zm-7 10a3 3 0 1 0 0 6 3 3 0 0 0 0-6Zm-4 3a4 4 0 1 1 8 0 4 4 0 0 1-8 0Zm18-3a3 3 0 1 0 0 6 3 3 0 0 0 0-6Zm-4 3a4 4 0 1 1 8 0 4 4 0 0 1-8 0Zm-13.5 9a1.5 1.5 0 1 0 0 3 1.5 1.5 0 0 0 0-3ZM11 26.5a2.5 2.5 0 1 1 5 0 2.5 2.5 0 0 1-5 0ZM34.5 25a1.5 1.5 0 1 0 0 3 1.5 1.5 0 0 0 0-3ZM32 26.5a2.5 2.5 0 1 1 5 0 2.5 2.5 0 0 1-5 0ZM24 29a3 3 0 1 0 0 6 3 3 0 0 0 0-6Zm-4 3a4 4 0 1 1 8 0 4 4 0 0 1-8 0Z"/></svg>