<svg width="48" height="48" fill="none" xmlns="http://www.w3.org/2000/svg"><path fill="currentColor" d="M14.73 4a.5.5 0 0 0-.33.12 14.69 14.69 0 0 0-5.13 11.16c0 10.13 10.24 17.88 20.96 13.44a13.37 13.37 0 0 0 7.18-7.17c2.87-6.86.72-13.52-3.83-17.43a.5.5 0 0 0-.33-.12H14.73Zm-.98-.64c.27-.24.62-.36.98-.36h18.52c.36 0 .7.12.98.36 4.87 4.18 7.14 11.3 4.1 18.58A14.37 14.37 0 0 1 29.68 30h6.82a4.5 4.5 0 0 1 4.5 4.5v6a4.5 4.5 0 0 1-4.5 4.5h-25A4.5 4.5 0 0 1 7 40.5v-6a4.5 4.5 0 0 1 4.5-4.5h6.96a15.73 15.73 0 0 1-4.71-26.64ZM23.8 31H11.5A3.5 3.5 0 0 0 8 34.5v6a3.5 3.5 0 0 0 3.5 3.5h25a3.5 3.5 0 0 0 3.5-3.5v-6a3.5 3.5 0 0 0-3.5-3.5H23.8ZM20 9a1 1 0 1 0 0 2 1 1 0 0 0 0-2Zm-2 1a2 2 0 1 1 4 0 2 2 0 0 1-4 0Zm10-1a1 1 0 1 0 0 2 1 1 0 0 0 0-2Zm-2 1a2 2 0 1 1 4 0 2 2 0 0 1-4 0Zm-10 4a2 2 0 1 0 0 4 2 2 0 0 0 0-4Zm-3 2a3 3 0 1 1 6 0 3 3 0 0 1-6 0Zm11-2a2 2 0 1 0 0 4 2 2 0 0 0 0-4Zm-3 2a3 3 0 1 1 6 0 3 3 0 0 1-6 0Zm11-2a2 2 0 1 0 0 4 2 2 0 0 0 0-4Zm-3 2a3 3 0 1 1 6 0 3 3 0 0 1-6 0Zm-9 5a2 2 0 1 0 0 4 2 2 0 0 0 0-4Zm-3 2a3 3 0 1 1 6 0 3 3 0 0 1-6 0Zm11-2a2 2 0 1 0 0 4 2 2 0 0 0 0-4Zm-3 2a3 3 0 1 1 6 0 3 3 0 0 1-6 0Zm-8.5 11a3.5 3.5 0 1 0 0 7 3.5 3.5 0 0 0 0-7ZM12 37.5a4.5 4.5 0 1 1 9 0 4.5 4.5 0 0 1-9 0ZM31.5 34a3.5 3.5 0 1 0 0 7 3.5 3.5 0 0 0 0-7ZM27 37.5a4.5 4.5 0 1 1 9 0 4.5 4.5 0 0 1-9 0Z"/></svg>