<svg width="24" height="24" fill="none" xmlns="http://www.w3.org/2000/svg"><path fill="currentColor" d="M8 18.51a.5.5 0 1 1 1 0 .5.5 0 0 1-1 0Zm7 0a.5.5 0 1 1 1 0 .5.5 0 0 1-1 0Z"/><path fill="currentColor" d="M12 2a7.01 7.01 0 0 1 3.63 13.01h1.87a2.5 2.5 0 0 1 2.5 2.5v2a2.5 2.5 0 0 1-2.5 2.5h-11a2.5 2.5 0 0 1-2.5-2.5v-2a2.5 2.5 0 0 1 2.5-2.5h1.86A7.01 7.01 0 0 1 12 2Zm-2 4a1 1 0 1 0 0 2 1 1 0 0 0 0-2Zm4 0a1 1 0 1 0 0 2 1 1 0 0 0 0-2Zm-5 5V9H8v2h1Zm7 0V9h-1v2h1Zm-4 0a1 1 0 1 0 0 2 1 1 0 0 0 0-2Zm-3.5 6.01a1.5 1.5 0 1 0 0 3 1.5 1.5 0 0 0 0-3Zm7 0a1.5 1.5 0 1 0 0 3 1.5 1.5 0 0 0 0-3Z"/></svg>