<svg width="48" height="48" fill="none" xmlns="http://www.w3.org/2000/svg"><path fill="currentColor" d="M13.56 6.94A19.9 19.9 0 0 1 24 4c3.83 0 7.4 1.07 10.44 2.94l1.63-1.76 5.86 5.45-1.64 1.76a20 20 0 1 1-32.58 0l-1.64-1.76 5.86-5.45 1.63 1.76Zm-4.8 5.71a19 19 0 1 0 5.07-4.7l-5.07 4.7ZM12.7 7.5l-.84-.9-4.38 4.1.83.9a20.11 20.11 0 0 1 4.39-4.1Zm26.97 4.1.83-.9-4.38-4.1-.84.9a20.11 20.11 0 0 1 4.39 4.1Zm-18.84-.04a3.98 3.98 0 0 0 0 4.9L23.29 14l-2.45-2.45Zm.7-.71L24 13.29l2.45-2.45a3.98 3.98 0 0 0-4.9 0Zm5.62.7L24.71 14l2.45 2.45a3.98 3.98 0 0 0 0-4.9Zm-.7 5.62L24 14.71l-2.45 2.45a3.98 3.98 0 0 0 4.9 0ZM19 14a5 5 0 1 1 10 0 5 5 0 0 1-10 0Zm-5 6a4 4 0 1 0 0 8 4 4 0 0 0 0-8Zm-5 4a5 5 0 1 1 10 0 5 5 0 0 1-10 0Zm25-4a4 4 0 1 0 0 8 4 4 0 0 0 0-8Zm-5 4a5 5 0 1 1 10 0 5 5 0 0 1-10 0Zm-15-1a1 1 0 1 0 0 2 1 1 0 0 0 0-2Zm-2 1a2 2 0 1 1 4 0 2 2 0 0 1-4 0Zm22-1a1 1 0 1 0 0 2 1 1 0 0 0 0-2Zm-2 1a2 2 0 1 1 4 0 2 2 0 0 1-4 0Zm-11.16 7.55a3.98 3.98 0 0 0 0 4.9L23.29 34l-2.45-2.45Zm.7-.71L24 33.29l2.45-2.45a3.98 3.98 0 0 0-4.9 0Zm5.62.7L24.71 34l2.45 2.45a3.98 3.98 0 0 0 0-4.9Zm-.7 5.62L24 34.71l-2.45 2.45a3.98 3.98 0 0 0 4.9 0ZM19 34a5 5 0 1 1 10 0 5 5 0 0 1-10 0Z"/></svg>