<svg width="48" height="48" fill="none" xmlns="http://www.w3.org/2000/svg"><path fill="currentColor" d="M9.99 17.01a14.01 14.01 0 1 1 19.24 13h7.27a4.5 4.5 0 0 1 4.5 4.5v6a4.5 4.5 0 0 1-4.5 4.5h-25a4.5 4.5 0 0 1-4.5-4.5v-6a4.5 4.5 0 0 1 4.5-4.5h7.27a14.02 14.02 0 0 1-8.78-13Zm14.52 13a13.01 13.01 0 1 0-1.02 0h1.02Zm-1.04 1H11.5a3.5 3.5 0 0 0-3.5 3.5v6a3.5 3.5 0 0 0 3.5 3.5h25a3.5 3.5 0 0 0 3.5-3.5v-6a3.5 3.5 0 0 0-3.5-3.5H24.53a14.36 14.36 0 0 1-1.06 0ZM19 11.02a2 2 0 1 0 0 4 2 2 0 0 0 0-4Zm-3 2a3 3 0 1 1 6 0 3 3 0 0 1-6 0Zm13-2a2 2 0 1 0 0 4 2 2 0 0 0 0-4Zm-3 2a3 3 0 1 1 6 0 3 3 0 0 1-6 0Zm-9 6a1 1 0 1 0 0 2 1 1 0 0 0 0-2Zm-2 1a2 2 0 1 1 4 0 2 2 0 0 1-4 0Zm16-1a1 1 0 1 0 0 2 1 1 0 0 0 0-2Zm-2 1a2 2 0 1 1 4 0 2 2 0 0 1-4 0Zm-5 2a2 2 0 1 0 0 4 2 2 0 0 0 0-4Zm-3 2a3 3 0 1 1 6 0 3 3 0 0 1-6 0Zm-4.5 9.99a3.5 3.5 0 1 0 0 7 3.5 3.5 0 0 0 0-7Zm-4.5 3.5a4.5 4.5 0 1 1 9 0 4.5 4.5 0 0 1-9 0Zm19.5-3.5a3.5 3.5 0 1 0 0 7 3.5 3.5 0 0 0 0-7Zm-4.5 3.5a4.5 4.5 0 1 1 9 0 4.5 4.5 0 0 1-9 0Z"/></svg>