<svg width="24" height="24" fill="none" xmlns="http://www.w3.org/2000/svg"><path fill="currentColor" d="M7.8 4.5c-.31 0-.6.1-.8.26A7.98 7.98 0 0 0 12 19a8 8 0 0 0 5-14.24c-.2-.17-.49-.26-.8-.26H7.8Zm-1.44-.52c.42-.33.94-.48 1.44-.48h8.4c.5 0 1.02.15 1.44.48A8.98 8.98 0 0 1 12 20 9 9 0 0 1 6.36 3.98ZM8.5 7V6h1v1h-1Zm3 0V6h1v1h-1Zm3 0V6h1v1h-1Zm-2 2.5h-1v-1h1v1Zm-5 .5a1.5 1.5 0 1 0 0 3 1.5 1.5 0 0 0 0-3ZM5 11.5a2.5 2.5 0 1 1 5 0 2.5 2.5 0 0 1-5 0ZM16.5 10a1.5 1.5 0 1 0 0 3 1.5 1.5 0 0 0 0-3ZM14 11.5a2.5 2.5 0 1 1 5 0 2.5 2.5 0 0 1-5 0ZM11 16a1 1 0 1 1 2 0 1 1 0 0 1-2 0Zm-3 .5v-1h1v1H8Zm7 0v-1h1v1h-1Z"/></svg>