<svg width="48" height="48" fill="none" xmlns="http://www.w3.org/2000/svg"><path fill="currentColor" d="M4 24a20 20 0 1 1 40 0 20 20 0 0 1-40 0ZM24 5a19 19 0 1 0 0 38 19 19 0 0 0 0-38Zm-5.5 10a1.5 1.5 0 1 0 0 3 1.5 1.5 0 0 0 0-3ZM16 16.5a2.5 2.5 0 1 1 5 0 2.5 2.5 0 0 1-5 0ZM29.5 15a1.5 1.5 0 1 0 0 3 1.5 1.5 0 0 0 0-3ZM27 16.5a2.5 2.5 0 1 1 5 0 2.5 2.5 0 0 1-5 0ZM13.5 24a1.5 1.5 0 1 0 0 3 1.5 1.5 0 0 0 0-3ZM11 25.5a2.5 2.5 0 1 1 5 0 2.5 2.5 0 0 1-5 0ZM34.5 24a1.5 1.5 0 1 0 0 3 1.5 1.5 0 0 0 0-3ZM32 25.5a2.5 2.5 0 1 1 5 0 2.5 2.5 0 0 1-5 0ZM24 30a3 3 0 1 0 0 6 3 3 0 0 0 0-6Zm-4 3a4 4 0 1 1 8 0 4 4 0 0 1-8 0Z"/></svg>