<svg width="24" height="24" fill="none" xmlns="http://www.w3.org/2000/svg"><path fill="currentColor" d="M4.98 9.01a7.01 7.01 0 1 1 10.65 6h1.87a2.5 2.5 0 0 1 2.5 2.5v2a2.5 2.5 0 0 1-2.5 2.5h-11a2.5 2.5 0 0 1-2.5-2.5v-2a2.5 2.5 0 0 1 2.5-2.5h1.86a7.01 7.01 0 0 1-3.38-6Zm7.43 6a6.01 6.01 0 1 0-.83 0h.83Zm-.86 1H6.5c-.83 0-1.5.68-1.5 1.5v2c0 .83.67 1.5 1.5 1.5h11c.83 0 1.5-.67 1.5-1.5v-2c0-.82-.67-1.5-1.5-1.5h-5.06a7.1 7.1 0 0 1-.9 0ZM9 7a1 1 0 1 1 2 0 1 1 0 0 1-2 0Zm4 0a1 1 0 1 1 2 0 1 1 0 0 1-2 0Zm-5 4V9h1v2H8Zm7 0V9h1v2h-1Zm-4 1a1 1 0 1 1 2 0 1 1 0 0 1-2 0Zm-2.5 6.01a.5.5 0 1 0 0 1 .5.5 0 0 0 0-1Zm-1.5.5a1.5 1.5 0 1 1 3 0 1.5 1.5 0 0 1-3 0Zm8.5-.5a.5.5 0 1 0 0 1 .5.5 0 0 0 0-1Zm-1.5.5a1.5 1.5 0 1 1 3 0 1.5 1.5 0 0 1-3 0Z"/></svg>