<svg width="24" height="24" fill="none" xmlns="http://www.w3.org/2000/svg"><path fill="currentColor" d="M8 18.5a.5.5 0 1 1 1 0 .5.5 0 0 1-1 0Zm7 0a.5.5 0 1 1 1 0 .5.5 0 0 1-1 0Z"/><path fill="currentColor" d="M7.74 2h8.51c.36 0 .72.12 1 .38A7.82 7.82 0 0 1 15.83 15h1.68a2.5 2.5 0 0 1 2.5 2.5v2a2.5 2.5 0 0 1-2.5 2.5h-11A2.5 2.5 0 0 1 4 19.5v-2A2.5 2.5 0 0 1 6.5 15h1.66A7.83 7.83 0 0 1 6.73 2.38a1.5 1.5 0 0 1 1-.38ZM9 5v2h1V5H9Zm5 0v2h1V5h-1ZM8 8a1 1 0 1 0 0 2 1 1 0 0 0 0-2Zm4 0a1 1 0 1 0 0 2 1 1 0 0 0 0-2Zm4 0a1 1 0 1 0 0 2 1 1 0 0 0 0-2Zm-6 3a1 1 0 1 0 0 2 1 1 0 0 0 0-2Zm4 0a1 1 0 1 0 0 2 1 1 0 0 0 0-2Zm-5.5 6a1.5 1.5 0 1 0 0 3 1.5 1.5 0 0 0 0-3Zm7 0a1.5 1.5 0 1 0 0 3 1.5 1.5 0 0 0 0-3Z"/></svg>