<svg width="24" height="24" fill="none" xmlns="http://www.w3.org/2000/svg"><path fill="currentColor" d="M6.99 5a.5.5 0 0 0-.34.12 7.96 7.96 0 1 0 10.61 0 .5.5 0 0 0-.34-.12H6.98Zm-1.01-.62a1.5 1.5 0 0 1 1-.38h9.94c.36 0 .73.12 1 .38a8.95 8.95 0 0 1 2.91 7.83A8.96 8.96 0 1 1 5.99 4.37ZM9.95 8v2h-1V8h1Zm4 2V8h1v2h-1Zm-7.03 2a1 1 0 1 1 2 0 1 1 0 0 1-2 0Zm4.03 0a1 1 0 1 1 2 0 1 1 0 0 1-2 0Zm4 0a1 1 0 1 1 2.01 0 1 1 0 0 1-2 0Zm-6 3a1 1 0 1 1 2 0 1 1 0 0 1-2 0Zm4 0a1 1 0 1 1 2 0 1 1 0 0 1-2 0Z"/></svg>