<svg width="48" height="48" fill="none" xmlns="http://www.w3.org/2000/svg"><path fill="currentColor" d="M36.1 6c.35 0 .7.12.97.36 6.27 5.33 9.25 14.43 5.45 23.78a18.52 18.52 0 0 1-10.01 10.1C17.83 46.35 3.75 35.7 3.75 21.78c0-6.18 2.77-11.7 7.13-15.41.28-.23.62-.36.98-.36H36.1Zm0 1a.5.5 0 0 1 .32.12L36.1 7ZM11.86 7a.5.5 0 0 0-.33.12 19.18 19.18 0 0 0-6.78 14.65c0 13.24 13.37 23.36 27.37 17.55a17.52 17.52 0 0 0 9.47-9.56c3.64-8.93.79-17.58-5.17-22.64M11.86 7H36.1 11.86Zm5.62 6a1.5 1.5 0 1 0 0 3 1.5 1.5 0 0 0 0-3Zm-2.5 1.5a2.5 2.5 0 1 1 5 0 2.5 2.5 0 0 1-5 0ZM30.49 13a1.5 1.5 0 1 0 0 3 1.5 1.5 0 0 0 0-3Zm-2.5 1.5a2.5 2.5 0 1 1 5 0 2.5 2.5 0 0 1-5 0ZM12.98 20a3 3 0 1 0 0 6 3 3 0 0 0 0-6Zm-4 3a4 4 0 1 1 8 0 4 4 0 0 1-8 0Zm15-3a3 3 0 1 0 0 6 3 3 0 0 0 0-6Zm-4 3a4 4 0 1 1 8 0 4 4 0 0 1-8 0Zm15-3a3 3 0 1 0 0 6 3 3 0 0 0 0-6Zm-4 3a4 4 0 1 1 8 0 4 4 0 0 1-8 0Zm-13 6a3 3 0 1 0 0 6 3 3 0 0 0 0-6Zm-4 3a4 4 0 1 1 8 0 4 4 0 0 1-8 0Zm16-3a3 3 0 1 0 0 6 3 3 0 0 0 0-6Zm-4 3a4 4 0 1 1 8 0 4 4 0 0 1-8 0Z"/></svg>