<svg width="24" height="24" fill="none" xmlns="http://www.w3.org/2000/svg"><path fill="currentColor" d="M11.5 12.5V6h1v6.5c1.24.03 2.38.15 3.33.32 1.05.19 1.93.45 2.43.75l-.52.86a7.07 7.07 0 0 0-2.1-.63 21.43 21.43 0 0 0-7.29 0 7.07 7.07 0 0 0-2.1.63l-.5-.86c.5-.3 1.37-.56 2.42-.75.95-.17 2.1-.29 3.33-.31Z"/><path fill="currentColor" d="M7.5 6.5a2.5 2.5 0 1 1 0 5 2.5 2.5 0 0 1 0-5ZM6 9a1.5 1.5 0 1 0 3 0 1.5 1.5 0 0 0-3 0Zm10.5-2.5a2.5 2.5 0 1 1 0 5 2.5 2.5 0 0 1 0-5ZM15 9a1.5 1.5 0 1 0 3 0 1.5 1.5 0 0 0-3 0Zm-3 6a1 1 0 1 1 0 2 1 1 0 0 1 0-2Zm-4 .5h1v1H8v-1Zm7 1v-1h1v1h-1Z"/><path fill="currentColor" d="M12 3.5c6.15 0 8.04 1.75 8.49 2.94.25.67.64 2.65.47 5.65-.19 3.12-1.52 4.74-2.1 5.34A10.2 10.2 0 0 1 12 19.97c-3.46 0-5.99-1.66-6.85-2.54-.6-.6-1.92-2.22-2.1-5.34-.18-3 .21-4.98.46-5.65C3.96 5.25 5.85 3.5 12 3.5ZM4.45 6.8c-.19.48-.58 2.31-.4 5.23.16 2.82 1.35 4.22 1.81 4.7.7.71 2.98 2.24 6.14 2.24a9.18 9.18 0 0 0 6.14-2.24c.46-.48 1.65-1.88 1.82-4.7.17-2.92-.22-4.75-.4-5.24-.22-.56-1.5-2.29-7.56-2.29S4.66 6.23 4.45 6.8Z"/></svg>