<svg width="24" height="24" fill="none" xmlns="http://www.w3.org/2000/svg"><path fill="currentColor" d="M3.8 8.6C3.8 4.33 7.32.8 11.5.8s7.7 3.53 7.7 7.8c0 1.11-.5 2.58-1.17 4.1a47.55 47.55 0 0 1-2.5 4.7 90.11 90.11 0 0 1-3.54 5.47l-.06.09-.02.02V23l-.41-.29-.4.29h-.01l-.02-.03-.06-.09a69.6 69.6 0 0 1-1.05-1.53 90.13 90.13 0 0 1-2.49-3.93 47.55 47.55 0 0 1-2.5-4.72C4.29 11.18 3.8 9.71 3.8 8.6Zm7.7 14.1-.4.29.4.57.4-.57-.4-.29Zm0-.87a88.18 88.18 0 0 0 3.17-4.94 46.6 46.6 0 0 0 2.45-4.6A10.3 10.3 0 0 0 18.2 8.6c0-3.73-3.08-6.8-6.7-6.8a6.82 6.82 0 0 0-6.7 6.8c0 .89.4 2.18 1.08 3.69.67 1.48 1.55 3.1 2.45 4.6a89.15 89.15 0 0 0 3.17 4.94ZM16 5v1H7V5h9Zm-9 7.2V7h1v5h4V9h3V7h1v3.2L13.2 13H8c-.17 0-.37-.04-.55-.13C7.3 12.8 7 12.6 7 12.2Zm7.8-2.2H13v1.8l1.8-1.8Zm-6.9 1.98Z"/></svg>