<svg width="48" height="48" fill="none" xmlns="http://www.w3.org/2000/svg"><path fill="currentColor" d="M9 17.5C9 9.52 15.52 3 23.5 3S38 9.52 38 17.5c0 2.04-.92 4.78-2.23 7.67a89.62 89.62 0 0 1-4.84 8.98 170.34 170.34 0 0 1-6.98 10.59l-.03.04-.01.01-.41-.29-.4.3-.02-.02-.03-.04a65.55 65.55 0 0 1-.56-.8 165.99 165.99 0 0 1-6.42-9.8 89.62 89.62 0 0 1-4.84-8.97C9.92 22.27 9 19.54 9 17.5Zm14.5 27-.4.3.4.55.4-.56-.4-.29Zm0-.86a132.23 132.23 0 0 0 1.77-2.56 169.5 169.5 0 0 0 4.8-7.45 88.7 88.7 0 0 0 4.79-8.87c1.3-2.89 2.14-5.45 2.14-7.26C37 10.08 30.92 4 23.5 4S10 10.08 10 17.5c0 1.8.83 4.37 2.14 7.26a88.7 88.7 0 0 0 4.79 8.87 169.5 169.5 0 0 0 6.57 10.01ZM17.96 7.98A63.28 63.28 0 0 1 29.05 8l.2.02.13.16c.6.7 1.1 1.36 1.46 1.94l1.31 2.08L34 14.31v7.19c0 .83-.67 1.5-1.5 1.5h-2a1.5 1.5 0 0 1-1.5-1.5V21H18v.5c0 .83-.67 1.5-1.5 1.5h-2a1.5 1.5 0 0 1-1.5-1.5v-7.19l1.85-2.11 1.3-2.08c.37-.58.86-1.24 1.47-1.96l.13-.16.2-.02ZM15.48 13 14 14.69V15h3v1h-3v5.5c0 .28.22.5.5.5h2a.5.5 0 0 0 .5-.5V20h13v1.5c0 .28.22.5.5.5h2a.5.5 0 0 0 .5-.5V16h-3v-1h3v-.31L31.52 13H15.48Zm15.36-1L30 10.65a15.6 15.6 0 0 0-1.25-1.67 62.38 62.38 0 0 0-10.5-.02 17 17 0 0 0-1.25 1.7L16.16 12h14.68ZM19.3 15h8.42l1.4 1.4-.16.31c-.34.74-.65 1.32-.92 1.72-.14.2-.28.38-.42.5a.92.92 0 0 1-.61.27h-7a.92.92 0 0 1-.6-.27 2.4 2.4 0 0 1-.43-.5c-.27-.4-.58-.98-.92-1.72l-.15-.32L19.3 15Zm.42 1-.6.6c.26.57.5.99.69 1.27.11.17.2.27.26.32l.01.01h6.86v-.01c.07-.05.16-.15.27-.32.2-.28.43-.7.7-1.27l-.6-.6h-7.6Z"/></svg>