<svg width="48" height="48" fill="none" xmlns="http://www.w3.org/2000/svg"><path fill="currentColor" d="M9 17.5C9 9.52 15.52 3 23.5 3S38 9.52 38 17.5c0 2.04-.92 4.78-2.23 7.67a89.62 89.62 0 0 1-4.84 8.98 170.34 170.34 0 0 1-6.98 10.59l-.03.04-.01.01-.41-.29-.4.3-.02-.02-.03-.04a65.55 65.55 0 0 1-.56-.8 165.99 165.99 0 0 1-6.42-9.8 89.62 89.62 0 0 1-4.84-8.97C9.92 22.27 9 19.54 9 17.5Zm14.5 27-.4.3.4.55.4-.56-.4-.29Zm0-.86a132.23 132.23 0 0 0 1.77-2.56 169.5 169.5 0 0 0 4.8-7.45 88.7 88.7 0 0 0 4.79-8.87c1.3-2.89 2.14-5.45 2.14-7.26C37 10.08 30.92 4 23.5 4S10 10.08 10 17.5c0 1.8.83 4.37 2.14 7.26a88.7 88.7 0 0 0 4.79 8.87 169.5 169.5 0 0 0 6.57 10.01ZM17 13.05c1.87-2 3.9-3.05 6.5-3.05 4.18 0 7.5 3.32 7.5 7.5S27.68 25 23.5 25a7.52 7.52 0 0 1-6.53-3.75l.86-.5A6.52 6.52 0 0 0 23.5 24c3.62 0 6.5-2.88 6.5-6.5S27.12 11 23.5 11c-2.37 0-4.22.97-6.01 3H21v1h-5v-5h1v3.05Zm6 .95h1v4h3v1h-4v-5Z"/></svg>