<svg width="24" height="24" fill="none" xmlns="http://www.w3.org/2000/svg"><path fill="currentColor" d="M13 10h1.8L13 11.8V10Z"/><path fill="currentColor" d="M11.5.8a7.82 7.82 0 0 0-7.7 7.8c0 1.11.5 2.58 1.17 4.1.68 1.53 1.6 3.19 2.5 4.7a90.13 90.13 0 0 0 3.54 5.47l.06.09.02.02.41.58.4-.57h.01l.02-.03.06-.09a62.81 62.81 0 0 0 1.05-1.53 97.66 97.66 0 0 0 2.49-3.93 46.7 46.7 0 0 0 2.5-4.72c.68-1.51 1.17-2.98 1.17-4.09 0-4.27-3.52-7.8-7.7-7.8ZM7 6V5h9v1H7Zm0 6.2V7h1v5h4V9h3V7h1v3.2L13.2 13H8c-.17 0-.37-.04-.55-.13C7.3 12.8 7 12.6 7 12.2Z"/></svg>