<svg width="24" height="24" fill="none" xmlns="http://www.w3.org/2000/svg"><path fill="currentColor" d="M3.8 8.6C3.8 4.33 7.32.8 11.5.8s7.7 3.53 7.7 7.8c0 1.11-.5 2.58-1.17 4.1l-.52 1.1-3.23-3.22a3.38 3.38 0 0 0-.34-4.55c-1.36-1.25-3.58-1.41-4.9.03-1.25 1.36-1.42 3.58.01 4.9A3.4 3.4 0 0 0 11.5 12c.74 0 1.5-.22 2.1-.7l3.43 3.44c-.47.9-.99 1.8-1.5 2.67a90.11 90.11 0 0 1-3.54 5.46l-.06.09-.02.02V23l-.41.57-.41-.58-.02-.02-.06-.09a69.6 69.6 0 0 1-1.05-1.53 90.13 90.13 0 0 1-2.49-3.93 47.55 47.55 0 0 1-2.5-4.72C4.29 11.18 3.8 9.71 3.8 8.6Z"/><path fill="currentColor" d="M9.77 6.74c.88-.96 2.45-.92 3.5.03.97.9.99 2.46-.02 3.48l-.02.01-.01.02c-.39.46-1.03.72-1.72.72a2.4 2.4 0 0 1-1.75-.75v-.01h-.01c-.96-.88-.92-2.46.03-3.5Z"/></svg>