<svg width="24" height="24" fill="none" xmlns="http://www.w3.org/2000/svg"><path fill="currentColor" d="M3.8 8.6C3.8 4.33 7.32.8 11.5.8s7.7 3.53 7.7 7.8c0 1.11-.5 2.58-1.17 4.1a47.55 47.55 0 0 1-2.5 4.7 90.12 90.12 0 0 1-3.54 5.47l-.06.09-.02.02V23l-.41-.29-.4.29h-.01l-.02-.03-.06-.09a57.24 57.24 0 0 1-1.05-1.53 90.12 90.12 0 0 1-2.49-3.93 47.55 47.55 0 0 1-2.5-4.72C4.29 11.18 3.8 9.71 3.8 8.6Zm7.7 14.1-.4.29.4.57.4-.57-.4-.29Zm0-.87a86.98 86.98 0 0 0 3.17-4.94c.9-1.5 1.78-3.12 2.45-4.6A10.3 10.3 0 0 0 18.2 8.6c0-3.73-3.08-6.8-6.7-6.8a6.82 6.82 0 0 0-6.7 6.8c0 .89.4 2.18 1.08 3.69.67 1.48 1.55 3.1 2.45 4.6a89.14 89.14 0 0 0 3.17 4.94Zm0-18.45 5.8 4.22-.6.8-.7-.5V12H8.4c-.81 0-1.4-.66-1.4-1.5V7.9l-.7.5-.6-.8 5.8-4.22ZM8 7.16v3.34c0 .36.21.5.4.5H15V7.16l-3.5-2.54L8 7.16Z"/></svg>