<svg width="24" height="24" fill="none" xmlns="http://www.w3.org/2000/svg"><path fill="currentColor" d="M10 4.5c0-.26.2-.5.5-.5h2c.3 0 .5.24.5.5v2c0 .19-.06.3-.13.37S12.7 7 12.5 7h-2c-.19 0-.3-.06-.37-.13S10 6.7 10 6.5v-2Zm4.5 5.7h.5-.5ZM9 10.16v-.03A.48.48 0 0 1 9 10h4.96v.02a.63.63 0 0 1 .04.18V13H9v-2.84Z"/><path fill="currentColor" d="M3.8 8.6C3.8 4.33 7.32.8 11.5.8s7.7 3.53 7.7 7.8c0 1.11-.5 2.58-1.17 4.1a47.55 47.55 0 0 1-2.5 4.7 90.11 90.11 0 0 1-3.54 5.47l-.06.09-.43.6-.43-.6-.06-.09a69.6 69.6 0 0 1-1.05-1.53 90.13 90.13 0 0 1-2.49-3.93 47.55 47.55 0 0 1-2.5-4.72C4.29 11.18 3.8 9.71 3.8 8.6ZM10.5 3C9.6 3 9 3.76 9 4.5v2c0 .41.14.8.42 1.08.28.28.67.42 1.08.42h2c.41 0 .8-.14 1.08-.42.28-.28.42-.67.42-1.08v-2c0-.74-.6-1.5-1.5-1.5h-2ZM9 9a.98.98 0 0 0-.66.23 1 1 0 0 0-.3.48 1.4 1.4 0 0 0-.04.5V14h7v-3.82a1.34 1.34 0 0 0-.01-.15 1.63 1.63 0 0 0-.08-.35 1.1 1.1 0 0 0-.28-.44A.9.9 0 0 0 14 9H9Z"/></svg>