<svg width="24" height="24" fill="none" xmlns="http://www.w3.org/2000/svg"><path fill="currentColor" d="M8 10.5V7.16l3.5-2.54L15 7.16V11H8.4c-.19 0-.4-.14-.4-.5Z"/><path fill="currentColor" d="M11.5.8c4.18 0 7.7 3.53 7.7 7.8 0 1.11-.5 2.58-1.17 4.1a47.55 47.55 0 0 1-2.5 4.7 90.11 90.11 0 0 1-3.54 5.47l-.06.09-.43.6-.43-.6-.06-.09a69.6 69.6 0 0 1-1.05-1.53 90.13 90.13 0 0 1-2.49-3.93 47.55 47.55 0 0 1-2.5-4.72C4.29 11.18 3.8 9.71 3.8 8.6 3.8 4.33 7.32.8 11.5.8Zm5.8 6.8-5.8-4.22L5.7 7.6l.6.8.7-.5v2.6c0 .84.59 1.5 1.4 1.5H16V7.9l.7.5.6-.8Z"/></svg>