<svg width="48" height="48" fill="none" xmlns="http://www.w3.org/2000/svg"><path fill="currentColor" d="M9 17.5C9 9.52 15.52 3 23.5 3S38 9.52 38 17.5c0 2.04-.92 4.78-2.23 7.67a89.62 89.62 0 0 1-4.84 8.98 170.34 170.34 0 0 1-6.98 10.59l-.03.04-.01.01-.41-.29-.4.3-.02-.02-.03-.04a65.55 65.55 0 0 1-.56-.8 165.99 165.99 0 0 1-6.42-9.8 89.62 89.62 0 0 1-4.84-8.97C9.92 22.27 9 19.54 9 17.5Zm14.5 27-.4.3.4.55.4-.56-.4-.29Zm0-.86a132.23 132.23 0 0 0 1.77-2.56 169.5 169.5 0 0 0 4.8-7.45 88.7 88.7 0 0 0 4.79-8.87c1.3-2.89 2.14-5.45 2.14-7.26C37 10.08 30.92 4 23.5 4S10 10.08 10 17.5c0 1.8.83 4.37 2.14 7.26a88.7 88.7 0 0 0 4.79 8.87 169.5 169.5 0 0 0 6.57 10.01ZM22 8c-.82 0-1.5.68-1.5 1.5v3c0 .82.68 1.5 1.5 1.5h3c.82 0 1.5-.68 1.5-1.5v-3c0-.82-.68-1.5-1.5-1.5h-3Zm-2.5 1.5A2.5 2.5 0 0 1 22 7h3a2.5 2.5 0 0 1 2.5 2.5v3A2.5 2.5 0 0 1 25 15h-3a2.5 2.5 0 0 1-2.5-2.5v-3Zm-2.75 7.85c.27-.22.62-.35 1.05-.35h11.5a1.55 1.55 0 0 1 1.55 1.08c.06.15.1.3.12.42h.13V26h-15v-6.99a1.86 1.86 0 0 1 0-.28c.02-.17.05-.4.14-.65.1-.25.25-.52.5-.73ZM30.1 19.5h-.13l.03-.53a1.15 1.15 0 0 0 0-.17c-.01-.1-.03-.25-.08-.38a.67.67 0 0 0-.2-.3c-.07-.06-.2-.12-.42-.12H17.8c-.22 0-.35.06-.42.12a.67.67 0 0 0-.2.3 1.47 1.47 0 0 0-.08.54V25h13v-5.5Z"/></svg>