<svg width="24" height="24" fill="none" xmlns="http://www.w3.org/2000/svg"><path fill="currentColor" d="M11.5.8a7.82 7.82 0 0 0-7.7 7.8c0 1.11.5 2.58 1.17 4.1.68 1.53 1.6 3.19 2.5 4.7a90.13 90.13 0 0 0 3.6 5.56l.43.6.4-.57a57.6 57.6 0 0 0 1.14-1.65 97.66 97.66 0 0 0 2.49-3.93 46.7 46.7 0 0 0 2.5-4.72c.68-1.51 1.17-2.98 1.17-4.09 0-4.27-3.52-7.8-7.7-7.8Zm1 4.2C14.48 5 16 6.52 16 8.5S14.48 12 12.5 12v-1c1.42 0 2.5-1.08 2.5-2.5S13.92 6 12.5 6c-1.44 0-2.5.99-2.5 2.5v.76l1.54-1.6.72.69-2.75 2.86-2.86-2.86.7-.7L9 9.29V8.5C9 6.41 10.54 5 12.5 5Z"/></svg>