<svg width="16" height="16" fill="none" xmlns="http://www.w3.org/2000/svg"><path fill="currentColor" d="M3 6c0-2.78 2.22-5 5-5s5 2.22 5 5c0 .74-.32 1.7-.75 2.66-.43.99-1 2.06-1.57 3.03a59.53 59.53 0 0 1-2.22 3.52l-.04.05v.02L8 15l-.41.28-.01-.02-.04-.05a37.55 37.55 0 0 1-.66-1c-.43-.64-1-1.54-1.56-2.52a31.35 31.35 0 0 1-1.57-3.03A7.36 7.36 0 0 1 3 6Zm5 9-.41.28.41.6.41-.6L8 15Zm0-.9a60.84 60.84 0 0 0 1.82-2.91c.56-.96 1.1-1.99 1.52-2.93A6.5 6.5 0 0 0 12 6c0-2.23-1.77-4-4-4S4 3.77 4 6c0 .51.24 1.3.66 2.26.41.94.96 1.97 1.52 2.93A58.5 58.5 0 0 0 8 14.1ZM6 6a2 2 0 1 1 4 0 2 2 0 0 1-4 0Zm2-1a1 1 0 1 0 0 2 1 1 0 0 0 0-2Z"/></svg>