<svg width="24" height="24" fill="none" xmlns="http://www.w3.org/2000/svg"><path fill="currentColor" d="m10.33 7.15 1.16-2.25 1.18 2.36 2.55.38-1.86 1.79.47 2.56-2.23-1.15-2.23 1.15.47-2.56-1.97-1.9 2.46-.38Z"/><path fill="currentColor" d="M3.8 8.6C3.8 4.33 7.32.8 11.5.8s7.7 3.53 7.7 7.8c0 1.11-.5 2.58-1.17 4.1a47.55 47.55 0 0 1-2.5 4.7 90.11 90.11 0 0 1-3.54 5.47l-.06.09-.43.6-.43-.6-.06-.09a69.6 69.6 0 0 1-1.05-1.53 90.13 90.13 0 0 1-2.49-3.93 47.55 47.55 0 0 1-2.5-4.72C4.29 11.18 3.8 9.71 3.8 8.6Zm9.53-2.26L11.51 2.7 9.67 6.25l-3.94.61 3.03 2.91-.73 4.04 3.57-1.85 3.57 1.85-.73-4.03 2.94-2.82-4.05-.62Z"/></svg>