<svg width="48" height="48" fill="none" xmlns="http://www.w3.org/2000/svg"><path fill="currentColor" d="M9 17.5C9 9.52 15.52 3 23.5 3S38 9.52 38 17.5c0 2.04-.92 4.78-2.23 7.67a89.62 89.62 0 0 1-4.84 8.98 170.34 170.34 0 0 1-6.98 10.59l-.03.04-.01.01-.41-.29-.4.3-.02-.02-.03-.04a65.55 65.55 0 0 1-.56-.8 165.99 165.99 0 0 1-6.42-9.8 89.62 89.62 0 0 1-4.84-8.97C9.92 22.27 9 19.54 9 17.5Zm14.5 27-.4.3.4.55.4-.56-.4-.29Zm0-.86a132.23 132.23 0 0 0 1.77-2.56 169.5 169.5 0 0 0 4.8-7.45 88.7 88.7 0 0 0 4.79-8.87c1.3-2.89 2.14-5.45 2.14-7.26C37 10.08 30.92 4 23.5 4S10 10.08 10 17.5c0 1.8.83 4.37 2.14 7.26a88.7 88.7 0 0 0 4.79 8.87 169.5 169.5 0 0 0 6.57 10.01ZM29 11H16v-1h13v1ZM16 21.83V12h13v5.7L23.7 23H20l.01 1.83c0 .08.03.12.04.13.01.01.05.04.13.04h10.65c.08 0 .12-.03.13-.04.01-.01.04-.05.04-.13V14h1v10.83c0 .31-.1.61-.33.84a1.2 1.2 0 0 1-.84.33H20.18c-.31 0-.61-.1-.84-.33a1.17 1.17 0 0 1-.33-.84h.5-.5m0-1.83h-1.84c-.7 0-1.17-.6-1.17-1.17M28 13H17v8.83c0 .03.02.08.05.12.03.03.07.05.12.05H23v-5h5v-4Zm-.7 5H24v3.3l3.3-3.3Z"/></svg>