<svg width="24" height="24" fill="none" xmlns="http://www.w3.org/2000/svg"><path fill="currentColor" d="M7 7.68 9.23 5h4.53L16 7.71V8h-2v1h2v2h-1.5v-1h-6v1H7V9h2V8H7v-.32Z"/><path fill="currentColor" d="M11.5.8c4.18 0 7.7 3.53 7.7 7.8 0 1.11-.5 2.58-1.17 4.1a47.55 47.55 0 0 1-2.5 4.7 90.11 90.11 0 0 1-3.54 5.47l-.06.09-.43.6-.43-.6-.06-.09a69.6 69.6 0 0 1-1.05-1.53 90.13 90.13 0 0 1-2.49-3.93 47.55 47.55 0 0 1-2.5-4.72C4.29 11.18 3.8 9.71 3.8 8.6 3.8 4.33 7.32.8 11.5.8ZM14.24 4H8.77L6 7.32V11a1 1 0 0 0 1 1h1.5a1 1 0 0 0 1-1h4a1 1 0 0 0 1 1H16a1 1 0 0 0 1-1V7.35L14.24 4Z"/></svg>