<svg width="48" height="48" fill="none" xmlns="http://www.w3.org/2000/svg"><path fill="currentColor" d="M9 17.5C9 9.52 15.52 3 23.5 3S38 9.52 38 17.5c0 2.04-.92 4.78-2.23 7.67a89.62 89.62 0 0 1-4.84 8.98 170.34 170.34 0 0 1-6.98 10.59l-.03.04-.01.01-.41-.29-.4.3-.02-.02-.03-.04a65.55 65.55 0 0 1-.56-.8 165.99 165.99 0 0 1-6.42-9.8 89.62 89.62 0 0 1-4.84-8.97C9.92 22.27 9 19.54 9 17.5Zm14.5 27-.4.3.4.55.4-.56-.4-.29Zm0-.86a132.23 132.23 0 0 0 1.77-2.56 169.5 169.5 0 0 0 4.8-7.45 88.7 88.7 0 0 0 4.79-8.87c1.3-2.89 2.14-5.45 2.14-7.26C37 10.08 30.92 4 23.5 4S10 10.08 10 17.5c0 1.8.83 4.37 2.14 7.26a88.7 88.7 0 0 0 4.79 8.87 169.5 169.5 0 0 0 6.57 10.01Zm0-36.26 3.13 6.26 6.94 1.01-5.03 4.92 1.23 6.94-6.27-3.25-6.27 3.25 1.23-6.94-5.03-4.92 6.94-1 3.13-6.27Zm0 2.24-2.47 4.94-5.46.79 3.97 3.88-.97 5.46 4.93-2.55 4.93 2.55-.97-5.46 3.97-3.88-5.46-.8-2.47-4.93Z"/></svg>