<svg width="48" height="48" fill="none" xmlns="http://www.w3.org/2000/svg"><path fill="currentColor" d="M8 17.5C8 9.52 14.52 3 22.5 3S37 9.52 37 17.5c0 2.04-.92 4.78-2.23 7.67a89.62 89.62 0 0 1-4.84 8.98 170.34 170.34 0 0 1-6.98 10.59l-.03.04-.01.01-.41-.29-.4.3-.02-.02-.03-.04a65.55 65.55 0 0 1-.56-.8 165.99 165.99 0 0 1-6.42-9.8 89.62 89.62 0 0 1-4.84-8.97C8.92 22.27 8 19.54 8 17.5Zm14.5 27-.4.3.4.55.4-.56-.4-.29Zm0-.86a132.23 132.23 0 0 0 1.77-2.56 169.5 169.5 0 0 0 4.8-7.45 88.7 88.7 0 0 0 4.79-8.87c1.3-2.89 2.14-5.45 2.14-7.26C36 10.08 29.92 4 22.5 4S9 10.08 9 17.5c0 1.8.83 4.37 2.14 7.26a88.7 88.7 0 0 0 4.79 8.87 169.5 169.5 0 0 0 6.57 10.01ZM15 17.5a7.5 7.5 0 1 1 15 0 7.5 7.5 0 0 1-15 0Zm7.5-6.5a6.5 6.5 0 1 0 0 13 6.5 6.5 0 0 0 0-13Zm17.41 9.8c4.08.1 7.3 3.53 7.09 7.61 0 1.07-.49 2.48-1.15 3.93a46.31 46.31 0 0 1-2.47 4.54 88.67 88.67 0 0 1-3.5 5.3l-.05.08-.02.03-.41-.29-.4.29-.06-.07-.14-.2a256 256 0 0 1-2.25-3.24 125.09 125.09 0 0 1-3.88-5.92l.86-.52c.94 1.59 2.5 3.93 3.84 5.88a311.45 311.45 0 0 0 2.03 2.91 88.37 88.37 0 0 0 3.12-4.76 45.32 45.32 0 0 0 2.42-4.45A9.7 9.7 0 0 0 46 28.4v-.03a6.27 6.27 0 0 0-6.1-6.57h-.5v-1h.51ZM39.4 42l-.4.29.4.57.4-.57-.4-.29ZM36 28.1a3.6 3.6 0 1 1 7.2 0 3.6 3.6 0 0 1-7.2 0Zm3.6-2.6a2.6 2.6 0 1 0 0 5.2 2.6 2.6 0 0 0 0-5.2Z"/></svg>