<svg width="24" height="24" fill="none" xmlns="http://www.w3.org/2000/svg"><path fill="currentColor" d="M17.2 16.53c.63-1.14 1.24-2.3 1.74-3.43.39-.85.73-1.74.96-2.59l.32-.01c2.02 0 3.72 1.7 3.72 3.77a5.5 5.5 0 0 1-.56 1.98 23 23 0 0 1-1.21 2.28 43.68 43.68 0 0 1-1.71 2.64l-.03.04v.01h-.01l-.2.28-.2-.28v-.01l-.04-.04a22.98 22.98 0 0 1-.5-.74 43.7 43.7 0 0 1-1.2-1.9c-.39-.65-.77-1.34-1.09-2ZM3.8 8.6C3.8 4.33 7.32.8 11.5.8s7.7 3.53 7.7 7.8c0 1.11-.5 2.58-1.17 4.1a47.55 47.55 0 0 1-2.5 4.7 90.11 90.11 0 0 1-3.54 5.47l-.06.09-.02.02V23l-.41.57-.41-.58-.02-.02-.06-.09a69.6 69.6 0 0 1-1.05-1.53 90.13 90.13 0 0 1-2.49-3.93 47.55 47.55 0 0 1-2.5-4.72C4.29 11.18 3.8 9.71 3.8 8.6ZM9 8.5a2.5 2.5 0 1 0 5 0 2.5 2.5 0 0 0-5 0Z"/></svg>