<svg width="16" height="16" fill="none" xmlns="http://www.w3.org/2000/svg"><path fill="currentColor" fill-opacity=".01" d="M0 0h16v16H0z"/><path fill="currentColor" fill-rule="evenodd" d="M4.5 1.54V0h1v1.54c.6.08 1.14.31 1.6.66l1.08-1.1.7.7L7.8 2.9c.35.45.58 1 .66 1.59H9.5v1H8.46c-.08.6-.31 1.14-.66 1.6l1.1 1.09-.7.7L7.1 7.8c-.45.35-1 .58-1.59.66v2.04A2.5 2.5 0 0 1 3 13H2a1 1 0 1 0 0 2h9c.82 0 1.5-.68 1.5-1.5V7.96A3 3 0 0 1 10 5V3h1V0h1v3h2V0h1v3h1v2a3 3 0 0 1-2.5 2.96v5.54A2.5 2.5 0 0 1 11 16H2a2 2 0 1 1 0-4h1c.82 0 1.5-.68 1.5-1.5V8.46a3.48 3.48 0 0 1-1.6-.66L1.82 8.9l-.7-.7L2.2 7.1c-.35-.45-.58-1-.66-1.59H.5v-1h1.04c.08-.6.31-1.14.66-1.6L1.1 1.82l.7-.7L2.9 2.2c.45-.35 1-.58 1.59-.66Zm.5.96a2.5 2.5 0 1 0 0 5 2.5 2.5 0 0 0 0-5ZM11 4v1a2 2 0 0 0 4 0V4h-4Z" clip-rule="evenodd"/></svg>