<svg width="48" height="48" fill="none" xmlns="http://www.w3.org/2000/svg"><path fill="currentColor" d="M6 25h4v1H6a17.54 17.54 0 0 0 4.8 11.49l2.85-2.84.7.7-3.55 3.56-.35-.36A18.53 18.53 0 0 1 5 25.5C5 15.32 13.32 7 23.5 7S42 15.32 42 25.5a18.1 18.1 0 0 1-5.45 13.06l-.36.34-3.54-3.55.7-.7 2.85 2.84c2.89-2.97 4.67-7 4.8-11.49h-4v-1h4a17.44 17.44 0 0 0-4.8-11.5l-2.85 2.85-.7-.7 2.85-2.86A17.44 17.44 0 0 0 24 8.01V12h-1V8a17.44 17.44 0 0 0-11.5 4.8l2.85 2.85-.7.7-2.86-2.85A17.44 17.44 0 0 0 6.01 25Zm14 .5a3.5 3.5 0 1 1 6.93.7l8.04 2.93-.34.94-8.04-2.93A3.5 3.5 0 0 1 20 25.5Zm3.5-2.5a2.5 2.5 0 1 0 0 5 2.5 2.5 0 0 0 0-5Z"/></svg>