<svg width="16" height="16" fill="none" xmlns="http://www.w3.org/2000/svg"><path fill="currentColor" d="m3.3 3.52 1.56 1.63-.72.7-1.55-1.62A6.47 6.47 0 0 0 1.02 8H3v1H1.02c.1 1.4.64 2.73 1.58 3.8l1.6-1.2.6.8-2.31 1.73-.3-.3A7.48 7.48 0 0 1 0 8.5 7.48 7.48 0 0 1 7.5 1 7.48 7.48 0 0 1 15 8.5c0 2.05-.81 3.96-2.18 5.32l-.3.3-2.32-1.72.6-.8 1.61 1.2A6.53 6.53 0 0 0 13.99 9H12V8h1.99a6.47 6.47 0 0 0-1.58-3.77l-1.55 1.62-.72-.7 1.56-1.63A6.47 6.47 0 0 0 8 2.02V4H7V2.02a6.5 6.5 0 0 0-3.7 1.5Zm7.48 6.93-4-2 .44-.9 4 2-.44.9Z"/></svg>