<svg width="48" height="48" fill="none" xmlns="http://www.w3.org/2000/svg"><path fill="currentColor" d="M18.94 3a1.5 1.5 0 0 0-1.42 1.03L15.6 9.76a5.5 5.5 0 0 0 0 3.48l1.08 3.26a3.48 3.48 0 0 1 2.31-.46V3h-.06ZM20 16.34a3.5 3.5 0 0 1 1.87 2.22l4.46.77a6.5 6.5 0 0 1 3.57 2.05l4 4.53c.72.8.84 1.97.3 2.9l-.53.92-12.98-7.5a3.49 3.49 0 0 1-3.58.48l-2.61 2.96a6.5 6.5 0 0 1-3.56 2.05L5 28.93a2.5 2.5 0 0 1-2.66-1.2l-.53-.91 13.2-7.62a3.4 3.4 0 0 1 .85-2l-1.21-3.64a6.5 6.5 0 0 1 0-4.12l1.91-5.73A2.5 2.5 0 0 1 18.94 2H20v14.34Zm2 3.25a3.5 3.5 0 0 1-.62 1.9l11.93 6.88.03-.05a1.5 1.5 0 0 0-.18-1.75l-4.01-4.52a5.5 5.5 0 0 0-3-1.74L22 19.59Zm-5.75 2.59a3.5 3.5 0 0 1-1.16-1.87L3.2 27.18l.02.05c.33.56.97.85 1.6.72l5.92-1.2A5.5 5.5 0 0 0 13.75 25l2.5-2.82ZM37 9V4.5h1V9h5V4.5h1V9h3v6.5a6.5 6.5 0 0 1-6 6.48V40.5a4.5 4.5 0 0 1-4.5 4.5H8a4 4 0 0 1 0-8h6.5a3.5 3.5 0 0 0 3.5-3.5V25h1v8.5a4.5 4.5 0 0 1-4.5 4.5H8a3 3 0 1 0 0 6h28.5a3.5 3.5 0 0 0 3.5-3.5V21.98a6.5 6.5 0 0 1-6-6.48V9h3Zm-2 1v5.5a5.5 5.5 0 0 0 11 0V10H35Zm-16.5 7a2.5 2.5 0 1 0 0 5 2.5 2.5 0 0 0 0-5Z"/></svg>