<svg width="24" height="24" fill="none" xmlns="http://www.w3.org/2000/svg"><path fill="currentColor" d="M9 2.05a.5.5 0 0 0-.25.3L7.79 5.2a2.5 2.5 0 0 0 0 1.58l.45 1.36A2 2 0 0 1 9 8V2.05Zm1 6.22a2 2 0 0 1 .85.97l2.12.43a3.5 3.5 0 0 1 1.92 1.1l2 2.27c.43.48.5 1.18.18 1.74l-.4.68-6.56-3.8a2 2 0 0 1-1.73.24l-1.2 1.35a3.5 3.5 0 0 1-1.91 1.1l-2.96.61a1.5 1.5 0 0 1-1.6-.72l-.4-.67L7.03 9.7c.05-.34.19-.65.38-.9l-.56-1.7a3.5 3.5 0 0 1 0-2.2l.96-2.87A1.5 1.5 0 0 1 9.22 1H10v7.27Zm.98 2.01c-.03.22-.1.43-.2.62l5.49 3.17a.5.5 0 0 0-.13-.37l-2-2.26a2.5 2.5 0 0 0-1.37-.8l-1.79-.36Zm-3.45 1.07a2 2 0 0 1-.37-.58l-5.43 3.14c.1.07.24.1.38.07l2.96-.6a2.5 2.5 0 0 0 1.37-.8l1.09-1.23ZM17 4V1h1v3h3V1h1v3h1v3.5a3.5 3.5 0 0 1-3 3.46v9.54a2.5 2.5 0 0 1-2.5 2.5H4a2.5 2.5 0 0 1 0-5h3c.83 0 1.5-.67 1.5-1.5V13h1v3.5A2.5 2.5 0 0 1 7 19H4a1.5 1.5 0 0 0 0 3h13.5c.83 0 1.5-.67 1.5-1.5v-9.54a3.5 3.5 0 0 1-3-3.46V4h1Zm5 1h-5v2.5a2.5 2.5 0 0 0 5 0V5ZM9 9a1 1 0 1 0 0 2 1 1 0 0 0 0-2Z"/></svg>