<svg width="24" height="24" fill="none" xmlns="http://www.w3.org/2000/svg"><path fill="currentColor" d="M7 2.52V0h1v2.52c1 .1 1.92.5 2.66 1.1l1.79-1.78.7.71-1.78 1.79A5 5 0 0 1 12.47 7H15v1h-2.52c-.1 1-.5 1.92-1.1 2.66l1.78 1.79-.71.7-1.79-1.78A5 5 0 0 1 8 12.47V15H7v-2.52c-1-.1-1.92-.5-2.66-1.1l-1.79 1.78-.7-.71 1.78-1.79A5 5 0 0 1 2.53 8H0V7h2.52c.1-1 .5-1.92 1.1-2.66L1.85 2.55l.71-.7 1.79 1.78a5 5 0 0 1 2.66-1.1ZM17 4V1h1v3h3V1h1v3h1v3.5a3.5 3.5 0 0 1-3 3.46v9.54a2.5 2.5 0 0 1-2.5 2.5H4a2.5 2.5 0 0 1 0-5h1.5c.83 0 1.5-.67 1.5-1.5V16h1v.5A2.5 2.5 0 0 1 5.5 19H4a1.5 1.5 0 0 0 0 3h13.5c.83 0 1.5-.67 1.5-1.5v-9.54a3.5 3.5 0 0 1-3-3.46V4h1Zm5 1h-5v2.5a2.5 2.5 0 0 0 5 0V5ZM7.5 3.5a4 4 0 1 0 0 8 4 4 0 0 0 0-8Z"/></svg>