<svg width="16" height="16" fill="none" xmlns="http://www.w3.org/2000/svg"><path fill="currentColor" fill-opacity=".01" d="M0 0h16v16H0z"/><path fill="currentColor" fill-rule="evenodd" d="M0 2.5A2.5 2.5 0 0 1 2.5 0H9v7.5A2.5 2.5 0 0 1 6.5 10h-2v.5A2.5 2.5 0 0 1 2 13a1 1 0 1 0 0 2h9c.82 0 1.5-.68 1.5-1.5V7.96A3 3 0 0 1 10 5V3h1V0h1v3h2V0h1v3h1v2a3 3 0 0 1-2.5 2.96v5.54A2.5 2.5 0 0 1 11 16H2a2 2 0 1 1 0-4c.82 0 1.5-.68 1.5-1.5V10H0V2.5ZM2.5 1C1.67 1 1 1.67 1 2.5V9h5.5C7.33 9 8 8.33 8 7.5V1H2.5Zm1.5.98.95-.22c.26.51.47.93.78 1.24.28.29.65.49 1.27.49v1a2.68 2.68 0 0 1-2.32-1.18c-.14.25-.33.47-.58.64-.56.4-1.3.53-2.1.54v-1c.7 0 1.2-.13 1.52-.35.28-.2.48-.53.48-1.16ZM11 4v1a2 2 0 0 0 4 0V4h-4Zm-7 .99.95-.22c.26.51.47.93.78 1.24.28.29.65.49 1.27.49v1a2.68 2.68 0 0 1-2.32-1.18c-.14.25-.33.47-.58.64-.56.4-1.3.53-2.1.54v-1c.7 0 1.2-.13 1.52-.35.28-.2.48-.53.48-1.16Z" clip-rule="evenodd"/></svg>