<svg width="48" height="48" fill="none" xmlns="http://www.w3.org/2000/svg"><path fill="currentColor" fill-opacity=".01" d="M0 0h48v48H0z"/><path fill="currentColor" fill-rule="evenodd" d="M18.94 3a1.5 1.5 0 0 0-1.42 1.03L15.6 9.76a5.5 5.5 0 0 0 0 3.48l1.08 3.26a3.48 3.48 0 0 1 2.31-.46V3h-.06ZM20 16.34V2h-1.06a2.5 2.5 0 0 0-2.37 1.7l-1.91 5.74a6.5 6.5 0 0 0 0 4.12l1.21 3.63c-.48.55-.8 1.24-.86 2l-13.2 7.63.54.91A2.5 2.5 0 0 0 5 28.93l5.93-1.2a6.5 6.5 0 0 0 3.56-2.06l2.61-2.96a3.49 3.49 0 0 0 3.58-.48l12.98 7.5.53-.91a2.5 2.5 0 0 0-.3-2.91l-4-4.53a6.5 6.5 0 0 0-3.56-2.05h-.01l-4.46-.77A3.5 3.5 0 0 0 20 16.34Zm2 3.25a3.5 3.5 0 0 1-.62 1.9l11.93 6.88.03-.05a1.5 1.5 0 0 0-.18-1.75l-4.01-4.52a5.5 5.5 0 0 0-3-1.74L22 19.59Zm-5.75 2.59a3.5 3.5 0 0 1-1.16-1.87L3.2 27.18l.02.05c.33.56.97.85 1.6.72l5.92-1.2A5.5 5.5 0 0 0 13.75 25l2.5-2.82ZM37 9h-3v6.5a6.5 6.5 0 0 0 6 6.48V40.5a3.5 3.5 0 0 1-3.5 3.5H8a3 3 0 1 1 0-6h6.5a4.5 4.5 0 0 0 4.5-4.5V25h-1v8.5a3.5 3.5 0 0 1-3.5 3.5H8a4 4 0 0 0 0 8h28.5a4.5 4.5 0 0 0 4.5-4.5V21.98a6.5 6.5 0 0 0 6-6.48V9h-3V4.5h-1V9h-5V4.5h-1V9Zm-2 1v5.5a5.5 5.5 0 0 0 11 0V10H35Zm-16.5 7a2.5 2.5 0 1 0 0 5 2.5 2.5 0 0 0 0-5Z" clip-rule="evenodd"/></svg>