<svg width="24" height="24" fill="none" xmlns="http://www.w3.org/2000/svg"><path fill="currentColor" d="M1 3.5A2.5 2.5 0 0 1 3.5 1H14v11.5a2.5 2.5 0 0 1-2.5 2.5H1V3.5ZM3.5 2C2.67 2 2 2.67 2 3.5V14h9.5c.83 0 1.5-.67 1.5-1.5V2H3.5ZM17 4V1h1v3h3V1h1v3h1v3.5a3.5 3.5 0 0 1-3 3.46v9.54a2.5 2.5 0 0 1-2.5 2.5H4a2.5 2.5 0 0 1 0-5h1.5c.83 0 1.5-.67 1.5-1.5V16h1v.5A2.5 2.5 0 0 1 5.5 19H4a1.5 1.5 0 0 0 0 3h13.5c.83 0 1.5-.67 1.5-1.5v-9.54a3.5 3.5 0 0 1-3-3.46V4h1Zm5 1h-5v2.5a2.5 2.5 0 0 0 5 0V5ZM7 3.5l.94-.23c.4.76.76 1.43 1.28 1.93.5.47 1.16.8 2.21.8H12v1h-.57a4 4 0 0 1-2.9-1.08c-.3-.3-.56-.62-.78-.97a2.8 2.8 0 0 1-1.05 1.3C5.9 6.8 4.8 7 3.57 7H3V6h.57c1.14 0 2-.2 2.57-.58.52-.35.86-.93.86-1.92Zm0 4 .94-.23c.4.76.76 1.43 1.28 1.93.5.47 1.16.8 2.21.8H12v1h-.57a4 4 0 0 1-2.9-1.08c-.3-.3-.56-.62-.78-.97a2.8 2.8 0 0 1-1.05 1.3c-.8.55-1.91.75-3.13.75H3v-1h.57c1.14 0 2-.2 2.57-.58.52-.35.86-.93.86-1.92Z"/></svg>