<svg width="24" height="24" fill="none" xmlns="http://www.w3.org/2000/svg"><path fill="currentColor" fill-opacity=".01" d="M0 0h24v24H0z"/><path fill="currentColor" fill-rule="evenodd" d="M3.5 1A2.5 2.5 0 0 0 1 3.5V15h10.5a2.5 2.5 0 0 0 2.5-2.5V1H3.5Zm4.44 2.27L7 3.5c0 .99-.34 1.57-.86 1.92-.57.39-1.43.58-2.57.58H3v1h.57C4.8 7 5.9 6.8 6.7 6.25a2.8 2.8 0 0 0 1.05-1.3c.22.35.48.68.78.97A4 4 0 0 0 11.43 7H12V6h-.57a3.02 3.02 0 0 1-2.21-.8 7.27 7.27 0 0 1-1.28-1.93Zm0 4L7 7.5c0 .99-.34 1.57-.86 1.92-.57.39-1.43.58-2.57.58H3v1h.57c1.22 0 2.32-.2 3.13-.75a2.8 2.8 0 0 0 1.05-1.3c.22.35.48.68.78.97a4 4 0 0 0 2.9 1.08H12v-1h-.57a3.02 3.02 0 0 1-2.21-.8 7.27 7.27 0 0 1-1.28-1.93Z" clip-rule="evenodd"/><path fill="currentColor" d="M17 4h-1v3.5a3.5 3.5 0 0 0 2.75 3.42v9.33c0 .69-.56 1.25-1.25 1.25H4A1.25 1.25 0 1 1 4 19h1.5a2.75 2.75 0 0 0 2.75-2.75V16h-1.5v.25c0 .69-.56 1.25-1.25 1.25H4A2.75 2.75 0 1 0 4 23h13.5a2.75 2.75 0 0 0 2.75-2.75v-9.33A3.5 3.5 0 0 0 23 7.5V4h-1V1h-1.5v3h-2V1H17v3Z"/></svg>