<svg width="24" height="24" fill="none" xmlns="http://www.w3.org/2000/svg"><path fill="currentColor" fill-opacity=".01" d="M0 0h24v24H0z"/><path fill="currentColor" d="M7.4 8.8C7.77 8.3 8.6 8 9 8c.4 0 1 .27 1 .27V1h-.78A1.5 1.5 0 0 0 7.8 2.03l-.96 2.86a3.5 3.5 0 0 0 0 2.22l.56 1.68ZM22 4h1v3.5a3.5 3.5 0 0 1-2.75 3.42v9.33A2.75 2.75 0 0 1 17.5 23H4a2.75 2.75 0 1 1 0-5.5h3c.69 0 1.25-.56 1.25-1.25V13h1.5v3.25A2.75 2.75 0 0 1 7 19H4a1.25 1.25 0 1 0 0 2.5h13.5c.69 0 1.25-.56 1.25-1.25v-9.33A3.5 3.5 0 0 1 16 7.5V4h1V1h1.5v3h2V1H22v3Z"/><path fill="currentColor" d="M8 10a1 1 0 1 1 2 0 1 1 0 0 1-2 0ZM.32 13.57l6.7-3.87a2.02 2.02 0 0 0 1.36 2.2l-1.2 1.35a3.5 3.5 0 0 1-1.91 1.1l-2.96.61a1.5 1.5 0 0 1-1.6-.72l-.4-.67Zm16.36 1.89-6.57-3.8S11 11.04 11 10c0-.73-.15-.76-.15-.76l2.12.43a3.5 3.5 0 0 1 1.92 1.1l2 2.27c.43.48.5 1.18.18 1.74l-.4.68Z"/></svg>