<svg width="48" height="48" fill="none" xmlns="http://www.w3.org/2000/svg"><path fill="currentColor" fill-opacity=".01" d="M0 0h48v48H0z"/><path fill="currentColor" fill-rule="evenodd" d="M15.5 7.51V2h1v5.51a9.46 9.46 0 0 1 5.86 2.43l3.9-3.9.7.7-3.9 3.9a9.46 9.46 0 0 1 2.43 5.86H31v1h-5.51a9.46 9.46 0 0 1-2.43 5.85l3.9 3.9-.7.71-3.9-3.9a9.46 9.46 0 0 1-5.86 2.43V32h-1v-5.51a9.46 9.46 0 0 1-5.85-2.43l-3.9 3.9-.7-.7 3.89-3.9A9.46 9.46 0 0 1 6.5 17.5H1v-1h5.51a9.46 9.46 0 0 1 2.43-5.86l-3.9-3.9.7-.7 3.9 3.9A9.46 9.46 0 0 1 15.5 7.5ZM37 9h-3v6.5a6.5 6.5 0 0 0 6 6.48V40.5a3.5 3.5 0 0 1-3.5 3.5H8a3 3 0 1 1 0-6h4a4.5 4.5 0 0 0 4.5-4.5V33h-1v.5A3.5 3.5 0 0 1 12 37H8a4 4 0 0 0 0 8h28.5a4.5 4.5 0 0 0 4.5-4.5V21.98a6.5 6.5 0 0 0 6-6.48V9h-3V4.5h-1V9h-5V4.5h-1V9Zm-21-.5a8.5 8.5 0 1 0 0 17 8.5 8.5 0 0 0 0-17ZM35 10v5.5a5.5 5.5 0 1 0 11 0V10H35Z" clip-rule="evenodd"/></svg>