<svg width="16" height="16" fill="none" xmlns="http://www.w3.org/2000/svg"><path fill="currentColor" d="M6.18 2.26A1.96 1.96 0 0 1 8 1h1v6.56a2 2 0 0 1 1.32 1.12l1.9.11c.7.05 1.34.37 1.78.91l1.52 1.85c.52.63.6 1.5.19 2.21l-.5.87-5.8-3.34a2 2 0 0 1-1.64.07L6.55 13.2a2.5 2.5 0 0 1-1.67 1.1l-2.37.38c-.8.14-1.6-.24-2-.94l-.5-.87L6.54 9.1l.07-.25L5.44 6.5a2.5 2.5 0 0 1-.1-2l.84-2.24Zm.44 7.94-5.25 3.04c.2.34.59.52.97.46l2.37-.4c.41-.06.78-.3 1-.65l1.25-1.88a2 2 0 0 1-.34-.57Zm.65-2.28A2 2 0 0 1 8 7.56V2c-.4 0-.74.24-.88.61l-.85 2.25c-.14.39-.12.82.07 1.2l.93 1.86Zm2.91 2.66 4.66 2.68a.94.94 0 0 0-.09-1.07l-1.52-1.85a1.5 1.5 0 0 0-1.07-.55l-1.67-.1c-.03.33-.14.63-.3.9ZM8.5 8.5a1 1 0 1 0 0 2 1 1 0 0 0 0-2Z"/></svg>