<svg width="24" height="24" fill="none" xmlns="http://www.w3.org/2000/svg"><path fill="currentColor" fill-opacity=".01" d="M0 0h24v24H0z"/><path fill="currentColor" fill-rule="evenodd" d="M7 2.52V0h1v2.52c1 .1 1.92.5 2.66 1.1l1.79-1.78.7.71-1.78 1.79A5 5 0 0 1 12.47 7H15v1h-2.52c-.1 1-.5 1.92-1.1 2.66l1.78 1.79-.71.7-1.79-1.78A5 5 0 0 1 8 12.47V15H7v-2.52c-1-.1-1.92-.5-2.66-1.1l-1.79 1.78-.7-.71 1.78-1.79A5 5 0 0 1 2.53 8H0V7h2.52c.1-1 .5-1.92 1.1-2.66L1.85 2.55l.71-.7 1.79 1.78a5 5 0 0 1 2.66-1.1ZM17 4h-1v3.5a3.5 3.5 0 0 0 3 3.46v9.54c0 .83-.67 1.5-1.5 1.5H4a1.5 1.5 0 0 1 0-3h1.5A2.5 2.5 0 0 0 8 16.5V16H7v.5c0 .83-.67 1.5-1.5 1.5H4a2.5 2.5 0 0 0 0 5h13.5a2.5 2.5 0 0 0 2.5-2.5v-9.54c1.7-.24 3-1.7 3-3.46V4h-1V1h-1v3h-3V1h-1v3Zm5 1h-5v2.5a2.5 2.5 0 0 0 5 0V5ZM7.5 3.5a4 4 0 1 0 0 8 4 4 0 0 0 0-8Z" clip-rule="evenodd"/></svg>