<svg width="24" height="24" fill="none" xmlns="http://www.w3.org/2000/svg"><path fill="currentColor" d="M6.75 0h1.5v2.3c.89.13 1.7.48 2.4 1l1.62-1.63 1.06 1.06-1.63 1.63c.52.68.87 1.5 1 2.39H15v1.5h-2.3c-.13.89-.48 1.7-1 2.4l1.63 1.62-1.06 1.06-1.63-1.63c-.68.52-1.5.87-2.39 1V15h-1.5v-2.3a5.22 5.22 0 0 1-2.4-1l-1.62 1.63-1.06-1.06 1.63-1.63a5.22 5.22 0 0 1-1-2.39H0v-1.5h2.3c.13-.89.48-1.7 1-2.4L1.67 2.74l1.06-1.06L4.36 3.3c.68-.52 1.5-.87 2.39-1V0Zm-3 7.5a3.75 3.75 0 1 0 7.5 0 3.75 3.75 0 0 0-7.5 0Z"/><path fill="currentColor" d="M18.5 4h2V1H22v3h1v3.5a3.5 3.5 0 0 1-2.75 3.42v9.33A2.75 2.75 0 0 1 17.5 23H4a2.75 2.75 0 1 1 0-5.5h1.5c.69 0 1.25-.56 1.25-1.25V16h1.5v.25A2.75 2.75 0 0 1 5.5 19H4a1.25 1.25 0 1 0 0 2.5h13.5c.69 0 1.25-.56 1.25-1.25v-9.33A3.5 3.5 0 0 1 16 7.5V4h1V1h1.5v3Z"/></svg>