<svg width="24" height="24" fill="none" xmlns="http://www.w3.org/2000/svg"><path fill="currentColor" d="M1.01 13H3v1H1.01a10.46 10.46 0 0 0 2.7 6.58l1.44-1.43.7.7-2.15 2.16-.35-.36A11.47 11.47 0 0 1 0 13.5C0 7.12 5.12 2 11.5 2S23 7.12 23 13.5a11.5 11.5 0 0 1-3.35 8.15l-.35.36-2.15-2.16.7-.7 1.44 1.43A10.55 10.55 0 0 0 22 14h-2v-1h1.99a10.46 10.46 0 0 0-2.71-6.57l-1.43 1.42-.7-.7 1.42-1.43A10.46 10.46 0 0 0 12 3.02V5h-1V3.01a10.46 10.46 0 0 0-6.57 2.71l1.42 1.43-.7.7-1.43-1.42A10.46 10.46 0 0 0 1.02 13Zm16.84 2.98-6.5-2 .3-.96 6.5 2-.3.96Z"/></svg>