<svg width="48" height="48" fill="none" xmlns="http://www.w3.org/2000/svg"><path fill="currentColor" fill-opacity=".01" d="M0 0h48v48H0z"/><path fill="currentColor" fill-rule="evenodd" d="M5 5.5A2.5 2.5 0 0 1 7.5 3H27v26.5a2.5 2.5 0 0 1-2.5 2.5H5V5.5ZM7.5 4C6.67 4 6 4.67 6 5.5V31h18.5c.83 0 1.5-.67 1.5-1.5V4H7.5ZM37 9h-3v6.5a6.5 6.5 0 0 0 6 6.48V40.5a3.5 3.5 0 0 1-3.5 3.5H8a3 3 0 1 1 0-6h4a4.5 4.5 0 0 0 4.5-4.5V33h-1v.5A3.5 3.5 0 0 1 12 37H8a4 4 0 0 0 0 8h28.5a4.5 4.5 0 0 0 4.5-4.5V21.98a6.5 6.5 0 0 0 6-6.48V9h-3V4.5h-1V9h-5V4.5h-1V9ZM12.01 9h.49a.5.5 0 0 1 .42.23l.04.06a4.31 4.31 0 0 1 .08.15l.15.3c.15.26.35.62.6.97.25.36.53.69.84.93.3.24.6.36.87.36a2.6 2.6 0 0 0 1.79-.62c.42-.4.7-1.01.71-1.88V9h.5a.5.5 0 0 1 .43.23 3.55 3.55 0 0 1 .11.22l.14.3c.14.26.33.62.58.97.24.35.52.68.83.92.3.23.6.36.91.36H24v1h-2.5c-.6 0-1.11-.25-1.53-.57a5.18 5.18 0 0 1-1.24-1.45 3.1 3.1 0 0 1-.76 1.13c-.65.6-1.53.89-2.47.89-.58 0-1.08-.25-1.49-.58a5.49 5.49 0 0 1-1.33-1.56c-.6 1.29-2 2.14-3.68 2.14H8v-1h1c1.78 0 2.96-1.14 3-2.51l.01-.49ZM35 10v5.5a5.5 5.5 0 1 0 11 0V10H35Zm-22.99 5h.49a.5.5 0 0 1 .42.23l.04.06.06.11.02.04.15.3c.15.26.35.62.6.97.25.36.53.69.84.93.3.24.6.36.87.36a2.6 2.6 0 0 0 1.79-.62c.42-.4.7-1.01.71-1.88V15h.5a.5.5 0 0 1 .43.23 3.5 3.5 0 0 1 .1.18v.04l.15.3c.14.26.33.62.58.97.24.35.52.68.83.92.3.23.6.36.91.36H24v1h-2.5c-.6 0-1.11-.25-1.53-.57a5.18 5.18 0 0 1-1.24-1.45 3.1 3.1 0 0 1-.76 1.13c-.65.6-1.53.89-2.47.89-.58 0-1.08-.25-1.49-.58a5.49 5.49 0 0 1-1.33-1.56c-.6 1.29-2 2.14-3.68 2.14H8v-1h1c1.78 0 2.96-1.14 3-2.51l.01-.49Zm0 6h.49a.5.5 0 0 1 .42.23l.04.06a4.29 4.29 0 0 1 .08.15l.15.3c.15.26.35.62.6.97.25.36.53.69.84.93.3.24.6.36.87.36a2.6 2.6 0 0 0 1.79-.62c.42-.4.7-1.01.71-1.88V21h.5a.5.5 0 0 1 .43.23 3.5 3.5 0 0 1 .1.18v.04l.15.3c.14.26.33.62.58.97.24.35.52.68.83.92.3.23.6.36.91.36H24v1h-2.5c-.6 0-1.11-.25-1.53-.57a5.18 5.18 0 0 1-1.24-1.45 3.1 3.1 0 0 1-.76 1.13c-.65.6-1.53.89-2.47.89-.58 0-1.08-.25-1.49-.58a5.49 5.49 0 0 1-1.33-1.56c-.6 1.29-2 2.14-3.68 2.14H8v-1h1c1.78 0 2.96-1.14 3-2.51l.01-.49Z" clip-rule="evenodd"/></svg>