<svg width="24" height="24" fill="none" xmlns="http://www.w3.org/2000/svg"><path fill="currentColor" fill-opacity=".01" d="M0 0h24v24H0z"/><path fill="currentColor" fill-rule="evenodd" d="M9 2.05a.5.5 0 0 0-.25.3L7.79 5.2a2.5 2.5 0 0 0 0 1.58l.45 1.36A2 2 0 0 1 9 8V2.05Zm1 6.22V1h-.78A1.5 1.5 0 0 0 7.8 2.03l-.96 2.86a3.5 3.5 0 0 0 0 2.22l.56 1.68c-.2.26-.33.57-.38.9l-6.7 3.88.39.67c.32.56.96.85 1.6.72l2.96-.6a3.5 3.5 0 0 0 1.91-1.11l1.2-1.35a2 2 0 0 0 1.73-.24l6.57 3.8.39-.68a1.5 1.5 0 0 0-.18-1.74l-2-2.26a3.5 3.5 0 0 0-1.92-1.11l-2.12-.43a2 2 0 0 0-.85-.97Zm.98 2.01c-.03.22-.1.43-.2.62l5.49 3.17a.5.5 0 0 0-.13-.37l-2-2.26a2.5 2.5 0 0 0-1.37-.8l-1.79-.36Zm-3.45 1.07a2 2 0 0 1-.37-.58l-5.43 3.14c.1.07.24.1.38.07l2.96-.6a2.5 2.5 0 0 0 1.37-.8l1.09-1.23ZM17 4h-1v3.5a3.5 3.5 0 0 0 3 3.46v9.54c0 .83-.67 1.5-1.5 1.5H4a1.5 1.5 0 0 1 0-3h3a2.5 2.5 0 0 0 2.5-2.5V13h-1v3.5c0 .83-.67 1.5-1.5 1.5H4a2.5 2.5 0 0 0 0 5h13.5a2.5 2.5 0 0 0 2.5-2.5v-9.54c1.7-.24 3-1.7 3-3.46V4h-1V1h-1v3h-3V1h-1v3Zm5 1h-5v2.5a2.5 2.5 0 0 0 5 0V5ZM9 9a1 1 0 1 0 0 2 1 1 0 0 0 0-2Z" clip-rule="evenodd"/></svg>