<svg width="24" height="24" fill="none" xmlns="http://www.w3.org/2000/svg"><path fill="currentColor" fill-opacity=".01" d="M0 0h24v24H0z"/><path fill="currentColor" fill-rule="evenodd" d="M6.75 0v2.3c-.89.13-1.7.48-2.4 1L2.74 1.67 1.67 2.73 3.3 4.36c-.52.68-.87 1.5-1 2.39H0v1.5h2.3c.13.89.48 1.7 1 2.4l-1.63 1.62 1.06 1.06 1.63-1.63c.68.52 1.5.87 2.39 1V15h1.5v-2.3c.89-.13 1.7-.48 2.4-1l1.62 1.63 1.06-1.06-1.63-1.63c.52-.68.87-1.5 1-2.39H15v-1.5h-2.3a5.22 5.22 0 0 0-1-2.4l1.63-1.62-1.06-1.06-1.63 1.63a5.22 5.22 0 0 0-2.39-1V0h-1.5Zm-3 7.5a3.75 3.75 0 1 1 7.5 0 3.75 3.75 0 0 1-7.5 0Z" clip-rule="evenodd"/><path fill="currentColor" d="M18.5 4V1H17v3h-1v3.5a3.5 3.5 0 0 0 2.75 3.42v9.33c0 .69-.56 1.25-1.25 1.25H4A1.25 1.25 0 1 1 4 19h1.5a2.75 2.75 0 0 0 2.75-2.75V16h-1.5v.25c0 .69-.56 1.25-1.25 1.25H4A2.75 2.75 0 1 0 4 23h13.5a2.75 2.75 0 0 0 2.75-2.75v-9.33A3.5 3.5 0 0 0 23 7.5V4h-1V1h-1.5v3h-2Z"/></svg>