<svg width="24" height="24" fill="none" xmlns="http://www.w3.org/2000/svg"><path fill="currentColor" d="m3.45.02 4.06 3.83-1.02 1.1-2.24-2.11V7.2c0 1.22.59 2.15 1.34 3.34l.04.07c.76 1.2 1.62 2.6 1.62 4.59 0 3.97-2.8 6.25-5.25 6.25v-1.5c1.55 0 3.75-1.52 3.75-4.75 0-1.52-.64-2.6-1.38-3.79l-.12-.17c-.7-1.1-1.5-2.37-1.5-4.04V3.07L1.13 4.9l-1.12-1L3.45.02Zm16.02.02 4.04 3.81-1.02 1.1-2.24-2.11V7.2c0 1.22.59 2.15 1.34 3.34l.04.07c.76 1.2 1.62 2.6 1.62 4.59 0 3.97-2.8 6.25-5.25 6.25v-1.5c1.55 0 3.75-1.52 3.75-4.75 0-1.52-.64-2.6-1.38-3.79l-.12-.17c-.7-1.1-1.5-2.37-1.5-4.04V3l-1.8 1.91-1.1-1.02L19.47.04ZM11.6.06l3.02 2.9-1.04 1.08-1.33-1.28V7.2c0 1.22.59 2.15 1.34 3.34l.04.07c.76 1.2 1.62 2.6 1.62 4.59 0 3.97-2.8 6.25-5.25 6.25v-1.5c1.55 0 3.75-1.52 3.75-4.75 0-1.52-.64-2.6-1.38-3.79l-.12-.17c-.7-1.1-1.5-2.37-1.5-4.04V2.96L9.62 4.04 8.58 2.96 11.6.06ZM24 24H0v-1.5h24V24Z"/></svg>