<svg width="24" height="24" fill="none" xmlns="http://www.w3.org/2000/svg"><path fill="currentColor" d="m3.48.28 3.87 3.76-.7.72L4 2.18V7.2c0 1.3.62 2.28 1.36 3.45l.06.1C6.17 11.94 7 13.29 7 15.2c0 3.85-2.7 6-5 6v-1c1.7 0 4-1.65 4-5 0-1.6-.67-2.74-1.42-3.92l-.1-.17C3.76 10 3 8.8 3 7.2V2.29L.77 4.74l-.74-.68L3.48.28Zm16 0 3.87 3.76-.7.72L20 2.18V7.2c0 1.3.62 2.28 1.36 3.45l.06.1c.75 1.19 1.58 2.54 1.58 4.45 0 3.85-2.7 6-5 6v-1c1.7 0 4-1.65 4-5 0-1.6-.67-2.74-1.42-3.92l-.1-.17C19.76 10 19 8.8 19 7.2V2.29l-2.23 2.45-.74-.68L19.48.28ZM11.6.3l2.85 2.86-.7.7L12 2.11V7.2c0 1.3.62 2.28 1.36 3.45l.06.1c.75 1.19 1.58 2.54 1.58 4.45 0 3.85-2.7 6-5 6v-1c1.7 0 4-1.65 4-5 0-1.6-.67-2.74-1.42-3.92l-.1-.17C11.76 10 11 8.8 11 7.2V2.3L9.45 3.86l-.7-.7L11.6.29ZM24 23v1H0v-1h24Z"/></svg>