<svg width="16" height="16" fill="none" xmlns="http://www.w3.org/2000/svg"><path fill="currentColor" d="m3.6.3 2.85 2.85-.7.7L4 2.11V5.5c0 .82.46 1.18 1.2 1.75l.1.1c.39.3.82.65 1.15 1.15.34.52.55 1.16.55 2C7 12.43 5.21 14 3 14v-1c1.79 0 3-1.23 3-2.5 0-.66-.16-1.1-.39-1.45a3.95 3.95 0 0 0-.92-.92l-.16-.12C3.85 7.48 3 6.83 3 5.5V2.3L1.45 3.86l-.7-.7L3.6.29Zm7 0 2.85 2.85-.7.7L11 2.11V5.5c0 .82.46 1.18 1.2 1.75l.1.1c.39.3.82.65 1.15 1.15.34.52.55 1.16.55 2 0 1.93-1.79 3.5-4 3.5v-1c1.79 0 3-1.23 3-2.5 0-.66-.16-1.1-.39-1.45a3.95 3.95 0 0 0-.92-.92l-.16-.12C10.85 7.48 10 6.83 10 5.5V2.3L8.45 3.86l-.7-.7L10.6.29ZM16 16H0v-1h16v1Z"/></svg>