<svg width="48" height="48" fill="none" xmlns="http://www.w3.org/2000/svg"><path fill="currentColor" d="m10.6 3.71 4.89 5.97-.78.64L11.1 5.9v6.77a5.27 5.27 0 0 0-.02.56 13.69 13.69 0 0 0 1.66 6.43l.66 1.17c1.7 3 3.1 5.48 3.1 9.17 0 2.05-.4 4.77-1.65 7a7.36 7.36 0 0 1-6.75 4v-1c2.94 0 4.76-1.5 5.88-3.5A13.9 13.9 0 0 0 15.5 30c0-3.41-1.27-5.67-2.98-8.68l-.66-1.18a14.5 14.5 0 0 1-1.76-7.53V5.9l-3.61 4.42-.78-.64 4.89-5.97Zm13 0 4.89 5.97-.78.64L24 5.78V17h-1V6.02l-3.51 4.3-.78-.64 4.89-5.97Zm13 0 4.89 5.97-.78.64L37 5.78V17h-1V6.02l-3.51 4.3-.78-.64 4.89-5.97Zm-12.55 17.3c-.4.15-.8.45-1.1.74a5.9 5.9 0 0 0-1.56 2.83 3.2 3.2 0 0 0 .85 3.05 6 6 0 0 0 4.37 1.4l.1-.57c.01-2.49-.18-4.21-.49-5.39-.3-1.19-.72-1.74-1.07-1.98-.33-.22-.7-.23-1.1-.08Zm2.55 9.02a6.98 6.98 0 0 1-5.03-1.65l-.01-.01-.01-.02a4.2 4.2 0 0 1-1.14-3.98 6.9 6.9 0 0 1 1.84-3.32c.35-.36.87-.76 1.46-.98.6-.22 1.32-.26 2 .2.64.43 1.14 1.26 1.48 2.55.31 1.2.5 2.85.51 5.1a3.5 3.5 0 0 1 3.23-.83 9.8 9.8 0 0 1 .01-2.3c.14-1.2.54-2.58 1.5-3.54l.01-.01a4.38 4.38 0 0 1 4.06-1.13 6.88 6.88 0 0 1 3.34 1.84c.47.46.98 1.06 1.3 1.7.3.64.47 1.42.1 2.15-.37.72-1.19 1.26-2.46 1.62-1.28.37-3.12.58-5.69.58h-.52a3.49 3.49 0 0 1 .94 3.29h.04a8.07 8.07 0 0 1 1.85-.07 6.2 6.2 0 0 1 3.84 1.62 3.7 3.7 0 0 1 1.07 3.87 7.58 7.58 0 0 1-1.97 3.14c-.41.42-1 .84-1.68 1.07-.68.22-1.48.25-2.23-.19-.73-.44-1.32-1.28-1.73-2.6a17.6 17.6 0 0 1-.6-4.74 3.53 3.53 0 0 1-2.43.59v.01l.01.03a7.3 7.3 0 0 1-1.81 5.8l-.01.02a3.94 3.94 0 0 1-3.9 1.18 6.96 6.96 0 0 1-3.22-1.87 3.83 3.83 0 0 1-1-1.72 2.6 2.6 0 0 1 .4-2.22c.5-.71 1.38-1.3 2.75-1.7 1.15-.34 2.66-.56 4.63-.6a3.5 3.5 0 0 1-.9-2.84l-.03-.04Zm2.78 2.87c.22.07.47.1.72.1 1.42 0 2.5-1.08 2.5-2.5S31.52 28 30.1 28a2.45 2.45 0 0 0-2.5 2.5c0 1.17.72 2.1 1.77 2.4Zm-.76 1c-2.46-.02-4.21.2-5.44.57-1.24.37-1.9.86-2.22 1.32-.32.45-.36.93-.24 1.4.12.48.41.93.73 1.26a6 6 0 0 0 2.74 1.6c1 .23 2.03.06 2.94-.89a6.3 6.3 0 0 0 1.58-4.95l-.09-.31Zm4.48-1.38c-.02 2.44.21 4.14.57 5.31.36 1.2.84 1.78 1.29 2.04.43.26.9.26 1.4.1.49-.16.95-.5 1.29-.82a6.6 6.6 0 0 0 1.7-2.7 2.7 2.7 0 0 0-.8-2.89 5.2 5.2 0 0 0-3.22-1.35 7.08 7.08 0 0 0-1.7.07h-.01l-.47.14-.05.1Zm.4-.72-.05-.24.05.24ZM31.93 27h1.17c2.53 0 4.26-.21 5.42-.54 1.17-.33 1.65-.76 1.83-1.11.18-.34.14-.76-.1-1.26-.25-.5-.67-1-1.1-1.44a5.88 5.88 0 0 0-2.84-1.56 3.38 3.38 0 0 0-3.16.87 5.02 5.02 0 0 0-1.22 2.95 9 9 0 0 0 0 2.09ZM42 44v1H6v-1h36Z"/></svg>