<svg width="16" height="16" fill="none" xmlns="http://www.w3.org/2000/svg"><path fill="currentColor" d="M7.22 0h1.56l.15.24c.3.5.82.89 1.49 1.17a8.4 8.4 0 0 0 2.2.53 15.15 15.15 0 0 0 2.78.07h.05l.55-.06v.55c0 5.38-1.93 8.75-3.9 10.77a11.95 11.95 0 0 1-3.84 2.64 3.4 3.4 0 0 1-.07.02l-.02.01h-.01L8 15.47l-.16.47H7.8a3.42 3.42 0 0 1-.33-.14c-.22-.1-.53-.24-.9-.44a11.95 11.95 0 0 1-2.69-2.09C1.93 11.25 0 7.88 0 2.5v-.55L.55 2H.6a9.63 9.63 0 0 0 .79.04c.52 0 1.24 0 1.99-.1a8.4 8.4 0 0 0 2.2-.53A3.04 3.04 0 0 0 7.08.24L7.21 0ZM1 3.03c.12 4.8 1.87 7.77 3.6 9.54A10.95 10.95 0 0 0 8 14.94a5.55 5.55 0 0 0 .93-.46c.67-.37 1.56-.98 2.46-1.9 1.73-1.78 3.48-4.75 3.6-9.55a16.53 16.53 0 0 1-2.49-.1c-.8-.1-1.68-.27-2.47-.6A4.2 4.2 0 0 1 8.23 1h-.46a4.2 4.2 0 0 1-1.8 1.33c-.79.33-1.67.5-2.47.6a16.15 16.15 0 0 1-2.5.1Zm7 12.44-.16.47L8 16l.16-.06-.16-.47ZM6 5a2 2 0 0 1 4 0v1h1.5v5h-7V6H6V5Zm1 1h2V5a1 1 0 0 0-2 0v1ZM5.5 7v3h5V7h-5Z"/></svg>