<svg width="48" height="48" fill="none" xmlns="http://www.w3.org/2000/svg"><path fill="currentColor" d="M23.25 1h1.5l.15.2c2.9 3.87 7.52 5.83 11.47 6.82a34.62 34.62 0 0 0 7.1.98H44v.5c0 15.62-4.92 24.99-9.88 30.46a28.22 28.22 0 0 1-6.82 5.55 21 21 0 0 1-3.13 1.46h-.02L24 46.5l-.15.48h-.02a3.32 3.32 0 0 1-.22-.08 21 21 0 0 1-2.9-1.38 28.22 28.22 0 0 1-6.83-5.56C8.92 34.5 4 25.12 4 9.5V9h.53a10.32 10.32 0 0 0 .52-.02 34.63 34.63 0 0 0 6.58-.97c3.95-.98 8.57-2.94 11.47-6.81l.15-.2ZM5 9.99c.1 15.09 4.89 24.08 9.62 29.3 2.4 2.64 4.8 4.33 6.58 5.35a20.03 20.03 0 0 0 2.75 1.31l.05.02c.02 0 .03 0 .05-.02l.6-.23a20.3 20.3 0 0 0 2.15-1.08 27.22 27.22 0 0 0 6.58-5.35c4.73-5.22 9.52-14.21 9.62-29.3a23.23 23.23 0 0 1-1.67-.12 35.62 35.62 0 0 1-5.2-.88C32.15 7.99 27.36 6 24.25 2h-.5c-3.11 4-7.9 5.99-11.88 6.99a35.62 35.62 0 0 1-6.87 1ZM24 46.5l-.15.48.15.04.15-.04-.15-.48ZM22.75 16A2.75 2.75 0 0 0 20 18.75V21h8v-2.25A2.75 2.75 0 0 0 25.25 16h-2.5ZM29 21h2v11H17V21h2v-2.25A3.75 3.75 0 0 1 22.75 15h2.5A3.75 3.75 0 0 1 29 18.75V21Zm-11 1v9h12v-9H18Zm5.5 6.5v-4h1v4h-1Z"/></svg>