<svg width="48" height="48" fill="none" xmlns="http://www.w3.org/2000/svg"><path fill="currentColor" d="M16.5 8a2.58 2.58 0 0 0-2.5 2.5v7c0 1.32 1.18 2.5 2.5 2.5h7c1.32 0 2.5-1.18 2.5-2.5v-7C26 9.18 24.82 8 23.5 8h-7ZM13 10.5C13 8.62 14.62 7 16.5 7h7c1.88 0 3.5 1.62 3.5 3.5v7c0 1.88-1.62 3.5-3.5 3.5h-7a3.58 3.58 0 0 1-3.5-3.5v-7ZM8 27.32V40h17v1H7V27.26l.5.04-.5-.04v-.01a1.66 1.66 0 0 1 .02-.15l.08-.37c.08-.3.23-.7.5-1.1C8.15 24.78 9.18 24 11 24h18c1.16 0 2.12.24 2.8.82.7.59 1 1.45 1 2.48h-1c0-.83-.24-1.37-.65-1.72-.42-.36-1.1-.58-2.15-.58H11c-1.48 0-2.2.61-2.57 1.18A2.81 2.81 0 0 0 8 27.32Zm26.56.63 9.58 7.47-.62.79L42 35.02V43H29.5a2.5 2.5 0 0 1-2.5-2.5v-5.39l-1.4 1.1-.62-.8 9.58-7.46ZM28 34.33v6.17c0 .83.67 1.5 1.5 1.5H41v-7.76l-6.44-5.02L28 34.33Z"/></svg>