<svg width="24" height="24" fill="none" xmlns="http://www.w3.org/2000/svg"><path fill="currentColor" d="M8.5 3C7.68 3 7 3.68 7 4.5v3C7 8.32 7.68 9 8.5 9h3c.83 0 1.5-.68 1.5-1.5v-3c0-.82-.67-1.5-1.5-1.5h-3ZM6 4.5A2.5 2.5 0 0 1 8.5 2h3A2.5 2.5 0 0 1 14 4.5v3a2.5 2.5 0 0 1-2.5 2.5h-3A2.5 2.5 0 0 1 6 7.5v-3Zm-3 9.51a1.93 1.93 0 0 1 0-.28c.02-.17.06-.4.14-.65.1-.25.25-.52.51-.73.27-.22.62-.35 1.05-.35H15v1H4.7a.65.65 0 0 0-.42.12.67.67 0 0 0-.2.3 1.47 1.47 0 0 0-.08.54V20h6v1H3v-6.99Zm13.5-.63 5.8 4.22-.6.8-.7-.5V22h-7.36c-.82 0-1.64-.58-1.64-1.47V17.9l-.7.51-.6-.8 5.8-4.22ZM13 17.16v3.37c0 .19.2.47.64.47H20v-3.84l-3.5-2.54-3.5 2.54Z"/></svg>