<svg width="24" height="24" fill="none" xmlns="http://www.w3.org/2000/svg"><path fill="currentColor" d="M8 15v-4h7v4H8Zm3-3v2h1v-2h-1Zm-2-2h5V8.5c0-.83-.67-1.5-1.5-1.5h-2C9.67 7 9 7.67 9 8.5V10Z"/><path fill="currentColor" d="M12.4.2c1.4 1.87 3.64 2.83 5.6 3.31a17.06 17.06 0 0 0 3.49.49H22v.5c0 7.87-2.54 12.71-5.13 15.6a15.5 15.5 0 0 1-4.73 3.58 7.49 7.49 0 0 1-.44.18h-.03v.01l-.17.06-.16-.06h-.01l-.03-.01a4.43 4.43 0 0 1-.44-.18 15.5 15.5 0 0 1-4.74-3.58C3.55 17.2 1 12.37 1 4.5V4h.51a4.74 4.74 0 0 0 .25 0l.76-.06c.63-.06 1.51-.18 2.48-.43C6.96 3.03 9.2 2.07 10.6.2l.15-.2h1.5l.15.2ZM10.5 6A2.5 2.5 0 0 0 8 8.5V10H7v6h9v-6h-1V8.5A2.5 2.5 0 0 0 12.5 6h-2Z"/></svg>