<svg width="24" height="24" fill="none" xmlns="http://www.w3.org/2000/svg"><path fill="currentColor" d="M9 2.5a2.5 2.5 0 1 1 4.94.56L18.84 9h1.66c.41 0 .8.14 1.08.42.28.28.42.67.42 1.08V24H3.5c-.41 0-.8-.14-1.08-.42A1.5 1.5 0 0 1 2 22.5V9h2.16l4.9-5.94A2.5 2.5 0 0 1 9 2.5Zm.54 1.56L5.46 9h12.08l-4.08-4.94a2.5 2.5 0 0 1-3.92 0ZM11.5 1a1.5 1.5 0 1 0 0 3 1.5 1.5 0 0 0 0-3ZM3 10v12.5c0 .19.06.3.13.37s.18.13.37.13H21V10.5c0-.19-.06-.3-.13-.37S20.7 10 20.5 10H3Zm2 3h4v1H5v-1Zm5 0h4v1h-4v-1Zm5 0h4v1h-4v-1ZM5 16h4v1H5v-1Zm5 0h4v1h-4v-1Zm5 0h4v1h-4v-1ZM5 19h4v1H5v-1Zm5 0h4v1h-4v-1Zm5 0h4v1h-4v-1Z"/></svg>