<svg width="48" height="48" fill="none" xmlns="http://www.w3.org/2000/svg"><path fill="currentColor" d="M8.5 4A2.5 2.5 0 0 0 6 6.5V9h36V6.5C42 5.08 40.92 4 39.5 4h-31ZM43 9h3v11.5a2.5 2.5 0 0 1-2.5 2.5H43v19h-3v1.5a2.5 2.5 0 0 1-2.5 2.5h-3a2.5 2.5 0 0 1-2.5-2.5V42H16v1.5a2.5 2.5 0 0 1-2.5 2.5h-3A2.5 2.5 0 0 1 8 43.5V42H5V23h-.5A2.5 2.5 0 0 1 2 20.5V9h3V6.5A3.5 3.5 0 0 1 8.5 3h31C41.48 3 43 4.52 43 6.5V9Zm-1 1H6v19h36V10Zm1 12h.5c.82 0 1.5-.68 1.5-1.5V10h-2v12Zm-1 8H6v11h3v2.5c0 .82.68 1.5 1.5 1.5h3c.82 0 1.5-.68 1.5-1.5V41h18v2.5c0 .82.68 1.5 1.5 1.5h3c.82 0 1.5-.68 1.5-1.5V41h3V30ZM5 22V10H3v10.5c0 .82.68 1.5 1.5 1.5H5Zm7 11c-1.12 0-2 .88-2 2s.88 2 2 2 2-.88 2-2-.88-2-2-2Zm-3 2c0-1.68 1.32-3 3-3s3 1.32 3 3-1.32 3-3 3-3-1.32-3-3Zm27-2c-1.12 0-2 .88-2 2s.88 2 2 2 2-.88 2-2-.88-2-2-2Zm-3 2c0-1.68 1.32-3 3-3s3 1.32 3 3-1.32 3-3 3-3-1.32-3-3Z"/></svg>