<svg width="24" height="24" fill="none" xmlns="http://www.w3.org/2000/svg"><path fill="currentColor" d="M22 13H2v-3h20v3Zm1-3.07V3h1v5.5c0 .41-.14.8-.42 1.08a1.4 1.4 0 0 1-.58.35ZM22 2.1V3H2v-.8C2 1.06 2.89 0 4.1 0h15.8c1.18 0 2.1.92 2.1 2.1ZM1 3v6.93a1.4 1.4 0 0 1-.58-.35A1.5 1.5 0 0 1 0 8.5V3h1Zm3.98 13.98c.3-.3.68-.48 1.02-.48.34 0 .72.17 1.02.48.3.3.48.68.48 1.02 0 .34-.17.72-.48 1.02-.3.3-.68.48-1.02.48-.34 0-.72-.17-1.02-.48-.3-.3-.48-.68-.48-1.02 0-.34.17-.72.48-1.02Zm12 0c.3-.3.68-.48 1.02-.48.34 0 .72.17 1.02.48.3.3.48.68.48 1.02 0 .34-.17.72-.48 1.02-.3.3-.68.48-1.02.48-.34 0-.72-.17-1.02-.48-.3-.3-.48-.68-.48-1.02 0-.34.17-.72.48-1.02Z"/><path fill="currentColor" d="M21 22.5c0 .41-.14.8-.42 1.08a1.5 1.5 0 0 1-1.08.42h-2c-.41 0-.8-.14-1.08-.42A1.5 1.5 0 0 1 16 22.5V22H8v.5c0 .41-.14.8-.42 1.08A1.5 1.5 0 0 1 6.5 24h-2c-.41 0-.8-.14-1.08-.42A1.5 1.5 0 0 1 3 22.5V22H2v-8h20v8h-1v.5Zm-15-7a2.5 2.5 0 0 0-1.73.77A2.5 2.5 0 0 0 3.5 18c0 .66.33 1.28.77 1.73A2.5 2.5 0 0 0 6 20.5a2.5 2.5 0 0 0 1.73-.77A2.5 2.5 0 0 0 8.5 18a2.5 2.5 0 0 0-.77-1.73A2.5 2.5 0 0 0 6 15.5Zm12 0a2.5 2.5 0 0 0-1.73.77A2.5 2.5 0 0 0 15.5 18c0 .66.33 1.28.77 1.73a2.5 2.5 0 0 0 1.73.77 2.5 2.5 0 0 0 1.73-.77A2.5 2.5 0 0 0 20.5 18a2.5 2.5 0 0 0-.77-1.73A2.5 2.5 0 0 0 18 15.5ZM2 9V4h20v5H2Z"/></svg>