<svg width="24" height="24" fill="none" xmlns="http://www.w3.org/2000/svg"><path fill="currentColor" d="M1.13 3.13C1.06 3.2 1 3.3 1 3.5v1c0 .19.06.3.13.37S1.3 5 1.5 5h6c.19 0 .3-.06.37-.13S8 4.7 8 4.5v-1c0-.19-.06-.3-.13-.37S7.7 3 7.5 3h-6c-.19 0-.3.06-.37.13Zm-.7-.7A1.5 1.5 0 0 1 1.5 2h6c.41 0 .8.14 1.08.42.28.28.42.67.42 1.08v1c0 .41-.14.8-.42 1.08A1.5 1.5 0 0 1 7.5 6H5v2h2v1.6l5.66 1.4H17V8h2V6h-2.5c-.41 0-.8-.14-1.08-.42A1.5 1.5 0 0 1 15 4.5v-1c0-.41.14-.8.42-1.08A1.5 1.5 0 0 1 16.5 2h6c.41 0 .8.14 1.08.42.28.28.42.67.42 1.08v1c0 .41-.14.8-.42 1.08A1.5 1.5 0 0 1 22.5 6H20v2h2v7h-2v2h2.5c.41 0 .8.14 1.08.42.28.28.42.67.42 1.08v1c0 .41-.14.8-.42 1.08a1.5 1.5 0 0 1-1.08.42h-6c-.41 0-.8-.14-1.08-.42A1.5 1.5 0 0 1 15 19.5v-1c0-.41.14-.8.42-1.08A1.5 1.5 0 0 1 16.5 17H19v-2h-2v-3h-4.34L7 13.4V15H5v2h2.5c.41 0 .8.14 1.08.42.28.28.42.67.42 1.08v1c0 .41-.14.8-.42 1.08A1.5 1.5 0 0 1 7.5 21h-6c-.41 0-.8-.14-1.08-.42A1.5 1.5 0 0 1 0 19.5v-1c0-.41.14-.8.42-1.08A1.5 1.5 0 0 1 1.5 17H4v-2H2V8h2V6H1.5c-.41 0-.8-.14-1.08-.42A1.5 1.5 0 0 1 0 4.5v-1c0-.41.14-.8.42-1.08ZM10.5 11.5 6 10.4V9H3v5h3v-1.4l4.5-1.1Zm5.62-8.37c-.07.07-.13.18-.13.37v1c0 .19.06.3.13.37s.18.13.37.13h6c.19 0 .3-.06.37-.13S23 4.7 23 4.5v-1c0-.19-.06-.3-.13-.37S22.7 3 22.5 3h-6c-.19 0-.3.06-.37.13ZM18 9v5h3V9h-3ZM1.13 18.13c-.07.07-.13.18-.13.37v1c0 .19.06.3.13.37s.18.13.37.13h6c.19 0 .3-.06.37-.13S8 19.7 8 19.5v-1c0-.19-.06-.3-.13-.37S7.7 18 7.5 18h-6c-.19 0-.3.06-.37.13Zm15 0c-.07.07-.13.18-.13.37v1c0 .19.06.3.13.37s.18.13.37.13h6c.19 0 .3-.06.37-.13s.13-.18.13-.37v-1c0-.19-.06-.3-.13-.37S22.7 18 22.5 18h-6c-.19 0-.3.06-.37.13Z"/></svg>