<svg width="48" height="48" fill="none" xmlns="http://www.w3.org/2000/svg"><path fill="currentColor" d="M2.13 10.13c-.07.07-.13.18-.13.37v3c0 .19.06.3.13.37s.18.13.37.13h12c.19 0 .3-.06.37-.13s.13-.18.13-.37v-3c0-.19-.06-.3-.13-.37S14.7 10 14.5 10h-12c-.19 0-.3.06-.37.13Zm-.7-.7A1.5 1.5 0 0 1 2.5 9h12c.41 0 .8.14 1.08.42.28.28.42.67.42 1.08v3c0 .41-.14.8-.42 1.08a1.5 1.5 0 0 1-1.08.42H9v3h4v3.08L24.04 23H37v-5h2v-3h-5.5c-.41 0-.8-.14-1.08-.42A1.5 1.5 0 0 1 32 13.5v-3c0-.41.14-.8.42-1.08A1.5 1.5 0 0 1 33.5 9h12c.41 0 .8.14 1.08.42.28.28.42.67.42 1.08v3c0 .41-.14.8-.42 1.08a1.5 1.5 0 0 1-1.08.42H40v3h2v11h-2v3h5.5c.41 0 .8.14 1.08.42.28.28.42.67.42 1.08v3c0 .41-.14.8-.42 1.08a1.5 1.5 0 0 1-1.08.42h-12c-.41 0-.8-.14-1.08-.42A1.5 1.5 0 0 1 32 36.5v-3c0-.41.14-.8.42-1.08A1.5 1.5 0 0 1 33.5 32H39v-3h-2v-5H24.04L13 25.92V29H9v3h5.5c.41 0 .8.14 1.08.42.28.28.42.67.42 1.08v3c0 .41-.14.8-.42 1.08a1.5 1.5 0 0 1-1.08.42h-12c-.41 0-.8-.14-1.08-.42A1.5 1.5 0 0 1 1 36.5v-3c0-.41.14-.8.42-1.08A1.5 1.5 0 0 1 2.5 32H8v-3H4V18h4v-3H2.5c-.41 0-.8-.14-1.08-.42A1.5 1.5 0 0 1 1 13.5v-3c0-.41.14-.8.42-1.08ZM21.07 23.5 12 21.92V19H5v9h7v-2.92l9.08-1.58Zm12.05-13.37c-.07.07-.13.18-.13.37v3c0 .19.06.3.13.37s.18.13.37.13h12c.19 0 .3-.06.37-.13s.13-.18.13-.37v-3c0-.19-.06-.3-.13-.37S45.7 10 45.5 10h-12c-.19 0-.3.06-.37.13ZM38 19v9h3v-9h-3ZM2.13 33.13c-.07.07-.13.18-.13.37v3c0 .19.06.3.13.37s.18.13.37.13h12c.19 0 .3-.06.37-.13s.13-.18.13-.37v-3c0-.19-.06-.3-.13-.37S14.7 33 14.5 33h-12c-.19 0-.3.06-.37.13Zm31 0c-.07.07-.13.18-.13.37v3c0 .19.06.3.13.37s.18.13.37.13h12c.19 0 .3-.06.37-.13s.13-.18.13-.37v-3c0-.19-.06-.3-.13-.37S45.7 33 45.5 33h-12c-.19 0-.3.06-.37.13Z"/></svg>