<svg width="16" height="16" fill="none" xmlns="http://www.w3.org/2000/svg"><path fill="currentColor" d="M2.13 2.13C2.06 2.2 2 2.3 2 2.5s.06.3.13.37.18.13.37.13h4c.19 0 .3-.06.37-.13S7 2.7 7 2.5s-.06-.3-.13-.37S6.7 2 6.5 2h-4c-.19 0-.3.06-.37.13Zm-.7-.7A1.5 1.5 0 0 1 2.5 1h4c.41 0 .8.14 1.08.42.28.28.42.67.42 1.08 0 .41-.14.8-.42 1.08A1.5 1.5 0 0 1 6.5 4H5v1h1v1.19L8.71 7.5H11V5h1V4h-1.5c-.41 0-.8-.14-1.08-.42A1.5 1.5 0 0 1 9 2.5c0-.41.14-.8.42-1.08A1.5 1.5 0 0 1 10.5 1h4c.41 0 .8.14 1.08.42.28.28.42.67.42 1.08 0 .41-.14.8-.42 1.08A1.5 1.5 0 0 1 14.5 4H13v1h1v6h-1v1h1.5c.41 0 .8.14 1.08.42.28.28.42.67.42 1.08 0 .41-.14.8-.42 1.08a1.5 1.5 0 0 1-1.08.42h-4c-.41 0-.8-.14-1.08-.42A1.5 1.5 0 0 1 9 13.5c0-.41.14-.8.42-1.08A1.5 1.5 0 0 1 10.5 12H12v-1h-1V8.5H8.71L6 9.81V11H5v1h1.5c.41 0 .8.14 1.08.42.28.28.42.67.42 1.08 0 .41-.14.8-.42 1.08A1.5 1.5 0 0 1 6.5 15h-4c-.41 0-.8-.14-1.08-.42A1.5 1.5 0 0 1 1 13.5c0-.41.14-.8.42-1.08A1.5 1.5 0 0 1 2.5 12H4v-1H3V5h1V4H2.5c-.41 0-.8-.14-1.08-.42A1.5 1.5 0 0 1 1 2.5c0-.41.14-.8.42-1.08ZM5 6H4v4h1v-.81L7.45 8 5 6.81V6Zm8 4V6h-1v4h1Zm-2.87-7.87c-.07.07-.13.18-.13.37s.06.3.13.37.18.13.37.13h4c.19 0 .3-.06.37-.13S15 2.7 15 2.5s-.06-.3-.13-.37S14.7 2 14.5 2h-4c-.19 0-.3.06-.37.13Zm-8 11c-.07.07-.13.18-.13.37s.06.3.13.37.18.13.37.13h4c.19 0 .3-.06.37-.13S7 13.7 7 13.5s-.06-.3-.13-.37S6.7 13 6.5 13h-4c-.19 0-.3.06-.37.13Zm8 0c-.07.07-.13.18-.13.37s.06.3.13.37.18.13.37.13h4c.19 0 .3-.06.37-.13s.13-.18.13-.37-.06-.3-.13-.37-.18-.13-.37-.13h-4c-.19 0-.3.06-.37.13Z"/></svg>