<svg width="24" height="24" fill="none" xmlns="http://www.w3.org/2000/svg"><path fill="currentColor" d="M1.5 2c-.41 0-.8.14-1.08.42A1.5 1.5 0 0 0 0 3.5v1c0 .41.14.8.42 1.08.28.28.67.42 1.08.42h2.25v2H2v7h1.75v2H1.5c-.41 0-.8.14-1.08.42A1.5 1.5 0 0 0 0 18.5v1c0 .41.14.8.42 1.08.28.28.67.42 1.08.42h6c.41 0 .8-.14 1.08-.42.28-.28.42-.67.42-1.08v-1c0-.41-.14-.8-.42-1.08A1.5 1.5 0 0 0 7.5 17H5.25v-2H7v-1.6l4.64-1.15H17V15h1.75v2H16.5c-.41 0-.8.14-1.08.42A1.5 1.5 0 0 0 15 18.5v1c0 .41.14.8.42 1.08.28.28.67.42 1.08.42h6c.41 0 .8-.14 1.08-.42.28-.28.42-.67.42-1.08v-1c0-.41-.14-.8-.42-1.08A1.5 1.5 0 0 0 22.5 17h-2.25v-2H22V8h-1.75V6h2.25c.41 0 .8-.14 1.08-.42.28-.28.42-.67.42-1.08v-1c0-.41-.14-.8-.42-1.08A1.5 1.5 0 0 0 22.5 2h-6c-.41 0-.8.14-1.08.42A1.5 1.5 0 0 0 15 3.5v1c0 .41.14.8.42 1.08.28.28.67.42 1.08.42h2.25v2H17v2.75h-5.36L7 9.61V8H5.25V6H7.5c.41 0 .8-.14 1.08-.42C8.86 5.3 9 4.9 9 4.5v-1c0-.41-.14-.8-.42-1.08A1.5 1.5 0 0 0 7.5 2h-6Z"/></svg>