<svg width="48" height="48" fill="none" xmlns="http://www.w3.org/2000/svg"><path fill="currentColor" fill-opacity=".01" d="M0 0h48v48H0z"/><path fill="currentColor" fill-rule="evenodd" d="M20.15 7.5h6.71l2.5 7.5h5.98l9.4 24H26.5V26h1v10.11L30 30.4V26h1v4h9.14l-5.48-14h-4.97l3 9H13.8l3.27-9h-4.72L6.86 30H16v-4h1v4.4l2.5 5.71V26h1v13H2.27l9.39-24h5.76l2.73-7.5Zm-2.4 9.5-2.54 7h16.1l-2.34-7H17.76Zm10.89-1-2.5-7.5h-5.29L18.12 16h10.52Zm-9.4 22-3.07-7h-9.7l-2.74 7h15.5Zm21.29-7h-9.7l-3.07 7h15.5l-2.73-7Z" clip-rule="evenodd"/></svg>