<svg width="48" height="48" fill="none" xmlns="http://www.w3.org/2000/svg"><path fill="currentColor" d="M3 3v44h1V3H3Zm19.7 0H6v27h13.3l1.85 1.85.7-.7L19.71 29H16v-7h11V12h9v3h1V5H24.7l-2-2ZM27 6v6H16V4h6.3l2 2H27ZM7 12h9v10H7V12Z"/><path fill="currentColor" d="M37 19c-5.26 0-9 3.8-9 8.5 0 3.04 1.93 5.92 4.28 7.43l.86 2.57h7.73l.85-2.68C43.96 33.33 46 30.55 46 27.5c0-4.7-3.74-8.5-9-8.5Zm-8 8.5c0-4.1 3.26-7.5 8-7.5s8 3.4 8 7.5c0 2.68-1.87 5.24-3.97 6.58l-.15.1-.75 2.32h-6.27l-.74-2.23-.16-.1C30.78 32.85 29 30.2 29 27.5ZM40 40v-1h-6v1h6Zm0 2v-1h-6v1h6Zm-1 2v-1h-4v1h4Z"/></svg>