<svg width="48" height="48" fill="none" xmlns="http://www.w3.org/2000/svg"><path fill="currentColor" d="m21.72 33.73-5-15.03c-.27-.8-.46-1.52-.6-2.17-.15.8-.33 1.52-.55 2.17l-4.79 15.03H8.97L2.5 14.26h1.81l4.9 15.03c.32.97.56 1.77.72 2.43.2-.82.42-1.63.69-2.43l4.8-15.03h1.62l4.9 15.03c.31.97.55 1.77.71 2.43.2-.82.43-1.63.7-2.43l4.9-15.03h1.72l-6.46 19.47h-1.8Zm23.78-.78A13.53 13.53 0 0 1 40.36 34c-1.76 0-3.23-.4-4.4-1.2a7.18 7.18 0 0 1-2.63-3.45 14.94 14.94 0 0 1-.85-5.33c0-2.05.3-3.83.89-5.33a7.37 7.37 0 0 1 2.66-3.47A7.58 7.58 0 0 1 40.42 14a11.9 11.9 0 0 1 4.82 1.04v1.51a12.8 12.8 0 0 0-2.4-.81c-.8-.2-1.63-.29-2.46-.29-1.36 0-2.5.34-3.42 1.01a5.94 5.94 0 0 0-2.05 2.92c-.45 1.26-.67 2.8-.67 4.62 0 1.78.22 3.3.66 4.58a6.05 6.05 0 0 0 2.05 2.94 5.63 5.63 0 0 0 3.47 1.03 13.47 13.47 0 0 0 5.08-1.02v1.42Z"/></svg>