<svg width="24" height="24" fill="none" xmlns="http://www.w3.org/2000/svg"><path fill="currentColor" d="m10.47 17-2.21-6.85a12.64 12.64 0 0 1-.33-1.21l-.08-.47a17.05 17.05 0 0 1-.41 1.68L5.23 17H3.85L.5 6.8h1.4l2.3 7.41.1.3a6.82 6.82 0 0 1 .26.93 6.46 6.46 0 0 1 .23-.92l.1-.3 2.3-7.42h1.3l2.32 7.42a9.25 9.25 0 0 1 .33 1.24 7.04 7.04 0 0 1 .37-1.24l2.3-7.42h1.38L11.85 17h-1.38Zm13.03-.33a5.84 5.84 0 0 1-2.86.5c-.45 0-.87-.05-1.26-.15a3.58 3.58 0 0 1-1.93-1.19 4.6 4.6 0 0 1-.64-1.03 6 6 0 0 1-.4-1.31 8.92 8.92 0 0 1 0-3.08c.09-.47.21-.9.37-1.28.17-.4.38-.74.62-1.05a3.65 3.65 0 0 1 1.94-1.28c.4-.11.84-.17 1.31-.17a7.97 7.97 0 0 1 1.52.15 5.02 5.02 0 0 1 1.2.41v1.15a4.14 4.14 0 0 0-1.2-.39 6.45 6.45 0 0 0-1.43-.15c-.35 0-.67.04-.96.13a2.56 2.56 0 0 0-1.39.95c-.17.23-.31.5-.42.8-.12.3-.2.64-.26 1.01a7.91 7.91 0 0 0 .02 2.51c.07.4.18.75.3 1.05.14.3.3.57.5.8a2.73 2.73 0 0 0 2.27.98 9.11 9.11 0 0 0 1.53-.13 5.4 5.4 0 0 0 1.17-.36v1.13Z"/></svg>