<svg width="24" height="24" fill="none" xmlns="http://www.w3.org/2000/svg"><path fill="currentColor" d="M23.6 16.64c-.4.17-.85.31-1.37.42a9.3 9.3 0 0 1-1.9.17c-.98 0-1.8-.21-2.5-.62a3.89 3.89 0 0 1-1.55-1.81 7.16 7.16 0 0 1-.53-2.9c0-1.09.19-2.02.56-2.82.37-.8.9-1.4 1.61-1.82a4.9 4.9 0 0 1 2.52-.62c.6 0 1.15.05 1.67.16s.98.27 1.38.48v1.66a5.8 5.8 0 0 0-1.35-.43 8 8 0 0 0-1.58-.15c-.59 0-1.08.13-1.48.4-.4.27-.7.67-.92 1.2a5.3 5.3 0 0 0-.3 1.94c0 .83.1 1.51.3 2.05.2.53.5.93.9 1.18.4.26.92.39 1.55.39a7.31 7.31 0 0 0 3-.54v1.66ZM10.08 17l-1.8-6.4a11.4 11.4 0 0 1-.3-1.2c-.11.49-.21.9-.3 1.2L5.89 17H3.63L.4 6.86h2.16l1.87 6.55c.09.33.19.82.3 1.46.12-.55.24-1.04.35-1.46l1.9-6.55H9l1.9 6.55c.13.45.24.93.35 1.46.1-.64.2-1.13.31-1.46l1.87-6.55h2.15L12.33 17h-2.25Z"/></svg>