<svg width="16" height="16" fill="none" xmlns="http://www.w3.org/2000/svg"><path fill="currentColor" d="M6.63 11 5.59 7.34l-.17-.69-.16.7L4.23 11H2.94L1.1 5.2h1.23L3.4 8.96c.05.19.1.46.17.83l.2-.83L4.85 5.2H6l1.1 3.74.19.83c.06-.37.12-.64.17-.83L8.53 5.2h1.23L7.91 11H6.63Zm8.07-.2a4.17 4.17 0 0 1-1.87.33c-.56 0-1.04-.12-1.43-.35a2.23 2.23 0 0 1-.89-1.04c-.2-.45-.3-1-.3-1.66 0-.61.1-1.15.32-1.6.2-.46.52-.8.92-1.04s.88-.36 1.43-.36c.35 0 .67.03.96.1a3 3 0 0 1 .79.27v.94a4.54 4.54 0 0 0-1.68-.33c-.33 0-.61.08-.84.23-.23.16-.4.39-.52.69-.12.3-.18.67-.18 1.1 0 .48.06.87.17 1.18.11.3.29.53.52.67.23.15.52.22.89.22a4.17 4.17 0 0 0 1.71-.3v.94Z"/></svg>