<svg width="48" height="48" fill="none" xmlns="http://www.w3.org/2000/svg"><path fill="currentColor" d="M12 11h2v1h-2v-1Zm4 0h18v1H16v-1Zm-4 6h2v1h-2v-1Zm4 0h12v1H16v-1Zm20 2.1h.4c4.18 0 7.6 3.42 7.7 7.59v.01c0 1.1-.49 2.53-1.15 4a46.62 46.62 0 0 1-2.47 4.62 88.67 88.67 0 0 1-3.5 5.36l-.05.08-.02.02v.01l-.41-.29-.4.3-.01-.02-.02-.02-.06-.08a56.12 56.12 0 0 1-1.03-1.5c-.67-1-1.57-2.37-2.46-3.86a45.93 45.93 0 0 1-2.47-4.61c-.66-1.48-1.15-2.9-1.15-4a7.27 7.27 0 0 1 7.09-7.61H36Zm.5 21.4-.4.3.4.56.4-.57-.4-.29Zm0-.87a87.74 87.74 0 0 0 3.12-4.82 45.65 45.65 0 0 0 2.41-4.51 10.02 10.02 0 0 0 1.07-3.6 6.78 6.78 0 0 0-6.7-6.6H36a6.27 6.27 0 0 0-6.1 6.57v.03c0 .86.4 2.12 1.07 3.6a45.65 45.65 0 0 0 2.4 4.5 87.7 87.7 0 0 0 3.13 4.83Zm-.01-16.73h.01c1.95 0 3.6 1.5 3.6 3.5 0 1.95-1.5 3.6-3.5 3.6h-.1a3.47 3.47 0 0 1-3.5-3.61 3.58 3.58 0 0 1 3.47-3.49h.02Zm.02 1C35.06 24 34 25.1 34 26.4v.03A2.47 2.47 0 0 0 36.5 29h.1c1.4 0 2.5-1.15 2.5-2.6 0-1.4-1.15-2.5-2.59-2.5ZM12 23h2v1h-2v-1Zm4 0h5v1h-5v-1Z"/></svg>