<svg width="24" height="24" fill="none" xmlns="http://www.w3.org/2000/svg"><path fill="currentColor" d="M4 4H2V3h2v1Zm10 0H5V3h9v1ZM4 7H2V6h2v1Zm10 0H5V6h9v1Zm1.19.9h.31a4.5 4.5 0 0 1 4.5 4.5c0 .66-.29 1.53-.67 2.4-.38.88-.9 1.84-1.4 2.72a55.8 55.8 0 0 1-1.97 3.2l-.03.04-.01.02-.42-.28-.41.28-.02-.02-.03-.05a38.77 38.77 0 0 1-.59-.9c-.37-.59-.88-1.4-1.38-2.29a28.2 28.2 0 0 1-1.4-2.73 6.73 6.73 0 0 1-.67-2.38 4.39 4.39 0 0 1 4.18-4.5V7.9Zm.31 12.6-.41.28.41.61.41-.61-.41-.28Zm0-.9a55.72 55.72 0 0 0 1.57-2.57c.5-.87.98-1.8 1.35-2.64.37-.86.58-1.55.58-1.99 0-1.92-1.58-3.5-3.5-3.5h-.29A3.39 3.39 0 0 0 12 12.38v.02c0 .44.21 1.13.58 2 .37.83.86 1.76 1.35 2.63a54.76 54.76 0 0 0 1.57 2.56ZM4 10H2V9h2v1Zm6 0H5V9h5v1Zm-6 3H2v-1h2v1Zm4 0H5v-1h3v1Z"/></svg>