<svg width="24" height="24" fill="none" xmlns="http://www.w3.org/2000/svg"><path fill="currentColor" d="M20.29 6.51a1 1 0 0 1 .84 1.72L19.9 9.36c.61 0 1.05.02 1.26.06.35.05.63.13.93.2l.18.05c.78.2 1.46.89 1.52 1.76l.2 2.65v.02c0 .42-.13.82-.39 1.13-.25.3-.62.5-1.03.53l-1.11.19a2.73 2.73 0 0 1-2.7 2.3h-.04a2.73 2.73 0 0 1-2.68-2.23L7.95 16a2.75 2.75 0 0 1-2.7 2.25h-.02a2.73 2.73 0 0 1-2.68-2.24L1.5 16c-.43 0-.8-.23-1.05-.5A1.58 1.58 0 0 1 0 14.46V13.3c.02-.28.04-.57.13-.82.13-.4.44-.79.83-1.11.4-.34.93-.64 1.53-.84.75-.25 1.9-.5 3.64-.73a33 33 0 0 1 1.83-1.65 5.8 5.8 0 0 1 1.3-.88l.51.84-1.94 1.6a669.23 669.23 0 0 1 10.61-.33v-.01l2-1.87-4.36.73-.16-.99 4.37-.73ZM6.4 10.77c-1.8.24-2.92.48-3.6.7-.49.17-.9.4-1.2.66a1.7 1.7 0 0 0-.53.66c-.04.12-.06.28-.07.55v1.11c0 .1.04.24.17.37.12.13.25.18.32.18l2 .03v.5c0 .95.78 1.72 1.73 1.72h.02c.97 0 1.75-.78 1.75-1.75V15l10 .02v.5c0 .96.78 1.73 1.73 1.73h.04c.96 0 1.73-.77 1.73-1.73v-.42l1.95-.34h.03a.52.52 0 0 0 .37-.17c.08-.1.15-.26.15-.48l-.2-2.6v-.01c-.02-.38-.34-.75-.77-.86l-.2-.05c-.3-.08-.52-.14-.82-.19-.13-.02-.53-.04-1.25-.04a735.6 735.6 0 0 0-13.35.4Z"/></svg>