<svg width="16" height="16" fill="none" xmlns="http://www.w3.org/2000/svg"><path fill="currentColor" d="M12.88 1.52a1.18 1.18 0 0 1 1 2.03l-1.86 1.67c.76.12 1.52.26 2.26.45.78.2 1.46.89 1.52 1.76l.2 2.65v.02c0 .42-.13.82-.38 1.13-.26.3-.63.5-1.04.53l-1.11.19a2.73 2.73 0 0 1-2.7 2.3h-.04a2.73 2.73 0 0 1-2.68-2.23H0v-1h9v.5c0 .96.78 1.73 1.73 1.73h.04c.96 0 1.73-.77 1.73-1.73v-.42l1.95-.34h.03a.52.52 0 0 0 .37-.17c.08-.1.15-.26.15-.48l-.2-2.6V7.5c-.02-.38-.34-.75-.77-.86A29 29 0 0 0 7.1 5.9a111.1 111.1 0 0 0-3.87.05C2.15 5.97 1.07 6 0 6V5a133.9 133.9 0 0 0 3.51-.06c1.2-.03 2.4-.05 3.61-.04 1.2 0 2.4.05 3.59.17l2.49-2.25a.18.18 0 0 0-.16-.32l-5.96 1-.16-1 5.96-.98Z"/></svg>