<svg width="24" height="24" fill="none" xmlns="http://www.w3.org/2000/svg"><path fill="currentColor" d="M21.37 6.65c-.29-.3-.71-.45-1.13-.38l-4.36.72.24 1.48 3.55-.59-1.6 1.5-1.22.03c-2.14.05-5.06.15-8.78.3l.69-.6c.5-.42.83-.62.99-.7l-.6-1.37c-.37.16-.83.5-1.35.92a46 46 0 0 0-2.1 1.9c-1.5.22-2.52.44-3.2.67-.61.2-1.13.5-1.54.84-.39.32-.7.71-.83 1.1-.09.26-.11.55-.12.83v1.15c0 .41.19.8.44 1.06s.62.49 1.05.49l1.05.01a2.73 2.73 0 0 0 2.68 2.24h.02c1.35 0 2.47-.97 2.7-2.25l8.1.02a2.73 2.73 0 0 0 2.68 2.23h.04c1.36 0 2.5-1 2.7-2.3l1.1-.2c.88-.07 1.43-.75 1.43-1.69l-.2-2.63a2.01 2.01 0 0 0-1.52-1.76l-.18-.05c-.3-.07-.58-.15-.93-.2a7.14 7.14 0 0 0-.9-.05l1.03-.95c.5-.47.54-1.26.07-1.77Z"/></svg>