<svg width="48" height="48" fill="none" xmlns="http://www.w3.org/2000/svg"><path fill="currentColor" d="M41 12.76a1.5 1.5 0 0 1 1.2 2.57l-3.08 3a317.88 317.88 0 0 1 4.44.04l.3.04c1.46.37 2.14 1.77 2.47 2.87a18.57 18.57 0 0 1 .66 4.75 2.96 2.96 0 0 1-2.63 2.77l-2.38.17A4.5 4.5 0 0 1 37.5 33H37a4.5 4.5 0 0 1-4.47-4H15.47A4.5 4.5 0 0 1 11 33h-.5a4.5 4.5 0 0 1-4.47-4H3.26A2.26 2.26 0 0 1 1 26.74v-.35c0-1.4.04-2.07.3-2.85a4.7 4.7 0 0 1 1.42-1.94 8.19 8.19 0 0 1 2.76-1.54c1.43-.48 3.88-.95 7.31-1.4a66.57 66.57 0 0 1 3.62-3.28c1-.82 1.8-1.38 2.4-1.64l.5.85-4.87 4.02a3596.56 3596.56 0 0 1 23.24-.27l3.82-3.73a.5.5 0 0 0-.4-.85l-8.05.74-.1-1 8.06-.74Zm-27.94 6.86c-3.5.47-5.9.93-7.26 1.39a7.2 7.2 0 0 0-2.43 1.35 3.74 3.74 0 0 0-1.12 1.5A7.4 7.4 0 0 0 2 26.39v.35c0 .7.56 1.26 1.26 1.26H7v.5a3.5 3.5 0 0 0 3.5 3.5h.5a3.5 3.5 0 0 0 3.5-3.5V28h19v.5A3.5 3.5 0 0 0 37 32h.5a3.5 3.5 0 0 0 3.5-3.5v-.47l3.3-.23c.87-.06 1.64-.89 1.7-1.83a17.63 17.63 0 0 0-.63-4.4c-.31-1.05-.85-1.96-1.75-2.19h-.12l-.42-.02-1.54-.02c-1.34 0-3.3 0-5.85.02-5.11.04-12.66.12-22.63.26Z"/></svg>