<svg width="24" height="24" fill="none" xmlns="http://www.w3.org/2000/svg"><path fill="currentColor" d="M2.83 10.5c-.44.4-.58.74-.58 1 0 .21.1.47.37.78.29.3.74.63 1.36.93.93.46 2.18.85 3.65 1.12L5.8 11.96l1.18-.92 3.47 4.51-4.72 3.46-.88-1.22 2.68-1.96a16 16 0 0 1-4.22-1.27 6.07 6.07 0 0 1-1.8-1.27c-.46-.5-.77-1.1-.77-1.79 0-.84.45-1.55 1.07-2.11A7.99 7.99 0 0 1 4.3 7.97c2-.76 4.72-1.22 7.69-1.22 2.97 0 5.69.46 7.7 1.22 1 .39 1.85.86 2.48 1.42a2.87 2.87 0 0 1 1.07 2.11c0 1.22-.97 2.2-2.15 2.87a14.52 14.52 0 0 1-4.88 1.57l-.24-1.48c1.84-.3 3.35-.8 4.37-1.38 1.07-.62 1.4-1.2 1.4-1.58 0-.26-.14-.6-.58-1a6.54 6.54 0 0 0-2.01-1.12A20.86 20.86 0 0 0 12 8.25c-2.83 0-5.36.44-7.16 1.13-.9.34-1.57.73-2.01 1.12Z"/></svg>