<svg width="16" height="16" fill="none" xmlns="http://www.w3.org/2000/svg"><path fill="currentColor" d="M2.95 4.25C1.68 5 1 6 1 7c0 .94.6 1.87 1.74 2.62.94.61 2.2 1.07 3.64 1.27L4 7.8l.8-.6 3.3 4.3-4.5 3.3L3 14l2.96-2.16a9.77 9.77 0 0 1-3.77-1.39C.9 9.6 0 8.4 0 7c0-1.49 1-2.75 2.44-3.61A10.97 10.97 0 0 1 8 2c2.15 0 4.11.52 5.56 1.39C15 4.25 16 5.5 16 7c0 1.1-.55 2.09-1.42 2.87a8.33 8.33 0 0 1-3.45 1.74l-.26-.97a7.34 7.34 0 0 0 3.04-1.52A2.88 2.88 0 0 0 15 7c0-1-.68-1.99-1.95-2.75A9.98 9.98 0 0 0 8 3a10 10 0 0 0-5.05 1.25Z"/></svg>