<svg width="48" height="48" fill="none" xmlns="http://www.w3.org/2000/svg"><path fill="currentColor" d="M26.5 5H21V4h5.5c4.7 0 8.5 3.8 8.5 8.5v7.8l4.15-4.15.7.7-5.35 5.36-5.35-5.36.7-.7L34 20.29V12.5A7.5 7.5 0 0 0 26.5 5ZM7 12.5A2.5 2.5 0 0 1 9.5 10h12a2.5 2.5 0 0 1 2.5 2.5v27a2.5 2.5 0 0 1-2.5 2.5h-12A2.5 2.5 0 0 1 7 39.5v-27ZM9.5 11c-.83 0-1.5.67-1.5 1.5v27c0 .83.67 1.5 1.5 1.5h12c.83 0 1.5-.67 1.5-1.5v-27c0-.83-.67-1.5-1.5-1.5h-12Zm29 15H26v-1h12.5a2.5 2.5 0 0 1 2.5 2.5v12a2.5 2.5 0 0 1-2.5 2.5H26v-1h12.5c.83 0 1.5-.67 1.5-1.5v-12c0-.83-.67-1.5-1.5-1.5ZM21 39H10v-1h11v1Z"/></svg>