<svg width="16" height="16" fill="none" xmlns="http://www.w3.org/2000/svg"><path fill="currentColor" d="M5 0h3.5A4.5 4.5 0 0 1 13 4.5v1.2l2.3-2.26.7.72-3.5 3.43-3.64-3.43.68-.72L12 5.74V4.5A3.5 3.5 0 0 0 8.5 1H5V0ZM0 5.5C0 4.67.67 4 1.5 4h4C6.33 4 7 4.67 7 5.5v9c0 .83-.67 1.5-1.5 1.5h-4A1.5 1.5 0 0 1 0 14.5v-9ZM1.5 5a.5.5 0 0 0-.5.5v9c0 .28.22.5.5.5h4a.5.5 0 0 0 .5-.5v-9a.5.5 0 0 0-.5-.5h-4Zm10 5H8V9h3.5c.83 0 1.5.67 1.5 1.5v4c0 .83-.67 1.5-1.5 1.5H8v-1h3.5a.5.5 0 0 0 .5-.5v-4a.5.5 0 0 0-.5-.5ZM5 14H2v-1h3v1Z"/></svg>