<svg width="24" height="24" fill="none" xmlns="http://www.w3.org/2000/svg"><path fill="currentColor" d="M4.4 8.2C6.37 7.47 9.05 7 12 7c2.95 0 5.63.46 7.6 1.2.99.38 1.82.84 2.4 1.38.6.53 1 1.18 1 1.92 0 .6-.27 1.16-.7 1.62-.43.46-1.02.87-1.73 1.22-1.23.6-2.87 1.06-4.74 1.34L19 18l-.6.8-4.5-3.3 3.3-4.3.8.6-2.21 2.88c1.75-.27 3.25-.7 4.34-1.24a4.84 4.84 0 0 0 1.43-1c.31-.33.44-.65.44-.94 0-.36-.19-.76-.66-1.18a6.78 6.78 0 0 0-2.1-1.18A21.1 21.1 0 0 0 12 8c-2.85 0-5.42.44-7.25 1.14a7.1 7.1 0 0 0-2.1 1.18c-.46.42-.65.82-.65 1.18 0 .52.44 1.16 1.53 1.8a13.3 13.3 0 0 0 4.45 1.4l-.16 1c-1.94-.31-3.6-.85-4.8-1.54C1.86 13.49 1 12.58 1 11.5c0-.74.4-1.4 1-1.92.58-.54 1.41-1 2.4-1.37Z"/></svg>