<svg width="24" height="24" fill="none" xmlns="http://www.w3.org/2000/svg"><path fill="currentColor" d="M11.5 2H9V1h2.5A6.5 6.5 0 0 1 18 7.5v2.32l2.35-2.28.7.72-3.54 3.43-3.65-3.43.68-.72L17 9.84V7.5A5.5 5.5 0 0 0 11.5 2ZM1 6.5C1 5.67 1.67 5 2.5 5h7c.83 0 1.5.67 1.5 1.5v15c0 .83-.67 1.5-1.5 1.5h-7A1.5 1.5 0 0 1 1 21.5v-15ZM2.5 6a.5.5 0 0 0-.5.5v15c0 .28.22.5.5.5h7a.5.5 0 0 0 .5-.5v-15a.5.5 0 0 0-.5-.5h-7Zm18 8H12v-1h8.5c.83 0 1.5.67 1.5 1.5v7c0 .83-.67 1.5-1.5 1.5H12v-1h8.5a.5.5 0 0 0 .5-.5v-7a.5.5 0 0 0-.5-.5ZM9 21H3v-1h6v1Z"/></svg>