<svg width="48" height="48" fill="none" xmlns="http://www.w3.org/2000/svg"><path fill="currentColor" d="M12.84 17.7c2.88-1.12 6.81-1.8 11.16-1.8 4.34 0 8.28.66 11.15 1.74 1.44.55 2.63 1.21 3.47 1.98.85.76 1.38 1.67 1.38 2.68 0 1.66-1.42 3.03-3.44 4.05a23.2 23.2 0 0 1-6.94 1.99l4.58 3.36-.6.8-6.4-4.7 4.7-6.1.8.6-3.97 5.15c3-.37 5.56-1.08 7.38-2 1.96-.98 2.89-2.1 2.89-3.15 0-.64-.33-1.3-1.05-1.94a10.05 10.05 0 0 0-3.15-1.78c-2.73-1.04-6.54-1.68-10.8-1.68-4.25 0-8.07.67-10.8 1.73a10.13 10.13 0 0 0-3.15 1.8C9.33 21.1 9 21.77 9 22.4c0 .91.76 1.9 2.38 2.83 1.6.9 3.89 1.63 6.6 2.08l-.16.98a21.6 21.6 0 0 1-6.93-2.2C9.2 25.15 8 23.9 8 22.4c0-1.01.53-1.92 1.37-2.7a11.1 11.1 0 0 1 3.47-2Z"/></svg>