<svg width="16" height="16" fill="none" xmlns="http://www.w3.org/2000/svg"><path fill="currentColor" d="M13.05 4.25C14.32 5 15 6 15 7c0 .94-.6 1.87-1.74 2.62a8.93 8.93 0 0 1-3.64 1.27L12 7.8l-.8-.6-3.3 4.3 4.5 3.3.6-.8-2.96-2.16a9.77 9.77 0 0 0 3.77-1.39C15.1 9.6 16 8.4 16 7c0-1.49-1-2.75-2.44-3.61A10.97 10.97 0 0 0 8 2c-2.15 0-4.11.52-5.56 1.39C1 4.25 0 5.5 0 7c0 1.1.55 2.09 1.42 2.87a8.33 8.33 0 0 0 3.45 1.74l.26-.97a7.34 7.34 0 0 1-3.04-1.52A2.88 2.88 0 0 1 1 7c0-1 .68-1.99 1.95-2.75A9.98 9.98 0 0 1 8 3c2 0 3.78.49 5.05 1.25Z"/></svg>