<svg width="24" height="24" fill="none" xmlns="http://www.w3.org/2000/svg"><path fill="currentColor" d="M2.66 10.32c-.47.42-.66.82-.66 1.18 0 .3.13.6.44.94.31.35.79.68 1.43 1 1.1.53 2.59.97 4.34 1.24l-2.2-2.88.79-.6 3.3 4.3-4.5 3.3L5 18l3.17-2.32a16.76 16.76 0 0 1-4.74-1.34c-.7-.35-1.3-.76-1.73-1.22A2.4 2.4 0 0 1 1 11.5c0-.74.4-1.4 1-1.92.58-.54 1.41-1 2.4-1.37A22.08 22.08 0 0 1 12 7c2.95 0 5.63.46 7.6 1.2.99.38 1.82.84 2.4 1.38.6.53 1 1.18 1 1.92 0 1.08-.86 1.99-2.02 2.66a14.2 14.2 0 0 1-4.8 1.53l-.16-.98c1.86-.3 3.4-.8 4.45-1.42 1.1-.63 1.53-1.27 1.53-1.79 0-.36-.19-.76-.66-1.18a6.78 6.78 0 0 0-2.1-1.18A21.1 21.1 0 0 0 12 8c-2.85 0-5.42.44-7.25 1.14a7.1 7.1 0 0 0-2.1 1.18Z"/></svg>