<svg width="24" height="24" fill="none" xmlns="http://www.w3.org/2000/svg"><path fill="currentColor" d="M21.17 10.5c.44.4.58.74.58 1 0 .21-.1.47-.37.78a4.6 4.6 0 0 1-1.36.93c-.93.46-2.18.85-3.65 1.12l1.82-2.37-1.18-.92-3.47 4.51 4.72 3.46.88-1.22-2.68-1.96a16 16 0 0 0 4.22-1.27 6.07 6.07 0 0 0 1.8-1.27c.46-.5.77-1.1.77-1.79 0-.84-.45-1.55-1.07-2.11a7.99 7.99 0 0 0-2.49-1.42c-2-.76-4.72-1.22-7.69-1.22-2.97 0-5.69.46-7.7 1.22-1 .39-1.85.86-2.48 1.42A2.87 2.87 0 0 0 .75 11.5c0 1.22.97 2.2 2.15 2.87a14.5 14.5 0 0 0 4.88 1.57l.24-1.48c-1.84-.3-3.35-.8-4.37-1.38-1.07-.62-1.4-1.2-1.4-1.58 0-.26.14-.6.58-1a6.55 6.55 0 0 1 2.01-1.12c1.8-.69 4.33-1.13 7.16-1.13s5.36.44 7.16 1.13c.9.34 1.57.73 2.01 1.12Z"/></svg>