<svg width="16" height="16" fill="none" xmlns="http://www.w3.org/2000/svg"><path fill="currentColor" d="M.8 0H3v1H1v2H0V.8A.76.76 0 0 1 .43.09.87.87 0 0 1 .78 0H.8v.5V0ZM7 1H5V0h2v1Zm4 0H9V0h2v1Zm4 0h-2V0h2.2v.5V0h.02a.75.75 0 0 1 .1.01c.07.01.16.03.25.08A.76.76 0 0 1 16 .8V3h-1V1ZM3 3h10v10H3V3Zm1 1v8h8V4H4ZM1 5v2H0V5h1Zm15 0v2h-1V5h1ZM1 9v2H0V9h1Zm15 0v2h-1V9h1ZM1 15v-2H0v2.2a.76.76 0 0 0 .43.71.87.87 0 0 0 .35.09h.01l.01-.5v.5H3v-1H1Zm15-2v2.2a.76.76 0 0 1-.43.71.87.87 0 0 1-.35.09h-.01l-.01-.5v.5H13v-1h2v-2h1Zm-9 3H5v-1h2v1Zm4 0H9v-1h2v1Z"/></svg>