<svg width="24" height="24" fill="none" xmlns="http://www.w3.org/2000/svg"><path fill="currentColor" d="M2.8 2H5v1H3v2H2V2.8a.76.76 0 0 1 .43-.71.87.87 0 0 1 .35-.09h.02v.5V2ZM9 3H7V2h2v1Zm4 0h-2V2h2v1Zm4 0h-2V2h2v1Zm4 0h-2V2h2.2v.5V2h.02a.74.74 0 0 1 .1.01c.07.01.16.03.25.08a.76.76 0 0 1 .43.71V5h-1V3ZM6 6h12v12H6V6Zm1 1v10h10V7H7ZM3 7v2H2V7h1Zm19 0v2h-1V7h1ZM3 11v2H2v-2h1Zm19 0v2h-1v-2h1ZM3 15v2H2v-2h1Zm19 0v2h-1v-2h1ZM3 21v-2H2v2.2a.76.76 0 0 0 .43.71.87.87 0 0 0 .35.09h.01l.01-.5v.5H5v-1H3Zm19-2v2.2a.76.76 0 0 1-.43.71.87.87 0 0 1-.35.09h-.01l-.01-.49V22H19v-1h2v-2h1ZM9 22H7v-1h2v1Zm4 0h-2v-1h2v1Zm4 0h-2v-1h2v1Z"/></svg>