<svg width="24" height="24" fill="none" xmlns="http://www.w3.org/2000/svg"><path fill="currentColor" d="M6 6h12v12H6V6ZM2.8 1.75H5v1.5H3.25V5h-1.5V2.8a1.01 1.01 0 0 1 .56-.93 1.12 1.12 0 0 1 .46-.12h.03v.75-.75ZM9 3.25H7v-1.5h2v1.5Zm4 0h-2v-1.5h2v1.5Zm4 0h-2v-1.5h2v1.5Zm3.75 0H19v-1.5h2.2v.75-.75h.03a1.02 1.02 0 0 1 .14.01c.08.02.2.04.32.1a1.01 1.01 0 0 1 .56.94V5h-1.5V3.25ZM3.25 7v2h-1.5V7h1.5Zm19 0v2h-1.5V7h1.5Zm-19 4v2h-1.5v-2h1.5Zm19 0v2h-1.5v-2h1.5Zm-19 4v2h-1.5v-2h1.5Zm19 0v2h-1.5v-2h1.5Zm-19 5.75V19h-1.5v2.2a1.01 1.01 0 0 0 .56.93 1.12 1.12 0 0 0 .46.12h.02l.01-.74v.74H5v-1.5H3.25Zm19-1.75v2.2a1.01 1.01 0 0 1-.56.93 1.12 1.12 0 0 1-.45.12h-.03l-.01-.74v.74H19v-1.5h1.75V19h1.5ZM9 22.25H7v-1.5h2v1.5Zm4 0h-2v-1.5h2v1.5Zm4 0h-2v-1.5h2v1.5Z"/></svg>