<svg width="48" height="48" fill="none" xmlns="http://www.w3.org/2000/svg"><path fill="currentColor" d="M8 7h3v1H8.01A.15.15 0 0 0 8 8v3H7V8a.94.94 0 0 1 .53-.88A1.11 1.11 0 0 1 7.98 7H8v.5V7Zm11 1h-5V7h5v1Zm8 0h-5V7h5v1Zm8 0h-5V7h5v1Zm5.99 0H38V7h3v.5V7h.02a.93.93 0 0 1 .14.01c.08.02.2.05.31.1A.94.94 0 0 1 42 8v3h-1V8a.16.16 0 0 0-.01 0ZM8 14v5H7v-5h1Zm6 0h21v21H14V14Zm1 1v19h19V15H15Zm27-1v5h-1v-5h1ZM8 22v5H7v-5h1Zm34 0v5h-1v-5h1ZM8 30v5H7v-5h1Zm34 0v5h-1v-5h1ZM8 41v-3H7v3a.94.94 0 0 0 .53.88 1.12 1.12 0 0 0 .45.12h.01l.01-.5v.5h3v-1H8Zm34-3v3a.94.94 0 0 1-.53.88 1.12 1.12 0 0 1-.45.12h-.01l-.01-.5v.5h-3v-1h3v-3h1Zm-23 4h-5v-1h5v1Zm8 0h-5v-1h5v1Zm8 0h-5v-1h5v1Z"/></svg>