<svg width="48" height="48" fill="none" xmlns="http://www.w3.org/2000/svg"><path fill="currentColor" d="M26.46 9.05a79.8 79.8 0 0 1 13.08 0l.24.02.14.2a54.78 54.78 0 0 1 2.99 4.93L45 16.3v8.2c0 .83-.67 1.5-1.5 1.5h-2a1.5 1.5 0 0 1-1.5-1.5V24l-14-.04v.54c0 .83-.67 1.5-1.5 1.5h-2a1.5 1.5 0 0 1-1.5-1.5v-8.2l2.1-2.1a54.78 54.78 0 0 1 2.98-4.93l.14-.2.24-.02ZM23.7 15 22 16.7v.3h4v1h-4v6.5c0 .28.22.5.5.5h2a.5.5 0 0 0 .5-.5v-1.55L41 23v1.5c0 .28.22.5.5.5h2a.5.5 0 0 0 .5-.5V18h-4v-1h4v-.3L42.3 15H23.7Zm17.94-1a45.06 45.06 0 0 0-2.43-3.98 77.8 77.8 0 0 0-12.44 0L25.51 12c-.3.5-.7 1.16-1.16 2.01h17.3ZM28.3 17h9.42l1.36 1.36-.1.3c-.31 1-.6 1.78-.88 2.31-.13.27-.27.5-.41.67-.13.15-.36.36-.68.36h-8a.9.9 0 0 1-.68-.36c-.14-.17-.28-.4-.41-.67a17.1 17.1 0 0 1-.89-2.32l-.09-.29L28.3 17Zm.42 1-.64.64c.28.84.52 1.47.73 1.89a2.35 2.35 0 0 0 .3.47h7.8l.02-.01c.07-.08.16-.23.28-.46.21-.42.45-1.05.73-1.9L37.3 18h-8.58ZM3.98 18c4.91-.2 9.62 1.33 13.3 3.78l-.56.84A21.54 21.54 0 0 0 4.02 19l-.04-1ZM4 27c9.18 0 16 7.13 16 16h-1c0-8.33-6.38-15-15-15v-1Zm21.9 2.4C28.77 33.1 30 38.12 30 43h-1c0-4.73-1.18-9.5-3.9-13l.8-.6ZM4 35h1.1c3.78 0 6.9 3.12 6.9 6.9V43h-1v-1.1c0-3.22-2.68-5.9-5.9-5.9H4v-1Z"/></svg>