<svg width="24" height="24" fill="none" xmlns="http://www.w3.org/2000/svg"><path fill="currentColor" d="M13.26 3h7.48L24 7.19V8h-3.5v1H24v2.75c0 .69-.56 1.25-1.25 1.25H21c-.6 0-1.1-.43-1.23-1h-5.54c-.12.57-.63 1-1.23 1h-1.75c-.69 0-1.25-.56-1.25-1.25V9h3.5V8H10v-.81L13.26 3ZM2.1 6.75H0v1.5h2.1c2.25 0 4.3.66 5.96 1.86l.88-1.22A11.57 11.57 0 0 0 2.1 6.75Zm-1.1 5H0v1.5h1A6.8 6.8 0 0 1 7.75 20v1h1.5v-1A8.3 8.3 0 0 0 1 11.75ZM14.25 19c0-1.7-.32-3.3-.96-4.8l-1.38.6c.56 1.3.84 2.7.84 4.2v2h1.5v-2Zm-10 2A4.23 4.23 0 0 0 0 16.75v1.5c1.5 0 2.75 1.18 2.75 2.75h1.5Z"/></svg>