<svg width="16" height="16" fill="none" xmlns="http://www.w3.org/2000/svg"><path fill="currentColor" fill-opacity=".01" d="M0 0h16v16H0z"/><path fill="currentColor" fill-rule="evenodd" d="M4 0v3.3l.7.7h.6l.7-.7V0l3 2.25v2.96l-2 2V14a2 2 0 1 1-4 0V7.2l-2-2V2.26L4 0Zm7.47 0h2.06L15 2.36V4.7l-1 1V9h.5v5a2 2 0 1 1-4 0V9h.5V5.7l-1-1V2.37L11.47 0Zm.03 10v4a1 1 0 1 0 2 0v-4h-2ZM13 9h-1V5.3l-1-1V2.63L12.03 1h.94L14 2.64V4.3l-1 1V9ZM2 2.75v2.04l2 2V14a1 1 0 1 0 2 0V6.8l2-2V2.74L7 2v1.7L5.7 5H4.3L3 3.7V2l-1 .75Z" clip-rule="evenodd"/></svg>