<svg width="24" height="24" fill="none" xmlns="http://www.w3.org/2000/svg"><path fill="currentColor" fill-opacity=".01" d="M0 0h24v24H0z"/><path fill="currentColor" fill-rule="evenodd" d="M14.75 3.94a22.27 22.27 0 0 0-3.89 0 4.6 4.6 0 0 0-1.21.25c-.2.08-.54.3-1.05.73-.5.41-1.13.98-1.9 1.71l-.11.12-.16.02a22.1 22.1 0 0 0-3.62.7c-.49.17-.9.4-1.2.66-.32.27-.49.51-.54.66-.03.12-.06.28-.07.55v1.11c0 .1.05.24.18.37.12.13.25.18.32.18l2 .03v.5c0 .95.77 1.72 1.73 1.72h.02c.97 0 1.75-.78 1.75-1.75V11h1v.5a2.75 2.75 0 0 1-2.75 2.75h-.02a2.73 2.73 0 0 1-2.69-2.24L1.5 12c-.43 0-.8-.23-1.05-.5A1.58 1.58 0 0 1 0 10.46v-.18a66.48 66.48 0 0 0 0-.97c.02-.28.04-.57.13-.82.13-.4.44-.79.83-1.11.4-.34.93-.64 1.53-.84.75-.25 1.9-.5 3.64-.73a33 33 0 0 1 1.83-1.65 5.8 5.8 0 0 1 1.3-.88c.38-.17.93-.26 1.5-.32a23.25 23.25 0 0 1 4.07-.01 6.9 6.9 0 0 1 1.7.32c.67.25 1.46.67 2.2 1.06a125.3 125.3 0 0 0 1.57.8c.37.16.66.26.87.3a10.05 10.05 0 0 1 1.1.25 2 2 0 0 1 1.53 1.76V9h-1V7.48c-.03-.37-.35-.73-.77-.84l-.2-.05c-.3-.08-.52-.14-.82-.19-.34-.05-.73-.2-1.12-.38-.4-.17-.83-.4-1.26-.62l-.37-.2c-.76-.4-1.48-.78-2.07-1a6 6 0 0 0-1.44-.26ZM12 8v3.3l.7.7h.6l.7-.7V8l3 2.25v2.96l-2 2V20a2 2 0 1 1-4 0v-4.8l-2-2v-2.95L12 8Zm7.47 0h2.06L23 10.36v2.35l-1 1V16h.5v4a2 2 0 1 1-4 0v-4h.5v-2.3l-1-1v-2.34L19.47 8Zm.03 9v3a1 1 0 1 0 2 0v-3h-2Zm1.5-1h-1v-2.7l-1-1v-1.66L20.03 9h.94L22 10.64v1.65l-1 1V16Zm-11-5.25v2.04l2 2V20a1 1 0 1 0 2 0v-5.2l2-2v-2.05L15 10v1.7L13.7 13h-1.4L11 11.7V10l-1 .75Z" clip-rule="evenodd"/></svg>