<svg width="24" height="24" fill="none" xmlns="http://www.w3.org/2000/svg"><path fill="currentColor" fill-opacity=".01" d="M0 0h24v24H0z"/><path fill="currentColor" d="M16.53 3.4a6.88 6.88 0 0 0-1.7-.32 23.21 23.21 0 0 0-4.06 0c-.58.07-1.13.16-1.51.32a6.1 6.1 0 0 0-1.3.89c-.5.41-1.1.96-1.82 1.65-1.74.23-2.89.47-3.64.72-.6.2-1.13.5-1.53.84-.39.33-.7.72-.83 1.11-.09.26-.11.54-.12.83l-.01.7v.45a1.63 1.63 0 0 0 1.5 1.55l1.04.01a2.73 2.73 0 0 0 2.68 2.24h.03c1.34 0 2.46-.97 2.7-2.25h.54V10l2.67-2h1.33v3.09l.41.41h.18l.41-.41V8h1.33l2.67 2v.21l1.7-2.71h2.6l1.7 2.71v1.26c.33-.32.52-.78.49-1.27l-.2-2.64a2.01 2.01 0 0 0-1.53-1.75l-.18-.05a7.4 7.4 0 0 0-.92-.2c-.2-.04-.5-.14-.87-.31-.37-.16-.77-.37-1.2-.6l-.36-.2a22.6 22.6 0 0 0-2.2-1.05Z"/><path fill="currentColor" d="M19.75 8.5h1.5l1.25 2v2l-1 1V16h-2v-2.5l-1-1v-2l1.25-2ZM19 17v3a1.5 1.5 0 0 0 3 0v-3h-3Zm-7.5-2-2-2v-2.5l2-1.5v2.5l1 1h1l1-1V9l2 1.5V13l-2 2v5a1.5 1.5 0 0 1-3 0v-5Z"/></svg>