<svg width="48" height="48" fill="none" xmlns="http://www.w3.org/2000/svg"><path fill="currentColor" fill-opacity=".01" d="M0 0h48v48H0z"/><path fill="currentColor" fill-rule="evenodd" d="M29.29 11.14a45.55 45.55 0 0 0-7.61.02c-1.1.11-1.96.28-2.49.5-.44.2-1.15.67-2.15 1.5-.98.8-2.2 1.91-3.67 3.33l-.12.1-.16.03c-3.52.47-5.94.93-7.3 1.39-.98.33-1.8.82-2.42 1.35a3.74 3.74 0 0 0-1.12 1.5A7.4 7.4 0 0 0 2 23.39v.35c0 .7.56 1.26 1.26 1.26H7v.5a3.5 3.5 0 0 0 3.5 3.5h.5a3.5 3.5 0 0 0 3.5-3.5V25H23v1h-7.53A4.5 4.5 0 0 1 11 30h-.5a4.5 4.5 0 0 1-4.47-4H3.26A2.26 2.26 0 0 1 1 23.74v-.35c0-1.4.04-2.07.3-2.85a4.7 4.7 0 0 1 1.42-1.94 8.19 8.19 0 0 1 2.76-1.54c1.43-.48 3.88-.95 7.31-1.4a66.57 66.57 0 0 1 3.62-3.28c1-.82 1.8-1.38 2.4-1.64.67-.28 1.66-.46 2.77-.57 1.13-.12 2.43-.16 3.74-.17 1.39 0 2.8.03 4.05.15 1.25.1 2.37.3 3.16.59a39.7 39.7 0 0 1 4.2 2.02l.7.37c.83.44 1.63.85 2.35 1.18.73.32 1.34.54 1.8.62.76.13 1.52.29 2.28.48 1.46.37 2.14 1.77 2.47 2.87a20.16 20.16 0 0 1 .66 4.95A2.96 2.96 0 0 1 44.36 26H43v-1h1.3c.88-.07 1.64-.9 1.7-1.83.03-.53-.04-1.4-.17-2.32-.13-.9-.3-1.78-.46-2.28-.31-1.05-.86-1.96-1.75-2.19-.74-.19-1.47-.34-2.2-.46-.6-.1-1.3-.37-2.05-.7a43.91 43.91 0 0 1-3.13-1.58 38.77 38.77 0 0 0-4.06-1.97c-.65-.24-1.67-.42-2.9-.53Zm-3 7.86H28v3.3l.7.7h1.6l.7-.7V19h1.7l2.3 2.3v3.4l-3 3v9.8a2.5 2.5 0 0 1-5 0v-9.8l-3-3v-3.4l2.3-2.3Zm.42 1L25 21.7v2.6l3 3v10.2c0 .82.68 1.5 1.5 1.5s1.5-.68 1.5-1.5V27.3l3-3v-2.6L32.3 20H32v2.7L30.7 24h-2.4L27 22.7V20h-.3Zm11.48-1h2.62L42 21.38v3.33l-1 1V31h1v6.5a2.5 2.5 0 0 1-5 0V31h1v-5.3l-1-1v-3.32L38.2 19ZM38 32v5.5c0 .82.68 1.5 1.5 1.5s1.5-.68 1.5-1.5V32h-3Zm2-1h-1v-5.7l-1-1v-2.68l.8-1.62h1.4l.8 1.62v2.67l-1 1V31Z" clip-rule="evenodd"/></svg>