<svg width="48" height="48" fill="none" xmlns="http://www.w3.org/2000/svg"><path fill="currentColor" d="M20.2 5h7.7v5.62c1 .28 1.99.69 2.9 1.16l4-3.99 5.5 5.51-3.98 4c.47.9.89 1.84 1.17 2.9h5.61v7.7h-5.72c-.28 1-.69 1.99-1.16 2.9l3.99 4-5.51 5.5-4-3.98c-.9.47-1.84.89-2.9 1.17v5.61h-7.7v-5.72c-1-.28-1.99-.69-2.9-1.16l-4 3.99-5.5-5.51 3.98-4c-.47-.9-.89-1.84-1.17-2.9H5v-7.7h5.62c.28-1 .69-1.99 1.16-2.9l-3.99-4 5.51-5.5 4 3.98c.9-.47 1.84-.89 2.9-1.17V5Zm1 1v5.3l-.39.09a13 13 0 0 0-3.37 1.35l-.33.18L13.3 9.1l-4.1 4.1 3.82 3.81-.18.33a14.56 14.56 0 0 0-1.35 3.38l-.1.38H6v5.7h5.3l.09.39a13 13 0 0 0 1.35 3.37l.18.33L9.1 34.7l4.09 4.1L17 34.98l.33.18c1.07.58 2.23 1.07 3.38 1.35l.38.1v5.49h5.7v-5.4l.39-.09a13 13 0 0 0 3.37-1.35l.33-.18 3.81 3.81 4.1-4.09-3.82-3.81.18-.33a14.56 14.56 0 0 0 1.35-3.38l.1-.38h5.49v-5.7h-5.4l-.09-.39a13 13 0 0 0-1.35-3.37l-.18-.33 3.81-3.81-4.09-4.1-3.81 3.82-.33-.18a14.56 14.56 0 0 0-3.38-1.35l-.38-.1V6h-5.7ZM17 24c0-3.88 3.12-7 7-7s7 3.12 7 7-3.12 7-7 7-7-3.12-7-7Zm7-6a6 6 0 1 0-.02 11.98A6 6 0 0 0 24 18Z"/></svg>