<svg width="16" height="16" fill="none" xmlns="http://www.w3.org/2000/svg"><path fill="currentColor" d="M6.06 1h4v2.66c.27.12.53.27.77.44l2.3-1.32 2 3.46-2.3 1.32c.03.3.03.6 0 .89l2.29 1.37-2 3.46-2.3-1.33c-.24.16-.5.3-.76.4V15h-4v-2.66a4.5 4.5 0 0 1-.77-.44L3 13.23l-2-3.4 2.3-1.38c-.04-.3-.04-.6 0-.9L1 6.24l2-3.46L5.3 4.1c.23-.17.5-.31.76-.43V1Zm1 1v2.36l-.34.11c-.39.14-.75.34-1.07.6l-.27.23-2.02-1.17-1 1.74 2.02 1.16-.06.34a3.8 3.8 0 0 0 0 1.26l.06.33-2.02 1.21 1 1.7 2.02-1.18.27.23c.32.26.68.47 1.08.6l.33.13V14h2v-2.37l.35-.1a3.5 3.5 0 0 0 1.08-.57l.26-.2 2 1.16 1.01-1.74-2.02-1.22.06-.33a3.8 3.8 0 0 0 0-1.26l-.06-.34 2.02-1.15-1-1.74-2.02 1.17-.27-.23a3.5 3.5 0 0 0-1.08-.6l-.33-.13V2h-2Zm1 5a1 1 0 1 0 0 2 1 1 0 0 0 0-2Zm-2 1a2 2 0 1 1 4 0 2 2 0 0 1-4 0Z"/></svg>