<svg width="24" height="24" fill="none" xmlns="http://www.w3.org/2000/svg"><path fill="currentColor" fill-opacity=".01" d="M0 0h24v24H0z"/><path fill="currentColor" fill-rule="evenodd" d="M3.15 2H0V1h3.85l1.47 4H12v1H5.68l1.1 3h6.72v1H7.15l1.1 3h11.88l.5-1.64.95.28-.7 2.36H8.61l.85 2.33-.94.34L3.15 2ZM8 20.5a2.5 2.5 0 1 1 5 0 2.5 2.5 0 0 1-5 0Zm2.5-1.5a1.5 1.5 0 1 0 0 3 1.5 1.5 0 0 0 0-3Zm6.5 1.5a2.5 2.5 0 1 1 5 0 2.5 2.5 0 0 1-5 0Zm2.5-1.5a1.5 1.5 0 1 0 0 3 1.5 1.5 0 0 0 0-3Z" clip-rule="evenodd"/><path fill="currentColor" d="m16.84 4.95-.7.7 2.23 2.24 3.3-4.12-.78-.63-2.6 3.26-1.45-1.45Z"/><path fill="currentColor" fill-rule="evenodd" d="M13.4 5.3a5.3 5.3 0 1 1 10.6 0 5.3 5.3 0 0 1-10.6 0ZM18.7 1a4.3 4.3 0 1 0 0 8.6 4.3 4.3 0 0 0 0-8.6Z" clip-rule="evenodd"/></svg>