<svg width="24" height="24" fill="none" xmlns="http://www.w3.org/2000/svg"><path fill="currentColor" fill-opacity=".01" d="M0 0h24v24H0z"/><path fill="currentColor" d="M14.5 10c1.12 1 2.59 1.6 4.2 1.6h.1c1.11 0 2.16-.29 3.07-.8l-1 3.2H9.14l.82 2.25-1.41.5-1-2.75-1.45-4h8.4Zm-2.1-5v.3c0 1.38.45 2.66 1.2 3.7H5.74L4.3 5.04 3.23 2.25H.25V.75h4.02L5.89 5h6.52Zm-1.9 13a2.5 2.5 0 1 0 0 5 2.5 2.5 0 0 0 0-5Zm9 0a2.5 2.5 0 1 0 0 5 2.5 2.5 0 0 0 0-5Z"/><path fill="currentColor" fill-rule="evenodd" d="M18.7 0a5.3 5.3 0 1 0 0 10.6 5.3 5.3 0 0 0 0-10.6Zm-2.57 5.65.7-.7L18.3 6.4l2.6-3.26.79.63-3.3 4.12-2.25-2.24Z" clip-rule="evenodd"/></svg>