<svg width="48" height="48" fill="none" xmlns="http://www.w3.org/2000/svg"><path fill="currentColor" fill-opacity=".01" d="M0 0h48v48H0z"/><path fill="currentColor" fill-rule="evenodd" d="M32 8.5a7.5 7.5 0 1 1 15 0 7.5 7.5 0 0 1-15 0ZM39.5 2a6.5 6.5 0 1 0 0 13 6.5 6.5 0 0 0 0-13ZM7.16 4H1V3h6.84l3.13 8H31v1H11.36l2.73 7h29.3l1.09-3.16.95.32L41.36 28H17.6l2.86 7.32-.94.36-6.25-16L9.87 11h.02L7.16 4Zm10.08 23h23.4l2.4-7H14.49l2.76 7ZM43.3 6.29l-4.38 6.18-3.26-3.26.7-.7 2.43 2.42 3.7-5.22.8.58ZM19 41.5a3.5 3.5 0 1 1 7 0 3.5 3.5 0 0 1-7 0Zm3.5-2.5a2.5 2.5 0 1 0 0 5 2.5 2.5 0 0 0 0-5ZM35 41.5a3.5 3.5 0 1 1 7 0 3.5 3.5 0 0 1-7 0Zm3.5-2.5a2.5 2.5 0 1 0 0 5 2.5 2.5 0 0 0 0-5Z" clip-rule="evenodd"/></svg>