<svg width="16" height="16" fill="none" xmlns="http://www.w3.org/2000/svg"><path fill="currentColor" d="M13.33 3.17 12.1 1.95l.71-.7 2.42 2.42-2.42 2.42-.7-.71 1.2-1.21h-.75a4.17 4.17 0 0 0-3.15 1.25 15.84 15.84 0 0 0-1.03 1.2l-.1.12-.03.04-.4-.31-.38-.32.04-.05a50.67 50.67 0 0 1 1.2-1.39 5.17 5.17 0 0 1 3.9-1.54h.7Zm-9.1 2.3a4 4 0 0 0-3.14-1.3H0v-1h1.05a5 5 0 0 1 3.92 1.62v.01h.01A51.36 51.36 0 0 1 7.2 7.74a41.6 41.6 0 0 0 2.17 2.8 4 4 0 0 0 3.14 1.3h.81l-1.2-1.21.7-.7 2.42 2.41-2.42 2.42-.7-.7 1.2-1.22h-.77a5 5 0 0 1-3.92-1.62 42.17 42.17 0 0 1-2.38-3.08 51.4 51.4 0 0 0-2.02-2.66Zm1.14 4.94-.65.84v.01l-.02.01a4.93 4.93 0 0 1-3.85 1.56H0v-1h.89a3.9 3.9 0 0 0 3.06-1.22 53.82 53.82 0 0 0 .92-1.2L5 9.22l.4.3.4.3-.13.18-.3.4Z"/></svg>