<svg width="48" height="48" fill="none" xmlns="http://www.w3.org/2000/svg"><path fill="currentColor" d="m42.1 11.9-4.25-4.25.7-.7 5.56 5.55-5.56 5.55-.7-.7 4.44-4.45H37.8c-3.17 0-6.23 1.25-8.43 3.54a49.6 49.6 0 0 0-1.91 2.39 168.7 168.7 0 0 0-1.16 1.53l-.1.14-.8-.6.1-.13a156.5 156.5 0 0 1 1.17-1.55c.68-.9 1.5-1.94 1.96-2.45v-.01c2.4-2.5 5.74-3.86 9.17-3.86h4.3Zm-24.47 4.64A11.35 11.35 0 0 0 9.11 13H4v-1h5.1c3.54-.1 6.87 1.36 9.26 3.85v.01h.01c1.52 1.73 3.55 4.49 5.57 7.22l.01.02a121.1 121.1 0 0 0 5.52 7.17A11.54 11.54 0 0 0 38 34h4.38l-4.43-4.34.7-.72 5.56 5.46-5.56 5.55-.7-.7L42.19 35H38c-3.54 0-6.87-1.46-9.27-4.06-1.52-1.73-3.55-4.49-5.57-7.22l-.01-.02a121.24 121.24 0 0 0-5.52-7.16Zm2.22 12.13c-.67.88-1.46 1.9-1.88 2.36v.02A12.77 12.77 0 0 1 8.8 35H4v-1h4.8c3.16 0 6.22-1.34 8.43-3.64a47.2 47.2 0 0 0 1.82-2.3 198.59 198.59 0 0 0 1.15-1.52l.1-.14.4.3.4.3-.1.13a182.87 182.87 0 0 1-1.15 1.54Z"/></svg>