<svg width="24" height="24" fill="none" xmlns="http://www.w3.org/2000/svg"><path fill="currentColor" d="M17.32 1h1.14c.23 0 .46.03.69.1l1.12.32a1 1 0 0 1 .73.96v9.16c0 .82-.67 1.5-1.5 1.5h-3a1.5 1.5 0 0 1-1.5-1.5V2.36a1 1 0 0 1 .68-.95l.85-.28c.26-.09.53-.13.8-.13ZM16 6h4V5h-4v1Zm0 5h4v-1h-4v1ZM5.32 16h1.14c.23 0 .46.03.69.1l1.12.32a1 1 0 0 1 .73.96V23H3v-5.64a1 1 0 0 1 .68-.95l.85-.28c.26-.09.53-.13.8-.13ZM4 21h4v-1H4v1Zm8.14-10.5a8.27 8.27 0 0 0 3.62 4.58l-.78 1.28a9.77 9.77 0 0 1-4.27-5.4l1.43-.46Zm-3.07.16a11.27 11.27 0 0 0 5.32 7.1l-.75 1.3A12.77 12.77 0 0 1 7.61 11l1.46-.35Z"/></svg>