<svg width="24" height="24" fill="none" xmlns="http://www.w3.org/2000/svg"><path fill="currentColor" d="M17.32 2c-.16 0-.32.03-.47.08l-.85.28v9.18c0 .27.22.5.5.5h3a.5.5 0 0 0 .5-.5V2.38l-1.13-.32a1.5 1.5 0 0 0-.4-.06h-1.15Zm-.79-.87c.26-.09.53-.13.8-.13h1.13c.23 0 .46.03.69.1l1.12.32a1 1 0 0 1 .73.96v9.16c0 .82-.67 1.5-1.5 1.5h-3a1.5 1.5 0 0 1-1.5-1.5V2.36a1 1 0 0 1 .68-.95l.85-.28ZM19.5 6h-3V5h3v1Zm0 5h-3v-1h3v1Zm-7.6-.42a8.52 8.52 0 0 0 3.73 4.71l-.52.86a9.52 9.52 0 0 1-4.17-5.27l.96-.3Zm-3.08.14c.75 3.1 2.76 5.7 5.45 7.25l-.5.87a12.52 12.52 0 0 1-5.92-7.89l.97-.23ZM5.32 17c-.16 0-.32.03-.47.08l-.85.28V23H3v-5.64a1 1 0 0 1 .68-.95l.85-.28c.26-.09.53-.13.8-.13h1.13c.23 0 .46.03.69.1l1.12.32a1 1 0 0 1 .73.96V23H8v-5.62l-1.13-.32a1.5 1.5 0 0 0-.4-.06H5.31Zm2.18 4h-3v-1h3v1Z"/></svg>