<svg width="16" height="16" fill="none" xmlns="http://www.w3.org/2000/svg"><path fill="currentColor" d="M11 0v4.54c0 .27.22.5.5.5h3a.5.5 0 0 0 .5-.5V0h1v4.54c0 .82-.67 1.5-1.5 1.5h-3a1.5 1.5 0 0 1-1.5-1.5V0h1Zm3.5 4h-3V3h3v1Zm-6.6-.42a8.52 8.52 0 0 0 3.73 4.71l-.52.86a9.52 9.52 0 0 1-4.17-5.27l.96-.3Zm-3.08.14c.75 3.1 2.76 5.7 5.45 7.25l-.5.87a12.52 12.52 0 0 1-5.92-7.89l.97-.23ZM2.32 10c-.16 0-.32.03-.47.08l-.85.28V16H0v-5.64a1 1 0 0 1 .68-.95l.85-.28c.26-.09.53-.13.8-.13h1.13c.23 0 .46.03.69.1l1.12.32a1 1 0 0 1 .73.96V16H5v-5.62l-1.13-.32a1.5 1.5 0 0 0-.4-.06H2.31Zm2.18 4h-3v-1h3v1Z"/></svg>