<svg width="48" height="48" fill="none" xmlns="http://www.w3.org/2000/svg"><path fill="currentColor" d="M23.28 0H30v10h.5a4.5 4.5 0 0 1 4.5 4.5V20h3v8h-3v5.5a4.5 4.5 0 0 1-4.5 4.5H30v4.72c0 .82 0 1.47-.04 2a3.6 3.6 0 0 1-.34 1.37 3.5 3.5 0 0 1-1.53 1.53c-.4.2-.85.3-1.38.34-.52.04-1.17.04-1.99.04H18V38h-.5a4.5 4.5 0 0 1-4.5-4.5v-19a4.5 4.5 0 0 1 4.5-4.5h.5V5.28c0-.82 0-1.47.04-2 .05-.52.14-.97.34-1.37A3.5 3.5 0 0 1 19.91.38c.4-.2.85-.3 1.38-.34C21.8 0 22.46 0 23.28 0ZM19 10h10V1h-5.7c-.85 0-1.45 0-1.93.04-.47.04-.77.11-1 .23a2.5 2.5 0 0 0-1.1 1.1c-.12.23-.2.53-.23 1C19 3.85 19 4.45 19 5.3V10Zm0 28v9h5.7c.85 0 1.45 0 1.93-.04.47-.04.77-.11 1-.23a2.5 2.5 0 0 0 1.1-1.1c.12-.23.2-.53.23-1 .04-.48.04-1.08.04-1.93V38H19Zm16-11h2v-6h-2v6Zm-4.5-16h-13a3.5 3.5 0 0 0-3.5 3.5v19a3.5 3.5 0 0 0 3.5 3.5h13a3.5 3.5 0 0 0 3.5-3.5v-19a3.5 3.5 0 0 0-3.5-3.5Z"/></svg>