<svg width="24" height="24" fill="none" xmlns="http://www.w3.org/2000/svg"><path fill="currentColor" d="M10.88 0H16v5.05a2.5 2.5 0 0 1 2 2.45v9a2.5 2.5 0 0 1-2 2.45v2.17c0 .4 0 .74-.02 1-.03.29-.07.55-.2.79a2 2 0 0 1-.87.87c-.24.13-.5.17-.78.2-.27.02-.6.02-1 .02H8v-5.05a2.5 2.5 0 0 1-2-2.45v-9c0-1.2.86-2.22 2-2.45V2.88c0-.4 0-.74.02-1 .03-.29.07-.55.2-.79a2 2 0 0 1 .87-.87c.24-.13.5-.17.78-.2.27-.02.6-.02 1-.02ZM9 5h6V1h-4.1c-.43 0-.72 0-.94.02-.22.02-.34.05-.41.09a1 1 0 0 0-.44.44c-.04.07-.07.19-.1.4L9 2.9V5Zm0 14v4h4.1c.43 0 .72 0 .94-.02.22-.02.34-.05.41-.09a1 1 0 0 0 .44-.44c.04-.07.07-.19.1-.4l.01-.95V19H9ZM8.5 6C7.67 6 7 6.67 7 7.5v9c0 .83.67 1.5 1.5 1.5h7c.83 0 1.5-.67 1.5-1.5v-9c0-.83-.67-1.5-1.5-1.5h-7ZM19 14v-4h1v4h-1Z"/></svg>