<svg width="16" height="16" fill="none" xmlns="http://www.w3.org/2000/svg"><path fill="currentColor" d="M7.08 0H11v3.13c.68.26 1.17.93 1.17 1.7v6.34c0 .77-.49 1.44-1.17 1.7v1.23c0 .25 0 .44-.02.6-.02.19-.07.32-.14.48a1.5 1.5 0 0 1-.66.66c-.19.1-.38.13-.58.14-.2.02-.42.02-.7.02H5v-3.13a1.83 1.83 0 0 1-1.17-1.7V4.83c0-.77.49-1.44 1.17-1.7V2.07c0-.26 0-.49.02-.68.01-.2.05-.4.14-.58.15-.28.38-.51.66-.66.19-.1.39-.13.58-.14L7.08 0ZM6 3h4V1H7.1l-.62.01a.57.57 0 0 0-.2.04.5.5 0 0 0-.23.22.57.57 0 0 0-.04.21A8.5 8.5 0 0 0 6 2.1V3Zm0 10v2h2.9l.62-.01a.57.57 0 0 0 .2-.05.5.5 0 0 0 .27-.36l.01-.51V13H6ZM4.83 4.83v6.34c0 .46.38.83.84.83h4.66c.46 0 .84-.37.84-.83V4.83a.83.83 0 0 0-.84-.83H5.67a.83.83 0 0 0-.84.83ZM13 10V6h1v4h-1Z"/></svg>