<svg width="24" height="24" fill="none" xmlns="http://www.w3.org/2000/svg"><path fill="currentColor" d="M19.85 15.86c-1.63-.37-2.6-1.47-3.25-2.93-.13-.3-.04-.5.23-.68.21-.14.45-.22.7-.3.3-.08.58-.2.82-.41.34-.3.3-.73-.1-.97a.92.92 0 0 0-.9-.07c-.2.1-.42.17-.64.18-.17 0-.29-.02-.27-.27.04-.51.1-1.03.07-1.47v-.58c0-1.5-.7-2.62-1.92-3.42a4.7 4.7 0 0 0-2.95-.68c-.97.05-1.86.33-2.6.95a3.8 3.8 0 0 0-1.5 2.6c-.1.87-.04 1.75.02 2.62.02.2-.07.24-.22.25-.26.02-.51-.05-.74-.17a.85.85 0 0 0-.83.05c-.42.23-.46.68-.1 1 .24.19.5.3.8.4.2.06.4.12.58.22.4.21.5.45.31.86-.67 1.43-1.66 2.5-3.28 2.84-.32.07-.42.32-.25.6.11.18.28.29.46.37.43.21.9.33 1.37.39.28.03.36.16.41.4.17.78.22.8 1 .65.88-.17 1.72-.1 2.46.5.16.15.35.27.54.39 1.28.8 2.57.8 3.86 0 .32-.2.63-.43.95-.64.3-.2.66-.3 1.03-.31.47-.03.92.03 1.38.12.3.05.48-.06.56-.36l.13-.53c.02-.1.07-.17.2-.2a9 9 0 0 0 .92-.18c.34-.1.69-.2.96-.46.14-.12.23-.28.17-.48-.05-.2-.2-.24-.38-.28Z"/></svg>