<svg width="48" height="48" fill="none" xmlns="http://www.w3.org/2000/svg"><path fill="currentColor" d="M39.97 32.05c-.1-.37-.41-.46-.74-.53-3.17-.71-5.05-2.85-6.3-5.68-.26-.58-.09-.98.44-1.33.41-.27.88-.41 1.34-.56.58-.18 1.14-.4 1.6-.82.67-.59.59-1.42-.18-1.87a1.78 1.78 0 0 0-1.77-.13c-.39.18-.8.32-1.22.34-.34 0-.56-.03-.53-.52.08-1 .19-2 .13-2.85v-1.13c0-2.92-1.35-5.08-3.72-6.64a9.2 9.2 0 0 0-5.72-1.3c-1.87.1-3.6.63-5.06 1.83a7.38 7.38 0 0 0-2.9 5.04c-.18 1.7-.06 3.4.05 5.1.03.39-.13.45-.42.47-.52.04-1-.1-1.45-.33a1.65 1.65 0 0 0-1.6.1c-.81.44-.89 1.32-.18 1.92.44.38.97.6 1.52.78.4.13.78.25 1.15.44.77.4.97.87.6 1.67-1.3 2.77-3.23 4.84-6.36 5.51-.63.14-.82.62-.49 1.17.21.35.54.54.89.71.84.41 1.74.64 2.66.75.54.07.7.32.8.78.32 1.5.42 1.55 1.92 1.26 1.72-.33 3.35-.2 4.77.99.33.27.7.5 1.06.73a6.58 6.58 0 0 0 7.48 0c.63-.39 1.22-.83 1.84-1.23.6-.4 1.28-.57 2-.62.9-.05 1.8.08 2.68.24.6.1.93-.1 1.09-.68.1-.34.16-.7.24-1.03.05-.22.15-.35.4-.39.6-.1 1.2-.2 1.78-.36.67-.18 1.33-.4 1.86-.88.27-.25.44-.56.34-.95Z"/></svg>