<svg width="16" height="16" fill="none" xmlns="http://www.w3.org/2000/svg"><path fill="currentColor" d="M8 2.72 10.12.18l.76.64L8.5 3.68v3.45l2.99-1.72 1.29-3.5.93.35-1.14 3.1 3.26.56-.17.99-3.67-.64L9 8l2.99 1.73 3.67-.64.17.99-3.26.56 1.14 3.1-.93.35-1.29-3.5L8.5 8.87v3.45l2.38 2.86-.76.64L8 13.28l-2.12 2.54-.76-.64 2.38-2.86V8.87l-2.99 1.72-1.29 3.5-.93-.35 1.14-3.1-3.26-.56.17-.99 3.67.64L7 8 4.01 6.27l-3.67.64-.17-.99 3.26-.56-1.14-3.1.93-.35 1.29 3.5L7.5 7.13V3.68L5.12.82l.76-.64L8 2.72Z"/></svg>