<svg width="24" height="24" fill="none" xmlns="http://www.w3.org/2000/svg"><path fill="currentColor" d="M11.5 4.7 8.65 1.86l.7-.7L12 3.79l2.65-2.64.7.7-2.85 2.86v6.17l5.35-3.08 1.04-3.9.97.26-.97 3.61 3.62.97-.26.97-3.9-1.05L13 11.75l5.35 3.09 3.9-1.05.26.97-3.62.97.97 3.61-.97.26-1.04-3.9-5.35-3.08v6.17l2.85 2.86-.7.7L12 19.71l-2.65 2.64-.7-.7 2.85-2.86v-6.17L6.15 15.7l-1.04 3.9-.97-.26.97-3.61-3.62-.97.26-.97 3.9 1.05L11 11.75 5.65 8.66l-3.9 1.05-.26-.97 3.62-.97-.97-3.61.97-.26 1.04 3.9 5.35 3.08V4.71Z"/></svg>