<svg width="24" height="24" fill="none" xmlns="http://www.w3.org/2000/svg"><path fill="currentColor" d="M11.25 4.81 8.47 2.03 9.53.97 12 3.44 14.47.97l1.06 1.06-2.78 2.78v5.64l4.88-2.82 1.02-3.8 1.45.4-.9 3.36 3.37.9-.39 1.46-3.8-1.02-4.88 2.82 4.88 2.82 3.8-1.02.4 1.45-3.38.9.9 3.38-1.45.39-1.02-3.8-4.88-2.82v5.64l2.78 2.78-1.06 1.06L12 20.06l-2.47 2.47-1.06-1.06 2.78-2.78v-5.64l-4.88 2.82-1.02 3.8-1.45-.4.9-3.36-3.37-.9.39-1.46 3.8 1.02 4.88-2.82-4.88-2.82-3.8 1.02-.4-1.45 3.38-.9-.9-3.38 1.45-.39 1.02 3.8 4.88 2.82V4.81Z"/></svg>