<svg width="48" height="48" fill="none" xmlns="http://www.w3.org/2000/svg"><path fill="currentColor" d="M23.25 10.2 17.4 4.36l.7-.7 5.65 5.64 5.65-5.64.7.7-5.85 5.86v13.42l11.63-6.7 2.14-8 .97.25-2.07 7.72 7.72 2.06-.26.97-8-2.14-11.63 6.71 11.63 6.71 8-2.14.26.97L37.32 32l-.29.5L39 39.82l-.97.26-2.14-8-11.63-6.71v13.42l5.86 5.86-.71.7L24.05 40h-.59l-5.35 5.35-.71-.7 5.85-5.86V25.37l-11.62 6.71-2.15 8-.96-.26 1.96-7.32-.3-.5-7.3-1.96.25-.97 8 2.14 11.62-6.71-11.62-6.71-8 2.14-.26-.97 7.71-2.06-2.06-7.72.96-.26 2.15 8 11.62 6.71V10.21Z"/></svg>