<svg width="48" height="48" fill="none" xmlns="http://www.w3.org/2000/svg"><path fill="currentColor" d="M22 0h3v5h.5c.42 0 .79.21 1.08.48.29.27.54.64.74 1.05.41.82.68 1.9.68 2.97V23h4v7h-2v5h-2v6.5a2.5 2.5 0 0 1-2 2.45v2.55c0 .83-.67 1.5-1.5 1.5h-2v-1h2a.5.5 0 0 0 .5-.5V44h-3.5a2.5 2.5 0 0 1-2.5-2.5V35h-2v-5h-2v-7h4V9.5c0-1.08.27-2.15.68-2.97.2-.41.45-.78.74-1.05A1.6 1.6 0 0 1 21.5 5h.5V0Zm1 5h1V1h-1v4Zm-5 25v4h11v-4H18Zm11-1h2v-5h-2v5Zm-1-5h-9v5h9v-5Zm-10 5v-5h-2v5h2Zm2 6v2h7v-2h-7Zm7 3h-7v2h7v-2Zm0 3h-7v.5c0 .83.67 1.5 1.5 1.5h4c.83 0 1.5-.67 1.5-1.5V41ZM20.57 6.97c-.34.68-.57 1.6-.57 2.53V23h7V9.5a5.9 5.9 0 0 0-.57-2.53c-.17-.34-.36-.6-.54-.76-.18-.17-.31-.21-.39-.21h-4c-.08 0-.21.04-.4.2a3.2 3.2 0 0 0-.53.77Z"/></svg>