<svg width="16" height="16" fill="none" xmlns="http://www.w3.org/2000/svg"><path fill="currentColor" d="M7 1.06V0h1v1.06h.34c.25 0 .45.13.58.25.14.13.24.28.32.44.16.32.26.73.26 1.13V8H11v3h-1v1.84c0 .59-.44 1.07-1 1.15v.51c0 .83-.67 1.5-1.5 1.5H7v-1h.5a.5.5 0 0 0 .5-.5V14H6.16C5.52 14 5 13.48 5 12.84V11H4V8h1.5V2.88c0-.4.1-.8.26-1.13.08-.16.18-.31.32-.44a.86.86 0 0 1 .58-.25H7ZM6.5 8h2V2.88c0-.25-.07-.5-.15-.68a.7.7 0 0 0-.09-.14H6.74a.7.7 0 0 0-.09.14 1.6 1.6 0 0 0-.15.68V8ZM6 11v1.84c0 .09.07.16.16.16h2.68c.09 0 .16-.07.16-.16V11H6ZM5 9v1h5V9H5Z"/></svg>