<svg width="24" height="24" fill="none" xmlns="http://www.w3.org/2000/svg"><path fill="currentColor" d="M12 2V0h1v2h.5c.3 0 .54.15.7.3.18.17.32.38.43.6.23.45.37 1.02.37 1.6V11h2v4h-1v3h-1v2.5c0 .65-.42 1.2-1 1.41v.59c0 .83-.67 1.5-1.5 1.5H12v-1h.5a.5.5 0 0 0 .5-.5V22h-1.5a1.5 1.5 0 0 1-1.5-1.5V18H9v-3H8v-4h2V4.5c0-.58.14-1.15.37-1.6.1-.22.25-.43.42-.6.17-.15.41-.3.71-.3h.5Zm-1 9h3V4.5c0-.42-.1-.85-.26-1.15a1.12 1.12 0 0 0-.21-.31.29.29 0 0 0-.05-.04h-1.96l-.05.04c-.06.05-.13.16-.21.3-.15.31-.26.74-.26 1.16V11Zm.53-8Zm1.94 0ZM10 15v2h5v-2h-5Zm6-1v-2H9v2h7Zm-5 4v2.5c0 .28.22.5.5.5h2a.5.5 0 0 0 .5-.5V18h-3Z"/></svg>