<svg width="48" height="48" fill="none" xmlns="http://www.w3.org/2000/svg"><path fill="currentColor" d="m30.55 16.28-.9.44L23.5 4.14l-6.27 12.82-14.16 2.09 10.17 9.98-2.38 14.06 12.64-6.66 12.64 6.66-2.38-14.06 10.89-10.69.7.72-10.51 10.31 2.62 15.54-13.96-7.34L9.54 44.9l2.62-15.54L.93 18.35l15.64-2.3 6.93-14.2 7.05 14.42Z"/><path fill="currentColor" d="M31.62 11.12h1.5c.78-2.3 2.9-3.62 5.55-3.62 1.18 0 2.43.17 3.37.57v1.3a8.46 8.46 0 0 0-3.16-.58c-2.13 0-3.65.81-4.26 2.33h5.49v1.21h-5.76c-.05.26-.05.51-.05.78 0 .29.02.57.05.83h5.76v1.21h-5.45c.68 1.65 2.39 2.3 4.17 2.3 1.74 0 2.69-.27 3.3-.5v1.26c-.75.3-1.74.51-3.33.51-2.76 0-4.93-1.2-5.7-3.57h-1.48v-1.21h1.23a7.2 7.2 0 0 1 0-1.61h-1.23v-1.21Z"/></svg>