<svg width="24" height="24" fill="none" xmlns="http://www.w3.org/2000/svg"><path fill="currentColor" d="M4.5 3a1.5 1.5 0 1 0 0 3 1.5 1.5 0 0 0 0-3Zm7.53 4.74a.75.75 0 1 0-1.06 1.06.75.75 0 0 0 1.06-1.06Zm0 6.5a.75.75 0 1 0-1.06 1.06.75.75 0 0 0 1.06-1.06Z"/><path fill="currentColor" d="M10.9 0H0v10.7l12.5 12.5 10.8-10.8L10.9 0ZM2 4.5a2.5 2.5 0 1 1 5 0 2.5 2.5 0 0 1-5 0Zm8.26 2.53a1.75 1.75 0 1 1 2.48 2.48 1.75 1.75 0 0 1-2.48-2.48ZM5.84 12v-1h11.32v1H5.84Zm4.42 1.53a1.75 1.75 0 1 1 2.48 2.48 1.75 1.75 0 0 1-2.48-2.48Z"/></svg>