<svg width="24" height="24" fill="none" xmlns="http://www.w3.org/2000/svg"><path fill="currentColor" fill-opacity=".01" d="M0 0h24v24H0z"/><path fill="currentColor" d="m15.9 7.97-.87-.13L11.48.75l-3.32 7.1-7.84 1.1 5.64 5.52-1.32 7.84 6.96-3.65 6.96 3.65-1.33-7.84 4.15-4.06-.7.02c-2 0-3.84-.78-4.77-2.46Z"/><path fill="currentColor" d="M15.4 4.74v-.89h1.1c.58-1.68 2.14-2.65 4.08-2.65.86 0 1.78.12 2.47.42v.96a6.2 6.2 0 0 0-2.32-.43c-1.56 0-2.67.59-3.12 1.7h4.02v.9h-4.22c-.04.18-.04.37-.04.56 0 .21.02.42.04.6h4.22v.9h-4c.5 1.21 1.76 1.68 3.07 1.68a6.8 6.8 0 0 0 2.42-.36v.92a6.4 6.4 0 0 1-2.45.38c-2.02 0-3.61-.88-4.18-2.62h-1.08v-.9h.9a5.28 5.28 0 0 1 0-1.17h-.9Z"/></svg>