<svg width="24" height="24" fill="none" xmlns="http://www.w3.org/2000/svg"><path fill="currentColor" fill-opacity=".01" d="M0 0h24v24H0z"/><path fill="currentColor" d="M13.95 5.68 11.48.75l-3.32 7.1-7.84 1.1 5.64 5.52-1.32 7.84 6.96-3.65 6.96 3.65-1.32-7.84 3-2.94-.7-.71-3.38 3.3 1.08 6.37-5.64-2.95-5.64 2.95 1.08-6.36-4.57-4.48 6.37-.9 2.67-5.7 1.54 3.07.9-.44Z"/><path fill="currentColor" d="M15.4 3.85v.9h.9a4.85 4.85 0 0 0 0 1.17h-.9v.89h1.1c.56 1.74 2.15 2.62 4.17 2.62a6.4 6.4 0 0 0 2.45-.38v-.92a6.8 6.8 0 0 1-2.42.36c-1.31 0-2.57-.47-3.06-1.68h4v-.9H17.4a5.49 5.49 0 0 1-.04-.6c0-.2 0-.38.04-.57h4.22v-.89H17.6c.45-1.11 1.56-1.7 3.12-1.7.73 0 1.53.1 2.32.42v-.95a6.5 6.5 0 0 0-2.47-.42c-1.94 0-3.5.97-4.07 2.65h-1.1Z"/></svg>