<svg width="48" height="48" fill="none" xmlns="http://www.w3.org/2000/svg"><path fill="currentColor" fill-opacity=".01" d="M0 0h48v48H0z"/><path fill="currentColor" d="M30.55 16.28 23.5 1.86l-6.93 14.18L.93 18.35l11.23 11.02-2.62 15.54 13.96-7.34 13.96 7.34-2.62-15.54 10.51-10.31-.7-.72-10.89 10.69 2.38 14.06-12.64-6.66-12.64 6.66 2.38-14.06-10.17-9.98 14.16-2.1 6.27-12.8 6.15 12.58.9-.44Z"/><path fill="currentColor" d="M31.62 11.12v1.21h1.23a6.6 6.6 0 0 0 0 1.6h-1.23v1.22h1.48c.77 2.37 2.94 3.57 5.7 3.57a8.7 8.7 0 0 0 3.33-.51v-1.26c-.61.23-1.56.5-3.3.5-1.78 0-3.5-.65-4.17-2.3h5.45v-1.21h-5.76a7.2 7.2 0 0 1-.05-.83c0-.27 0-.52.05-.78h5.76v-1.21h-5.5c.62-1.52 2.14-2.33 4.27-2.33.99 0 2.08.15 3.16.59V8.06a8.96 8.96 0 0 0-3.37-.57c-2.64 0-4.77 1.32-5.55 3.62h-1.5Z"/></svg>