<svg width="24" height="24" fill="none" xmlns="http://www.w3.org/2000/svg"><path fill="currentColor" d="M0 0h10.9l12.4 12.4-10.8 10.8L0 10.7V0Zm1 1v9.3l11.5 11.5 9.4-9.4L10.5 1H1Zm1 3.5a2.5 2.5 0 1 1 5 0 2.5 2.5 0 0 1-5 0ZM4.5 3a1.5 1.5 0 1 0 0 3 1.5 1.5 0 0 0 0-3Zm5.76 4.03a1.75 1.75 0 1 1 2.48 2.48 1.75 1.75 0 0 1-2.48-2.48Zm1.77.7a.75.75 0 1 0-1.06 1.07.75.75 0 0 0 1.06-1.06ZM17.16 12H5.84v-1h11.32v1Zm-6.9 1.53a1.75 1.75 0 1 1 2.48 2.48 1.75 1.75 0 0 1-2.48-2.48Zm1.77.7a.75.75 0 1 0-1.06 1.07.75.75 0 0 0 1.06-1.06Z"/></svg>