<svg width="16" height="16" fill="none" xmlns="http://www.w3.org/2000/svg"><path fill="currentColor" d="M4.35 15.04 1.8 12.49l2.55-2.55.71.71L3.71 12H10v1H3.71l1.35 1.35-.71.71v-.02Zm9.3-.7-12-12 .71-.71 12 12-.71.71Zm.18-2.86-.65-.76a5.44 5.44 0 0 0 1.83-4.14v-.6h1v.6c0 1.92-.79 3.7-2.17 4.9h-.01ZM1 8.99H0v-.6C0 6.8.53 5.3 1.5 4.17l.76.65A5.47 5.47 0 0 0 1 8.39v.6Zm11.65-3.95-.71-.71 1.35-1.35H6.2c-.37 0-.74.04-1.09.12l-.21-.98a6.4 6.4 0 0 1 1.31-.14h7.06L11.96.71l.7-.72 2.57 2.48-2.56 2.56-.02.01Z"/></svg>