<svg width="24" height="24" fill="none" xmlns="http://www.w3.org/2000/svg"><path fill="currentColor" d="M18 23v-.73l1.17-.96a17.85 17.85 0 0 0 .8-.7 3.6 3.6 0 0 0 .46-.59c.05-.1.09-.18.11-.27a1.03 1.03 0 0 0-.02-.6.64.64 0 0 0-.18-.26.86.86 0 0 0-.31-.17 1.54 1.54 0 0 0-.46-.06 2.8 2.8 0 0 0-.79.1 3.66 3.66 0 0 0-.65.24v-.82a2.5 2.5 0 0 1 .62-.25 3.4 3.4 0 0 1 .9-.11c.24 0 .46.02.65.06.19.04.36.09.5.16a1.46 1.46 0 0 1 .63.58c.07.12.12.24.15.38a1.93 1.93 0 0 1-.03.91 2.87 2.87 0 0 1-.5.86 4.93 4.93 0 0 1-.78.76l-.45.35-.4.3h2.47V23H18Z"/><path fill="currentColor" d="M11.5 2C5.68 2 1 6.68 1 12.5S5.68 23 11.5 23c1.54 0 2.97-.29 4.3-.86l.4.92a11.8 11.8 0 0 1-4.7.94C5.12 24 0 18.88 0 12.5S5.12 1 11.5 1a11.47 11.47 0 0 1 10.87 15.17l-.94-.34A10.47 10.47 0 0 0 11.5 2Zm.5 11h4v1h-5V5.5h1V13Z"/></svg>