<svg width="24" height="24" fill="none" xmlns="http://www.w3.org/2000/svg"><path fill="currentColor" d="M11.5 24a11.5 11.5 0 1 1 10.96-8H18a2 2 0 0 0-2 2v5.09c-1.38.58-2.9.91-4.5.91ZM12 5.5h-1V14h5v-1h-4V5.5Z"/><path fill="currentColor" d="M18 23v-.73l1.17-.96a17.85 17.85 0 0 0 .8-.7 3.6 3.6 0 0 0 .46-.59c.05-.1.09-.18.11-.27a1.03 1.03 0 0 0-.02-.6.64.64 0 0 0-.18-.26.86.86 0 0 0-.31-.17 1.54 1.54 0 0 0-.46-.06 2.8 2.8 0 0 0-.79.1 3.66 3.66 0 0 0-.65.24v-.82a2.5 2.5 0 0 1 .62-.25 3.4 3.4 0 0 1 .9-.11c.24 0 .46.02.65.06.19.04.36.09.5.16a1.46 1.46 0 0 1 .63.58c.07.12.12.24.15.38a1.93 1.93 0 0 1-.03.91 2.87 2.87 0 0 1-.5.86 4.93 4.93 0 0 1-.78.76l-.45.35-.4.3h2.47V23H18Z"/></svg>