<svg width="16" height="16" fill="none" xmlns="http://www.w3.org/2000/svg"><path fill="currentColor" d="M7.5 2C3.9 2 1 4.9 1 8.5S3.9 15 7.5 15v1A7.48 7.48 0 0 1 0 8.5C0 4.34 3.34 1 7.5 1S15 4.34 15 8.5h-1C14 4.9 11.1 2 7.5 2ZM8 4v4h2v1H7V4h1Z"/><path fill="currentColor" d="M10 16v-.73l1.17-.96a17.85 17.85 0 0 0 .8-.7 3.6 3.6 0 0 0 .46-.59c.05-.1.09-.18.11-.27a1.03 1.03 0 0 0-.02-.6.64.64 0 0 0-.18-.26.86.86 0 0 0-.31-.17 1.54 1.54 0 0 0-.46-.06 2.8 2.8 0 0 0-.79.1 3.66 3.66 0 0 0-.65.24v-.82a2.5 2.5 0 0 1 .62-.25 3.4 3.4 0 0 1 .9-.11c.24 0 .46.02.65.06.19.04.36.09.5.16a1.46 1.46 0 0 1 .63.58c.07.12.12.24.15.38a1.93 1.93 0 0 1-.03.91 2.87 2.87 0 0 1-.5.86 4.93 4.93 0 0 1-.78.76l-.45.35-.4.3h2.47V16H10Z"/></svg>