<svg width="48" height="48" fill="none" xmlns="http://www.w3.org/2000/svg"><path fill="currentColor" d="M37.5 41.91v-8.25l-2.5.43v-1l2.96-.59h.76v9.41h-1.23Z"/><path fill="currentColor" d="M23.5 6C13.88 6 6 13.88 6 23.5 6 33.12 13.88 41 23.5 41c3.02 0 5.84-.68 8.26-2.04l.48.88A17.77 17.77 0 0 1 23.5 42 18.55 18.55 0 0 1 5 23.5C5 13.32 13.32 5 23.5 5a18.55 18.55 0 0 1 17.26 25.19l-.92-.38A17.55 17.55 0 0 0 23.5 6ZM23 20.03V9h1v11.03A3.42 3.42 0 0 1 26.97 23H34v1h-7.03a3.44 3.44 0 0 1-3.47 3 3.45 3.45 0 0 1-3.5-3.5c0-1.8 1.27-3.23 3-3.47Zm.5.97a2.45 2.45 0 0 0-2.5 2.5c0 1.42 1.08 2.5 2.5 2.5s2.5-1.08 2.5-2.5-1.08-2.5-2.5-2.5Z"/></svg>