<svg width="48" height="48" fill="none" xmlns="http://www.w3.org/2000/svg"><path fill="currentColor" d="M23 5h.5C33.6 5 41.89 13.21 42 23.3l3.65-3.65.7.7-4.85 4.86-4.85-4.86.7-.7L41 23.29A17.55 17.55 0 0 0 23.5 6H23V5Zm-7.43 5.26-1.5-2.5.86-.52 1.5 2.5-.86.52Zm-6.92 6.1-2-2 .7-.71 2 2-.7.7Zm16.91 4.31 5.56-6.5.76.65-5.6 6.55a3.5 3.5 0 1 1-.72-.7ZM23.5 21a2.5 2.5 0 1 0 0 5 2.5 2.5 0 0 0 0-5ZM7 24H4v-1h3v1Zm1.3 7.9-2 1.5-.6-.8 2-1.5.6.8Zm31.4 1.5-2-1.5.6-.8 2 1.5-.6.8Zm-24.35 4.95-2 2-.7-.7 2-2 .7.7Zm17.3 2-2-2 .7-.7 2 2-.7.7ZM23 43v-3h1v3h-1Z"/></svg>