<svg width="48" height="48" fill="none" xmlns="http://www.w3.org/2000/svg"><path fill="currentColor" d="M35 41.97v-.93l2.42-2.33a45 45 0 0 0 1.33-1.35 8.05 8.05 0 0 0 .83-1.13c.09-.18.16-.35.2-.53a2.01 2.01 0 0 0-.04-1.23c-.08-.21-.2-.39-.36-.53a1.64 1.64 0 0 0-.62-.34 2.94 2.94 0 0 0-.88-.12 8.58 8.58 0 0 0-1.43.13 5.09 5.09 0 0 0-1.17.4v-1.08a4.62 4.62 0 0 1 1.8-.5 8.98 8.98 0 0 1 1.84.06c.3.06.58.14.82.25a2.16 2.16 0 0 1 1.3 1.6A3.65 3.65 0 0 1 41 35.9c-.06.25-.16.5-.28.73a5.5 5.5 0 0 1-.45.7 9.34 9.34 0 0 1-1.25 1.37l-.75.7-1.63 1.56h4.84v1H35Z"/><path fill="currentColor" d="M23.5 6C13.88 6 6 13.88 6 23.5 6 33.12 13.88 41 23.5 41c3.02 0 5.84-.68 8.26-2.04l.48.88A17.77 17.77 0 0 1 23.5 42 18.55 18.55 0 0 1 5 23.5C5 13.32 13.32 5 23.5 5a18.55 18.55 0 0 1 17.26 25.19l-.92-.38A17.55 17.55 0 0 0 23.5 6ZM23 20.03V9h1v11.03A3.42 3.42 0 0 1 26.97 23H34v1h-7.03a3.44 3.44 0 0 1-3.47 3 3.45 3.45 0 0 1-3.5-3.5c0-1.8 1.27-3.23 3-3.47Zm.5.97a2.45 2.45 0 0 0-2.5 2.5c0 1.42 1.08 2.5 2.5 2.5s2.5-1.08 2.5-2.5-1.08-2.5-2.5-2.5Z"/></svg>