<svg width="48" height="48" fill="none" xmlns="http://www.w3.org/2000/svg"><path fill="currentColor" d="M41 23.5C41 13.88 33.12 6 23.5 6V5C33.68 5 42 13.32 42 23.5S33.68 42 23.5 42h-.52A18.57 18.57 0 0 1 5 23.71l-3.64 3.64-.7-.7 4.85-4.86 4.85 4.86-.7.7L6 23.7A17.57 17.57 0 0 0 23.01 41h.49C33.12 41 41 33.12 41 23.5ZM15.57 10.26l-1.5-2.5.86-.52 1.5 2.5-.86.52Zm-6.92 6.1-2-2 .7-.71 2 2-.7.7Zm16.91 4.31 5.56-6.5.76.65-5.6 6.55a3.5 3.5 0 1 1-.72-.7ZM23.5 21a2.5 2.5 0 1 0 0 5 2.5 2.5 0 0 0 0-5Z"/></svg>