<svg width="24" height="24" fill="none" xmlns="http://www.w3.org/2000/svg"><path fill="currentColor" d="M6.86 6h3.64C9.12 6 7.99 7.04 7.23 8.46A12.02 12.02 0 0 0 6 14a12 12 0 0 0 1.23 5.54C7.99 20.96 9.13 22 10.5 22H6.86c-1.45 0-2.68-1.01-3.51-2.45A11.23 11.23 0 0 1 2 14c0-2.14.5-4.1 1.35-5.55C4.18 7 5.4 6 6.86 6Z"/><path fill="currentColor" d="M10 14c0-.64.1-1.2.26-1.58a1.23 1.23 0 0 1 .24-.4s.02 0 .03.02c.06.07.14.19.21.38.15.38.26.94.26 1.58 0 .64-.1 1.2-.26 1.58a1.23 1.23 0 0 1-.24.4s-.02 0-.03-.02a1.23 1.23 0 0 1-.21-.38A4.44 4.44 0 0 1 10 14Z"/><path fill="currentColor" d="M12 7.7v7.47a2.83 2.83 0 0 0 1.47 2.48c-.16.52-.36 1-.58 1.42-.7 1.3-1.56 1.93-2.39 1.93-.83 0-1.7-.64-2.39-1.93A11.03 11.03 0 0 1 7 14c0-2 .43-3.8 1.11-5.07C8.81 7.63 9.67 7 10.5 7c.5 0 1.02.23 1.5.7Zm0 6.3c0-.74-.12-1.43-.33-1.95a2.2 2.2 0 0 0-.42-.7 1.04 1.04 0 0 0-.75-.35c-.32 0-.57.16-.75.35a2.2 2.2 0 0 0-.42.7A5.42 5.42 0 0 0 9 14c0 .74.12 1.43.33 1.95.1.26.24.5.42.7.18.19.43.35.75.35s.57-.16.75-.35c.18-.2.32-.44.42-.7.21-.52.33-1.21.33-1.95Z"/><path fill="currentColor" d="M22 3v12.17A1.83 1.83 0 0 1 20.17 17h-5.34A1.83 1.83 0 0 1 13 15.17V3h9Zm-2.5-1h-4V.5h4V2Z"/></svg>