<svg width="24" height="24" fill="none" xmlns="http://www.w3.org/2000/svg"><path fill="currentColor" d="M15 1h5v2h2v12.17A1.83 1.83 0 0 1 20.17 17h-5.34A1.83 1.83 0 0 1 13 15.17V3h2V1Zm1 2h3V2h-3v1Zm-2 1v11.17a.83.83 0 0 0 .83.83h5.34a.83.83 0 0 0 .83-.83V4h-7ZM4.21 8.95A10.24 10.24 0 0 0 3 14c0 2 .47 3.78 1.21 5.05.75 1.28 1.7 1.95 2.65 1.95H8.3c-.4-.4-.76-.9-1.06-1.46A12.02 12.02 0 0 1 6 14a12 12 0 0 1 1.23-5.54c.3-.56.66-1.06 1.06-1.46H6.86c-.95 0-1.9.67-2.65 1.95ZM10.5 7c-.83 0-1.7.64-2.39 1.93A11.03 11.03 0 0 0 7 14c0 2 .43 3.8 1.11 5.07.7 1.3 1.56 1.93 2.39 1.93.57 0 1.15-.3 1.68-.9.54-.6 1.01-1.5 1.34-2.6l.96.28a7.9 7.9 0 0 1-1.55 2.98A3.28 3.28 0 0 1 10.5 22c-.12 0-.24 0-.36-.02V22H6.86c-1.45 0-2.68-1.01-3.51-2.45A11.23 11.23 0 0 1 2 14c0-2.14.5-4.1 1.35-5.55C4.18 7 5.4 6 6.86 6h3.64c.43 0 .84.1 1.22.29l-.44.9A1.79 1.79 0 0 0 10.5 7Zm-.75 4.35c.18-.19.43-.35.75-.35s.57.16.75.35c.18.2.32.44.42.7.21.52.33 1.21.33 1.95s-.12 1.43-.33 1.95c-.1.26-.24.5-.42.7-.18.19-.43.35-.75.35s-.57-.16-.75-.35a2.2 2.2 0 0 1-.42-.7A5.42 5.42 0 0 1 9 14c0-.74.12-1.43.33-1.95.1-.26.24-.5.42-.7Zm.5 1.07c-.14.38-.25.94-.25 1.58 0 .64.1 1.2.26 1.58a1.23 1.23 0 0 0 .24.4s.02 0 .03-.02c.06-.07.14-.19.21-.38.15-.38.26-.94.26-1.58 0-.64-.1-1.2-.26-1.58a1.23 1.23 0 0 0-.24-.4s-.02 0-.03.02c-.06.07-.14.19-.21.38Z"/></svg>