<svg width="24" height="24" fill="none" xmlns="http://www.w3.org/2000/svg"><path fill="currentColor" d="M17.28 15A4.93 4.93 0 0 0 22 9.93c0-.73-.33-1.67-.75-2.62-.43-.98-1-2.04-1.57-3.01a60.6 60.6 0 0 0-2.55-4L17 .13l-.15.2a59.61 59.61 0 0 0-2.53 3.94 30.8 30.8 0 0 0-1.57 3A7.28 7.28 0 0 0 12 9.94c0 2.79 2.22 5 4.99 5.07h.29ZM3.35 8.45C4.18 7 5.4 6 6.86 6h3.64C9.12 6 7.99 7.04 7.23 8.46A12.02 12.02 0 0 0 6 14a12 12 0 0 0 1.23 5.54C7.99 20.96 9.13 22 10.5 22H6.86c-1.45 0-2.68-1.01-3.51-2.45A11.23 11.23 0 0 1 2 14c0-2.14.5-4.1 1.35-5.55Z"/><path fill="currentColor" d="M11.62 7.38A1.94 1.94 0 0 0 10.5 7c-.83 0-1.7.64-2.39 1.93A11.03 11.03 0 0 0 7 14c0 2 .43 3.8 1.11 5.07.7 1.3 1.56 1.93 2.39 1.93.83 0 1.7-.64 2.39-1.93.54-1.03.93-2.4 1.06-3.94a6.07 6.07 0 0 1-2-1.93 5.42 5.42 0 0 1-.28 2.75c-.1.26-.24.5-.42.7-.18.19-.43.35-.75.35s-.57-.16-.75-.35a2.2 2.2 0 0 1-.42-.7A5.42 5.42 0 0 1 9 14c0-.74.12-1.43.33-1.95.1-.26.24-.5.42-.7.18-.19.43-.35.75-.35.26 0 .47.1.64.25-.1-.42-.14-.86-.14-1.32 0-.8.28-1.7.62-2.55Z"/><path fill="currentColor" d="M10.26 12.42c-.15.38-.26.94-.26 1.58 0 .64.1 1.2.26 1.58a1.23 1.23 0 0 0 .24.4s.02 0 .03-.02c.06-.07.14-.19.21-.38.15-.38.26-.94.26-1.58 0-.64-.1-1.2-.26-1.58a1.23 1.23 0 0 0-.24-.4s-.02 0-.03.02c-.06.07-.14.19-.21.38Z"/></svg>