<svg width="24" height="24" fill="none" xmlns="http://www.w3.org/2000/svg"><path fill="currentColor" d="M4.88 4.32C6.04 2.34 7.73 1 9.68 1h5.15C13 1 11.45 2.37 10.4 4.34A16.47 16.47 0 0 0 8.67 12c0 2.97.64 5.68 1.72 7.66 1.06 1.97 2.6 3.34 4.44 3.34H9.68c-1.95 0-3.64-1.34-4.8-3.32A15.38 15.38 0 0 1 3 12c0-2.97.7-5.69 1.88-7.68Z"/><path fill="currentColor" d="M13.92 12c0-.92.15-1.73.38-2.29.1-.28.23-.47.34-.59.11-.11.18-.12.2-.12 0 0 .07 0 .18.12.11.12.24.31.35.6.23.55.38 1.36.38 2.28 0 .92-.15 1.73-.38 2.29a1.9 1.9 0 0 1-.35.59c-.1.11-.17.12-.19.12-.01 0-.08 0-.19-.12a1.9 1.9 0 0 1-.34-.6 6.34 6.34 0 0 1-.38-2.28Z"/><path fill="currentColor" d="M11.27 4.81C12.26 2.98 13.54 2 14.83 2c1.3 0 2.58.98 3.57 2.81C19.38 6.63 20 9.17 20 12s-.62 5.37-1.6 7.19c-.99 1.83-2.27 2.81-3.57 2.81-1.29 0-2.57-.98-3.56-2.81A15.48 15.48 0 0 1 9.67 12c0-2.83.62-5.37 1.6-7.19ZM14.83 8c-.37 0-.68.19-.9.43-.24.24-.42.56-.56.9-.29.71-.45 1.66-.45 2.67s.16 1.96.45 2.66c.14.35.32.67.55.91.23.24.54.43.91.43.38 0 .69-.19.92-.43.22-.24.4-.56.55-.9.28-.71.45-1.66.45-2.67s-.17-1.96-.45-2.66a2.87 2.87 0 0 0-.55-.91 1.27 1.27 0 0 0-.92-.43Z"/></svg>