<svg width="24" height="24" fill="none" xmlns="http://www.w3.org/2000/svg"><path fill="currentColor" d="M5.74 4.83A14.4 14.4 0 0 0 4 12c0 2.83.68 5.36 1.74 7.17C6.81 21 8.22 22 9.68 22h2.55a7.77 7.77 0 0 1-1.84-2.34A16.47 16.47 0 0 1 8.67 12c0-2.97.64-5.68 1.72-7.66A7.77 7.77 0 0 1 12.23 2H9.68C8.22 2 6.81 3 5.74 4.83ZM14.84 2c-1.3 0-2.58.98-3.57 2.81A15.48 15.48 0 0 0 9.67 12c0 2.83.62 5.37 1.6 7.19.99 1.83 2.27 2.81 3.56 2.81 1.3 0 2.58-.98 3.57-2.81.98-1.82 1.6-4.36 1.6-7.19s-.62-5.37-1.6-7.19C17.41 2.98 16.13 2 14.83 2Zm-.52 20.96V23H9.68c-1.95 0-3.64-1.34-4.8-3.32A15.38 15.38 0 0 1 3 12c0-2.97.7-5.69 1.88-7.68C6.04 2.34 7.73 1 9.68 1h5.15c1.84 0 3.39 1.37 4.45 3.34A16.47 16.47 0 0 1 21 12c0 2.97-.65 5.68-1.72 7.66-1.06 1.97-2.61 3.34-4.45 3.34-.17 0-.34-.01-.51-.04Zm-.4-14.53c.23-.24.54-.43.91-.43.38 0 .69.19.92.43.22.24.4.56.55.9.28.71.45 1.66.45 2.67s-.17 1.96-.45 2.66c-.14.35-.33.67-.55.91-.23.24-.54.43-.92.43-.37 0-.68-.19-.9-.43a2.87 2.87 0 0 1-.56-.9 7.32 7.32 0 0 1-.45-2.67c0-1.01.16-1.96.45-2.66.14-.35.32-.67.55-.91Zm.38 1.28a6.34 6.34 0 0 0-.38 2.29c0 .92.15 1.73.38 2.29.1.28.23.47.34.59.11.11.18.12.2.12 0 0 .07 0 .18-.12.11-.12.24-.31.35-.6.23-.55.38-1.36.38-2.28 0-.92-.15-1.73-.38-2.29a1.9 1.9 0 0 0-.35-.59c-.1-.11-.17-.12-.19-.12-.01 0-.08 0-.19.12a1.9 1.9 0 0 0-.34.6Z"/></svg>