<svg width="48" height="48" fill="none" xmlns="http://www.w3.org/2000/svg"><path fill="currentColor" d="M11.26 10.66C13.28 7.24 16.15 5 19.41 5h8.18l.3.01.41-.01c3.08 0 5.77 2.26 7.65 5.68C37.85 14.1 39 18.82 39 24s-1.16 9.89-3.05 13.32C34.07 40.74 31.38 43 28.3 43l-.34-.01-.37.01h-8.18c-3.26 0-6.13-2.24-8.15-5.66C9.24 33.9 8 29.18 8 24s1.24-9.9 3.26-13.34Zm.87.51C10.2 14.43 9 18.97 9 24c0 5.04 1.2 9.57 3.13 12.83C14.05 40.1 16.65 42 19.4 42h8.18l.34-.01h.06l.31.01c2.55 0 4.97-1.88 6.77-5.16C36.87 33.58 38 29.04 38 24s-1.13-9.58-2.93-12.84C33.27 7.88 30.85 6 28.3 6l-.37.01h-.08L27.59 6h-8.18c-2.76 0-5.36 1.9-7.28 5.17Zm11.02 2.09C21.83 15.98 21 19.78 21 24c0 4.22.83 8.02 2.15 10.74C24.48 37.5 26.23 39 28 39c1.77 0 3.52-1.5 4.85-4.26C34.17 32.02 35 28.22 35 24c0-4.22-.83-8.02-2.15-10.74C31.52 10.5 29.77 9 28 9c-1.77 0-3.52 1.5-4.85 4.26Zm-.9-.44C23.63 9.97 25.63 8 28 8s4.37 1.97 5.75 4.82C35.15 15.71 36 19.66 36 24s-.85 8.3-2.25 11.18C32.37 38.03 30.37 40 28 40s-4.37-1.97-5.75-4.82C20.85 32.29 20 28.34 20 24s.85-8.3 2.25-11.18Zm3.06 3.49-.96-2.69.94-.34.96 2.69-.94.34Zm3.84-.34.96-2.69.94.34-.96 2.69-.94-.34Zm3.6 5.44-1.93 1.07-.48-.87 1.92-1.08.48.88ZM23 20.75l2.4.54-.22.97-2.4-.53.22-.98Zm.53 8.43 1.92-1.61.64.77-1.92 1.6-.64-.76Zm8.16.77-1.92-1.61.64-.77 1.92 1.61-.64.77ZM27.5 35v-3h1v3h-1Z"/></svg>