<svg width="24" height="24" fill="none" xmlns="http://www.w3.org/2000/svg"><path fill="currentColor" d="M17.41.72 17 1l-.41-.29.41-.58.41.59ZM22 9.92A4.94 4.94 0 0 1 17.28 15H17a5.07 5.07 0 0 1-5-5.07c0-.74.32-1.7.75-2.65.43-.98 1-2.04 1.57-3a58.33 58.33 0 0 1 2.22-3.5l.04-.05V.72h.01l.4.28.42-.28.01.02.04.05a37.5 37.5 0 0 1 .66.99c.43.65 1 1.55 1.56 2.52a31.7 31.7 0 0 1 1.57 3c.42.96.75 1.9.75 2.63ZM17 1.9a57.12 57.12 0 0 0-1.82 2.89c-.56.95-1.1 1.97-1.52 2.9A6.42 6.42 0 0 0 13 9.93c0 2.23 1.77 4 4 4.07h.24A3.93 3.93 0 0 0 21 9.95v-.02c0-.5-.24-1.27-.66-2.22-.41-.93-.97-1.95-1.52-2.9A59.75 59.75 0 0 0 17 1.88ZM4.2 8.95A10.24 10.24 0 0 0 3 14c0 2 .47 3.78 1.21 5.05.75 1.28 1.7 1.95 2.65 1.95H8.3c-.4-.4-.76-.9-1.06-1.46A12.02 12.02 0 0 1 6 14a12 12 0 0 1 1.23-5.54c.3-.56.66-1.06 1.06-1.46H6.86c-.95 0-1.9.67-2.65 1.95ZM10.5 7c-.83 0-1.7.64-2.39 1.93A11.03 11.03 0 0 0 7 14c0 2 .43 3.8 1.11 5.07.7 1.3 1.56 1.93 2.39 1.93.73 0 1.48-.49 2.13-1.49a9.67 9.67 0 0 0 1.3-4.06l.99.1c-.2 1.77-.7 3.35-1.45 4.5C12.73 21.2 11.7 22 10.5 22H6.86c-1.45 0-2.68-1.01-3.51-2.45A11.23 11.23 0 0 1 2 14c0-2.14.5-4.1 1.35-5.55C4.18 7 5.4 6 6.86 6h3.64c.43 0 .84.1 1.22.29l-.44.9A1.79 1.79 0 0 0 10.5 7Zm-.75 4.35c.18-.19.43-.35.75-.35s.57.16.75.35c.18.2.32.44.42.7.21.52.33 1.21.33 1.95s-.12 1.43-.33 1.95c-.1.26-.24.5-.42.7-.18.19-.43.35-.75.35s-.57-.16-.75-.35a2.2 2.2 0 0 1-.42-.7A5.42 5.42 0 0 1 9 14c0-.74.12-1.43.33-1.95.1-.26.24-.5.42-.7Zm.5 1.07c-.14.38-.25.94-.25 1.58 0 .64.1 1.2.26 1.58a1.23 1.23 0 0 0 .24.4s.02 0 .03-.02c.06-.07.14-.19.21-.38.15-.38.26-.94.26-1.58 0-.64-.1-1.2-.26-1.58a1.23 1.23 0 0 0-.24-.4s-.02 0-.03.02c-.06.07-.14.19-.21.38Z"/></svg>