<svg width="24" height="24" fill="none" xmlns="http://www.w3.org/2000/svg"><path fill="currentColor" d="M12.93 9.06a17.57 17.57 0 0 1 3 0c.42.05.83.12 1.13.25.26.11.6.35.98.66.36.3.8.7 1.3 1.18 1.25.17 2.17.35 2.72.53.47.16.85.39 1.15.65.3.25.53.55.63.86.12.35.16.81.16 1.36v.21c0 .64-.51 1.15-1.15 1.16l-.9.06a2 2 0 0 1-3.89.02h-6.12a2 2 0 0 1-3.89-.05l-.78-.1a1.44 1.44 0 0 1-.89-.42c-.23-.23-.4-.57-.38-.96v-.01l.22-2.01c.05-.67.52-1.23 1.17-1.4l.89-.18c.13-.03.33-.1.6-.22a15.92 15.92 0 0 0 1.14-.57c.54-.29 1.13-.6 1.62-.78.34-.13.8-.2 1.29-.24ZM1 10.25h4v1.5H1v-1.5Zm-1 2.5h5v1.5H0v-1.5Zm1 2.5h4v1.5H1v-1.5Z"/></svg>