<svg width="24" height="24" fill="none" xmlns="http://www.w3.org/2000/svg"><path fill="currentColor" d="M13.02 10.05c-.47.04-.83.1-1.03.18a14.38 14.38 0 0 0-1.77.87c-.32.17-.63.34-.93.47-.29.13-.58.24-.85.28-.27.05-.53.1-.8.17a.56.56 0 0 0-.43.5v.02l-.21 2c0 .05.02.11.09.18a.4.4 0 0 0 .26.13h.02l1.63.21v.44a1 1 0 1 0 2 0V15h8v.5a1 1 0 1 0 2 0v-.47l1.82-.1h.01c.1 0 .17-.08.17-.17v-.21c0-.52-.04-.85-.1-1.04a1.12 1.12 0 0 0-.34-.43 2.4 2.4 0 0 0-.81-.45 16.9 16.9 0 0 0-2.7-.5l-.16-.03-.12-.11c-.55-.54-1-.95-1.37-1.25-.37-.3-.61-.46-.74-.51a3.18 3.18 0 0 0-.83-.17 16.56 16.56 0 0 0-2.81 0Zm-.1-1a17.57 17.57 0 0 1 3.01.01c.42.05.83.12 1.13.25.26.11.6.35.98.66.36.3.8.7 1.3 1.18 1.25.17 2.17.35 2.72.53.47.16.85.39 1.15.65.3.25.53.55.63.86.12.35.16.81.16 1.36v.21c0 .64-.51 1.15-1.15 1.16l-.9.06a2 2 0 0 1-3.89.02h-6.12a2 2 0 0 1-3.89-.05l-.78-.1a1.44 1.44 0 0 1-.89-.42c-.23-.23-.4-.57-.38-.96v-.01l.22-2.01c.05-.67.52-1.23 1.17-1.4l.89-.18c.13-.03.33-.1.6-.22a15.92 15.92 0 0 0 1.14-.57c.54-.29 1.13-.6 1.62-.78.34-.13.8-.2 1.29-.24ZM1 11h4v1H1v-1Zm4 3H0v-1h5v1Zm0 2H1v-1h4v1Z"/></svg>