<svg width="16" height="16" fill="none" xmlns="http://www.w3.org/2000/svg"><path fill="currentColor" d="M14.23 4.07a6.8 6.8 0 0 0-1.47.25A19.29 19.29 0 0 0 10.4 5.5c-.43.22-.85.44-1.23.61-.38.17-.76.32-1.1.37-.36.06-.72.14-1.08.23a.92.92 0 0 0-.7.83L6 10.22c0 .12.05.25.17.37.12.13.3.2.46.22h.01l2.03.26v.44a1.5 1.5 0 0 0 3 0V11H16v1h-3.38a2.5 2.5 0 0 1-4.91-.06l-1.17-.15c-.41-.03-.8-.22-1.08-.5A1.5 1.5 0 0 1 5 10.13l.3-2.68a1.9 1.9 0 0 1 1.43-1.72c.39-.1.78-.18 1.17-.24.2-.04.48-.14.85-.3a21.44 21.44 0 0 0 1.52-.77c.73-.38 1.5-.8 2.14-1.03.44-.17 1.1-.26 1.74-.31C14.8 3.02 15.49 3 16 3v1c-.49 0-1.15.02-1.77.07ZM1 6h3v1H1V6ZM0 8h4v1H0V8Zm1 2h3v1H1v-1Z"/></svg>