<svg width="24" height="24" fill="none" xmlns="http://www.w3.org/2000/svg"><path fill="currentColor" d="M11.5 1C8.07 1 5.01 2.72 3.1 5.2l-.8-.6A11.68 11.68 0 0 1 11.5 0C17.88 0 23 5.12 23 11.5S17.88 23 11.5 23A10.1 10.1 0 0 1 4 19.7V23H3v-5h5v1H4.72a9.1 9.1 0 0 0 6.78 3C17.32 22 22 17.32 22 11.5S17.32 1 11.5 1Zm-1.44 3h4v2.66c.27.12.53.27.77.44l2.3-1.32 2 3.46-2.3 1.32c.03.3.03.6 0 .89l2.29 1.37-2 3.46-2.3-1.33c-.24.16-.5.3-.76.4V18h-4v-2.66a4.5 4.5 0 0 1-.77-.44L7 16.23l-2-3.4 2.3-1.38c-.04-.3-.04-.6 0-.9L5 9.24l2-3.46L9.3 7.1c.23-.17.5-.31.76-.43V4Zm1 1v2.36l-.34.11c-.39.14-.75.34-1.07.6l-.27.23-2.02-1.17-1 1.74 2.02 1.16-.06.34a3.8 3.8 0 0 0 0 1.26l.06.33-2.02 1.21 1 1.7 2.02-1.18.27.23c.32.26.68.47 1.08.6l.33.13V17h2v-2.37l.35-.1a3.5 3.5 0 0 0 1.08-.57l.26-.2 2 1.16 1.01-1.74-2.02-1.22.06-.33a3.8 3.8 0 0 0 0-1.26l-.06-.34 2.02-1.15-1-1.74-2.02 1.17-.27-.23a3.5 3.5 0 0 0-1.08-.6l-.33-.13V5h-2Zm1 5a1 1 0 1 0 0 2 1 1 0 0 0 0-2Zm-2 1a2 2 0 1 1 4 0 2 2 0 0 1-4 0Z"/></svg>