<svg width="16" height="16" fill="none" xmlns="http://www.w3.org/2000/svg"><path fill="currentColor" d="M6.06 1h4v2.66c.27.12.53.27.77.44l2.3-1.32 2 3.46-2.3 1.32c.03.3.03.6 0 .89l2.29 1.37-2 3.46-2.3-1.33c-.24.16-.5.3-.76.4v2.4l-.39.09c-.81.19-1.48.2-1.81.19a7.78 7.78 0 0 1-4.8-1.84c-.41-.33-.77-.68-1.06-.98V15H1v-4.69h4.5v1H2.53c.3.33.69.72 1.16 1.1a6.78 6.78 0 0 0 4.18 1.62h.02c.21 0 .63 0 1.17-.09v-2.3l.35-.12c.38-.12.75-.31 1.08-.56l.26-.2 2 1.16 1.01-1.74-2.02-1.22.06-.33a3.8 3.8 0 0 0 0-1.26l-.06-.34 2.02-1.15-1-1.74-2.02 1.16-.26-.21c-.34-.27-.7-.48-1.09-.62l-.33-.12V2h-2v2.35l-.33.12c-.4.14-.76.34-1.09.6l-.26.22-2.02-1.16-1 1.74 2.02 1.16-.06.34a3.8 3.8 0 0 0 0 1.26l-.98.16a4.6 4.6 0 0 1-.05-1.23L1 6.23l2-3.46 2.3 1.32c.25-.17.5-.3.77-.43V1Zm0 7a2 2 0 1 1 4 0 2 2 0 0 1-4 0Zm2-1a1 1 0 1 0 0 2 1 1 0 1 0 0-2Z"/></svg>