<svg width="48" height="48" fill="none" xmlns="http://www.w3.org/2000/svg"><path fill="currentColor" d="M7.69 5H8a4.5 4.5 0 0 1 4.5 4.5 6.8 6.8 0 0 1-.67 2.4c-.38.9-.89 1.88-1.4 2.77a57.72 57.72 0 0 1-1.97 3.24l-.03.05-.01.01L8 17.7l-.42.27-.01-.01-.03-.06a43.73 43.73 0 0 1-.59-.92 69 69 0 0 1-1.39-2.35c-.5-.9-1.01-1.88-1.4-2.76A6.78 6.78 0 0 1 3.5 9.5 4.39 4.39 0 0 1 7.68 5ZM8 17.7l-.42.27.42.64.42-.63L8 17.7Zm0-.92a61.34 61.34 0 0 0 1.56-2.6c.5-.88.99-1.82 1.36-2.67.37-.87.58-1.57.58-2.01C11.5 7.58 9.92 6 8 6h-.29A3.39 3.39 0 0 0 4.5 9.48v.02c0 .41.2 1.1.58 1.97.37.84.86 1.79 1.36 2.67A60.7 60.7 0 0 0 8 16.78ZM25.7 5h.3a4.5 4.5 0 0 1 4.5 4.5 6.8 6.8 0 0 1-.67 2.4c-.38.9-.89 1.88-1.4 2.77a57.65 57.65 0 0 1-1.97 3.24l-.03.05-.01.01-.42-.27-.42.27-.01-.01-.03-.06a48.38 48.38 0 0 1-.59-.92 39.85 39.85 0 0 1-2.79-5.11 6.78 6.78 0 0 1-.66-2.36 4.39 4.39 0 0 1 4.18-4.5V5Zm.3 12.7-.42.27.42.64.42-.63-.42-.28Zm0-.92a66.35 66.35 0 0 0 1.56-2.6c.5-.88 1-1.82 1.36-2.67.37-.87.58-1.57.58-2.01C29.5 7.58 27.92 6 26 6h-.29a3.39 3.39 0 0 0-3.21 3.48v.02c0 .41.2 1.1.58 1.97.37.84.86 1.79 1.36 2.67A60.73 60.73 0 0 0 26 16.78ZM38 20h.41a7.6 7.6 0 0 1 7.6 7.49v.01c0 1.09-.48 2.53-1.14 4.03a48.53 48.53 0 0 1-2.43 4.68A92.28 92.28 0 0 1 39 41.67l-.06.08-.01.03-.42-.28-.41.28-.02-.03-.06-.08A58.71 58.71 0 0 1 37 40.13a92.28 92.28 0 0 1-2.42-3.92 48.51 48.51 0 0 1-2.43-4.68C31.48 30.04 31 28.6 31 27.51a7.15 7.15 0 0 1 6.97-7.5L38 20Zm.51 21.5-.41.28.41.6.41-.6-.41-.28Zm0-.89a90.76 90.76 0 0 0 3.07-4.9c.87-1.5 1.73-3.1 2.38-4.58A10.37 10.37 0 0 0 45 27.51 6.6 6.6 0 0 0 38.4 21h-.39c-3.54.2-6.2 2.97-6.01 6.47v.03c0 .86.4 2.14 1.05 3.63a47.52 47.52 0 0 0 2.38 4.58 91.31 91.31 0 0 0 3.07 4.9ZM22.5 22H8v-1h17.5L10.95 31.92l27.27 13.73-.45.9L9.05 32.08 22.5 22Zm16 3a2.45 2.45 0 0 0-2.5 2.5c0 1.42 1.08 2.5 2.5 2.5s2.5-1.08 2.5-2.5-1.08-2.5-2.5-2.5ZM35 27.5c0-1.98 1.52-3.5 3.5-3.5s3.5 1.52 3.5 3.5-1.52 3.5-3.5 3.5a3.45 3.45 0 0 1-3.5-3.5Z"/></svg>