<svg width="24" height="24" fill="none" xmlns="http://www.w3.org/2000/svg"><path fill="currentColor" d="m3.09 8.78.41.6.41-.6.03-.03a17.93 17.93 0 0 0 .3-.45l.7-1.14c.25-.44.5-.92.7-1.37.2-.43.36-.9.36-1.29A2.5 2.5 0 0 0 3.5 2h-.1C2 2 1 3.16 1 4.5c0 .39.17.86.35 1.29a27.23 27.23 0 0 0 1.71 2.96l.02.02v.01Zm9.41.6.41-.6.03-.03a11.77 11.77 0 0 0 .3-.45l.7-1.14c.25-.44.5-.92.7-1.37.2-.43.36-.9.36-1.29A2.5 2.5 0 0 0 12.5 2h-.1C11 2 10 3.16 10 4.5c0 .39.17.86.35 1.29a27.39 27.39 0 0 0 1.71 2.96l.02.02v.01l.42.6Zm6-1.38a4.5 4.5 0 0 1 4.5 4.5c0 .66-.3 1.52-.67 2.38-.38.88-.9 1.83-1.4 2.7a53.94 53.94 0 0 1-1.84 2.95l-.59.85-.59-.85a52.48 52.48 0 0 1-1.84-2.95 28.3 28.3 0 0 1-1.4-2.7A6.6 6.6 0 0 1 14 12.5 4.34 4.34 0 0 1 18.28 8h.22Z"/><path fill="currentColor" d="M3 11.5h6.16l-6.08 4.34 15.07 8.07.7-1.32-12.93-6.93L13.84 10H3v1.5Z"/></svg>