<svg width="24" height="24" fill="none" xmlns="http://www.w3.org/2000/svg"><path fill="currentColor" d="M3.4 3C2.6 3 2 3.64 2 4.5c0 .16.08.46.27.89a15.51 15.51 0 0 0 1.23 2.2 18.42 18.42 0 0 0 1.23-2.2c.19-.43.27-.73.27-.89C5 3.68 4.32 3 3.5 3h-.1Zm.1 5.5-.41.28-.03-.03a17.93 17.93 0 0 1-.3-.45l-.7-1.14a14.4 14.4 0 0 1-.7-1.37A3.5 3.5 0 0 1 1 4.5C1 3.16 2 2 3.4 2h.1A2.5 2.5 0 0 1 6 4.5c0 .39-.17.86-.35 1.29a27.23 27.23 0 0 1-1.71 2.96l-.02.02v.01L3.5 8.5Zm0 0 .41.28-.41.6-.41-.6.41-.28ZM12.4 3c-.8 0-1.4.64-1.4 1.5 0 .16.08.46.27.89a15.51 15.51 0 0 0 1.23 2.2 18.42 18.42 0 0 0 1.23-2.2c.19-.43.27-.73.27-.89 0-.82-.68-1.5-1.5-1.5h-.1Zm.1 5.5-.41.28-.03-.03a11.77 11.77 0 0 1-.3-.45l-.7-1.14c-.25-.44-.5-.92-.7-1.37A3.5 3.5 0 0 1 10 4.5C10 3.16 11 2 12.4 2h.1A2.5 2.5 0 0 1 15 4.5c0 .39-.17.86-.35 1.29a27.39 27.39 0 0 1-1.71 2.96l-.02.02v.01l-.42-.28Zm0 0 .41.28-.41.6-.41-.6.41-.28Zm5.79-.5h.21a4.5 4.5 0 0 1 4.5 4.5c0 .66-.3 1.52-.67 2.38-.38.88-.9 1.83-1.4 2.7a54.16 54.16 0 0 1-1.97 3.14l-.04.05v.01l-.42-.28-.41.28-.01-.01-.04-.05a40.26 40.26 0 0 1-.58-.89 33.03 33.03 0 0 1-2.8-4.95A6.6 6.6 0 0 1 14 12.5 4.34 4.34 0 0 1 18.28 8Zm.21 12.5-.41.28.41.6.41-.6-.41-.28Zm0-.9a52.85 52.85 0 0 0 1.57-2.53c.5-.85.98-1.76 1.35-2.6.37-.84.58-1.53.58-1.97 0-1.92-1.58-3.5-3.5-3.5h-.19c-1.94.1-3.4 1.58-3.31 3.48v.02c0 .44.2 1.13.58 1.98.37.83.86 1.74 1.35 2.6a52.93 52.93 0 0 0 1.57 2.52ZM9.94 11H3v-1h10.06l-7.61 5.44 13.29 7.12-.48.88-14.7-7.88L9.93 11Z"/></svg>