<svg width="16" height="16" fill="none" xmlns="http://www.w3.org/2000/svg"><path fill="currentColor" d="M2.4 1C1.6 1 1 1.64 1 2.5c0 .16.08.46.27.89a15.51 15.51 0 0 0 1.23 2.2 18.42 18.42 0 0 0 1.23-2.2c.19-.43.27-.73.27-.89C4 1.68 3.32 1 2.5 1h-.1Zm.1 5.5-.41.28-.03-.03a17.93 17.93 0 0 1-.3-.45l-.7-1.14a14.4 14.4 0 0 1-.7-1.37A3.5 3.5 0 0 1 0 2.5C0 1.16 1 0 2.4 0h.1A2.5 2.5 0 0 1 5 2.5c0 .39-.17.86-.35 1.29a27.23 27.23 0 0 1-1.71 2.96l-.02.02v.01L2.5 6.5Zm0 0 .41.28-.41.6-.41-.6.41-.28ZM11.29 2h.21A4.5 4.5 0 0 1 16 6.5c0 .66-.3 1.52-.67 2.38-.38.88-.9 1.83-1.4 2.7a53.94 53.94 0 0 1-1.97 3.14l-.04.05v.01l-.42-.28-.41.28-.01-.01-.04-.05a49.92 49.92 0 0 1-1.97-3.14c-.5-.87-1.02-1.82-1.4-2.7A6.6 6.6 0 0 1 7 6.5 4.34 4.34 0 0 1 11.28 2Zm.21 12.5-.41.28.41.6.41-.6-.41-.28Zm0-.9a52.85 52.85 0 0 0 1.57-2.53c.5-.85.98-1.76 1.35-2.6.37-.84.58-1.53.58-1.97C15 4.58 13.42 3 11.5 3h-.19C9.37 3.1 7.91 4.58 8 6.48v.02c0 .44.2 1.13.58 1.98.37.83.86 1.74 1.35 2.6a53.06 53.06 0 0 0 1.57 2.52ZM4.63 9H2V8h4.37l-3.5 6H9v1H1.13l3.5-6Z"/></svg>