<svg width="48" height="48" fill="none" xmlns="http://www.w3.org/2000/svg"><path fill="currentColor" d="m23.5 3.46 5.14 9.4-.88.48-4.26-7.8L3.35 42h40.3l-8.19-14.76.88-.48 9 16.24H1.66L23.5 3.46Zm13 1.01L47.35 24h-21.7L36.5 4.47ZM27.35 23h18.3L36.5 6.53 27.35 23ZM36 17v-6h1v6h-1Zm0 4v-2h1v2h-1Zm-18.84 1.95a60.97 60.97 0 0 1 7.5-.18l-.04 1a55.19 55.19 0 0 0-7.15.16c-.37.52-.7 1-.96 1.41-.3.49-.7 1.1-1.2 1.84l-.02.02L14 28.75V36h-1v-7.61l1.49-1.79c.49-.72.88-1.32 1.18-1.79.3-.5.68-1.04 1.12-1.65l.14-.2.23-.01Zm2.3 3.02a65.89 65.89 0 0 1 11.08 0l.23.02.14.18c.47.66.88 1.26 1.21 1.8l1.28 1.93.08.1h.02v.02l1.5 1.8v6.71c0 .83-.67 1.5-1.5 1.5h-2a1.5 1.5 0 0 1-1.5-1.5V38H20v.53c0 .83-.67 1.5-1.5 1.5h-2a1.5 1.5 0 0 1-1.5-1.5v-6.71l1.5-1.8V30h.02l.08-.1c.53-.79.96-1.43 1.28-1.94.33-.53.74-1.13 1.21-1.79l.14-.18.23-.02ZM16.98 31 16 32.18V33h3v1h-3v4.53c0 .28.22.5.5.5h2a.5.5 0 0 0 .5-.5V37h12v1.53c0 .28.22.5.5.5h2a.5.5 0 0 0 .5-.5V34h-3v-1h3v-.82L33.02 31H16.98Zm15.28-1c-.4-.59-.72-1.09-.98-1.5-.3-.47-.64-.98-1.05-1.55a64.53 64.53 0 0 0-10.46 0c-.4.57-.76 1.08-1.05 1.54-.26.42-.59.92-.98 1.51h14.52Z"/></svg>