<svg width="16" height="16" fill="none" xmlns="http://www.w3.org/2000/svg"><path fill="currentColor" d="M3.48 3H10v1H3.9L1 6.86V10l.01.08.01.03a.06.06 0 0 0-.02-.02v1a.95.95 0 0 1-.76-.36A1.18 1.18 0 0 1 0 10V6.44L3.48 3ZM6.5 5h6.02L16 8.5v4.2c0 .72-.58 1.3-1.3 1.3h-.8c-.54 0-1-.33-1.2-.8H6.3c-.2.47-.66.8-1.2.8h-.8A1.3 1.3 0 0 1 3 12.7V8.5L6.5 5Zm.42 1-1 1h7.18l-1-1H6.91Zm7.18 2H4.91L4 8.9V9h3v1H4v2.7c0 .17.13.3.3.3h.8a.3.3 0 0 0 .3-.3v-.5h8.2v.5c0 .17.13.3.3.3h.8a.3.3 0 0 0 .3-.3V10h-3V9h3v-.1l-.9-.9Z"/></svg>