<svg width="24" height="24" fill="none" xmlns="http://www.w3.org/2000/svg"><path fill="currentColor" d="M8.15 5 9 6H8l-5 5v.75C3 12.44 2.44 13 1.75 13h-.5C.56 13 0 12.44 0 11.75V10h1.5V9H0v-.7L3.3 5h4.85Z"/><path fill="currentColor" d="m14.5 7 2 2H12l-5 5v2a1 1 0 0 1-1 1h-.76C4.56 17 4 16.45 4 15.76L3.97 13H6v-1H3.96v-.7L8.28 7h6.21Z"/><path fill="currentColor" d="m23.7 14 .3.3v.7h-4v1h4v3.5c0 .83-.67 1.5-1.5 1.5h-1a1.5 1.5 0 0 1-1.41-1H11.9c-.2.58-.76 1-1.41 1h-1A1.5 1.5 0 0 1 8 19.5V16h4v-1H8v-.7l.3-.3h15.4Zm-1-1H9.3l3-3h7.4l3 3Z"/></svg>