<svg width="24" height="24" fill="none" xmlns="http://www.w3.org/2000/svg"><path fill="currentColor" d="M3.3 5H9v1H3.7L1 8.7V9h1.5v1H1v1.75c0 .14.11.25.25.25h.5c.14 0 .25-.11.25-.25V11h1v.75C3 12.44 2.44 13 1.75 13h-.5C.56 13 0 12.44 0 11.75V8.29L3.3 5Zm5 2h6.4l1.4 1.4-.7.7L14.3 8H8.7l-3.74 3.7v.3H7v1H4.97l.02 2.75c0 .14.12.25.25.25H6v-1h1v1a1 1 0 0 1-1 1h-.76C4.56 17 4 16.45 4 15.76l-.04-4.47L8.3 7Zm4 3h7.4l4.3 4.3v5.2c0 .83-.67 1.5-1.5 1.5h-1a1.5 1.5 0 0 1-1.41-1H11.9c-.2.58-.76 1-1.41 1h-1A1.5 1.5 0 0 1 8 19.5v-5.2l4.3-4.3Zm.4 1-2 2h10.6l-2-2h-6.6Zm9.6 3H9.7l-.7.7v.3h3v1H9v3.5c0 .28.22.5.5.5h1a.5.5 0 0 0 .5-.5V19h10v.5c0 .28.22.5.5.5h1a.5.5 0 0 0 .5-.5V16h-3v-1h3v-.3l-.7-.7Z"/></svg>