<svg width="48" height="48" fill="none" xmlns="http://www.w3.org/2000/svg"><path fill="currentColor" d="M9.29 12c1.57-.14 3.18-.25 4.82-.25 1.64 0 3.24.1 4.8.25l.2.02.14.16c.52.61.85 1.04 1.17 1.55l-.84.54a11 11 0 0 0-.96-1.3 48.06 48.06 0 0 0-4.51-.22c-1.53 0-3.03.1-4.53.23l-.11.14c-.4.48-.71.84-.94 1.21L7.48 16h6.02v1H6.63l-.63.7v.3h2.9v1H6v4.5c0 .07.05.2.17.33.13.12.26.17.33.17h2c.07 0 .2-.05.33-.17.12-.13.17-.26.17-.33V23h2v1H9.9c-.1.2-.22.39-.37.53A1.5 1.5 0 0 1 8.5 25h-2a1.5 1.5 0 0 1-1.03-.47A1.5 1.5 0 0 1 5 23.5v-6.2l1.55-1.7 1.13-1.8c.27-.43.63-.86 1.03-1.34l.24-.28.13-.16.2-.02Zm7.67 3.98a63.28 63.28 0 0 1 11.09.02l.2.02.13.16c.6.7 1.1 1.36 1.46 1.94l-.84.53a15.6 15.6 0 0 0-1.25-1.67 62.39 62.39 0 0 0-10.5-.02 17 17 0 0 0-1.25 1.7L15.16 20H22v1h-7.52L13 22.69V23h3.5v1H13v5.5c0 .28.22.5.5.5h2a.5.5 0 0 0 .5-.5V28h3v1h-2v.5c0 .83-.67 1.5-1.5 1.5h-2a1.5 1.5 0 0 1-1.5-1.5v-7.19l1.85-2.11 1.3-2.08c.37-.58.86-1.24 1.47-1.96l.13-.16.2-.02Zm8.5 4.07a79.8 79.8 0 0 1 13.08 0l.24.02.14.2a54.73 54.73 0 0 1 2.99 4.93L44 27.3v8.2c0 .83-.67 1.5-1.5 1.5h-2a1.5 1.5 0 0 1-1.5-1.5V35H25v.5c0 .83-.67 1.5-1.5 1.5h-2a1.5 1.5 0 0 1-1.5-1.5v-8.2l2.1-2.1a54.65 54.65 0 0 1 2.98-4.93l.14-.2.24-.02ZM22.7 26 21 27.7v.3h4v1h-4v6.5c0 .28.22.5.5.5h2a.5.5 0 0 0 .5-.5V34h16v1.5c0 .28.22.5.5.5h2a.5.5 0 0 0 .5-.5V29h-4v-1h4v-.3L41.3 26H22.7Zm17.94-1a45.09 45.09 0 0 0-2.43-3.98 77.83 77.83 0 0 0-12.44 0L24.51 23c-.3.5-.7 1.16-1.16 2.01h17.3Z"/></svg>