<svg width="24" height="24" fill="none" xmlns="http://www.w3.org/2000/svg"><path fill="currentColor" d="M14.26 3.25c.25 0 .48.03.68.08.2.06.38.13.52.23.15.1.28.22.38.36a2.38 2.38 0 0 1 .38 1 4.26 4.26 0 0 1 0 1.2c-.04.19-.08.37-.15.54-.06.16-.15.32-.25.46a1.78 1.78 0 0 1-.9.59c-.2.05-.41.08-.66.08a2.6 2.6 0 0 1-.7-.09c-.2-.05-.36-.13-.51-.23-.15-.1-.28-.21-.38-.35a2.38 2.38 0 0 1-.38-1 4.26 4.26 0 0 1 0-1.2 2.26 2.26 0 0 1 .4-1c.1-.14.23-.26.38-.36a1.98 1.98 0 0 1 1.19-.31Zm5.73.1v.7h-1.87v1.19h1.67v.7h-1.67v1.75h-.87V3.35h2.74Zm4 0v.7h-1.87v1.19h1.67v.7h-1.67v1.75h-.87V3.35h2.74Zm-9.73.62c-.14 0-.25.02-.36.05a.92.92 0 0 0-.5.37l-.14.3a3.43 3.43 0 0 0 0 1.64c.04.12.09.23.15.32a.91.91 0 0 0 .49.36c.1.04.22.05.36.05.13 0 .24-.01.35-.05a.9.9 0 0 0 .5-.36l.14-.31a3.41 3.41 0 0 0 0-1.64 1.33 1.33 0 0 0-.15-.31.9.9 0 0 0-.49-.37 1.2 1.2 0 0 0-.35-.05ZM0 7.5a5.5 5.5 0 1 1 11 0 5.5 5.5 0 0 1-11 0Zm1-.19a4.58 4.58 0 0 0 1.2 3.24l1.37-1.37a2.64 2.64 0 0 1-.24-1.13v-.02c0-.2 0-.46.03-.72H1Zm.16-1h2.56c.08-.1.19-.2.32-.3.2-.12.46-.18.68-.2a5.56 5.56 0 0 1 1.56 0c.22.02.49.08.68.2.13.1.24.2.32.3h2.56a4.5 4.5 0 0 0-8.68 0Zm8.84 1H7.64c.03.26.03.51.03.72v.02c0 .41-.08.8-.24 1.13l1.37 1.38A4.48 4.48 0 0 0 10 7.3Zm-1.96 3.9L6.8 9.96c-.36.25-.8.38-1.29.38-.5 0-.93-.13-1.3-.38L2.96 11.2a4.48 4.48 0 0 0 5.1 0ZM4.58 6.85c-.08.06-.15.16-.2.39-.04.23-.05.5-.05.81 0 .45.13.76.31.96.18.2.45.33.86.33.4 0 .68-.13.86-.33.18-.2.3-.51.3-.96 0-.3 0-.58-.04-.81-.05-.23-.12-.33-.2-.38a4.57 4.57 0 0 0-1.83 0ZM23 9v9.5c0 .83-.67 1.5-1.5 1.5h-1.2l-2-2H9.7l-2 2H1v-1h3v-5h1v5h2.3l2-2h9.4l2 2h.8a.5.5 0 0 0 .5-.5V9h1ZM9 20.88a2.13 2.13 0 1 1 4.25 0 2.13 2.13 0 0 1-4.25 0Zm2.13-1.13a1.13 1.13 0 1 0 0 2.25 1.13 1.13 0 0 0 0-2.25Zm3.62 1.13a2.13 2.13 0 1 1 4.25 0 2.13 2.13 0 0 1-4.25 0Zm2.13-1.13a1.13 1.13 0 1 0 0 2.25 1.13 1.13 0 0 0 0-2.25Z"/></svg>