<svg width="24" height="24" fill="none" xmlns="http://www.w3.org/2000/svg"><path fill="currentColor" d="M14.62 4.5 7.5.94.38 4.5l.37.18V9h1.5V5.43L7.5 8.06l7.12-3.56Z"/><path fill="currentColor" d="M13 6.43v.07A2.5 2.5 0 0 0 15.5 9h2A2.5 2.5 0 0 0 20 6.5v-2A2.5 2.5 0 0 0 17.5 2h-2a2.5 2.5 0 0 0-1.9.87l3.25 1.63L13 6.43Zm-9 1V8.5A2.5 2.5 0 0 0 6.5 11h2A2.5 2.5 0 0 0 11 8.5V7.43L7.5 9.18 4 7.43ZM2.5 13c-.41 0-.8.14-1.08.42A1.5 1.5 0 0 0 1 14.5V21h13v-7a1 1 0 0 0-.28-.73A1 1 0 0 0 13 13H2.5Z"/><path fill="currentColor" d="M23 19h-8v-5a2 2 0 0 0-.57-1.43A2 2 0 0 0 13 12h-2.93c.07-.22.19-.42.35-.58A1.5 1.5 0 0 1 11.5 11h10c.41 0 .8.14 1.08.42.28.28.42.67.42 1.08V19Z"/></svg>