<svg width="24" height="24" fill="none" xmlns="http://www.w3.org/2000/svg"><path fill="currentColor" d="M8 1.5h2.75v1H7.2c-.5 0-1 .14-1.45.37L9.8 11h3.38l4.1-8.19c-.4-.2-.84-.31-1.29-.31h-3.75v-1H15V0H8v1.5ZM4.02 23.99l2.5-2.45-1.04-1.08-2.5 2.45L4.02 24Zm12.46-2.45 2.5 2.45 1.04-1.08-2.5-2.45-1.04 1.08Zm-8.64-7.7c-.23.23-.34.49-.34.66 0 .17.11.43.34.66.23.23.49.34.66.34.17 0 .43-.11.66-.34.23-.23.34-.49.34-.66 0-.2-.1-.45-.31-.67a.99.99 0 0 0-.69-.33c-.17 0-.43.11-.66.34Zm6 0c-.23.23-.34.49-.34.66 0 .17.11.43.34.66.23.23.49.34.66.34.17 0 .43-.11.66-.34.23-.23.34-.49.34-.66 0-.2-.1-.45-.31-.67a.99.99 0 0 0-.69-.33c-.17 0-.43.11-.66.34Z"/><path fill="currentColor" d="M4.93 3.47 9.19 12h4.62l4.3-8.6A3 3 0 0 1 19 5.5v10.3c0 1.2-.6 2-1.5 2.7l-4 2.5h-4l-4-2.5c-.9-.6-1.5-1.6-1.5-2.7V5.5c0-.77.37-1.49.93-2.03ZM8.5 12.5c-.53 0-1.02.29-1.37.63-.34.35-.63.84-.63 1.37 0 .53.29 1.02.63 1.37.35.34.84.63 1.37.63.53 0 1.02-.29 1.37-.63.34-.35.63-.84.63-1.37 0-.5-.25-1-.59-1.36a1.98 1.98 0 0 0-1.41-.64Zm6 0c-.53 0-1.02.29-1.37.63-.34.35-.63.84-.63 1.37 0 .53.29 1.02.63 1.37.35.34.84.63 1.37.63.53 0 1.02-.29 1.37-.63.34-.35.63-.84.63-1.37 0-.5-.25-1-.59-1.36a1.98 1.98 0 0 0-1.41-.64Z"/></svg>