<svg width="48" height="48" fill="none" xmlns="http://www.w3.org/2000/svg"><path fill="currentColor" d="M15.5 2.44 28.62 9 22 12.3v6.2c0 1.98-1.52 3.5-3.5 3.5h-6A3.45 3.45 0 0 1 9 18.5v-6.2L4 9.8V18H3V8.7l12.5-6.26ZM4.62 9l10.88 5.44L26.38 9 15.5 3.56 4.62 9ZM10 12.8v5.7c0 1.42 1.08 2.5 2.5 2.5h6c1.42 0 2.5-1.08 2.5-2.5v-5.7l-5.5 2.76L10 12.8ZM34.5 7H28V6h6.5C36.48 6 38 7.52 38 9.5v6c0 1.98-1.52 3.5-3.5 3.5h-6a3.45 3.45 0 0 1-3.5-3.5V13h1v2.5c0 1.42 1.08 2.5 2.5 2.5h6c1.42 0 2.5-1.08 2.5-2.5v-6C37 8.08 35.92 7 34.5 7ZM24 22h16.5c1.98 0 3.5 1.52 3.5 3.5V38H30.1v-1H43V25.5c0-1.42-1.08-2.5-2.5-2.5H24v-1ZM6.5 26A2.45 2.45 0 0 0 4 28.5V40h23V28.5c0-1.42-1.08-2.5-2.5-2.5h-18ZM3 28.5C3 26.52 4.52 25 6.5 25h18c1.98 0 3.5 1.52 3.5 3.5V41H3V28.5Z"/></svg>