<svg width="24" height="24" fill="none" xmlns="http://www.w3.org/2000/svg"><path fill="currentColor" d="M14.26 3.25c.25 0 .48.03.68.08.2.06.38.13.52.23.15.1.28.22.38.36a2.38 2.38 0 0 1 .38 1 4.26 4.26 0 0 1 0 1.2c-.04.19-.08.37-.15.54-.06.16-.15.32-.25.46a1.78 1.78 0 0 1-.9.59c-.2.05-.41.08-.66.08a2.6 2.6 0 0 1-.7-.09c-.2-.05-.36-.13-.51-.23-.15-.1-.28-.21-.38-.35a2.38 2.38 0 0 1-.38-1 4.26 4.26 0 0 1 0-1.2 2.26 2.26 0 0 1 .4-1c.1-.14.23-.26.38-.36a1.98 1.98 0 0 1 1.19-.31Zm5.73.1v.7h-1.87v1.19h1.67v.7h-1.67v1.75h-.87V3.35h2.74Zm4 0v.7h-1.87v1.19h1.67v.7h-1.67v1.75h-.87V3.35h2.74Zm-9.73.62c-.14 0-.25.02-.36.05a.92.92 0 0 0-.5.37l-.14.3a3.43 3.43 0 0 0 0 1.64c.04.12.09.23.15.32a.91.91 0 0 0 .49.36c.1.04.22.05.36.05.13 0 .24-.01.35-.05a.9.9 0 0 0 .5-.36l.14-.31a3.41 3.41 0 0 0 0-1.64 1.33 1.33 0 0 0-.15-.31.9.9 0 0 0-.49-.37 1.2 1.2 0 0 0-.35-.05ZM.05 6.7a5.75 5.75 0 1 1 11.4 1.6A5.75 5.75 0 0 1 .05 6.7Zm1.7-.64h2.1c.09-.1.19-.18.3-.25a2 2 0 0 1 .78-.26 5.81 5.81 0 0 1 1.64 0 2 2 0 0 1 .78.26c.12.07.21.16.3.25h2.1a4.25 4.25 0 0 0-8 0ZM10 7.56H8.16v.49c0 .38-.05.74-.18 1.08l1.06 1.06A4.2 4.2 0 0 0 10 7.56Zm-2.1 3.6-.9-.88c-.36.2-.79.31-1.25.31-.46 0-.89-.1-1.26-.31l-.89.89a4.23 4.23 0 0 0 4.3 0Zm-5.44-.97 1.06-1.06A2.98 2.98 0 0 1 3.33 8l.01-.44H1.5c.01 1 .37 1.91.96 2.63Zm2.5-3.11-.03.04c-.08.18-.1.47-.1.93 0 .4.12.65.25.8.12.13.32.24.67.24.35 0 .55-.11.67-.25.13-.14.25-.39.25-.79 0-.3 0-.56-.05-.76a.66.66 0 0 0-.07-.21c-.03 0-.09-.03-.2-.04a4.32 4.32 0 0 0-1.2 0l-.2.04ZM23.24 9v9.5c0 .97-.78 1.75-1.75 1.75h-1.36l-2-2.5H9.86l-2 2.5H1v-1.5h2.75V14.5h1.5v4.25h1.89l2-2.5h9.72l2 2.5h.64c.14 0 .25-.11.25-.25V9h1.5ZM8.75 20.88a2.37 2.37 0 1 1 4.75 0 2.37 2.37 0 0 1-4.75 0Zm2.38-.88a.88.88 0 1 0 0 1.75.88.88 0 0 0 0-1.75Zm3.37.88a2.37 2.37 0 1 1 4.75 0 2.37 2.37 0 0 1-4.75 0Zm2.38-.88a.88.88 0 1 0 0 1.75.88.88 0 0 0 0-1.75Z"/></svg>