<svg width="16" height="16" fill="none" xmlns="http://www.w3.org/2000/svg"><path fill="currentColor" d="M1 8.5a7.5 7.5 0 0 1 11.31-6.46l-.5.86a6.5 6.5 0 0 0-9.64 4.14h3.66c.14-.26.33-.5.61-.68.2-.13.46-.2.7-.25.24-.05.53-.08.83-.1l.06 1a5.5 5.5 0 0 0-1.04.19c-.3.2-.44.63-.48 1.33l-1-.06c0-.13.02-.28.04-.42H2.02a6.6 6.6 0 0 0 .88 3.75l-.86.51A7.47 7.47 0 0 1 1 8.5Zm14.35-6.15-13 13-.7-.7 13-13 .7.7Zm-.39 2.34A7.5 7.5 0 0 1 4.68 14.96l.52-.86a6.47 6.47 0 0 0 7.18-.38l-1.96-1.96a3 3 0 0 1-1.92.63c-.33 0-.65-.05-.94-.13l.27-.96c.2.05.42.09.67.09a1.9 1.9 0 0 0 1.47-.58c.33-.35.53-.9.53-1.6l-.01-.68 1-.06.01.73a3.6 3.6 0 0 1-.43 1.8l2.06 2.06a6.48 6.48 0 0 0 1.85-5.01H12v-1h2.84a6.46 6.46 0 0 0-.74-1.85l.86-.5Z"/></svg>