<svg width="48" height="48" fill="none" xmlns="http://www.w3.org/2000/svg"><path fill="currentColor" d="M30.09 8.8c.37 0 .7.04 1 .13a2.42 2.42 0 0 1 1.38.93c.16.22.3.47.4.75.1.27.18.57.23.9a6.88 6.88 0 0 1-.24 2.95c-.1.28-.24.53-.4.75a2.44 2.44 0 0 1-1.39.94c-.3.09-.63.13-1 .13s-.7-.04-1-.13a2.42 2.42 0 0 1-1.37-.93 3.1 3.1 0 0 1-.4-.74c-.1-.28-.18-.58-.23-.9a6.9 6.9 0 0 1 .24-2.96c.1-.28.24-.53.4-.75a2.42 2.42 0 0 1 1.38-.94c.3-.09.63-.13 1-.13Zm0 .79c-.26 0-.49.03-.69.1a1.71 1.71 0 0 0-.94.74c-.11.17-.2.37-.28.59a3.8 3.8 0 0 0-.15.71 6.39 6.39 0 0 0 .15 2.33c.08.22.17.42.28.6a1.78 1.78 0 0 0 1.63.83c.25 0 .48-.03.69-.1a1.73 1.73 0 0 0 .93-.73 3.32 3.32 0 0 0 .44-1.31 6.29 6.29 0 0 0-.16-2.33 2.69 2.69 0 0 0-.28-.6 1.7 1.7 0 0 0-.94-.74 2.2 2.2 0 0 0-.68-.1ZM35 16.24V9h4.33v.78h-3.39v2.54h3.12v.78h-3.12v3.14H35Zm6 0V9h4.33v.78h-3.39v2.54h3.12v.78h-3.12v3.14H41ZM4 14.5a8 8 0 1 1 16 0 8 8 0 0 1-16 0Zm1.02-.53a6.98 6.98 0 0 0 2.02 5.47l2.37-2.37c-.28-.5-.41-1.1-.41-1.74v-.02c0-.4 0-.89.08-1.34H5.02Zm.15-1h4.28c.13-.19.29-.35.5-.49.23-.15.59-.23.91-.28a8.1 8.1 0 0 1 2.28 0c.32.05.68.13.92.28.2.14.36.3.49.49h4.28a7 7 0 0 0-13.66 0Zm13.81 1h-4.06c.08.45.08.94.08 1.34v.02c0 .65-.13 1.24-.4 1.74l2.36 2.37a6.98 6.98 0 0 0 2.02-5.47ZM16.2 20.1l-2.24-2.25c-.52.43-1.19.66-1.96.66s-1.44-.23-1.96-.66L7.8 20.1a6.97 6.97 0 0 0 8.4 0ZM11 13.19c-.3.05-.47.1-.51.13-.2.13-.33.36-.41.74-.08.38-.08.81-.08 1.27 0 .71.2 1.25.53 1.6.32.36.8.58 1.47.58a1.9 1.9 0 0 0 1.47-.57c.33-.36.53-.9.53-1.6 0-.47 0-.9-.08-1.28s-.21-.6-.4-.74a1.6 1.6 0 0 0-.53-.13 7.09 7.09 0 0 0-1.98 0ZM24.99 15H22v-1h2.98v1ZM42 19v13.5a2.5 2.5 0 0 1-2.5 2.5h-2.2l-3-3H19.7l-3 3H5v-1h6v-9h1v9h4.3l3-3h15.4l3 3h1.8c.83 0 1.5-.67 1.5-1.5V19h1ZM19 36.5a3.5 3.5 0 1 1 7 0 3.5 3.5 0 0 1-7 0Zm3.5-2.5a2.5 2.5 0 1 0 0 5 2.5 2.5 0 0 0 0-5Zm5.5 2.5a3.5 3.5 0 1 1 7 0 3.5 3.5 0 0 1-7 0Zm3.5-2.5a2.5 2.5 0 1 0 0 5 2.5 2.5 0 0 0 0-5Z"/></svg>