<svg width="24" height="24" fill="none" xmlns="http://www.w3.org/2000/svg"><path fill="currentColor" d="m7.5.94 7.12 3.56L11 6.3v2.2A2.5 2.5 0 0 1 8.5 11h-2A2.5 2.5 0 0 1 4 8.5V6.3l-2-1V9H1V4.2L7.5.93ZM2.62 4.5 7.5 6.94l4.88-2.44L7.5 2.06 2.62 4.5ZM5 6.8v1.7c0 .82.68 1.5 1.5 1.5h2c.82 0 1.5-.68 1.5-1.5V6.8L7.5 8.07 5 6.8ZM17.5 3H15V2h2.5A2.5 2.5 0 0 1 20 4.5v2A2.5 2.5 0 0 1 17.5 9h-2A2.5 2.5 0 0 1 13 6.5h1c0 .82.68 1.5 1.5 1.5h2c.82 0 1.5-.68 1.5-1.5v-2c0-.82-.68-1.5-1.5-1.5ZM12 11h9.5c.41 0 .8.14 1.08.42.28.28.42.67.42 1.08V19h-8v-1h7v-5.5c0-.19-.06-.3-.13-.37S21.7 12 21.5 12H12v-1Zm-9.87 3.13c-.07.07-.13.18-.13.37V20h11v-5.5c0-.19-.06-.3-.13-.37S12.7 14 12.5 14h-10c-.19 0-.3.06-.37.13Zm-.7-.7A1.5 1.5 0 0 1 2.5 13h10c.41 0 .8.14 1.08.42.28.28.42.67.42 1.08V21H1v-6.5c0-.41.14-.8.42-1.08Z"/></svg>