<svg width="48" height="48" fill="none" xmlns="http://www.w3.org/2000/svg"><path fill="currentColor" d="M16 3h18v1h-3.4l-3 3h5.1c3.1 0 5.3 2.45 5.3 5.5V29c0 2.14-.86 4.1-2.6 5.4l-.04.03-6.24 3.12c-.68.34-1.36.45-2.02.45h-4c-.7 0-1.46-.22-1.99-.44h-.02l-6.05-3.13-.02-.02A6.8 6.8 0 0 1 12 29V12.5C12 9.4 14.65 7 17.7 7h4.5l-3-3H16V3Zm4.6 1 3 3h2.6l3-3h-8.6Zm-6.74 5.91A4.33 4.33 0 0 0 13 12.5V29a5.8 5.8 0 0 0 2.56 4.57l5.95 3.07c.47.19 1.09.36 1.59.36h4c.54 0 1.06-.09 1.58-.35l6.16-3.08A5.57 5.57 0 0 0 37 29V12.5c0-1.02-.29-1.94-.8-2.68L29.32 24h-9.13L13.86 9.91Zm.74-.78.4.87h20l.49-.99A4.2 4.2 0 0 0 32.7 8h-15a4.8 4.8 0 0 0-3.1 1.13ZM34.52 11H15.44l4.04 9h10.67l4.37-9Zm-4.86 10h-9.73l.9 2h7.86l.97-2ZM18 27c-1.12 0-2 .88-2 2s.88 2 2 2 2-.88 2-2-.88-2-2-2Zm-3 2c0-1.68 1.32-3 3-3s3 1.32 3 3-1.32 3-3 3-3-1.32-3-3Zm17-2c-1.12 0-2 .88-2 2s.88 2 2 2 2-.88 2-2-.88-2-2-2Zm-3 2c0-1.68 1.32-3 3-3s3 1.32 3 3-1.32 3-3 3-3-1.32-3-3Zm-11.65 9.35-8 8-.7-.7 8-8 .7.7Zm16-.7 8 8-.7.7-8-8 .7-.7Z"/></svg>