<svg width="24" height="24" fill="none" xmlns="http://www.w3.org/2000/svg"><path fill="currentColor" d="M20.52 5.6c.18-.15.32-.24.43-.3a.49.49 0 0 1 .14-.05 1.87 1.87 0 0 1 1.04.32l.49-.57.5-.56h-.01v-.01l-.02-.01a1.62 1.62 0 0 0-.15-.12c-.1-.06-.23-.15-.4-.23a3.36 3.36 0 0 0-1.45-.32c-.57 0-1.1.33-1.52.69-.47.38-.98.92-1.55 1.57l-.52.57 1.1 1.01c.31-.33.5-.53.55-.6.55-.63 1-1.1 1.37-1.4Zm1.61-.03Zm-5.6 1.69a6.89 6.89 0 0 0-1.7-.32 23.2 23.2 0 0 0-4.06.01c-.58.06-1.13.15-1.51.32a6.1 6.1 0 0 0-1.3.88c-.5.41-1.1.96-1.82 1.65-1.74.24-2.89.48-3.64.73-.6.2-1.13.5-1.53.84-.39.32-.7.71-.83 1.1-.09.26-.11.55-.12.83a18.3 18.3 0 0 0 0 .97v.19c0 .4.19.78.44 1.05.25.26.62.49 1.05.49l1.04.01a2.73 2.73 0 0 0 2.68 2.24h.03c1.34 0 2.46-.97 2.7-2.25l8.08.02a2.73 2.73 0 0 0 2.68 2.23h.04c1.36 0 2.5-1 2.7-2.3l1.1-.2c.88-.07 1.43-.84 1.43-1.69l-.2-2.63a2.01 2.01 0 0 0-1.53-1.76l-.18-.05c-.3-.07-.57-.15-.92-.2-.2-.04-.5-.14-.87-.3-.37-.17-.77-.38-1.2-.6l-.36-.2c-.75-.4-1.54-.81-2.2-1.06Z"/></svg>