<svg width="48" height="48" fill="none" xmlns="http://www.w3.org/2000/svg"><path fill="currentColor" d="M39.78 10.35c-.77.6-1.7 1.49-2.77 2.66l-.98 1.01-.07.17-.92-.38.14-.34.07-.07 1.02-1.07a24.76 24.76 0 0 1 2.9-2.77C40 8.92 40.8 8.5 41.51 8.5c.98 0 1.63.11 2.15.37a4 4 0 0 1 1.13.96l.08.08-.74.68-.03-.03c-.37-.4-.58-.64-.9-.8a3.73 3.73 0 0 0-1.69-.26c-.37 0-.93.24-1.73.85Zm-10.5 3.8a38.3 38.3 0 0 0-3.95-.15c-1.3 0-2.56.05-3.65.16-1.1.11-1.96.28-2.49.5-.44.2-1.15.67-2.15 1.5-.98.8-2.2 1.91-3.67 3.33l-.12.1-.16.03c-3.52.47-5.94.93-7.3 1.39-.98.33-1.8.82-2.42 1.35a3.74 3.74 0 0 0-1.12 1.5A7.4 7.4 0 0 0 2 26.39v.35c0 .7.56 1.26 1.26 1.26H7v.5a3.5 3.5 0 0 0 3.5 3.5h.5a3.5 3.5 0 0 0 3.5-3.5V28h19v.5A3.5 3.5 0 0 0 37 32h.5a3.5 3.5 0 0 0 3.5-3.5v-.47l3.3-.23c.87-.06 1.64-.89 1.7-1.83a17.63 17.63 0 0 0-.63-4.4c-.31-1.05-.86-1.96-1.75-2.19-.74-.19-1.47-.34-2.2-.46-.6-.1-1.3-.37-2.05-.7-.75-.34-1.58-.76-2.41-1.2l-.72-.38a38.77 38.77 0 0 0-4.06-1.97c-.65-.24-1.67-.42-2.9-.53Zm.1-1c1.24.1 2.36.3 3.15.59a39.7 39.7 0 0 1 4.2 2.02l.7.37c.83.44 1.63.85 2.35 1.18.73.32 1.34.54 1.8.62.76.13 1.52.29 2.28.48 1.46.37 2.14 1.77 2.47 2.87a18.57 18.57 0 0 1 .66 4.75 2.96 2.96 0 0 1-2.63 2.77l-2.38.17A4.5 4.5 0 0 1 37.5 33H37a4.5 4.5 0 0 1-4.47-4H15.47A4.5 4.5 0 0 1 11 33h-.5a4.5 4.5 0 0 1-4.47-4H3.26A2.26 2.26 0 0 1 1 26.74v-.35c0-1.4.04-2.07.3-2.85a4.7 4.7 0 0 1 1.42-1.94 8.19 8.19 0 0 1 2.76-1.54c1.43-.48 3.88-.95 7.31-1.4a66.57 66.57 0 0 1 3.62-3.28c1-.82 1.8-1.38 2.4-1.64.67-.28 1.66-.46 2.77-.57 1.13-.12 2.43-.16 3.74-.17 1.39 0 2.8.03 4.05.15Z"/></svg>