<svg width="16" height="16" fill="none" xmlns="http://www.w3.org/2000/svg"><path fill="currentColor" d="M11.36 2.4c-.38.32-.85.8-1.4 1.43l-.47.52-.02.06-.02-.01-.03.02-.06-.06-.82-.32.08-.22.07-.07.52-.58a13.3 13.3 0 0 1 1.52-1.54c.42-.35.89-.63 1.36-.63.46 0 .83.01 1.13.1.35.12.56.33.77.57l-.75.66c-.17-.2-.24-.24-.33-.27A3.05 3.05 0 0 0 12.1 2c-.1 0-.33.08-.73.4Zm-5.6 2.54a22.27 22.27 0 0 0-3.9 0 4.6 4.6 0 0 0-1.2.25l-.4-.92c.38-.17.93-.26 1.5-.32a23.25 23.25 0 0 1 4.07-.01 6.9 6.9 0 0 1 1.7.32c.67.25 1.46.67 2.2 1.06l.37.2 1.2.6c.37.16.67.26.87.3a10.05 10.05 0 0 1 1.1.25 2.01 2.01 0 0 1 1.53 1.76l.2 2.63c.06.85-.55 1.62-1.42 1.7l-1.11.19a2.73 2.73 0 0 1-2.7 2.3h-.04a2.73 2.73 0 0 1-2.68-2.23H0v-1h8v.5c0 .96.78 1.73 1.73 1.73h.04c.96 0 1.73-.77 1.73-1.73v-.42l1.95-.34h.03a.57.57 0 0 0 .52-.63l-.2-2.63c-.02-.38-.34-.75-.77-.86l-.2-.05c-.3-.08-.52-.14-.82-.19-.34-.05-.73-.2-1.12-.38a23 23 0 0 1-1.26-.62l-.37-.2c-.75-.4-1.48-.78-2.07-1a6 6 0 0 0-1.44-.26Z"/></svg>