<svg width="24" height="24" fill="none" xmlns="http://www.w3.org/2000/svg"><path fill="currentColor" d="M18 0v1h-6v.82c.85.09 1.39.38 1.71.75.13.15.22.3.28.43h3.51c1.05 0 1.93.58 2.53 1.35.6.77.97 1.78.97 2.75v10.7c0 1.33-1.08 2.2-2.4 2.2H4.3a2.4 2.4 0 0 1-1.6-.56c-.45-.4-.7-.96-.7-1.64V7.1c0-.97.37-1.98.97-2.75A3.26 3.26 0 0 1 5.5 3h3.51c.06-.13.15-.28.28-.43.32-.37.86-.66 1.71-.75V1H5V0h13Zm-7 2.83c-.6.07-.85.27-.96.4a.6.6 0 0 0-.14.28V4H5.5c-.65 0-1.27.37-1.74.97-.48.6-.76 1.4-.76 2.13V11h8V2.83ZM12 11h8V7.1c0-.73-.28-1.52-.76-2.13-.47-.6-1.09-.97-1.74-.97h-4.4v-.49a.6.6 0 0 0-.14-.28c-.11-.13-.37-.33-.96-.4V11Zm8 1H3v5.8c0 .42.15.7.36.89.21.19.54.31.94.31h14.3c.88 0 1.4-.53 1.4-1.2V12ZM5.98 14.98c-.3.3-.48.68-.48 1.02 0 .34.17.72.48 1.02.3.3.68.48 1.02.48.34 0 .72-.17 1.02-.48.3-.3.48-.68.48-1.02 0-.34-.17-.72-.48-1.02-.3-.3-.68-.48-1.02-.48-.34 0-.72.17-1.02.48Zm-.7-.7A2.5 2.5 0 0 1 7 13.5c.66 0 1.28.33 1.73.77.44.45.77 1.07.77 1.73a2.5 2.5 0 0 1-.77 1.73A2.5 2.5 0 0 1 7 18.5a2.5 2.5 0 0 1-1.73-.77A2.5 2.5 0 0 1 4.5 16c0-.66.33-1.28.77-1.73Zm9.7.7c-.3.3-.48.68-.48 1.02 0 .34.17.72.48 1.02.3.3.68.48 1.02.48.34 0 .72-.17 1.02-.48.3-.3.48-.68.48-1.02 0-.34-.17-.72-.48-1.02-.3-.3-.68-.48-1.02-.48-.34 0-.72.17-1.02.48Zm-.7-.7A2.5 2.5 0 0 1 16 13.5c.66 0 1.28.33 1.73.77.44.45.77 1.07.77 1.73a2.5 2.5 0 0 1-.77 1.73 2.5 2.5 0 0 1-1.73.77 2.5 2.5 0 0 1-1.73-.77A2.5 2.5 0 0 1 13.5 16c0-.66.33-1.28.77-1.73Zm-7.93 7.07-2.5 2.5-.7-.7 2.5-2.5.7.7Zm12.8 2.5-2.5-2.5.7-.7 2.5 2.5-.7.7Z"/></svg>