<svg width="24" height="24" fill="none" xmlns="http://www.w3.org/2000/svg"><path fill="currentColor" d="M5 1.5V0h13v1.5H5ZM4.03 24l-1.06-1.07 2.5-2.46 1.06 1.06L4.03 24Zm12.44-2.47 1.06-1.06 2.5 2.46-1.06 1.06-2.5-2.46ZM11.5 1.8h.04-.08.04ZM2 11h9V1.83C9.4 2 9.4 3 9.4 3H5C3.3 3 2 4.9 2 6.6V11Zm11.6-8h4.3c1.7 0 3 1.9 3 3.6V11H12V1.83C13.6 2 13.6 3 13.6 3ZM5.98 15.48c.3-.3.68-.48 1.02-.48.34 0 .72.17 1.02.48.3.3.48.68.48 1.02 0 .34-.17.72-.48 1.02-.3.3-.68.48-1.02.48-.34 0-.72-.17-1.02-.48-.3-.3-.48-.68-.48-1.02 0-.34.17-.72.48-1.02Zm8.52 1.02c0-.34.17-.72.48-1.02.3-.3.68-.48 1.02-.48.34 0 .72.17 1.02.48.3.3.48.68.48 1.02 0 .34-.17.72-.48 1.02-.3.3-.68.48-1.02.48-.34 0-.72-.17-1.02-.48-.3-.3-.48-.68-.48-1.02Z"/><path fill="currentColor" d="M2 12h18.9v6.3c0 1-.8 1.7-1.9 1.7H3.8c-1 0-1.8-.6-1.8-1.7V12Zm3.27 2.77a2.5 2.5 0 0 0-.77 1.73c0 .66.33 1.28.77 1.73A2.5 2.5 0 0 0 7 19a2.5 2.5 0 0 0 1.73-.77 2.5 2.5 0 0 0 .77-1.73 2.5 2.5 0 0 0-.77-1.73A2.5 2.5 0 0 0 7 14a2.5 2.5 0 0 0-1.73.77Zm9 0a2.5 2.5 0 0 0-.77 1.73c0 .66.33 1.28.77 1.73A2.5 2.5 0 0 0 16 19a2.5 2.5 0 0 0 1.73-.77 2.5 2.5 0 0 0 .77-1.73 2.5 2.5 0 0 0-.77-1.73A2.5 2.5 0 0 0 16 14a2.5 2.5 0 0 0-1.73.77Z"/></svg>