<svg width="48" height="48" fill="none" xmlns="http://www.w3.org/2000/svg"><path fill="currentColor" d="M13 3h21v1h-5.4l-3.23 3.24c.74.21 1.24.55 1.57.93.26.3.4.6.47.83h6.09c3.08 0 5.5 2.42 5.5 5.5v18c0 1.98-1.52 3.5-3.5 3.5h-24A3.45 3.45 0 0 1 8 32.5v-18C8 11.42 10.42 9 13.5 9h6.09c.07-.24.21-.54.47-.83.31-.35.76-.67 1.42-.89L18.19 4H13V3Zm6.6 1 3.05 3.04a8.28 8.28 0 0 1 1.52-.01L27.19 4h-7.58Zm.9 5.5v.5h-7A4.45 4.45 0 0 0 9 14.5v18c0 1.42 1.08 2.5 2.5 2.5h24c1.42 0 2.5-1.08 2.5-2.5v-18c0-2.52-1.98-4.5-4.5-4.5h-7v-.52a1.32 1.32 0 0 0-.31-.65C25.87 8.47 25.15 8 23.5 8s-2.37.47-2.69.83a1.32 1.32 0 0 0-.3.65l-.01.03Zm-6 3.5a2.45 2.45 0 0 0-2.5 2.5V21h11v-8h-8.5Zm9.5 0v8h11v-5.5a2.5 2.5 0 0 0-2.5-2.5H24Zm-13 9v-6.5c0-1.98 1.52-3.5 3.5-3.5h18a3.5 3.5 0 0 1 3.5 3.5V22H11Zm3 6c-1.12 0-2 .88-2 2s.88 2 2 2 2-.88 2-2-.88-2-2-2Zm-3 2c0-1.68 1.32-3 3-3s3 1.32 3 3-1.32 3-3 3-3-1.32-3-3Zm22-2c-1.12 0-2 .88-2 2s.88 2 2 2 2-.88 2-2-.88-2-2-2Zm-3 2c0-1.68 1.32-3 3-3s3 1.32 3 3-1.32 3-3 3-3-1.32-3-3Zm9.74 14.35-6-6.1.72-.7 6 6.1-.72.7Zm-26.39-6-6 6-.7-.7 6-6 .7.7Z"/></svg>