<svg width="16" height="16" fill="none" xmlns="http://www.w3.org/2000/svg"><path fill="currentColor" d="M12 1H4V0h8v1ZM3.47 3.58c-.3.38-.47.87-.47 1.32V7h4.5V3h-3c-.37 0-.74.2-1.03.58ZM8.5 3v4H13V4.9c0-.45-.17-.94-.47-1.32-.3-.37-.66-.58-1.03-.58h-3ZM13 8H3v3.37c0 .23.08.38.18.46.1.1.28.17.52.17h8.53c.52 0 .77-.3.77-.63V8ZM2.68 2.97A2.34 2.34 0 0 1 4.5 2h7c.76 0 1.4.43 1.82.97.42.54.68 1.24.68 1.93v6.47c0 1-.81 1.63-1.77 1.63H3.7c-.43 0-.86-.13-1.18-.42A1.6 1.6 0 0 1 2 11.37V4.9c0-.69.26-1.4.68-1.93Zm3.07 6.78a.25.25 0 1 0 0 .5.25.25 0 0 0 0-.5ZM4.5 10A1.25 1.25 0 1 1 7 10a1.25 1.25 0 0 1-2.5 0Zm5.75-.25a.25.25 0 1 0 0 .5.25.25 0 0 0 0-.5ZM9 10a1.25 1.25 0 1 1 2.5 0A1.25 1.25 0 0 1 9 10Zm-4.48 4.36L2.85 16l-.7-.72 1.67-1.64.7.72Zm8.8 1.64-1.67-1.64.7-.72 1.67 1.64-.7.72Z"/></svg>