<svg width="24" height="24" fill="none" xmlns="http://www.w3.org/2000/svg"><path fill="currentColor" d="M9.6 4a4.51 4.51 0 0 0-4.5 4.5c0 2.43 1.98 4.5 4.5 4.5h.3A4.3 4.3 0 0 0 14 8.52V8.5C14 5.97 12.02 4 9.6 4ZM4.1 8.5C4.1 5.42 6.63 3 9.6 3 12.58 3 15 5.43 15 8.5a5.32 5.32 0 0 1-2.91 4.94l3.77 8.97-.92.38-3.78-8.99c-.4.12-.81.18-1.24.2H9.6a5.51 5.51 0 0 1-5.5-5.5Zm6.56.46c.55-.06 1.17-.09 1.81-.1l.02 1c-.62.01-1.22.04-1.72.1-.52.05-.9.13-1.12.23-.24.1-.67.4-1.34.97l-.65-.76a7.4 7.4 0 0 1 1.6-1.13 5.2 5.2 0 0 1 1.4-.3Zm5.54.2c.12.02.23.06.34.1a20.78 20.78 0 0 1 2.56 1.25c.43.23.84.44 1.2.6.37.17.67.27.87.3.35.06.63.14.93.21l.18.05c.78.2 1.46.89 1.52 1.76l.2 2.65v.02c0 .79-.52 1.58-1.42 1.66l-1.11.19a2.73 2.73 0 0 1-2.7 2.3h-.04a2.73 2.73 0 0 1-2.68-2.23h-.56v-1H17v.5c0 .96.78 1.73 1.73 1.73h.04c.96 0 1.73-.77 1.73-1.73v-.42l1.95-.34h.03c.27-.02.51-.26.52-.65l-.2-2.6v-.01c-.02-.38-.34-.75-.77-.86l-.2-.05c-.3-.08-.52-.14-.82-.19-.34-.05-.73-.2-1.12-.38a22.98 22.98 0 0 1-1.63-.82c-.75-.4-1.48-.78-2.07-1a2.46 2.46 0 0 0-.24-.08l.25-.97ZM2.5 12.52c.44-.15 1.02-.3 1.78-.44l.18.99c-.73.13-1.26.27-1.65.4-.49.16-.9.4-1.2.65a1.7 1.7 0 0 0-.53.66c-.04.12-.06.28-.07.55v1.12c0 .1.04.24.17.37.12.13.25.18.32.18l2 .03v.5c0 .95.78 1.72 1.73 1.72h.02c.97 0 1.75-.78 1.75-1.75V17h4.41v1H7.96a2.75 2.75 0 0 1-2.7 2.25h-.03a2.73 2.73 0 0 1-2.68-2.24L1.5 18c-.43 0-.8-.23-1.05-.5A1.58 1.58 0 0 1 0 16.46V15.3c.02-.28.04-.57.13-.82.13-.4.44-.79.83-1.11.4-.34.93-.64 1.53-.84Z"/></svg>