<svg width="16" height="16" fill="none" xmlns="http://www.w3.org/2000/svg"><path fill="currentColor" d="M12 15.5c-.93 0-1.71-.64-1.94-1.5H5.93a2 2 0 0 1-3.88-.02l-.92-.05c-.61 0-1.13-.52-1.13-1.17v-.21c0-.31.01-1.07.16-1.5.21-.62.92-1.23 1.78-1.51.55-.18 1.44-.36 2.72-.53l.26-.25c.94-.91 1.46-1.41 1.89-1.6.52-.22 3.97-.23 4.56 0 .45.17.87.52 1.27.86.39.33.79.66 1.09.71.3.05.59.11.89.19.65.17 1.12.73 1.17 1.41l.21 2.13a1.4 1.4 0 0 1-1.28 1.4l-.77.1A2 2 0 0 1 12 15.51v-.01ZM5 13h6v.5a1 1 0 0 0 1 1 1 1 0 0 0 1-1v-.44l1.62-.21c.21-.02.38-.18.38-.35l-.21-2.1a.57.57 0 0 0-.42-.52c-.27-.07-.54-.12-.81-.17-.57-.09-1.08-.52-1.57-.93-.34-.28-.69-.58-.98-.69-.41-.13-3.39-.13-3.83 0-.24.1-.8.64-1.57 1.39l-.49.48-.16.02c-1.29.17-2.19.34-2.7.51-.66.22-1.07.65-1.14.88-.05.16-.11.59-.11 1.18v.21c0 .09.08.17.17.17l1.83.1v.47a1 1 0 0 0 1 1 1 1 0 0 0 1-1V13H5Zm9-5.02v-1h.68c.1 0 .32-.27.32-.48l-.21-2.1a.57.57 0 0 0-.42-.52 7.78 7.78 0 0 0-.81-.17c-.57-.09-1.08-.52-1.57-.93-.34-.28-.69-.58-.98-.69-.41-.13-3.39-.13-3.83 0-.24.1-.8.64-1.57 1.39l-.5.48-.16.02c-1.29.17-2.2.34-2.7.51-.66.22-1.07.65-1.14.88A4.8 4.8 0 0 0 1 6.55v.21c0 .11.1.23.17.23H4v1H1.17C.53 7.99 0 7.43 0 6.76v-.21c0-.31.01-1.07.16-1.5.21-.62.92-1.23 1.78-1.51.55-.18 1.44-.36 2.72-.53l.26-.25c.94-.91 1.46-1.41 1.89-1.59.52-.22 3.97-.23 4.56 0 .45.17.87.52 1.27.86.39.33.79.66 1.09.71.3.05.59.11.89.19.65.17 1.12.73 1.17 1.41L16 6.47c0 .71-.55 1.48-1.28 1.53H14v-.02Z"/></svg>