<svg width="24" height="24" fill="none" xmlns="http://www.w3.org/2000/svg"><path fill="currentColor" d="M12.36 8.3c.5.18 1.08.5 1.62.78a87.28 87.28 0 0 0 1.14.57c.27.12.47.2.6.22.3.05.6.1.89.18.65.17 1.12.73 1.17 1.4l.19 1.71a18.54 18.54 0 0 0-4-.1 5 5 0 0 0-1.42.33c-.41.17-.84.5-1.22.8-.27.23-.58.5-.91.81H5.94a2 2 0 0 1-3.88-.02l-.91-.06C.5 14.92 0 14.4 0 13.76v-.21c0-.55.04-1.01.16-1.36.1-.3.34-.61.63-.86.3-.26.68-.5 1.15-.65a17.3 17.3 0 0 1 2.71-.53c.51-.49.95-.88 1.31-1.18.38-.31.72-.55.98-.66.3-.13.71-.2 1.13-.25a17.57 17.57 0 0 1 3 0c.48.04.95.11 1.3.24Z"/><path fill="currentColor" d="M17.07 14.06c.48.04.95.11 1.3.24.48.18 1.07.5 1.61.78a70.47 70.47 0 0 0 1.14.57c.27.12.47.2.6.22.3.05.6.1.89.18.65.17 1.12.73 1.17 1.4l.22 2v.02c0 .39-.15.73-.38.96-.23.23-.55.39-.89.42l-.78.1a2 2 0 0 1-3.89.05h-6.12a2 2 0 0 1-3.88-.02l-.91-.06C6.5 20.92 6 20.4 6 19.76v-.21c0-.55.04-1.01.16-1.36.1-.3.34-.61.63-.86.3-.26.68-.5 1.15-.65a17.3 17.3 0 0 1 2.71-.53c.51-.49.95-.88 1.31-1.18.38-.31.72-.55.98-.66.3-.13.71-.2 1.13-.25a17.56 17.56 0 0 1 3 0ZM18.36 2.3c.5.18 1.08.5 1.62.78a87.28 87.28 0 0 0 1.14.57c.27.12.47.2.6.22.3.05.6.1.89.18.65.17 1.12.73 1.17 1.4l.22 2v.02c0 .39-.15.73-.38.96-.23.23-.55.39-.89.42l-.78.1a2 2 0 0 1-3.89.05H16.5c-.2-.05-.4-.09-.61-.12l-.09-.03a15.06 15.06 0 0 1-1.09-.52l-.26-.13-.03-.02c-.52-.28-1.16-.61-1.7-.82a6.16 6.16 0 0 0-1.56-.3 18.56 18.56 0 0 0-3.2.01A3.52 3.52 0 0 0 6 7.69l.01-.14c0-.55.04-1.01.16-1.36.1-.3.34-.61.63-.86.3-.26.68-.5 1.15-.65a17.3 17.3 0 0 1 2.71-.53c.51-.49.95-.88 1.31-1.18.38-.31.72-.55.98-.66.3-.13.71-.2 1.13-.25a17.57 17.57 0 0 1 3 0c.48.04.95.11 1.3.24Z"/></svg>