<svg width="48" height="48" fill="none" xmlns="http://www.w3.org/2000/svg"><path fill="currentColor" d="M33.39 6.1c.88.08 1.7.22 2.28.43.9.34 1.97.9 3 1.45l.5.27c.59.3 1.16.6 1.66.83.52.23.94.38 1.25.43.54.09 1.09.2 1.64.34a2.5 2.5 0 0 1 1.87 2.24l.4 3.62v.01a1.9 1.9 0 0 1-.58 1.48c-.37.37-.88.62-1.42.66l-1.52.1a3.5 3.5 0 0 1-6.94.04h-3.4v-1h4.37v.5a2.5 2.5 0 0 0 5 0v-.46l2.42-.18c.28-.02.57-.16.78-.37.2-.2.31-.45.3-.69l-.4-3.62a1.5 1.5 0 0 0-1.13-1.36c-.52-.13-1.04-.24-1.56-.33a6.5 6.5 0 0 1-1.49-.5c-.53-.24-1.13-.55-1.72-.86l-.5-.27a29.6 29.6 0 0 0-2.88-1.4 8.42 8.42 0 0 0-2.02-.36 30.8 30.8 0 0 0-5.38.01c-.78.08-1.38.2-1.73.35-.3.13-.78.46-1.5 1.04-.69.57-1.55 1.36-2.6 2.36l-.12.11-.16.03c-2.5.33-4.2.66-5.16.97a5.1 5.1 0 0 0-1.67.94c-.43.37-.67.74-.76 1-.08.25-.15.6-.19 1.05l-1-.08c.05-.5.12-.94.24-1.29.16-.48.54-1 1.05-1.44a5.9 5.9 0 0 1 2.02-1.12c1.02-.35 2.76-.68 5.18-1 1-.96 1.85-1.73 2.54-2.3.71-.59 1.3-1 1.74-1.19.5-.21 1.23-.34 2.02-.42a31.8 31.8 0 0 1 5.57-.01Zm-11 10c.89.08 1.7.22 2.28.43.9.34 1.97.9 3 1.45l.5.27c.59.3 1.16.6 1.66.83.52.23.94.38 1.25.43.54.09 1.09.2 1.64.34a2.5 2.5 0 0 1 1.87 2.24l.24 2.14-1 .11-.24-2.16a1.5 1.5 0 0 0-1.12-1.36c-.52-.13-1.04-.24-1.56-.33a6.5 6.5 0 0 1-1.49-.5 31.42 31.42 0 0 1-2.23-1.13 27.41 27.41 0 0 0-2.87-1.4 8.41 8.41 0 0 0-2.02-.36 30.78 30.78 0 0 0-5.38.01c-.78.08-1.38.2-1.73.35-.3.13-.78.46-1.5 1.04-.69.57-1.55 1.36-2.6 2.36l-.12.11-.16.03c-2.5.33-4.2.66-5.16.97a5.1 5.1 0 0 0-1.67.94c-.43.37-.67.74-.76 1A7.1 7.1 0 0 0 3 26v.25c0 .41.33.75.75.75H6.5v.5a2.5 2.5 0 0 0 5 0V27H18v1h-5.54a3.5 3.5 0 0 1-6.93 0H3.75C2.78 28 2 27.22 2 26.25V26c0-1.01.08-1.83.27-2.4.16-.5.54-1 1.05-1.45a5.9 5.9 0 0 1 2.02-1.12c1.02-.35 2.76-.68 5.18-1 1-.96 1.85-1.73 2.54-2.3.71-.59 1.3-1 1.74-1.19.5-.21 1.23-.34 2.02-.42a31.77 31.77 0 0 1 5.57-.01Zm9 10c.88.08 1.7.22 2.28.43a28.38 28.38 0 0 1 3.5 1.72c.59.3 1.16.6 1.66.83.52.23.94.38 1.25.43.54.09 1.09.2 1.64.34a2.5 2.5 0 0 1 1.87 2.24l.4 3.62v.01a1.9 1.9 0 0 1-.58 1.48c-.37.37-.88.62-1.42.66l-1.52.1a3.5 3.5 0 0 1-6.94.04H21.46a3.5 3.5 0 0 1-6.93 0h-1.78c-.97 0-1.75-.78-1.75-1.75V36c0-1.01.08-1.83.27-2.4.16-.5.54-1 1.05-1.45a5.9 5.9 0 0 1 2.02-1.12c1.02-.35 2.76-.68 5.18-1 1-.96 1.85-1.73 2.54-2.3.71-.59 1.3-1 1.74-1.19.5-.21 1.23-.34 2.02-.42a31.77 31.77 0 0 1 5.57-.01Zm-.1 1a30.78 30.78 0 0 0-5.37.01c-.78.08-1.38.2-1.73.35-.3.13-.78.46-1.5 1.04-.69.57-1.55 1.36-2.6 2.36l-.12.11-.16.03c-2.5.33-4.2.66-5.16.97a5.1 5.1 0 0 0-1.67.94c-.43.37-.67.74-.76 1-.14.42-.22 1.1-.22 2.1v.24c0 .41.33.75.75.75h2.75v.5a2.5 2.5 0 0 0 5 0V37h14v.5a2.5 2.5 0 0 0 5 0v-.46l2.42-.18c.28-.02.57-.16.78-.37.2-.2.31-.45.3-.69l-.4-3.62a1.5 1.5 0 0 0-1.13-1.36c-.52-.13-1.04-.24-1.56-.33a6.5 6.5 0 0 1-1.49-.5 31.46 31.46 0 0 1-2.23-1.13 27.42 27.42 0 0 0-2.87-1.4 8.41 8.41 0 0 0-2.02-.36Z"/></svg>