<svg width="24" height="24" fill="none" xmlns="http://www.w3.org/2000/svg"><path fill="currentColor" d="M20 22.5c-.93 0-1.71-.64-1.94-1.5h-6.13a2 2 0 0 1-3.88-.02l-.92-.05c-.61 0-1.13-.52-1.13-1.16v-.21c0-.59.05-1.04.16-1.36.21-.62.92-1.23 1.78-1.51.55-.18 1.44-.36 2.72-.53 1.47-1.4 2.01-1.72 2.29-1.84.47-.2 1.3-.3 2.55-.31.97 0 2.19.04 2.87.3.49.18 1.06.49 1.62.78.64.34 1.37.72 1.74.79.3.05.59.11.89.19.65.17 1.12.73 1.17 1.41l.21 1.99c.05.71-.54 1.35-1.28 1.4l-.77.1A2 2 0 0 1 20 22.52v-.02ZM11 20h8v.5a1 1 0 0 0 1 1 1 1 0 0 0 1-1v-.44l1.62-.21c.21-.02.39-.18.38-.32l-.21-1.99a.6.6 0 0 0-.42-.53c-.27-.07-.54-.12-.81-.17-.53-.09-1.27-.48-2.05-.89-.53-.28-1.07-.57-1.5-.73a9.2 9.2 0 0 0-2.51-.23c-1.44 0-1.98.14-2.17.23-.19.08-.71.42-2.11 1.76l-.12.11-.16.02c-1.29.17-2.19.34-2.7.51-.66.22-1.07.65-1.14.88-.05.15-.11.45-.11 1.04v.21c0 .09.08.17.17.17l1.83.1v.47a1 1 0 0 0 1 1 1 1 0 0 0 1-1v-.5L11 20Zm-7-3.5a2 2 0 0 1-1.94-1.52l-.92-.05A1.17 1.17 0 0 1 0 13.76v-.21c0-.59.05-1.04.16-1.36.21-.62.92-1.23 1.78-1.51.54-.18 1.43-.35 2.72-.53 1.47-1.4 2.01-1.73 2.29-1.85.47-.2 1.3-.3 2.55-.31.94 0 2.19.04 2.86.3.49.18 1.06.49 1.62.78.64.34 1.37.72 1.74.79.3.05.59.11.89.19.65.17 1.12.73 1.17 1.41l.16 1.45-.99.11-.16-1.47a.6.6 0 0 0-.42-.53c-.27-.07-.54-.12-.81-.17a8.29 8.29 0 0 1-2.04-.89c-.53-.28-1.07-.57-1.5-.73A8.8 8.8 0 0 0 9.51 9c-1.44 0-1.98.14-2.17.23-.19.08-.71.42-2.11 1.76l-.12.11-.16.02c-1.29.17-2.2.34-2.7.51-.66.22-1.07.65-1.15.88-.05.15-.11.45-.11 1.04v.21c0 .09.08.17.17.17l1.83.1v.47a1 1 0 0 0 1 1 1 1 0 0 0 1-1V14h4.99v1H5.93a2 2 0 0 1-1.94 1.5H4Zm16-6c-.93 0-1.71-.64-1.94-1.5h-1.38V8h2.31v.5a1 1 0 0 0 1 1 1 1 0 0 0 1-1v-.44l1.62-.21c.21-.02.39-.18.38-.32l-.21-1.99a.6.6 0 0 0-.42-.53c-.27-.07-.54-.12-.81-.17a8.3 8.3 0 0 1-2.04-.89c-.53-.28-1.07-.57-1.5-.73a9 9 0 0 0-2.51-.23c-1.44 0-1.98.14-2.17.23-.19.08-.71.42-2.11 1.76l-.12.11-.16.02c-1.29.17-2.2.34-2.7.51-.66.22-1.07.65-1.15.88-.03.08-.06.23-.09.49L6 6.9c.02-.29.07-.52.13-.72.21-.62.92-1.23 1.78-1.51.54-.18 1.43-.35 2.72-.53 1.47-1.4 2.01-1.72 2.29-1.84.47-.2 1.3-.3 2.55-.31a10 10 0 0 1 2.87.3c.49.18 1.06.49 1.62.78.64.34 1.37.72 1.74.79.3.05.59.11.89.19.66.17 1.13.73 1.17 1.41l.21 1.99c.05.71-.54 1.35-1.28 1.4l-.77.1a2 2 0 0 1-1.95 1.55H20Z"/></svg>