<svg width="48" height="48" fill="none" xmlns="http://www.w3.org/2000/svg"><path fill="currentColor" d="M11 15.4a8.77 8.77 0 0 0 8.6 8.6h.59c4.51-.2 8-4.05 7.81-8.58v-.02c0-4.62-3.78-8.4-8.4-8.4a8.53 8.53 0 0 0-8.6 8.4Zm-1-.01A9.53 9.53 0 0 1 19.6 6c5.17 0 9.4 4.22 9.4 9.39a9.27 9.27 0 0 1-5.13 8.68l7.29 16.43-.92.4-7.3-16.44a9 9 0 0 1-2.72.54h-.63A9.77 9.77 0 0 1 10 15.41v-.02Zm15.32.61H26v1a57.33 57.33 0 0 0-1.03 0c-1.23.02-2.41.07-3.43.18a8.85 8.85 0 0 0-2.34.48c-.49.21-1.29.77-2.43 1.73-.34.28-.7.6-1.1.96L15 19.6l1.13-.98c1.14-.96 2.04-1.6 2.68-1.88a9.74 9.74 0 0 1 2.62-.56 38.37 38.37 0 0 1 3.9-.18Zm5.82.38a9.6 9.6 0 0 1 1.4.36 39.7 39.7 0 0 1 4.18 2.02l.7.37c.84.44 1.64.85 2.36 1.18.73.32 1.34.54 1.8.62.76.13 1.52.29 2.28.48 1.46.37 2.14 1.77 2.47 2.87a18.57 18.57 0 0 1 .66 4.75 2.96 2.96 0 0 1-2.63 2.77l-2.38.17A4.5 4.5 0 0 1 37.5 36H37a4.5 4.5 0 0 1-4.47-4H30v-1h3.49v.5A3.5 3.5 0 0 0 37 35h.5a3.5 3.5 0 0 0 3.5-3.5v-.47l3.3-.23c.87-.06 1.64-.89 1.7-1.83a17.63 17.63 0 0 0-.63-4.4c-.31-1.05-.86-1.96-1.75-2.19-.74-.19-1.47-.34-2.2-.46-.6-.1-1.3-.37-2.05-.7-.75-.34-1.58-.76-2.41-1.2l-.72-.38a38.77 38.77 0 0 0-4.36-2.07 8.63 8.63 0 0 0-.92-.21l.18-.98ZM8.91 22.25l1.52-.26.16 1c-.54.08-1.04.16-1.5.25-1.44.26-2.54.51-3.3.77-.98.33-1.8.82-2.42 1.35a3.74 3.74 0 0 0-1.12 1.5A7.4 7.4 0 0 0 2 29.39v.35c0 .7.56 1.26 1.26 1.26H7v.5a3.5 3.5 0 0 0 3.5 3.5h.5a3.5 3.5 0 0 0 3.5-3.5V31H23v1h-7.53A4.5 4.5 0 0 1 11 36h-.5a4.5 4.5 0 0 1-4.47-4H3.26A2.26 2.26 0 0 1 1 29.74v-.35c0-1.4.04-2.07.3-2.85a4.7 4.7 0 0 1 1.42-1.94 8.19 8.19 0 0 1 2.76-1.54c.82-.28 1.97-.54 3.43-.8Z"/></svg>