<svg width="24" height="24" fill="none" xmlns="http://www.w3.org/2000/svg"><path fill="currentColor" d="m15.08 9.04 1.03.1h.05l.04.01.34.1c.66.26 1.45.68 2.2 1.07a136.91 136.91 0 0 0 1.56.8c.37.16.67.26.87.3a10.08 10.08 0 0 1 1.1.25 2 2 0 0 1 1.53 1.76l.2 2.63c0 .94-.55 1.62-1.42 1.7l-1.11.19a2.73 2.73 0 0 1-2.7 2.3h-.04a2.73 2.73 0 0 1-2.68-2.23h-1.8l1.84 4.28-1.38.6-2.1-4.89H7.97a2.75 2.75 0 0 1-2.7 2.24h-.03a2.73 2.73 0 0 1-2.68-2.24L1.5 18c-.43 0-.8-.23-1.05-.5A1.58 1.58 0 0 1 0 16.46V15.3c.02-.28.04-.57.13-.82.13-.4.44-.79.83-1.11.4-.34.93-.64 1.53-.84.45-.15 1.02-.3 1.77-.43l.7-.22A5.73 5.73 0 0 1 9.6 2.75a5.68 5.68 0 0 1 5.65 5.74v.56l-.17-.01ZM5.35 8.5c0 1.02.37 1.98 1 2.73l-.06.05a9.02 9.02 0 0 0 1.38-.88 7.4 7.4 0 0 1 1.59-1.13 7.87 7.87 0 0 1 3.5-.46l.99.08V8.5c0-2.4-1.87-4.25-4.15-4.25A4.26 4.26 0 0 0 5.35 8.5Zm.81 2.89-.77.64A5.48 5.48 0 0 0 9.6 14h.32a5.1 5.1 0 0 0 1.24-.2l1.7 4.05.92-.4-1.7-4.01A5.32 5.32 0 0 0 15 9.04l-1-.07A4.3 4.3 0 0 1 9.9 13h-.3c-1.4 0-2.62-.63-3.44-1.61Z"/></svg>