<svg width="16" height="16" fill="none" xmlns="http://www.w3.org/2000/svg"><path fill="currentColor" d="M7.06 1.06c-.03.02-.06.08-.06.19v1.5c0 .11.03.17.06.19.02.03.08.06.19.06h1.5c.11 0 .17-.03.19-.06.03-.02.06-.08.06-.19v-1.5c0-.11-.03-.17-.06-.19-.02-.03-.08-.06-.19-.06h-1.5c-.11 0-.17.03-.19.06Zm-.7-.7C6.58.11 6.9 0 7.24 0h1.5c.34 0 .66.12.9.35.23.24.35.56.35.9v1.5c0 .34-.12.66-.35.9-.24.23-.56.35-.9.35h-1.5c-.34 0-.66-.12-.9-.35a1.25 1.25 0 0 1-.35-.9v-1.5c0-.34.12-.66.35-.9ZM5.08 6.02a.2.2 0 0 0-.05.12V10H6V7.5h1V15h2V7.5h1V10h1.02V6.09s0-.02-.03-.04a.2.2 0 0 0-.12-.05H5.13s-.02 0-.04.03ZM5.13 6Zm5.9.09ZM10 11v5H6v-5H4.04V6.15c0-.29.12-.57.3-.77.18-.21.45-.38.79-.38h5.74c.3 0 .57.11.78.3.2.17.37.45.37.79V11H10Z"/></svg>