<svg width="48" height="48" fill="none" xmlns="http://www.w3.org/2000/svg"><path fill="currentColor" d="M22.5 4c-.82 0-1.5.68-1.5 1.5v2c0 .82.68 1.5 1.5 1.5h2c.82 0 1.5-.68 1.5-1.5v-2c0-.82-.68-1.5-1.5-1.5h-2ZM20 5.5A2.5 2.5 0 0 1 22.5 3h2A2.5 2.5 0 0 1 27 5.5v2a2.5 2.5 0 0 1-2.5 2.5h-2A2.5 2.5 0 0 1 20 7.5v-2ZM18.45 13A1.36 1.36 0 0 0 17 14.4V27h2v-8h1v8.69L20.97 44H23V31h1v13h2.03L27 27.49V19h1v8h2V14.4c0-.7-.66-1.4-1.5-1.4H18.45Zm9.52 15-1 17h-6.94l-1.01-17H16V14.4a2.36 2.36 0 0 1 2.52-2.4h9.98c1.36 0 2.5 1.1 2.5 2.4V28h-3.03Z"/></svg>