<svg width="24" height="24" fill="none" xmlns="http://www.w3.org/2000/svg"><path fill="currentColor" d="M10.5 4C9.68 4 9 4.68 9 5.5v3c0 .82.68 1.5 1.5 1.5h3c.82 0 1.5-.68 1.5-1.5v-3c0-.82-.68-1.5-1.5-1.5h-3ZM8 5.5A2.5 2.5 0 0 1 10.5 3h3A2.5 2.5 0 0 1 16 5.5v3a2.5 2.5 0 0 1-2.5 2.5h-3A2.5 2.5 0 0 1 8 8.5v-3Zm-1.87 8.63c-.07.07-.13.18-.13.37V21h12v-6.5c0-.19-.06-.3-.13-.37S17.7 14 17.5 14h-11c-.19 0-.3.06-.37.13Zm-.7-.7A1.5 1.5 0 0 1 6.5 13h11c.41 0 .8.14 1.08.42.28.28.42.67.42 1.08V22H5v-7.5c0-.41.14-.8.42-1.08Z"/></svg>