<svg width="24" height="24" fill="none" xmlns="http://www.w3.org/2000/svg"><path fill="currentColor" d="M10.13 1.13c-.07.07-.13.18-.13.37v2c0 .19.06.3.13.37s.18.13.37.13h2c.19 0 .3-.06.37-.13S13 3.7 13 3.5v-2c0-.19-.06-.3-.13-.37S12.7 1 12.5 1h-2c-.19 0-.3.06-.37.13Zm-.7-.7A1.5 1.5 0 0 1 10.5 0h2c.41 0 .8.14 1.08.42.28.28.42.67.42 1.08v2c0 .41-.14.8-.42 1.08A1.5 1.5 0 0 1 12.5 5h-2c-.41 0-.8-.14-1.08-.42A1.5 1.5 0 0 1 9 3.5v-2c0-.41.14-.8.42-1.08Zm-2.3 6.7A.57.57 0 0 0 7 7.5V14h1.3L8 10.04l1-.08L9.96 23h3.08L14 9.96l1 .08-.3 3.96H16V7.4c0-.08-.04-.17-.14-.26A.57.57 0 0 0 15.5 7H7.4c-.08 0-.17.04-.26.14Zm7.5 7.86-.68 9H9.04l-.67-9H6V7.5c0-.38.15-.74.38-1.01.24-.28.6-.49 1.02-.49h8.1c.38 0 .74.15 1.02.38.27.24.48.6.48 1.02V15h-2.37Z"/></svg>