<svg width="24" height="24" fill="none" xmlns="http://www.w3.org/2000/svg"><path fill="currentColor" d="M17.5 3A2.5 2.5 0 0 0 15 5.5V7h7V5.5A2.5 2.5 0 0 0 19.5 3h-2ZM23 7h1v7H13V7h1V5.5A3.5 3.5 0 0 1 17.5 2h2A3.5 3.5 0 0 1 23 5.5V7Zm0 1h-9v5h9V8Zm-5 3.5V9h1v2.5h-1Zm-7.56-.51c.46-.06.98-.1 1.52-.11l.03 1c-.52.01-1 .05-1.42.1a4.2 4.2 0 0 0-.92.2c-.2.1-.54.32-1.05.74-.5.42-1.13.98-1.89 1.71l-.12.12-.16.02a22.1 22.1 0 0 0-3.62.7c-.49.17-.9.4-1.2.66a1.7 1.7 0 0 0-.53.66c-.04.12-.06.28-.07.55v1.11c0 .1.04.24.17.37.12.13.25.18.32.18l2 .03v.5c0 .95.78 1.72 1.73 1.72h.02c.97 0 1.75-.78 1.75-1.75V19l10 .02v.5c0 .96.78 1.73 1.73 1.73h.04c.96 0 1.73-.77 1.73-1.73v-.42l1.95-.34h.03c.27-.02.51-.26.52-.64l-.25-2.93 1-.08.25 2.97v.02c0 .79-.52 1.58-1.42 1.66l-1.11.19a2.73 2.73 0 0 1-2.7 2.3h-.04a2.73 2.73 0 0 1-2.68-2.23L7.95 20a2.75 2.75 0 0 1-2.7 2.25h-.02a2.73 2.73 0 0 1-2.68-2.24L1.5 20c-.43 0-.8-.23-1.05-.5A1.58 1.58 0 0 1 0 18.46V17.3c.02-.28.04-.57.13-.82.13-.4.44-.79.83-1.11.4-.34.93-.64 1.53-.84.75-.25 1.9-.5 3.64-.73a34.1 34.1 0 0 1 1.83-1.65 6.1 6.1 0 0 1 1.3-.88c.31-.14.73-.22 1.18-.28Z"/></svg>