<svg width="24" height="24" fill="none" xmlns="http://www.w3.org/2000/svg"><path fill="currentColor" d="M14 7h-1v7h11V7h-1V5.56C23 3.6 21.4 2 19.44 2h-1.88A3.56 3.56 0 0 0 14 5.56V7Zm1.5-1.44c0-1.14.92-2.06 2.06-2.06h1.88c1.14 0 2.06.92 2.06 2.06V7h-6V5.56ZM18 9h1v2.5h-1V9Z"/><path fill="currentColor" d="M12 10.91V15h11.6c.06.16.1.33.1.5l.3 2.67v.02c0 .52-.2.97-.51 1.28-.3.3-.73.52-1.18.56l-1.05.13a2.67 2.67 0 0 1-5.18.07H7.92a2.67 2.67 0 0 1-5.18-.03l-1.2-.07A1.55 1.55 0 0 1 0 18.58v-.28a6 6 0 0 1 .21-1.8c.14-.42.45-.83.84-1.17.4-.34.92-.65 1.53-.85.74-.25 1.96-.48 3.62-.71a33 33 0 0 1 1.75-1.58c.5-.41.95-.73 1.3-.88.4-.17.95-.27 1.5-.32.4-.04.81-.07 1.25-.08Z"/></svg>