<svg width="48" height="48" fill="none" xmlns="http://www.w3.org/2000/svg"><path fill="currentColor" d="M35.79 6C33.76 6 32 7.94 32 10.5V13h11v-2.5C43 7.94 41.24 6 39.21 6H35.8ZM44 13h2v11H29V13h2v-2.5C31 7.54 33.07 5 35.79 5h3.42C41.93 5 44 7.54 44 10.5V13Zm-14 1v9h15v-9H30Zm7 6v-4h1v4h-1Zm-11.68 1H27v1h-1.67c-1.3 0-2.56.05-3.65.16-1.1.11-1.96.28-2.49.5-.44.2-1.15.67-2.15 1.5-.98.8-2.2 1.91-3.67 3.33l-.12.1-.16.03c-3.52.47-5.94.93-7.3 1.39-.98.33-1.8.82-2.42 1.35a3.74 3.74 0 0 0-1.12 1.5A7.4 7.4 0 0 0 2 34.39v.35c0 .7.56 1.26 1.26 1.26H7v.5a3.5 3.5 0 0 0 3.5 3.5h.5a3.5 3.5 0 0 0 3.5-3.5V36h19v.5A3.5 3.5 0 0 0 37 40h.5a3.5 3.5 0 0 0 3.5-3.5v-.47l3.3-.23c.87-.06 1.64-.89 1.7-1.83a17.63 17.63 0 0 0-.63-4.4c-.31-1.05-.86-1.96-1.75-2.19a15 15 0 0 0-1.53-.28l-.68-.1.17-1 .6.1c.55.08 1.12.17 1.68.31 1.46.37 2.14 1.77 2.47 2.87a18.57 18.57 0 0 1 .66 4.75 2.96 2.96 0 0 1-2.63 2.77l-2.38.17A4.5 4.5 0 0 1 37.5 41H37a4.5 4.5 0 0 1-4.47-4H15.47A4.5 4.5 0 0 1 11 41h-.5a4.5 4.5 0 0 1-4.47-4H3.26A2.26 2.26 0 0 1 1 34.74v-.35c0-1.4.04-2.07.3-2.85a4.7 4.7 0 0 1 1.42-1.94 8.19 8.19 0 0 1 2.76-1.54c1.43-.48 3.88-.95 7.31-1.4a66.57 66.57 0 0 1 3.62-3.28c1-.82 1.8-1.38 2.4-1.64.67-.28 1.66-.46 2.77-.57 1.13-.12 2.43-.16 3.74-.17Z"/></svg>