<svg width="24" height="24" fill="none" xmlns="http://www.w3.org/2000/svg"><path fill="currentColor" d="M20.75 6.6c3.21 2.36 4.04 6.82 2.46 10.4l-.92-.4c1.42-3.22.65-7.16-2.14-9.2l.6-.8ZM.74 16.99C-.73 13.42-.02 9.07 3.2 6.6l.6.8C1.02 9.53.33 13.38 1.66 16.6l-.92.38ZM8.26 8h7.48L19 12.19v4.56c0 .69-.56 1.25-1.25 1.25H16c-.6 0-1.1-.43-1.23-1H9.22c-.11.57-.62 1-1.22 1H6.25C5.55 18 5 17.44 5 16.75v-4.56L8.26 8Zm.48 1L6 12.53V13h2.5v1H6v2.75c0 .14.11.25.25.25H8c.14 0 .25-.11.25-.25V16h7.5v.75c0 .14.11.25.25.25h1.75c.14 0 .25-.11.25-.25V14h-2.5v-1H18v-.47L15.26 9H8.74ZM2.8 12.12a4.77 4.77 0 0 1 1.93-2.54l.53.84a3.77 3.77 0 0 0-1.51 2c-.27.83-.23 1.67.17 2.31l-.84.53a3.73 3.73 0 0 1-.28-3.14Zm18.4 0a3.73 3.73 0 0 1-.28 3.14l-.84-.53c.4-.64.44-1.48.17-2.3a3.77 3.77 0 0 0-1.52-2l.53-.85c.92.56 1.6 1.52 1.94 2.54Z"/></svg>