<svg width="24" height="24" fill="none" xmlns="http://www.w3.org/2000/svg"><path fill="currentColor" d="M12.5 3.75c-2.02 0-4.46.63-6.05 2.34l1.1 1.02c1.2-1.3 3.17-1.86 4.95-1.86 1.76 0 3.65.56 4.97 1.88l1.06-1.06a8.52 8.52 0 0 0-6.03-2.32Zm3.25 5.14a4.51 4.51 0 0 0-3.3-1.29c-1.2 0-2.47.4-3.3 1.29l1.1 1.02c.47-.5 1.3-.81 2.2-.81.9 0 1.73.3 2.2.81l1.1-1.02ZM8.3 13h8.4l4.3 4.3v.7h-4v1h4v3.5c0 .83-.67 1.5-1.5 1.5h-2a1.5 1.5 0 0 1-1.41-1H8.9c-.2.58-.76 1-1.41 1h-2A1.5 1.5 0 0 1 4 22.5V19h4v-1H4v-.7L8.3 13Z"/></svg>