<svg width="48" height="48" fill="none" xmlns="http://www.w3.org/2000/svg"><path fill="currentColor" d="M17.46 27.05a79.8 79.8 0 0 1 13.08 0l.24.02.14.2a54.68 54.68 0 0 1 2.99 4.93L36 34.3v8.2c0 .83-.67 1.5-1.5 1.5h-2a1.5 1.5 0 0 1-1.5-1.5V42l-14-.04v.54c0 .83-.67 1.5-1.5 1.5h-2a1.5 1.5 0 0 1-1.5-1.5v-8.2l2.1-2.1a54.68 54.68 0 0 1 2.98-4.93l.14-.2.24-.02ZM14.7 33 13 34.7v.3h4v1h-4v6.5c0 .28.22.5.5.5h2a.5.5 0 0 0 .5-.5v-1.55L32 41v1.5c0 .28.22.5.5.5h2a.5.5 0 0 0 .5-.5V36h-4v-1h4v-.3L33.3 33H14.7Zm17.94-1a45.16 45.16 0 0 0-2.43-3.98 77.78 77.78 0 0 0-12.44 0L16.51 30c-.3.5-.7 1.16-1.16 2.01h17.3ZM19.3 35h9.42l1.36 1.36-.1.3c-.31 1-.6 1.78-.88 2.31-.13.27-.27.5-.41.67-.13.15-.36.36-.68.36h-8a.9.9 0 0 1-.68-.36c-.14-.17-.28-.4-.41-.67-.27-.53-.57-1.31-.89-2.32l-.09-.29L19.3 35Zm.42 1-.64.64c.28.84.52 1.47.73 1.89.12.23.21.38.28.46l.01.01h7.82l.01-.01c.07-.08.16-.23.28-.46.21-.42.45-1.05.73-1.9L28.3 36h-8.58Z"/></svg>