<svg width="24" height="24" fill="none" xmlns="http://www.w3.org/2000/svg"><path fill="currentColor" d="M4.04 3.45A11.6 11.6 0 0 1 12.5 0a12 12 0 0 1 8.45 3.45l-.7.7A11 11 0 0 0 12.5 1c-2.8 0-5.65.96-7.74 3.15l-.72-.7Zm2.6 2.8C8.15 4.63 10.51 4 12.5 4c2 0 4.23.63 5.85 2.25l-.7.7A7.27 7.27 0 0 0 12.5 5c-1.82 0-3.86.58-5.14 1.94l-.73-.68Zm5.8 1.6c1.15 0 2.35.38 3.12 1.21l-.73.68a3.28 3.28 0 0 0-2.38-.89c-.96 0-1.86.32-2.39.89l-.73-.68a4.27 4.27 0 0 1 3.12-1.21ZM8.3 13h8.42L21 17.3v5.2c0 .83-.67 1.5-1.5 1.5h-2a1.5 1.5 0 0 1-1.42-1H8.91c-.2.58-.76 1-1.41 1h-2A1.5 1.5 0 0 1 4 22.5v-5.2L8.3 13Zm.42 1L5 17.7v.3h3v1H5v3.5c0 .28.22.5.5.5h2a.5.5 0 0 0 .5-.5V22h9v.5c0 .28.22.5.5.5h2a.5.5 0 0 0 .5-.5V19h-3v-1h3v-.3L16.3 14H8.7Z"/></svg>