<svg width="24" height="24" fill="none" xmlns="http://www.w3.org/2000/svg"><path fill="currentColor" d="M12.45 7.85a4.3 4.3 0 0 1 3.12 1.21l-.74.68a3.28 3.28 0 0 0-2.38-.89c-.96 0-1.86.32-2.38.89l-.74-.68a4.27 4.27 0 0 1 3.12-1.21ZM8.29 13h8.42L21 17.3v5.2c0 .83-.67 1.5-1.5 1.5h-2a1.5 1.5 0 0 1-1.41-1H8.9c-.2.58-.76 1-1.41 1h-2A1.5 1.5 0 0 1 4 22.5v-5.2L8.3 13Zm.42 1L5 17.7v.3h3v1H5v3.5c0 .28.22.5.5.5h2a.5.5 0 0 0 .5-.5V22h9v.5c0 .28.22.5.5.5h2a.5.5 0 0 0 .5-.5V19h-3v-1h3v-.3L16.3 14H8.7Z"/></svg>