<svg width="48" height="48" fill="none" xmlns="http://www.w3.org/2000/svg"><path fill="currentColor" d="M6.14 12.65A25.23 25.23 0 0 1 24 5a25.4 25.4 0 0 1 17.85 7.65l-.7.7A24.4 24.4 0 0 0 24 6a24.23 24.23 0 0 0-17.14 7.35l-.72-.7Zm6 5C15.26 14.43 19.7 13 24 13s8.74 1.43 11.86 4.65l-.72.7C32.26 15.37 28.1 14 24 14c-4.1 0-8.26 1.37-11.14 4.35l-.72-.7Zm6.5 5.41C19.95 21.63 22 21 24 21c2 0 4.04.74 5.35 2.05l-.7.7A6.71 6.71 0 0 0 24 22c-1.81 0-3.56.57-4.63 1.74l-.74-.68Zm-1.18 3.99a79.8 79.8 0 0 1 13.08 0l.24.02.14.2a54.73 54.73 0 0 1 2.99 4.93L36 34.3v8.2c0 .83-.67 1.5-1.5 1.5h-2a1.5 1.5 0 0 1-1.5-1.5V42l-14-.04v.54c0 .83-.67 1.5-1.5 1.5h-2a1.5 1.5 0 0 1-1.5-1.5v-8.2l2.1-2.1a54.65 54.65 0 0 1 2.98-4.93l.14-.2.24-.02ZM14.7 33 13 34.7v.3h4v1h-4v6.5c0 .28.22.5.5.5h2a.5.5 0 0 0 .5-.5v-1.55L32 41v1.5c0 .28.22.5.5.5h2a.5.5 0 0 0 .5-.5V36h-4v-1h4v-.3L33.3 33H14.7Zm17.94-1a44.98 44.98 0 0 0-2.43-3.98 77.83 77.83 0 0 0-12.44 0L16.51 30c-.3.5-.7 1.16-1.16 2.01h17.3ZM19.3 35h9.42l1.36 1.36-.1.3c-.31 1-.6 1.78-.88 2.31-.13.27-.27.5-.41.67-.13.15-.36.36-.68.36h-8a.9.9 0 0 1-.68-.36c-.14-.17-.28-.4-.41-.67a17.1 17.1 0 0 1-.89-2.32l-.09-.29L19.3 35Zm.42 1-.64.64c.28.84.52 1.47.73 1.89a2.34 2.34 0 0 0 .3.47h7.8l.02-.01c.07-.08.16-.23.28-.46.21-.42.45-1.05.73-1.9L28.3 36h-8.58Z"/></svg>