<svg width="48" height="48" fill="none" xmlns="http://www.w3.org/2000/svg"><path fill="currentColor" d="M35.5 2.47 46.35 22h-21.7L35.5 2.47ZM13 3h15v4h-5v2.14c1.23.17 2.45.46 3.67.89l-.33.94a17.52 17.52 0 1 0-11.67 33.06 17.52 17.52 0 0 0 22.36-10.7c.97-2.72 1.26-5.73.78-8.65l.98-.16a18.52 18.52 0 1 1-35.77-3.18c.68-1.9 1.62-3.62 2.78-5.13L2.9 13.3l3.5-3.5 2.92 2.91A18.6 18.6 0 0 1 18 9.14V7h-5V3Zm6 6.03c1-.08 2-.08 3 0V7h-3v2.03ZM8.54 13.34 6.4 11.21 4.3 13.3l2.13 2.12c.65-.75 1.35-1.45 2.1-2.08ZM14 4v2h13V4H14Zm12.35 17h18.3L35.5 4.53 26.35 21ZM35 15V9h1v6h-1Zm0 4v-2h1v2h-1Zm-18 8.5a3.5 3.5 0 1 1 6.93.7l8.04 2.93-.34.94-8.04-2.93A3.5 3.5 0 0 1 17 27.5Zm3.5-2.5a2.5 2.5 0 1 0 0 5 2.5 2.5 0 0 0 0-5Z"/></svg>