<svg width="48" height="48" fill="none" xmlns="http://www.w3.org/2000/svg"><path fill="currentColor" d="M16 1h15v4h-5v2.17a18.4 18.4 0 0 1 8.77 3.66l2.93-2.94 3.5 3.51-2.94 2.95a18.5 18.5 0 1 1-29.44-.11L5.9 11.3l3.5-3.5 2.95 2.94A18.4 18.4 0 0 1 21 7.17V5h-5V1Zm6 4v2.06a18.75 18.75 0 0 1 3 0V5h-3ZM9.81 14.6a17.5 17.5 0 1 0 27.37 0l-2.77-2.79a17.52 17.52 0 0 0-21.81 0L9.8 14.6Zm1.75-3.23L9.4 9.2l-2.1 2.1 2.16 2.15c.64-.75 1.35-1.44 2.1-2.08Zm26.07 2.2 2.16-2.17-2.09-2.1-2.15 2.16c.75.64 1.44 1.35 2.08 2.1ZM17 2v2h13V2H17Zm3 23.5a3.5 3.5 0 1 1 6.93.7l8.04 2.93-.34.94-8.04-2.93A3.5 3.5 0 0 1 20 25.5Zm3.5-2.5a2.5 2.5 0 1 0 0 5 2.5 2.5 0 0 0 0-5Z"/></svg>