<svg width="16" height="16" fill="none" xmlns="http://www.w3.org/2000/svg"><path fill="currentColor" d="M0 4.9a5.82 5.82 0 0 0 1.75.3c.26 0 .5-.03.69-.08.2-.06.35-.14.46-.25.11-.1.17-.22.17-.36a.53.53 0 0 0-.17-.38 1.1 1.1 0 0 0-.48-.26c-.2-.06-.44-.1-.71-.1h-.62v-.76h.62c.24 0 .44-.02.61-.07a.9.9 0 0 0 .39-.21.5.5 0 0 0 .13-.33.4.4 0 0 0-.14-.3.94.94 0 0 0-.4-.2 2 2 0 0 0-.57-.08 4.07 4.07 0 0 0-1.6.33v-.8a4.29 4.29 0 0 1 2.82-.2c.32.12.58.27.75.47a1 1 0 0 1 .27.68c0 .24-.08.45-.24.63a1.6 1.6 0 0 1-.68.44c.38.1.67.26.87.46.2.2.3.43.3.7 0 .3-.1.55-.3.77-.2.23-.47.4-.83.52S2.3 6 1.8 6a6 6 0 0 1-.97-.07A4.41 4.41 0 0 1 0 5.7v-.8Zm9.76-2.84a5.09 5.09 0 0 0-1.46-.24c-.34 0-.63.04-.87.13-.25.1-.44.23-.59.4-.15.18-.25.4-.3.67a2.96 2.96 0 0 1 1.33-.32c.46 0 .86.06 1.2.19.34.13.6.31.78.56.17.24.26.53.26.86 0 .33-.1.62-.3.88-.19.26-.46.46-.82.6-.35.14-.77.21-1.24.21-.51 0-.95-.09-1.3-.26a1.8 1.8 0 0 1-.82-.78 2.64 2.64 0 0 1-.27-1.26c0-.59.1-1.08.33-1.49.22-.4.54-.7.98-.9a4.5 4.5 0 0 1 3.1-.05v.8Zm-3.3 1.71c0 .31.05.58.16.8.1.21.25.38.45.5.2.1.44.16.71.16.24 0 .45-.04.62-.11a.94.94 0 0 0 .42-.33.82.82 0 0 0 .07-.82.7.7 0 0 0-.24-.26 1.1 1.1 0 0 0-.37-.16 3.6 3.6 0 0 0-1.2.01c-.22.05-.43.12-.62.21ZM13.53 6c-.53 0-.98-.1-1.34-.29a1.9 1.9 0 0 1-.83-.84 2.96 2.96 0 0 1-.28-1.34c0-.53.1-.98.3-1.36.19-.39.47-.68.84-.87.37-.2.82-.3 1.34-.3.53 0 .97.1 1.34.28.36.2.63.47.82.85.19.37.28.81.28 1.34a3 3 0 0 1-.29 1.36c-.2.38-.47.67-.84.87-.37.2-.82.3-1.34.3Zm.01-.8c.3 0 .56-.07.76-.2a1 1 0 0 0 .44-.56c.1-.25.15-.56.15-.94 0-.38-.05-.7-.14-.94A1.1 1.1 0 0 0 14.3 2a1.4 1.4 0 0 0-.76-.19c-.3 0-.55.07-.75.19-.2.12-.35.3-.45.56-.1.25-.14.56-.14.94 0 .38.04.7.14.94.1.25.25.44.45.57.2.12.45.18.75.18Zm-7.16 6.69L4 8.8l.8-.6 3.3 4.3-4.5 3.3L3 15l2.96-2.16a9.77 9.77 0 0 1-3.77-1.39C.9 10.6 0 9.4 0 8h1c0 .94.6 1.87 1.74 2.62.94.61 2.2 1.07 3.64 1.27Zm7.53-1.77A2.88 2.88 0 0 0 15 8h1c0 1.1-.55 2.09-1.42 2.87a8.33 8.33 0 0 1-3.45 1.74l-.26-.97a7.34 7.34 0 0 0 3.04-1.52Z"/></svg>