<svg width="24" height="24" fill="none" xmlns="http://www.w3.org/2000/svg"><path fill="currentColor" d="M5 10.98c-.87 0-1.5-.13-2-.32v-.7a6.7 6.7 0 0 0 2.02.32c.94 0 1.7-.32 1.7-.98 0-.64-.62-1.08-1.78-1.08h-.7v-.66h.7c.92 0 1.5-.3 1.5-.98 0-.61-.67-.9-1.44-.9-.6 0-1.31.1-1.89.34v-.68A5 5 0 0 1 5 5c1.4 0 2.28.56 2.28 1.54 0 .6-.35 1.06-.94 1.32.76.25 1.22.8 1.22 1.48 0 .97-.98 1.64-2.56 1.64Zm6.78 0c-1.72 0-2.67-.92-2.67-2.72 0-2.1 1.12-3.26 3.27-3.26.7 0 1.15.08 1.52.2v.7a5.5 5.5 0 0 0-1.5-.2c-1.48 0-2.31.63-2.43 2.05.47-.37 1.13-.6 1.9-.6 1.55 0 2.42.75 2.42 1.92 0 .99-.79 1.91-2.5 1.91Zm0-3.15c-.72 0-1.33.2-1.84.54.05 1.55.84 1.97 1.84 1.97 1.04 0 1.67-.44 1.67-1.27 0-.84-.6-1.24-1.67-1.24ZM18.48 5c2.03 0 2.7 1.3 2.7 3 0 1.66-.7 2.98-2.7 2.98-2.02 0-2.68-1.3-2.68-3 0-1.65.7-2.98 2.69-2.98Zm0 .63c-1.38 0-1.85 1.05-1.85 2.36 0 1.3.47 2.36 1.86 2.36 1.39 0 1.85-1.05 1.85-2.36 0-1.3-.46-2.36-1.85-2.36Zm-15.8 8.5c-.49.42-.68.82-.68 1.17 0 .6.53 1.3 1.81 1.94 1.05.53 2.49.96 4.18 1.23l-1.5-2.08.82-.58 2.6 3.62L6.08 22l-.56-.82 2.5-1.7a15.84 15.84 0 0 1-4.66-1.36C2.02 17.46 1 16.51 1 15.3c0-.75.4-1.4 1.02-1.93a7.82 7.82 0 0 1 2.51-1.34l.34.94c-.97.34-1.7.74-2.2 1.16Zm18.65 0a6.73 6.73 0 0 0-2.1-1.16l.34-.94A7.7 7.7 0 0 1 22 13.38c.6.52 1.01 1.17 1.01 1.92 0 .7-.35 1.33-.9 1.84-.53.52-1.28.96-2.17 1.32A19.9 19.9 0 0 1 13 19.7l-.02-1c2.6-.05 4.92-.5 6.56-1.16a6 6 0 0 0 1.87-1.12c.4-.4.58-.77.58-1.12 0-.35-.2-.75-.67-1.18Z"/></svg>