<svg width="48" height="48" fill="none" xmlns="http://www.w3.org/2000/svg"><path fill="currentColor" d="M13.33 19.8c-1.1 0-1.91-.17-2.54-.4v-.89c.67.2 1.5.4 2.56.4 1.2 0 2.16-.41 2.16-1.24 0-.83-.78-1.38-2.25-1.38h-.88v-.84h.88c1.17 0 1.9-.38 1.9-1.25 0-.77-.85-1.13-1.83-1.13a6.9 6.9 0 0 0-2.4.42v-.86a6.36 6.36 0 0 1 2.4-.43c1.77 0 2.9.71 2.9 1.96 0 .75-.45 1.34-1.2 1.68.97.31 1.55 1.01 1.55 1.87 0 1.24-1.24 2.09-3.25 2.09Zm8.62 0c-2.19 0-3.4-1.17-3.4-3.46 0-2.68 1.43-4.14 4.15-4.14.9 0 1.46.1 1.94.24v.9a6.99 6.99 0 0 0-1.9-.25c-1.9 0-2.95.8-3.1 2.6a3.9 3.9 0 0 1 2.42-.76c1.97 0 3.07.96 3.07 2.44 0 1.25-1 2.43-3.18 2.43Zm0-4c-.93 0-1.7.25-2.34.68.06 1.97 1.06 2.5 2.34 2.5 1.3 0 2.11-.56 2.11-1.6 0-1.08-.75-1.58-2.11-1.58Zm8 4c-2.57 0-3.41-1.66-3.41-3.81 0-2.1.9-3.79 3.41-3.79 2.57 0 3.42 1.66 3.42 3.81 0 2.1-.9 3.79-3.42 3.79Zm0-.8c1.77 0 2.36-1.33 2.36-3 0-1.66-.59-3-2.36-3s-2.35 1.33-2.35 3c0 1.66.58 3 2.35 3Zm6.7-3.22a1.82 1.82 0 0 1-1.84-1.8c0-.97.81-1.78 1.84-1.78 1.02 0 1.84.81 1.84 1.79 0 .97-.82 1.79-1.84 1.79Zm0-.74c.57 0 1.06-.48 1.06-1.05 0-.57-.5-1.06-1.06-1.06-.57 0-1.06.49-1.06 1.06 0 .57.49 1.05 1.06 1.05ZM9.3 25.4c-.75.67-1.1 1.34-1.1 2 0 1.04.93 2.17 2.88 3.15 1.76.9 4.21 1.6 7.08 1.97l-2.67-3.73.82-.58 3.8 5.32-5.43 3.68-.56-.82 4.18-2.84a23.9 23.9 0 0 1-7.68-2.1c-2-1.02-3.42-2.4-3.42-4.05 0-1.04.56-1.97 1.45-2.75.88-.78 2.15-1.46 3.68-2.02l.34.94c-1.47.54-2.6 1.16-3.36 1.83Zm28.2.09a10.92 10.92 0 0 0-3.28-1.82l.36-.94c1.48.56 2.71 1.24 3.59 2 .87.77 1.43 1.67 1.43 2.67 0 .95-.48 1.81-1.25 2.55a10.2 10.2 0 0 1-3.16 1.91c-2.62 1.08-6.23 1.79-10.27 1.94l-.04-1c3.96-.15 7.45-.84 9.93-1.86a9.25 9.25 0 0 0 2.85-1.71c.65-.62.94-1.23.94-1.83 0-.6-.34-1.25-1.1-1.91Z"/></svg>