<svg width="24" height="24" fill="none" xmlns="http://www.w3.org/2000/svg"><path fill="currentColor" d="M18 8.85c-.05 1.25-.93 2.93-2.64 5.09-1.76 2.26-3.27 3.36-4.5 3.36-.78 0-1.41-.67-1.9-2.06l-1.03-3.8c-.39-1.39-.78-2.06-1.27-2.06-.39.14-.73.33-1.02.62L5 9.28c.64-.57 1.27-1.1 1.9-1.68a4.63 4.63 0 0 1 1.91-1.15c1.03-.1 1.61.58 1.86 2.02.24 1.58.44 2.54.54 2.93.29 1.3.63 1.96.97 1.96.3 0 .69-.43 1.22-1.24a4.9 4.9 0 0 0 .88-1.93c.1-.72-.2-1.1-.88-1.1-.34 0-.63.1-.97.2.63-2.07 1.85-3.08 3.66-2.98 1.32.04 1.96.9 1.9 2.54Z"/></svg>