<svg width="16" height="16" fill="none" xmlns="http://www.w3.org/2000/svg"><path fill="currentColor" d="M4.07.55c.1.03.25.08.36.2l2.08 2.08c.12.12.18.26.21.37a1.24 1.24 0 0 1 0 .67.84.84 0 0 1-.2.36l-.64.64.01.04c.13.33.6 1.08 2.08 2.57l.35.35c1.44 1.44 2.23 1.91 2.6 2.05a.8.8 0 0 0 .16.04l.99-.86a.9.9 0 0 1 .34-.19 1.24 1.24 0 0 1 .68 0c.1.03.24.09.36.2l2.08 2.09c.12.11.18.25.2.36a1.24 1.24 0 0 1 0 .67.84.84 0 0 1-.2.37l-3.05 2.9-.32-.18A34.97 34.97 0 0 1 .34 4.16l-.01-.02.42-.26-.43.26-.2-.33L3.04.75a.84.84 0 0 1 .37-.2 1.24 1.24 0 0 1 .67 0ZM1.38 3.94l.52.76c.5.67 1.22 1.63 2.19 2.71a34.11 34.11 0 0 0 8.24 6.81l2.45-2.33a.32.32 0 0 0 0-.07l-2-2a.31.31 0 0 0-.07 0l-1 .87a.77.77 0 0 1-.34.2 1.3 1.3 0 0 1-.78-.07c-.6-.21-1.51-.82-2.98-2.29l-.35-.34c-1.49-1.5-2.1-2.38-2.3-2.93-.11-.28-.14-.56-.03-.8a.68.68 0 0 1 .23-.28l.6-.61a.31.31 0 0 0 0-.08L3.77 1.5a.31.31 0 0 0-.07 0L1.38 3.94Zm10.1-.39A4.98 4.98 0 0 0 8 2V1c1.6 0 3.1.75 4.2 1.85A6.02 6.02 0 0 1 14 7h-1c0-1.25-.58-2.5-1.52-3.45Z"/></svg>