<svg width="24" height="24" fill="none" xmlns="http://www.w3.org/2000/svg"><path fill="currentColor" d="M13 1.5a9.7 9.7 0 0 1 9.5 9.5H24c0-5.88-5.02-11-11-11v1.5Zm0 4.61c1.25 0 2.48.59 3.4 1.52A4.91 4.91 0 0 1 17.89 11h1.5a6.4 6.4 0 0 0-1.92-4.42A6.36 6.36 0 0 0 13 4.6v1.5ZM5.85 3.15a.99.99 0 0 0-.43-.24 1.56 1.56 0 0 0-.84 0c-.14.03-.3.1-.43.24L.07 7.43l.2.34v-.01l.02.03a11.27 11.27 0 0 0 .26.4 49.79 49.79 0 0 0 4.05 5.2 50.2 50.2 0 0 0 12.65 10.35l.33.18 4.26-4.06h.01c.14-.14.2-.3.24-.43a1.56 1.56 0 0 0 0-.85.98.98 0 0 0-.24-.43l-3-3a.99.99 0 0 0-.43-.24 1.56 1.56 0 0 0-.85 0 1 1 0 0 0-.4.22l-1.5 1.3c-.05 0-.16 0-.38-.08-.59-.2-1.75-.91-3.84-3l-.5-.5C8.81 10.7 8.1 9.59 7.91 9.06a.99.99 0 0 1-.06-.2l1-1c.14-.14.2-.3.24-.44a1.56 1.56 0 0 0 0-.84.99.99 0 0 0-.24-.43l-3-3Z"/></svg>