<svg width="48" height="48" fill="none" xmlns="http://www.w3.org/2000/svg"><path fill="currentColor" d="M11.5 6.63c.47 0 .99.15 1.35.52l4 4c.37.36.52.88.52 1.35 0 .45-.14.94-.47 1.3l-2.05 3.6c0 .12.05.36.26.8.57 1.15 2.2 3.4 6.44 7.65l1 1c4.24 4.24 6.63 5.75 7.91 6.22.63.23.95.2 1.07.16a.3.3 0 0 0 .07-.03l.02-.03 2.55-2.04c.36-.35.86-.5 1.33-.5.47 0 .99.15 1.35.52l5 5c.37.36.52.88.52 1.35 0 .47-.15.98-.51 1.35l-7.26 7.78-.35-.2A88.46 88.46 0 0 1 2.54 15.6a33.88 33.88 0 0 1-.45-.8l-.02-.05-.01-.01.44-.24-.44.23-.19-.35 8.29-7.25c.36-.35.87-.5 1.34-.5ZM3.13 14.6c.07.13.16.3.28.48.3.54.78 1.33 1.42 2.32A87.54 87.54 0 0 0 34.4 45.37l6.73-7.22a.92.92 0 0 0 .23-.65.96.96 0 0 0-.22-.65l-5-5a.92.92 0 0 0-.65-.23c-.28 0-.51.1-.65.23l-.02.02-2.47 1.98a1.21 1.21 0 0 1-.56.34c-.39.11-.93.1-1.69-.18-1.5-.56-4-2.2-8.26-6.46l-1-1c-4.26-4.25-5.98-6.6-6.64-7.92-.32-.65-.42-1.12-.35-1.48a.88.88 0 0 1 .26-.49l1.98-3.47.05-.04a.92.92 0 0 0 .22-.65.96.96 0 0 0-.22-.65l-4-4a.92.92 0 0 0-.65-.22.96.96 0 0 0-.65.22v.02L3.12 14.6ZM36 22a10 10 0 0 0-10-10v-1a11 11 0 0 1 11 11h-1Z"/></svg>