<svg width="24" height="24" fill="none" xmlns="http://www.w3.org/2000/svg"><path fill="currentColor" d="M5.42 2.9c.14.04.3.11.43.25l3 3c.14.13.2.3.24.43a1.56 1.56 0 0 1 0 .84c-.03.14-.1.3-.24.43l-1 1c0 .05.02.12.06.21.2.53.9 1.64 3.04 3.79l.5.5c2.1 2.09 3.25 2.8 3.84 3 .22.08.33.08.37.08l1.5-1.3a1 1 0 0 1 .41-.22 1.56 1.56 0 0 1 .85 0c.14.03.3.1.43.24l3 3c.14.13.2.3.24.43a1.56 1.56 0 0 1 0 .84c-.03.14-.1.3-.24.43v.01l-4.27 4.06-.33-.18A50.2 50.2 0 0 1 4.6 13.4 49.79 49.79 0 0 1 .3 7.79l-.03-.03-.2-.33 4.08-4.28c.13-.14.3-.2.43-.24a1.56 1.56 0 0 1 .84 0ZM22.5 11A9.7 9.7 0 0 0 13 1.5V0c5.98 0 11 5.12 11 11h-1.5Zm-6.1-3.37A4.87 4.87 0 0 0 13 6.11v-1.5c1.72 0 3.31.8 4.47 1.97A6.4 6.4 0 0 1 19.39 11h-1.5c0-1.2-.57-2.43-1.49-3.37Z"/></svg>