<svg width="24" height="24" fill="none" xmlns="http://www.w3.org/2000/svg"><path fill="currentColor" d="M5.42 2.9c.14.04.3.11.43.25l3 3c.14.13.2.3.24.43a1.56 1.56 0 0 1 0 .84c-.03.14-.1.3-.24.43l-1 1c0 .05.02.12.06.21.2.53.9 1.64 3.04 3.79l.5.5c2.1 2.09 3.25 2.8 3.84 3 .22.08.33.08.37.08l1.5-1.3a1 1 0 0 1 .41-.22 1.56 1.56 0 0 1 .85 0c.14.03.3.1.43.24l3 3c.14.13.2.3.24.43a1.56 1.56 0 0 1 0 .85.8.8 0 0 1-.24.42v.01l-4.27 4.06-.33-.18A50.2 50.2 0 0 1 4.6 13.4 49.79 49.79 0 0 1 .3 7.79l-.02-.02v-.01L.7 7.5l-.43.26-.2-.33 4.08-4.28c.13-.14.3-.2.43-.24a1.56 1.56 0 0 1 .84 0ZM1.33 7.57a25.06 25.06 0 0 0 .85 1.25c.71.98 1.77 2.36 3.17 3.93 2.74 3.09 6.8 6.9 12.07 9.94l3.7-3.52.01-.01a.57.57 0 0 0 .02-.15.57.57 0 0 0-.02-.17l-2.96-2.96h-.02a.57.57 0 0 0-.15-.02.57.57 0 0 0-.17.02l-1.47 1.28a.88.88 0 0 1-.4.23c-.26.08-.59.06-1-.08-.81-.3-2.1-1.14-4.21-3.25l-.5-.5c-2.16-2.15-3-3.39-3.28-4.14-.14-.38-.17-.7-.05-.98a.76.76 0 0 1 .27-.33l.94-.93v-.02A.57.57 0 0 0 8.15 7a.57.57 0 0 0-.02-.17L5.17 3.87h-.02A.57.57 0 0 0 5 3.85a.57.57 0 0 0-.16.02l-3.5 3.7Zm16.85 8.32Zm-1.7-8.33A4.98 4.98 0 0 0 13 6V5c1.6 0 3.1.75 4.2 1.85A6.02 6.02 0 0 1 19 11h-1c0-1.25-.58-2.5-1.52-3.45Z"/></svg>