<svg width="48" height="48" fill="none" xmlns="http://www.w3.org/2000/svg"><path fill="currentColor" d="M26.5 4c-.82 0-1.5.68-1.5 1.5v2c0 .82.68 1.5 1.5 1.5h2c.82 0 1.5-.68 1.5-1.5v-2c0-.82-.68-1.5-1.5-1.5h-2ZM24 5.5A2.5 2.5 0 0 1 26.5 3h2A2.5 2.5 0 0 1 31 5.5v2a2.5 2.5 0 0 1-2.5 2.5h-2A2.5 2.5 0 0 1 24 7.5v-2Zm-.3 7.5a2.4 2.4 0 0 0-1.75.75l-3 3.01L16.16 26h2.96l2.39-8.14.96.28-2.43 8.28L31.77 44h3.84L24.96 26.58l2.3-9.18 4.52 5.65 4.22.84v-3.03l-2.79-.93L27.27 13H23.7ZM19 27h-4.17l3.23-10.76 3.19-3.2A3.38 3.38 0 0 1 23.7 12h4.03l6.06 7.07L37 20.14v4.97l-5.78-1.16-3.48-4.35-1.7 6.82L37.39 45h-6.16l-6.66-9.99L19.82 45h-6.1L19 33.4V27Zm1 1.15v5.46L15.28 44h3.9l4.75-9.96L20 28.15Z"/></svg>