<svg width="16" height="16" fill="none" xmlns="http://www.w3.org/2000/svg"><path fill="currentColor" d="M8.13 1.13C8.06 1.2 8 1.3 8 1.5v1c0 .09.05.22.17.33.11.12.24.17.33.17h1c.19 0 .3-.06.37-.13S10 2.7 10 2.5v-1a.51.51 0 0 0-.17-.33A.51.51 0 0 0 9.5 1h-1c-.19 0-.3.06-.37.13Zm-.7-.7A1.5 1.5 0 0 1 8.5 0h1c.41 0 .78.2 1.04.46s.46.63.46 1.04v1c0 .41-.14.8-.42 1.08A1.5 1.5 0 0 1 9.5 4h-1c-.41 0-.78-.2-1.04-.46A1.5 1.5 0 0 1 7 2.5v-1c0-.41.14-.8.42-1.08ZM7.41 5h1.46c.57 0 1.09.32 1.34.83l.6 1.17H13v1h-2.8l-.87-1.72A.5.5 0 0 0 8.88 6h-1l-2.86 9.99-.96-.28 2.7-9.44L5 6.86V10H4V6.14L7.42 5ZM10 12.68l-2.12-2.52.76-.65 2.36 2.8V16h-1v-3.32Z"/></svg>