<svg width="24" height="24" fill="none" xmlns="http://www.w3.org/2000/svg"><path fill="currentColor" d="M12.5 0c-.41 0-.8.14-1.08.42A1.5 1.5 0 0 0 11 1.5v1c0 .41.2.78.46 1.04s.63.46 1.04.46h1c.41 0 .8-.14 1.08-.42.28-.28.42-.67.42-1.08v-1c0-.41-.2-.78-.46-1.04A1.5 1.5 0 0 0 13.5 0h-1ZM7.48 14h-2.7l2.28-6.25 1.87-2.29.02-.01c.3-.3.73-.45 1.05-.45h2.74l3.56 4.57 1.7.57v2.97l-3.27-.65-2-2.4-.9 3.26L18.4 24h-3.12L8.55 13.92l1.43-4.78-.96-.28L7.48 14Z"/><path fill="currentColor" d="m10.73 19-2.42 5h-4.1l4.1-8.63L10.74 19Z"/></svg>