<svg width="24" height="24" fill="none" xmlns="http://www.w3.org/2000/svg"><path fill="currentColor" d="M4.5 2C3.67 2 3 2.67 3 3.5v9c0 .83.67 1.5 1.5 1.5h6c.83 0 1.5-.67 1.5-1.5v-9c0-.83-.67-1.5-1.5-1.5h-6ZM2 3.5A2.5 2.5 0 0 1 4.5 1h6A2.5 2.5 0 0 1 13 3.5v9a2.5 2.5 0 0 1-2.5 2.5H8v1.5A2.5 2.5 0 0 1 5.5 19H4a1.5 1.5 0 0 0 0 3h13.5c.83 0 1.5-.67 1.5-1.5v-9.54a3.5 3.5 0 0 1-3-3.46V4h1V1h1v3h3V1h1v3h1v3.5a3.5 3.5 0 0 1-3 3.46v9.54a2.5 2.5 0 0 1-2.5 2.5H4a2.5 2.5 0 0 1 0-5h1.5c.83 0 1.5-.67 1.5-1.5V15H4.5A2.5 2.5 0 0 1 2 12.5v-9ZM22 5h-5v2.5a2.5 2.5 0 0 0 5 0V5ZM10 5H5V4h5v1Z"/></svg>