<svg width="24" height="24" fill="none" xmlns="http://www.w3.org/2000/svg"><path fill="currentColor" d="M5 8.25a7.25 7.25 0 1 1 12.81 4.65l2.6 9.09-3.23-1.3-2.05 2.82-2.3-8.03a7.35 7.35 0 0 1-1.15 0l-2.3 8.02-2.06-2.81-3.23 1.3 2.6-9.08A7.22 7.22 0 0 1 5 8.25Zm2.5 5.48L5.6 20.3l2.06-.83 1.3 1.8 1.7-5.94a7.23 7.23 0 0 1-3.17-1.6Zm6.32 1.6 1.7 5.93 1.31-1.79 2.06.83-1.88-6.58a7.23 7.23 0 0 1-3.19 1.6ZM12.25 2a6.25 6.25 0 1 0 0 12.5 6.25 6.25 0 0 0 0-12.5Zm3.4 3.8-4.2 5.34L8.9 8.65l.7-.71 1.75 1.7 3.5-4.45.8.62Z"/></svg>