<svg width="16" height="16" fill="none" xmlns="http://www.w3.org/2000/svg"><path fill="currentColor" d="M8.77 1.5c-.23.09-.5.17-.77.17-.28 0-.54-.08-.76-.17-.18-.06-.36-.15-.51-.22a2.92 2.92 0 0 0-.62-.25C5.97.99 5.9 1 5.84 1a.67.67 0 0 0-.22.18 3 3 0 0 0-.35.57c-.08.15-.18.33-.28.48-.12.2-.29.42-.51.58a2.2 2.2 0 0 1-.71.31l-.54.12-.14.02c-.21.04-.38.08-.52.14-.13.05-.2.1-.23.15-.03.04-.06.12-.07.27a3.04 3.04 0 0 0 .04.7c.03.16.05.35.06.53.01.23 0 .5-.08.76s-.24.48-.39.66c-.1.13-.24.26-.35.39l-.1.1c-.16.17-.27.3-.35.43-.08.12-.1.2-.1.27 0 .06.02.15.1.27a2.82 2.82 0 0 0 .43.51c.12.12.26.26.37.4.15.18.3.4.4.67.08.27.09.54.07.77 0 .19-.03.38-.05.55l-.02.14a3 3 0 0 0-.03.54c0 .14.04.21.07.26.03.04.1.1.23.15a3.04 3.04 0 0 0 .67.16c.17.04.36.07.53.12.23.06.49.15.71.3.22.17.38.39.51.58l.28.48.07.12c.1.2.2.35.3.46.09.12.15.16.2.18a.5.5 0 0 0 .26-.02 3 3 0 0 0 .5-.2c.04 0 .08-.03.12-.05l.51-.23c.23-.08.5-.16.77-.16.28 0 .54.08.76.17.18.06.36.15.51.22l.12.06c.2.1.36.16.5.2.14.03.22.02.27 0 .05-.01.12-.06.22-.17a3 3 0 0 0 .35-.57c.08-.16.18-.33.28-.48.12-.2.29-.42.51-.58.23-.16.48-.25.71-.31l.54-.12.14-.02c.21-.04.38-.08.52-.14.13-.05.2-.1.23-.15.03-.04.06-.12.07-.27.01-.15 0-.33-.03-.54l-.01-.15a4.7 4.7 0 0 1-.06-.54c-.01-.23 0-.5.08-.76s.24-.48.39-.66a8.07 8.07 0 0 1 .46-.5c.15-.16.26-.3.34-.42.08-.12.1-.2.1-.27a.51.51 0 0 0-.1-.27 2.82 2.82 0 0 0-.43-.51 7.72 7.72 0 0 1-.37-.4c-.15-.18-.3-.4-.4-.67a2.12 2.12 0 0 1-.07-.78c0-.18.03-.37.05-.55l.02-.13a3 3 0 0 0 .03-.54.42.42 0 0 0-.07-.26.52.52 0 0 0-.23-.15 3.04 3.04 0 0 0-.67-.16 8.05 8.05 0 0 1-.53-.12 2.1 2.1 0 0 1-.71-.3 2.12 2.12 0 0 1-.51-.58l-.28-.48-.07-.12c-.1-.2-.2-.35-.3-.46-.09-.12-.15-.16-.2-.18a.5.5 0 0 0-.26.02 3 3 0 0 0-.5.2c-.04 0-.08.03-.12.05-.16.07-.34.16-.51.22ZM9.65.06c.24-.07.53-.1.83 0 .29.1.5.3.66.5.16.18.29.4.4.6l.08.14.23.4c.1.16.19.26.26.31.07.06.19.1.37.15l.45.1.16.03c.22.04.48.1.7.19.24.1.5.24.68.5.18.24.24.52.26.77a3.94 3.94 0 0 1-.06.9c-.02.16-.04.3-.04.45-.01.19 0 .32.03.4.03.1.1.2.21.35l.3.33.12.12c.15.16.33.36.46.57.14.22.25.49.25.8 0 .31-.11.58-.25.8-.13.22-.3.41-.46.58l-.13.14-.3.31c-.11.15-.18.25-.2.33-.03.08-.04.2-.03.4 0 .14.03.28.05.44l.02.18c.02.22.05.48.03.73a1.5 1.5 0 0 1-.26.79c-.19.25-.44.4-.67.49-.23.1-.48.15-.7.19l-.17.03-.45.1c-.18.04-.3.1-.37.15a1.1 1.1 0 0 0-.26.3l-.23.4-.08.15c-.1.2-.23.42-.4.6-.15.2-.37.4-.67.5-.3.1-.58.07-.83 0a3.86 3.86 0 0 1-.67-.26l-.15-.06a6.34 6.34 0 0 0-.42-.2c-.17-.06-.3-.09-.4-.09-.1 0-.23.03-.4.1-.15.05-.28.12-.44.19l-.14.06c-.2.1-.43.2-.67.26-.24.06-.53.1-.83 0-.29-.1-.5-.3-.66-.5a4.1 4.1 0 0 1-.4-.6l-.08-.14a6.7 6.7 0 0 0-.23-.4c-.1-.16-.19-.26-.26-.31-.07-.06-.19-.1-.37-.15a6.62 6.62 0 0 0-.61-.13c-.22-.04-.48-.1-.7-.2-.24-.08-.5-.23-.68-.48a1.48 1.48 0 0 1-.26-.79 3.93 3.93 0 0 1 .06-.88c.02-.17.04-.32.04-.46.01-.19 0-.32-.03-.4a1.1 1.1 0 0 0-.21-.35l-.3-.33-.12-.12a3.75 3.75 0 0 1-.46-.57 1.5 1.5 0 0 1-.25-.8c0-.31.11-.58.25-.8.14-.22.3-.41.46-.58l.13-.14.3-.31c.11-.15.18-.25.2-.33.03-.08.04-.2.03-.4a6.82 6.82 0 0 0-.07-.62 3.98 3.98 0 0 1-.03-.73c.02-.25.08-.54.26-.79.19-.25.44-.4.67-.49a3.94 3.94 0 0 1 .87-.22l.45-.1c.18-.04.3-.1.37-.15.08-.05.16-.15.26-.3l.23-.4.08-.15c.1-.2.23-.42.4-.6.15-.2.37-.4.67-.5.3-.1.58-.07.83 0a3.86 3.86 0 0 1 .82.32l.42.2c.17.06.3.09.4.09.1 0 .23-.03.4-.1a6.48 6.48 0 0 0 .58-.26c.2-.09.43-.2.67-.25Zm1.38 5.75L7.27 10.6l-2.3-2.25.7-.72 1.5 1.48 3.08-3.9.78.61Z"/></svg>