<svg width="48" height="48" fill="none" xmlns="http://www.w3.org/2000/svg"><path fill="currentColor" d="M10.5 18.5a13.5 13.5 0 1 1 23.41 9.16l4.15 14.47-5.88-2.36-3.73 5.12-3.7-12.91a13.74 13.74 0 0 1-1.5 0l-3.7 12.9-3.74-5.1-5.87 2.35 4.15-14.47a13.45 13.45 0 0 1-3.59-9.16Zm4.4 9.97-3.44 11.97 4.7-1.89 3 4.1 3.08-10.76a13.45 13.45 0 0 1-7.34-3.42Zm10.86 3.42 3.09 10.76 2.98-4.1 4.7 1.9-3.43-11.98-.27.25a13.45 13.45 0 0 1-7.07 3.17ZM24 6a12.5 12.5 0 1 0 0 25 12.5 12.5 0 0 0 0-25Zm6.8 7.8-8.45 10.75-4.7-4.6.7-.7 3.9 3.8 7.76-9.86.78.62Z"/></svg>