<svg width="48" height="48" fill="none" xmlns="http://www.w3.org/2000/svg"><path fill="currentColor" d="M23.9 2h.1c12.08 0 21.9 9.82 22 21.9 0 12.18-9.82 22-21.9 22.1h-.17A22.1 22.1 0 0 1 2 24.1C2 11.92 11.82 2.1 23.9 2Zm.13 43c.98 0 1.96-.52 2.91-1.54a14.33 14.33 0 0 0 2.6-4.48c.48-1.2.89-2.53 1.24-3.98H17.2c.35 1.47.77 2.83 1.24 4.03.76 1.9 1.64 3.42 2.6 4.44.94 1 1.92 1.51 2.9 1.53h.08Zm2.99-.23A21.11 21.11 0 0 0 41.85 35H31.81a31.5 31.5 0 0 1-1.33 4.35 15.3 15.3 0 0 1-2.8 4.79 9.6 9.6 0 0 1-.66.63Zm5-10.77h10.41a20.98 20.98 0 0 0 2.54-9H33c-.06 3.23-.4 6.28-.97 9ZM33 24h12v-.1c-.03-3.18-.76-6.2-2.05-8.9H32.24c.49 2.72.76 5.74.76 8.9v.1Zm-1.78-9H16.78a50.2 50.2 0 0 0-.78 9h16v-.1c0-3.18-.28-6.2-.78-8.9Zm.83-1h10.39A21.06 21.06 0 0 0 27.02 3.22c.22.19.44.4.66.62a15.12 15.12 0 0 1 2.8 4.75A32.45 32.45 0 0 1 32.05 14ZM24 3c-1 0-1.99.5-2.95 1.53a14.16 14.16 0 0 0-2.6 4.44A31.26 31.26 0 0 0 16.98 14h14.05a32.2 32.2 0 0 0-1.48-5.04 14.15 14.15 0 0 0-2.6-4.43C25.99 3.5 24.99 3 24 3Zm-3.03.23A21.12 21.12 0 0 0 5.57 14h10.39c.4-2 .94-3.81 1.56-5.4a15.14 15.14 0 0 1 2.8-4.76c.21-.22.43-.42.65-.61ZM15.77 15H5.06A21.02 21.02 0 0 0 3 24h12c0-3.2.27-6.25.77-9ZM15 25H3.03c.16 3.24 1.06 6.3 2.54 9h10.39c-.56-2.72-.9-5.77-.95-9Zm1.97 9H31c.57-2.7.92-5.75.99-9H16c.06 3.25.4 6.3.97 9Zm-.8 1H6.15a21.1 21.1 0 0 0 14.82 9.77c-.22-.19-.44-.4-.65-.61a15.14 15.14 0 0 1-2.8-4.76 31.2 31.2 0 0 1-1.34-4.4Z"/></svg>