<svg width="16" height="16" fill="none" xmlns="http://www.w3.org/2000/svg"><path fill="currentColor" d="M1.29 6a7 7 0 0 0 0 4h2.92a16.64 16.64 0 0 1 0-4H1.29Zm.38-1h2.7c.17-.94.44-1.79.76-2.51.19-.4.4-.8.65-1.13A7.02 7.02 0 0 0 1.68 5ZM8 0a8 8 0 1 1 0 16A8 8 0 0 1 8 0Zm0 1c-.62 0-1.35.58-1.96 1.9A10 10 0 0 0 5.38 5h5.24a10 10 0 0 0-.66-2.1C9.36 1.58 8.62 1 8 1Zm3.63 4h2.7a7.02 7.02 0 0 0-4.1-3.64c.23.34.45.72.64 1.13.32.72.59 1.57.76 2.51Zm-.85 1H5.22a15.57 15.57 0 0 0 0 4h5.56a15.58 15.58 0 0 0 0-4Zm1.01 4h2.92a7 7 0 0 0 0-4h-2.92a16.64 16.64 0 0 1 0 4Zm-1.17 1H5.38c.17.8.4 1.5.66 2.1C6.64 14.42 7.38 15 8 15c.62 0 1.35-.58 1.96-1.9.27-.6.5-1.3.66-2.1Zm-.4 3.64a7.02 7.02 0 0 0 4.1-3.64h-2.69a11.2 11.2 0 0 1-.76 2.51c-.19.4-.4.8-.65 1.13Zm-4.44 0a6.63 6.63 0 0 1-.65-1.13A11.2 11.2 0 0 1 4.37 11h-2.7a7.02 7.02 0 0 0 4.1 3.64Z"/></svg>