<svg width="48" height="48" fill="none" xmlns="http://www.w3.org/2000/svg"><path fill="currentColor" d="M23.5 21.7c5-4.8 14.7-3.4 17.1 3.5.5 1.5.5 3.2.1 4.9-.3.9-.9 1.8-1.5 2.5L38 33.8c-.4.3-1 .6-1 1 .1.5.2 1 .4 1.4l.4 1.4c-1-.5-2.7-2-3.8-1.7-3.7 1.1-7.7.2-10.6-2.2-2.1-1.9-3-4.8-2.4-7.6.3-1.7 1.2-3.2 2.5-4.4Zm-6-11.8c5.3-.6 11.8 2.1 13.5 7.5h-.2c-3.2 0-6.2 1.1-8.6 3.2a9.56 9.56 0 0 0-3.1 5.4c-.2 1.4-.1 2.9.7 4.1-1.4 0-2.7-.1-4-.4-.4-.1-.8-.1-1.2.1l-3.8 1.9.8-2.5.2-.6c.2-.5.1-.5-.3-.8-1-.7-1.9-1.5-2.6-2.5a8.91 8.91 0 0 1-.5-10c2.1-3.1 5.4-5.1 9.1-5.4Zm9.9 13.6c-2 0-1.4 3.2.6 2.6 1.8-.5 1.1-2.6-.6-2.6Zm6.6 0c-1.9 0-1.4 3.2.6 2.6 1.8-.5 1.1-2.6-.6-2.6Zm-18.9-8.6c-1-.1-1.9.6-2 1.6.1.9 1 1.7 2 1.6.9 0 1.7-.8 1.6-1.6 0-.9-.7-1.6-1.6-1.6Zm8.5-.1c-1-.1-1.9.6-2 1.6.1.9 1 1.7 2 1.6.9 0 1.6-.7 1.6-1.6 0-.9-.7-1.6-1.6-1.6Z"/></svg>