<svg width="24" height="24" fill="none" xmlns="http://www.w3.org/2000/svg"><path fill="currentColor" d="M11.6 11c2.8-2.6 8.4-1.9 9.7 2 .3.9.3 1.8.1 2.5-.2.5-.5 1-.9 1.4-.2.3-.5.5-.7.7-.2.2-.5.4-.5.6 0 .3.1.6.2.8l.2.8c-.5-.3-1.5-1-2.1-.9-2 .6-4.3.2-5.9-1.2a4.4 4.4 0 0 1-.1-6.7ZM8.3 4.5c3-.3 6.6 1.2 7.6 4.2h-.1c-1.8 0-3.5.6-4.8 1.8-.9.8-1.5 1.8-1.7 2.9-.1.8-.1 1.7.2 2.5-.7 0-1.5 0-2.2-.2-.3-.1-.5-.1-.7 0l-.4.2-1.7.8.5-1.4.1-.4c.1-.2 0-.2-.2-.4-.5-.4-1-.9-1.4-1.4a4.82 4.82 0 0 1-.3-5.6 7 7 0 0 1 5.1-3Zm5.1 7.5c-1.2 0-.9 2 .3 1.6 1-.3.6-1.5-.3-1.6Zm4.3 0c-1.2 0-.9 1.9.3 1.6 1-.3.6-1.5-.3-1.6Zm-5.9-4.8c-.6-.1-1.2.4-1.2 1 .1.6.6 1 1.2 1s1-.4 1-1-.4-1-1-1Zm-4.7-.1c-.7-.1-1.2.4-1.3 1 .1.7.7 1.1 1.3 1.1.5 0 1-.6 1-1.1 0-.5-.4-1-1-1Z"/></svg>