<svg width="48" height="48" fill="none" xmlns="http://www.w3.org/2000/svg"><path fill="currentColor" d="M32.5 22.3c-.5-.1-.8-.2-.6-.9.6-1.1.6-2.3 0-3.4-1.1-1.6-4.1-1.5-7.6 0 0 0-1.1.5-.8-.4.5-1.7.5-3.1-.4-4-1.9-1.9-6.9.1-11.2 4.4-3 3.2-4.9 6.6-4.9 9.5 0 5.6 7.2 9 14.3 9 9.2 0 15.4-5.4 15.4-9.6 0-2.6-2.2-4-4.2-4.6ZM21.3 34.5c-5.6.6-10.5-2-10.9-5.7-.4-3.7 3.9-7.1 9.5-7.7 5.6-.6 10.5 2 10.9 5.7.4 3.7-3.9 7.2-9.5 7.7ZM14.9 27c1.4-2.4 4.2-3.7 6.9-3 2.8.7 4.2 3.1 3.1 5.6-1.4 2.7-4.5 4-7.3 3.1-2.7-.8-3.9-3.3-2.7-5.7Zm4.3.7c-.9-.3-2 .1-2.5.9-.1.1-.2.2-.2.3-.4.8-.1 1.7.7 2 1 .4 2.1.1 2.6-.8.1-.1.1-.1.2-.4.3-.8 0-1.7-.8-2Zm2.1-.7c-.3-.1-.7.1-.9.4-.1 0-.1.1-.1.1-.1.2 0 .6.3.7.4.1.8-.1 1-.4v-.1c.1-.3 0-.6-.3-.7Zm9.12-17.85A9.2 9.2 0 0 1 38.7 12c2.1 2.4 2.9 5.7 1.7 8.8l-.04.11c-.25.54-.9.88-1.56.69-.6-.2-1-.9-.8-1.6.4-1.1.4-2.2.2-3.3-.7-3.4-4.1-5.6-7.6-4.9-.7.1-1.3-.3-1.5-1-.1-.7.3-1.4 1-1.6l.32-.05Zm.68 4.65c1.6-.4 3.2.1 4.2 1.3 1 1.1 1.4 2.8.8 4.3-.2.6-.8.9-1.4.7-.6-.2-.9-.8-.7-1.4.2-.3.2-.7.1-1.1-.2-1.1-1.3-1.8-2.5-1.6h-.1l-.12.01a1.13 1.13 0 0 1-1.18-.91c-.1-.6.3-1.2.9-1.3Z"/></svg>