<svg width="24" height="24" fill="none" xmlns="http://www.w3.org/2000/svg"><path fill="currentColor" d="M5.1 9.3c2.5-2.5 5.3-3.6 6.4-2.5.5.7.6 1.6.2 2.3-.1.5.5.2.5.2 2-.9 3.8-.9 4.4 0 .3.6.3 1.3 0 1.9-.2.4 0 .4.3.5 1.3.3 2.3 1.4 2.3 2.8 0 2.4-3.5 5.5-8.8 5.5-4.1 0-8.2-2-8.2-5.2 0-1.7 1.1-3.7 2.9-5.5Zm10.8 5c-.2-2.2-2.9-3.6-6.2-3.3-3.3.3-5.7 2.2-5.5 4.4.2 2.2 3 3.6 6.2 3.3 3.3-.3 5.7-2.3 5.5-4.4Zm-9 .1a3.3 3.3 0 0 1 3.8-1.7c.2 0 .4.1.5.2 1.2.5 1.7 1.9 1.2 3.1-.7 1.5-2.4 2.2-4 1.7-.2-.1-.3-.1-.5-.2-1.1-.6-1.6-2-1-3.1Zm2.4.4c-.5-.2-1.1 0-1.4.5 0 .1-.1.1-.1.2-.2.4 0 .9.4 1.1.5.2 1.1 0 1.4-.5l.1-.1c.2-.5 0-1-.4-1.2Zm1.1-.5c-.2-.1-.4 0-.5.2v.1c0 .1 0 .3.2.4.2.1.4 0 .5-.2.1-.2 0-.4-.2-.5Zm5.34-10.15c1.72-.3 3.51.31 4.66 1.65 1.3 1.4 1.7 3.3 1.2 5l-.03.1c-.14.33-.5.5-.87.4-.4-.1-.6-.5-.5-.9.2-.6.2-1.3.1-1.9-.5-2-2.4-3.2-4.4-2.8-.4 0-.8-.2-.9-.6-.1-.4.1-.8.5-.9l.24-.05Zm.36 2.65c.9-.2 1.8.1 2.4.8.6.6.8 1.6.5 2.4l-.04.09c-.14.25-.49.4-.76.31-.3-.1-.5-.5-.4-.8V9c-.2-.7-.8-1.1-1.4-.9l-.1.02c-.35.03-.6-.25-.7-.52-.1-.4.2-.7.5-.8Z"/></svg>