<svg width="48" height="48" fill="none" xmlns="http://www.w3.org/2000/svg"><path fill="currentColor" d="M35.48 12.95a15.47 15.47 0 0 0-20.25-1.27 15.37 15.37 0 0 0-4.02 19.85L9 39.5l8.18-2.14a15.44 15.44 0 0 0 21.64-7.63 15.37 15.37 0 0 0-3.34-16.78ZM24.56 36.64c-2.3 0-4.55-.62-6.53-1.8l-.46-.26-4.88 1.26 1.3-4.72-.31-.48a12.78 12.78 0 0 1-.35-13 12.85 12.85 0 0 1 24.06 6.2c0 7.06-5.75 12.79-12.83 12.8Zm7.04-9.57c-.39-.2-2.28-1.13-2.64-1.25-.35-.13-.61-.2-.86.19a14 14 0 0 1-1.23 1.47c-.22.22-.45.29-.83.1a10.45 10.45 0 0 1-5.23-4.55c-.22-.4 0-.6.17-.8.17-.18.38-.44.57-.66.16-.2.3-.42.4-.65a.73.73 0 0 0-.04-.67c-.1-.2-.87-2.08-1.2-2.86-.32-.77-.62-.64-.85-.66h-.74c-.4.01-.77.19-1.03.49-.88.83-1.37 2-1.35 3.2a7.4 7.4 0 0 0 1.58 3.98c.2.26 2.72 4.15 6.58 5.81.73.3 1.47.58 2.22.81.78.24 1.62.3 2.43.15.73-.1 2.28-.92 2.6-1.83.25-.57.33-1.2.22-1.82-.13-.18-.39-.28-.77-.47v.02Z"/></svg>