<svg width="24" height="24" fill="none" xmlns="http://www.w3.org/2000/svg"><path fill="currentColor" d="M18.17 6.3A7.98 7.98 0 0 0 7.7 5.64 7.94 7.94 0 0 0 5.64 15.9L4.5 20l4.22-1.1a7.97 7.97 0 0 0 11.17-3.94 7.93 7.93 0 0 0-1.72-8.66Zm-5.64 12.22a6.6 6.6 0 0 1-3.37-.92l-.24-.14-2.52.65.67-2.43-.16-.25A6.6 6.6 0 0 1 12.53 5.3a6.62 6.62 0 1 1 0 13.21Zm3.63-4.94c-.2-.1-1.17-.58-1.36-.64-.18-.07-.31-.1-.44.1s-.52.64-.63.76c-.12.1-.24.14-.43.04a5.4 5.4 0 0 1-2.7-2.34c-.12-.2 0-.31.08-.41l.3-.35c.08-.1.15-.21.2-.33a.38.38 0 0 0-.02-.35l-.61-1.47c-.17-.4-.33-.33-.45-.34h-.38c-.2 0-.4.1-.53.25a2.21 2.21 0 0 0-.7 1.66c.07.74.35 1.46.82 2.05.1.13 1.4 2.14 3.4 3 .37.15.75.3 1.14.41.4.13.84.15 1.25.08.39-.05 1.18-.48 1.35-.94.13-.3.17-.63.11-.95-.07-.09-.2-.14-.4-.23Z"/></svg>