<svg width="48" height="48" fill="none" xmlns="http://www.w3.org/2000/svg"><path fill="currentColor" d="m14.62 23.02 6.23 3.04a1.43 1.43 0 0 1-.28 2.66l-6.72 1.68a1.43 1.43 0 0 1-1.77-1.23c-.21-1.83 0-3.65.56-5.33.28-.81 1.2-1.2 1.98-.82Zm2.5 12.82 4.63-5.15c.9-.99 2.53-.33 2.49 1L24 38.63c-.03.86-.82 1.5-1.67 1.36-1.79-.3-3.48-1-4.96-2a1.43 1.43 0 0 1-.25-2.14Zm10.98-6.85 6.6 2.14c.81.27 1.21 1.2.84 1.97a12.4 12.4 0 0 1-3.3 4.22c-.66.55-1.66.4-2.11-.34l-3.68-5.88A1.43 1.43 0 0 1 28.1 29Zm6.7-4.2-6.66 1.9a1.43 1.43 0 0 1-1.57-2.17l3.87-5.74a1.43 1.43 0 0 1 2.13-.28 12.3 12.3 0 0 1 3.15 4.34c.34.8-.08 1.7-.92 1.94ZM19.24 8.61c-1.2.33-2.34.75-3.42 1.27a1.43 1.43 0 0 0-.62 2l6.51 11.27c.73 1.27 2.66.75 2.66-.71V9.43c0-.83-.7-1.5-1.53-1.43-1.2.1-2.4.3-3.6.62Z"/></svg>