<svg width="24" height="24" fill="none" xmlns="http://www.w3.org/2000/svg"><path fill="currentColor" d="M14.7 10.3 12 8.4c-.7-.5-1.4-1.2-2.3-.7-.6.4-.9 1.3-.5 1.9 0 .1.1.1.1.2.2.2.5.5.8.6.8.6 1.6 1 2.4 1.6l-2.2 1.6c-.3.2-.5.4-.8.5-.6.5-.7 1.3-.3 1.9.8 1 1.8.3 2.6-.3l2.6-1.8c.7-.5 1.8-1.3 1.8-2 0-.6-1-1.2-1.5-1.6Zm6.1 0A9 9 0 0 0 12 3a8.96 8.96 0 0 0-5.7 15.9c3.8 3.2 9.5 2.7 12.7-1.2 1.7-2 2.4-4.8 1.8-7.4Zm-2.6 2.9a6.27 6.27 0 1 1-12.3-2.5C6.2 9.3 6.9 8 8 7.1c2.6-2.1 6.6-1.8 8.8.9 1.2 1.4 1.7 3.4 1.4 5.2Z"/></svg>