<svg width="48" height="48" fill="none" xmlns="http://www.w3.org/2000/svg"><path fill="currentColor" d="m29 20.8-4.9-3.6c-1.3-.9-2.7-2.3-4.4-1.3a2.6 2.6 0 0 0-.9 3.6c.1.1.1.2.2.3.4.5.9.9 1.5 1.2 1.5 1.1 3.1 1.9 4.6 3-1.3.9-2.8 2.1-4.1 3-.5.3-1 .7-1.4 1-1.2.9-1.4 2.5-.6 3.6 0 0 0 .1.1.1 1.5 1.9 3.4.5 4.9-.5l4.8-3.5C30 26.9 32 25.3 32 24c0-1.3-1.9-2.4-3-3.2Zm11.7-.1C39.1 12.8 32.1 7.1 24 7 14.6 7 7 14.6 7 24c0 5.1 2.3 9.9 6.1 13.1 7.2 6 18 5 24-2.2 3.3-4 4.6-9.2 3.6-14.2Zm-5.1 5.6a11.88 11.88 0 1 1-23.3-4.7 11.8 11.8 0 0 1 17.8-7.8c4.3 2.7 6.5 7.6 5.5 12.5Z"/></svg>