<svg width="48" height="48" fill="none" xmlns="http://www.w3.org/2000/svg"><path fill="currentColor" d="m41.85 6.85-34 34-.7-.7 34-34 .7.7ZM9.72 7.9a2.5 2.5 0 0 1 3.53 0l2.06 2.05 9.9 4.25 3.24 3.24-.7.7-2.83-2.82-10.6 10.61 2.8 2.81-.7.7-3.24-3.22-4.24-9.9-3.82-3.82 4.6-4.6Zm.24 8.25 3.82 8.9 10.26-10.26-8.9-3.82-5.18 5.18Zm4.35-5.78L12.55 8.6a1.5 1.5 0 0 0-2.13 0l-3.88 3.89 2.82 2.82 4.95-4.95ZM32.7 23.1l-2.82-2.82.7-.7 12.02 12-8.84 8.85a4.5 4.5 0 0 1-6.36 0l-8.86-8.86.71-.7 2.84 2.84 10.6-10.6Zm.7.7L22.8 34.42l5.3 5.3a3.5 3.5 0 0 0 4.95 0l8.13-8.13-7.77-7.78Z"/></svg>