<svg width="24" height="24" fill="none" xmlns="http://www.w3.org/2000/svg"><path fill="currentColor" d="M3 20.4c.9.3 1.9.2 2.7-.2C7 19.4 8 15.9 8 15.9l3.2 3.9c.2-.8.1-1.6-.1-2.4-.3-.5-2.1-2.6-2.1-2.6l-.8.7.6-2.3h3.4s0-1.4-.7-1.4H8.7V7.5h3.1s0-1.4-.6-1.4h-5L7 3.8s-1.3.1-1.7.9c-.4.8-2 4.9-2 4.9s.5.2 1.3-.4c.5-.4.9-1 1.1-1.7l1.5-.1v4.3H4.1c-.5 0-.8 1.4-.8 1.4h3.9c-.2 1.6-.6 2.9-1.3 4.2-.8 1.2-1.7 2.3-2.9 3.1Zm11.6-.1 2.2-1.6H20V6h-7v12.7h1.2l.4 1.6Zm-.2-12.9h4.1v9.9H17l-1.9 1.4-.4-1.4h-.4l.1-9.9Z"/></svg>