<svg width="48" height="48" viewBox="0 0 48 48" version="1.1" xmlns="http://www.w3.org/2000/svg">
    <title>
        adblue-alert-large
    </title>
    <path d="M26.5,29.5 L24.3,30.9 C23.3,31.5 22.1,31.2 21.5,30.2 L20.5,28.5 L16,31 L11.5,23.5 L16,21 L13.5,17 L35.3,3.5 C36.2,2.9 37.4,3.2 38,4.1 L46.5,17 L39.5,21.5 M11.5,28.5 C11.5,28.5 2.5,32 2.5,46.5 L7.5,46.5 C7.5,46.5 7,36 11.5,28.5 Z M45.5,37.5 L25.5,37.5 L35.5,19.5 L45.5,37.5 Z M35.5,25 L35.5,31 M35.5,33 L35.5,35 M16,21 C16,21 19.4492143,19.188967 19.499446,17.5 C19.5472032,17.5 20.8,20.5 22.5,20.5 C24.1893771,20.5 25.4837376,19.4750831 25.4998479,17.5 C25.5504881,17.5 26.7,20.5 28.5,20.5 C30.2882614,20.5 31.4843231,19.4739994 31.4998471,17.5" stroke="currentColor" stroke-width="1" fill="none" fill-rule="evenodd"/>
</svg>
