<svg xmlns="http://www.w3.org/2000/svg" width="48" height="48" viewBox="0 0 48px 48px"><g fill="none" stroke="currentColor"><g stroke-miterlimit="10"><path d="M26.5 29.5l-2.2 1.44c-1 .6-2.2.26-2.8-.74l-1-1.7L16 31l-4.5-7.5L16 21l-2.5-4L35.3 3.5c.9-.6 2.1-.3 2.7.6L46.5 17l-7 4.5M11.5 28.5s-9 3.5-9 18h5s-.5-10.5 4-18z"/><path d="M16 21s3.5-1.882 3.5-3.582c0 0 1.152 3.082 3 3.082s3-1.051 3-3.051c0 0 1.022 3.051 3 3.051s3-1 3-3"/></g><path stroke-linejoin="round" d="M35.5 25v6M35.5 33v2"/><path stroke-miterlimit="10" d="M45.5 37.5h-20l10-18z"/></g></svg>