<svg width="48" height="48" viewBox="0 0 48 48" version="1.1" xmlns="http://www.w3.org/2000/svg">
    <title>
        adblue-alert-large
    </title>
    <g stroke="currentColor" stroke-width="1" fill="none" fill-rule="evenodd">
        <path d="M26.5,29.5 L24.3,30.9 C23.3,31.5 22.1,31.2 21.5,30.2 L20.5,28.5 L16,31 L11.5,23.5 L16,21 L13.5,17 L35.3,3.5 C36.2,2.9 37.4,3.2 38,4.1 L46.5,17 L39.5,21.5"/>
        <path d="M11.5,28.5 C11.5,28.5 2.5,32 2.5,46.5 L7.5,46.5 C7.5,46.5 7,36 11.5,28.5 Z"/>
        <path d="M16,21 C16,21 19.5,19.1 19.5,17.4 C19.5,17.4 20.7,20.5 22.5,20.5 C24.3,20.5 25.5,19.4 25.5,17.4 C25.5,17.4 26.5,20.5 28.5,20.5 C30.5,20.5 31.5,19.5 31.5,17.5" stroke-linejoin="bevel"/>
        <path d="M35.5,25 L35.5,31 M35.5,33 L35.5,35" stroke-linejoin="round"/>
        <path d="M45.5 37.5L25.5 37.5 35.5 19.5z"/>
    </g>
</svg>
