<svg width="24" height="24" viewBox="0 0 24 24" version="1.1" xmlns="http://www.w3.org/2000/svg">
    <title>
        adblue-alert-small
    </title>
    <path d="M12.6,15.5 C11.7,16.1 10.5,15.9 9.9,15 L9.5,14.5 L7,16 L4.5,12.5 L7.5,10.5 L6,8.5 L16.8,1.6 C17.7,1 19,1.3 19.6,2.2 L23.3,8.5 L20.5,10.5 M4.5,15.5 C4.5,15.5 0.5,18 0.5,24 M23.2,21.5 L11.8,21.5 L17.5,9.5 L23.2,21.5 Z M17.5,14 L17.5,17 M17.5,18 L17.5,20 M14.5,10.5 C12.4333333,10.5 11.4332671,9.49666667 11.4998013,7.49 C11.4718318,10.447847 8.5,10.5 8.5,10.5 L7.5,10.5" stroke="currentColor" stroke-width="1" fill="none" fill-rule="evenodd"/>
</svg>
