<?xml version="1.0" encoding="UTF-8"?>
<svg width="24px" height="24px" viewBox="0 0 24 24" version="1.1" xmlns="http://www.w3.org/2000/svg" xmlns:xlink="http://www.w3.org/1999/xlink">
    <!-- Generator: sketchtool 48.1 (47250) - http://www.bohemiancoding.com/sketch -->
    <title>adblue-small</title>
    <desc>Created with sketchtool.</desc>
    <defs></defs>
    <g id="icons-published" stroke="none" stroke-width="1" fill="none" fill-rule="evenodd">
        <g id="briefing" transform="translate(-356.000000, -26.000000)"></g>
        <g id="adblue-small" stroke="#000000">
            <path d="M9.5,14.5 L7,16 L4.5,12.5 L7.5,10.5 L6,8.5 L16.5,1.7 C17.4,1.1 18.7,1.4 19.3,2.3 L23.3,8.5 L12.6,15.5 C11.7,16.1 10.5,15.9 9.9,15 L9.5,14.5 Z" id="Shape"></path>
            <path d="M4.5,15.5 C4.5,15.5 0.5,18 0.5,24" id="Path"></path>
            <path d="M20.3,10.5 C17.3,10.5 17.5,7.5 17.5,7.5 C17.5,10.5 14.5,10.5 14.5,10.5 C11.4,10.5 11.5,7.5 11.5,7.5 C11.5,10.5 8.5,10.5 8.5,10.5 L7.5,10.5" id="Shape"></path>
        </g>
    </g>
</svg>