<svg width="24" height="24" viewBox="0 0 24 24" version="1.1" xmlns="http://www.w3.org/2000/svg">
    <title>
        address-book-small
    </title>
    <path d="M1.5,0.5 L18.5,0.5 L18.5,23.5 L1.5,23.5 L1.5,0.5 Z M18.5,15.5 L20.5,15.5 C21.1,15.5 21.5,15.9 21.5,16.5 L21.5,22.5 C21.5,23.1 21.1,23.5 20.5,23.5 L18.5,23.5 M18,7.5 L20.5,7.5 C21.1,7.5 21.5,7.9 21.5,8.5 L21.5,14.5 C21.5,15.1 21.1,15.5 20.5,15.5 L18,15.5 M18.5,0.5 L20.5,0.5 C21.1,0.5 21.5,0.9 21.5,1.5 L21.5,6.5 C21.5,7.1 21.1,7.5 20.5,7.5 L18.5,7.5 M13.5,12.5 C14,12.5 14.5,12.9 14.5,13.5 L14.5,17.5 L5.5,17.5 L5.5,17.5 L5.5,13.5 C5.5,13 6,12.5 6.5,12.5 L13.5,12.5 Z M10.5,5.5 C11.6,5.5 12.5,6.4 12.5,7.5 L12.5,8.5 C12.5,9.6 11.6,10.5 10.5,10.5 L9.5,10.5 C8.4,10.5 7.5,9.6 7.5,8.5 L7.5,7.5 C7.5,6.4 8.4,5.5 9.5,5.5 L10.5,5.5 Z" stroke="currentColor" stroke-width="1" fill="none" fill-rule="evenodd"/>
</svg>
