<svg width="48" height="48" viewBox="0 0 48 48" version="1.1" xmlns="http://www.w3.org/2000/svg">
    <title>
        address-book-large
    </title>
    <path d="M4.5,2.5 L36.5,2.5 L36.5,45.5 L4.5,45.5 L4.5,2.5 Z M36.5,30.5 L40.5,30.5 C41.6,30.5 42.5,31.4 42.5,32.5 L42.5,43.5 C42.5,44.6 41.6,45.5 40.5,45.5 L36.5,45.5 M36.5,16.5 L40.5,16.5 C41.6,16.5 42.5,17.4 42.5,18.5 L42.5,28.5 C42.5,29.6 41.6,30.5 40.5,30.5 L36.5,30.5 M36.5,2.5 L40.5,2.5 C41.6,2.5 42.5,3.4 42.5,4.5 L42.5,14.5 C42.5,15.6 41.6,16.5 40.5,16.5 L36.5,16.5 M11.5,35.5 L11.5,26.5 C11.5,24.8 12.8,23.5 14.5,23.5 L25.5,23.5 C27.2,23.5 28.5,24.8 28.5,26.5 L28.5,35.5 C28.5,35.5 11.5,35.5 11.5,35.5 Z M18.5,11.5 L21.4,11.5 C23.1,11.5 24.5,12.9 24.5,14.6 L24.5,14.6 L24.5,17.5 C24.5,19.2 23.2,20.5 21.5,20.5 L18.5,20.5 C16.8,20.5 15.5,19.2 15.5,17.5 L15.5,14.5 C15.5,12.8 16.8,11.5 18.5,11.5 Z" stroke="currentColor" stroke-width="1" fill="none" fill-rule="evenodd"/>
</svg>
