<?xml version="1.0" encoding="UTF-8"?>
<svg width="48px" height="48px" viewBox="0 0 48 48" version="1.1" xmlns="http://www.w3.org/2000/svg" xmlns:xlink="http://www.w3.org/1999/xlink">
    <!-- Generator: sketchtool 48.1 (47250) - http://www.bohemiancoding.com/sketch -->
    <title>administrator-large</title>
    <desc>Created with sketchtool.</desc>
    <defs></defs>
    <g id="icons-published" stroke="none" stroke-width="1" fill="none" fill-rule="evenodd">
        <g id="briefing" transform="translate(-576.000000, -26.000000)"></g>
        <g id="administrator-large" stroke="#000000">
            <polygon id="Shape" points="18.5 34.5 18.5 40.5 14.5 44.5 9.5 44.5 9 43.5 12 40.5 12 39.5 8.5 36 7.5 36 4.5 39 3.5 38.5 3.5 33.5 7.5 29.5 13.5 29.5 29.5 13.5 29.5 7.5 33.5 3.5 38.5 3.5 39 4.5 36 7.5 36 8.5 39.5 12 40.5 12 43.5 9 44.5 9.5 44.5 14.5 40.5 18.5 34.5 18.5"></polygon>
        </g>
    </g>
</svg>