<?xml version="1.0" encoding="UTF-8"?>
<svg width="24px" height="24px" viewBox="0 0 24 24" version="1.1" xmlns="http://www.w3.org/2000/svg" xmlns:xlink="http://www.w3.org/1999/xlink">
    <!-- Generator: sketchtool 48.1 (47250) - http://www.bohemiancoding.com/sketch -->
    <title>administrator-small</title>
    <desc>Created with sketchtool.</desc>
    <defs/>
    <g id="icons-published" stroke="none" stroke-width="1" fill="none" fill-rule="evenodd">
        <g id="briefing" transform="translate(-644.000000, -26.000000)"/>
        <g id="administrator-small" stroke="currentColor">
            <polygon id="Shape" points="9.5 17.5 9.5 21 7 23.5 4 23.5 3.5 23 5 21.5 5.5 20.5 3.5 18.5 2.5 19 1 20.5 0.5 20 0.5 17 3 14.5 6.5 14.5 14.5 6.5 14.5 3 17 0.5 20 0.5 20.5 1 18.7 2.7 18.5 3.5 20.5 5.5 21.3 5.3 23 3.5 23.5 4 23.5 7 21 9.5 17.5 9.5"/>
        </g>
    </g>
</svg>