<svg xmlns="http://www.w3.org/2000/svg" width="48" height="48" viewBox="0 0 48 48"><g fill="none" stroke="currentColor"><g stroke-miterlimit="10"><path d="M4.5 2.5h32v43h-32zm32 28h3.985a2.018 2.018 0 0 1 2.015 2.009V43.49a2.018 2.018 0 0 1-2.015 2.009H36.5m0-28.999h3.985a2.008 2.008 0 0 1 2.015 1.99V28.5a2.017 2.017 0 0 1-2.015 2H36.5"/><path d="M36.5 2.5h3.985A2.008 2.008 0 0 1 42.5 4.49V14.5a2.017 2.017 0 0 1-2.015 2H36.5"/></g><path d="M11.5 35.5v-9a3.007 3.007 0 0 1 2.997-3h11.006a2.999 2.999 0 0 1 2.997 3v9h-17zm7-24h2.939a3.061 3.061 0 0 1 3.061 3.061V17.5a3 3 0 0 1-3 3h-3a3 3 0 0 1-3-3v-3a3 3 0 0 1 3-3z"/></g></svg>