<svg xmlns="http://www.w3.org/2000/svg" width="24" height="24" viewBox="0 0 24 24"><g fill="none" stroke="currentColor"><g stroke-miterlimit="10"><path d="M1.5.5h17v23h-17zM18.5 15.5h2a1.004 1.004 0 0 1 1 1.001V22.5a1.004 1.004 0 0 1-1 1.001h-2"/><path d="M18 7.5h2.5a1.004 1.004 0 0 1 1 1.001V14.5a1.004 1.004 0 0 1-1 1.001H18M18.5.5h2a1.003 1.003 0 0 1 1 1v5a1.003 1.003 0 0 1-1 1h-2"/></g><path d="M5.5 17.5v-4.027a.991.991 0 0 1 1.008-.973h6.984a.994.994 0 0 1 1.008.974V17.5h-9z"/><rect x="7.5" y="5.5" width="5" height="5" rx="2" ry="2"/></g></svg>