<svg width="24" height="24" viewBox="0 0 24 24" version="1.1" xmlns="http://www.w3.org/2000/svg">
    <title>
        air-filter-small
    </title>
    <path d="M17.5,7 L17.5,2.5 L9.5,2.5 C8.39543,2.5 7.5,3.39543 7.5,4.5 L7.5,19.5 C7.5,20.6046 8.39543,21.5 9.5,21.5 L17.5,21.5 L17.5,20 M23,7.64057 C22.3965,7.82649 21.8165,8.11297 21.2857,8.5 C19.2427,9.98968 16.4716,9.98968 14.4286,8.5 C13.1231,7.54806 11.5202,7.20443 10,7.46911 M23,11.6406 C22.3965,11.8265 21.8165,12.113 21.2857,12.5 C19.2427,13.9897 16.4716,13.9897 14.4286,12.5 C13.1231,11.5481 11.5202,11.2044 10,11.4691 M23,15.6406 C22.3965,15.8265 21.8165,16.113 21.2857,16.5 C19.2427,17.9897 16.4716,17.9897 14.4286,16.5 C13.1231,15.5481 11.5202,15.2044 10,15.4691 M4,9.5 L3,9.5 M2,8.5 L1,8.5 M6,9.5 L5,9.5 M4,13.5 L3,13.5 M2,12.5 L1,12.5 M6,13.5 L5,13.5 M4,17.5 L3,17.5 M2,16.5 L1,16.5 M6,17.5 L5,17.5" stroke="currentColor" stroke-width="1" fill="none" fill-rule="evenodd"/>
</svg>
