<svg width="48" height="48" viewBox="0 0 48 48" version="1.1" xmlns="http://www.w3.org/2000/svg">
    <title>
        air-filter-large
    </title>
    <path d="M34.5,16 L34.5,5.5 L18.5,5.5 C16.2909,5.5 14.5,7.29086 14.5,9.5 L14.5,39.5 C14.5,41.7091 16.2909,43.5 18.5,43.5 L34.5,43.5 L34.5,39 M46,15.7811 C44.7929,16.153 43.633,16.7259 42.5714,17.5 C38.4855,20.4794 32.9432,20.4794 28.8572,17.5 C26.2461,15.5961 23.0404,14.9089 20,15.4382 M46,23.7811 C44.7929,24.153 43.633,24.7259 42.5714,25.5 C38.4855,28.4794 32.9432,28.4794 28.8572,25.5 C26.2461,23.5961 23.0404,22.9089 20,23.4382 M46,31.7811 C44.7929,32.153 43.633,32.7259 42.5714,33.5 C38.4855,36.4794 32.9432,36.4794 28.8572,33.5 C26.2461,31.5961 23.0404,30.9089 20,31.4382 M3,17.5 L2,17.5 M5,18.5 L4,18.5 M7,19.5 L6,19.5 M9,19.5 L8,19.5 M11,19.5 L10,19.5 M13,18.5 L12,18.5 M3,25.5 L2,25.5 M5,26.5 L4,26.5 M7,27.5 L6,27.5 M9,27.5 L8,27.5 M11,27.5 L10,27.5 M13,26.5 L12,26.5 M3,33.5 L2,33.5 M5,34.5 L4,34.5 M7,35.5 L6,35.5 M9,35.5 L8,35.5 M11,35.5 L10,35.5 M13,34.5 L12,34.5" stroke="currentColor" stroke-width="1" fill="none" fill-rule="evenodd"/>
</svg>
