<svg width="24" height="24" viewBox="0 0 24 24" version="1.1" xmlns="http://www.w3.org/2000/svg">
    <title>
        anti-theft-alarm-system-alert-small
    </title>
    <path d="M5.1,20.5 L19,20.5 C19.3,20.5 19.6,20.8 19.6,21.1 L19.6,23 C19.6,23.3 19.3,23.6 19,23.6 L5.1,23.6 C4.8,23.6 4.5,23.3 4.5,23 L4.5,21.1 C4.5,20.8 4.8,20.5 5.1,20.5 Z M16.5,14.5 L17.5,20.5 L16.5,14.5 Z M6,20.5 L8.2,8.8 C8.2,8.5 8.5,8.5 8.8,8.5 L11,8.5 M11.5,0 L11.5,6 M6.9,7.2 L2.9,3.2 M0,12.5 L5,12.5 M23.2,12.5 L11.8,12.5 L17.5,1 L23.2,12.5 Z M17.5,5 L17.5,8 M17.5,9 L17.5,11" stroke="currentColor" stroke-width="1" fill="none" fill-rule="evenodd"/>
</svg>
