<?xml version="1.0" encoding="UTF-8"?>
<svg width="24px" height="24px" viewBox="0 0 24 24" version="1.1" xmlns="http://www.w3.org/2000/svg" xmlns:xlink="http://www.w3.org/1999/xlink">
    <!-- Generator: sketchtool 48.1 (47250) - http://www.bohemiancoding.com/sketch -->
    <title>anti-theft-alarm-system-alert-small</title>
    <desc>Created with sketchtool.</desc>
    <defs/>
    <g id="icons-published" stroke="none" stroke-width="1" fill="none" fill-rule="evenodd">
        <g id="briefing" transform="translate(-1508.000000, -26.000000)"/>
        <g id="anti-theft-alarm-system-alert-small" stroke="currentColor">
            <path d="M5.1,20.5 L19,20.5 C19.3,20.5 19.6,20.8 19.6,21.1 L19.6,23 C19.6,23.3 19.3,23.6 19,23.6 L5.1,23.6 C4.8,23.6 4.5,23.3 4.5,23 L4.5,21.1 C4.5,20.8 4.8,20.5 5.1,20.5 Z M16.5,14.5 L17.5,20.5 L16.5,14.5 Z" id="Shape"/>
            <path d="M6,20.5 L8.2,8.8 C8.2,8.5 8.5,8.5 8.8,8.5 L11,8.5" id="Path"/>
            <path d="M11.5,0 L11.5,6 M6.9,7.2 L2.9,3.2 M0,12.5 L5,12.5" id="Shape"/>
            <path d="M17.5,5 L17.5,8 M17.5,9 L17.5,11" id="Shape" stroke-linejoin="round"/>
            <polygon id="Shape" points="23.2 12.5 11.8 12.5 17.5 1"/>
        </g>
    </g>
</svg>