<svg xmlns="http://www.w3.org/2000/svg" width="24" height="24" viewBox="0 0 24 24"><g fill="none" stroke="currentColor"><g stroke-miterlimit="10"><path d="M5.07 20.5h13.86a.57.57 0 0 1 .57.57v1.86a.57.57 0 0 1-.57.57H5.07a.57.57 0 0 1-.57-.57v-1.86a.57.57 0 0 1 .57-.57zM16.5 14.5l1 6M6 20.5L8.24 8.82c0-.32.33-.32.64-.32H11"/></g><g stroke-miterlimit="10"><path d="M11.5 0v6M6.9 7.16L2.88 3.13M0 12.5h5"/></g><path stroke-linejoin="round" d="M17.5 5v3M17.5 9v2"/><path stroke-miterlimit="10" d="M23.2 12.5H11.8L17.46 1z"/></g></svg>