<svg width="48" height="48" viewBox="0 0 48 48" version="1.1" xmlns="http://www.w3.org/2000/svg">
    <title>
        anti-theft-alarm-system-large
    </title>
    <path d="M12.5,36.5 L36.5,36.5 C37.1,36.5 37.5,36.9 37.5,37.5 L37.5,41.5 C37.5,42.1 37.1,42.5 36.5,42.5 L12.5,42.5 C11.9,42.5 11.5,42.1 11.5,41.5 L11.5,37.5 C11.5,36.9 11.9,36.5 12.5,36.5 Z M14.6,36.5 L18.5,16.5 C18.5,16 18.8,15.5 19.3,15.5 L29.4,15.5 C29.9,15.5 30.3,15.9 30.3,16.4 L30.3,16.5 L34.3,36.5 M35,24.5 L45,24.5 M34,14 L41.1,7 M24.5,2 L24.5,12 M16,14 L9,7 M4,24.5 L14,24.5" stroke="currentColor" stroke-width="1" fill="none" fill-rule="evenodd"/>
</svg>
