<svg width="24" height="24" viewBox="0 0 24 24" version="1.1" xmlns="http://www.w3.org/2000/svg">
    <title>
        anti-theft-alarm-system-small
    </title>
    <path d="M5.1,20.5 L19,20.5 C19.3,20.5 19.6,20.7 19.6,21 L19.6,23 C19.6,23.3 19.3,23.5 19,23.5 L5.1,23.5 C4.8,23.5 4.5,23.3 4.5,23 L4.5,21 C4.5,20.7 4.8,20.5 5.1,20.5 Z M6,20.5 L8.4,8.8 C8.4,8.5 8.6,8.5 8.9,8.5 L15.1,8.5 C15.4,8.5 15.6,8.5 15.6,8.8 L18,20.5 M19,12.5 L24,12.5 M17.2,7.2 L21.2,3.1 M11.5,0 L11.5,6 M6.9,7.2 L2.9,3.1 M8.8817842e-16,12.5 L5,12.5" stroke="currentColor" stroke-width="1" fill="none" fill-rule="evenodd"/>
</svg>
