<?xml version="1.0" encoding="UTF-8"?>
<svg width="24px" height="24px" viewBox="0 0 24 24" version="1.1" xmlns="http://www.w3.org/2000/svg" xmlns:xlink="http://www.w3.org/1999/xlink">
    <!-- Generator: sketchtool 48.1 (47250) - http://www.bohemiancoding.com/sketch -->
    <title>apps-small</title>
    <desc>Created with sketchtool.</desc>
    <defs></defs>
    <g id="icons-published" stroke="none" stroke-width="1" fill="none" fill-rule="evenodd">
        <g id="briefing" transform="translate(-2084.000000, -26.000000)"></g>
        <g id="apps-small" stroke="#000000" stroke-linecap="round">
            <path d="M21.5,3 C22.7,3.5 23.5,4.7 23.5,6 L23.5,20.2 C23.5,22 22,23.5 20.2,23.5 L6.1,23.5 C4.8,23.5 3.6,22.7 3.1,21.5" id="Shape"></path>
            <path d="M3.5,0.5 L18.5,0.5 C20.2,0.5 21.5,1.8 21.5,3.5 L21.5,18.5 C21.5,20.2 20.2,21.5 18.5,21.5 L3.5,21.5 C1.8,21.5 0.5,20.2 0.5,18.5 L0.5,3.5 C0.5,1.8 1.8,0.5 3.5,0.5 Z" id="Shape"></path>
            <circle id="Oval" cx="5.6" cy="7" r="2.5"></circle>
            <circle id="Oval" cx="9.2" cy="7" r="2.5"></circle>
            <circle id="Oval" cx="12.8" cy="7" r="2.5"></circle>
            <circle id="Oval" cx="16.4" cy="7" r="2.5"></circle>
        </g>
    </g>
</svg>