<svg width="24" height="24" viewBox="0 0 24 24" version="1.1" xmlns="http://www.w3.org/2000/svg">
    <title>
        apps-small
    </title>
    <path d="M21.5,3 C22.7,3.5 23.5,4.7 23.5,6 L23.5,20.2 C23.5,22 22,23.5 20.2,23.5 L6.1,23.5 C4.8,23.5 3.6,22.7 3.1,21.5 M3.5,0.5 L18.5,0.5 C20.2,0.5 21.5,1.8 21.5,3.5 L21.5,18.5 C21.5,20.2 20.2,21.5 18.5,21.5 L3.5,21.5 C1.8,21.5 0.5,20.2 0.5,18.5 L0.5,3.5 C0.5,1.8 1.8,0.5 3.5,0.5 Z M16.4,9.5 C17.7807119,9.5 18.9,8.38071187 18.9,7 C18.9,5.61928813 17.7807119,4.5 16.4,4.5 C15.0192881,4.5 13.9,5.61928813 13.9,7 C13.9,8.38071187 15.0192881,9.5 16.4,9.5 Z M5.6,9.5 C6.98071187,9.5 8.1,8.38071187 8.1,7 C8.1,5.61928813 6.98071187,4.5 5.6,4.5 C4.21928813,4.5 3.1,5.61928813 3.1,7 C3.1,8.38071187 4.21928813,9.5 5.6,9.5 Z M9.2,9.5 C10.5807119,9.5 11.7,8.38071187 11.7,7 C11.7,5.61928813 10.5807119,4.5 9.2,4.5 C7.81928813,4.5 6.7,5.61928813 6.7,7 C6.7,8.38071187 7.81928813,9.5 9.2,9.5 Z M12.8,9.5 C14.1807119,9.5 15.3,8.38071187 15.3,7 C15.3,5.61928813 14.1807119,4.5 12.8,4.5 C11.4192881,4.5 10.3,5.61928813 10.3,7 C10.3,8.38071187 11.4192881,9.5 12.8,9.5 Z" stroke="currentColor" stroke-width="1" fill="none" fill-rule="evenodd"/>
</svg>
