<svg width="24" height="24" viewBox="0 0 24 24" version="1.1" xmlns="http://www.w3.org/2000/svg">
    <title>
        apps-small
    </title>
    <g stroke="currentColor" stroke-width="1" fill="none" fill-rule="evenodd" stroke-linecap="round">
        <path d="M21.5,3 C22.7,3.5 23.5,4.7 23.5,6 L23.5,20.2 C23.5,22 22,23.5 20.2,23.5 L6.1,23.5 C4.8,23.5 3.6,22.7 3.1,21.5"/>
        <path d="M3.5,0.5 L18.5,0.5 C20.2,0.5 21.5,1.8 21.5,3.5 L21.5,18.5 C21.5,20.2 20.2,21.5 18.5,21.5 L3.5,21.5 C1.8,21.5 0.5,20.2 0.5,18.5 L0.5,3.5 C0.5,1.8 1.8,0.5 3.5,0.5 Z"/>
        <circle cx="5.6" cy="7" r="2.5"/>
        <circle cx="9.2" cy="7" r="2.5"/>
        <circle cx="12.8" cy="7" r="2.5"/>
        <circle cx="16.4" cy="7" r="2.5"/>
    </g>
</svg>
