<?xml version="1.0" encoding="UTF-8"?>
<svg width="24px" height="24px" viewBox="0 0 24 24" version="1.1" xmlns="http://www.w3.org/2000/svg" xmlns:xlink="http://www.w3.org/1999/xlink">
    <!-- Generator: sketchtool 48.1 (47250) - http://www.bohemiancoding.com/sketch -->
    <title>blog-post-small</title>
    <desc>Created with sketchtool.</desc>
    <defs/>
    <g id="icons-published" stroke="none" stroke-width="1" fill="none" fill-rule="evenodd">
        <g id="briefing" transform="translate(-3236.000000, -154.000000)"/>
        <g id="blog-post-small" stroke="currentColor">
            <path d="M1.5,22.5 L1.5,15.6 C1.5,15 1.9,14.6 2.5,14.5 L13.6,14.5 C14.2,14.5 14.6,15 14.6,15.6 L14.6,22.5 L1.5,22.5 Z" id="Shape"/>
            <path d="M6.5,4.5 L9.5,4.5 C10.6,4.5 11.5,5.4 11.5,6.5 L11.5,9.5 C11.5,10.6 10.6,11.5 9.5,11.5 L6.5,11.5 C5.4,11.5 4.5,10.6 4.5,9.5 L4.5,6.5 C4.5,5.4 5.4,4.5 6.5,4.5 Z" id="Shape"/>
            <path d="M15.2,4.4 C15.2,4.4 18.2,7.6 15.2,10.6 M18.7,1.9 C18.7,1.9 25.1,7.4 18.7,13" id="Shape"/>
        </g>
    </g>
</svg>