<?xml version="1.0" encoding="UTF-8"?>
<svg width="48px" height="48px" viewBox="0 0 48 48" version="1.1" xmlns="http://www.w3.org/2000/svg" xmlns:xlink="http://www.w3.org/1999/xlink">
    <!-- Generator: sketchtool 48.1 (47250) - http://www.bohemiancoding.com/sketch -->
    <title>blog-post-large</title>
    <desc>Created with sketchtool.</desc>
    <defs/>
    <g id="icons-published" stroke="none" stroke-width="1" fill="none" fill-rule="evenodd">
        <g id="briefing" transform="translate(-3168.000000, -154.000000)"/>
        <g id="blog-post-large" stroke="currentColor">
            <path d="M7.5,41.5 L7.5,29.5 C7.5,27.8 8.8,26.5 10.5,26.5 L28.5,26.5 C30.2,26.5 31.5,27.8 31.5,29.5 L31.5,41.5 L7.5,41.5 Z M16.5,10.5 L22.5,10.5 C24.2,10.5 25.5,11.8 25.5,13.5 L25.5,19.5 C25.5,21.2 24.2,22.5 22.5,22.5 L16.5,22.5 C14.8,22.5 13.5,21.1 13.5,19.5 L13.5,13.6 C13.5,11.9 14.9,10.5 16.5,10.5 Z" id="Shape"/>
            <path d="M31.2,10.5 C31.2,10.5 36.3,16 31.2,21.2" id="Path"/>
            <path d="M36.5,6.6 C36.5,6.6 47.6,16.2 36.5,26" id="Path"/>
        </g>
    </g>
</svg>