<svg width="24" height="24" viewBox="0 0 24 24" version="1.1" xmlns="http://www.w3.org/2000/svg">
    <title>
        bonnet-open-small
    </title>
    <path d="M16.5,15.5206227 L7.49988801,15.5 L7.49988801,15.500056 C7.49988801,16.7426658 6.49255377,17.75 5.24994401,17.75 L5.22937732,17.75 C3.99812622,17.75 3,16.7518738 3,15.5206227 L1.5,15.5 C0.997922955,15.5 0.5,14.9569963 0.5,14.4549192 L0.5,14.273101 C0.5,13.5458283 0.478787903,13.0003738 0.600000024,12.6367374 C0.781818206,12.0912828 1.559091,11.3640101 2.6500001,11.0003738 C3.37727282,10.7579495 4.54328985,10.5155253 6.36147167,10.273101 C7.88621795,8.80578552 8.91652098,7.95730068 9.45238076,7.72764648 C10.0727429,7.46177699 11.3751533,7.37069546 12.725108,7.36401012 C14.1447037,7.3569799 15.6159115,7.44806143 16.3614717,7.72764648 C17.8160171,8.27310103 19.9978353,9.72764648 21.0887444,9.90946467 C21.475544,9.97393127 21.7632,10.0555411 22.1499996,10.1542943 C22.7579842,10.3095225 23.2566428,10.8371427 23.2999992,11.4631309 L23.5,14.0973485 C23.5415357,14.6970487 23.1129435,15.2173373 22.5133785,15.2607816 L20.999895,15.5206227 C20.999895,16.7518738 20.0017688,17.75 18.7705177,17.75 L18.7293773,17.75 C17.4981262,17.75 16.5,16.7518738 16.5,15.5206227 Z M5.085,9.22545891 L5.03118896,9.08653259 C4.72453784,8.7502338 4.54747485,8.55472293 4.5,8.5 C3.38648948,7.21648756 2.56508508,6.5 2,6.5 C1.03410608,6.5 0.85374869,6.5572738 0.468648067,7" stroke="currentColor" stroke-width="1" fill="none" fill-rule="evenodd"/>
</svg>
