<svg width="24" height="24" viewBox="0 0 24 24" version="1.1" xmlns="http://www.w3.org/2000/svg">
    <title>
        brake-pad-small
    </title>
    <path d="M3.37305781,4.41797979 C2.27667318,5.66081118 1.44465971,7.14240395 0.965002436,8.77477307 M0.72491179,9.74794329 C0.577394825,10.4832118 0.5,11.2438296 0.5,12.0225239 C0.5,13.1465337 0.661256847,14.23288 0.961897754,15.2596899 M1.29481832,16.2320241 C1.94725075,17.8899086 2.9736797,19.3596492 4.2701964,20.5373372 M19.588986,20.6631662 C20.86122,19.5448918 21.8844442,18.150091 22.5647318,16.5726906 M22.9216491,15.633514 C23.2969117,14.4978937 23.5,13.2839257 23.5,12.0225239 C23.5,11.1105867 23.393853,10.2234415 23.1932402,9.37276954 M22.9212603,8.41035742 C22.4310974,6.92756629 21.6473882,5.57837952 20.6389594,4.4316238 M12,21 C16.9705627,21 21,16.9705627 21,12 C21,7.02943725 16.9705627,3 12,3 C7.02943725,3 3,7.02943725 3,12 C3,16.9705627 7.02943725,21 12,21 Z" stroke="currentColor" stroke-width="1" fill="none" fill-rule="evenodd"/>
</svg>
