<?xml version="1.0" encoding="UTF-8"?>
<svg width="48px" height="48px" viewBox="0 0 48 48" version="1.1" xmlns="http://www.w3.org/2000/svg" xmlns:xlink="http://www.w3.org/1999/xlink">
    <!-- Generator: sketchtool 48.1 (47250) - http://www.bohemiancoding.com/sketch -->
    <title>brake-pad-large</title>
    <desc>Created with sketchtool.</desc>
    <defs></defs>
    <g id="icons-published" stroke="none" stroke-width="1" fill="none" fill-rule="evenodd">
        <g id="briefing" transform="translate(0.000000, -282.000000)"></g>
        <g id="brake-pad-large" stroke="#000000" stroke-linejoin="round">
            <path d="M24.5,7.5 C34.4,7.5 42.5,15.6 42.5,25.5 C42.5,35.4 34.4,43.5 24.5,43.5 C14.6,43.5 6.5,35.4 6.5,25.5" id="Shape"></path>
            <path d="M1.5,25.5 C1.4,12.9 11.6,2.6 24.2,2.5 L24.5,2.5 L24.5,12.5 C17.3,12.5 11.5,18.3 11.5,25.5 L1.5,25.5 Z M31.5,25.5 C31.5,21.6 28.4,18.5 24.5,18.5 C20.6,18.5 17.5,21.6 17.5,25.5 C17.5,29.4 20.6,32.5 24.5,32.5 C28.4,32.5 31.5,29.4 31.5,25.5 Z" id="Shape"></path>
            <path d="M27.5,25.5 C27.5,23.8 26.2,22.5 24.5,22.5 C22.8,22.5 21.5,23.8 21.5,25.5 C21.5,27.2 22.8,28.5 24.5,28.5 C26.2,28.5 27.5,27.2 27.5,25.5 Z" id="Shape"></path>
        </g>
    </g>
</svg>