<svg width="24" height="24" viewBox="0 0 24 24" version="1.1" xmlns="http://www.w3.org/2000/svg">
    <title>
        brake-fluid-small
    </title>
    <path d="M20.639,4.43162 C22.4199,6.4569 23.5,9.11358 23.5,12.0225 C23.5,13.4207 23.2505,14.7605 22.7936,16 M3.37306,4.41798 C1.58492,6.44496 0.5,9.10705 0.5,12.0225 C0.5,15.3979 1.95417,18.4336 4.2702,20.5373 M21,12 C21,7.02944 16.9706,3 12,3 C7.02944,3 3,7.02944 3,12 C3,16.3136 6.03465,19.9184 10.0855,20.7959 M21.4984,18.9341 C21.5627,21.3765 19.6987,23.369 17.2563,23.4976 C17.192,23.4976 17.0635,23.4976 16.9992,23.4976 C14.4925,23.4333 12.5,21.4408 12.5,18.9341 C12.5,16.4274 16.9992,10 16.9992,10 C16.9992,10 21.4984,16.4917 21.4984,18.9341 Z" stroke="currentColor" stroke-width="1" fill="none" fill-rule="evenodd"/>
</svg>
