<svg width="48" height="48" viewBox="0 0 48 48" version="1.1" xmlns="http://www.w3.org/2000/svg">
    <title>
        brake-fluid-large
    </title>
    <path d="M27,42.7511 C26.0244,42.9148 25.0221,43 24,43 C14.0589,43 6,34.9411 6,25 C6,15.0589 14.0589,7 24,7 C33.6056,7 41.4538,14.524 41.9727,24 M6.93105,9.5838 C3.24478,13.6627 1,19.0692 1,25 C1,31.5721 3.75652,37.5005 8.17647,41.6919 M30.7101,23 C29.8496,20.1085 27.171,18 24,18 C20.134,18 17,21.134 17,25 C17,28.866 20.134,32 24,32 C24.695,32 25.3663,31.8987 26,31.7101 M41.069,9.5838 C44.7552,13.6627 47,19.0692 47,25 C47,27.4408 46.6198,29.7928 45.9154,32 M27,25 C27,23.343 25.657,22 24,22 C22.343,22 21,23.343 21,25 C21,26.657 22.343,28 24,28 C25.657,28 27,26.657 27,25 Z M44.4746,36.8755 C44.596,41.489 41.0752,45.2526 36.4618,45.4954 C36.3404,45.4954 36.0975,45.4954 35.9761,45.4954 C31.2413,45.374 27.4777,41.6104 27.4777,36.8755 C27.4777,32.1407 35.9761,20 35.9761,20 C35.9761,20 44.4746,32.2621 44.4746,36.8755 Z" stroke="currentColor" stroke-width="1" fill="none" fill-rule="evenodd"/>
</svg>
