<svg width="48" height="48" viewBox="0 0 48 48" version="1.1" xmlns="http://www.w3.org/2000/svg">
    <title>
        brake-pad-alert-large
    </title>
    <path d="M6.93104553,9.58379909 C3.24477833,13.6627104 1,19.0692071 1,25 C1,31.5721343 3.75651787,37.5004494 8.17647072,41.6918624 M39.0089926,42.4283704 C43.9022633,38.210564 47,31.9670396 47,25 M27.6592485,7.37219625 C26.4777023,7.12819619 25.2538221,7 24,7 C14.0588745,7 6,15.0588745 6,25 C6,34.9411255 14.0588745,43 24,43 L24,43 C33.9411255,43 42,34.9411255 42,25 M21.3064222,18.5370113 C18.7774542,19.5922254 17,22.0885351 17,25 C17,28.866 20.134,32 24,32 C27.866,32 31,28.866 31,25 C31,24.8686497 30.9963823,24.7381443 30.989241,24.6085782 M27,25 C27,23.343 25.657,22 24,22 C22.343,22 21,23.343 21,25 C21,26.657 22.343,28 24,28 C25.657,28 27,26.657 27,25 L27,25 Z M26.5,19.5 L36.53,1.5 L46.5,19.5 L26.5,19.5 Z M36.5,15 L36.5,17 M36.5,7 L36.5,13" stroke="currentColor" stroke-width="1" fill="none" fill-rule="evenodd"/>
</svg>
