<svg width="48" height="48" viewBox="0 0 48 48" version="1.1" xmlns="http://www.w3.org/2000/svg">
    <title>
        break-large
    </title>
    <path d="M10,41.5 L38,41.5 M13.5,23 C13.5,32 16.9969197,38.5 20,38.5 C21.8390602,38.5 26.1733049,38.5 28,38.5 C31.0013886,38.5 34.5,32.0082109 34.5,23 C34.5,22.25 13.5,22.25 13.5,23 Z M34.3499985,26 C35.3499985,24.5 40.5,22.4951472 40.5,26.5 C40.5,31.5065336 33.2000008,32.5 32.2000008,34.5 M28,20.5 C29.6666667,19.5803482 30.5,18.4136816 30.5,17 C30.5,14.8794777 28,14.003186 28,12 C28,10.6645426 28.1666667,9.66454264 28.5,9 M23,20.5311624 C24.6666667,19.8437208 25.5,18.5 25.5,16.5 C25.5,13.5 22.5,12.5 22.5,9.5 C22.5,7.5 23.3333333,5.66666667 25,4 M19,20.5 C20.6666667,19.9136816 21.5,18.9136816 21.5,17.5 C21.5,15.3794777 18.5,14.4956191 18.5,12.5 C18.5,11.1695873 18.8333333,10.0029206 19.5,9" stroke="currentColor" stroke-width="1" fill="none" fill-rule="evenodd"/>
</svg>
