<svg width="24" height="24" viewBox="0 0 24 24" version="1.1" xmlns="http://www.w3.org/2000/svg">
    <title>
        break-small
    </title>
    <path d="M5,21.5 L19,21.5 M17.4500008,13 C17.9500008,12.5 20.5,11.4975736 20.5,13.5 C20.5,16.0032668 16.9500008,16.5 16.4500008,17.5 M6.5,11.8500004 C6.5,16.3500004 8.12946109,19.5 9.5,19.5 C10.4195301,19.5 13.5866525,19.5 14.5,19.5 C15.8739409,19.5 17.5,16.3541058 17.5,11.8500004 C17.5,11.3500004 6.5,11.3500004 6.5,11.8500004 Z M13.5,9.5 C14.3333333,9.20684078 14.75,8.70684078 14.75,8 C14.75,6.93973884 13.5,6.34494953 13.5,5.5 C13.5,4.93670032 13.8333333,4.43670032 14.5,4 M10,9.51558121 C11,9.1718604 11.5,8.5 11.5,7.5 C11.5,6 9.5,5.5 9.5,4 C9.5,3 10.1666667,2.16176894 11.5,1.48530682" stroke="currentColor" stroke-width="1" fill="none" fill-rule="evenodd"/>
</svg>
