<svg xmlns="http://www.w3.org/2000/svg" width="48" height="48" viewBox="0 0 48 48"><g fill="none" stroke="currentColor"><g stroke-linejoin="round"><path d="M42.5 25.5c0 9.941-8.059 18-18 18s-18-8.059-18-18M24.5 7.5a18.165 18.165 0 0 1 3.63.36M1.5 25.5c-.072-12.63 10.109-22.928 22.74-23h.26v10c-7.18 0-13 5.82-13 13h-10zM21.5 19.16a7 7 0 1 0 10 6.34"/><path d="M27.5 25.5a3 3 0 1 0-6 0 3 3 0 0 0 6 0z"/></g><path stroke-linejoin="round" d="M35.5 8v6M35.5 16v2"/><path stroke-miterlimit="10" d="M45.5 20.5h-20l10.03-18z"/></g></svg>