<svg width="24" height="24" viewBox="0 0 24 24" version="1.1" xmlns="http://www.w3.org/2000/svg">
    <title>
        brush-small
    </title>
    <path d="M6.44974747,3.98528137 L8.21751442,2.21751442 C9.19382515,1.24120369 10.6929364,1.15740244 11.565873,2.0303391 L21.8397186,12.3041847 C22.7126552,13.1771213 22.628854,14.6762325 21.6525433,15.6525433 L19.8847763,17.4203102 L6.44974747,3.98528137 Z M18.1170094,17.7738636 L17.763456,18.127417 L14.9350288,22.3700577 L12.1066017,19.5416306 L13.8743687,16.35965 L13.1672619,15.6525433 L9.98528137,17.4203102 L1.5,8.93502884 L5.74264069,6.10660172 L6.09619408,5.75304833 M18.0964188,8.56088486 L15.2885822,5.75304833 L18.8241161,2.21751442 C19.6051647,1.43646584 20.8714947,1.43646584 21.6525433,2.21751442 L23.0461662,3.61113739 L23.0461662,3.61113739 L18.0964188,8.56088486 Z" stroke="currentColor" stroke-width="1" fill="none" fill-rule="evenodd"/>
</svg>
