<svg width="48" height="48" viewBox="0 0 48 48" version="1.1" xmlns="http://www.w3.org/2000/svg">
    <title>
        brush-large
    </title>
    <path d="M13.3994949,9.26345597 L16.2279221,6.43502884 C17.7900192,4.87293168 20.3599241,4.91017667 21.9679653,6.51821788 L40.8934704,25.4437229 C42.5015116,27.0517641 42.5387566,29.621669 40.9766594,31.1837662 L38.1482323,34.0121933 L13.3994949,9.26345597 Z M34.9662518,34.3657467 L34.6126984,34.7193001 L28.2487373,43.9116882 L23.2587285,38.9216794 L27.8756089,32.2248513 L27.5416306,31.890873 L19.0281776,34.6911285 L3.5,19.1629509 L12.6923882,12.7989899 L13.0459415,12.4454365 M33.9055916,18.4558441 L28.9558441,13.5060967 L36.7340187,5.72792206 C38.2961159,4.16582489 40.8287758,4.16582489 42.390873,5.72792206 L44.5121933,7.8492424 L44.5121933,7.8492424 L33.9055916,18.4558441 Z" stroke="currentColor" stroke-width="1" fill="none" fill-rule="evenodd"/>
</svg>
