<svg width="48" height="48" viewBox="0 0 48 48" version="1.1" xmlns="http://www.w3.org/2000/svg">
    <title>
        business-address-large
    </title>
    <path d="M46.5,14.5 C46.5,13.4 45.6,12.5 44.5,12.5 L1.5,12.5 L1.5,43.5 C1.5,44.6 2.4,45.5 3.5,45.5 L46.5,45.5 L46.5,14.5 Z M8,37.5 L28,37.5 M8,32.5 L36,32.5 M7.5,12.5 L7.5,6.7 C7.5,4.4 9.4,2.6 11.7,2.5 L15.5,2.5 C17.8,2.5 19.6,4.4 19.5,6.7 L19.5,21.6 C19.5,23.8 17.8,25.6 15.6,25.6 C15.6,25.6 15.6,25.6 15.6,25.6 C13.4,25.6 11.6,23.8 11.5,21.6 L11.5,7" stroke="currentColor" stroke-width="1" fill="none" fill-rule="evenodd"/>
</svg>
