<svg width="24" height="24" viewBox="0 0 24 24" version="1.1" xmlns="http://www.w3.org/2000/svg">
    <title>
        business-address-small
    </title>
    <path d="M22.5,6.5 L0.5,6.5 L0.5,20.5 C0.5,21.1 1,21.5 1.5,21.5 L23.5,21.5 L23.5,7.5 C23.5,7 23,6.5 22.5,6.5 Z M3,17.5 L17,17.5 M3.5,7 L3.5,3.8 C3.5,2.5 4.5,1.5 5.8,1.5 L8.1,1.5 C9.4,1.5 10.4,2.5 10.5,3.8 L10.5,10.5 C10.5,11.6 9.6,13.5 8.5,13.5 C7.4,13.5 6.5,11.6 6.5,10.5 L6.5,4" stroke="currentColor" stroke-width="1" fill="none" fill-rule="evenodd"/>
</svg>
