<svg width="24" height="24" viewBox="0 0 24 24" version="1.1" xmlns="http://www.w3.org/2000/svg">
    <title>
        business-customer-small
    </title>
    <path d="M11.5,9.5 L8.5,9.5 C7.4,9.5 6.5,8.6 6.5,7.5 L6.5,4.5 C6.5,3.4 7.4,2.5 8.5,2.5 L11.5,2.5 C12.6,2.5 13.5,3.4 13.5,4.5 L13.5,7.5 C13.5,8.6 12.6,9.5 11.5,9.5 Z M14,20.5 L3.5,20.5 L3.5,14 C3.5,14 3.4,12.5 4.7,12.5 L14,12.5 M21.5,21.5 L19.5,21.5 L19.5,19.5 L17.5,19.5 L17.5,21.5 L15.5,21.5 L15.5,12.5 L21.5,12.5 L21.5,21.5 Z M17.45,16.45 L17.55,16.45 L17.55,16.55 L17.45,16.55 L17.45,16.45 Z M19.45,16.45 L19.55,16.45 L19.55,16.55 L19.45,16.55 L19.45,16.45 Z M17.45,14.45 L17.55,14.45 L17.55,14.55 L17.45,14.55 L17.45,14.45 Z M19.45,14.45 L19.55,14.45 L19.55,14.55 L19.45,14.55 L19.45,14.45 Z" stroke="currentColor" stroke-width="1" fill="none" fill-rule="evenodd"/>
</svg>
