<svg width="48" height="48" viewBox="0 0 48 48" version="1.1" xmlns="http://www.w3.org/2000/svg">
    <title>
        business-customer-large
    </title>
    <path d="M23.5,20.5 L16.5,20.5 C14.9,20.5 13.5,19.1 13.5,17.5 L13.5,10.5 C13.5,8.9 14.9,7.5 16.5,7.5 L23.5,7.5 C25.1,7.5 26.5,8.9 26.5,10.5 L26.5,17.5 C26.5,19.1 25.1,20.5 23.5,20.5 Z M27,40.5 L7.5,40.5 L7.5,27.2 C7.5,27.2 7.7,24.5 11,24.5 L27,24.5 M42.5,43.5 L37.5,43.5 L37.5,38.5 L34.5,38.5 L34.5,43.5 L29.5,43.5 L29.5,24.5 L42.5,24.5 L42.5,43.5 Z M37.5,27.5 L39.5,27.5 L39.5,29.5 L37.5,29.5 L37.5,27.5 Z M32.5,27.5 L34.5,27.5 L34.5,29.5 L32.5,29.5 L32.5,27.5 Z M37.5,33.5 L39.5,33.5 L39.5,35.5 L37.5,35.5 L37.5,33.5 Z M32.5,33.5 L34.5,33.5 L34.5,35.5 L32.5,35.5 L32.5,33.5 Z" stroke="currentColor" stroke-width="1" fill="none" fill-rule="evenodd"/>
</svg>
