<svg width="24" height="24" viewBox="0 0 24 24" version="1.1" xmlns="http://www.w3.org/2000/svg">
    <title>
        calculator-small
    </title>
    <path d="M6.5,1.5 L17.5,1.5 C18.6045695,1.5 19.5,2.3954305 19.5,3.5 L19.5,20.5 C19.5,21.6045695 18.6045695,22.5 17.5,22.5 L6.5,22.5 C5.3954305,22.5 4.5,21.6045695 4.5,20.5 L4.5,3.5 C4.5,2.3954305 5.3954305,1.5 6.5,1.5 Z M4.5,9.5 L19.5,9.5 M13,17.5 L18,17.5 M13,15.5 L18,15.5 M10.5,19 L10.5,18 M6.5,18.5 L10.5,14.5 M6.5,15 L6.5,14" stroke="currentColor" stroke-width="1" fill="none" fill-rule="evenodd"/>
</svg>
