<svg width="48" height="48" viewBox="0 0 48 48" version="1.1" xmlns="http://www.w3.org/2000/svg">
    <title>
        calculator-large
    </title>
    <path d="M13.5,2.5 L34.5,2.5 C36.1568542,2.5 37.5,3.84314575 37.5,5.5 L37.5,42.5 C37.5,44.1568542 36.1568542,45.5 34.5,45.5 L13.5,45.5 C11.8431458,45.5 10.5,44.1568542 10.5,42.5 L10.5,5.5 C10.5,3.84314575 11.8431458,2.5 13.5,2.5 Z M26,26.5 L33,26.5 M26,37.5 L33,37.5 M26,34.5 L33,34.5 M18.5,30 L18.5,23 M15,26.5 L22,26.5 M21.5,40 L21.5,39 M15.5,34 L15.5,33 M15.5,39.5 L21.5,33.5 M12.5,9.5 L35.5,9.5 L35.5,17.5 L12.5,17.5 L12.5,9.5 Z" stroke="currentColor" stroke-width="1" fill="none" fill-rule="evenodd"/>
</svg>
