<svg xmlns="http://www.w3.org/2000/svg" width="48" height="48" viewBox="0 0 48 48"><path d="M12.5 38.5v5.13a1.876 1.876 0 0 0 1.87 1.87h28.227a1.904 1.904 0 0 0 1.903-1.87V13" fill="none" stroke="currentColor" stroke-miterlimit="10"/><path d="M3.5 7v29.605a1.876 1.876 0 0 0 1.87 1.87h22.232l9.898-9.947V7" fill="none" stroke="currentColor" stroke-linejoin="round"/><path fill="none" stroke="currentColor" stroke-miterlimit="10" d="M37.5 28.476h-10v10M3 2.5h35"/><path d="M13.043 11.94l-3.908.948v.828l3.61-.804v11.001H9.097v.821h8.473v-.821h-3.648V11.94h-.879zM22.341 17.214l-.374-.018.224-4.435h7.67v-.821h-8.697l-.3 6.104c5.575.122 8.4 1.209 8.4 3.23 0 1.271-.801 2.788-4.621 2.788a16.774 16.774 0 0 1-4.34-.607v.883a13.909 13.909 0 0 0 4.302.62c3.836 0 5.948-1.328 5.948-3.74 0-2.377-2.763-3.724-8.212-4.004z"/></svg>