<svg xmlns="http://www.w3.org/2000/svg" width="24" height="24" viewBox="0 0 24 24"><path d="M5.5 19.493V22.5a1.001 1.001 0 0 0 .997 1h15.006a1.001 1.001 0 0 0 .997-1V6" fill="none" stroke="currentColor" stroke-miterlimit="10"/><path d="M.5 3v15.52a.99.99 0 0 0 .993.98H13.5l5-5V3" fill="none" stroke="currentColor" stroke-linejoin="round"/><path fill="none" stroke="currentColor" stroke-miterlimit="10" d="M18.5 14.5h-5v5M0 .5h18.997"/><path d="M4.018 5.91l2.062-.496h.603v5.762h1.755v.756H4v-.756h1.756V6.287l-1.738.387v-.765zM9.66 11.688v-.792a7.967 7.967 0 0 0 2.269.351c1.449 0 2.043-.468 2.043-1.161 0-1.206-2.746-1.36-4.051-1.377l.162-3.295h4.537v.756h-3.7l-.09 1.782c1.935.1 4.123.531 4.123 2.107 0 1.134-.918 1.98-3.043 1.98a6.662 6.662 0 0 1-2.25-.35z"/></svg>