<?xml version="1.0" encoding="UTF-8" standalone="no"?>
<svg width="24px" height="24px" viewBox="0 0 24 24" version="1.1" xmlns="http://www.w3.org/2000/svg" xmlns:xlink="http://www.w3.org/1999/xlink">
    <!-- Generator: sketchtool 46.2 (44496) - http://www.bohemiancoding.com/sketch -->
    <title>camera-small</title>
    <desc>Created with sketchtool.</desc>
    <defs></defs>
    <g id="icons-published" stroke="none" stroke-width="1" fill="none" fill-rule="evenodd">
        <g id="briefing" transform="translate(-932.000000, -282.000000)"></g>
        <g id="camera-small" stroke="#000000">
            <path d="M17.5,7.5 L22.5,7.5 L22.5,18.5 C22.5,19.1 22.1,19.5 21.5,19.5 C21.5,19.5 21.5,19.5 21.5,19.5 L1.5,19.5 L1.5,8.5 C1.5,7.9 1.9,7.5 2.5,7.5 L6.5,7.5 L6.5,6.5 C6.5,5.9 6.9,5.5 7.5,5.5 C7.5,5.5 7.5,5.5 7.5,5.5 L16.5,5.5 C17.1,5.5 17.5,5.9 17.5,6.5 L17.5,7.5 Z" id="Shape"></path>
            <circle id="Oval" cx="12" cy="13" r="4.5"></circle>
        </g>
    </g>
</svg>