<svg width="48" height="48" viewBox="0 0 48 48" version="1.1" xmlns="http://www.w3.org/2000/svg">
    <title>
        camera-large
    </title>
    <path d="M35.5,13.5 L45.5,13.5 L45.5,36.5 C45.5,37.6 44.6,38.5 43.6,38.5 C43.6,38.5 43.6,38.5 43.5,38.5 L2.5,38.5 L2.5,15.5 C2.5,14.4 3.4,13.5 4.4,13.5 C4.4,13.5 4.4,13.5 4.5,13.5 L12.5,13.5 L12.5,11.5 C12.5,10.4 13.4,9.5 14.4,9.5 C14.4,9.5 14.4,9.5 14.5,9.5 L33.5,9.5 C34.6,9.5 35.5,10.4 35.5,11.4 C35.5,11.4 35.5,11.4 35.5,11.5 L35.5,13.5 Z M24,34.5 C29.2467051,34.5 33.5,30.2467051 33.5,25 C33.5,19.7532949 29.2467051,15.5 24,15.5 C18.7532949,15.5 14.5,19.7532949 14.5,25 C14.5,30.2467051 18.7532949,34.5 24,34.5 Z" stroke="currentColor" stroke-width="1" fill="none" fill-rule="evenodd"/>
</svg>
