<svg width="24" height="24" viewBox="0 0 24 24" version="1.1" xmlns="http://www.w3.org/2000/svg">
    <title>
        camera-small
    </title>
    <path d="M17.5,7.5 L22.5,7.5 L22.5,18.5 C22.5,19.1 22.1,19.5 21.5,19.5 C21.5,19.5 21.5,19.5 21.5,19.5 L1.5,19.5 L1.5,8.5 C1.5,7.9 1.9,7.5 2.5,7.5 L6.5,7.5 L6.5,6.5 C6.5,5.9 6.9,5.5 7.5,5.5 C7.5,5.5 7.5,5.5 7.5,5.5 L16.5,5.5 C17.1,5.5 17.5,5.9 17.5,6.5 L17.5,7.5 Z M12,17.5 C14.4852814,17.5 16.5,15.4852814 16.5,13 C16.5,10.5147186 14.4852814,8.5 12,8.5 C9.51471863,8.5 7.5,10.5147186 7.5,13 C7.5,15.4852814 9.51471863,17.5 12,17.5 Z" stroke="currentColor" stroke-width="1" fill="none" fill-rule="evenodd"/>
</svg>
