<?xml version="1.0" encoding="UTF-8"?>
<svg width="24px" height="24px" viewBox="0 0 24 24" version="1.1" xmlns="http://www.w3.org/2000/svg" xmlns:xlink="http://www.w3.org/1999/xlink">
    <!-- Generator: sketchtool 48.1 (47250) - http://www.bohemiancoding.com/sketch -->
    <title>car-search-small</title>
    <desc>Created with sketchtool.</desc>
    <defs></defs>
    <g id="icons-published" stroke="none" stroke-width="1" fill="none" fill-rule="evenodd">
        <g id="briefing" transform="translate(-2083.000000, -282.000000)"></g>
        <g id="car-search-small" stroke="#000000">
            <path d="M23,9.5 L20.6,9.5 M0.6,13.3 C0.5,14.1 0.5,14.9 0.5,15.7 L0.5,20.5 C0.5,21.1 1,21.5 1.6,21.5 L4.5,21.5 L4.5,19.5 L12,19.5 M17,19.5 L19.5,19.5 L19.5,21.5 L22.4,21.5 C23,21.5 23.4,21.1 23.5,20.5 L23.5,15.7 C23.5,11.9 22.8,11.5 22.8,11.5 L21.3,10.4 C20.6,9.6 20.1,8.8 19.7,7.9 C19.3,7 18.5,6.5 17.6,6.4 L15,6.4 M11,6.5 L6.4,6.5 C5.5,6.6 4.6,7.1 4.3,8 C3.9,8.8 3.5,9.5 3,10.2" id="Shape"></path>
            <path d="M16.7,22.8 L10.6,13.5 L16.7,22.8 Z M13.5,7.9 C13.6,11.4 11,14.3 7.5,14.4 C7.4,14.4 7.2,14.4 7.1,14.4 C3.5,14.4 0.6,11.5 0.5,7.8 C0.5,4.2 3.5,1.3 7.1,1.4 C10.6,1.5 13.5,4.4 13.5,7.9 Z" id="Shape"></path>
        </g>
    </g>
</svg>