<svg width="48" height="48" viewBox="0 0 48 48" version="1.1" xmlns="http://www.w3.org/2000/svg">
    <title>
        car-handover-large
    </title>
    <g stroke="currentColor" stroke-width="1" fill="none" fill-rule="evenodd">
        <path d="M30.5,29 L42.1,25.5 C42.1,25.5 47.5,24.3 47.5,27.3 C47.5,29.8 45.1,30.8 43.4,31.6 C37.4,34.3 28.4,38.6 28.4,38.6 C28.4,38.6 23.9,40.5 19,40.5 L0.5,40.5 L0.5,31.5 C5.5,31.5 4.1,30.7 8.5,28.5 C11.1,27.2 14.4,26.5 17.4,26.5 L28.1,26.5 C29.5,26.5 30.6,27.6 30.5,29 C30.6,30.4 29.5,31.5 28.1,31.5 L15,31.5"/>
        <circle cx="33.7" cy="19.7" r="2.8"/>
        <circle cx="16.2" cy="19.7" r="2.8"/>
        <path d="M31,20.5 L18.8,20.5"/>
        <path d="M13.5,20.7 C10.2,20.7 9.5,19.5 9.5,19.5 L9.5,14.4 L15.3,11.2 C15.3,11.2 17.6,9.4 23,9.4 C28.4,9.4 31.7,12.6 31.7,12.6 L38.2,14.7 C38.2,14.7 39.6,15 40.2,16.4 C40.5,17 40.5,18 40.5,19 L40.5,20.4 L36.4,20.4" stroke-linejoin="round"/>
    </g>
</svg>
