<?xml version="1.0" encoding="UTF-8" standalone="no"?>
<svg width="48px" height="48px" viewBox="0 0 48 48" version="1.1" xmlns="http://www.w3.org/2000/svg" xmlns:xlink="http://www.w3.org/1999/xlink">
    <!-- Generator: sketchtool 46.2 (44496) - http://www.bohemiancoding.com/sketch -->
    <title>car-large</title>
    <desc>Created with sketchtool.</desc>
    <defs></defs>
    <g id="icons-published" stroke="none" stroke-width="1" fill="none" fill-rule="evenodd">
        <g id="briefing" transform="translate(-1728.000000, -282.000000)"></g>
        <g id="car-large" stroke="#000000">
            <path d="M46.5,34 L35.4,31.5 M1.4,34 L12.3,31.5 M45.9,20.7 L36,23.5 L11.5,23.5 L2.1,20.7 M46.4,23.8 C45.4,24.7 44.2,25.3 42.9,25.5 C41.4,25.7 39.9,25.8 38.4,25.9 M1.5,23.8 C2.5,24.8 3.9,25.4 5.3,25.7 C8.1,26.1 8.8,26.2 9.7,25.9 M39.5,15.5 L44,15.5 M4,15.5 L8.5,15.5" id="Shape"></path>
            <path d="M13.5,23.5 C13.5,23.5 10.7,25.2 9.8,25.8 C9.3,26.1 9.1,26.7 9.4,27.3 C10,28.9 11,30.4 12.3,31.6 C13,32.4 15.8,32.5 15.8,32.5 L32,32.5 C33.1,32.4 34.1,32.1 35.2,31.8 C36.6,31.3 38.3,27.9 38.7,27 C38.9,26.5 38.8,26 38.3,25.7 L33.6,23.5 M7.3,17.5 L40.7,17.5" id="Shape"></path>
            <path d="M36.9,35.5 L39.2,36.5 C39.2,37.7 39.8,37.5 39.8,37.5 C39.8,37.5 43.6,37.5 45.4,37.5 C46.5333333,37.5 46.8666667,34.6666667 46.4,29 C46.4,28.2 46.5,27.4 46.5,26.5 C46.6,24.6 46.4,22.7 45.9,20.8 C45.6,20.3 45.2,19.9 44.8,19.5 C44.2,19.1 43.5,18.8 42.8,18.6 C41.5,18.3 41.3,18.4 40.8,17.6 C40.3,16.8 38.7,14 38.7,14 C38,13 37.2,12.2 36.3,11.4 C36,11.2 35.6,11 35.3,10.8 C34.8,10.6 34.2,10.5 33.6,10.5 L14.6,10.5 C14,10.5 13.4,10.6 12.9,10.8 C12.6,10.9 12.3,11 12,11.2 C10.9,12 10,13 9.3,14 C9.3,14 7.7,16.8 7.2,17.6 C6.7,18.4 6.5,18.3 5.2,18.6 C4.5,18.7 3.8,19 3.2,19.5 C2.7,19.9 2.3,20.3 2.1,20.8 C1.6,22.7 1.4,24.6 1.5,26.5 C1.5,27.1 1.53333333,27.9 1.6,28.9 C1.6,28.9 0.9,37.5 2.6,37.5 C4.4,37.5 8.2,37.5 8.2,37.5 C8.2,37.5 8.8,37.6 8.8,36.5 L11.1,35.5 C11.1,35.5 36.9,35.5 36.9,35.5 Z" id="Shape"></path>
        </g>
    </g>
</svg>