<svg xmlns="http://www.w3.org/2000/svg" width="48" height="48" viewBox="0 0 48 48"><g fill="none" stroke="currentColor" stroke-miterlimit="10"><path d="M46.537 36l-11.11-2.5M1.429 36l10.898-2.5M29 34.5h2.952a17.286 17.286 0 0 0 3.187-.685c1.437-.494 3.068-3.944 3.457-4.827a.985.985 0 0 0-.36-1.305L33.5 25.5M9.37 29.251a11.913 11.913 0 0 0 2.872 4.339c.688.778 3.471.91 3.471.91H23M1.54 25.797a7.575 7.575 0 0 0 3.76 1.898"/><path d="M46.419 25.762a7.386 7.386 0 0 1-3.514 1.694 73.38 73.38 0 0 1-4.49.359M45.875 22.666L36 25.5H24M39.521 17.5H44M4 17.5h4.492M1.827 23.5a23.356 23.356 0 0 0-.338 4.913c0 .933.021 1.778.058 2.542l.002-.088s-.74 8.605.997 8.633c1.829.03 5.626 0 5.626 0s.599.125.599-1.032l2.334-.968H25"/><path d="M31 37.5h5.863l2.334.968c0 1.157.599 1.032.599 1.032s3.797.03 5.626 0c1.737-.028.997-8.633.997-8.633l.001.088c.037-.764.058-1.609.058-2.541a19.314 19.314 0 0 0-.578-5.686 4.354 4.354 0 0 0-1.143-1.298 5.393 5.393 0 0 0-2.029-.857c-1.323-.3-1.459-.224-1.982-.995s-2.088-3.613-2.088-3.613a15.139 15.139 0 0 0-2.421-2.6 3.674 3.674 0 0 0-1.05-.55A4.936 4.936 0 0 0 33.5 12.5H29M28 19.5h12.693M22 12.5h-7.5a5.194 5.194 0 0 0-1.72.316 3.735 3.735 0 0 0-.89.431 14.435 14.435 0 0 0-2.58 2.717S7.745 18.73 7.221 19.5H21"/><g><path d="M32.161 44.25L19.95 24.783M25.5 14.408c0 7.343-5.33 12.092-11.904 12.092A12.229 12.229 0 0 1 1.5 14.408 12.071 12.071 0 0 1 13.596 2.5 11.906 11.906 0 0 1 25.5 14.408z"/></g></g></svg>