<svg width="24" height="24" viewBox="0 0 24 24" version="1.1" xmlns="http://www.w3.org/2000/svg">
    <title>
        car-search-small
    </title>
    <path d="M0.5,13.4187567 L0.5,20.5022728 C0.5,21.0545576 0.94771525,21.5022728 1.5,21.5022728 L3.5,21.5022728 C4.05228475,21.5022728 4.5,21.0545576 4.5,20.5022728 L4.5,19.4568183 L19.5,19.5022728 L19.5,20.5022728 C19.5,21.0545576 19.9477153,21.5022728 20.5,21.5022728 L22.5,21.5022728 C23.0522847,21.5022728 23.5,21.0545576 23.5,20.5022728 L23.5,12.5022728 L21.5,10.5022728 C20.8393934,9.29015161 20.3090904,8.36590919 19.9090909,7.72954555 C19.5090915,7.09318191 19.0393945,6.36590919 18.5,5.54772737 C16.9569117,5.43626324 15.8035743,5.36543428 15.0399878,5.33524048 M10.0033391,5.30640394 C8.86322776,5.34520202 7.36211474,5.42564316 5.5,5.54772737 C4.9606062,6.36590919 4.49090923,7.09318191 4.09090909,7.72954555 C3.81429392,8.16961499 3.47536473,8.74735508 3.07412152,9.46276582 M16.7,22.8 L10.6,13.5 L16.7,22.8 Z M13.5,7.9 C13.6,11.4 11,14.3 7.5,14.4 C7.4,14.4 7.2,14.4 7.1,14.4 C3.5,14.4 0.6,11.5 0.5,7.8 C0.5,4.2 3.5,1.3 7.1,1.4 C10.6,1.5 13.5,4.4 13.5,7.9 Z" stroke="currentColor" stroke-width="1" fill="none" fill-rule="evenodd"/>
</svg>
