<svg xmlns="http://www.w3.org/2000/svg" width="24" height="24" viewBox="0 0 24px 24px"><g fill="none" stroke="currentColor" stroke-miterlimit="10"><path d="M15.18 15.872l5.674-1.71s2.646-.594 2.646.874c0 1.244-1.186 1.728-2.002 2.101-2.925 1.338-7.359 3.432-7.359 3.432s-2.22.931-4.586.931H.5v-5c2.447 0 1.781.228 3.915-.872 1.27-.655 2.878-1.128 4.363-1.128H13.5a1.5 1.5 0 0 1 0 3H7"/><ellipse cx="16.498" cy="9.99" rx="1.5" ry="1.51"/><circle cx="7.498" cy="9.99" r="1.51"/><path d="M8.89 10.5h6.2"/><path stroke-linejoin="round" d="M6.106 10.5c-1.891 0-2.606-.507-2.606-.507v-2.79S6.78 4.5 11.108 4.5c3.062 0 4.355 1.788 4.355 1.788l3.698 1.125s.78.136 1.164.914c.17.343.175.832.175 1.357v.816h-2.502"/></g></svg>