<svg xmlns="http://www.w3.org/2000/svg" width="48" height="48" viewBox="0 0 48 48"><g fill="none" stroke="currentColor" stroke-miterlimit="10"><path d="M30.5 29l11.594-3.493s5.406-1.215 5.406 1.785c0 2.541-2.424 3.53-4.091 4.293-5.978 2.735-15.038 7.013-15.038 7.013S23.833 40.5 19 40.5H.5v-9c5 0 3.64-.752 8-3 2.595-1.338 5.881-2 8.917-2H28.09a2.5 2.5 0 0 1 0 5H15"/><circle cx="33.667" cy="19.694" r="2.806"/><circle cx="16.167" cy="19.694" r="2.806"/><path d="M30.979 20.5H18.837"/><path stroke-linejoin="round" d="M13.548 20.653C10.22 20.653 9.5 19.5 9.5 19.5v-5.057l5.751-3.176S17.585 9.5 22.972 9.5s8.663 3.218 8.663 3.218l6.508 2.12s1.372.257 2.05 1.72c.3.649.307 1.569.307 2.557V20.5h-4.145"/></g></svg>