<?xml version="1.0" encoding="UTF-8"?>
<svg width="24px" height="24px" viewBox="0 0 24 24" version="1.1" xmlns="http://www.w3.org/2000/svg" xmlns:xlink="http://www.w3.org/1999/xlink">
    <!-- Generator: sketchtool 48.1 (47250) - http://www.bohemiancoding.com/sketch -->
    <title>car-handover-small</title>
    <desc>Created with sketchtool.</desc>
    <defs/>
    <g id="icons-published" stroke="none" stroke-width="1" fill="none" fill-rule="evenodd">
        <g id="briefing" transform="translate(-1508.000000, -282.000000)"/>
        <g id="car-handover-small" stroke="currentColor">
            <path d="M15.2,15.9 L20.9,14.2 C20.9,14.2 23.5,13.6 23.5,15.1 C23.5,16.3 22.3,16.8 21.5,17.2 C18.6,18.5 14.1,20.6 14.1,20.6 C14.1,20.6 11.9,21.5 9.5,21.5 L0.5,21.5 L0.5,16.5 C2.9,16.5 2.3,16.7 4.4,15.6 C5.7,14.9 7.3,14.5 8.8,14.5 L13.5,14.5 C14.3,14.5 15,15.2 15,16 C15,16.8 14.3,17.5 13.5,17.5 L7,17.5" id="Shape"/>
            <circle id="Oval" cx="16.5" cy="10" r="1.5"/>
            <circle id="Oval" cx="7.5" cy="10" r="1.5"/>
            <path d="M8.9,10.5 L15.1,10.5" id="Shape"/>
            <path d="M6.1,10.5 C4.2,10.5 3.5,10 3.5,10 L3.5,7.2 C3.5,7.2 6.8,4.5 11.1,4.5 C14.2,4.5 15.5,6.3 15.5,6.3 L19.2,7.4 C19.2,7.4 20,7.5 20.4,8.3 C20.6,8.6 20.6,9.1 20.6,9.7 L20.6,10.5 L18,10.5" id="Shape" stroke-linejoin="round"/>
        </g>
    </g>
</svg>