<svg xmlns="http://www.w3.org/2000/svg" width="48" height="48" viewBox="0 0 48 48"><g fill="none" stroke="currentColor" stroke-miterlimit="10"><path d="M46.537 34l-11.11-2.5M1.429 34l10.898-2.5M45.875 20.666L36 23.5H11.5l-9.399-2.806M46.419 23.762a7.386 7.386 0 0 1-3.514 1.694 73.38 73.38 0 0 1-4.49.359M1.54 23.797a7.575 7.575 0 0 0 3.76 1.898c2.788.37 3.507.509 4.36.18M39.521 15.5H44M4 15.5h4.492"/><path d="M13.5 23.5s-2.814 1.716-3.712 2.285a1.103 1.103 0 0 0-.419 1.466 11.913 11.913 0 0 0 2.873 4.339c.688.778 3.471.91 3.471.91h16.24a17.286 17.286 0 0 0 3.186-.685c1.437-.494 3.068-3.944 3.457-4.827a.985.985 0 0 0-.36-1.305L33.5 23.5M7.296 17.5h33.397"/><path d="M36.863 35.5l2.334.968c0 1.157.599 1.032.599 1.032s3.797.03 5.626 0c1.737-.028.997-8.633.997-8.633l.001.088c.037-.764.058-1.61.058-2.542a19.314 19.314 0 0 0-.578-5.686 4.354 4.354 0 0 0-1.143-1.297 5.393 5.393 0 0 0-2.029-.857c-1.323-.3-1.459-.224-1.982-.995s-2.088-3.613-2.088-3.613a15.139 15.139 0 0 0-2.421-2.6 3.674 3.674 0 0 0-1.05-.55A4.936 4.936 0 0 0 33.5 10.5h-19a5.194 5.194 0 0 0-1.72.316 3.735 3.735 0 0 0-.89.431 14.435 14.435 0 0 0-2.58 2.717s-1.564 2.843-2.088 3.614-.659.694-1.982.995a5.392 5.392 0 0 0-2.028.857 4.353 4.353 0 0 0-1.144 1.297 19.314 19.314 0 0 0-.578 5.686c0 .933.02 1.778.058 2.542l.001-.088s-.74 8.605.998 8.633c1.828.03 5.626 0 5.626 0s.598.125.598-1.032l2.334-.968h25.758z"/></g></svg>