<?xml version="1.0" encoding="UTF-8"?>
<svg width="24px" height="24px" viewBox="0 0 24 24" version="1.1" xmlns="http://www.w3.org/2000/svg" xmlns:xlink="http://www.w3.org/1999/xlink">
    <!-- Generator: sketchtool 48.1 (47250) - http://www.bohemiancoding.com/sketch -->
    <title>car-small</title>
    <desc>Created with sketchtool.</desc>
    <defs></defs>
    <g id="icons-published" stroke="none" stroke-width="1" fill="none" fill-rule="evenodd">
        <g id="briefing" transform="translate(-1795.000000, -282.000000)"></g>
        <g id="car-small" stroke="#000000">
            <path d="M23,7.5 L20.6,7.5 L23,7.5 Z M1,7.5 L3.4,7.5 L1,7.5 Z M8.2,12.5 L15.9,12.5 L17.4,13.5 L16,15.5 L8.2,15.5 L6.7,13.5 L8.2,12.5 Z M21.3,8.5 L2.7,8.5 L21.3,8.5 Z" id="Shape"></path>
            <path d="M23.2,10.5 C23.2,10.5 22.4,10.7 21.3,11 C20.6,11.1 20,11.6 19.9,12.4 C19.7,13.5 19.3,14 21,13.7 C22.7,13.4 23.5,13.1 23.5,13.1" id="Path"></path>
            <path d="M0.8,10.5 C0.8,10.5 1.6,10.7 2.7,11 C3.4,11 4,11.6 4.1,12.3 C4.3,13.4 4.7,13.9 3,13.6 C1.3,13.3 0.5,13 0.5,13" id="Path"></path>
            <path d="M19.5,17.5 L19.5,19.5 L22.4,19.5 C23,19.5 23.4,19.1 23.5,18.5 L23.5,13.7 C23.5,9.9 22.8,9.5 22.8,9.5 L21.3,8.4 C20.6,7.6 20.1,6.8 19.7,5.9 C19.3,5 18.5,4.5 17.6,4.4 L6.4,4.4 C5.5,4.6 4.6,5.1 4.3,6 C3.9,6.9 3.3,7.7 2.7,8.5 L1.2,9.6 C1.2,9.6 0.5,10 0.5,13.8 L0.5,18.6 C0.5,19.2 1,19.6 1.6,19.6 L4.5,19.6 L4.5,17.6 L19.5,17.5 Z" id="Shape"></path>
        </g>
    </g>
</svg>