<svg xmlns="http://www.w3.org/2000/svg" width="24" height="24" viewBox="0 0 24 24"><g fill="none" stroke="currentColor" stroke-miterlimit="10"><path d="M23.214 10.452s-.839.22-1.88.516a1.571 1.571 0 0 0-1.443 1.36c-.243 1.12-.566 1.578 1.059 1.266s2.545-.588 2.545-.588M.786 10.452s.839.22 1.88.516a1.571 1.571 0 0 1 1.443 1.36c.243 1.12.566 1.578-1.059 1.266s-2.544-.588-2.544-.588M23 7.459h-2.429M1 7.459h2.429M8.16 12.5h7.742l1.479.986-1.437 2.014H8.16l-1.541-2.014L8.16 12.5zm13.175-4H2.665"/><path d="M19.5 17.5v2h2.923a1.07 1.07 0 0 0 1.077-.982V13.76c0-3.77-.7-4.167-.7-4.167L21.335 8.5a9.718 9.718 0 0 1-1.593-2.531A2.473 2.473 0 0 0 17.617 4.5H6.383a2.473 2.473 0 0 0-2.125 1.469A9.718 9.718 0 0 1 2.665 8.5L1.2 9.594s-.7.395-.7 4.166v4.758a1.07 1.07 0 0 0 1.077.982H4.5v-2h15z"/></g></svg>