<svg width="48" height="48" viewBox="0 0 48 48" version="1.1" xmlns="http://www.w3.org/2000/svg">
    <title>
        car-handover-large
    </title>
    <path d="M30.5,29 L42.1,25.5 C42.1,25.5 47.5,24.3 47.5,27.3 C47.5,29.8 45.1,30.8 43.4,31.6 C37.4,34.3 28.4,38.6 28.4,38.6 C28.4,38.6 23.9,40.5 19,40.5 L0.5,40.5 L0.5,31.5 C5.5,31.5 4.1,30.7 8.5,28.5 C11.1,27.2 14.4,26.5 17.4,26.5 L28.1,26.5 C29.5,26.5 30.6,27.6 30.5,29 C30.6,30.4 29.5,31.5 28.1,31.5 L15,31.5 M19.0029764,20.5005139 C19.0029764,22.1573682 17.6598307,23.5005139 16.0029764,23.5005139 C14.3461222,23.5005139 13.0029764,22.1573682 13.0029764,20.5005139 L13.0029764,20.5005139 L13.0029764,20.5005139 L11.0441045,20.3585747 C10.2197027,20.2988388 9.44586482,19.583442 9.50297645,18.7588541 L9.9069608,15.136805 C9.96657593,14.2760711 10.5714491,13.5505935 11.407428,13.3371546 C11.9392775,13.2013691 12.4711269,13.0891555 13.0029764,13.0005139 C14.5029764,12.7505139 17.5029764,10.7505139 19.5029764,10.0005139 C20.5281216,9.61608447 22.5510324,9.49084736 24.5029764,9.50051392 C26.3591642,9.50970626 28.1499785,9.63494336 29.0029764,10.0005139 C29.7397836,10.3162884 31.1564503,11.4829551 33.2529764,13.5005139 C35.7529764,13.8338472 37.5029764,14.1671806 38.5029764,14.5005139 C40.0029764,15.0005139 41.0029764,16.0005139 41.2529764,16.7505139 C41.4196431,17.2505139 41.5029764,18.0005139 41.5029764,19.0005139 L41.5029764,19.2505139 C41.5029764,19.9408699 40.9433324,20.5005139 40.2529764,20.5005139 L38.0029764,20.5005139 C38.0029764,22.1573682 36.6598307,23.5005139 35.0029764,23.5005139 C33.3461222,23.5005139 32.0029764,22.1573682 32.0029764,20.5005139 L32.0029764,20.5005139 L32.0029764,20.5005139 L19.0029764,20.5005139 Z" stroke="currentColor" stroke-width="1" fill="none" fill-rule="evenodd"/>
</svg>
