<svg width="24" height="24" viewBox="0 0 24 24" version="1.1" xmlns="http://www.w3.org/2000/svg">
    <title>
        car-handover-small
    </title>
    <path d="M15.2,15.9 L20.9,14.2 C20.9,14.2 23.5,13.6 23.5,15.1 C23.5,16.3 22.3,16.8 21.5,17.2 C18.6,18.5 14.1,20.6 14.1,20.6 C14.1,20.6 11.9,21.5 9.5,21.5 L0.5,21.5 L0.5,16.5 C2.9,16.5 2.3,16.7 4.4,15.6 C5.7,14.9 7.3,14.5 8.8,14.5 L13.5,14.5 C14.3,14.5 15,15.2 15,16 C15,16.8 14.3,17.5 13.5,17.5 L7,17.5 M8.5,10.5 C8.5,11.3284271 7.82842712,12 7,12 C6.17157288,12 5.5,11.3284271 5.5,10.5 L5.5,10.5 L5.5,10.5 L4.31864814,10.3480812 C3.88072538,10.3163495 3.46966227,9.93802154 3.5,9.5 L3.71617782,7.49427414 C3.74784541,7.03705181 4.06915442,6.65167764 4.51322685,6.53829881 C4.79574562,6.46616944 5.07826439,6.40656152 5.36078316,6.35947506 C6.15758405,6.22667491 7.75118582,5.16427373 8.813587,4.76587329 C9.35814474,4.56166414 10.4631262,4.49513811 11.5,4.50027299 C12.4860081,4.50515597 13.4068796,4.571682 13.8599926,4.76587329 C14.251385,4.9336129 15.0039192,5.55334692 16.1175951,6.62507536 C17.4455966,6.80214222 18.3751976,6.97920908 18.9063982,7.15627595 C19.7031991,7.42187624 20.2343997,7.95307683 20.3671999,8.35147728 C20.4557333,8.61707757 20.5,9.01547801 20.5,9.54667861 L20.4984189,9.75947868 C20.4984189,10.1261962 20.2011357,10.4234794 19.8344182,10.4234794 L18.5,10.5 C18.5,11.3284271 17.8284271,12 17,12 C16.1715729,12 15.5,11.3284271 15.5,10.5 L15.5,10.5 L15.5,10.5 L8.5,10.5 Z" stroke="currentColor" stroke-width="1" fill="none" fill-rule="evenodd"/>
</svg>
