<svg xmlns="http://www.w3.org/2000/svg" width="24" height="24" viewBox="0 0 24 24"><g fill="none" stroke="currentColor" stroke-miterlimit="10"><path d="M23 9.5h-2.429M.633 13.326A18.73 18.73 0 0 0 .5 15.76v4.758a1.07 1.07 0 0 0 1.077.982H4.5v-2H12m5 0h2.5v2h2.923a1.07 1.07 0 0 0 1.077-.982V15.76c0-3.77-.7-4.167-.7-4.167L21.335 10.5a9.718 9.718 0 0 1-1.593-2.531A2.473 2.473 0 0 0 17.617 6.5H15m-4 0H6.383a2.473 2.473 0 0 0-2.125 1.469 11.233 11.233 0 0 1-1.31 2.197"/><path d="M16.712 22.766l-6.095-9.268M13.5 7.95a6.281 6.281 0 0 1-6.448 6.55A6.624 6.624 0 0 1 .5 7.95 6.538 6.538 0 0 1 7.052 1.5 6.45 6.45 0 0 1 13.5 7.95z"/></g></svg>