<svg width="48" height="48" viewBox="0 0 48 48" version="1.1" xmlns="http://www.w3.org/2000/svg">
    <title>
        catalogue-large
    </title>
    <path d="M40.5,13.5 L41.5,13.5 C43.1568542,13.5 44.5,14.8431458 44.5,16.5 L44.5,39.5 L44.5,39.5 C19.1666667,39.5 6.16666667,39.5 5.5,39.5 C4.5,39.5 3.5,38.27843 3.5,37 C3.62814941,38.4647646 4.73797646,39.3831445 5.98893649,39.2650635 L40.5,36.007484 L40.5,13.5 C40.5,11.290861 38.709139,9.5 36.5,9.5 L36.5,9.5 L36.5,9.5 M3.5,13.5 L32.7106478,5.5334597 C34.3091208,5.0975125 35.9583443,6.03992591 36.3942915,7.63839894 C36.4644507,7.89564933 36.5,8.16110519 36.5,8.42775116 L36.5,25.5 L36.5,25.5 L28.5,33.5 L5.9667459,38.907981 C4.89267655,39.1657576 3.81300204,38.5040216 3.5552254,37.4299523 C3.51853643,37.2770816 3.5,37.1204181 3.5,36.9632064 L3.5,13.5 L3.5,13.5 Z M28.5,33.5 L28.5,25.5 L36.5,25.5" stroke="currentColor" stroke-width="1" fill="none" fill-rule="evenodd"/>
</svg>
