<svg width="24" height="24" viewBox="0 0 24 24" version="1.1" xmlns="http://www.w3.org/2000/svg">
    <title>
        catalogue-small
    </title>
    <path d="M20.5,6.5 C21.6045695,6.5 22.5,7.3954305 22.5,8.5 L22.5,20.5 L22.5,20.5 L3.5,20.5 L20.5,17.5 L20.5,4 M1.5,6 L17.2497765,1.92954779 C17.7844921,1.7913532 18.3299935,2.11279692 18.4681881,2.64751245 C18.489311,2.72924322 18.5,2.8133197 18.5,2.89773591 L18.5,11.5 L18.5,11.5 L14.5,15.5 L2.75997347,18.6607764 C2.22667862,18.8043558 1.67796363,18.4884289 1.53438424,17.9551341 C1.51156079,17.8703613 1.5,17.7829521 1.5,17.6951606 L1.5,6 L1.5,6 Z M14.5,15.5 L14.5,11.5 L18.5,11.5" stroke="currentColor" stroke-width="1" fill="none" fill-rule="evenodd"/>
</svg>
