<svg width="48" height="48" viewBox="0 0 48 48" version="1.1" xmlns="http://www.w3.org/2000/svg">
    <title>
        charge-level-large
    </title>
    <g stroke="currentColor" stroke-width="1" fill="none" fill-rule="evenodd">
        <path d="M43.5 18L43.5 37.5 10 37.5"/>
        <path d="M40.5 15L40.5 34.5 7 34.5"/>
        <path d="M4.5,12.5 L37.5,12.5 L37.5,31.5 L4.5,31.5 L4.5,12.5 Z M9.5,12.5 L9.5,9.5 L14.5,9.5 L14.5,12.5 M27.5,12.5 L27.5,9.5 L32.5,9.5 L32.5,12.5"/>
        <path d="M29.5,20.5 L29.5,24 L29.5,20.5 L26,20.5 L29.5,20.5 Z M29.5,20.5 L29.5,17 L29.5,20.5 L33,20.5 L29.5,20.5 Z"/>
        <path d="M9,20.5 L16,20.5"/>
    </g>
</svg>
