<svg width="24" height="24" viewBox="0 0 24 24" version="1.1" xmlns="http://www.w3.org/2000/svg">
    <title>
        charging-plate-small
    </title>
    <path d="M1,22.5 L17,22.5 M5.48944745,20.4593405 C6.29006986,19.831417 7.34455359,19.45 8.5,19.45 C9.65544641,19.45 10.7099301,19.831417 11.5105525,20.4593405 M3.09533478,18.425673 C4.51195934,17.261909 6.41175703,16.55 8.5,16.55 C10.588243,16.55 12.4880407,17.261909 13.9046652,18.425673 M23.5,8 L23.5,18.5 L16.0092773,18.5 M21.5,6 L21.5,16.5 L15,16.5 M1.5,3.5 L19.5,3.5 L19.5,14.5 L1.5,14.5 L1.5,3.5 Z M4.5,3.5 L4.5,1.5 L7.5,1.5 L7.5,3.5 M13.5,3.5 L13.5,1.5 L16.5,1.5 L16.5,3.5 M14.5,11 L14.5,6 M12,8.5 L17,8.5 M4,8.5 L8,8.5" stroke="currentColor" stroke-width="1" fill="none" fill-rule="evenodd"/>
</svg>
