<svg width="24" height="24" viewBox="0 0 24 24" version="1.1" xmlns="http://www.w3.org/2000/svg">
    <title>
        charge-level-small
    </title>
    <g stroke="currentColor" stroke-width="1" fill="none" fill-rule="evenodd">
        <path d="M23.5 10L23.5 20.5 5 20.5"/>
        <path d="M21.5 8L21.5 18.5 3 18.5"/>
        <path d="M1.5,5.5 L19.5,5.5 L19.5,16.5 L1.5,16.5 L1.5,5.5 Z M4.5,5.5 L4.5,3.5 L7.5,3.5 L7.5,5.5 M13.5,5.5 L13.5,3.5 L16.5,3.5 L16.5,5.5"/>
        <path d="M14.5,10.5 L14.5,13 L14.5,10.5 L12,10.5 L14.5,10.5 Z M14.5,10.5 L14.5,8 L14.5,10.5 L17,10.5 L14.5,10.5 Z"/>
        <path d="M4,10.5 L8,10.5"/>
    </g>
</svg>
