<?xml version="1.0" encoding="UTF-8" standalone="no"?>
<svg width="48px" height="48px" viewBox="0 0 48 48" version="1.1" xmlns="http://www.w3.org/2000/svg" xmlns:xlink="http://www.w3.org/1999/xlink">
    <!-- Generator: sketchtool 46.2 (44496) - http://www.bohemiancoding.com/sketch -->
    <title>charging-large</title>
    <desc>Created with sketchtool.</desc>
    <defs></defs>
    <g id="icons-published" stroke="none" stroke-width="1" fill="none" fill-rule="evenodd">
        <g id="briefing" transform="translate(-2592.000000, -282.000000)"></g>
        <g id="charging-large" stroke="#000000">
            <path d="M34.5,9.5 L43,9.5 M34.5,17.5 L43,17.5" id="Shape"></path>
            <path d="M34.5,14.7 L34.5,21.5 L29.6,21.5 C28.6,21.5 20.5,21.7 20.5,13.5 C20.5,5.3 28.6,5.5 29.6,5.5 L34.5,5.5 L34.5,14.7 Z" id="Shape"></path>
            <path d="M20.5,13.5 L10.5,13.5 C10.5,13.5 5.5,13.5 5.5,19 C5.5,24.5 10.5,24.5 10.5,24.5 L14.7,24.5 C16.9,24.5 19.5,26.2 19.5,29 L19.5,43" id="Shape"></path>
        </g>
    </g>
</svg>