<svg width="48" height="48" viewBox="0 0 48 48" version="1.1" xmlns="http://www.w3.org/2000/svg">
    <title>
        charging-plate-large
    </title>
    <path d="M4.5,42.5 L32.5,42.5 L32.5,44.5 L4.5,44.5 L4.5,42.5 Z M10.7528061,38.6904618 C12.7729061,37.3148295 15.2817805,36.5 18,36.5 C20.4074459,36.5 22.6506791,37.1391618 24.5355716,38.2410053 M7.90693051,35.6327611 C10.6969243,33.6688302 14.198315,32.5 18,32.5 C21.4913379,32.5 24.7294087,33.4857866 27.3957947,35.1678892 M43.5,14 L43.5,33.5 L32,33.5 M40.5,11 L40.5,30.5 L29,30.5 M4.5,8.5 L37.5,8.5 L37.5,27.5 L4.5,27.5 L4.5,8.5 Z M9.5,8.5 L9.5,5.5 L14.5,5.5 L14.5,8.5 M27.5,8.5 L27.5,5.5 L32.5,5.5 L32.5,8.5 M29.5,20 L29.5,13 M26,16.5 L33,16.5 M9,16.5 L16,16.5" stroke="currentColor" stroke-width="1" fill="none" fill-rule="evenodd"/>
</svg>
