<svg width="24" height="24" viewBox="0 0 24 24" version="1.1" xmlns="http://www.w3.org/2000/svg">
    <title>
        charging-station-small
    </title>
    <path d="M14,22.5 L1,22.5 M12.5,22.5 L12.5,3.5 C12.5,2.3954305 11.6045695,1.5 10.5,1.5 L4.5,1.5 C3.3954305,1.5 2.5,2.3954305 2.5,3.5 L2.5,22.5 L2.5,22.5 M11,10.5 L4,10.5 M19.5,10.5 L19.5,17.5 C19.5,18.6045695 18.6045695,19.5 17.5,19.5 C16.3954305,19.5 15.5,18.6045695 15.5,17.5 L15.5,12.5 C15.5,11.3954305 14.6045695,10.5 13.5,10.5 L12.5,10.5 L12.5,10.5 M22.5,4.5 L22.5,7.5 C22.5,9.15685425 21.1568542,10.5 19.5,10.5 C17.8431458,10.5 16.5,9.15685425 16.5,7.5 L16.5,4.5 L16.5,4.5 L22.5,4.5 Z M17.5,4.5 L17.5,1 M21.5,4.5 L21.5,1" stroke="currentColor" stroke-width="1" fill="none" fill-rule="evenodd"/>
</svg>
