<svg width="48" height="48" viewBox="0 0 48 48" version="1.1" xmlns="http://www.w3.org/2000/svg">
    <title>
        city-large
    </title>
    <path d="M32,17.5 L39.5,17.5 L39.5,21.5 L32,21.5 M32,24.5 L39.5,24.5 L39.5,28.5 L32,28.5 M32,31.5 L39.5,31.5 L39.5,35.5 L32,35.5 M32,11.5 L44.5,11.5 L44.5,45.5 L32,45.5 M30.5286,45.5 L20.7,45.5 L20.7,34.4429 L13.3286,34.4429 L13.3286,45.5 L3.5,45.5 L3.5,2.5 L30.5286,2.5 L30.5286,45.5 Z M8.41429,7.41429 L14.5571,7.41429 L14.5571,13.5571 L8.41429,13.5571 L8.41429,7.41429 Z M19.4714,7.41429 L25.6143,7.41429 L25.6143,13.5571 L19.4714,13.5571 L19.4714,7.41429 Z M8.41429,20.9286 L14.5571,20.9286 L14.5571,27.0714 L8.41429,27.0714 L8.41429,20.9286 Z M19.4714,20.9286 L25.6143,20.9286 L25.6143,27.0714 L19.4714,27.0714 L19.4714,20.9286 Z" stroke="currentColor" stroke-width="1" fill="none" fill-rule="evenodd"/>
</svg>
