<svg width="24" height="24" viewBox="0 0 24 24" version="1.1" xmlns="http://www.w3.org/2000/svg">
    <title>
        climate-electric-small
    </title>
    <path d="M15,8.5 L12.5,8.5 L15,8.5 Z M15,6.5 L12.5,6.5 L15,6.5 Z M15,4.5 L12.5,4.5 L15,4.5 Z M12.5,11.5 L10.5,11.5 L12.5,11.5 Z M12.5,15.2 L12.5,2.5 C12.5,1.9 12.1,1.5 11.5,1.5 C10.9,1.5 10.5,1.9 10.5,2.5 L10.5,15.7 C9.3,16.1 8.5,17.3 8.5,18.5 C8.5,20.2 9.8,21.5 11.5,21.5 C13.2,21.5 14.5,20.2 14.5,18.5 C14.5,17.2 13.7,16.1 12.5,15.7 L12.5,15.2 L12.5,15.2 Z" stroke="currentColor" stroke-width="1" fill="none" fill-rule="evenodd"/>
</svg>
