<svg xmlns="http://www.w3.org/2000/svg" width="48" height="48" viewBox="0 0 48 48"><g fill="none" stroke="currentColor" stroke-miterlimit="10"><path d="M6 44.5h36M36.5 4.5v8s-.253 3.806 1.747 7.431S42 26.023 42 29.994c0 3.97-1.688 10.506-8 10.506"/><path d="M32 10l4.5-5.51L41 10"/><g clip-rule="evenodd"><path d="M20 10l4.5-5.51L29 10"/><path d="M24.5 4.5v8s-.253 3.806 1.747 7.431S30 26.023 30 29.994c0 3.97-1.688 10.506-8 10.506"/></g><g><path d="M18 13.5h-3.5M18 10.51h-3.5M18 7.5h-3.5M14.5 20.5h-4M14.5 27.999V5.5a2 2 0 1 0-4 0v23.349c-2.32.83-4 3.046-4 5.651a6 6 0 0 0 12 0c0-2.608-1.675-4.828-4-5.654v-.847z"/></g></g></svg>