<svg width="48" height="48" viewBox="0 0 48 48" version="1.1" xmlns="http://www.w3.org/2000/svg">
    <title>
        climate-large
    </title>
    <path d="M18.5,20.4 C18.5,20.4 18.5,18.3 18.4,16.4 C18.3,14.5 18.1,11.7 17.5,9.9 C17,8.1 16.1,6 14.9,5.1 C13.7,4.1 12.1,3.7 10.2,4.6 C8.3,5.5 6.7,7.8 5.9,9.2 C5.1,10.6 4.4,12.6 4.9,14.6 C5.4,16.7 7.4,18.8 9.9,19.6 C12,20.3 13.7,20.5 15.1,20.6 C16.4,20.6 18.5,20.4 18.5,20.4 Z M20.6,29.5 C20.6,29.5 20.4,36.1 18,39.8 C16.2,42.8 13.4,42.9 12.5,42.9 C11.7,42.9 10.1,42.9 8.1,41.7 C6.1,40.5 5.5,39.8 4.9,39.1 C4.3,38.4 3.3,36.6 3.5,35 C3.9,32.7 6.2,31.5 8,30.8 C8.9,30.5 10.4,30.1 12.8,29.7 C15,29.4 18.3,29.3 18.7,29.3 C19.1,29.4 20.6,29.5 20.6,29.5 L20.6,29.5 Z M29.5,27.5 C29.5,27.5 35.9,26.6 39.7,29.1 C43.3,31.3 43.3,34.1 43.3,34.8 C43.3,35.5 43.2,36.8 42,38.8 C40.8,40.8 39.9,41.7 39.2,42.4 C38.5,43.1 36.8,44.1 35.2,43.8 C32.9,43.4 31.3,41 30.7,39.3 C30.4,38.4 29.8,36.4 29.6,34.2 C29.4,32.1 29.3,29 29.3,28.6 C29.5,28.1 29.5,27.5 29.5,27.5 L29.5,27.5 Z M27.5,18.4 C27.5,18.4 30.6,18.5 33.9,18.2 C37.2,17.9 39.1,17.4 40.5,16.8 C41.9,16.3 42.3,16 42.8,15.6 C43.3,15.2 43.9,14.7 44.2,14.1 C44.4,13.7 44.7,13 44.7,12 C44.7,11 43.9,9.5 43,8.6 C42.2,7.8 40.5,6.4 38.8,5.7 C37.2,5 34.9,4.8 33.5,5.3 C31.9,5.9 30.3,7.7 29.7,8.8 C29.3,9.6 28.4,12 28,14.3 C27.6,16.6 27.5,18.4 27.5,18.4 Z M18,23.9 C18,27.3 20.6,29.9 24,29.9 C27.4,29.9 30,27.3 30,23.9 C30,20.5 27.4,17.9 24,17.9 C20.6,17.9 18,20.5 18,23.9 Z" stroke="currentColor" stroke-width="1" fill="none" fill-rule="evenodd"/>
</svg>
