<svg xmlns="http://www.w3.org/2000/svg" width="24" height="24" viewBox="0 0 24 24"><g fill="none" stroke="currentColor"><path d="M11.993 9.019c-1.7 0-3 1.3-3 3s1.3 3 3 3 3-1.3 3-3-1.3-3-3-3zM14.675 13.621c.166-.14.718-.302.718-.302s3.2-.7 5.4 1.4c2.2 2.1.6 4.8-.9 6.3s-5.5 3-5.4-7.1c0 0 .016-.158.182-.298zM10.593 14.919c-10.1-.1-9.1 3.9-7.6 5.4s4.3 2.9 6.4.7c1.3-1.5 2-3.5 1.7-5.4l-.2-.7h-.3zM13.393 9.019c-.2-.9-.4-4.2 1.3-5.9 2.2-2.1 5.2-.8 6.7.7 1.8 1.8 3.8 5.2-6.4 5.2h-1.6M9.037 10.789l.056-.77c.1-10.1-3.3-8.4-4.6-7.1-1.5 1.5-2.8 4.5-.7 6.6 1.4 1.2 3.2 1.7 5 1.5l.244-.23z"/></g></svg>