<svg width="48" height="48" viewBox="0 0 48 48" version="1.1" xmlns="http://www.w3.org/2000/svg">
    <title>
        climate-electric-large
    </title>
    <path d="M30,15.5 L26.5,15.5 L30,15.5 Z M30,12.5 L26.5,12.5 L30,12.5 Z M30,9.5 L26.5,9.5 L30,9.5 Z M26.5,22.5 L22.5,22.5 L26.5,22.5 Z M26.5,30 L26.5,7.5 C26.5,6.4 25.6,5.5 24.5,5.5 C23.4,5.5 22.5,6.4 22.5,7.5 L22.5,30.8 C20.2,31.6 18.5,33.8 18.5,36.5 C18.5,39.8 21.2,42.5 24.5,42.5 C27.8,42.5 30.5,39.8 30.5,36.5 C30.5,33.9 28.8,31.7 26.5,30.8 L26.5,30 Z" stroke="currentColor" stroke-width="1" fill="none" fill-rule="evenodd"/>
</svg>
