<svg xmlns="http://www.w3.org/2000/svg" width="48" height="48" viewBox="0 0 48 48"><g fill="none" stroke="currentColor" stroke-miterlimit="10"><path d="M29.464 27.451s6.358-.854 10.25 1.571c3.58 2.232 3.57 5.027 3.553 5.714-.017.687-.078 2.01-1.268 4.008-1.19 1.998-2.055 2.909-2.773 3.56-.718.651-2.351 1.698-3.955 1.448-2.327-.363-3.896-2.82-4.458-4.55-.29-.891-.855-2.854-1.068-5.062-.205-2.121-.285-5.172-.285-5.598 0-.427.004-1.09.004-1.09zM20.598 29.463s-.247 6.553-2.57 10.317c-1.842 2.986-4.641 3.123-5.461 3.145-.82.022-2.421-.033-4.414-1.232-1.993-1.199-2.593-1.886-3.24-2.607s-1.648-2.459-1.39-4.062c.373-2.325 2.743-3.509 4.51-4.188.874-.336 2.395-.749 4.78-1.072 2.187-.296 5.46-.353 5.886-.351.427.002 1.9.05 1.9.05zM27.472 18.374s3.105.138 6.387-.198c3.281-.335 5.21-.82 6.613-1.39 1.353-.55 1.814-.842 2.256-1.168.524-.387 1.063-.875 1.422-1.545.24-.447.53-1.07.483-2.077s-.753-2.49-1.594-3.425c-.759-.842-2.485-2.204-4.161-2.948-1.643-.729-3.87-.937-5.32-.386-1.562.595-3.224 2.404-3.827 3.49-.437.785-1.318 3.217-1.725 5.468s-.534 4.179-.534 4.179zM18.5 20.426s.02-2.15-.056-4.014c-.076-1.865-.345-4.748-.888-6.545-.545-1.802-1.5-3.821-2.679-4.767-1.189-.955-2.849-1.417-4.675-.504s-3.494 3.16-4.29 4.606c-.796 1.446-1.46 3.355-1.01 5.364.466 2.08 2.503 4.155 5.023 5.025 2.122.732 3.826.89 5.17.968 1.272.074 3.405-.133 3.405-.133zM18 23.89c0 3.4 2.6 6 6 6s6-2.6 6-6-2.6-6-6-6-6 2.6-6 6z"/></g></svg>