<svg width="24" height="24" viewBox="0 0 24 24" version="1.1" xmlns="http://www.w3.org/2000/svg">
    <title>
        climate-auto-small
    </title>
    <path d="M0,23 L24,23 M18,20 C20,20 22.5,18.1 22.5,14.5 C22.5,11 19.5,9.5 19.5,6.5 L19.5,0.2 M16,3.7 L19.5,0.2 L23,3.7 M10,20 C12,20 14.5,18.1 14.5,14.5 C14.5,11 11.5,9.5 11.5,6.5 L11.5,0.2 M9,2.8 L11.5,0.2 L14,2.8 M7,7 L4.5,7 L7,7 Z M7,5 L4.5,5 L7,5 Z M7,3 L4.5,3 L7,3 Z M4.5,10 L2.5,10 L4.5,10 Z M4.5,13.7 L4.5,1 C4.5,0.4 4.1,0 3.5,0 C2.9,0 2.5,0.4 2.5,1 L2.5,14.2 C1.3,14.6 0.5,15.8 0.5,17 C0.5,18.7 1.8,20 3.5,20 C5.2,20 6.5,18.7 6.5,17 C6.5,15.7 5.7,14.6 4.5,14.2 L4.5,13.7 L4.5,13.7 Z" stroke="currentColor" stroke-width="1" fill="none" fill-rule="evenodd"/>
</svg>
