<svg xmlns="http://www.w3.org/2000/svg" width="24" height="24" viewBox="0 0 24px 24px"><g fill="none" stroke="currentColor"><path d="M0 23.5h24M17.999 20.502c2 0 4.501-1.906 4.501-5.502 0-3.53-3-5-3-7.998V.7"/><path d="M16 4.25L19.5.7 23 4.25M9.999 20.502c2 0 4.501-1.906 4.501-5.502 0-3.53-3-5-3-7.998V.7"/><path d="M9 3.252L11.5.7 14 3.252"/><g stroke-miterlimit="10"><path d="M4.5 10.5h-2M6.99 7.5H4.5M6.99 5.5H4.5M6.99 3.5H4.5M4.5 14.25V1.5a1 1 0 1 0-2 0v13.174a3.01 3.01 0 0 0-2 2.826 3 3 0 1 0 6 0 3.006 3.006 0 0 0-2-2.827v-.424z"/></g></g></svg>