<?xml version="1.0" encoding="UTF-8"?>
<svg width="24px" height="24px" viewBox="0 0 24 24" version="1.1" xmlns="http://www.w3.org/2000/svg" xmlns:xlink="http://www.w3.org/1999/xlink">
    <!-- Generator: sketchtool 48.1 (47250) - http://www.bohemiancoding.com/sketch -->
    <title>climate-electric-small</title>
    <desc>Created with sketchtool.</desc>
    <defs></defs>
    <g id="icons-published" stroke="none" stroke-width="1" fill="none" fill-rule="evenodd">
        <g id="briefing" transform="translate(-3236.000000, -282.000000)"></g>
        <g id="climate-electric-small" stroke="#000000">
            <path d="M15,8.5 L12.5,8.5 L15,8.5 Z M12.5,11.5 L10.5,11.5 L12.5,11.5 Z M15,6.5 L12.5,6.5 L15,6.5 Z M15,4.5 L12.5,4.5 L15,4.5 Z M12.5,15.2 L12.5,2.5 C12.5,1.9 12.1,1.5 11.5,1.5 C10.9,1.5 10.5,1.9 10.5,2.5 L10.5,15.7 C9.3,16.1 8.5,17.3 8.5,18.5 C8.5,20.2 9.8,21.5 11.5,21.5 C13.2,21.5 14.5,20.2 14.5,18.5 C14.5,17.2 13.7,16.1 12.5,15.7 L12.5,15.2 Z" id="Shape"></path>
        </g>
    </g>
</svg>