<svg width="48" height="48" viewBox="0 0 48 48" version="1.1" xmlns="http://www.w3.org/2000/svg">
    <title>
        co2-emission-large
    </title>
    <g stroke="none" stroke-width="1" fill="none" fill-rule="evenodd">
        <path d="M25.2,31.724 C26.578,31.724 27.605,31.516 28.255,31.256 L28.255,30.138 C27.722,30.333 26.734,30.593 25.226,30.593 C23.328,30.593 21.365,29.644 21.365,26.862 C21.365,24.366 22.912,23.144 25.265,23.144 C26.123,23.144 27.111,23.287 28.047,23.664 L28.047,22.507 C27.228,22.156 26.11,22 25.083,22 C22.21,22 20,23.807 20,26.862 C20,30.086 22.21,31.724 25.2,31.724 Z M33.942,31.724 C30.64,31.724 28.924,29.735 28.924,26.862 C28.924,24.093 30.718,22 33.942,22 C37.244,22 38.96,23.989 38.96,26.862 C38.96,29.631 37.166,31.724 33.942,31.724 Z M33.942,30.658 C36.412,30.658 37.595,28.968 37.595,26.862 C37.595,24.756 36.412,23.066 33.942,23.066 C31.472,23.066 30.289,24.756 30.289,26.862 C30.289,28.968 31.472,30.658 33.942,30.658 Z M40.132,33.9345 L45.7275,33.9345 L45.7275,33.02 L41.899,33.02 L42.8755,32.3535 C44.069,31.5165 45.185,30.8345 45.185,29.703 C45.185,28.494 44.224,27.75 42.5345,27.75 C41.62,27.75 40.938,27.936 40.411,28.1375 L40.411,29.0985 C41,28.866 41.7595,28.711 42.4725,28.711 C43.449,28.711 43.914,29.0675 43.914,29.734 C43.914,30.354 43.3405,30.788 42.147,31.656 L40.132,33.113 L40.132,33.9345 Z" fill="currentColor" fill-rule="nonzero"/>
        <path d="M42,37.5 L8.5,37.5 L8.27506,37.4959 C5.06557,37.3776 2.5,34.7384 2.5,31.5 C2.5,29.4768 3.50141,27.6874 5.03562,26.6006 C6.01419,25.9074 7.20952,25.5 8.5,25.5 C9.01678,25.5 9.5183,25.5653 9.99675,25.6882 C9.67574,24.8542 9.5,23.9476 9.5,23 C9.5,18.8579 12.8579,15.5 17,15.5 C17.9333,15.5 18.8267,15.6705 19.6509,15.9819 C21.5135,12.1449 25.4479,9.5 30,9.5 C36.3513,9.5 41.5,14.6487 41.5,21" stroke="currentColor"/>
    </g>
</svg>
