<svg xmlns="http://www.w3.org/2000/svg" width="24" height="24" viewBox="0 0 24 24"><path d="M16.627 15.28l1.176-.87a1.595 1.595 0 0 0 .891-1.07c0-.407-.23-.622-.786-.622a3.132 3.132 0 0 0-1.115.226v-.612a2.94 2.94 0 0 1 1.17-.235c1.102 0 1.552.451 1.552 1.207a2.114 2.114 0 0 1-1.211 1.55l-.5.356h2.032v.591h-3.209v-.52zm-6.862-3.444A2.703 2.703 0 0 1 12.692 9a2.651 2.651 0 0 1 2.927 2.836 2.703 2.703 0 0 1-2.927 2.836 2.651 2.651 0 0 1-2.927-2.836zm5.058 0a2.02 2.02 0 0 0-2.131-2.215 2.02 2.02 0 0 0-2.13 2.215 2.019 2.019 0 0 0 2.13 2.214 2.019 2.019 0 0 0 2.13-2.214zm-10.33 0A2.752 2.752 0 0 1 7.458 9a4.667 4.667 0 0 1 1.73.295v.676a4.392 4.392 0 0 0-1.623-.304 2.021 2.021 0 0 0-2.275 2.169 2.045 2.045 0 0 0 2.252 2.177 5.171 5.171 0 0 0 1.767-.266v.652a4.97 4.97 0 0 1-1.782.273 2.722 2.722 0 0 1-3.034-2.836z"/><path d="M5.547 6.649S7.45 2.5 11.545 2.5s5.005 3 5.005 3h3.103s3.847.277 3.847 4.052-2 4.024-2 4.024v2.904a2.935 2.935 0 0 1-3 3.02h-3.108a4.293 4.293 0 0 1-3.764 2 4.72 4.72 0 0 1-3.93-2.074s-4.013 3.319-6.123-1.784c0 0-.62-2.987 1.076-4.066 0 0-2.151-1.327-2.151-3.07S.5 6.65 5.547 6.65z" fill="none" stroke="currentColor" stroke-miterlimit="10"/></svg>