<svg width="24" height="24" viewBox="0 0 24 24" version="1.1" xmlns="http://www.w3.org/2000/svg">
    <title>
        co2-emission-small
    </title>
    <g stroke="none" stroke-width="1" fill="none" fill-rule="evenodd">
        <path d="M5.5,6.6 C5.5,6.6 7.4,2.5 11.5,2.5 C15.6,2.5 16.5,5.5 16.5,5.5 L19.6,5.5 C19.6,5.5 23.4,5.8 23.4,9.6 C23.4,13.4 21.4,13.6 21.4,13.6 L21.4,16.5 C21.4,18.1 20.2,19.5 18.6,19.5 C18.5,19.5 18.5,19.5 18.4,19.5 L15.3,19.5 C14.5,20.8 13.1,21.5 11.5,21.5 C9.9,21.5 8.5,20.7 7.6,19.4 C7.6,19.4 3.6,22.7 1.5,17.6 C1.5,17.6 0.9,14.6 2.6,13.5 C2.6,13.5 0.4,12.2 0.4,10.4 C0.4,8.6 0.5,6.7 5.5,6.6 L5.5,6.6 Z" stroke="currentColor"/>
        <path d="M7.792,14.68854 C8.59813,14.68854 9.198925,14.56686 9.579175,14.41476 L9.579175,13.76073 C9.26737,13.874805 8.68939,14.026905 7.80721,14.026905 C6.69688,14.026905 5.548525,13.47174 5.548525,11.84427 C5.548525,10.38411 6.45352,9.66924 7.830025,9.66924 C8.331955,9.66924 8.909935,9.752895 9.457495,9.97344 L9.457495,9.296595 C8.97838,9.09126 8.32435,9 7.723555,9 C6.04285,9 4.75,10.057095 4.75,11.84427 C4.75,13.73031 6.04285,14.68854 7.792,14.68854 Z M12.97407,14.68854 C11.0424,14.68854 10.03854,13.524975 10.03854,11.84427 C10.03854,10.224405 11.08803,9 12.97407,9 C14.90574,9 15.9096,10.163565 15.9096,11.84427 C15.9096,13.464135 14.86011,14.68854 12.97407,14.68854 Z M12.97407,14.06493 C14.41902,14.06493 15.111075,13.07628 15.111075,11.84427 C15.111075,10.61226 14.41902,9.62361 12.97407,9.62361 C11.52912,9.62361 10.837065,10.61226 10.837065,11.84427 C10.837065,13.07628 11.52912,14.06493 12.97407,14.06493 Z M16.691765,15.96528 L20.121265,15.96528 L20.121265,15.40478 L17.774765,15.40478 L18.373265,14.99628 C19.104765,14.48328 19.788765,14.06528 19.788765,13.37178 C19.788765,12.63078 19.199765,12.17478 18.164265,12.17478 C17.603765,12.17478 17.185765,12.28878 16.862765,12.41228 L16.862765,13.00128 C17.223765,12.85878 17.689265,12.76378 18.126265,12.76378 C18.724765,12.76378 19.009765,12.98228 19.009765,13.39078 C19.009765,13.77078 18.658265,14.03678 17.926765,14.56878 L16.691765,15.46178 L16.691765,15.96528 Z" fill="currentColor" fill-rule="nonzero"/>
    </g>
</svg>
