<svg width="48" height="48" viewBox="0 0 48 48" version="1.1" xmlns="http://www.w3.org/2000/svg">
    <title>
        co2-emission-large
    </title>
    <g stroke="none" stroke-width="1" fill="none" fill-rule="evenodd">
        <path d="M12.9,14.6 C12.9,14.6 16.2,7.5 23.2,7.5 C30.2,7.5 31.8,12.5 31.8,12.5 L36,12.5 C38.4,12.5 43.4,13.1 43.4,19.6 C43.4,25.7 39.5,26.5 39.5,26.5 L39.5,29.3 C39.5,31.9 39.4,36.5 33.2,36.5 L29.9,36.5 C28.6,38.9 26.1,40.5 23.4,40.5 C20.6,40.5 18.1,39 16.6,36.6 C5.6,43.6 3,28.6 7.9,26.5 C5.4,25 4,22.2 4.4,19.3 C5.1,14.2 10.8,14.5 12.9,14.6 Z" stroke="currentColor"/>
        <path d="M16.2,28.724 C17.578,28.724 18.605,28.516 19.255,28.256 L19.255,27.138 C18.722,27.333 17.734,27.593 16.226,27.593 C14.328,27.593 12.365,26.644 12.365,23.862 C12.365,21.366 13.912,20.144 16.265,20.144 C17.123,20.144 18.111,20.287 19.047,20.664 L19.047,19.507 C18.228,19.156 17.11,19 16.083,19 C13.21,19 11,20.807 11,23.862 C11,27.086 13.21,28.724 16.2,28.724 Z M24.942,28.724 C21.64,28.724 19.924,26.735 19.924,23.862 C19.924,21.093 21.718,19 24.942,19 C28.244,19 29.96,20.989 29.96,23.862 C29.96,26.631 28.166,28.724 24.942,28.724 Z M24.942,27.658 C27.412,27.658 28.595,25.968 28.595,23.862 C28.595,21.756 27.412,20.066 24.942,20.066 C22.472,20.066 21.289,21.756 21.289,23.862 C21.289,25.968 22.472,27.658 24.942,27.658 Z M31.132,30.9345 L36.7275,30.9345 L36.7275,30.02 L32.899,30.02 L33.8755,29.3535 C35.069,28.5165 36.185,27.8345 36.185,26.703 C36.185,25.494 35.224,24.75 33.5345,24.75 C32.62,24.75 31.938,24.936 31.411,25.1375 L31.411,26.0985 C32,25.866 32.7595,25.711 33.4725,25.711 C34.449,25.711 34.914,26.0675 34.914,26.734 C34.914,27.354 34.3405,27.788 33.147,28.656 L31.132,30.113 L31.132,30.9345 Z" fill="currentColor" fill-rule="nonzero"/>
    </g>
</svg>
