<svg xmlns="http://www.w3.org/2000/svg" width="48" height="48" viewBox="0 0 48 48"><path d="M30.996 30.109l2.014-1.492c1.054-.779 1.526-1.25 1.526-1.832 0-.696-.395-1.064-1.346-1.064a5.363 5.363 0 0 0-1.91.386v-1.046a5.035 5.035 0 0 1 2.004-.403c1.886 0 2.657.772 2.657 2.066 0 1.224-1.07 1.945-2.074 2.656l-.857.608h3.48V31h-5.494v-.891zm-10.97-6.339a4.628 4.628 0 0 1 5.012-4.856c3.298 0 5.012 1.987 5.012 4.856a4.628 4.628 0 0 1-5.012 4.856c-3.298 0-5.012-1.987-5.012-4.856zm8.66 0a3.458 3.458 0 0 0-3.648-3.792 3.458 3.458 0 0 0-3.649 3.792 3.457 3.457 0 0 0 3.649 3.79 3.457 3.457 0 0 0 3.648-3.79zM11 23.77c0-3.052 2.207-4.856 5.077-4.856a7.99 7.99 0 0 1 2.96.505v1.157a7.52 7.52 0 0 0-2.778-.52c-2.35 0-3.895 1.22-3.895 3.714 0 2.779 1.96 3.727 3.856 3.727a8.855 8.855 0 0 0 3.025-.455v1.117a8.509 8.509 0 0 1-3.051.467C13.207 28.626 11 26.99 11 23.77z"/><path d="M12.87 14.634S16.152 7.5 23.215 7.5s8.633 5 8.633 5H36c2.41 0 7.442.636 7.442 7.128 0 6.122-3.942 6.92-3.942 6.92v2.795c0 2.61-.063 7.157-6.344 7.157H29.85a7.373 7.373 0 0 1-6.492 4 8.079 8.079 0 0 1-6.778-3.892C5.563 43.563 3 28.625 7.877 26.548a7.082 7.082 0 0 1-3.47-7.235c.722-5.074 6.437-4.844 8.463-4.679z" fill="none" stroke="currentColor" stroke-miterlimit="10"/></svg>