<svg width="24" height="24" viewBox="0 0 24 24" version="1.1" xmlns="http://www.w3.org/2000/svg">
    <title>
        co2-emission-small
    </title>
    <g stroke="none" stroke-width="1" fill="none" fill-rule="evenodd">
        <path d="M18.095,12.7778 C18.4231,12.7778 18.7049,12.8228 18.9403,12.9129 C19.1771,13.003 19.356,13.1329 19.4769,13.3028 C19.5992,13.4726 19.6603,13.6772 19.6603,13.9166 C19.6603,14.0671 19.623,14.2112 19.5483,14.3489 C19.4737,14.4853 19.3605,14.6178 19.2086,14.7465 C19.0568,14.8739 18.8593,15.0032 18.6161,15.1345 L18.2281,15.3487 L20,15.3487 L20,15.949 L16.9717,15.949 L16.9717,15.4105 L18.1567,14.6751 C18.2957,14.585 18.4083,14.5007 18.4945,14.4222 C18.5807,14.3425 18.645,14.264 18.6875,14.1868 C18.73,14.1096 18.7512,14.0304 18.7512,13.9494 C18.7512,13.8361 18.7229,13.7416 18.6663,13.6656 C18.6097,13.5884 18.5254,13.5305 18.4134,13.4919 C18.3028,13.4533 18.167,13.434 18.0062,13.434 C17.8878,13.434 17.7385,13.4514 17.5584,13.4862 C17.3783,13.5196 17.2354,13.5601 17.1299,13.6077 L17.1299,12.9612 C17.2702,12.9045 17.4259,12.8602 17.597,12.828 C17.7694,12.7945 17.9354,12.7778 18.095,12.7778 Z M8.13003,10.12476 C8.44743,10.12476 8.75572,10.15478 9.05489,10.21483 C9.35513,10.27381 9.63715,10.36013 9.90094,10.47379 L9.90094,11.3102 C9.62214,11.189 9.34119,11.0984 9.05811,11.0384 C8.77502,10.97831 8.48978,10.94829 8.20241,10.94829 C7.84747,10.94829 7.54348,11.0137 7.29041,11.1445 C7.03735,11.2753 6.8438,11.4673 6.70976,11.7203 C6.57572,11.9723 6.5087,12.2704 6.5087,12.6146 C6.5087,12.9578 6.57572,13.2564 6.70976,13.5106 C6.84487,13.7636 7.03842,13.9556 7.29041,14.0864 C7.54348,14.2172 7.84747,14.2826 8.20241,14.2826 C8.48335,14.2826 8.77877,14.2563 9.08867,14.2038 C9.39963,14.1513 9.69452,14.0783 9.97332,13.9851 L9.97332,14.7957 C9.96688,14.7979 9.80121,14.8504 9.4763,14.9533 C9.1514,15.0552 8.70264,15.1061 8.13003,15.1061 C7.56599,15.1061 7.08131,15.0075 6.67598,14.8102 C6.27172,14.6118 5.96129,14.3234 5.74469,13.9448 C5.52915,13.5652 5.42139,13.1218 5.42139,12.6146 C5.42139,12.1235 5.53183,11.6871 5.75273,11.3054 C5.9747,10.92362 6.28888,10.63142 6.69528,10.42875 C7.10169,10.22609 7.57993,10.12476 8.13003,10.12476 Z M13.3607,10.12476 C13.9269,10.12476 14.4127,10.22448 14.818,10.42393 C15.2244,10.6223 15.5354,10.91075 15.7509,11.2893 C15.9664,11.6678 16.0742,12.1096 16.0742,12.6146 C16.0742,13.1036 15.9632,13.5395 15.7412,13.9223 C15.5203,14.3041 15.2062,14.5968 14.7987,14.8005 C14.3912,15.0043 13.9119,15.1061 13.3607,15.1061 C12.7945,15.1061 12.3083,15.007 11.9019,14.8086 C11.4965,14.6091 11.1856,14.3201 10.969,13.9416 C10.7534,13.562 10.6457,13.1197 10.6457,12.6146 C10.6457,12.1246 10.7566,11.6887 10.9786,11.307 C11.2016,10.92416 11.5169,10.63142 11.9244,10.42875 C12.3318,10.22609 12.8106,10.12476 13.3607,10.12476 Z M13.3607,10.96115 C13.0187,10.96115 12.7265,11.026 12.4841,11.1558 C12.2428,11.2845 12.0584,11.4743 11.9308,11.7252 C11.8032,11.9761 11.7394,12.2726 11.7394,12.6146 C11.7394,12.9567 11.8032,13.2532 11.9308,13.5041 C12.0584,13.755 12.2428,13.9454 12.4841,14.0751 C12.7265,14.2038 13.0187,14.2681 13.3607,14.2681 C13.7039,14.2681 13.9961,14.2033 14.2373,14.0735 C14.4797,13.9438 14.6641,13.7534 14.7906,13.5025 C14.9172,13.2516 14.9804,12.9556 14.9804,12.6146 C14.9804,12.2737 14.9172,11.9777 14.7906,11.7268 C14.6641,11.4759 14.4797,11.2855 14.2373,11.1558 C13.9961,11.026 13.7039,10.96115 13.3607,10.96115 Z" fill="currentColor" fill-rule="nonzero"/>
        <path d="M19,18.5 L5.5,18.5 L5.30036,18.4951 C3.18397,18.3911 1.5,16.6422 1.5,14.5 C1.5,12.635 2.77638,11.0681 4.50326,10.62518 L4.5,10.5 C4.5,8.29086 6.29086,6.5 8.5,6.5 C8.89189,6.5 9.27062,6.55636 9.62852,6.66141 C10.633,5.348 12.2174,4.5 14,4.5 C17.0376,4.5 19.5,6.96243 19.5,10 L19.4967,10.62512 C21.2236,11.068 22.5,12.6349 22.5,14.4999 C22.5,16.6421 20.816,18.391 18.6996,18.495 L18.5,18.5" stroke="currentColor"/>
    </g>
</svg>
