<svg width="24" height="24" viewBox="0 0 24 24" version="1.1" xmlns="http://www.w3.org/2000/svg">
    <title>
        code-small
    </title>
    <path d="M19.5,19.5 L22.5,19.5 L22.5,22.5 L19.5,22.5 L19.5,19.5 Z M13.5,19.5 L16.5,19.5 L16.5,22.5 L13.5,22.5 L13.5,19.5 Z M19.5,13.5 L22.5,13.5 L22.5,16.5 L19.5,16.5 L19.5,13.5 Z M13.5,13.5 L16.5,13.5 L16.5,16.5 L13.5,16.5 L13.5,13.5 Z M3.5,15.5 L8.5,15.5 L8.5,20.5 L3.5,20.5 L3.5,15.5 Z M1.5,13.5 L10.5,13.5 L10.5,22.5 L1.5,22.5 L1.5,13.5 Z M15.5,3.5 L20.5,3.5 L20.5,8.5 L15.5,8.5 L15.5,3.5 Z M13.5,1.5 L22.5,1.5 L22.5,10.5 L13.5,10.5 L13.5,1.5 Z M3.5,3.5 L8.5,3.5 L8.5,8.5 L3.5,8.5 L3.5,3.5 Z M1.5,1.5 L10.5,1.5 L10.5,10.5 L1.5,10.5 L1.5,1.5 Z" stroke="currentColor" stroke-width="1" fill="none" fill-rule="evenodd"/>
</svg>
