<svg xmlns="http://www.w3.org/2000/svg" width="48" height="48" viewBox="0 0 48px 48px"><g fill="none" stroke="currentColor" stroke-miterlimit="10"><path d="M36.5 36.5h6v6h-6zM26.5 36.5h6v6h-6zM36.5 26.5h6v6h-6zM26.5 26.5h6v6h-6z"/><g><path d="M9.5 30.5h8v8h-8z"/><path d="M21.5 42.5h-16v-16h13a3 3 0 0 1 3 3v13z"/></g><g><path d="M30.5 9.5h8v8h-8z"/><path d="M42.5 21.5h-13a3 3 0 0 1-3-3v-13h16v16z"/></g><g><path d="M9.5 9.5h8v8h-8z"/><path d="M18.5 21.5h-13v-16h16v13a3 3 0 0 1-3 3z"/></g></g></svg>