<svg width="48" height="48" viewBox="0 0 48 48" version="1.1" xmlns="http://www.w3.org/2000/svg">
    <title>
        commute-large
    </title>
    <path d="M19.5,30.5 L12.5,30.5 L12.5,37.5 L6.5,37.5 L6.5,6.5 L25.5,6.5 L25.5,25.5 M17.5,19.5 L21.5,19.5 L21.5,23.5 L17.5,23.5 L17.5,19.5 Z M17.5,10.5 L21.5,10.5 L21.5,14.5 L17.5,14.5 L17.5,10.5 Z M10.5,10.5 L14.5,10.5 L14.5,14.5 L10.5,14.5 L10.5,10.5 Z M10.5,19.5 L14.5,19.5 L14.5,23.5 L10.5,23.5 L10.5,19.5 Z M40.5,29.5 L40.5,42.5 C28.5,42.5 22.5,42.5 22.5,42.5 C21,42.5 19.5,41 19.5,39.5 C19.5,39.5 19.5,36.5 19.5,30.5 L30.5,21.5 L44.5,32.5" stroke="currentColor" stroke-width="1" fill="none" fill-rule="evenodd"/>
</svg>
