<svg width="24" height="24" viewBox="0 0 24 24" version="1.1" xmlns="http://www.w3.org/2000/svg">
    <title>
        compass-small
    </title>
    <g fill="currentColor" fill-rule="nonzero" stroke="none" stroke-width="1">
        <path d="M15.4574,11.8369 L15.4912,2.09229 L8.74628,9.12544 C8.36855,9.5193 8.07382,9.97828 7.87305,10.4752 L15.1479,13.4144 C15.3487,12.9175 15.4555,12.3826 15.4574,11.8369 Z"/>
        <path d="M7.52979,21.7974 L7.02979,21.7956 L7.02546,23.0456 L7.89066,22.1434 L7.52979,21.7974 Z M15.4912,2.09229 L15.9912,2.09402 L15.9955,0.844026 L15.1303,1.7462 L15.4912,2.09229 Z M7.56354,12.0528 L7.06355,12.051 L7.06355,12.051 L7.56354,12.0528 Z M14.2747,14.7642 L13.9138,14.4181 L13.9138,14.4181 L14.2747,14.7642 Z M15.4574,11.8369 L14.9574,11.8352 L14.9574,11.8352 L15.4574,11.8369 Z M8.74625,9.12544 L8.38538,8.77936 L8.38538,8.77936 L8.74625,9.12544 Z M14.6355,15.1103 C15.4798,14.2299 15.9531,13.0584 15.9574,11.8386 L14.9574,11.8352 C14.954,12.7982 14.5804,13.7231 13.9138,14.4181 L14.6355,15.1103 Z M8.06354,12.0545 C8.06688,11.0914 8.44054,10.1666 9.10713,9.47152 L8.38538,8.77936 C7.54107,9.65975 7.06777,10.8312 7.06355,12.051 L8.06354,12.0545 Z M7.62845,10.9157 L15.0179,13.9012 L15.3925,12.974 L8.00305,9.98848 L7.62845,10.9157 Z M8.02979,21.7991 L8.06354,12.0545 L7.06355,12.051 L7.02979,21.7956 L8.02979,21.7991 Z M13.9138,14.4181 L7.16891,21.4513 L7.89066,22.1434 L14.6355,15.1103 L13.9138,14.4181 Z M14.9912,2.09055 L14.9574,11.8352 L15.9574,11.8386 L15.9912,2.09402 L14.9912,2.09055 Z M9.10713,9.47152 L15.852,2.43837 L15.1303,1.7462 L8.38538,8.77936 L9.10713,9.47152 Z"/>
    </g>
</svg>
