<svg width="48" height="48" viewBox="0 0 48 48" version="1.1" xmlns="http://www.w3.org/2000/svg">
    <title>
        compass-large
    </title>
    <g fill="currentColor" fill-rule="nonzero" stroke="none" stroke-width="1">
        <path d="M31.4294,23.5805 L31.4973,4 L17.9443,18.1322 C17.1854,18.9236 16.5931,19.8458 16.1897,20.8444 L30.8076,26.7504 C31.211,25.7518 31.4256,24.677 31.4294,23.5805 Z"/>
        <path d="M15.5,43.5947 L14.9977,43.593 L14.9933,44.8488 L15.8626,43.9424 L15.5,43.5947 Z M31.4973,4 L31.9997,4.00174 L32.004,2.74589 L31.1348,3.6523 L31.4973,4 Z M15.5678,24.0142 L15.0655,24.0125 L15.5678,24.0142 Z M29.0529,29.4626 L28.6903,29.1149 L28.6903,29.1149 L29.0529,29.4626 Z M31.4294,23.5805 L30.9271,23.5788 L30.9271,23.5788 L31.4294,23.5805 Z M17.9443,18.1322 L17.5818,17.7845 L17.5818,17.7845 L17.9443,18.1322 Z M29.4155,29.8103 C31.0227,28.1343 31.9237,25.9043 31.9317,23.5822 L30.9271,23.5788 C30.9199,25.6429 30.119,27.6251 28.6903,29.1149 L29.4155,29.8103 Z M16.0702,24.016 C16.0773,21.9519 16.8782,19.9696 18.3069,18.4799 L17.5818,17.7845 C15.9745,19.4604 15.0735,21.6904 15.0655,24.0125 L16.0702,24.016 Z M15.8864,21.2636 L30.7345,27.2626 L31.1108,26.3311 L16.2628,20.3321 L15.8864,21.2636 Z M16.0023,43.5965 L16.0702,24.016 L15.0655,24.0125 L14.9977,43.593 L16.0023,43.5965 Z M28.6903,29.1149 L15.1374,43.247 L15.8626,43.9424 L29.4155,29.8103 L28.6903,29.1149 Z M30.995,3.99826 L30.9271,23.5788 L31.9317,23.5822 L31.9997,4.00174 L30.995,3.99826 Z M18.3069,18.4799 L31.8599,4.3477 L31.1348,3.6523 L17.5818,17.7845 L18.3069,18.4799 Z"/>
    </g>
</svg>
