<svg width="24" height="24" viewBox="0 0 24 24" version="1.1" xmlns="http://www.w3.org/2000/svg">
    <title>
        compare-small
    </title>
    <g stroke="none" stroke-width="1" fill="none" fill-rule="evenodd">
        <path stroke="currentColor" d="M12.5 4L12.5 19"/>
        <path d="M17.2624309,8.5 C18.9447514,8.5 19.8232044,9.0801105 19.8232044,10.1740331 C19.8232044,10.8618785 19.4585635,11.2430939 18.8535912,11.441989 C19.6574586,11.6491713 20.121547,12.0718232 20.121547,12.8259669 C20.121547,13.9198895 19.2430939,14.5 17.5607735,14.5 L15,14.5 L15,8.5 L17.2624309,8.5 Z M7.98618785,8.5 L10.9861878,14.5 L10.0331492,14.5 L9.28729282,13.0165746 L5.67403315,13.0165746 L4.93646409,14.5 L4,14.5 L7,8.5 L7.98618785,8.5 Z M17.378453,11.8314917 L15.8535912,11.8314917 L15.8535912,13.8121547 L17.378453,13.8121547 C18.5966851,13.8121547 19.2430939,13.5966851 19.2430939,12.8259669 C19.2430939,12.0552486 18.5966851,11.8314917 17.378453,11.8314917 Z M7.48066298,9.28729282 L5.98066298,12.320442 L8.98066298,12.320442 L7.48066298,9.28729282 Z M17.0801105,9.1878453 L15.8535912,9.1878453 L15.8535912,11.1685083 L17.0801105,11.1685083 C18.2983425,11.1685083 18.9447514,10.9447514 18.9447514,10.1740331 C18.9447514,9.40331492 18.2983425,9.1878453 17.0801105,9.1878453 Z" fill="currentColor" fill-rule="nonzero"/>
    </g>
</svg>
