<svg width="48" height="48" viewBox="0 0 48 48" version="1.1" xmlns="http://www.w3.org/2000/svg">
    <title>
        compare-large
    </title>
    <g stroke="none" stroke-width="1" fill="none" fill-rule="evenodd">
        <path stroke="currentColor" d="M24.5 9L24.5 38"/>
        <path d="M32.822,17.5 C35.664,17.5 37.148,18.48 37.148,20.328 C37.148,21.49 36.532,22.134 35.51,22.47 C36.868,22.82 37.652,23.534 37.652,24.808 C37.652,26.656 36.168,27.636 33.326,27.636 L29,27.636 L29,17.5 L32.822,17.5 Z M16.304,17.5 L21.372,27.636 L19.762,27.636 L18.502,25.13 L12.398,25.13 L11.152,27.636 L9.57,27.636 L14.638,17.5 L16.304,17.5 Z M33.018,23.128 L30.442,23.128 L30.442,26.474 L33.018,26.474 C35.076,26.474 36.168,26.11 36.168,24.808 C36.168,23.506 35.076,23.128 33.018,23.128 Z M15.45,18.83 L12.916,23.954 L17.984,23.954 L15.45,18.83 Z M32.514,18.662 L30.442,18.662 L30.442,22.008 L32.514,22.008 C34.572,22.008 35.664,21.63 35.664,20.328 C35.664,19.026 34.572,18.662 32.514,18.662 Z" fill="currentColor" fill-rule="nonzero"/>
    </g>
</svg>
