<svg data-name="Ebene 1" xmlns="http://www.w3.org/2000/svg" width="48" height="48" viewBox="0 0 48 48"><path d="M35 28.5a6.195 6.195 0 0 0 1.5-4.5 6.169 6.169 0 0 0-1.5-4.5M37.818 33.5A13.305 13.305 0 0 0 41.5 24a13.238 13.238 0 0 0-3.683-9.5M17.5 33.5l2 2 2.025-2-1.025-3 1-2-1-2 1-2-1-2v-2c2.017-.549 3-2.31 3-4.5a4.335 4.335 0 0 0-4.5-4.5 4.335 4.335 0 0 0-4.5 4.5 4.853 4.853 0 0 0 3 4.5z" fill="none" stroke="currentColor"/><circle cx="19" cy="15" r=".5" fill="none" stroke="currentColor"/><rect x="7.5" y="3.5" width="23" height="41" rx="2" ry="2" fill="none" stroke="currentColor" stroke-miterlimit="10"/><path fill="none" stroke="currentColor" stroke-miterlimit="10" d="M7.5 38.5h23"/><circle cx="19" cy="41.5" r=".875" fill="none" stroke="currentColor" stroke-miterlimit="10"/><path fill="none" stroke="currentColor" stroke-miterlimit="10" d="M16 7.5h6"/></svg>