<svg xmlns="http://www.w3.org/2000/svg" width="24" height="24" viewBox="0 0 24 24"><g fill="none" stroke="currentColor" stroke-miterlimit="10"><path d="M14.993 15.928l5.861-1.765s2.646-.595 2.646.873c0 1.244-1.186 1.728-2.002 2.101-2.925 1.339-7.359 3.432-7.359 3.432s-2.22.931-4.586.931H.5v-5c2.447 0 1.781.228 3.915-.872 1.27-.655 2.878-1.128 4.363-1.128H13.5a1.5 1.5 0 0 1 0 3H7M19.62 9.59c-2.65 1.22-7.19.92-9.8.73C7.5 10.16 7.5 8.25 7.5 7.11v-.22c0-1.14 0-3 2.32-3.21 2.61-.19 7.15-.48 9.8.73 1 .46.88 2.59.88 2.59s.12 2.14-.88 2.59zM10.5 3.66v6.74"/><path d="M18.5 7.14c0 1.28-.94 1.31-3.19 1.35-1.75 0-2.81 0-2.81-1.07v-.84c0-1.08 1.06-1.1 2.81-1.07 2.25 0 3.19.07 3.19 1.35v.28z"/></g></svg>