<svg width="24" height="24" viewBox="0 0 24 24" version="1.1" xmlns="http://www.w3.org/2000/svg">
    <title>
        connect-key-small
    </title>
    <path d="M18.5,14.7 C19.2,14 19.5,13 19.5,12 C19.5,11 19.2,10 18.5,9.2 M20.5,17.5 C21.9,16 22.5,14 22.5,12 C22.5,10 21.9,8 20.5,6.5 M2.5,19.5 L16.5,19.5 L2.5,19.5 Z M9,21.5 L10,21.5 L9,21.5 Z M3.5,0.5 L15.5,0.5 C16.1,0.5 16.5,0.9 16.5,1.5 L16.5,22.5 C16.5,23.1 16.1,23.5 15.5,23.5 L3.5,23.5 C2.9,23.5 2.5,23.1 2.5,22.5 L2.5,1.5 C2.5,0.9 2.9,0.5 3.5,0.5 Z M12.5,5.5 C12.5,3.8 11.2,2.5 9.5,2.5 C7.8,2.5 6.5,3.8 6.5,5.5 C6.5,6.8 7.3,7.9 8.5,8.3 L8.5,16.5 L9.5,17.5 L11.5,15 L10.5,13.5 L11.5,12 L10.5,10.5 L10.5,8.3 C11.7,7.9 12.5,6.8 12.5,5.5 Z" stroke="currentColor" stroke-width="1" fill="none" fill-rule="evenodd"/>
</svg>
