<svg xmlns="http://www.w3.org/2000/svg" width="48" height="48" viewBox="0 0 48 48"><g fill="none" stroke="currentColor" stroke-miterlimit="10"><path d="M39.75 20.68c-5.31 2.44-14.39 1.85-19.61 1.47-4.64-.33-4.64-4.15-4.64-6.42v-.46c0-2.27 0-6.09 4.64-6.42 5.22-.38 14.3-1 19.61 1.47 2 .91 1.74 5.18 1.74 5.18s.24 4.27-1.74 5.18zM20.5 8.82v13.36"/><path d="M38.5 15.84c0 3-2 3.07-6.91 3.15-3.78.06-6.09 0-6.09-2.5v-2C25.5 12 27.8 12 31.59 12c4.88.08 6.91.15 6.91 3.15v.69zM29.5 12.02v6.97M34.5 12.09v6.81M30.589 28.976l11.505-3.47s5.406-1.214 5.406 1.786c0 2.541-2.424 3.53-4.091 4.293-5.978 2.735-15.038 7.013-15.038 7.013S23.833 40.5 19 40.5H.5v-9c5 0 3.64-.752 8-3 2.595-1.338 5.881-2 8.917-2H28.09a2.5 2.5 0 1 1 0 5H15"/></g></svg>