<?xml version="1.0" encoding="UTF-8"?>
<svg width="48px" height="48px" viewBox="0 0 48 48" version="1.1" xmlns="http://www.w3.org/2000/svg" xmlns:xlink="http://www.w3.org/1999/xlink">
    <!-- Generator: sketchtool 48.1 (47250) - http://www.bohemiancoding.com/sketch -->
    <title>connect-key-large</title>
    <desc>Created with sketchtool.</desc>
    <defs></defs>
    <g id="icons-published" stroke="none" stroke-width="1" fill="none" fill-rule="evenodd">
        <g id="briefing" transform="translate(-288.000000, -410.000000)"></g>
        <g id="connect-key-large" stroke="#000000">
            <path d="M17.5,33.5 L19.5,35.5 L21.5,33.5 L20.5,30.5 L21.5,28.5 L20.5,26.5 L21.5,24.5 L20.5,22.5 L20.5,20.5 C22.5,20 23.5,18.2 23.5,16 C23.6,13.6 21.7,11.6 19.3,11.5 C19.2,11.5 19.1,11.5 19,11.5 C16.6,11.4 14.6,13.3 14.5,15.7 C14.5,15.8 14.5,15.9 14.5,16 C14.5,18 15.7,19.7 17.5,20.5 L17.5,33.5 Z" id="Shape"></path>
            <path d="M35,28.5 C36.1,27.3 36.6,25.6 36.5,24 C36.6,22.4 36.1,20.7 35,19.5" id="Path"></path>
            <path d="M37.8,33.5 C40.2,30.9 41.6,27.5 41.5,24 C41.6,20.5 40.3,17 37.8,14.5" id="Path"></path>
            <circle id="Oval" cx="19" cy="15" r="1"></circle>
            <path d="M9.5,3.5 L28.5,3.5 C29.6,3.5 30.5,4.4 30.5,5.5 L30.5,42.5 C30.5,43.6 29.6,44.5 28.5,44.5 L9.5,44.5 C8.4,44.5 7.5,43.6 7.5,42.5 L7.5,5.5 C7.5,4.4 8.4,3.5 9.5,3.5 Z" id="Shape"></path>
            <path d="M7.5,38.5 L30.5,38.5" id="Shape"></path>
            <circle id="Oval" cx="19" cy="41.5" r="1"></circle>
            <path d="M16,7.5 L22,7.5" id="Shape"></path>
        </g>
    </g>
</svg>