<svg width="24" height="24" viewBox="0 0 24 24" version="1.1" xmlns="http://www.w3.org/2000/svg">
    <title>
        country-small
    </title>
    <path d="M3.5,12.5 L3.5,17 M3.5,12.5 L1,12.5 L3.5,5.5 L6,12.5 L3.5,12.5 Z M7.5,4.5 C11.7105,7.5 11.1579,12.2143 4,22.5 L20,22.5 C17.8947,11.7857 14.5263,6.64286 9.47368,4.5 L7.5,4.5 Z M7.5,4.5 C6,3.5 3.5,1.5 1,1.5 M20.5,7.5 C21.8807,7.5 23,6.38071 23,5 C23,3.61929 21.8807,2.5 20.5,2.5 C19.1193,2.5 18,3.61929 18,5 C18,6.38071 19.1193,7.5 20.5,7.5 Z M20.5,7.5 L20.5,12 M9.5,4.5 C11.5,3 13,1.5 17,1.5" stroke="currentColor" stroke-width="1" fill="none" fill-rule="evenodd"/>
</svg>
