<svg width="48" height="48" viewBox="0 0 48 48" version="1.1" xmlns="http://www.w3.org/2000/svg">
    <title>
        country-large
    </title>
    <path d="M7.5,25.5 L7.5,35 M7.5,25.5 L2.5,25.5 L7.5,11.5 L12.5,25.5 L7.5,25.5 Z M15,9.5 C23.4211,15.5 22.3158,24.9286 8,45.5 L40,45.5 C35.7895,24.0714 29.0526,13.7857 18.9474,9.5 L15,9.5 Z M15,9.5 C12,7.5 7,3.5 2,3.5 M40.5,15.5 C43.2614,15.5 45.5,13.2614 45.5,10.5 C45.5,7.73858 43.2614,5.5 40.5,5.5 C37.7386,5.5 35.5,7.73858 35.5,10.5 C35.5,13.2614 37.7386,15.5 40.5,15.5 Z M40.5,15.5 L40.5,25 M19,9.5 C23,6.5 26,3.5 34,3.5" stroke="currentColor" stroke-width="1" fill="none" fill-rule="evenodd"/>
</svg>
