<svg width="48" height="48" viewBox="0 0 48 48" version="1.1" xmlns="http://www.w3.org/2000/svg">
    <title>
        cross-traffic-assist-rear-large
    </title>
    <path d="M28,39 L23.5,43.5 L19,39 M23.5,43.5 L23.5,32 M14.1177517,26 C14.4309825,27.9747407 15.3526859,29.7468928 16.6847309,31.1183251 M30.6899392,30.7094867 C31.8198515,29.4023271 32.5993014,27.7838179 32.8822483,26 M15.4132625,34.0321068 C13.0720945,32.0439704 11.472812,29.2087148 11.089075,26 M35.910925,26 C35.5536592,28.9873695 34.1427663,31.6510271 32.0604901,33.608729 M14.170888,36.879215 C10.7976622,34.3331075 8.49802588,30.4401459 8.0716488,26 M38.9283512,26 C38.5262544,30.1872988 36.4581719,33.8879584 33.3947918,36.4312904 M19.7776296,6.01026552 C20.4925726,5.73336186 21.0666961,5.56477598 21.5,5.50450788 C22.5,5.3654182 24.605679,5.37814261 25.5,5.50450788 C25.8952853,5.56036068 26.4680583,5.73264874 27.2183191,6.02137205 C27.9905114,6.31854704 28.5,7.06052669 28.5,7.88792862 L28.5,25.500168 C28.5,26.6047375 27.6045695,27.500168 26.5,27.500168 L20.4999625,27.500168 C19.395393,27.500168 18.4999625,26.6047375 18.4999625,25.500168 L18.4999625,7.87527077 C18.4999602,7.04943927 19.0075405,6.30852777 19.7776296,6.01026552 Z M20.5,21.5 L26.4545455,21.5 L26.4545455,23.5 C26.4545455,24.0522847 26.0068302,24.5 25.4545455,24.5 L21.5304178,24.5 C20.9840404,24.5 20.5388101,24.0614645 20.5305326,23.5151498 L20.5,21.5 L20.5,21.5 Z M20.5,14.5 L26.4545455,14.5 L26.4545455,12.5 C26.4545455,11.9477153 26.0068302,11.5 25.4545455,11.5 L21.5304178,11.5 C20.9840404,11.5 20.5388101,11.9385355 20.5305326,12.4848502 L20.5,14.5 L20.5,14.5 Z" stroke="currentColor" stroke-width="1" fill="none" fill-rule="evenodd"/>
</svg>
