<?xml version="1.0" encoding="UTF-8"?>
<svg width="48px" height="48px" viewBox="0 0 48 48" version="1.1" xmlns="http://www.w3.org/2000/svg" xmlns:xlink="http://www.w3.org/1999/xlink">
    <!-- Generator: sketchtool 48.1 (47250) - http://www.bohemiancoding.com/sketch -->
    <title>cubic-capacity-large</title>
    <desc>Created with sketchtool.</desc>
    <defs></defs>
    <g id="icons-published" stroke="none" stroke-width="1" fill="none" fill-rule="evenodd">
        <g id="briefing" transform="translate(-1152.000000, -410.000000)"></g>
        <g id="cubic-capacity-large" stroke="#000000">
            <path d="M23.5,38.5 C23.5,41.3 21.3,43.5 18.5,43.5 C15.8,43.5 13.5,41.3 13.5,38.5 C13.5,35.7 15.8,33.5 18.5,33.5 C21.3,33.5 23.5,35.7 23.5,38.5 Z M22.1,35 L27.4,22.5 L22.1,35 Z M23,22.5 L18.4,33.5 L23,22.5 Z" id="Shape"></path>
            <path d="M16.5,10.5 L34.5,10.5 L16.5,10.5 Z M34.5,22.5 L16.5,22.5 L16.5,7.5 C16.5,5.8 17.8,4.5 19.5,4.5 L31.5,4.5 C33.2,4.5 34.5,5.8 34.5,7.5 L34.5,22.5 Z" id="Shape"></path>
        </g>
    </g>
</svg>