<svg width="24" height="24" viewBox="0 0 24 24" version="1.1" xmlns="http://www.w3.org/2000/svg">
    <title>
        cubic-capacity-small
    </title>
    <path d="M10.5,20 C10.5,21.4 9.4,22.5 8,22.5 C6.6,22.5 5.5,21.4 5.5,20 C5.5,18.6 6.7,17.5 8,17.5 C9.4,17.5 10.5,18.6 10.5,20 Z M9,17.7 L11.4,12.5 L9,17.7 Z M6.5,5.5 L17.5,5.5 L6.5,5.5 Z M17.5,12.5 L6.5,12.5 L6.5,3.5 C6.5,2.4 7.4,1.5 8.5,1.5 L15.5,1.5 C16.6,1.5 17.5,2.4 17.5,3.5 L17.5,12.5 Z" stroke="currentColor" stroke-width="1" fill="none" fill-rule="evenodd"/>
</svg>
