<svg width="24" height="24" viewBox="0 0 24 24" version="1.1" xmlns="http://www.w3.org/2000/svg">
    <title>
        damper-small
    </title>
    <path d="M12.5,19.5 C11.3954,19.5 10.5,20.3954 10.5,21.5 C10.5,22.6046 11.3954,23.5 12.5,23.5 C13.6046,23.5 14.5,22.6046 14.5,21.5 C14.5,20.3954 13.6046,19.5 12.5,19.5 Z M12.5,16.5 L12.5,19.5 M17,16.6176 L8,16.6176 L17,12 L8,12 L17,7.5 L8,7.5 M12.5,4.5 L12.5,7.5 M12.5,4.5 C13.6046,4.5 14.5,3.60457 14.5,2.5 C14.5,1.39543 13.6046,0.5 12.5,0.5 C11.3954,0.5 10.5,1.39543 10.5,2.5 C10.5,3.60457 11.3954,4.5 12.5,4.5 Z" stroke="currentColor" stroke-width="1" fill="none" fill-rule="evenodd" stroke-linejoin="bevel"/>
</svg>
