<svg width="48" height="48" viewBox="0 0 48 48" version="1.1" xmlns="http://www.w3.org/2000/svg">
    <title>
        damper-large
    </title>
    <path d="M24.5,38.5 C22.2909,38.5 20.5,40.2909 20.5,42.5 C20.5,44.7091 22.2909,46.5 24.5,46.5 C26.7091,46.5 28.5,44.7091 28.5,42.5 C28.5,40.2909 26.7091,38.5 24.5,38.5 Z M24.5,34.5 L24.5,38.5 M16,13.5 L33,13.5 L16,20.5 L33,20.5 L16,27.5 L33,27.5 L16,34.5 L33,34.5 M24.5,9.5 L24.5,13.5 M24.5,9.5 C26.7091,9.5 28.5,7.70914 28.5,5.5 C28.5,3.29086 26.7091,1.5 24.5,1.5 C22.2909,1.5 20.5,3.29086 20.5,5.5 C20.5,7.70914 22.2909,9.5 24.5,9.5 Z" stroke="currentColor" stroke-width="1" fill="none" fill-rule="evenodd" stroke-linejoin="bevel"/>
</svg>
