<svg width="48" height="48" viewBox="0 0 48 48" version="1.1" xmlns="http://www.w3.org/2000/svg">
    <title>
        dashboard-large
    </title>
    <path d="M3.5,3.5 L12.5,3.5 L12.5,12.5 L3.5,12.5 L3.5,3.5 Z M19.5,3.5 L28.5,3.5 L28.5,12.5 L19.5,12.5 L19.5,3.5 Z M35.5,3.5 L44.5,3.5 L44.5,12.5 L35.5,12.5 L35.5,3.5 Z M3.5,19.5 L12.5,19.5 L12.5,28.5 L3.5,28.5 L3.5,19.5 Z M19.5,19.5 L28.5,19.5 L28.5,28.5 L19.5,28.5 L19.5,19.5 Z M35.5,19.5 L44.5,19.5 L44.5,28.5 L35.5,28.5 L35.5,19.5 Z M3.5,35.5 L12.5,35.5 L12.5,44.5 L3.5,44.5 L3.5,35.5 Z M19.5,35.5 L28.5,35.5 L28.5,44.5 L19.5,44.5 L19.5,35.5 Z M35.5,35.5 L44.5,35.5 L44.5,44.5 L35.5,44.5 L35.5,35.5 Z" stroke="currentColor" stroke-width="1" fill="none" fill-rule="evenodd"/>
</svg>
