<svg width="24" height="24" viewBox="0 0 24 24" version="1.1" xmlns="http://www.w3.org/2000/svg">
    <title>
        diagnostics-small
    </title>
    <path d="M9.5,13.5 L9.5,16.5 C9.5,17.6046 8.60457,18.5 7.5,18.5 L5.5,18.5 C4.39543,18.5 3.5,19.3954 3.5,20.5 C3.5,21.6046 4.39543,22.5 5.5,22.5 L16.5,22.5 C17.6046,22.5 18.5,21.6046 18.5,20.5 L18.5,15.5 M9.5,13.5 C7.5,13.5 6.66667,11.8333 6.5,11 L4.78919,3.72904 C4.64149,3.10133 5.11775,2.5 5.7626,2.5 L8,2.5 M9.5,13.5 C11.5,13.5 12.3333,11.8333 12.5,11 L14.2108,3.72904 C14.3585,3.10133 13.8822,2.5 13.2374,2.5 L11,2.5 M18.5,15.5 C19.6046,15.5 20.5,14.6046 20.5,13.5 C20.5,12.3954 19.6046,11.5 18.5,11.5 C17.3954,11.5 16.5,12.3954 16.5,13.5 C16.5,14.6046 17.3954,15.5 18.5,15.5 Z M7.5,1 L7.5,4 M11.5,1 L11.5,4" stroke="currentColor" stroke-width="1" fill="none" fill-rule="evenodd"/>
</svg>
