<svg width="48" height="48" viewBox="0 0 48 48" version="1.1" xmlns="http://www.w3.org/2000/svg">
    <title>
        distance-large
    </title>
    <path d="M31.4,27.7000008 C31.4575067,23.8024773 34.6,20.5 38.4,20.6 C42.3,20.6 45.5,23.8 45.6,27.7 C45.6,31.6 38.5,41 38.5,41 C38.5,41 31.3424933,31.5975242 31.4,27.7000008 Z M38.5,24.4 C40.2,24.4 41.6,25.7 41.6,27.4 C41.6,29.1 40.3,30.5 38.6,30.5 C38.6,30.5 38.5,30.5 38.5,30.5 C36.8,30.5 35.4,29.1 35.4,27.4 C35.4,25.8 36.8,24.4 38.5,24.4 L38.5,24.4 Z M31.4,37 L26.5,34.5 L26.5,7 L38.5,12.5 L38.5,18 M26.5,7 L14.5,12.5 M26.5,34.5 L14.5,41 M2.5,34.5 L2.5,7 L14.5,12.5 L14.5,41 L2.5,34.5 Z" stroke="currentColor" stroke-width="1" fill="none" fill-rule="evenodd"/>
</svg>
