<?xml version="1.0" encoding="UTF-8"?>
<svg width="48px" height="48px" viewBox="0 0 48 48" version="1.1" xmlns="http://www.w3.org/2000/svg" xmlns:xlink="http://www.w3.org/1999/xlink">
    <!-- Generator: sketchtool 48.1 (47250) - http://www.bohemiancoding.com/sketch -->
    <title>distance-large</title>
    <desc>Created with sketchtool.</desc>
    <defs></defs>
    <g id="icons-published" stroke="none" stroke-width="1" fill="none" fill-rule="evenodd">
        <g id="briefing" transform="translate(-3168.000000, -410.000000)"></g>
        <g id="distance-large" stroke="#000000">
            <path d="M31.4,27.7000008 C31.4575067,23.8024773 34.6,20.5 38.4,20.6 C42.3,20.6 45.5,23.8 45.6,27.7 C45.6,31.6 38.5,41 38.5,41 C38.5,41 31.3424933,31.5975242 31.4,27.7000008 Z" id="Shape"></path>
            <path d="M38.5,24.4 C40.2,24.4 41.6,25.7 41.6,27.4 C41.6,29.1 40.3,30.5 38.6,30.5 C38.6,30.5 38.5,30.5 38.5,30.5 C36.8,30.5 35.4,29.1 35.4,27.4 C35.4,25.8 36.8,24.4 38.5,24.4 Z" id="Shape"></path>
            <polyline id="Shape" stroke-linejoin="round" points="31.4 37 26.5 34.5 26.5 7 38.5 12.5 38.5 18"></polyline>
            <path d="M26.5,7 L14.5,12.5" id="Path" stroke-linecap="round"></path>
            <path d="M26.5,34.5 L14.5,41" id="Path" stroke-linecap="round"></path>
            <polygon id="Shape" stroke-linecap="round" stroke-linejoin="round" points="2.5 34.5 2.5 7 14.5 12.5 14.5 41"></polygon>
        </g>
    </g>
</svg>