<svg xmlns="http://www.w3.org/2000/svg" width="48" height="48" viewBox="0 0 48px 48px"><g fill="none" stroke="currentColor"><path d="M31.434 27.315a6.851 6.851 0 0 1 7.006-6.735 7.22 7.22 0 0 1 7.15 7.14c0 3.88-7.12 13.28-7.12 13.28s-6.919-9.252-7.029-13.187c0-.031-.009-.364-.006-.498z"/><path d="M38.48 24.44a3.09 3.09 0 1 1 .001 6.179 3.09 3.09 0 0 1-.001-6.18z"/><g><path d="M31.43 36.99l-4.93-2.5V6.998l.065-.029L38.5 12.49v5.5M26.5 7l-12 5.5M26.5 34.5l-12 6.5"/><path stroke-linecap="square" d="M14.435 41.043L2.5 34.5V7l12 5.5v28.505z"/></g></g></svg>