<svg width="24" height="24" viewBox="0 0 24 24" version="1.1" xmlns="http://www.w3.org/2000/svg">
    <title>
        distance-small
    </title>
    <path d="M11.7,19.6 L8.5,21.3 L8.5,4.8 L15.5,1 L22.5,5.2 L22.5,21.2 L19.5,19.5 M15.5,5.2 L15.5,1 M8.5,21.2999992 L0.5,17 L0.5,1 L8.5,4.8 L8.5,21.2999992 Z M11.5,11.6 C11.5,9.5 13.2,7.7 15.3,7.7 C15.4,7.7 15.4,7.7 15.5,7.7 C17.7,7.7 19.5,9.5 19.5,11.7 C19.5,13.9 15.5,19.8 15.5,19.8 C15.5,19.8 11.6,14.1 11.5,11.8 C11.5,11.7 11.5,11.7 11.5,11.6 Z" stroke="currentColor" stroke-width="1" fill="none" fill-rule="evenodd"/>
</svg>
