<svg width="24" height="24" viewBox="0 0 24 24" version="1.1" xmlns="http://www.w3.org/2000/svg">
    <title>
        document-pricelist-dollar-small
    </title>
    <g stroke="none" stroke-width="1" fill="none" fill-rule="evenodd">
        <path d="M19.5,7 L19.5,22.5 L3.5,22.5 L3.5,2.5 L15,2.5 L19.5,7 Z M14.5,2.5 L14.5,7.5 L19.5,7.5" stroke="currentColor"/>
        <path d="M9.72746155,19.2099998 L9.72746155,17.9009998 C8.59446155,17.8789998 7.68146155,17.7029998 7.09846155,17.5049998 L7.09846155,16.6579998 C7.67046155,16.8339998 8.85846155,17.0429998 9.82646155,17.0429998 C11.4104616,17.0429998 12.3564616,16.5809998 12.3564616,15.9539998 C12.3564616,15.2939998 11.7074616,14.9639998 10.1784616,14.5899998 C8.00046155,14.0509998 7.19746155,13.5009998 7.19746155,12.3459998 C7.19746155,11.3889998 8.01146155,10.6409998 9.72746155,10.4759998 L9.72746155,9.19999981 L10.6184615,9.19999981 L10.6184615,10.4319998 C11.6304615,10.4429998 12.4884616,10.6079998 13.0494616,10.8389998 L13.0494616,11.6969998 C12.4444615,11.4769998 11.5314615,11.2899998 10.5304616,11.2899998 C9.07846155,11.2899998 8.31946155,11.7189998 8.31946155,12.3349998 C8.31946155,12.9949998 8.93546155,13.3249998 10.4974616,13.6989998 C12.5654616,14.1939998 13.4784616,14.7879998 13.4784616,15.9429998 C13.4784616,16.9109998 12.4444615,17.7139998 10.6184615,17.8789998 L10.6184615,19.2099998 L9.72746155,19.2099998 Z" fill="currentColor" fill-rule="nonzero"/>
    </g>
</svg>
