<svg width="48" height="48" viewBox="0 0 48 48" version="1.1" xmlns="http://www.w3.org/2000/svg">
    <title>
        document-pricelist-dollar-large
    </title>
    <g stroke="none" stroke-width="1" fill="none" fill-rule="evenodd">
        <path d="M41.5,13.5 L41.5,45.5 L7.5,45.5 L7.5,2.5 L30.5,2.5 L41.5,13.5 Z M30.5,2.5 L30.5,13.5 L41.5,13.5 M17,37.5 L29,37.5 M13,37.5 L15,37.5 M17,31.5 L35,31.5 M13,31.5 L15,31.5" stroke="currentColor"/>
        <path d="M17.1486282,22.3499998 L17.1486282,20.5649998 C15.6036282,20.5349998 14.3586282,20.2949998 13.5636282,20.0249998 L13.5636282,18.8699998 C14.3436282,19.1099998 15.9636282,19.3949998 17.2836282,19.3949998 C19.4436282,19.3949998 20.7336282,18.7649998 20.7336282,17.9099998 C20.7336282,17.0099998 19.8486282,16.5599998 17.7636282,16.0499998 C14.7936282,15.3149998 13.6986282,14.5649998 13.6986282,12.9899998 C13.6986282,11.6849998 14.8086282,10.6649998 17.1486282,10.4399998 L17.1486282,8.69999981 L18.3636282,8.69999981 L18.3636282,10.3799998 C19.7436282,10.3949998 20.9136282,10.6199998 21.6786282,10.9349998 L21.6786282,12.1049998 C20.8536282,11.8049998 19.6086282,11.5499998 18.2436282,11.5499998 C16.2636282,11.5499998 15.2286282,12.1349998 15.2286282,12.9749998 C15.2286282,13.8749998 16.0686282,14.3249998 18.1986282,14.8349998 C21.0186282,15.5099998 22.2636282,16.3199998 22.2636282,17.8949998 C22.2636282,19.2149998 20.8536282,20.3099998 18.3636282,20.5349998 L18.3636282,22.3499998 L17.1486282,22.3499998 Z" fill="currentColor" fill-rule="nonzero"/>
    </g>
</svg>
