<svg width="48" height="48" viewBox="0 0 48 48" version="1.1" xmlns="http://www.w3.org/2000/svg">
    <title>
        document-pdf-large
    </title>
    <g stroke="none" stroke-width="1" fill="none" fill-rule="evenodd">
        <path d="M30.5,2.5 L30.5,13.5 L41.5,13.5 M41.5,13.5 L41.5,45.5 L7.5,45.5 L7.5,2.5 L30.5,2.5 L41.5,13.5 Z" stroke="currentColor"/>
        <path d="M15.896,32.036 C18.349,32.036 19.229,33.059 19.229,34.511 C19.229,35.963 18.294,37.03 15.841,37.03 L13.883,37.03 L13.883,40 L12.75,40 L12.75,32.036 L15.896,32.036 Z M24.7780769,32.036 C27.5720769,32.036 29.1340769,33.587 29.1340769,36.018 C29.1340769,38.361 27.5060769,40 24.7780769,40 L21.6100769,40 L21.6100769,32.036 L24.7780769,32.036 Z M37.6421538,32.036 L37.6421538,32.96 L32.8131538,32.96 L32.8131538,35.688 L36.9491538,35.688 L36.9491538,36.612 L32.8131538,36.612 L32.8131538,40 L31.6801538,40 L31.6801538,32.036 L37.6421538,32.036 Z M24.8550769,32.96 L22.7430769,32.96 L22.7430769,39.076 L24.8550769,39.076 C26.9450769,39.076 27.9790769,37.8 27.9790769,36.018 C27.9790769,34.236 26.9450769,32.96 24.8550769,32.96 Z M15.654,32.96 L13.883,32.96 L13.883,36.106 L15.654,36.106 C17.491,36.106 18.074,35.534 18.074,34.511 C18.074,33.488 17.491,32.96 15.654,32.96 Z" fill="currentColor" fill-rule="nonzero"/>
    </g>
</svg>
