<svg width="24" height="24" viewBox="0 0 24 24" version="1.1" xmlns="http://www.w3.org/2000/svg">
    <title>
        document-pricelist-euro-small
    </title>
    <g stroke="none" stroke-width="1" fill="none" fill-rule="evenodd">
        <path d="M19.5,7 L19.5,22.5 L3.5,22.5 L3.5,2.5 L15,2.5 L19.5,7 Z M14.5,2.5 L14.5,7.5 L19.5,7.5" stroke="currentColor"/>
        <path d="M6.40546155,13.7419998 L6.40546155,12.8509998 L7.50546155,12.8509998 C8.07746155,11.1679998 9.63946155,10.1999998 11.5754615,10.1999998 C12.4444615,10.1999998 13.3574616,10.3209998 14.0504615,10.6179998 L14.0504615,11.5749998 C13.2584615,11.2559998 12.4554615,11.1459998 11.7294615,11.1459998 C10.1674616,11.1459998 9.05646155,11.7399998 8.60546155,12.8509998 L12.6314616,12.8509998 L12.6314616,13.7419998 L8.40746155,13.7419998 C8.37446155,13.9289998 8.37446155,14.1159998 8.37446155,14.3139998 C8.37446155,14.5229998 8.38546155,14.7319998 8.40746155,14.9189998 L12.6314616,14.9189998 L12.6314616,15.8099998 L8.63846155,15.8099998 C9.13346155,17.0199998 10.3874616,17.4929998 11.6964616,17.4929998 C12.9724616,17.4929998 13.6654615,17.2949998 14.1164616,17.1299998 L14.1164616,18.0539998 C13.5664615,18.2739998 12.8404616,18.4279998 11.6744616,18.4279998 C9.65046155,18.4279998 8.05546155,17.5479998 7.49446155,15.8099998 L6.40546155,15.8099998 L6.40546155,14.9189998 L7.30746155,14.9189998 C7.28546155,14.7319998 7.27446155,14.5229998 7.27446155,14.3139998 C7.27446155,14.1159998 7.28546155,13.9289998 7.30746155,13.7419998 L6.40546155,13.7419998 Z" fill="currentColor" fill-rule="nonzero"/>
    </g>
</svg>
