<svg width="24" height="24" viewBox="0 0 24 24" version="1.1" xmlns="http://www.w3.org/2000/svg">
    <title>
        document-pdf-small
    </title>
    <g stroke="none" stroke-width="1" fill="none" fill-rule="evenodd">
        <path d="M19.5,20 L19.5,22.5 L3.5,22.5 L3.5,2.5 L15,2.5 L19.5,7 L19.5,10 M14.5,2.5 L14.5,7.5 L19.5,7.5" stroke="currentColor"/>
        <path d="M6.028,18 L6.028,12.208 L8.316,12.208 C10.1,12.208 10.74,12.952 10.74,14.008 C10.74,15.064 10.06,15.84 8.276,15.84 L6.852,15.84 L6.852,18 L6.028,18 Z M8.14,12.88 L6.852,12.88 L6.852,15.168 L8.14,15.168 C9.476,15.168 9.9,14.752 9.9,14.008 C9.9,13.264 9.476,12.88 8.14,12.88 Z M12.164,18 L12.164,12.208 L14.468,12.208 C16.5,12.208 17.636,13.336 17.636,15.104 C17.636,16.808 16.452,18 14.468,18 L12.164,18 Z M14.524,12.88 L12.988,12.88 L12.988,17.328 L14.524,17.328 C16.044,17.328 16.796,16.4 16.796,15.104 C16.796,13.808 16.044,12.88 14.524,12.88 Z M19.18,18 L20.004,18 L20.004,15.536 L23.012,15.536 L23.012,14.864 L20.004,14.864 L20.004,12.88 L23.516,12.88 L23.516,12.208 L19.18,12.208 L19.18,18 Z" fill="currentColor" fill-rule="nonzero"/>
    </g>
</svg>
