<svg width="24" height="24" viewBox="0 0 24 24" version="1.1" xmlns="http://www.w3.org/2000/svg">
    <title>
        document-taxation-small
    </title>
    <g stroke="none" stroke-width="1" fill="none" fill-rule="evenodd">
        <path d="M19.5,20 L19.5,22.5 L3.5,22.5 L3.5,2.5 L15,2.5 L19.5,7 L19.5,10 M14.5,2.5 L14.5,7.5 L19.5,7.5" stroke="currentColor"/>
        <path d="M4.9000001,12.672 L4.9000001,12 L10.4120001,12 L10.4120001,12.672 L8.0680001,12.672 L8.0680001,17.792 L7.2440001,17.792 L7.2440001,12.672 L4.9000001,12.672 Z M10.7160001,17.792 L13.6120001,12 L14.5640001,12 L17.4600001,17.792 L16.5400001,17.792 L15.8200001,16.36 L12.3320001,16.36 L11.6200001,17.792 L10.7160001,17.792 Z M14.0760001,12.76 L12.6280001,15.688 L15.5240001,15.688 L14.0760001,12.76 Z M17.5960001,17.792 L20.1640001,14.8 L17.7800001,12 L18.8200001,12 L20.6680001,14.24 L22.5320001,12 L23.5160001,12 L21.1480001,14.768 L23.7480001,17.792 L22.7080001,17.792 L20.6440001,15.328 L18.5800001,17.792 L17.5960001,17.792 Z" fill="currentColor" fill-rule="nonzero"/>
    </g>
</svg>
