<svg width="48" height="48" viewBox="0 0 48 48" version="1.1" xmlns="http://www.w3.org/2000/svg">
    <title>
        document-pricelist-euro-large
    </title>
    <g stroke="none" stroke-width="1" fill="none" fill-rule="evenodd">
        <path d="M41.5,13.5 L41.5,45.5 L7.5,45.5 L7.5,2.5 L30.5,2.5 L41.5,13.5 Z M30.5,2.5 L30.5,13.5 L41.5,13.5 M17,37.5 L29,37.5 M13,37.5 L15,37.5 M17,31.5 L35,31.5 M13,31.5 L15,31.5" stroke="currentColor"/>
        <path d="M12.6186282,14.33 L12.6186282,13.115 L14.1186282,13.115 C14.8986282,10.82 17.0286282,9.5 19.6686282,9.5 C20.8536282,9.5 22.0986282,9.665 23.0436282,10.07 L23.0436282,11.375 C21.9636282,10.94 20.8686282,10.79 19.8786282,10.79 C17.7486282,10.79 16.2336282,11.6 15.6186282,13.115 L21.1086282,13.115 L21.1086282,14.33 L15.3486282,14.33 C15.3036282,14.585 15.3036282,14.84 15.3036282,15.11 C15.3036282,15.395 15.3186282,15.68 15.3486282,15.935 L21.1086282,15.935 L21.1086282,17.15 L15.6636282,17.15 C16.3386282,18.8 18.0486282,19.445 19.8336282,19.445 C21.5736282,19.445 22.5186282,19.175 23.1336282,18.95 L23.1336282,20.21 C22.3836282,20.51 21.3936282,20.72 19.8036282,20.72 C17.0436282,20.72 14.8686282,19.52 14.1036282,17.15 L12.6186282,17.15 L12.6186282,15.935 L13.8486282,15.935 C13.8186282,15.68 13.8036282,15.395 13.8036282,15.11 C13.8036282,14.84 13.8186282,14.585 13.8486282,14.33 L12.6186282,14.33 Z" fill="currentColor" fill-rule="nonzero"/>
    </g>
</svg>
