<svg width="48" height="48" viewBox="0 0 48 48" version="1.1" xmlns="http://www.w3.org/2000/svg">
    <title>
        document-taxation-large
    </title>
    <g stroke="none" stroke-width="1" fill="none" fill-rule="evenodd">
        <path d="M41.5,13.5 L41.5,45.5 L7.5,45.5 L7.5,2.5 L30.5,2.5 L41.5,13.5 Z M30.5,2.5 L30.5,13.5 L41.5,13.5 M13,33.5 L35,33.5 M13,37.5 L29,37.5" stroke="currentColor"/>
        <path d="M10.75,20.0240004 L10.75,19.1000004 L18.329,19.1000004 L18.329,20.0240004 L15.106,20.0240004 L15.106,27.0640004 L13.973,27.0640004 L13.973,20.0240004 L10.75,20.0240004 Z M18.3340769,27.0640004 L22.3160769,19.1000004 L23.6250769,19.1000004 L27.6070769,27.0640004 L26.3420769,27.0640004 L25.3520769,25.0950004 L20.5560769,25.0950004 L19.5770769,27.0640004 L18.3340769,27.0640004 Z M22.9540769,20.1450004 L20.9630769,24.1710004 L24.9450769,24.1710004 L22.9540769,20.1450004 Z M28.2171538,27.0640004 L31.7481538,22.9500004 L28.4701538,19.1000004 L29.9001538,19.1000004 L32.4411538,22.1800004 L35.0041538,19.1000004 L36.3571538,19.1000004 L33.1011538,22.9060004 L36.6761538,27.0640004 L35.2461538,27.0640004 L32.4081538,23.6760004 L29.5701538,27.0640004 L28.2171538,27.0640004 Z" fill="currentColor" fill-rule="nonzero"/>
    </g>
</svg>
