<svg width="48" height="48" viewBox="0 0 48 48" version="1.1" xmlns="http://www.w3.org/2000/svg">
    <title>
        door-open-large
    </title>
    <path d="M7.5,26.5 L14.5000584,19.5 L14.5000584,9.89859225 C14.5000612,8.38974766 15.44098,7.04099109 16.8570261,6.52000576 C18.1173536,6.05631169 19.131694,5.77340953 19.9000473,5.67129928 C21.7000405,5.43208934 25.4902485,5.45397309 27.1000203,5.67129928 C27.801719,5.76603167 28.8141436,6.05552735 30.1372941,6.53978631 C31.5563283,7.05913351 32.5,8.40939506 32.5,9.92048056 C32.5,14.2108681 32.5,17.4040413 32.5,19.5 L39.5,26.5 M32.5,30.5 C32.5,32.3150927 32.5,35.4484283 32.5,39.9000067 C32.5,41.8882318 30.8882251,43.5000135 28.9,43.5000135 L18.1,43.5000135 C16.1117749,43.5000135 14.5,41.8882386 14.5,39.9000135 L14.5,30.5 M17.5,21.5 L29.5,21.5 L29.161497,18.1010317 C29.0698266,17.1805527 28.2953899,16.4794111 27.3703575,16.4794111 L19.6296425,16.4794111 C18.7046101,16.4794111 17.9301734,17.1805527 17.838503,18.1010317 L17.5,21.5 L17.5,21.5 Z M17.5,32.5 L29.5,32.5 L29.1620893,35.8791067 C29.070073,36.7992699 28.295775,37.5 27.3710224,37.5 L19.6289776,37.5 C18.704225,37.5 17.929927,36.7992699 17.8379107,35.8791067 L17.5,32.5 L17.5,32.5 Z" stroke="currentColor" stroke-width="1" fill="none" fill-rule="evenodd"/>
</svg>
