<svg width="24" height="24" viewBox="0 0 24 24" version="1.1" xmlns="http://www.w3.org/2000/svg">
    <title>
        door-open-small
    </title>
    <path d="M4.5,13.5 L7.5,9.5 L7.5,4.05344838 C7.5,3.66674164 7.74703089,3.32326111 8.11364104,3.20022007 L9.64256074,2.68708677 C10.0117409,2.56318318 10.3985789,2.5 10.7879966,2.5 L12.8305862,2.5 C13.1658435,2.5 13.4994575,2.54683119 13.8217576,2.63913605 L15.8477928,3.21938083 C16.2338932,3.32995774 16.5,3.68297417 16.5,4.08459682 C16.5,6.47606182 16.5,8.28119621 16.5,9.5 L19.5,13.5 M16.5,15.5 C16.5,16.5284098 16.5,18.2617432 16.5,20.7 C16.5,21.6941125 15.6941125,22.5 14.7,22.5 L9.3,22.5 C8.30588745,22.5 7.5,21.6941125 7.5,20.7 L7.5,15.5 M9.25,9.5 L14.75,9.5 M9.25,18.5 L14.75,18.5" stroke="currentColor" stroke-width="1" fill="none" fill-rule="evenodd"/>
</svg>
