<svg width="24" height="24" viewBox="0 0 24 24" version="1.1" xmlns="http://www.w3.org/2000/svg">
    <title>
        drive-belt-small
    </title>
    <path d="M23.5,4.5 C23.5,6.70914 21.7091,8.5 19.5,8.5 C17.2909,8.5 15.5,6.70914 15.5,4.5 C15.5,2.29086 17.2909,0.5 19.5,0.5 M23.5,4.5 C23.5,2.29086 21.7091,0.5 19.5,0.5 M23.5,4.5 C23.5,5.34 23.24,6.12 22.79,6.77 L14.3,20.06 L14.24,20.15 C12.9,22.17 10.6,23.5 8,23.5 C3.86,23.5 0.5,20.14 0.5,16 C0.5,13.4 1.83,11.1 3.85,9.76 L3.94,9.7 L17.23,1.21 C17.88,0.76 18.66,0.5 19.5,0.5 M13,16 C13,18.7614 10.7614,21 8,21 C5.23858,21 3,18.7614 3,16 C3,13.2386 5.23858,11 8,11 C10.7614,11 13,13.2386 13,16 Z" stroke="currentColor" stroke-width="1" fill="none" fill-rule="evenodd"/>
</svg>
