<svg width="48" height="48" viewBox="0 0 48 48" version="1.1" xmlns="http://www.w3.org/2000/svg">
    <title>
        drive-belt-large
    </title>
    <path d="M39.5,13.5 C42.26,13.5 44.5,11.26 44.5,8.5 C44.5,5.74 42.26,3.5 39.5,3.5 C36.74,3.5 34.5,5.74 34.5,8.5 C34.5,11.26 36.74,13.5 39.5,13.5 Z M16,44.5 C22.9032,44.5 28.5,38.9032 28.5,32 C28.5,25.0968 22.9032,19.5 16,19.5 C9.09677,19.5 3.5,25.0968 3.5,32 C3.5,38.9032 9.09677,44.5 16,44.5 Z M16,40.5 C20.69,40.5 24.5,36.69 24.5,32 C24.5,27.31 20.69,23.5 16,23.5 C11.31,23.5 7.5,27.31 7.5,32 C7.5,36.69 11.31,40.5 16,40.5 Z M47.5,8.67 C47.5,10.39 46.97,11.98 46.05,13.31 L28.7,40.47 L28.58,40.65 C25.84,44.78 21.14,47.5 15.83,47.5 C7.37,47.5 0.5,40.63 0.5,32.17 C0.5,26.86 3.22,22.16 7.35,19.42 L7.53,19.3 L34.69,1.95 C36.02,1.03 37.61,0.5 39.33,0.5 C43.85,0.5 47.5,4.16 47.5,8.67 Z" stroke="currentColor" stroke-width="1" fill="none" fill-rule="evenodd"/>
</svg>
