<svg width="48" height="48" viewBox="0 0 48 48" version="1.1" xmlns="http://www.w3.org/2000/svg">
    <title>
        eco-cycle-large
    </title>
    <path d="M40.6628652,31.6555523 L35.8667296,23.3484429 L43.6149576,18.8749182 C46.4389824,22.0434308 47.3171704,25.3967512 46.2495216,28.9348795 M34.6552645,46.1945019 L34.5874302,41.9342144 C37.382955,41.8033434 44.6320837,36.2030047 46.2399001,28.9293245 C43.5252881,31.2904107 39.5951848,32.216036 34.4495902,31.7062004 L34.3955095,27.4666708 L23.8734493,36.9802137 L34.6552645,46.1945019 Z M11.0056848,33.2973628 L20.5979204,33.2973423 L20.5979924,42.2442669 C16.4419676,43.1056878 13.0988129,42.1895607 10.5685284,39.4958856 M1.41838547,20.8251532 L5.14181982,22.8965507 C3.85739502,25.3829817 5.0828663,34.4610807 10.5781499,39.4903306 C9.89069524,35.9588646 11.0541319,32.0924826 14.0684598,27.8911848 L17.7670405,29.9641144 L14.7891007,16.0949714 L1.41838547,20.8251532 Z M25.0464,7.21117025 L20.2503,15.5183002 L12.502,11.0449002 C13.834,7.01496675 16.2989667,4.57777342 19.8969,3.73332025 M40.6413,5.14443025 L36.9857,7.33332025 C35.4746,4.97776025 27,1.5 19.8969,3.74443025 C23.2989667,4.91481008 26.0656333,7.85556675 28.1969,12.5667002 L24.5524,14.7333002 L38.0524,19.0889002 L40.6413,5.14443025 Z" stroke="currentColor" stroke-width="1" fill="none" fill-rule="evenodd"/>
</svg>
