<svg width="24" height="24" viewBox="0 0 24 24" version="1.1" xmlns="http://www.w3.org/2000/svg">
    <title>
        eco-cycle-small
    </title>
    <path d="M6.35705081,19.0466334 C5.92403811,18.7966334 6.0580127,16.5645826 7.9910254,14.2165064 L9.72307621,15.2165064 L8.57596189,8.20336663 L1.92884758,10.7165064 L3.66089838,11.7165064 C2.15313053,14.8669714 3.21851467,17.0216719 6.35705081,19.0466334 C7.51175135,19.7133 8.91645188,19.946954 10.5711524,19.7475953 M9.60041962,2.34660464 C10.0099956,2.05981642 11.9763006,3.12454407 13.2874538,5.86878843 L11.6491498,7.0159413 L18.4900044,8.94018358 L19.0215182,1.85375337 L17.3832141,3.00090624 C15.1651333,0.302960447 12.7620606,0.357910594 9.60041962,2.34660464 C8.50821689,3.11137322 7.70280239,4.28571783 7.1841761,5.86963845 M22.5,14.5 C22.5,15 20.5,16 17.5,15.5 L17.5,13.5 L12,18 L17.5,22.5 L17.5,20.5 C20.9822667,20.2305328 22.3156,18.2305328 22.5,14.5 C22.5,13.1666667 22,11.8333333 21,10.5" stroke="currentColor" stroke-width="1" fill="none" fill-rule="evenodd"/>
</svg>
