<svg width="48" height="48" viewBox="0 0 48 48" version="1.1" xmlns="http://www.w3.org/2000/svg">
    <title>
        editorial-large
    </title>
    <path d="M11,32.5 L37,32.5 L11,32.5 Z M11,28.5 L37,28.5 L11,28.5 Z M11,24.5 L37,24.5 L11,24.5 Z M23,20.5 L37,20.5 L23,20.5 Z M23,16.5 L37,16.5 L23,16.5 Z M23,12.6 L37,12.6 L23,12.6 Z M11.5,12.5 L20.5,12.5 L20.5,20.5 L11.5,20.5 L11.5,12.5 Z M41.5,6.5 C41.5,4.8 40.2,3.5 38.5,3.5 L6.5,3.5 L6.5,40.5 C6.5,42.2 7.8,43.5 9.5,43.5 L41.5,43.5 L41.5,6.5 Z" stroke="currentColor" stroke-width="1" fill="none" fill-rule="evenodd"/>
</svg>
