<?xml version="1.0" encoding="UTF-8"?>
<svg width="24px" height="24px" viewBox="0 0 24 24" version="1.1" xmlns="http://www.w3.org/2000/svg" xmlns:xlink="http://www.w3.org/1999/xlink">
    <!-- Generator: sketchtool 48.1 (47250) - http://www.bohemiancoding.com/sketch -->
    <title>electric-range-small</title>
    <desc>Created with sketchtool.</desc>
    <defs/>
    <g id="icons-published" stroke="none" stroke-width="1" fill="none" fill-rule="evenodd">
        <g id="briefing" transform="translate(-1796.000000, -538.000000)"/>
        <g id="electric-range-small" stroke="currentColor">
            <path d="M15,10.5 L16.5,10.5 C17,10.5 17.5,11 17.5,11.5 L17.5,16.5 C17.5,17 18,17.5 18.5,17.5 L19.5,17.5 C20,17.5 20.5,17 20.5,16.5 L20.5,8.5 M19.5,2 L19.5,4.5 M21.5,2 L21.5,4.5" id="Shape"/>
            <path d="M22.5,6 C22.5,6 22.6,8.5 20.5,8.5 C18.4,8.5 18.5,6 18.5,6 L18.5,4.5 L22.5,4.5 L22.5,6 Z" id="Path"/>
            <polyline id="Path" points="9.5 5.5 5.5 11.5 10.5 11.5 5.5 17.5"/>
            <polyline id="Shape" points="5.5 14.5 5.5 17.5 8.5 17.5"/>
            <path d="M13.5,19 L13.5,3.5 C13.5,2.9 13.1,2.5 12.5,2.5 L3.5,2.5 C2.9,2.5 2.5,2.9 2.5,3.5 L2.5,21.5 M7,21.5 L1,21.5" id="Shape"/>
            <path d="M23.5,21.5 L9.5,21.5 L23.5,21.5 Z M9.5,19 L9.5,24 L9.5,19 Z M23.5,19 L23.5,24 L23.5,19 Z" id="Shape"/>
        </g>
    </g>
</svg>