<svg width="48" height="48" viewBox="0 0 48 48" version="1.1" xmlns="http://www.w3.org/2000/svg">
    <title>
        energy-green-large
    </title>
    <path d="M39.5,21.5000002 C42.8137,21.5000002 45.5,18.8137002 45.5,15.5000002 L45.5,9.50000025 L33.5,9.50000025 L33.5,15.5000002 C33.5,18.8137002 36.1863,21.5000002 39.5,21.5000002 Z M39.5,21.5000002 L39.5,41.5000002 C39.5,43.7091002 37.7091,45.5000002 35.5,45.5000002 L6.5,45.5000002 C4.29086,45.5000002 2.5,43.7091002 2.5,41.5000002 C2.5,39.2909002 4.29086,37.5000002 6.5,37.5000002 L7.5,37.5000002 C9.70914,37.5000002 11.5,35.7091002 11.5,33.5000002 L11.5,29.5000002 M36.5,9.50000025 L36.5,5.00000025 M42.5,9.50000025 L42.5,5.00000025 M11.5,29.8818002 C7.29366,27.2246002 4.5,22.5340002 4.5,17.1909002 C4.5,11.8478002 7.29366,7.15714025 11.5,4.50000025 C14.5371,6.41856025 16.8378,9.39727025 17.8821,12.9163002 M11.5,29.8818002 C15.7063,27.2246002 18.5,22.5340002 18.5,17.1909002 C18.5,15.8901002 18.3344,14.6281002 18.0232,13.4246002 C17.9791,13.2540002 17.9321,13.0845002 17.8821,12.9163002 M11.5,29.8818002 L11.5,14.5000002 M11.5,29.8818002 C11.5,29.8818002 16.4187,29.6710002 18.5,29.0115002 C20.5813,28.3521002 22.5159,27.2312002 24.3738,25.3733002 C28.152,21.5951002 29.4934,16.3029002 28.3979,11.4497002 C24.875,10.6545002 21.1207,11.1434002 17.8821,12.9163002" stroke="currentColor" stroke-width="1" fill="none" fill-rule="evenodd"/>
</svg>
