<svg width="24" height="24" viewBox="0 0 24 24" version="1.1" xmlns="http://www.w3.org/2000/svg">
    <title>
        energy-green-small
    </title>
    <path d="M19.5,10.5000009 C21.1569,10.5000009 22.5,9.15685087 22.5,7.50000087 L22.5,4.50000087 L16.5,4.50000087 L16.5,7.50000087 C16.5,9.15685087 17.8431,10.5000009 19.5,10.5000009 Z M19.5,10.5000009 L19.5,20.5000009 C19.5,21.6046009 18.6046,22.5000009 17.5,22.5000009 L3,22.5000009 C1.89543,22.5000009 1,21.6046009 1,20.5000009 C1,19.3954009 1.89543,18.5000009 3,18.5000009 L3.5,18.5000009 C4.60457,18.5000009 5.5,17.6046009 5.5,16.5000009 L5.5,14.5000009 M17.5,4.50000087 L17.5,1.00000087 M21.5,4.50000087 L21.5,1.00000087 M5.5,14.6909009 C3.39683,13.3623009 2,11.0170009 2,8.34544087 C2,5.67388087 3.39683,3.32857087 5.5,2.00000087 C7.01857,2.95928087 8.1689,4.44863087 8.69106,6.20813087 M5.5,14.6909009 C7.60317,13.3623009 9,11.0170009 9,8.34544087 C9,7.69507087 8.91722,7.06403087 8.76162,6.46230087 C8.73955,6.37698087 8.71603,6.29225087 8.69106,6.20813087 M5.5,14.6909009 L5.5,7.00000087 M8.69106,6.20813087 C10.3103,5.32169087 12.1875,5.07727087 13.949,5.47486087 C14.4967,7.90147087 13.826,10.5476009 11.9369,12.4366009 C11.008,13.3656009 10.0406,13.9260009 9,14.2558009" stroke="currentColor" stroke-width="1" fill="none" fill-rule="evenodd"/>
</svg>
