<svg width="24" height="24" viewBox="0 0 24 24" version="1.1" xmlns="http://www.w3.org/2000/svg">
    <title>
        engine-small
    </title>
    <path d="M8,3.5 L15,3.5 L8,3.5 Z M11.5,4 L11.5,7 L11.5,4 Z M3,12.5 L0,12.5 L3,12.5 Z M0.5,9 L0.5,16 L0.5,9 Z M18.5,15.5 L18.5,17.1 C18.5,18.5 17.3,18.5 17.3,18.5 L10,18.5 L7.4,15.5 L3.5,15.5 L3.5,9.1 L7,6.5 L14.8,6.5 L18.5,10.5 L20.5,10.5 L20.5,8.5 L21.5,8.5 C22.6,8.5 23.5,9.4 23.5,10.5 L23.5,15.5 C23.5,16.6 22.6,17.5 21.5,17.5 L20.5,17.5 L20.5,15.5 L18.5,15.5 Z" stroke="currentColor" stroke-width="1" fill="none" fill-rule="evenodd"/>
</svg>
