<svg width="48" height="48" viewBox="0 0 48 48" version="1.1" xmlns="http://www.w3.org/2000/svg">
    <title>
        eye-crossed-large
    </title>
    <path d="M35.7181396,14.8989034 C35.7624512,14.9435659 35.9193845,15.0552097 35.9456593,15.0731258 C41.5376617,18.8861821 45,24.001 45,24.001 C45,24.001 36.2,37.001 24,37.001 C21.0510918,37.001 18.3008304,36.2414678 15.8254762,35.0895821 C15.8164686,35.0853905 15.7668457,35.0853905 15.6425018,34.9728018 M12.8565063,33.501 C12.7849274,33.4304434 12.7342729,33.379005 12.7062532,33.360966 C6.73267161,29.515174 3,24.001 3,24.001 C3,24.001 11.8,11.001 24,11.001 C26.0021427,11.001 28.6808595,11.6468696 32.0361502,12.9386089 C32.1533088,12.9837133 32.3037676,13.0426951 32.4875264,13.1155541 C32.5564006,13.1428623 32.8715973,13.3225027 32.9653015,13.4158407 M28.0542297,18.3259664 C28.0196075,18.2912374 27.982514,18.2435275 27.9767026,18.2395087 C26.8473004,17.4584924 25.4770768,17.001 24,17.001 C20.1340068,17.001 17,20.1350068 17,24.001 C17,25.4723786 17.4539695,26.837727 18.2294844,27.9646212 C18.2325808,27.9691206 18.2840576,28.037499 18.3139954,28.0666586 M20.5603943,30.0629049 C20.655014,30.1578298 20.6628088,30.1558358 20.6728914,30.1612928 C21.6624978,30.6968963 22.7957353,31.001 24,31.001 C27.8659932,31.001 31,27.8669932 31,24.001 C31,22.7969742 30.696017,21.6639475 30.1606115,20.6744803 C30.1561642,20.6662613 30.1087189,20.5986257 30.062973,20.5528494 M7.499,41 L41.499,7" stroke="currentColor" stroke-width="1" fill="none" fill-rule="evenodd"/>
</svg>
