<svg width="24" height="24" viewBox="0 0 24 24" version="1.1" xmlns="http://www.w3.org/2000/svg">
    <title>
        eye-crossed-small
    </title>
    <path d="M18.355423,7.98231262 C18.3900146,8.01637024 18.4667304,8.07724722 18.474609,8.08308804 C20.9744661,9.93637042 22.5,12.19 22.5,12.19 C22.5,12.19 18.1,18.69 12,18.69 C10.8133913,18.69 9.69111117,18.4440376 8.65303424,18.0478049 C8.65014818,18.0467033 8.51997461,17.9782958 8.47037836,17.9307093 M5.71500944,16.4551614 C5.67043209,16.4118174 5.60596426,16.3563024 5.57840235,16.336044 C3.04711737,14.4755143 1.5,12.19 1.5,12.19 C1.5,12.19 5.9,5.69 12,5.69 C13.171446,5.69 14.2801969,5.92971668 15.3071304,6.3170795 C15.35555,6.33534356 15.5406312,6.43441832 15.6076778,6.50046647 M13.1418775,8.96452234 C13.0375693,8.86654337 12.8682541,8.79851906 12.857831,8.79589295 C12.583341,8.72673457 12.2959604,8.69 12,8.69 C10.0670034,8.69 8.5,10.2570034 8.5,12.19 C8.5,12.4937598 8.5386962,12.7884816 8.61142796,13.0695048 C8.62277611,13.1133521 8.77494812,13.3042578 8.80662537,13.3361563 M10.9377155,15.449474 C11.0078735,15.508512 11.1883102,15.5954941 11.2132154,15.601215 C11.4661135,15.6593076 11.7294725,15.69 12,15.69 C13.9329966,15.69 15.5,14.1229966 15.5,12.19 C15.5,11.9270393 15.4710006,11.6708518 15.4160253,11.4244611 C15.4089238,11.392633 15.312242,11.1933482 15.234235,11.118427 M3.5,20.815 L21,3.19" stroke="currentColor" stroke-width="1" fill="none" fill-rule="evenodd"/>
</svg>
