<svg width="24" height="24" viewBox="0 0 24 24" version="1.1" xmlns="http://www.w3.org/2000/svg">
    <title>
        eye-crossed-small
    </title>
    <path d="M18.355423,7.79231262 C18.3900146,7.82637024 18.4667304,7.88724722 18.474609,7.89308804 C20.9744661,9.74637042 22.5,12 22.5,12 C22.5,12 18.1,18.5 12,18.5 C10.8133913,18.5 9.69111117,18.2540376 8.65303424,17.8578049 C8.65014818,17.8567033 8.51997461,17.7882958 8.47037836,17.7407093 M5.71500944,16.2651614 C5.67043209,16.2218174 5.60596426,16.1663024 5.57840235,16.146044 C3.04711737,14.2855143 1.5,12 1.5,12 C1.5,12 5.9,5.5 12,5.5 C13.171446,5.5 14.2801969,5.73971668 15.3071304,6.1270795 C15.35555,6.14534356 15.5406312,6.24441832 15.6076778,6.31046647 M13.1418775,8.77452234 C13.0375693,8.67654337 12.8682541,8.60851906 12.857831,8.60589295 C12.583341,8.53673457 12.2959604,8.5 12,8.5 C10.0670034,8.5 8.5,10.0670034 8.5,12 C8.5,12.3037598 8.5386962,12.5984816 8.61142796,12.8795048 C8.62277611,12.9233521 8.77494812,13.1142578 8.80662537,13.1461563 M10.9377155,15.259474 C11.0078735,15.318512 11.1883102,15.4054941 11.2132154,15.411215 C11.4661135,15.4693076 11.7294725,15.5 12,15.5 C13.9329966,15.5 15.5,13.9329966 15.5,12 C15.5,11.7370393 15.4710006,11.4808518 15.4160253,11.2344611 C15.4089238,11.202633 15.312242,11.0033482 15.234235,10.928427 M3.5,20.625 L21,3" stroke="currentColor" stroke-width="1" fill="none" fill-rule="evenodd"/>
</svg>
