<svg width="48" height="48" viewBox="0 0 48 48" version="1.1" xmlns="http://www.w3.org/2000/svg">
    <title>
        eye-crossed-large
    </title>
    <path d="M35.7181396,14.3979034 C35.7624512,14.4425659 35.9193845,14.5542097 35.9456593,14.5721258 C41.5376617,18.3851821 45,23.5 45,23.5 C45,23.5 36.2,36.5 24,36.5 C21.0510918,36.5 18.3008304,35.7404678 15.8254762,34.5885821 C15.8164686,34.5843905 15.7668457,34.5843905 15.6425018,34.4718018 M12.8565063,33 C12.7849274,32.9294434 12.7342729,32.878005 12.7062532,32.859966 C6.73267161,29.014174 3,23.5 3,23.5 C3,23.5 11.8,10.5 24,10.5 C26.0021427,10.5 28.6808595,11.1458696 32.0361502,12.4376089 C32.1533088,12.4827133 32.3037676,12.5416951 32.4875264,12.6145541 C32.5564006,12.6418623 32.8715973,12.8215027 32.9653015,12.9148407 M28.0542297,17.8249664 C28.0196075,17.7902374 27.982514,17.7425275 27.9767026,17.7385087 C26.8473004,16.9574924 25.4770768,16.5 24,16.5 C20.1340068,16.5 17,19.6340068 17,23.5 C17,24.9713786 17.4539695,26.336727 18.2294844,27.4636212 C18.2325808,27.4681206 18.2840576,27.536499 18.3139954,27.5656586 M20.5603943,29.5619049 C20.655014,29.6568298 20.6628088,29.6548358 20.6728914,29.6602928 C21.6624978,30.1958963 22.7957353,30.5 24,30.5 C27.8659932,30.5 31,27.3659932 31,23.5 C31,22.2959742 30.696017,21.1629475 30.1606115,20.1734803 C30.1561642,20.1652613 30.1087189,20.0976257 30.062973,20.0518494 M7.499,40.499 L41.499,6.499" stroke="currentColor" stroke-width="1" fill="none" fill-rule="evenodd"/>
</svg>
