<svg width="24" height="24" viewBox="0 0 24 24" version="1.1" xmlns="http://www.w3.org/2000/svg">
    <title>
        financial-services-small
    </title>
    <g stroke="none" stroke-width="1" fill="none" fill-rule="evenodd">
        <path d="M13.5,16.5 L7,16.5 M14.993,14.928 L14.993,14.928 L20.854,13.163 C20.854,13.163 23.5,12.568 23.5,14.036 C23.5,15.28 22.314,15.764 21.498,16.137 C18.573,17.476 14.139,19.569 14.139,19.569 C14.139,19.569 11.919,20.5 9.553,20.5 L0.5,20.5 L0.5,15.5 C2.947,15.5 2.281,15.728 4.415,14.628 C5.685,13.973 7.293,13.5 8.778,13.5 L13.5,13.5 C14.3284271,13.5 15,14.1715729 15,15 C15,15.8284271 14.3284271,16.5 13.5,16.5 M17.5,12 C20.5375661,12 23,9.53756612 23,6.5 C23,3.46243388 20.5375661,1 17.5,1 C14.4624339,1 12,3.46243388 12,6.5 C12,9.53756612 14.4624339,12 17.5,12 Z" stroke="currentColor"/>
        <path d="M15.654541,8.06567383 C15.7422693,8.10668966 15.8425287,8.14428694 15.9553223,8.1784668 C16.0681158,8.21264666 16.188598,8.24198393 16.3167725,8.26647949 C16.4449469,8.29097506 16.5791009,8.31034335 16.7192383,8.32458496 C16.8593757,8.33882657 17.0006503,8.34594727 17.1430664,8.34594727 C17.3310556,8.34594727 17.4922682,8.32771828 17.626709,8.29125977 C17.7611498,8.25480125 17.8713782,8.2032474 17.9573975,8.13659668 C18.0434168,8.06994596 18.1063637,7.99019415 18.1462402,7.89733887 C18.1861167,7.80448359 18.2060547,7.70109106 18.2060547,7.5871582 C18.2060547,7.48461863 18.1818443,7.39318888 18.1334229,7.31286621 C18.0850014,7.23254354 18.0192061,7.16247589 17.9360352,7.10266113 C17.8528642,7.04284638 17.755453,6.99129253 17.6437988,6.94799805 C17.5321446,6.90470356 17.4133714,6.86881525 17.2874756,6.84033203 C17.1615798,6.81184882 17.0314134,6.78906259 16.8969727,6.77197266 C16.7625319,6.75488273 16.6303717,6.74178064 16.5004883,6.73266602 C16.3706048,6.72355139 16.2472743,6.71757 16.1304932,6.71472168 C16.013712,6.71187336 15.9097498,6.70930991 15.8186035,6.70703125 L15.9125977,4 L19.0844727,4 L19.0844727,4.81518555 L16.8884277,4.81518555 L16.8474121,5.8815918 C16.9750169,5.89070643 17.1066074,5.90409334 17.2421875,5.92175293 C17.3777676,5.93941252 17.5136305,5.96305324 17.6497803,5.99267578 C17.78593,6.02229833 17.9203688,6.05847147 18.0531006,6.10119629 C18.1858324,6.14392111 18.3114415,6.19604461 18.4299316,6.25756836 C18.5484218,6.3190921 18.6583654,6.39086873 18.7597656,6.47290039 C18.8611659,6.55493205 18.9483232,6.64921008 19.0212402,6.7557373 C19.0941573,6.86226453 19.1511228,6.98189224 19.1921387,7.11462402 C19.2331545,7.24735581 19.2536621,7.39575113 19.2536621,7.55981445 C19.2536621,7.70792717 19.2377117,7.8511956 19.2058105,7.98962402 C19.1739093,8.12805245 19.12321,8.25707948 19.0537109,8.37670898 C18.9842119,8.49633849 18.8956304,8.6057124 18.7879639,8.70483398 C18.6802973,8.80395557 18.5512703,8.88883428 18.4008789,8.95947266 C18.2504875,9.03011103 18.077597,9.08479798 17.8822021,9.12353516 C17.6868073,9.16227233 17.467205,9.18164062 17.2233887,9.18164062 C17.0456534,9.18164062 16.8790291,9.17451993 16.7235107,9.16027832 C16.5679924,9.14603671 16.4241543,9.12581393 16.2919922,9.09960938 C16.1598301,9.07340482 16.0402024,9.04207375 15.9331055,9.00561523 C15.8260086,8.96915672 15.7331547,8.92871116 15.654541,8.88427734 L15.654541,8.06567383 Z" fill="currentColor" fill-rule="nonzero"/>
    </g>
</svg>
