<svg width="48" height="48" viewBox="0 0 48 48" version="1.1" xmlns="http://www.w3.org/2000/svg">
    <title>
        financial-services-large
    </title>
    <g stroke="none" stroke-width="1" fill="none" fill-rule="evenodd">
        <path d="M28.09,30.5 L15,30.5 M30.589,27.976 L30.589,27.976 L42.094,24.506 C42.094,24.506 47.5,23.292 47.5,26.292 C47.5,28.833 45.076,29.822 43.409,30.585 C37.431,33.32 28.371,37.598 28.371,37.598 C28.371,37.598 23.833,39.5 19,39.5 L0.5,39.5 L0.5,30.5 C5.5,30.5 4.14,29.748 8.5,27.5 C11.095,26.162 14.381,25.5 17.417,25.5 L28.09,25.5 C29.4707119,25.5 30.59,26.6192881 30.59,28 C30.59,29.3807119 29.4707119,30.5 28.09,30.5 M36,21 C40.9705627,21 45,16.9705627 45,12 C45,7.02943725 40.9705627,3 36,3 C31.0294373,3 27,7.02943725 27,12 C27,16.9705627 31.0294373,21 36,21 Z" stroke="currentColor"/>
        <path d="M33.8415527,14.2272949 C33.9543463,14.2800296 34.0832512,14.3283689 34.2282715,14.3723145 C34.3732917,14.41626 34.5281974,14.4539793 34.6929932,14.4854736 C34.8577889,14.5169679 35.0302725,14.54187 35.2104492,14.5601807 C35.3906259,14.5784913 35.5722647,14.5876465 35.7553711,14.5876465 C35.9970715,14.5876465 36.2043448,14.5642092 36.3771973,14.517334 C36.5500497,14.4704588 36.6917719,14.4041752 36.8023682,14.3184814 C36.9129644,14.2327877 36.9938962,14.1302496 37.045166,14.0108643 C37.0964358,13.8914789 37.1220703,13.7585457 37.1220703,13.6120605 C37.1220703,13.480224 37.0909427,13.3626714 37.0286865,13.2593994 C36.9664304,13.1561274 36.8818365,13.0660404 36.7749023,12.9891357 C36.6679682,12.9122311 36.5427253,12.8459475 36.3991699,12.7902832 C36.2556145,12.7346189 36.1029061,12.6884767 35.94104,12.6518555 C35.779174,12.6152342 35.6118173,12.5859376 35.4389648,12.5639648 C35.2661124,12.5419921 35.0961922,12.5251465 34.9291992,12.5134277 C34.7622062,12.5017089 34.6036384,12.4940186 34.4534912,12.4903564 C34.303344,12.4866943 34.1696783,12.4833985 34.0524902,12.4804688 L34.1733398,9 L38.2514648,9 L38.2514648,10.0480957 L35.4279785,10.0480957 L35.3752441,11.4191895 C35.5393075,11.4309083 35.7084952,11.44812 35.8828125,11.4708252 C36.0571298,11.4935304 36.2318106,11.5239256 36.4068604,11.5620117 C36.5819101,11.6000978 36.7547599,11.6466062 36.925415,11.7015381 C37.0960702,11.75647 37.2575676,11.8234859 37.4099121,11.9025879 C37.5622566,11.9816898 37.7036126,12.0739741 37.8339844,12.1794434 C37.9643561,12.2849126 38.0764155,12.4061272 38.170166,12.5430908 C38.2639165,12.6800544 38.3371579,12.8338615 38.3898926,13.0045166 C38.4426272,13.1751718 38.4689941,13.3659657 38.4689941,13.5769043 C38.4689941,13.7673349 38.4484865,13.9515372 38.4074707,14.1295166 C38.3664549,14.307496 38.30127,14.4733879 38.2119141,14.6271973 C38.1225581,14.7810066 38.0086677,14.9216302 37.8702393,15.0490723 C37.7318108,15.1765143 37.5659189,15.2856441 37.3725586,15.3764648 C37.1791983,15.4672856 36.9569104,15.5375974 36.7056885,15.5874023 C36.4544665,15.6372073 36.1721207,15.6621094 35.8586426,15.6621094 C35.6301258,15.6621094 35.4158946,15.6529542 35.2159424,15.6346436 C35.0159902,15.6163329 34.8310555,15.5903322 34.6611328,15.5566406 C34.4912101,15.5229491 34.337403,15.4826663 34.199707,15.435791 C34.062011,15.3889158 33.9426275,15.3369143 33.8415527,15.2797852 L33.8415527,14.2272949 Z" fill="currentColor" fill-rule="nonzero"/>
    </g>
</svg>
