<svg width="48" height="48" viewBox="0 0 48 48" version="1.1" xmlns="http://www.w3.org/2000/svg">
    <title>
        flashlight-large
    </title>
    <path d="M18.5,34 L18.5,43.5 C18.512013,44.8333771 19.1786797,45.5000656 20.5,45.5000656 C21.8213203,45.5000656 24.1554155,45.5000656 27.5022856,45.5000656 C28.8340952,45.5000656 29.5,44.8140462 29.5,43.4420073 C29.5,42.0700122 29.5,38.9226764 29.5,34 L29.5,20.5 L35.5,11 L35.5,2.5 L12.5,2.5 L12.5,11 L18.5,20.5 L18.5,34 Z M22.5,25.5 L22.5,30.5 L25.5,30.5 L25.5,25.5 L22.5,25.5 Z M18.5,20.5 L29.5,20.5 L18.5,20.5 Z M12,10.5 L36,10.5 L12,10.5 Z" stroke="currentColor" stroke-width="1" fill="none" fill-rule="evenodd"/>
</svg>
