<svg width="48" height="48" viewBox="0 0 48 48" version="1.1" xmlns="http://www.w3.org/2000/svg">
    <title>
        fuel-station-large
    </title>
    <path d="M31,44.5 L5,44.5 M28.5,44.5 L28.5,6.5 C28.5,4.84314575 27.1568542,3.5 25.5,3.5 L10.5,3.5 C8.84314575,3.5 7.5,4.84314575 7.5,6.5 L7.5,44.5 L7.5,44.5 M26,20.5 L10,20.5 M36.5,4 C40.5,9.15735014 42.5,13.3240168 42.5,16.5 C42.5,19.6759832 42.5,21.3426499 42.5,21.5 L42.5,35.5 C42.5,37.709139 40.709139,39.5 38.5,39.5 C36.290861,39.5 34.5,37.709139 34.5,35.5 L34.5,24.5 C34.5,22.290861 32.709139,20.5 30.5,20.5 L28.5,20.5 L28.5,20.5" stroke="currentColor" stroke-width="1" fill="none" fill-rule="evenodd"/>
</svg>
