<svg width="24" height="24" viewBox="0 0 24 24" version="1.1" xmlns="http://www.w3.org/2000/svg">
    <title>
        fuel-range-small
    </title>
    <path d="M23.5,21.5 L9.5,21.5 L23.5,21.5 Z M9.5,19 L9.5,24 L9.5,19 Z M23.5,19 L23.5,24 L23.5,19 Z M16.5,2 C17.8333333,3.66666667 18.8333333,5.66666667 19.5,8 L19.5,17.5 C19.5,18.6045695 18.6045695,19.5 17.5,19.5 C16.3954305,19.5 15.5,18.6045695 15.5,17.5 L15.5,12.5 C15.5,11.3954305 14.6045695,10.5 13.5,10.5 L12.5,10.5 L12.5,10.5 M7,22.5 L1,22.5 M12.5,18 L12.5,3.5 C12.5,2.3954305 11.6045695,1.5 10.5,1.5 L4.5,1.5 C3.3954305,1.5 2.5,2.3954305 2.5,3.5 L2.5,22.5 L2.5,22.5 M11,10.5 L4,10.5" stroke="currentColor" stroke-width="1" fill="none" fill-rule="evenodd"/>
</svg>
