<svg width="24" height="24" viewBox="0 0 24 24" version="1.1" xmlns="http://www.w3.org/2000/svg">
    <title>
        fuel-tank-level-empty-small
    </title>
    <path d="M11.5,3.5 L11.5,19.5 C11.5,20.1 11.9,20.5 12.5,20.5 L21.5,20.5 C22.1,20.5 22.5,20.1 22.5,19.5 L22.5,3.5 C22.5,2.9 22.1,2.5 21.5,2.5 L12.5,2.5 C11.9,2.5 11.5,2.9 11.5,3.5 Z M21,17.5 L13,17.5 L21,17.5 Z M8.1,15.4 C8.3,14.8 8.5,14.2 8.5,13.5 C8.5,11.3 5,6 5,6 C5,6 1.5,11.3 1.5,13.5 C1.5,15.7 2.8,17.5 5,17.5 C6.5,17.5 7.6,16.6 8.1,15.4 Z" stroke="currentColor" stroke-width="1" fill="none" fill-rule="evenodd"/>
</svg>
