<svg width="24" height="24" viewBox="0 0 24 24" version="1.1" xmlns="http://www.w3.org/2000/svg">
    <title>
        fuel-station-small
    </title>
    <path d="M16,22.5 L3,22.5 M14.5,22.5 L14.5,3.5 C14.5,2.3954305 13.6045695,1.5 12.5,1.5 L6.5,1.5 C5.3954305,1.5 4.5,2.3954305 4.5,3.5 L4.5,22.5 L4.5,22.5 M13,10.5 L6,10.5 M18.5,2 C19.8333333,3.66666667 20.8333333,5.66666667 21.5,8 L21.5,17.5 C21.5,18.6045695 20.6045695,19.5 19.5,19.5 C18.3954305,19.5 17.5,18.6045695 17.5,17.5 L17.5,12.5 C17.5,11.3954305 16.6045695,10.5 15.5,10.5 L14.5,10.5 L14.5,10.5" stroke="currentColor" stroke-width="1" fill="none" fill-rule="evenodd"/>
</svg>
