<svg width="24" height="24" viewBox="0 0 24 24" version="1.1" xmlns="http://www.w3.org/2000/svg">
    <title>
        fuel-small
    </title>
    <path d="M15,21.5 L1,21.5 M13.5,21.5 L13.5,3.5 C13.5,2.9 13.1,2.5 12.5,2.5 L3.5,2.5 C2.9,2.5 2.5,2.9 2.5,3.5 L2.5,21.5 M12,10.5 L4,10.5 M15,10.5 L16.5,10.5 C17,10.5 17.5,11 17.5,11.5 L17.5,16.5 C17.5,17.1 17.9,17.5 18.5,17.5 L20.5,17.5 C21.1,17.5 21.5,17.1 21.5,16.5 L21.5,6.5 L17.5,2.5" stroke="currentColor" stroke-width="1" fill="none" fill-rule="evenodd"/>
</svg>
