<?xml version="1.0" encoding="UTF-8" standalone="no"?>
<svg width="24px" height="24px" viewBox="0 0 24 24" version="1.1" xmlns="http://www.w3.org/2000/svg" xmlns:xlink="http://www.w3.org/1999/xlink">
    <!-- Generator: sketchtool 46.2 (44496) - http://www.bohemiancoding.com/sketch -->
    <title>fuel-tank-level-threequarters-small</title>
    <desc>Created with sketchtool.</desc>
    <defs></defs>
    <g id="icons-published" stroke="none" stroke-width="1" fill="none" fill-rule="evenodd">
        <g id="briefing" transform="translate(-1796.000000, -666.000000)"></g>
        <g id="fuel-tank-level-threequarters-small" stroke="#000000">
            <path d="M11.5,3.5 L11.5,19.5 C11.5,20.1 11.9,20.5 12.5,20.5 L21.5,20.5 C22.1,20.5 22.5,20.1 22.5,19.5 L22.5,3.5 C22.5,2.9 22.1,2.5 21.5,2.5 L12.5,2.5 C11.9,2.5 11.5,2.9 11.5,3.5 Z M21,17.5 L13,17.5 L21,17.5 Z M21,14.5 L13,14.5 L21,14.5 Z M21,11.5 L13,11.5 L21,11.5 Z M21,8.5 L13,8.5 L21,8.5 Z M8.1,15.4 C8.3,14.8 8.5,14.2 8.5,13.5 C8.5,11.3 5,6 5,6 C5,6 1.5,11.3 1.5,13.5 C1.5,15.7 2.8,17.5 5,17.5 C6.5,17.5 7.6,16.6 8.1,15.4 L8.1,15.4 Z" id="Shape"></path>
        </g>
    </g>
</svg>