<?xml version="1.0" encoding="UTF-8"?>
<svg width="48px" height="48px" viewBox="0 0 48 48" version="1.1" xmlns="http://www.w3.org/2000/svg" xmlns:xlink="http://www.w3.org/1999/xlink">
    <!-- Generator: sketchtool 48.1 (47250) - http://www.bohemiancoding.com/sketch -->
    <title>gas-range-large</title>
    <desc>Created with sketchtool.</desc>
    <defs></defs>
    <g id="icons-published" stroke="none" stroke-width="1" fill="none" fill-rule="evenodd">
        <g id="briefing" transform="translate(-2016.000000, -666.000000)"></g>
        <g id="gas-range-large" stroke="#000000">
            <path d="M16,44.5 L2,44.5 M18.5,39 L18.5,48 M45.5,43.5 L18.5,43.5 M45.5,39 L45.5,48" id="Shape"></path>
            <path d="M28.5,38 L28.5,6 C28.5,4.8 27.7,3.5 26.5,3.5 L7.5,3.5 C6.3,3.5 5.5,4.8 5.5,6 L5.5,44.5 M36.5,3.5 L45.5,12.5 L45.5,33.5 C45.5,34.7 44.7,35.5 43.5,35.5 L39.5,35.5 C38.4,35.5 37.5,34.6 37.5,33.5 L37.5,22.5 C37.5,21.4 36.6,20.5 35.5,20.5 L31,20.5 M41.5,8.5 L44.5,5.5" id="Shape"></path>
            <path d="M16.5,11.5 C16.5,11.5 9.5,24.5 9.5,29.5 C9.5,34.5 11.5,35.5 11.5,35.5 C11.5,35.5 12.6,29.5 16.5,29.5 C20.4,29.5 21.5,35.5 21.5,35.5 C21.5,35.5 23.5,34.5 23.5,29.5 C23.5,24.5 16.5,11.5 16.5,11.5 Z" id="Shape"></path>
        </g>
    </g>
</svg>