<svg xmlns="http://www.w3.org/2000/svg" width="24" height="24" viewBox="0 0 24px 24px"><g fill="none" stroke="currentColor" stroke-miterlimit="10"><path d="M7 21.5H1M23.498 21.5H9.502M9.5 19v5-5zM23.5 19v5-5z"/><g><path d="M15 10.5h1.5c.512 0 1 .488 1 1v5c0 .55.45 1 1 1h2c.55 0 1-.45 1-1v-10l-4-4M13.5 19V3.5a1 1 0 0 0-1-1h-9a1 1 0 0 0-1 1v18M19.5 4.5l1-1-1 1z"/><path stroke-linecap="round" d="M8 5.5s-3.5 6.516-3.5 9 1 3 1 3 .545-3 2.5-3 2.5 3 2.5 3 1-.484 1-3c0-2.515-3.5-9-3.5-9z"/></g></g></svg>