<svg width="48" height="48" viewBox="0 0 48 48" version="1.1" xmlns="http://www.w3.org/2000/svg">
    <title>
        gas-tank-level-half-large
    </title>
    <path d="M23,38.5 L41,38.5 L23,38.5 Z M23,31.5 L41,31.5 L23,31.5 Z M23,24.5 L41,24.5 L23,24.5 Z M41.5,44.5 L22.5,44.5 C21.4,44.5 20.5,43.6 20.5,42.5 L20.5,6.5 C20.5,5.4 21.4,4.5 22.5,4.5 L41.5,4.5 C42.6,4.5 43.5,5.4 43.5,6.5 L43.5,42.5 C43.5,43.6 42.6,44.5 41.5,44.5 Z M9.5,11.5 C9.5,11.5 2.5,24.5 2.5,29.5 C2.5,34.5 4.5,35.5 4.5,35.5 C4.5,35.5 5.6,29.5 9.5,29.5 C13.4,29.5 14.5,35.5 14.5,35.5 C14.5,35.5 16.5,34.5 16.5,29.5 C16.5,24.5 9.5,11.5 9.5,11.5 Z" stroke="currentColor" stroke-width="1" fill="none" fill-rule="evenodd"/>
</svg>
