<?xml version="1.0" encoding="UTF-8"?>
<svg width="24px" height="24px" viewBox="0 0 24 24" version="1.1" xmlns="http://www.w3.org/2000/svg" xmlns:xlink="http://www.w3.org/1999/xlink">
    <!-- Generator: sketchtool 48.1 (47250) - http://www.bohemiancoding.com/sketch -->
    <title>gas-range-small</title>
    <desc>Created with sketchtool.</desc>
    <defs/>
    <g id="icons-published" stroke="none" stroke-width="1" fill="none" fill-rule="evenodd">
        <g id="briefing" transform="translate(-2084.000000, -666.000000)"/>
        <g id="gas-range-small" stroke="currentColor">
            <path d="M7,21.5 L1,21.5 L7,21.5 Z M23.5,21.5 L9.5,21.5 L23.5,21.5 Z M9.5,19 L9.5,24 L9.5,19 Z M23.5,19 L23.5,24 L23.5,19 Z" id="Shape"/>
            <path d="M15,10.5 L16.5,10.5 C17,10.5 17.5,11 17.5,11.5 L17.5,16.5 C17.5,17 18,17.5 18.5,17.5 L20.5,17.5 C21,17.5 21.5,17 21.5,16.5 L21.5,6.5 L17.5,2.5 M13.5,19 L13.5,3.5 C13.5,2.9 13.1,2.5 12.5,2.5 L3.5,2.5 C2.9,2.5 2.5,2.9 2.5,3.5 L2.5,21.5 M19.5,4.5 L20.5,3.5" id="Shape"/>
            <path d="M8,5.5 C8,5.5 4.5,12 4.5,14.5 C4.5,17 5.5,17.5 5.5,17.5 C5.5,17.5 6,14.5 8,14.5 C10,14.5 10.5,17.5 10.5,17.5 C10.5,17.5 11.5,17 11.5,14.5 C11.5,12 8,5.5 8,5.5 Z" id="Shape" stroke-linecap="round"/>
        </g>
    </g>
</svg>