<svg width="24" height="24" viewBox="0 0 24 24" version="1.1" xmlns="http://www.w3.org/2000/svg">
    <title>
        gas-tank-level-empty-small
    </title>
    <g stroke="currentColor" stroke-width="1" fill="none" fill-rule="evenodd">
        <path d="M11.5,3.5 L11.5,19.5 C11.5,20.1 11.9,20.5 12.5,20.5 L21.5,20.5 C22.1,20.5 22.5,20.1 22.5,19.5 L22.5,3.5 C22.5,2.9 22.1,2.5 21.5,2.5 L12.5,2.5 C11.9,2.5 11.5,2.9 11.5,3.5 Z M21,17.5 L13,17.5 L21,17.5 Z"/>
        <path d="M5,5.5 C5,5.5 1.5,12 1.5,14.5 C1.5,17 2.5,17.5 2.5,17.5 C2.5,17.5 3,14.5 5,14.5 C7,14.5 7.5,17.5 7.5,17.5 C7.5,17.5 8.5,17 8.5,14.5 C8.5,12 5,5.5 5,5.5 Z" stroke-linecap="round"/>
    </g>
</svg>
