<svg xmlns="http://www.w3.org/2000/svg" width="24" height="24" viewBox="0 0 24px 24px"><g fill="none" stroke="currentColor" stroke-miterlimit="10"><path d="M15.43 18.5c3.45.42 6 1.54 6 2.53 0 1.36-4.57 2.47-10.12 2.47s-10-1.11-10-2.47c0-1 2.53-2.15 6.15-2.53"/><path d="M11.5 20S5.68 11.73 5.68 8.47c-.134-3.261 2.559-6.086 5.82-6.22 3.261.134 5.954 2.959 5.82 6.22C17.32 11.73 11.5 20 11.5 20z"/><path d="M11.5 6C12.897 6 14 7.103 14 8.5S12.897 11 11.5 11 9 9.897 9 8.5 10.103 6 11.5 6z"/></g></svg>