<svg width="48" height="48" viewBox="0 0 48 48" version="1.1" xmlns="http://www.w3.org/2000/svg">
    <title>
        geofence-alert-large
    </title>
    <path d="M35.5,8 L35.5,14 M35.5,16 L35.5,18 M45.5,20.5 L25.5,20.5 L35.5,2.5 L45.5,20.5 Z M26.4,9.6 C21,6.9 14.4,9.1 11.6,14.5 C10.8,16 10.4,17.7 10.4,19.5 C10.4,25.6 21.4,40.8 21.4,40.8 C21.4,40.8 28.2,31.5 31.1,24.5 M23.6,14.4 C20.8,13.2 17.6,14.5 16.4,17.3 C15.2,20.1 16.5,23.3 19.3,24.5 C20.9,25.2 22.8,25 24.3,24.2 M27.5,36.5 C35,37.1 40.4,38.9 40.4,40.9 C40.4,43.4 31.9,45.5 21.5,45.5 C11.1,45.5 2.6,43.5 2.6,40.9 C2.6,38.9 8,37.1 15.5,36.5" stroke="currentColor" stroke-width="1" fill="none" fill-rule="evenodd"/>
</svg>
