<svg width="48" height="48" viewBox="0 0 48 48" version="1.1" xmlns="http://www.w3.org/2000/svg">
    <title>
        geofence-large
    </title>
    <path d="M34.52,15.5 C34.52,9.4 29.62,4.5 23.52,4.5 C17.42,4.5 12.52,9.4 12.52,15.5 C12.52,21.6 23.52,36.8 23.52,36.8 C23.52,36.8 34.52,21.6 34.52,15.5 Z M23.52,21 C26.5575661,21 29.02,18.5375661 29.02,15.5 C29.02,12.4624339 26.5575661,10 23.52,10 C20.4824339,10 18.02,12.4624339 18.02,15.5 C18.02,18.5375661 20.4824339,21 23.52,21 Z M29.52,33.5 C37.02,34.1 42.42,35.9 42.42,37.9 C42.42,40.4 33.92,42.5 23.52,42.5 C13.12,42.5 4.62,40.5 4.62,37.9 C4.62,35.9 10.02,34.1 17.52,33.5" stroke="currentColor" stroke-width="1" fill="none" fill-rule="evenodd"/>
</svg>
