<svg xmlns="http://www.w3.org/2000/svg" width="24" height="24" viewBox="0 0 24px 24px"><g fill="none" stroke="currentColor"><path stroke-linejoin="round" d="M17.5 5v3M17.5 9v2"/><path stroke-miterlimit="10" d="M23.2 12.5H11.8l5.7-11.4zM15.5 18.5c3.45.42 6 1.54 6 2.53 0 1.36-4.57 2.47-10.12 2.47s-10-1.11-10-2.47c0-1 2.53-2.15 6.15-2.53"/><g stroke-miterlimit="10"><path d="M12.42 2.63a5.91 5.91 0 0 0-6.84 5.84c0 3.26 5.91 11.81 5.91 11.81s2-2.93 3.7-6M12.64 6.21a2.53 2.53 0 0 0-3 4"/></g></g></svg>