<svg width="24" height="24" viewBox="0 0 24 24" version="1.1" xmlns="http://www.w3.org/2000/svg">
    <title>
        geofence-alert-small
    </title>
    <path d="M17.5,5 L17.5,8 M17.5,9 L17.5,11 M23.2,12.5 L11.8,12.5 L17.5,1.1 L23.2,12.5 Z M12.4,2.6 C9.2,2.1 6.2,4.3 5.7,7.5 C5.7,7.8 5.6,8.1 5.6,8.4 C5.6,11.7 11.5,20.2 11.5,20.2 C11.5,20.2 13.5,17.3 15.2,14.2 M12.6,6.2 C11.4,5.5 9.8,6 9.2,7.2 C8.7,8.2 8.9,9.4 9.6,10.2 M15.5,18.5 C19,18.9 21.5,20 21.5,21 C21.5,22.4 16.9,23.5 11.4,23.5 C5.9,23.5 1.4,22.4 1.4,21 C1.4,20 3.9,18.9 7.6,18.5" stroke="currentColor" stroke-width="1" fill="none" fill-rule="evenodd"/>
</svg>
