<svg xmlns="http://www.w3.org/2000/svg" width="48" height="48" viewBox="0 0 48 48"><g fill="none" stroke="currentColor"><path stroke-linejoin="round" d="M35.5 8v6M35.5 16v2"/><path stroke-miterlimit="10" d="M45.5 20.5h-20l10-18z"/><g stroke-miterlimit="10"><path d="M26.39 9.59c-5.434-2.717-12.041-.515-14.758 4.918a11 11 0 0 0-1.162 4.972c0 6.09 11 21.27 11 21.27s6.79-9.34 9.71-16.31M23.64 14.4a5.51 5.51 0 1 0 .69 9.81"/></g><path stroke-miterlimit="10" d="M27.5 36.5c7.5.6 12.88 2.42 12.88 4.44 0 2.52-8.45 4.56-18.87 4.56s-18.87-2-18.87-4.56c0-2 5.37-3.83 12.88-4.44"/></g></svg>