<svg width="48" height="48" viewBox="0 0 48 48" version="1.1" xmlns="http://www.w3.org/2000/svg">
    <title>
        gift-large
    </title>
    <path d="M6.5,6.5 L38.5,6.5 C39.6045695,6.5 40.5,7.3954305 40.5,8.5 L40.5,40.5 L40.5,40.5 L8.5,40.5 C7.3954305,40.5 6.5,39.6045695 6.5,38.5 L6.5,6.5 L6.5,6.5 Z M6.5,23.5 L40.5,23.5 M23.5,40.5 L23.5,6.5 M32,32 L23.5,23.5 L15,32 M30,15.5 C31.073887,15.1931751 32.1931751,15.8150019 32.5,16.8888889 C32.6037444,17.2519943 32.6037444,17.6368946 32.5,18 C31.8812285,20.1657001 30.1537402,21.8365649 27.968628,22.382843 L23.5,23.5 L23.5,23.5 L25.0661121,19.8457384 C25.9733781,17.7287845 27.7854399,16.1327314 30,15.5 Z M14.5,18 C14.1931751,16.926113 14.8150019,15.8068249 15.8888889,15.5 C16.2519943,15.3962556 16.6368946,15.3962556 17,15.5 C19.2145601,16.1327314 21.0266219,17.7287845 21.9338879,19.8457384 L23.5,23.5 L23.5,23.5 L19.031372,22.382843 C16.8462598,21.8365649 15.1187715,20.1657001 14.5,18 Z" stroke="currentColor" stroke-width="1" fill="none" fill-rule="evenodd"/>
</svg>
