<svg width="24" height="24" viewBox="0 0 24 24" version="1.1" xmlns="http://www.w3.org/2000/svg">
    <title>
        gift-small
    </title>
    <path d="M2.5,2.5 L19.5,2.5 C20.0522847,2.5 20.5,2.94771525 20.5,3.5 L20.5,20.5 L20.5,20.5 L3.5,20.5 C2.94771525,20.5 2.5,20.0522847 2.5,19.5 L2.5,2.5 L2.5,2.5 Z M2.5,11.5 L20.5,11.5 M11.5,20.5 L11.5,2.5 M16,16 L11.5,11.5 L7,16 M6.25,8.5 C6.01976396,7.88603723 6.33083594,7.20167888 6.94479871,6.97144284 C7.15222974,6.8936562 7.3772869,6.87545738 7.59452124,6.91890425 L8,7 C9.52665913,7.30533183 10.7407449,8.46297976 11.1183469,9.97338777 L11.5,11.5 L11.5,11.5 L9.08513647,10.9633637 C7.78442772,10.6743173 6.71785022,9.7476006 6.25,8.5 Z M15.0326362,6.79831397 L15.2511216,6.77189823 C15.9371228,6.68895799 16.560473,7.17783551 16.6434133,7.86383674 C16.6717095,8.0978758 16.633309,8.33514749 16.5326362,8.54831397 L16.4389677,8.74664942 C15.8859459,9.91762801 14.8367785,10.7787514 13.5804443,11.092835 L11.5652724,11.5966279 L11.5652724,11.5966279 L12.0261282,9.52277691 C12.3491946,8.06897824 13.5541408,6.97706987 15.0326362,6.79831397 Z" stroke="currentColor" stroke-width="1" fill="none" fill-rule="evenodd"/>
</svg>
