<svg width="48" height="48" viewBox="0 0 48 48" version="1.1" xmlns="http://www.w3.org/2000/svg">
    <title>
        gift-large
    </title>
    <path d="M3,25 L45,25 M24,45 L24,3 M32.5,33.5 L24,25 M24,25 L15.5,33.5 M24,25 L28.4686,23.8828 C30.6537,23.3366 32.3812,21.6657 33,19.5 C33.1037,19.1369 33.1037,18.752 33,18.3889 C32.6932,17.315 31.5739,16.6932 30.5,17 C28.2854,17.6327 26.4734,19.2288 25.5661,21.3457 L24,25 Z M24,25 L22.4339,21.3457 C21.5266,19.2288 19.7146,17.6327 17.5,17 C17.1369,16.8963 16.752,16.8963 16.3889,17 C15.315,17.3068 14.6932,18.4261 15,19.5 C15.6188,21.6657 17.3463,23.3366 19.5314,23.8828 L24,25 Z M2.5,2.5 L43.5,2.5 C44.6046,2.5 45.5,3.39543 45.5,4.5 L45.5,45.5 L4.5,45.5 C3.39543,45.5 2.5,44.6046 2.5,43.5 L2.5,2.5 Z" stroke="currentColor" stroke-width="1" fill="none" fill-rule="evenodd"/>
</svg>
