<svg xmlns="http://www.w3.org/2000/svg" width="24" height="24" viewBox="0 0 24 24"><path d="M17.414 9.678h1.534c.003.513.005 1.028.01 1.541.513.006 1.029.006 1.542.01v1.535c-.513.005-1.026.007-1.542.013-.005.515-.007 1.028-.01 1.541h-1.536c-.005-.513-.005-1.026-.01-1.539l-1.542-.015V11.23c.513-.005 1.026-.008 1.541-.01.003-.516.008-1.03.013-1.542zM3.514 11.73C3.561 8.948 6.118 6.512 8.9 6.605c1.333-.062 2.586.518 3.607 1.333-.436.495-.887.972-1.369 1.418-1.227-.848-2.972-1.09-4.2-.111-1.755 1.214-1.835 4.08-.146 5.388 1.642 1.49 4.746.75 5.2-1.532-1.03-.015-2.06 0-3.089-.033-.002-.614-.005-1.227-.002-1.84 1.719-.006 3.439-.008 5.16.004.104 1.444-.087 2.98-.974 4.174-1.343 1.89-4.04 2.441-6.143 1.632-2.111-.805-3.606-3.034-3.429-5.308z" fill="currentColor"/></svg>