<svg xmlns="http://www.w3.org/2000/svg" width="48" height="48" viewBox="0 0 48 48"><path d="M33.57 19.414h2.7c.004.903.009 1.81.018 2.713.902.009 1.81.009 2.712.018v2.699c-.903.009-1.805.013-2.712.022-.01.907-.014 1.81-.018 2.712h-2.704c-.009-.902-.009-1.805-.018-2.707-.902-.01-1.81-.018-2.712-.027v-2.7c.903-.008 1.805-.013 2.712-.017.005-.907.014-1.81.023-2.713zM9.115 23.025c.081-4.894 4.58-9.18 9.475-9.017 2.344-.109 4.549.912 6.345 2.345-.767.87-1.56 1.71-2.408 2.494-2.16-1.492-5.23-1.918-7.389-.195-3.089 2.137-3.23 7.18-.259 9.48 2.89 2.622 8.35 1.32 9.149-2.694-1.81-.027-3.624 0-5.434-.06-.004-1.079-.009-2.158-.004-3.238 3.025-.009 6.05-.013 9.08.01.181 2.54-.154 5.243-1.714 7.343-2.364 3.324-7.108 4.295-10.809 2.87-3.715-1.414-6.345-5.338-6.032-9.338z"/></svg>