<svg width="24" height="24" viewBox="0 0 24 24" version="1.1" xmlns="http://www.w3.org/2000/svg">
    <title>
        google-plus-small
    </title>
    <path d="M17.4,9.7 L18.9,9.7 C18.9,10.2 18.9,10.7 18.9,11.2 C19.4,11.2 19.9,11.2 20.4,11.2 L20.4,12.7 C19.9,12.7 19.4,12.7 18.9,12.7 C18.9,13.2 18.9,13.7 18.9,14.2 L17.4,14.2 C17.4,13.7 17.4,13.2 17.4,12.7 L15.9,12.7 L15.9,11.2 C16.4,11.2 16.9,11.2 17.4,11.2 C17.4,10.7 17.4,10.2 17.4,9.7 Z M3.5,11.7 C3.5,8.9 6.1,6.5 8.9,6.6 C10.2,6.5 11.5,7.1 12.5,7.9 C12.1,8.4 11.6,8.9 11.1,9.3 C9.9,8.5 8.1,8.2 6.9,9.2 C5.1,10.4 5.1,13.3 6.8,14.6 C8.4,16.1 11.5,15.4 12,13.1 C11,13.1 9.9,13.1 8.9,13.1 C8.9,12.5 8.9,11.9 8.9,11.3 C10.6,11.3 12.3,11.3 14.1,11.3 C14.2,12.7 14,14.3 13.1,15.5 C11.8,17.4 9.1,17.9 7,17.1 C4.8,16.2 3.3,14 3.5,11.7 L3.5,11.7 Z" fill="currentColor" fill-rule="nonzero" stroke="none" stroke-width="1"/>
</svg>
