<?xml version="1.0" encoding="UTF-8"?>
<svg width="24px" height="24px" viewBox="0 0 24 24" version="1.1" xmlns="http://www.w3.org/2000/svg" xmlns:xlink="http://www.w3.org/1999/xlink">
    <!-- Generator: sketchtool 48.1 (47250) - http://www.bohemiancoding.com/sketch -->
    <title>gps-small</title>
    <desc>Created with sketchtool.</desc>
    <defs></defs>
    <g id="icons-published" stroke="none" stroke-width="1" fill="none" fill-rule="evenodd">
        <g id="briefing" transform="translate(-644.000000, -794.000000)"></g>
        <g id="gps-small" stroke="#000000">
            <path d="M11.5,17 L11.5,23 L11.5,17 Z M11.5,0 L11.5,6 L11.5,0 Z M23,11.5 L17,11.5 L23,11.5 Z M6,11.5 L0,11.5 L6,11.5 Z M20.5,11.5 C20.5,16.5 16.5,20.5 11.5,20.5 C6.5,20.5 2.5,16.5 2.5,11.5 C2.5,6.5 6.5,2.5 11.5,2.5 C16.5,2.5 20.5,6.5 20.5,11.5 C20.5,11.5 20.5,11.5 20.5,11.5 Z" id="Shape"></path>
        </g>
    </g>
</svg>