<svg width="48" height="48" viewBox="0 0 48 48" version="1.1" xmlns="http://www.w3.org/2000/svg">
    <title>
        groups-large
    </title>
    <path d="M30.1,37.5 L43.5,37.5 L43.5,25.5 C43.5,23.8 42.2,22.5 40.5,22.5 L24,22.5 M28.5,6.5 L34.5,6.5 C36.2,6.5 37.5,7.8 37.5,9.5 L37.5,15.5 C37.5,17.2 36.2,18.5 34.5,18.5 L28.5,18.5 C26.8,18.5 25.5,17.2 25.5,15.5 L25.5,9.5 C25.5,7.8 26.8,6.5 28.5,6.5 Z M3.5,40.5 L3.5,28.5 C3.5,26.8 4.8,25.5 6.5,25.5 L24.5,25.5 C26.2,25.5 27.5,26.8 27.5,28.5 L27.5,40.5 L3.5,40.5 Z M12.5,9.5 L18.5,9.5 C20.2,9.5 21.5,10.8 21.5,12.5 L21.5,18.5 C21.5,20.2 20.2,21.5 18.5,21.5 L12.5,21.5 C10.8,21.5 9.5,20.2 9.5,18.5 L9.5,12.5 C9.5,10.8 10.8,9.5 12.5,9.5 Z" stroke="currentColor" stroke-width="1" fill="none" fill-rule="evenodd"/>
</svg>
