<svg width="24" height="24" viewBox="0 0 24 24" version="1.1" xmlns="http://www.w3.org/2000/svg">
    <title>
        handshake-small
    </title>
    <path d="M18.8979,14.5910009 L20.0809,13.4190009 C20.6398,12.8601009 20.8172,12.0246009 20.5334,11.2869009 L18.9422,7.14953087 C18.671,6.44463087 18.026,5.95256087 17.2745,5.87741087 L14.2126,5.57123087 C13.7519,5.52515087 13.2894,5.64036087 12.9042,5.89720087 L12.75,5.99997087 M12.75,5.99997087 L8.59776,8.76813087 C8.0016,9.16558087 7.86171,9.98224087 8.29161,10.5554009 C8.68905,11.0854009 9.43123,11.2125009 9.98238,10.8451009 L12.0835,9.44433087 C12.9,8.90001087 13.9907,9.02845087 14.6585,9.74753087 L18.5396,13.9270009 C19.1611,14.5964009 19.0452,15.6611009 18.2942,16.1810009 L14.5538,18.7704009 C13.9115,19.2151009 13.0692,19.2451009 12.397,18.8473009 L11.6152,18.3848009 M12.75,5.99997087 L6.87361,5.99997087 C6.04607,5.99997087 5.30399,6.50963087 5.00692,7.28201087 L3.46659,11.2869009 C3.18286,12.0246009 3.36019,12.8601009 3.91907,13.4190009 L5.20142,14.6416009 M6.36276,5.91580087 L4.33856,4.66493087 C3.78937,4.32555087 3.0673,4.58776087 2.86384,5.20045087 L1.13013,10.4217009 L3.26266,11.8433009 M17.6348,5.91580087 L19.659,4.66493087 C20.2082,4.32555087 20.9302,4.58776087 21.1337,5.20045087 L22.8674,10.4217009 L20.7349,11.8433009 M6.23257,13.2146009 C6.67676,12.8010009 7.35343,12.7650009 7.83895,13.1292009 C9.39025,14.2928009 10.5967,15.1977009 11.8572,16.1431009 C12.4601,16.5953009 12.5228,17.4768009 11.9898,18.0098009 L11.2183,18.7813009 C10.8004,19.1992009 10.1457,19.2640009 9.65399,18.9362009 L5.73671,15.9112009 C5.06366,15.4498009 4.99163,14.4835009 5.58884,13.9275009 L6.23257,13.2146009 Z" stroke="currentColor" stroke-width="1" fill="none" fill-rule="evenodd"/>
</svg>
