<svg width="48" height="48" viewBox="0 0 48 48" version="1.1" xmlns="http://www.w3.org/2000/svg">
    <title>
        handshake-large
    </title>
    <path d="M38.2824,29.3789002 L40.7315,26.9526002 C41.8885,25.7957002 42.2556,24.0658002 41.6683,22.5387002 L38.374,13.9737002 C37.8128,12.5144002 36.4774,11.4957002 34.9216,11.3402002 L28.583,10.7063002 C27.6292,10.6109002 26.6719,10.8494002 25.8743,11.3811002 L25.5552,11.5939002 M25.5552,11.5939002 L16.9593,17.3245002 C15.7252,18.1472002 15.4356,19.8379002 16.3255,21.0245002 C17.1483,22.1215002 18.6848,22.3847002 19.8257,21.6241002 L24.1754,18.7243002 C25.8656,17.5975002 28.1237,17.8634002 29.506,19.3520002 L37.5406,28.0043002 C38.8272,29.3899002 38.5873,31.5941002 37.0326,32.6704002 L29.2893,38.0310002 C27.9598,38.9514002 26.216,39.0136002 24.8243,38.1902002 L23.2059,37.2327002 M25.5552,11.5939002 L13.39,11.5939002 C11.6769,11.5939002 10.1406,12.6490002 9.52564,14.2479002 L6.33689,22.5387002 C5.74953,24.0658002 6.11662,25.7957002 7.2736,26.9526002 L9.92829,29.4836002 M12.8592,11.6279002 L8.14202,8.83012025 C7.0051,8.12755025 5.51029,8.67036025 5.08908,9.93874025 L1.5,20.7476002 L5.91472,23.6907002 M35.6675,11.4196002 L39.858,8.83012025 C40.9949,8.12755025 42.4897,8.67036025 42.9109,9.93874025 L46.5,20.7476002 L42.0853,23.6907002 M12.063,26.5294002 C12.9825,25.6732002 14.3833,25.5987002 15.3885,26.3526002 C18.5999,28.7615002 21.0974,30.6349002 23.7068,32.5920002 C24.9551,33.5282002 25.0848,35.3529002 23.9815,36.4563002 L22.3842,38.0535002 C21.5192,38.9186002 20.1638,39.0528002 19.1459,38.3742002 L11.0364,32.1119002 C9.6431,31.1567002 9.49399,29.1564002 10.7303,28.0052002 L12.063,26.5294002 Z" stroke="currentColor" stroke-width="1" fill="none" fill-rule="evenodd"/>
</svg>
