<svg width="48" height="48" viewBox="0 0 48 48" version="1.1" xmlns="http://www.w3.org/2000/svg">
    <title>
        history-large
    </title>
    <path d="M3,20 L7.5,24.5 L12,20 M25,5.5 C15.1,5.8 7.2,14.1 7.5,24 L7.5,24.5 M25.5,41.5 C35.4,41.5 43.5,33.4 43.5,23.5 C43.5,13.6 35.4,5.5 25.5,5.5 L25,5.5 M25.5,26.5 C27.1568542,26.5 28.5,25.1568542 28.5,23.5 C28.5,21.8431458 27.1568542,20.5 25.5,20.5 C23.8431458,20.5 22.5,21.8431458 22.5,23.5 C22.5,25.1568542 23.8431458,26.5 25.5,26.5 Z M25.5,20.5 L25.5,9 L25.5,20.5 Z M28.5,23.5 L36,23.5" stroke="currentColor" stroke-width="1" fill="none" fill-rule="evenodd"/>
</svg>
