<svg width="48" height="48" viewBox="0 0 48 48" version="1.1" xmlns="http://www.w3.org/2000/svg">
    <title>
        honk-and-flash-large
    </title>
    <path d="M17.5,16.5 L17.5,10.5 L10.5,10.5 L10.5,4.5 L1.5,13.5 L10.5,22.5 L10.5,16.5 L17.5,16.5 Z M21.5,10.5 L21.5,16.5 L28.5,16.5 L28.5,22.5 L37.5,13.5 L28.5,4.5 L28.5,10.5 L21.5,10.5 Z M27,33.5 L33.2,33.5 C33.2,33.5 43.5,33.5 43.5,43.5 L45.5,43.5 L45.5,19.5 L43.5,19.5 C43.5,19.5 42.8,29.5 33.2,29.5 L17,29.5 C17,29.5 10.9,29.1 9.5,27 L9.5,36 C9.5,36 12.5,33.6 17,33.5 L23,33.5 M22.6,33.5 C18.6,34 15.7,35.6 15.5,38 C15.3,41.1 19.6,44 25.5,44.5 C31.4,45 36.3,42.6 36.5,39.5 C36.7,36.6 33.1,34.3 27.9,33.5 M19.5,38.5 C19.4,40.1 22.3,41.2 26,41.5 C29.7,41.8 32.4,40.6 32.5,39 C32.6,37.4 30.2,36.8 26.5,36.5 C22.8,36.2 19.6,36.9 19.5,38.5 Z" stroke="currentColor" stroke-width="1" fill="none" fill-rule="evenodd"/>
</svg>
