<?xml version="1.0" encoding="UTF-8"?>
<svg width="48px" height="48px" viewBox="0 0 48 48" version="1.1" xmlns="http://www.w3.org/2000/svg" xmlns:xlink="http://www.w3.org/1999/xlink">
    <!-- Generator: sketchtool 48.1 (47250) - http://www.bohemiancoding.com/sketch -->
    <title>hotline-large</title>
    <desc>Created with sketchtool.</desc>
    <defs/>
    <g id="icons-published" stroke="none" stroke-width="1" fill="none" fill-rule="evenodd">
        <g id="briefing" transform="translate(-2592.000000, -794.000000)"/>
        <g id="hotline-large" stroke="currentColor">
            <path d="M9.5,17.5 L12.5,17.5 C13.6,17.5 14.5,18.4 14.5,19.5 L14.5,32.6 C14.5,33.7 13.6,34.5 12.5,34.5 L10,34.5" id="Shape"/>
            <path d="M40.5,17.5 L37.5,17.5 C36.4,17.5 35.5,18.4 35.5,19.5 L35.5,32.6 C35.5,33.7 36.4,34.5 37.5,34.5 L40.5,34.5 L40.5,15.5 C40.5,10 36,5.5 30.5,5.5 L19.5,5.5 C14,5.5 9.5,10 9.5,15.5 L9.5,31.5 C9.5,37 14,41.5 19.5,41.5 L20.5,41.5" id="Shape"/>
            <polygon id="Shape" points="20.5 39.5 30.5 39.5 30.5 43.5 20.5 43.5"/>
            <path d="M9.5,32.5 C7.2,32.2 5.5,29.4 5.5,26 C5.5,22.6 7.2,19.9 9.5,19.5" id="Path"/>
            <path d="M40.5,32.5 C42.8,32.2 44.5,29.4 44.5,26 C44.5,22.6 42.8,19.9 40.5,19.5" id="Path"/>
        </g>
    </g>
</svg>