<svg xmlns="http://www.w3.org/2000/svg" width="48" height="48" viewBox="0 0 48 48"><g fill="none" stroke="currentColor" stroke-miterlimit="10"><path d="M9.502 17.5H12.5c1.1 0 2 .9 2 2v13.1c0 1.1-.9 1.9-2 1.9H9.96"/><path d="M40.49 17.5H37.5c-1.1 0-2 .9-2 2v13.1c0 1.1.9 1.9 2 1.9h3v-19c0-5.5-4.5-10-10-10h-11c-5.5 0-10 4.5-10 10v16c0 5.5 4.5 10 10 10h.994"/><path d="M20.5 39.5h10v4h-10zM9.54 32.467C7.258 32.137 5.5 29.376 5.5 26c0-3.352 1.734-6.097 3.99-6.46M40.491 32.462c2.266-.35 4.009-3.101 4.009-6.462s-1.743-6.112-4.009-6.462"/></g></svg>