<svg width="24" height="24" viewBox="0 0 24 24" version="1.1" xmlns="http://www.w3.org/2000/svg">
    <title>
        hotline-small
    </title>
    <path d="M3.5,8.5 L3.2,8.5 C1.7,8.5 0.5,10.4 0.5,12.5 C0.5,14.6 1.7,16.5 3.2,16.5 L3.5,16.5 M20.5,7.5 L18.4,7.5 C17.7,7.5 17.5,8 17.5,8.6 L17.5,16.3 C17.5,17 17.7,17.5 18.4,17.5 L20.5,17.5 L20.5,6.2 C20.5,2.9 18.3,0.5 15,0.5 L9,0.5 C5.7,0.5 3.5,3 3.5,6.2 L3.5,16.7 C3.5,20 5.5,22.5 8.8,22.5 L9.5,22.5 M9.5,21.5 L15.5,21.5 L15.5,23.5 L9.5,23.5 L9.5,21.5 Z M3.5,7.5 L5.6,7.5 C6.3,7.5 6.5,8 6.5,8.6 L6.5,16.3 C6.5,17 6.3,17.5 5.6,17.5 L3.5,17.5 M20.5,8.5 L20.9,8.5 C22.4,8.5 23.5,10.4 23.5,12.5 C23.5,14.6 22.4,16.5 20.9,16.5 L20.5,16.5" stroke="currentColor" stroke-width="1" fill="none" fill-rule="evenodd"/>
</svg>
