<?xml version="1.0" encoding="UTF-8" standalone="no"?>
<svg width="24px" height="24px" viewBox="0 0 24 24" version="1.1" xmlns="http://www.w3.org/2000/svg" xmlns:xlink="http://www.w3.org/1999/xlink">
    <!-- Generator: sketchtool 46.2 (44496) - http://www.bohemiancoding.com/sketch -->
    <title>inspection-small</title>
    <desc>Created with sketchtool.</desc>
    <defs></defs>
    <g id="icons-published" stroke="none" stroke-width="1" fill="none" fill-rule="evenodd">
        <g id="briefing" transform="translate(-3524.000000, -794.000000)"></g>
        <g id="inspection-small" stroke="#000000">
            <path d="M20.5,21.5 L20.5,14.5 L15.5,14.5 L15.5,21.5 C15.5,22.6 16.4,23.5 17.5,23.5 L18.5,23.5 C19.6,23.5 20.5,22.6 20.5,21.5 Z" id="Shape"></path>
            <polyline id="Path" points="19.5 14.5 19.5 7.5 20.5 6.5 20.5 3.5 19.5 0.5 16.5 0.5 15.5 3.5 15.5 6.5 16.5 7.5 16.5 14.5"></polyline>
            <path d="M4.5,21 L4.5,9.5 L1.5,6.5 L1.5,2.5 L3.5,0.5 L4.5,0.5 L4.5,3.5 L5.5,4.5 L8.5,4.5 L9.5,3.5 L9.5,0.5 L10.5,0.5 L12.5,2.5 L12.5,6.5 L9.5,9.5 L9.5,21 C9.5,22.1 8.5,23.5 7.3,23.5 L6.7,23.5 C5.5,23.5 4.5,22.2 4.5,21 Z" id="Shape"></path>
        </g>
    </g>
</svg>