<svg width="48" height="48" viewBox="0 0 48 48" version="1.1" xmlns="http://www.w3.org/2000/svg">
    <title>
        inspection-large
    </title>
    <path d="M39.5,29 L39.5,26.5 L30.5,26.5 L30.5,29 L31.5,31 L31.5,36.5 L30.5,38.5 L30.5,43.5 C30.5,44.6 31.4,45.5 32.5,45.5 L37.5,45.5 C38.6,45.5 39.5,44.6 39.5,43.5 L39.5,38.5 L38.5,36.5 L38.5,31 L39.5,29 Z M36.4,26.4 L36.5,14.5 L39.5,11.5 L39.5,7 L37,2.5 L33,2.5 L30.5,7 L30.5,11.5 L33.5,14.5 L33.5,26.4 M12.5,42.5 L12.5,17.5 L7.5,12.5 L7.5,6.5 L11.5,2.5 L12.5,3.5 L12.5,7.5 L13.5,8.5 L18.5,8.5 L19.5,7.5 L19.5,3.5 L20.5,2.5 L24.5,6.5 L24.5,12.5 L19.5,17.5 L19.5,42.5 C19.5,44.2 18.2,45.5 16.5,45.5 L15.5,45.5 C13.8,45.5 12.5,44.2 12.5,42.5 Z" stroke="currentColor" stroke-width="1" fill="none" fill-rule="evenodd"/>
</svg>
