<svg width="24" height="24" viewBox="0 0 24 24" version="1.1" xmlns="http://www.w3.org/2000/svg">
    <title>
        inspection-small
    </title>
    <path d="M19.5,0.5 L20.5,3.5 L20.5,6.5 L19.5,7.5 L19.5,14.5 L20.5,14.5 L20.5,21.5 C20.5,22.6 19.6,23.5 18.5,23.5 L18.5,23.5 L17.5,23.5 C16.4,23.5 15.5,22.6 15.5,21.5 L15.5,21.5 L15.5,14.5 L16.5,14.5 L16.5,7.5 L15.5,6.5 L15.5,3.5 L16.5,0.5 L19.5,0.5 Z M4.5,0.5 L4.5,3.5 L5.5,4.5 L8.5,4.5 L9.5,3.5 L9.5,0.5 L10.5,0.5 L12.5,2.5 L12.5,6.5 L9.5,9.5 L9.5,21 C9.5,22.1 8.5,23.5 7.3,23.5 L6.7,23.5 C5.5,23.5 4.5,22.2 4.5,21 L4.5,9.5 L1.5,6.5 L1.5,2.5 L3.5,0.5 L4.5,0.5 Z" stroke="currentColor" stroke-width="1" fill="none" fill-rule="evenodd"/>
</svg>
