<svg width="48" height="48" viewBox="0 0 48 48" version="1.1" xmlns="http://www.w3.org/2000/svg">
    <title>
        instagram-large
    </title>
    <path d="M24.0000238,12 C27.2590043,12 27.6676571,12.0138139 28.9475847,12.0722133 C30.2248447,12.1304697 31.0971676,12.3333433 31.860456,12.6300083 C32.6495621,12.9366288 33.3187732,13.3469487 33.985936,14.014064 C34.6530513,14.6812268 35.0633712,15.3504379 35.3700394,16.139544 C35.6666567,16.9028324 35.8695303,17.7751553 35.9277867,19.0524153 C35.9861861,20.3323429 36,20.7409957 36,24.0000238 C36,27.2590043 35.9861861,27.6676571 35.9277867,28.9475847 C35.8695303,30.2248447 35.6666567,31.0971676 35.3700394,31.860456 C35.0633712,32.6495621 34.6530513,33.3187732 33.985936,33.985936 C33.3187732,34.6530513 32.6495621,35.0633712 31.860456,35.3700394 C31.0971676,35.6666567 30.2248447,35.8695303 28.9475847,35.9277867 C27.6676571,35.9861861 27.2590043,36 24.0000238,36 C20.7409957,36 20.3323429,35.9861861 19.0524153,35.9277867 C17.7751553,35.8695303 16.9028324,35.6666567 16.139544,35.3700394 C15.3504379,35.0633712 14.6812268,34.6530513 14.014064,33.985936 C13.3469487,33.3187732 12.9366288,32.6495621 12.6300083,31.860456 C12.3333433,31.0971676 12.1304697,30.2248447 12.0722133,28.9475847 C12.0138139,27.6676571 12,27.2590043 12,24.0000238 C12,20.7409957 12.0138139,20.3323429 12.0722133,19.0524153 C12.1304697,17.7751553 12.3333433,16.9028324 12.6300083,16.139544 C12.9366288,15.3504379 13.3469487,14.6812268 14.014064,14.014064 C14.6812268,13.3469487 15.3504379,12.9366288 16.139544,12.6300083 C16.9028324,12.3333433 17.7751553,12.1304697 19.0524153,12.0722133 C20.3323429,12.0138139 20.7409957,12 24.0000238,12 Z M24.0000238,14.1621583 C20.7958701,14.1621583 20.4163218,14.1744003 19.1509702,14.2321328 C17.9809821,14.2854829 17.3455912,14.4809732 16.9227435,14.6453107 C16.3626144,14.8629984 15.9628692,15.1230329 15.5429749,15.5429749 C15.1230329,15.9628692 14.8629984,16.3626144 14.6453107,16.9227435 C14.4809732,17.3455912 14.2854829,17.9809821 14.2321328,19.1509702 C14.1744003,20.4163218 14.1621583,20.7958701 14.1621583,24.0000238 C14.1621583,27.2041299 14.1744003,27.5836782 14.2321328,28.8490298 C14.2854829,30.0190179 14.4809732,30.6544088 14.6453107,31.0772565 C14.8629984,31.6373856 15.1230805,32.0371308 15.5429749,32.4570251 C15.9628692,32.8769671 16.3626144,33.1370016 16.9227435,33.3546893 C17.3455912,33.5190268 17.9809821,33.7145171 19.1509702,33.7678672 C20.4161789,33.8255997 20.795632,33.8378417 24.0000238,33.8378417 C27.204368,33.8378417 27.5838687,33.8255997 28.8490298,33.7678672 C30.0190179,33.7145171 30.6544088,33.5190268 31.0772565,33.3546893 C31.6373856,33.1370016 32.0371308,32.8769671 32.4570251,32.4570251 C32.8769671,32.0371308 33.1370016,31.6373856 33.3546893,31.0772565 C33.5190268,30.6544088 33.7145171,30.0190179 33.7678672,28.8490298 C33.8255997,27.5836782 33.8378417,27.2041299 33.8378417,24.0000238 C33.8378417,20.7958701 33.8255997,20.4163218 33.7678672,19.1509702 C33.7145171,17.9809821 33.5190268,17.3455912 33.3546893,16.9227435 C33.1370016,16.3626144 32.8769671,15.9628692 32.4570251,15.5429749 C32.0371308,15.1230329 31.6373856,14.8629984 31.0772565,14.6453107 C30.6544088,14.4809732 30.0190179,14.2854829 28.8490298,14.2321328 C27.5836782,14.1744003 27.2041299,14.1621583 24.0000238,14.1621583 Z M24.0000238,17.8378417 C27.4032879,17.8378417 30.1621583,20.5967121 30.1621583,24.0000238 C30.1621583,27.4032879 27.4032879,30.1621583 24.0000238,30.1621583 C20.5967121,30.1621583 17.8378417,27.4032879 17.8378417,24.0000238 C17.8378417,20.5967121 20.5967121,17.8378417 24.0000238,17.8378417 Z M24.0000238,28 C26.2091493,28 28,26.2091493 28,24.0000238 C28,21.7908507 26.2091493,20 24.0000238,20 C21.7908507,20 20,21.7908507 20,24.0000238 C20,26.2091493 21.7908507,28 24.0000238,28 Z M31.8456418,17.5943839 C31.8456418,18.3896825 31.2009146,19.034362 30.4056161,19.034362 C29.6103652,19.034362 28.965638,18.3896825 28.965638,17.5943839 C28.965638,16.7990854 29.6103652,16.1543582 30.4056161,16.1543582 C31.2009146,16.1543582 31.8456418,16.7990854 31.8456418,17.5943839 Z" fill="currentColor" stroke="none" stroke-width="1" fill-rule="evenodd"/>
</svg>
