<svg xmlns="http://www.w3.org/2000/svg" width="48" height="48" viewBox="0 0 48 48"><path d="M24 14.162c3.204 0 3.584.012 4.849.07 1.17.054 1.805.249 2.228.413.56.218.96.478 1.38.898s.68.82.898 1.38c.164.423.36 1.058.413 2.228.058 1.265.07 1.645.07 4.849s-.012 3.584-.07 4.849c-.053 1.17-.249 1.805-.413 2.228-.218.56-.478.96-.898 1.38s-.82.68-1.38.898c-.423.164-1.058.36-2.228.413-1.265.058-1.645.07-4.849.07s-3.584-.012-4.849-.07c-1.17-.053-1.805-.249-2.228-.413-.56-.218-.96-.478-1.38-.898s-.68-.82-.898-1.38c-.164-.423-.36-1.058-.413-2.228-.058-1.265-.07-1.645-.07-4.849s.012-3.584.07-4.849c.053-1.17.249-1.805.413-2.228.218-.56.478-.96.898-1.38s.82-.68 1.38-.898c.423-.164 1.058-.36 2.228-.413 1.265-.058 1.645-.07 4.849-.07M24 12c-3.259 0-3.668.014-4.948.072-1.277.059-2.15.261-2.913.558-.789.307-1.458.717-2.125 1.384s-1.077 1.336-1.384 2.126c-.297.763-.5 1.635-.558 2.912C12.014 20.332 12 20.741 12 24s.014 3.668.072 4.948c.059 1.277.261 2.15.558 2.913.307.789.717 1.458 1.384 2.125s1.336 1.077 2.126 1.384c.763.297 1.635.5 2.912.558 1.28.058 1.689.072 4.948.072s3.668-.014 4.948-.072c1.277-.058 2.15-.261 2.913-.558.789-.307 1.458-.717 2.125-1.384s1.077-1.336 1.384-2.125c.297-.764.5-1.636.558-2.913.058-1.28.072-1.689.072-4.948s-.014-3.668-.072-4.948c-.058-1.277-.261-2.15-.558-2.913-.307-.789-.717-1.458-1.384-2.125s-1.336-1.077-2.125-1.384c-.764-.297-1.636-.5-2.913-.558C27.668 12.014 27.259 12 24 12z" fill="currentColor"/><path d="M24 17.838a6.162 6.162 0 1 0 0 12.324 6.162 6.162 0 0 0 0-12.324zM24 28a4 4 0 1 1 0-8 4 4 0 0 1 0 8z" fill="currentColor"/><circle cx="30.406" cy="17.594" r="1.44" fill="currentColor" /></svg>