<svg xmlns="http://www.w3.org/2000/svg" width="24" height="24" viewBox="0 0 24px 24px"><path d="M12 7.081c1.602 0 1.792.006 2.425.035.584.027.902.125 1.114.207.28.108.48.239.69.448.21.21.34.41.448.69.082.212.18.53.207 1.115.029.632.035.822.035 2.424s-.006 1.792-.035 2.425c-.027.585-.124.902-.207 1.114-.109.28-.239.48-.449.69-.21.21-.41.34-.69.448-.21.083-.528.18-1.113.207-.633.029-.823.035-2.425.035s-1.792-.006-2.425-.035c-.584-.027-.902-.124-1.114-.207a1.858 1.858 0 0 1-.69-.448c-.21-.21-.34-.41-.448-.69-.083-.212-.18-.53-.207-1.114-.029-.633-.035-.823-.035-2.425s.006-1.792.035-2.425c.027-.584.125-.902.207-1.114.108-.28.239-.48.448-.69.21-.21.41-.34.69-.448.212-.083.53-.18 1.115-.207.632-.029.822-.035 2.424-.035M12 6c-1.63 0-1.834.007-2.474.036-.638.03-1.075.13-1.456.279-.395.153-.73.358-1.063.692s-.539.668-.692 1.063c-.148.381-.25.818-.279 1.456-.03.64-.036.845-.036 2.474s.007 1.834.036 2.474c.03.638.13 1.075.279 1.456.153.395.358.73.692 1.063.334.334.668.539 1.063.692.381.148.818.25 1.456.279.64.03.845.036 2.474.036s1.834-.007 2.474-.036c.638-.03 1.075-.13 1.456-.279.395-.153.73-.358 1.063-.692.334-.334.539-.668.692-1.063.148-.381.25-.818.279-1.456.03-.64.036-.845.036-2.474s-.007-1.834-.036-2.474c-.03-.638-.13-1.075-.279-1.456a2.941 2.941 0 0 0-.692-1.063 2.94 2.94 0 0 0-1.063-.692c-.381-.148-.818-.25-1.456-.279C13.834 6.006 13.629 6 12 6z"/><path d="M12 8.919a3.081 3.081 0 1 0 0 6.162 3.081 3.081 0 0 0 0-6.162zM12 14a2 2 0 1 1 0-4 2 2 0 0 1 0 4z"/><circle cx="15.203" cy="8.797" r=".72"/></svg>