<?xml version="1.0" encoding="UTF-8" standalone="no"?>
<svg width="48px" height="48px" viewBox="0 0 48 48" version="1.1" xmlns="http://www.w3.org/2000/svg" xmlns:xlink="http://www.w3.org/1999/xlink">
    <!-- Generator: sketchtool 46.2 (44496) - http://www.bohemiancoding.com/sketch -->
    <title>instagram-large</title>
    <desc>Created with sketchtool.</desc>
    <defs></defs>
    <g id="icons-published" stroke="none" stroke-width="1" fill="none" fill-rule="evenodd">
        <g id="briefing" transform="translate(-3744.000000, -794.000000)"></g>
        <g id="instagram-large" fill-rule="nonzero" fill="#000000">
            <path d="M24,14.2 C27.2,14.2 27.6,14.2 28.8,14.3 C30,14.4 30.6,14.5 31,14.7 C31.6,14.9 32,15.2 32.4,15.6 C32.8,16 33.1,16.4 33.3,17 C33.5,17.4 33.7,18.1 33.7,19.2 C33.8,20.5 33.8,20.8 33.8,24 C33.8,27.2 33.8,27.6 33.7,28.8 C33.6,30 33.5,30.6 33.3,31 C33.1,31.6 32.8,32 32.4,32.4 C32,32.8 31.6,33.1 31,33.3 C30.6,33.5 29.9,33.7 28.8,33.7 C27.5,33.8 27.2,33.8 24,33.8 C20.8,33.8 20.4,33.8 19.2,33.7 C18,33.6 17.4,33.5 17,33.3 C16.4,33.1 16,32.8 15.6,32.4 C15.2,32 14.9,31.6 14.7,31 C14.5,30.6 14.3,29.9 14.3,28.8 C14.2,27.5 14.2,27.2 14.2,24 C14.2,20.8 14.2,20.4 14.3,19.2 C14.4,18 14.5,17.4 14.7,17 C14.9,16.4 15.2,16 15.6,15.6 C16,15.2 16.4,14.9 17,14.7 C17.4,14.5 18.1,14.3 19.2,14.3 C20.4,14.2 20.8,14.2 24,14.2 L24,14.2 Z M24,12 C20.7,12 20.3,12 19.1,12.1 C17.8,12.2 17,12.4 16.2,12.7 C15.4,13 14.7,13.4 14.1,14.1 C13.5,14.8 13,15.4 12.7,16.2 C12.4,17 12.2,17.8 12.1,19.1 C12,20.3 12,20.7 12,24 C12,27.3 12,27.7 12.1,28.9 C12.2,30.2 12.4,31 12.7,31.8 C13,32.6 13.4,33.3 14.1,33.9 C14.8,34.5 15.4,35 16.2,35.3 C17,35.6 17.8,35.8 19.1,35.9 C20.3,36 20.7,36 24,36 C27.3,36 27.7,36 28.9,35.9 C30.2,35.8 31,35.6 31.8,35.3 C32.6,35 33.3,34.6 33.9,33.9 C34.5,33.2 35,32.6 35.3,31.8 C35.6,31 35.8,30.2 35.9,28.9 C36,27.7 36,27.3 36,24 C36,20.7 36,20.3 35.9,19.1 C35.8,17.8 35.6,17 35.3,16.2 C35,15.4 34.6,14.7 33.9,14.1 C33.2,13.5 32.6,13 31.8,12.7 C31,12.4 30.2,12.2 28.9,12.1 C27.7,12 27.3,12 24,12 Z" id="Shape"></path>
            <path d="M24,17.8 C20.6,17.8 17.8,20.6 17.8,24 C17.8,27.4 20.6,30.2 24,30.2 C24,30.2 24,30.2 24,30.2 C27.4,30.2 30.2,27.4 30.2,24 C30.2,20.6 27.4,17.8 24,17.8 Z M24,28 C21.8,28 20,26.2 20,24 C20,21.8 21.8,20 24,20 C26.2,20 28,21.8 28,24 C28,26.2 26.2,28 24,28 Z" id="Shape"></path>
            <circle id="Oval" cx="30.4" cy="17.6" r="1.4"></circle>
        </g>
    </g>
</svg>