<svg xmlns="http://www.w3.org/2000/svg" width="48" height="48" viewBox="0 0 48 48"><path d="M32.667 12H15.333A3.333 3.333 0 0 0 12 15.333v17.334A3.333 3.333 0 0 0 15.333 36h17.334A3.333 3.333 0 0 0 36 32.667V15.333A3.333 3.333 0 0 0 32.667 12zm-8.625 7.292a4.667 4.667 0 1 1-4.667 4.666 4.667 4.667 0 0 1 4.667-4.666zM33 32.625c0 .368.076.375-.292.375H15.375c-.368 0-.375-.007-.375-.375V22h1.984a6.915 6.915 0 0 0-.276 1.98 7.333 7.333 0 0 0 14.667.004A6.952 6.952 0 0 0 31.1 22H33v10.625zm1-13.292a.667.667 0 0 1-.667.667h-3.666a.667.667 0 0 1-.667-.667v-3.666a.667.667 0 0 1 .667-.667h3.666a.667.667 0 0 1 .667.667v3.666z"/></svg>