<svg width="24" height="24" viewBox="0 0 24 24" version="1.1" xmlns="http://www.w3.org/2000/svg">
    <title>
        instagram-small
    </title>
    <g fill="currentColor" fill-rule="nonzero" stroke="none" stroke-width="1">
        <path d="M12,7.1 C13.6,7.1 13.8,7.1 14.4,7.1 C15,7.1 15.3,7.2 15.5,7.3 C15.8,7.4 16,7.5 16.2,7.7 C16.4,7.9 16.5,8.1 16.6,8.4 C16.7,8.6 16.8,8.9 16.8,9.5 C16.8,10.1 16.8,10.3 16.8,11.9 C16.8,13.5 16.8,13.7 16.8,14.3 C16.8,14.9 16.7,15.2 16.6,15.4 C16.5,15.7 16.4,15.9 16.2,16.1 C16,16.3 15.8,16.4 15.5,16.5 C15.3,16.6 15,16.7 14.4,16.7 C13.8,16.7 13.6,16.7 12,16.7 C10.4,16.7 10.2,16.7 9.6,16.7 C9,16.7 8.7,16.6 8.5,16.5 C8.2,16.4 8,16.3 7.8,16.1 C7.6,15.9 7.5,15.7 7.4,15.4 C7.3,15.2 7.2,14.9 7.2,14.3 C7.2,13.7 7.2,13.5 7.2,11.9 C7.2,10.3 7.2,10.1 7.2,9.5 C7.2,8.9 7.3,8.6 7.4,8.4 C7.4,8.2 7.6,8 7.8,7.8 C8,7.6 8.2,7.4 8.5,7.3 C8.7,7.2 9,7.1 9.6,7.1 C10.2,7.1 10.4,7.1 12,7.1 Z M12,6 C10.4,6 10.2,6 9.5,6 C8.9,6 8.4,6.1 8,6.3 C7.7,6.5 7.3,6.7 7,7 C6.7,7.3 6.5,7.7 6.3,8.1 C6.2,8.5 6.1,8.9 6,9.5 C6,10.1 6,10.3 6,12 C6,13.7 6,13.8 6,14.5 C6,15.1 6.1,15.6 6.3,16 C6.5,16.3 6.7,16.7 7,17 C7.3,17.3 7.7,17.5 8.1,17.7 C8.5,17.8 8.9,17.9 9.6,18 C10.2,18 10.4,18 12.1,18 C13.8,18 13.9,18 14.6,18 C15.2,18 15.7,17.9 16.1,17.7 C16.5,17.5 16.8,17.3 17.2,17 C17.5,16.7 17.7,16.3 17.9,15.9 C18,15.5 18.1,15.1 18.2,14.4 C18.2,13.8 18.2,13.6 18.2,11.9 C18.2,10.2 18.2,10.1 18.2,9.4 C18.2,8.8 18.1,8.3 17.9,7.9 C17.5,7.7 17.3,7.3 17,7 C16.7,6.7 16.3,6.5 15.9,6.3 C15.5,6.2 15.1,6.1 14.4,6 C13.8,6 13.6,6 12,6 Z"/>
        <path d="M12,8.9 C10.3,8.9 8.9,10.3 8.9,12 C8.9,13.7 10.3,15.1 12,15.1 C12,15.1 12,15.1 12,15.1 C13.7,15.1 15.1,13.7 15.1,12 C15.1,10.3 13.7,8.9 12,8.9 Z M12,14 C10.9,14 10,13.1 10,12 C10,10.9 10.9,10 12,10 C13.1,10 14,10.9 14,12 C14,13.1 13.1,14 12,14 Z"/>
        <circle cx="15.2" cy="8.8" r="1"/>
    </g>
</svg>
