<svg xmlns="http://www.w3.org/2000/svg" width="24" height="24" viewBox="0 0 24 24"><path d="M16.333 6H7.667A1.667 1.667 0 0 0 6 7.667v8.666A1.667 1.667 0 0 0 7.667 18h8.666A1.667 1.667 0 0 0 18 16.333V7.667A1.667 1.667 0 0 0 16.333 6zm-4.312 3.646a2.333 2.333 0 1 1-2.334 2.333 2.333 2.333 0 0 1 2.334-2.333zM17 16.312a1.188 1.188 0 0 1-.646.688H7.688A1.26 1.26 0 0 1 7 16.312V11h1.492a3.458 3.458 0 0 0-.138.99 3.667 3.667 0 0 0 7.333.003A3.476 3.476 0 0 0 15.55 11H17v5.313zm-1-7.645a.333.333 0 0 1-.333.333h-1.334A.333.333 0 0 1 14 8.667V7.333A.333.333 0 0 1 14.333 7h1.334a.333.333 0 0 1 .333.333v1.334z"/></svg>