<svg width="24" height="24" viewBox="0 0 24 24" version="1.1" xmlns="http://www.w3.org/2000/svg">
    <title>
        instagram-small
    </title>
    <path d="M12.6726094,6.00057715 C13.704887,6.00273691 13.9348754,6.01151742 14.4737923,6.03610663 C15.1124224,6.06523487 15.5485838,6.16667163 15.930228,6.31500414 C16.324781,6.46831441 16.6593866,6.67347437 16.992968,7.00703198 C17.3265256,7.34061341 17.5316856,7.67521897 17.6850197,8.06977201 C17.8333284,8.45141622 17.9347651,8.88757763 17.9638934,9.52620767 C17.9930931,10.1661715 18,10.3704978 18,12.0000119 C18,13.6295022 17.9930931,13.8338285 17.9638934,14.4737923 C17.9347651,15.1124224 17.8333284,15.5485838 17.6850197,15.930228 C17.5316856,16.324781 17.3265256,16.6593866 16.992968,16.992968 C16.6593866,17.3265256 16.324781,17.5316856 15.930228,17.6850197 C15.5485838,17.8333284 15.1124224,17.9347651 14.4737923,17.9638934 C13.8338285,17.9930931 13.6295022,18 12.0000119,18 C10.3704978,18 10.1661715,17.9930931 9.52620767,17.9638934 C8.88757763,17.9347651 8.45141622,17.8333284 8.06977201,17.6850197 C7.67521897,17.5316856 7.34061341,17.3265256 7.00703198,16.992968 C6.67347437,16.6593866 6.46831441,16.324781 6.31500414,15.930228 C6.16667163,15.5485838 6.06523487,15.1124224 6.03610663,14.4737923 C6.01151742,13.9348754 6.00273691,13.704887 6.00057715,12.6726094 L6.00057715,11.3274048 C6.00273691,10.295113 6.01151742,10.0651246 6.03610663,9.52620767 C6.06523487,8.88757763 6.16667163,8.45141622 6.31500414,8.06977201 C6.46831441,7.67521897 6.67347437,7.34061341 7.00703198,7.00703198 C7.34061341,6.67347437 7.67521897,6.46831441 8.06977201,6.31500414 C8.45141622,6.16667163 8.88757763,6.06523487 9.52620767,6.03610663 C10.0651246,6.01151742 10.295113,6.00273691 11.3274048,6.00057715 Z M12.6605544,7.08160239 L11.3394598,7.08160239 C10.3269645,7.08357915 10.1082647,7.09175796 9.57548512,7.11606638 C8.99049105,7.14274146 8.67279558,7.24048658 8.46137174,7.32265536 C8.1813072,7.43149922 7.98143462,7.56151643 7.77148743,7.77148743 C7.56151643,7.98143462 7.43149922,8.1813072 7.32265536,8.46137174 C7.24048658,8.67279558 7.14274146,8.99049105 7.11606638,9.57548512 C7.09175796,10.1082647 7.08357915,10.3269645 7.08160239,11.3394598 L7.08160239,12.6605544 C7.08357915,13.6730355 7.09175796,13.8917353 7.11606638,14.4245149 C7.14274146,15.009509 7.24048658,15.3272044 7.32265536,15.5386283 C7.43149922,15.8186928 7.56154025,16.0185654 7.77148743,16.2285126 C7.98143462,16.4384836 8.1813072,16.5685008 8.46137174,16.6773446 C8.67279558,16.7595134 8.99049105,16.8572585 9.57548512,16.8839336 C10.1082046,16.908242 10.3268611,16.9164209 11.3394153,16.9183976 L12.6606004,16.9183976 C13.6731453,16.9164209 13.8918155,16.908242 14.4245149,16.8839336 C15.009509,16.8572585 15.3272044,16.7595134 15.5386283,16.6773446 C15.8186928,16.5685008 16.0185654,16.4384836 16.2285126,16.2285126 C16.4384836,16.0185654 16.5685008,15.8186928 16.6773446,15.5386283 C16.7595134,15.3272044 16.8572585,15.009509 16.8839336,14.4245149 C16.908242,13.8917353 16.9164209,13.6730355 16.9183976,12.6605544 L16.9183976,11.3394598 C16.9164209,10.3269645 16.908242,10.1082647 16.8839336,9.57548512 C16.8572585,8.99049105 16.7595134,8.67279558 16.6773446,8.46137174 C16.5685008,8.1813072 16.4384836,7.98143462 16.2285126,7.77148743 C16.0185654,7.56151643 15.8186928,7.43149922 15.5386283,7.32265536 C15.3272044,7.24048658 15.009509,7.14274146 14.4245149,7.11606638 C13.8917353,7.09175796 13.6730355,7.08357915 12.6605544,7.08160239 Z M12.0000119,8.91892085 C13.701644,8.91892085 15.0810791,10.298356 15.0810791,12.0000119 C15.0810791,13.701644 13.701644,15.0810791 12.0000119,15.0810791 C10.298356,15.0810791 8.91892085,13.701644 8.91892085,12.0000119 C8.91892085,10.298356 10.298356,8.91892085 12.0000119,8.91892085 Z M12.0000119,10 C10.8954253,10 10,10.8954253 10,12.0000119 C10,13.1045747 10.8954253,14 12.0000119,14 C13.1045747,14 14,13.1045747 14,12.0000119 C14,10.8954253 13.1045747,10 12.0000119,10 Z M15.202808,8.07717911 C15.6004573,8.07717911 15.9228209,8.39954271 15.9228209,8.79719197 C15.9228209,9.19484123 15.6004573,9.51718102 15.202808,9.51718102 C14.8051826,9.51718102 14.482819,9.19484123 14.482819,8.79719197 C14.482819,8.39954271 14.8051826,8.07717911 15.202808,8.07717911 Z" fill="currentColor" fill-rule="nonzero" stroke="none" stroke-width="1"/>
</svg>
