<svg width="24" height="24" viewBox="0 0 24 24" version="1.1" xmlns="http://www.w3.org/2000/svg">
    <title>
        interior-configuration-small
    </title>
    <path d="M12.3,19.5 L14.6,22.5 L12.3,19.5 Z M2.5,21.5 L2.5,19.5 C2.4,18.3 3.3,17.3 4.5,17.2 C4.6,17.2 4.8,17.2 4.9,17.2 C7.4,17.2 12.4,19.5 12.4,19.5 C12.5,18.3 12.8,17 13.3,15.9 C14.5,12.9 17.5,8.1 20.4,9.6 C20.6,10.2 20.7,10.9 20.4,11.6 C19.6,13.3 15.4,22.5 15.4,22.5 C15.4,22.5 15.1,22.5 12.3,22.5 L2.5,21.5 Z M18.5,2.5 C18.5,2 18.9,1.5 19.5,1.5 C19.5,1.5 19.5,1.5 19.5,1.5 L20.6,1.5 C21.1,1.5 21.6,2 21.6,2.5 C21.6,2.5 21.6,2.5 21.6,2.5 L21.6,6.5 C21.6,7 21.2,7.5 20.6,7.5 C20.6,7.5 20.6,7.5 20.6,7.5 L19.5,7.5 C19,7.5 18.5,7 18.5,6.5 C18.5,6.5 18.5,6.5 18.5,6.5 L18.5,2.5 Z" stroke="currentColor" stroke-width="1" fill="none" fill-rule="evenodd"/>
</svg>
