<svg xmlns="http://www.w3.org/2000/svg" width="24" height="24" viewBox="0 0 24 24"><path d="M12.324 19.501l2.345 2.996M2.5 21.501v-1.983a2.154 2.154 0 0 1 2.39-2.28c2.54 0 7.491 2.28 7.491 2.28a11.945 11.945 0 0 1 .877-3.623c1.208-2.995 4.17-7.813 7.096-6.275a2.749 2.749 0 0 1 .007 1.983c-.805 1.735-4.955 10.89-4.955 10.89s-.293.007-3.082.007zM18.5 2.5a.984.984 0 0 1 .968-1h1.064a.984.984 0 0 1 .968 1v4a.984.984 0 0 1-.968 1h-1.064a.984.984 0 0 1-.968-1v-4z" fill="none" stroke="currentColor" stroke-miterlimit="10"/></svg>