<svg width="24" height="24" viewBox="0 0 24 24" version="1.1" xmlns="http://www.w3.org/2000/svg">
    <title>
        lights-crossed-small
    </title>
    <path d="M0,15.5 L6,15.5 L0,15.5 Z M0,11.5 L7,11.5 L0,11.5 Z M0,7.5 L7,7.5 L0,7.5 Z M16.4942329,5.28556148 C16.419045,5.21255503 16.3019566,5.14815179 16.2770944,5.13658911 C14.9024177,4.49726812 13.5392543,3.94458705 12.4,3.5 C10.9,2.9 9.5,3.6 9.5,5.1 C9.5,8.11646088 9.5,10.4917696 9.5,12 M9.5,17 C9.5,17.1973192 9.5,17.5872004 9.5,18 C9.5,19.5 10.9,20.2 12.4,19.6 C16.5,17.9 23.5,14.9 23.5,11.5 C23.5,9.83988025 21.8311433,8.27512373 19.6458657,6.9221381 C19.5744159,6.87790095 19.3904158,6.76376116 19.3217942,6.69741726 M1.375,22.625 L22.875,1" stroke="currentColor" stroke-width="1" fill="none" fill-rule="evenodd"/>
</svg>
