<svg width="48" height="48" viewBox="0 0 48 48" version="1.1" xmlns="http://www.w3.org/2000/svg">
    <title>
        lights-dim-large
    </title>
    <path d="M16.8,33.5 L4.2,37.9 L16.8,33.5 Z M16.8,28.5 L4.2,32.9 L16.8,28.5 Z M16.8,23.5 L4.2,27.9 L16.8,23.5 Z M16.8,18.5 L4.2,22.9 L16.8,18.5 Z M16.8,13.5 L4.2,17.9 L16.8,13.5 Z M42.5,23.5 C42.5,17.7 30.9,12.6 24.2,9.8 C21.8,8.8 19.5,10 19.5,12.5 L19.5,34.4 C19.5,36.9 21.8,38.1 24.2,37.1 C30.9,34.4 42.5,29.3 42.5,23.5 Z" stroke="currentColor" stroke-width="1" fill="none" fill-rule="evenodd"/>
</svg>
