<svg xmlns="http://www.w3.org/2000/svg" width="48" height="48" viewBox="0 0 48 48"><g fill="none" stroke="currentColor" stroke-miterlimit="10"><path d="M21.5 23.5c0-3.31-5.526-6.225-8.758-7.803a1.51 1.51 0 0 0-2.242 1.559v12.488a1.51 1.51 0 0 0 2.242 1.559c3.232-1.578 8.758-4.494 8.758-7.803zM1.187 30.511l7.5-3.007M1 23.5h8M8.687 19.504l-7.5-3.008"/><g><path d="M25.5 23.5c0-3.31 5.526-6.225 8.758-7.803a1.51 1.51 0 0 1 2.242 1.559v12.488a1.51 1.51 0 0 1-2.242 1.559C31.026 29.725 25.5 26.809 25.5 23.5zM46.813 30.511l-7.5-3.007M47 23.5h-8M39.313 19.504l7.5-3.008"/></g></g></svg>