<?xml version="1.0" encoding="UTF-8"?>
<svg width="48px" height="48px" viewBox="0 0 48 48" version="1.1" xmlns="http://www.w3.org/2000/svg" xmlns:xlink="http://www.w3.org/1999/xlink">
    <!-- Generator: sketchtool 48.1 (47250) - http://www.bohemiancoding.com/sketch -->
    <title>lights-full-beam-large</title>
    <desc>Created with sketchtool.</desc>
    <defs></defs>
    <g id="icons-published" stroke="none" stroke-width="1" fill="none" fill-rule="evenodd">
        <g id="briefing" transform="translate(-1152.000000, -922.000000)"></g>
        <g id="lights-full-beam-large" stroke="#000000">
            <path d="M4,33.5 L17,33.5 L4,33.5 Z M4,28.5 L17,28.5 L4,28.5 Z M4,23.5 L17,23.5 L4,23.5 Z M4,18.5 L17,18.5 L4,18.5 Z M4,13.5 L17,13.5 L4,13.5 Z M42.5,23.5 C42.5,17.7 30.9,12.6 24.2,9.8 C21.8,8.8 19.5,10 19.5,12.5 L19.5,34.4 C19.5,36.9 21.8,38.1 24.2,37.1 C30.9,34.4 42.5,29.3 42.5,23.5 Z" id="Shape"></path>
        </g>
    </g>
</svg>