<svg width="48" height="48" viewBox="0 0 48 48" version="1.1" xmlns="http://www.w3.org/2000/svg">
    <title>
        lights-crossed-large
    </title>
    <path d="M4,33.5 L12,33.5 L4,33.5 Z M4,28.5 L17,28.5 L4,28.5 Z M4,23.5 L17,23.5 L4,23.5 Z M4,18.5 L17,18.5 L4,18.5 Z M4,13.5 L17,13.5 L4,13.5 Z M32.3267517,13.5505981 C32.2239347,13.4486857 32.0990982,13.3980876 32.0550868,13.3754775 C29.3020493,11.9611498 26.469832,10.7485865 24.2,9.8 C21.8,8.8 19.5,10 19.5,12.5 C19.5,18.9544556 19.5,23.4939402 19.5,26 M19.5,31 C19.5,31.0458047 19.5,31.0930877 19.5,31.1418108 C19.5,31.9156657 19.5,33.0527943 19.5,34.4 C19.5,36.9 21.8,38.1 24.2,37.1 C30.9,34.4 42.5,29.3 42.5,23.5 C42.5,20.4625988 39.3186876,17.6171734 35.3258341,15.1935197 C35.2967902,15.1758901 35.1256108,15.0386014 35.085529,15 M3.499,44.499 L45.499,2.499" stroke="currentColor" stroke-width="1" fill="none" fill-rule="evenodd"/>
</svg>
