<svg width="24" height="24" viewBox="0 0 24 24" version="1.1" xmlns="http://www.w3.org/2000/svg">
    <title>
        lights-led-small
    </title>
    <path d="M7,13.5 L8,13.5 M9,13.5 L10,13.5 M11,13.5 L12,13.5 M13,13.5 L14,13.5 M15,13.5 L16,13.5 M17,12.5 L18,12.5 M19,11.5 L20,11.5 M19,9.5 L20,9.5 M11.9,9.3 C11.9,9.3 12.2,10.6 15,10.6 C18.1,10.6 16.8,7.3 16.8,7.3 M10.8,17.6 C10.8,17.6 6.4,19.3 0.9,12.5 L23,5.3 L21.9,13.6 C21.9,13.6 21.7,15.2 20.7,15.4 L10.8,17.6 Z" stroke="currentColor" stroke-width="1" fill="none" fill-rule="evenodd"/>
</svg>
