<svg width="48" height="48" viewBox="0 0 48 48" version="1.1" xmlns="http://www.w3.org/2000/svg">
    <title>
        lights-crossed-large
    </title>
    <path d="M3.501,34.001 L11.501,34.001 L3.501,34.001 Z M3.501,29.001 L16.501,29.001 L3.501,29.001 Z M3.501,24.001 L16.501,24.001 L3.501,24.001 Z M3.501,19.001 L16.501,19.001 L3.501,19.001 Z M3.501,14.001 L16.501,14.001 L3.501,14.001 Z M31.8277517,14.0515981 C31.7249347,13.9496857 31.6000982,13.8990876 31.5560868,13.8764775 C28.8030493,12.4621498 25.970832,11.2495865 23.701,10.301 C21.301,9.301 19.001,10.501 19.001,13.001 C19.001,19.4554556 19.001,23.9949402 19.001,26.501 M19.001,31.501 C19.001,31.5468047 19.001,31.5940877 19.001,31.6428108 C19.001,32.4166657 19.001,33.5537943 19.001,34.901 C19.001,37.401 21.301,38.601 23.701,37.601 C30.401,34.901 42.001,29.801 42.001,24.001 C42.001,20.9635988 38.8196876,18.1181734 34.8268341,15.6945197 C34.7977902,15.6768901 34.6266108,15.5396014 34.586529,15.501 M3,45 L45,3" stroke="currentColor" stroke-width="1" fill="none" fill-rule="evenodd"/>
</svg>
