<svg width="24" height="24" viewBox="0 0 24 24" version="1.1" xmlns="http://www.w3.org/2000/svg">
    <title>
        lights-crossed-small
    </title>
    <path d="M0,15.69 L6,15.69 L0,15.69 Z M0,11.69 L7,11.69 L0,11.69 Z M0,7.69 L7,7.69 L0,7.69 Z M16.4942329,5.47556148 C16.419045,5.40255503 16.3019566,5.33815179 16.2770944,5.32658911 C14.9024177,4.68726812 13.5392543,4.13458705 12.4,3.69 C10.9,3.09 9.5,3.79 9.5,5.29 C9.5,8.30646088 9.5,10.6817696 9.5,12.19 M9.5,17.19 C9.5,17.3873192 9.5,17.7772004 9.5,18.19 C9.5,19.69 10.9,20.39 12.4,19.79 C16.5,18.09 23.5,15.09 23.5,11.69 C23.5,10.0298803 21.8311433,8.46512373 19.6458657,7.1121381 C19.5744159,7.06790095 19.3904158,6.95376116 19.3217942,6.88741726 M1.375,22.815 L22.875,1.19" stroke="currentColor" stroke-width="1" fill="none" fill-rule="evenodd"/>
</svg>
