<svg xmlns="http://www.w3.org/2000/svg" width="24" height="24" viewBox="0 0 24 24"><g fill="none" stroke="currentColor" stroke-miterlimit="10"><path d="M10.5 11.5c0-1.893-2.234-3.542-3.7-4.568a.801.801 0 0 0-1.3.764v7.608a.801.801 0 0 0 1.3.764c1.466-1.026 3.7-2.675 3.7-4.568zM.259 16.563l3.55-2.151M0 11.5h4M.259 6.438l3.55 2.15M13.5 11.5c0-1.893 2.234-3.542 3.7-4.568a.801.801 0 0 1 1.3.764v7.608a.801.801 0 0 1-1.3.764c-1.466-1.026-3.7-2.675-3.7-4.568zM24 16.563l-3.55-2.151M24 11.5h-4m4-5.062l-3.55 2.15"/></g></svg>