<svg width="48" height="48" viewBox="0 0 48 48" version="1.1" xmlns="http://www.w3.org/2000/svg">
    <title>
        lights-day-large
    </title>
    <path d="M21.5,23.5 C21.5,20.2 16,17.3 12.7,15.7 C12,15.3 11.1,15.5 10.6,16.3 C10.4,16.6 10.4,17 10.4,17.3 L10.4,29.8 C10.3,30.6 10.8,31.4 11.6,31.5 C11.9,31.6 12.3,31.5 12.6,31.3 C16,29.7 21.5,26.8 21.5,23.5 Z M1.2,30.5 L8.7,27.5 L1.2,30.5 Z M1,23.5 L9,23.5 L1,23.5 Z M8.7,19.5 L1.2,16.5 L8.7,19.5 Z M25.5,23.5 C25.5,20.2 31,17.3 34.3,15.7 C35,15.3 35.9,15.5 36.4,16.3 C36.6,16.6 36.6,17 36.6,17.3 L36.6,29.8 C36.7,30.6 36.2,31.4 35.4,31.5 C35.1,31.6 34.7,31.5 34.4,31.3 C31,29.7 25.5,26.8 25.5,23.5 Z M46.8,30.5 L39.3,27.5 L46.8,30.5 Z M47,23.5 L39,23.5 L47,23.5 Z M39.3,19.5 L46.8,16.5 L39.3,19.5 Z" stroke="currentColor" stroke-width="1" fill="none" fill-rule="evenodd"/>
</svg>
