<svg width="24" height="24" viewBox="0 0 24 24" version="1.1" xmlns="http://www.w3.org/2000/svg">
    <title>
        lights-day-small
    </title>
    <path d="M10.5,11.5 C10.5,9.6 8.3,8 6.8,6.9 C6.5,6.6 6,6.7 5.7,7 C5.5,7.2 5.5,7.5 5.5,7.7 L5.5,15.3 C5.4,15.7 5.7,16.2 6.1,16.2 C6.3,16.2 6.6,16.2 6.8,16 C8.3,15 10.5,13.4 10.5,11.5 Z M0.3,16.6 L3.8,14.4 L0.3,16.6 Z M0,11.5 L4,11.5 L0,11.5 Z M0.3,6.4 L3.8,8.6 L0.3,6.4 Z M13.5,11.5 C13.5,9.6 15.7,8 17.2,6.9 C17.5,6.6 18,6.7 18.3,7 C18.5,7.2 18.5,7.4 18.5,7.7 L18.5,15.3 C18.6,15.7 18.3,16.2 17.9,16.2 C17.7,16.2 17.4,16.2 17.2,16 C15.7,15 13.5,13.4 13.5,11.5 Z M24,16.6 L20.5,14.4 L24,16.6 Z M24,11.5 L20,11.5 L24,11.5 Z M24,6.4 L20.5,8.6 L24,6.4 Z" stroke="currentColor" stroke-width="1" fill="none" fill-rule="evenodd"/>
</svg>
