<svg width="48" height="48" viewBox="0 0 48 48" version="1.1" xmlns="http://www.w3.org/2000/svg">
    <title>
        line-me-large
    </title>
    <path d="M34.9827935,19.7822731 C34.9827935,19.9517734 34.8435537,20.0890237 34.6715367,20.0890237 L31.6222358,20.0890237 L31.6222358,21.2482762 L34.6715367,21.2482762 C34.8435537,21.2482762 34.9827935,21.3857765 34.9827935,21.5550268 L34.9827935,22.6592792 C34.9827935,22.8287796 34.8435537,22.9660299 34.6715367,22.9660299 L31.6222358,22.9660299 L31.6222358,24.1255323 L34.6715367,24.1255323 C34.8435537,24.1255323 34.9827935,24.2627826 34.9827935,24.432033 L34.9827935,25.5365354 C34.9827935,25.7057857 34.8435537,25.843286 34.6715367,25.843286 L30.1884216,25.843286 L30.1876593,25.843286 C30.1043187,25.843286 30.0283466,25.8102859 29.9724474,25.7575358 C29.9709229,25.7560358 29.9693984,25.7545358 29.9681279,25.7532858 C29.9666034,25.7517858 29.9650789,25.7502858 29.9638084,25.7487858 C29.909942,25.6937857 29.8764024,25.6192855 29.8764024,25.5370354 L29.8764024,25.5365354 L29.8764024,18.6780207 L29.8764024,18.6777707 C29.8764024,18.5957705 29.9096879,18.5215204 29.9630462,18.4665202 C29.9645707,18.4647702 29.9663493,18.4630202 29.9681279,18.4610202 C29.9691443,18.4600202 29.9704147,18.4590202 29.9714311,18.4577702 C30.0278384,18.4042701 30.1038105,18.37127 30.1876593,18.37127 L30.1884216,18.37127 L34.6715367,18.37127 C34.8435537,18.37127 34.9827935,18.5087703 34.9827935,18.6780207 L34.9827935,19.7822731 Z M28.7853519,25.5370354 C28.7853519,25.7060357 28.6461121,25.843036 28.4738409,25.843036 L27.3517917,25.843036 C27.3238421,25.843036 27.297163,25.839286 27.2717542,25.832536 C27.2702297,25.832286 27.2689593,25.831786 27.2674348,25.831536 C27.2600662,25.829536 27.25346,25.827286 27.2460914,25.824786 C27.2427883,25.824036 27.2399933,25.822536 27.2369443,25.821286 C27.2313544,25.819286 27.2267808,25.817036 27.221699,25.815036 C27.2166173,25.813036 27.2115356,25.8105359 27.2067079,25.8077859 C27.2036589,25.8062859 27.2008639,25.8047859 27.1978148,25.8030359 C27.1912086,25.7997859 27.1851105,25.7955359 27.1787583,25.7917859 C27.177742,25.7907859 27.1762174,25.7900359 27.1752011,25.7892859 C27.1454729,25.7695359 27.1182855,25.7442858 27.096434,25.7137857 L23.8974758,21.4630267 L23.8974758,25.5370354 C23.8974758,25.7060357 23.7577278,25.843036 23.5857108,25.843036 L22.4636616,25.843036 C22.2916445,25.843036 22.1518965,25.7060357 22.1518965,25.5370354 L22.1518965,18.6775207 C22.1518965,18.5085203 22.2916445,18.37127 22.4636616,18.37127 L23.5857108,18.37127 C23.589268,18.37127 23.5928252,18.37177 23.5963824,18.37177 C23.6019724,18.37202 23.6073082,18.37227 23.612644,18.37277 C23.6182339,18.37327 23.6238239,18.37377 23.6289056,18.37477 C23.6334792,18.37527 23.6380527,18.37577 23.6421181,18.3765201 C23.6484703,18.3777701 23.6540602,18.3790201 23.6601583,18.3805201 C23.6639696,18.3815201 23.6675269,18.3822701 23.67083,18.3832701 C23.6774363,18.3850201 23.6832803,18.3870201 23.6896324,18.3892701 C23.6929356,18.3902701 23.6959846,18.3915201 23.6995418,18.3927701 C23.705894,18.3950201 23.711738,18.3975201 23.717582,18.4002701 C23.7208852,18.4017701 23.7239342,18.4032701 23.7272374,18.4050201 C23.7330814,18.4075201 23.7384172,18.4107701 23.7440071,18.4140201 C23.7473102,18.4157701 23.7503593,18.4175201 23.7534083,18.4195201 C23.7589983,18.4230202 23.7643341,18.4267702 23.7694158,18.4305202 C23.7722108,18.4325202 23.7752598,18.4345202 23.7775466,18.4367702 C23.7833906,18.4410202 23.7889806,18.4455202 23.7943164,18.4502702 C23.7963491,18.4520202 23.7978736,18.4540202 23.7999063,18.4555202 C23.8065126,18.4615202 23.8126107,18.4677702 23.8187088,18.4745203 L23.8207415,18.4765203 C23.8293804,18.4862703 23.8377653,18.4965203 23.8451338,18.5075203 L27.0400267,22.7527794 L27.0400267,18.6775207 C27.0400267,18.5085203 27.1795206,18.37127 27.3517917,18.37127 L28.4738409,18.37127 C28.6461121,18.37127 28.7853519,18.5085203 28.7853519,18.6775207 L28.7853519,25.5370354 Z M21.0605919,25.5370354 C21.0605919,25.7060357 20.921098,25.843036 20.7488268,25.843036 L19.6265235,25.843036 C19.4547606,25.843036 19.3150126,25.7060357 19.3150126,25.5370354 L19.3150126,18.6775207 C19.3150126,18.5085203 19.4547606,18.37127 19.6265235,18.37127 L20.7488268,18.37127 C20.921098,18.37127 21.0605919,18.5085203 21.0605919,18.6775207 L21.0605919,25.5370354 Z M18.355071,25.5362854 C18.355071,25.7057857 18.2158312,25.843036 18.0438142,25.843036 L13.5601909,25.843036 L13.5599368,25.843036 C13.476088,25.843036 13.4008782,25.8105359 13.3447249,25.7575358 C13.3432004,25.7560358 13.3416759,25.7547858 13.3401513,25.7532858 C13.3383727,25.7517858 13.3371023,25.7502858 13.3358319,25.7487858 C13.2819654,25.6937857 13.2486799,25.6190355 13.2486799,25.5367854 L13.2486799,25.5362854 L13.2486799,18.6777707 C13.2486799,18.5085203 13.3884279,18.37127 13.5601909,18.37127 L14.6827483,18.37127 C14.8547653,18.37127 14.9942592,18.5085203 14.9942592,18.6777707 L14.9942592,24.1255323 L18.0438142,24.1255323 C18.2158312,24.1255323 18.355071,24.2627826 18.355071,24.432033 L18.355071,25.5362854 Z M40,21.7755273 C40,14.7310123 32.8225439,9 23.999873,9 C15.1782184,9 8,14.7310123 8,21.7755273 C8,28.0907908 13.6920622,33.3795521 21.3809959,34.3795543 C21.9021288,34.4903045 22.6112862,34.717805 22.7906718,35.1560559 C22.9517631,35.5538068 22.896118,36.1775581 22.8425056,36.579559 C22.8425056,36.579559 22.6544811,37.6900614 22.6140812,37.9270619 C22.5444613,38.3248127 22.2926608,39.4835652 23.999873,38.7758137 C25.7078473,38.0678122 33.2143464,33.4373023 36.5710928,29.6357941 L36.5703306,29.6357941 C38.8893847,27.1337888 40,24.5947833 40,21.7755273 L40,21.7755273 Z" fill="currentColor" fill-rule="nonzero" stroke="none" stroke-width="1"/>
</svg>
