<svg width="24" height="24" viewBox="0 0 24 24" version="1.1" xmlns="http://www.w3.org/2000/svg">
    <title>
        line-me-small
    </title>
    <path d="M17.7562152,9.89655558 C17.7562152,9.98925109 17.6800684,10.0643098 17.5859966,10.0643098 L15.9184102,10.0643098 L15.9184102,10.698276 L17.5859966,10.698276 C17.6800684,10.698276 17.7562152,10.7734715 17.7562152,10.8660303 L17.7562152,11.4699183 C17.7562152,11.5626138 17.6800684,11.6376726 17.5859966,11.6376726 L15.9184102,11.6376726 L15.9184102,12.2717755 L17.5859966,12.2717755 C17.6800684,12.2717755 17.7562152,12.3468343 17.7562152,12.439393 L17.7562152,13.0434178 C17.7562152,13.1359766 17.6800684,13.211172 17.5859966,13.211172 L15.134293,13.211172 L15.1338762,13.211172 C15.0882993,13.211172 15.0467521,13.1931251 15.0161822,13.1642774 C15.0153485,13.1634571 15.0145147,13.1626368 15.01382,13.1619532 C15.0129862,13.1611329 15.0121525,13.1603126 15.0114577,13.1594922 C14.9819995,13.1294141 14.9636576,13.0886718 14.9636576,13.0436912 L14.9636576,13.0434178 L14.9636576,9.29266757 L14.9636576,9.29253085 C14.9636576,9.247687 14.9818606,9.20708145 15.0110409,9.17700326 C15.0118746,9.17604622 15.0128473,9.17508919 15.01382,9.17399544 C15.0143758,9.17344856 15.0150705,9.17290169 15.0156264,9.17221809 C15.0464741,9.14296022 15.0880214,9.1249133 15.1338762,9.1249133 L15.134293,9.1249133 L17.5859966,9.1249133 C17.6800684,9.1249133 17.7562152,9.20010878 17.7562152,9.29266757 L17.7562152,9.89655558 Z M14.3669893,13.0436912 C14.3669893,13.1361133 14.2908425,13.2110353 14.1966318,13.2110353 L13.5830111,13.2110353 C13.5677262,13.2110353 13.553136,13.2089845 13.5392406,13.2052931 C13.5384069,13.2051564 13.5377121,13.204883 13.5368784,13.2047462 C13.5328487,13.2036525 13.5292359,13.202422 13.5252062,13.2010548 C13.5233998,13.2006447 13.5218714,13.1998244 13.5202039,13.1991408 C13.5171469,13.198047 13.5146457,13.1968165 13.5118667,13.1957228 C13.5090876,13.194629 13.5063085,13.1932618 13.5036684,13.1917579 C13.5020009,13.1909376 13.5004724,13.1901173 13.498805,13.1891603 C13.4951922,13.1873829 13.4918573,13.1850587 13.4883834,13.1830079 C13.4878276,13.182461 13.4869939,13.1820509 13.4864381,13.1816407 C13.4701805,13.1708399 13.4553124,13.1570313 13.4433624,13.1403516 L11.6939321,10.8157177 L11.6939321,13.0436912 C11.6939321,13.1361133 11.6175074,13.2110353 11.5234356,13.2110353 L10.9098149,13.2110353 C10.8157431,13.2110353 10.7393184,13.1361133 10.7393184,13.0436912 L10.7393184,9.29239413 C10.7393184,9.19997206 10.8157431,9.1249133 10.9098149,9.1249133 L11.5234356,9.1249133 C11.5253809,9.1249133 11.5273263,9.12518674 11.5292716,9.12518674 C11.5323286,9.12532346 11.5352467,9.12546018 11.5381647,9.12573362 C11.5412217,9.12600706 11.5442787,9.12628049 11.5470577,9.12682737 C11.5495589,9.12710081 11.5520601,9.12737425 11.5542834,9.1277844 C11.5577572,9.128468 11.5608142,9.12915159 11.5641491,9.12997191 C11.5662334,9.13051878 11.5681788,9.13092894 11.5699852,9.13147582 C11.573598,9.13243285 11.5767939,9.1335266 11.5802677,9.13475707 C11.5820741,9.13530395 11.5837416,9.13598755 11.5856869,9.13667114 C11.5891608,9.13790161 11.5923567,9.1392688 11.5955527,9.14077271 C11.5973591,9.14159303 11.5990265,9.14241334 11.6008329,9.14337037 C11.6040289,9.14473756 11.6069469,9.14651491 11.6100039,9.14829226 C11.6118103,9.14924929 11.6134777,9.15020633 11.6151452,9.15130008 C11.6182022,9.15321414 11.6211202,9.15526493 11.6238993,9.15731572 C11.6254278,9.15840947 11.6270952,9.15950322 11.6283458,9.16073369 C11.6315418,9.16305792 11.6345987,9.16551886 11.6375168,9.16811652 C11.6386284,9.16907355 11.6394621,9.17016731 11.6405738,9.17098762 C11.6441866,9.17426888 11.6475215,9.17768685 11.6508564,9.18137827 L11.651968,9.18247202 C11.6566924,9.18780406 11.6612779,9.19340954 11.6653076,9.19942518 L13.4125146,11.5210512 L13.4125146,9.29239413 C13.4125146,9.19997206 13.4888003,9.1249133 13.5830111,9.1249133 L14.1966318,9.1249133 C14.2908425,9.1249133 14.3669893,9.19997206 14.3669893,9.29239413 L14.3669893,13.0436912 Z M10.1425112,13.0436912 C10.1425112,13.1361133 10.0662255,13.2110353 9.97201467,13.2110353 L9.35825506,13.2110353 C9.26432218,13.2110353 9.18789751,13.1361133 9.18789751,13.0436912 L9.18789751,9.29239413 C9.18789751,9.19997206 9.26432218,9.1249133 9.35825506,9.1249133 L9.97201467,9.1249133 C10.0662255,9.1249133 10.1425112,9.19997206 10.1425112,9.29239413 L10.1425112,13.0436912 Z M8.66292947,13.0432811 C8.66292947,13.1359766 8.5867827,13.2110353 8.49271087,13.2110353 L6.04072939,13.2110353 L6.04059044,13.2110353 C5.99473563,13.2110353 5.95360526,13.1932618 5.92289644,13.1642774 C5.92206271,13.1634571 5.92122899,13.1627735 5.92039526,13.1619532 C5.91942259,13.1611329 5.91872782,13.1603126 5.91803305,13.1594922 C5.88857481,13.1294141 5.87037184,13.0885351 5.87037184,13.0435545 L5.87037184,13.0432811 L5.87037184,9.29253085 C5.87037184,9.19997206 5.94679652,9.1249133 6.04072939,9.1249133 L6.65462796,9.1249133 C6.74869979,9.1249133 6.82498551,9.19997206 6.82498551,9.29253085 L6.82498551,12.2717755 L8.49271087,12.2717755 C8.5867827,12.2717755 8.66292947,12.3468343 8.66292947,12.439393 L8.66292947,13.0432811 Z M20.5,10.9866165 C20.5,7.13414733 16.5748287,4 11.7499305,4 C6.92558817,4 3,7.13414733 3,10.9866165 C3,14.4402762 6.11284649,17.3325676 10.3177321,17.8794437 C10.6027267,17.9400103 10.9905472,18.0644246 11.0886487,18.3040931 C11.1767455,18.5216131 11.1463145,18.8627271 11.1169953,19.0825713 C11.1169953,19.0825713 11.0141693,19.6898773 10.9920757,19.819487 C10.9540023,20.037007 10.8162989,20.6706997 11.7499305,20.2836481 C12.683979,19.8964598 16.7890957,17.3641497 18.6248164,15.2851999 L18.6243995,15.2851999 C19.8926323,13.9169157 20.5,12.5283971 20.5,10.9866165 L20.5,10.9866165 Z" fill="currentColor" fill-rule="nonzero" stroke="none" stroke-width="1"/>
</svg>
