<svg xmlns="http://www.w3.org/2000/svg" width="24" height="24" viewBox="0 0 24 24"><path d="M17.112 6H6.886A.876.876 0 0 0 6 6.865v10.269c0 .478.397.866.886.866h10.226c.49 0 .888-.388.888-.866V6.865A.878.878 0 0 0 17.112 6zM9.559 16.226h-1.78v-5.727h1.78v5.726zm-.89-6.51a1.032 1.032 0 1 1 0-2.064 1.032 1.032 0 0 1 0 2.064zm7.556 6.51h-1.778V13.44c0-.665-.012-1.519-.925-1.519-.926 0-1.068.724-1.068 1.47v2.834h-1.779v-5.727h1.708v.782h.023c.238-.45.818-.925 1.684-.925 1.803 0 2.135 1.186 2.135 2.728v3.142z"/></svg>