<svg xmlns="http://www.w3.org/2000/svg" width="48" height="48" viewBox="0 0 48px 48px"><path d="M34.224 12H13.771c-.978 0-1.772.775-1.772 1.73v20.538c0 .956.794 1.732 1.772 1.732h20.452c.979 0 1.776-.776 1.776-1.732V13.73c0-.955-.797-1.73-1.776-1.73zM19.117 32.451h-3.56V20.998h3.56V32.45zM17.34 19.432a2.064 2.064 0 1 1 0-4.129 2.064 2.064 0 0 1 0 4.129zm15.112 13.019h-3.558v-5.57c0-1.329-.024-3.037-1.85-3.037-1.852 0-2.135 1.447-2.135 2.941v5.666H21.35V20.998h3.414v1.565h.048c.475-.9 1.636-1.85 3.368-1.85 3.604 0 4.27 2.372 4.27 5.456v6.282z"/></svg>