<svg width="48" height="48" viewBox="0 0 48 48" version="1.1" xmlns="http://www.w3.org/2000/svg">
    <title>
        linkedin-large
    </title>
    <path d="M34.2,12 L13.8,12 C12.8,12 12,12.8 12,13.7 L12,34.2 C12,35.2 12.8,35.9 13.8,35.9 L34.3,35.9 C35.3,35.9 36.1,35.1 36.1,34.2 L36.1,13.7 C36,12.8 35.2,12 34.2,12 L34.2,12 Z M19.1,32.5 L15.5,32.5 L15.5,21 L19.1,21 L19.1,32.5 L19.1,32.5 Z M17.3,19.4 C16.2,19.4 15.2,18.5 15.2,17.3 C15.2,16.2 16.1,15.2 17.3,15.2 C18.5,15.2 19.4,16.1 19.4,17.3 C19.4,18.5 18.5,19.4 17.3,19.4 Z M32.5,32.5 L28.9,32.5 L28.9,26.9 C28.9,25.6 28.9,23.9 27,23.9 C25.1,23.9 24.9,25.3 24.9,26.8 L24.9,32.5 L21.3,32.5 L21.3,21 L24.7,21 L24.7,22.6 L24.7,22.6 C25.2,21.7 26.3,20.7 28.1,20.7 C31.7,20.7 32.4,23.1 32.4,26.2 L32.5,32.5 L32.5,32.5 Z" fill="currentColor" fill-rule="nonzero" stroke="none" stroke-width="1"/>
</svg>
