<svg width="24" height="24" viewBox="0 0 24 24" version="1.1" xmlns="http://www.w3.org/2000/svg">
    <title>
        linkedin-small
    </title>
    <path d="M17.1,6 L6.9,6 C6.4,6 6,6.4 6,6.9 L6,17.2 C6,17.6 6.4,18 6.9,18 L17.1,18 C17.6,18 18,17.6 18,17.1 L18,6.9 C18,6.4 17.6,6 17.1,6 Z M9.6,16.2 L7.8,16.2 L7.8,10.5 L9.6,10.5 L9.6,16.2 L9.6,16.2 Z M8.7,9.7 C8.1,9.7 7.7,9.2 7.7,8.7 C7.7,8.1 8.2,7.7 8.7,7.7 C9.2,7.7 9.7,8.2 9.7,8.7 C9.7,9.3 9.2,9.7 8.7,9.7 Z M16.2,16.2 L14.4,16.2 L14.4,13.4 C14.4,12.7 14.4,11.9 13.5,11.9 C12.6,11.9 12.4,12.6 12.4,13.4 L12.4,16.2 L10.6,16.2 L10.6,10.5 L12.3,10.5 L12.3,11.3 L12.3,11.3 C12.5,10.9 13.1,10.4 14,10.4 C15.8,10.4 16.1,11.6 16.1,13.1 L16.1,16.2 L16.2,16.2 Z" fill="currentColor" fill-rule="nonzero" stroke="none" stroke-width="1"/>
</svg>
