<svg width="48" height="48" viewBox="0 0 48 48" version="1.1" xmlns="http://www.w3.org/2000/svg">
    <title>
        lock-large
    </title>
    <path d="M22.5,37.5 L22.5,32.2 C21.1,31.5 20.2,29.9 20.6,28.2 C20.9,26.9 21.9,25.9 23.2,25.6 C25.5,25.1 27.5,26.8 27.5,29 C27.5,30.4 26.5,31.6 25.5,32.2 L25.5,37.5 L22.5,37.5 Z M9.5,20.5 L9.5,16.5 C9.5,9.32029825 14.9447951,3.5 21.6612903,3.5 L26.3387097,3.5 C33.0552049,3.5 38.5,9.32029825 38.5,16.5 L38.5,20.5 M6.5,20.5 L41.5,20.5 L41.5,43.5 L6.5,43.5 L6.5,20.5 Z" stroke="currentColor" stroke-width="1" fill="none" fill-rule="evenodd"/>
</svg>
