<svg width="48" height="48" viewBox="0 0 48 48" version="1.1" xmlns="http://www.w3.org/2000/svg">
    <title>
        logbook-large
    </title>
    <path d="M5,39.5 L9.9,39.5 L5,39.5 Z M5,8.5 L9.9,8.5 L5,8.5 Z M7.5,45.5 L7.5,2.5 L37.5,2.5 C39.1568542,2.5 40.5,3.84314575 40.5,5.5 L40.5,42.5 C40.5,44.1568542 39.1568542,45.5 37.5,45.5 L7.5,45.5 L7.5,45.5 Z M24,33.5 C29.7989899,33.5 34.5,28.7989899 34.5,23 C34.5,17.2010101 29.7989899,12.5 24,12.5 C18.2010101,12.5 13.5,17.2010101 13.5,23 C13.5,28.7989899 18.2010101,33.5 24,33.5 Z M17.0729828,30.9270172 L21.2231026,26.7768974 M30.9325867,30.9325867 L26.7738315,26.7738315 L30.9325867,30.9325867 Z M34.424397,21.5 L27.094574,21.5 M20.9000702,21.5 L13.5880568,21.5 M24,28 C26.209139,28 27.5,26.5 27.5,24.25 C27.5,23 27.5,21.5 26.5,20.8500004 C25.6987234,20.3291709 22.2993641,20.330414 21.5,20.8500004 C20.5,21.5 20.5,23 20.5,24.25 C20.5,26.5 21.790861,28 24,28 Z" stroke="currentColor" stroke-width="1" fill="none" fill-rule="evenodd"/>
</svg>
