<svg width="24" height="24" viewBox="0 0 24 24" version="1.1" xmlns="http://www.w3.org/2000/svg">
    <title>
        logbook-small
    </title>
    <path d="M1,18.5 L6,18.5 L1,18.5 Z M1,5.5 L6,5.5 L1,5.5 Z M20.5,22.5 L3.5,22.5 L3.5,22.5 L3.5,1.5 L20.5,1.5 C21.6045695,1.5 22.5,2.3954305 22.5,3.5 L22.5,20.5 C22.5,21.6045695 21.6045695,22.5 20.5,22.5 Z M17.4609483,16.0136082 L15.1027165,13.6542316 L17.4609483,16.0136082 Z M9.53570217,16.0119427 L11.9164864,13.6350287 M13.5,17.5 C16.8137085,17.5 19.5,14.8137085 19.5,11.5 C19.5,8.1862915 16.8137085,5.5 13.5,5.5 C10.1862915,5.5 7.5,8.1862915 7.5,11.5 C7.5,14.8137085 10.1862915,17.5 13.5,17.5 Z M13.5,14.3086604 C14.7623651,14.3086604 15.5,13.4515175 15.5,12.1658033 C15.5,11.4515175 15.5,10.5943747 14.9285714,10.2229463 C14.4706991,9.92532948 12.5282081,9.92603984 12.0714286,10.2229463 C11.5,10.5943747 11.5,11.4515175 11.5,12.1658033 C11.5,13.4515175 12.2376349,14.3086604 13.5,14.3086604 Z M11.6958893,10.6727273 L7.51902951,10.6727273 M19.457017,10.6727273 L15.3122767,10.6727273" stroke="currentColor" stroke-width="1" fill="none" fill-rule="evenodd"/>
</svg>
