<svg width="48" height="48" viewBox="0 0 48 48" version="1.1" xmlns="http://www.w3.org/2000/svg">
    <title>
        login-large
    </title>
    <path d="M27.1,26.5 C28.8,31.8 34.4,34.7 39.6,33 C44.9,31.3 47.8,25.7 46.1,20.5 C44.4,15.2 38.8,12.3 33.6,14 C30.5,15 28.1,17.4 27.1,20.5 L4.6,20.5 L0.6,24.5 L4.3,28.5 L6.4,28.5 L9.5,26.5 L13.6,28.5 L17.6,26.5 L22.1,28.5 L25.7,26.5 L27.1,26.5 Z M40.5,24.5 C41.0522847,24.5 41.5,24.0522847 41.5,23.5 C41.5,22.9477153 41.0522847,22.5 40.5,22.5 C39.9477153,22.5 39.5,22.9477153 39.5,23.5 C39.5,24.0522847 39.9477153,24.5 40.5,24.5 Z" stroke="currentColor" stroke-width="1" fill="none" fill-rule="evenodd"/>
</svg>
