<svg width="48" height="48" viewBox="0 0 48 48" version="1.1" xmlns="http://www.w3.org/2000/svg">
    <title>
        loose-wheel-indicator-large
    </title>
    <path d="M22.4090909,13.5 C27.4298614,13.5 31.5,20.4395864 31.5,29 C31.5,37.5604136 27.4298614,44.5 22.4090909,44.5 C21.2035222,44.5 16.7964778,44.5 15.5909091,44.5 C10.5701386,44.5 6.5,37.5604136 6.5,29 C6.5,20.4395864 10.5701386,13.5 15.5909091,13.5 C16.7964778,13.5 21.2035222,13.5 22.4090909,13.5 Z M23,41.5 C26.5898509,41.5 29.5,35.9035594 29.5,29 C29.5,22.0964406 26.5898509,16.5 23,16.5 C19.4101491,16.5 16.5,22.0964406 16.5,29 C16.5,35.9035594 19.4101491,41.5 23,41.5 Z M20.1,21 L20.9,23.25 M24.9,21 L24.1,23.25 M22.9,36.75 L22.8656136,39 M24.5,33.15 L26.1,34.5 M20.9,33.15 L19.3,34.5 M20.5,27.975 L18.5,27.525 M24.9,28.2 L26.5,27.3 M36.5,19.5 L36.5,23 L39,25.5 L42,25.5 L42.5,25 L41,23.5 L40.5,22.5 L42.5,20.5 L43.5,21 L45,22.5 L45.5,22 L45.5,19 L43,16.5 L39.5,16.5 L31.5,8.5 L31.5,5 L29,2.5 L26,2.5 L25.5,3 L27.3,4.7 L27.5,5.5 L25.5,7.5 L24.7,7.3 L23,5.5 L22.5,6 L22.5,9 L25,11.5 L28.5,11.5 L36.5,19.5 Z" stroke="currentColor" stroke-width="1" fill="none" fill-rule="evenodd"/>
</svg>
