<svg width="24" height="24" viewBox="0 0 24 24" version="1.1" xmlns="http://www.w3.org/2000/svg">
    <title>
        loose-wheel-indicator-small
    </title>
    <path d="M12.1363636,6.5 C14.5463335,6.5 16.5,9.85786438 16.5,14 C16.5,18.1421356 14.5463335,21.5 12.1363636,21.5 C11.5576907,21.5 9.44230933,21.5 8.86363636,21.5 C6.45366655,21.5 4.5,18.1421356 4.5,14 C4.5,9.85786438 6.45366655,6.5 8.86363636,6.5 C9.44230933,6.5 11.5576907,6.5 12.1363636,6.5 Z M12.5,21.5 C14.709139,21.5 16.5,18.1421356 16.5,14 C16.5,9.85786438 14.709139,6.5 12.5,6.5 C10.290861,6.5 8.5,9.85786438 8.5,14 C8.5,18.1421356 10.290861,21.5 12.5,21.5 Z M12.5,9 L12.5,10.5 M12.5,17.5 L12.5,19 M13.8979492,15.5 L15,16 M13.8979492,12.5 L15,12 M11.5,15.5 L10,16 M11.4641808,12.5 L10,12 M15,3 L20,8 M21,10.5 L19.5,9.5 L20,8 L21.5,7.5 L22.5,9 L22.5,9 M12.5,2 L13.5,3.5 L15,3 L15.5,1.5 L14,0.5" stroke="currentColor" stroke-width="1" fill="none" fill-rule="evenodd"/>
</svg>
