<svg width="24" height="24" viewBox="0 0 24 24" version="1.1" xmlns="http://www.w3.org/2000/svg">
    <title>
        maintenance-small
    </title>
    <path d="M9.5,9.5 L12.5,6.5 L12.5,2.5 L10.5,0.5 L9.5,0.5 L9.5,3.5 L8.5,4.5 L5.5,4.5 L4.5,3.5 L4.5,0.5 L3.5,0.5 L1.5,2.5 L1.5,6.5 L4.5,9.5 L4.5,21 C4.5,22.2 5.5,23.5 6.7,23.5 L7.3,23.5 C7.87392,23.5 8.4021,23.1798 8.79701,22.7253 M15.5,21 L15.5,15.5 M15.5,14 L15.5,12 M15.5,23.5 C19.366,23.5 22.5,20.366 22.5,16.5 C22.5,12.634 19.366,9.5 15.5,9.5 C11.634,9.5 8.5,12.634 8.5,16.5 C8.5,20.366 11.634,23.5 15.5,23.5 Z" stroke="currentColor" stroke-width="1" fill="none" fill-rule="evenodd"/>
</svg>
