<svg width="48" height="48" viewBox="0 0 48 48" version="1.1" xmlns="http://www.w3.org/2000/svg">
    <title>
        maintenance-large
    </title>
    <path d="M24.5,26 L24.5,17.5 L29.5,12.5 L29.5,6.5 L25.5,2.5 L24.5,3.5 L24.5,7.5 L23.5,8.5 L18.5,8.5 L17.5,7.5 L17.5,3.5 L16.5,2.5 L12.5,6.5 L12.5,12.5 L17.5,17.5 L17.5,42.5 C17.5,44.2 18.8,45.5 20.5,45.5 L21.5,45.5 C22.8467,45.5 23.9424,44.6842 24.3396,43.5 M34.5,40 L34.5,33 M34.5,31 L34.5,29 M34.5,45.5 C40.5751,45.5 45.5,40.5751 45.5,34.5 C45.5,28.4249 40.5751,23.5 34.5,23.5 C28.4249,23.5 23.5,28.4249 23.5,34.5 C23.5,40.5751 28.4249,45.5 34.5,45.5 Z" stroke="currentColor" stroke-width="1" fill="none" fill-rule="evenodd"/>
</svg>
