<?xml version="1.0" encoding="UTF-8" standalone="no"?>
<svg width="48px" height="48px" viewBox="0 0 48 48" version="1.1" xmlns="http://www.w3.org/2000/svg" xmlns:xlink="http://www.w3.org/1999/xlink">
    <!-- Generator: sketchtool 46.2 (44496) - http://www.bohemiancoding.com/sketch -->
    <title>main-user-large</title>
    <desc>Created with sketchtool.</desc>
    <defs></defs>
    <g id="icons-published" stroke="none" stroke-width="1" fill="none" fill-rule="evenodd">
        <g id="briefing" transform="translate(-3744.000000, -922.000000)"></g>
        <g id="main-user-large" stroke="#000000">
            <path d="M38.5,20 C38.5,20 35.5,23.8 31.5,23.8 C31.5,37 38.5,41 38.5,41 C38.5,41 45.5,36.3 45.5,23.8 C41.6,23.8 38.5,20 38.5,20 Z" id="Shape"></path>
            <path d="M27.5,20.5 L20.5,20.5 C18.9,20.5 17.5,19.1 17.5,17.5 L17.5,10.5 C17.5,8.9 18.9,7.5 20.5,7.5 L27.5,7.5 C29.1,7.5 30.5,8.9 30.5,10.5 L30.5,17.5 C30.5,19.1 29.1,20.5 27.5,20.5 Z" id="Shape"></path>
            <path d="M33,40.5 L11.5,40.5 L11.5,27.2 C11.5,27.2 11.7,24.4 15,24.4 L27,24.4" id="Path"></path>
        </g>
    </g>
</svg>