<svg width="48" height="48" viewBox="0 0 48 48" version="1.1" xmlns="http://www.w3.org/2000/svg">
    <title>
        main-user-large
    </title>
    <path d="M38.5,20 C38.5,20 35.5,23.8 31.5,23.8 C31.5,37 38.5,41 38.5,41 C38.5,41 45.5,36.3 45.5,23.8 C41.6,23.8 38.5,20 38.5,20 Z M27.5,20.5 L20.5,20.5 C18.9,20.5 17.5,19.1 17.5,17.5 L17.5,10.5 C17.5,8.9 18.9,7.5 20.5,7.5 L27.5,7.5 C29.1,7.5 30.5,8.9 30.5,10.5 L30.5,17.5 C30.5,19.1 29.1,20.5 27.5,20.5 Z M33,40.5 L11.5,40.5 L11.5,27.2 C11.5,27.2 11.7,24.4 15,24.4 L27,24.4" stroke="currentColor" stroke-width="1" fill="none" fill-rule="evenodd"/>
</svg>
