<svg width="24" height="24" viewBox="0 0 24 24" version="1.1" xmlns="http://www.w3.org/2000/svg">
    <title>
        maneuvering-assist-small
    </title>
    <path d="M12.5,13.5 L12,13.5 C11.5857864,13.5 11.25,13.1642136 11.25,12.75 L11.25,12.5 L4.75,12.5 L4.75,12.75 C4.75,13.1642136 4.41421356,13.5 4,13.5 L2.25,13.5 C1.83578644,13.5 1.5,13.1642136 1.5,12.75 L1.5,8.35770751 L4.5,4.5 L11.5,4.5 L12.7447355,6.10060845 M1.5,9.5 L4.5,9.5 M19.5,11 L21.5,18.5 L17.5,18.5 L19.5,11 Z M16.5,12 L14.5,14.5 L14.5,11 L10.4641808,8.5 L15.1113281,8 L16.5,3.5 L18,7 L22.5,6.5 L20.5,9" stroke="currentColor" stroke-width="1" fill="none" fill-rule="evenodd"/>
</svg>
