<svg width="48" height="48" viewBox="0 0 48 48" version="1.1" xmlns="http://www.w3.org/2000/svg">
    <title>
        maneuvering-assist-large
    </title>
    <path d="M27.3662178,23 C27.1933131,23.2989007 26.8701412,23.5 26.5,23.5 L24.5,23.5 C23.9477153,23.5 23.5,23.0522847 23.5,22.5 L23.5,21.5 L8.5,21.4545455 L8.5,22.5 C8.5,23.0522847 8.05228475,23.5 7.5,23.5 L5.5,23.5 C4.94771525,23.5 4.5,23.0522847 4.5,22.5 L4.5,14.5 L6.5,12.5 C7.16060592,11.2878788 7.69090895,10.3636364 8.09090909,9.72727273 C8.49090923,9.09090909 8.9606062,8.36363636 9.5,7.54545455 C11.7068511,7.36363636 13.8774704,7.27272727 16.0118577,7.27272727 C18.1462451,7.27272727 20.3089592,7.36363636 22.5,7.54545455 C23.0393945,8.36363636 23.5090915,9.09090909 23.9090909,9.72727273 C24.3090904,10.3636364 24.8393934,11.2878788 25.5,12.5 L27.5,14.5 L27.5,16 M10.5,16.5 L11.5,15.5 L20.5,15.5 L21.5,16.5 C20.8636364,18.5 20.3636364,19.5 20,19.5 C19.4545455,19.5 12.5454545,19.5 12,19.5 C11.6363636,19.5 11.1363636,18.5 10.5,16.5 Z M6.5,12.5 L25.5,12.5 M4.5,15.5 L9,15.5 M23,15.5 L27.5,15.5 M32,39.5 L42.9814453,39.5 M33.5,37.5 L41.5,37.5 L37.5,23 L33.5,37.5 Z M33.0074401,23.8636364 L30.1765868,27.5 L30.1765868,22.4090909 L24.4641808,18.7727273 L31.041877,18.0454545 L33.0074401,11.5 L35.1305801,16.5909091 L41.5,15.8636364 L38.6691467,19.5" stroke="currentColor" stroke-width="1" fill="none" fill-rule="evenodd"/>
</svg>
