<svg width="48" height="48" viewBox="0 0 48 48" version="1.1" xmlns="http://www.w3.org/2000/svg">
    <title>
        merchandise-large
    </title>
    <path d="M11.9092121,8.41068836 C14.7430375,7.80356279 17.2733002,7.5 19.5,7.5 C23,7.5 25,7.5 28.5,7.5 C30.7474284,7.5 33.3040976,7.80924087 36.1700077,8.42772262 C36.3838336,8.4738698 36.5949764,8.53167393 36.8024898,8.60087817 L45.4956976,11.5 L45.4956976,11.5 L43.5023879,21.5 L37.5,19.5 L37.5,42.5 L10.5,42.5 L10.5,19.5 L4.50394922,21.5 L2.5,11.7498991 L11.1283324,8.63420912 C11.3832784,8.54215052 11.644169,8.46747184 11.9092121,8.41068836 Z M30.4750235,7.57377066 C30.1845547,10.8948829 27.3965062,13.5 24,13.5 C20.6034938,13.5 17.8154453,10.8948829 17.5249765,7.57377066 L17.5249765,7.57377066 L17.5249765,7.57377066 M17.5645161,24 C19.2570017,24 20.6290323,22.6568542 20.6290323,21 C20.6290323,19.3431458 19.2570017,18 17.5645161,18 C15.8720306,18 14.5,19.3431458 14.5,21 C14.5,22.6568542 15.8720306,24 17.5645161,24 Z M30.4354839,24 C32.1279694,24 33.5,22.6568542 33.5,21 C33.5,19.3431458 32.1279694,18 30.4354839,18 C28.7429983,18 27.3709677,19.3431458 27.3709677,21 C27.3709677,22.6568542 28.7429983,24 30.4354839,24 Z M26.1451613,24 C27.8376468,24 29.2096774,22.6568542 29.2096774,21 C29.2096774,19.3431458 27.8376468,18 26.1451613,18 C24.4526758,18 23.0806452,19.3431458 23.0806452,21 C23.0806452,22.6568542 24.4526758,24 26.1451613,24 Z M21.8548387,24 C23.5473242,24 24.9193548,22.6568542 24.9193548,21 C24.9193548,19.3431458 23.5473242,18 21.8548387,18 C20.1623532,18 18.7903226,19.3431458 18.7903226,21 C18.7903226,22.6568542 20.1623532,24 21.8548387,24 Z" stroke="currentColor" stroke-width="1" fill="none" fill-rule="evenodd"/>
</svg>
