<svg width="48" height="48" viewBox="0 0 48 48" version="1.1" xmlns="http://www.w3.org/2000/svg">
    <title>
        merchandise-large
    </title>
    <path d="M11.9023033,8.4046655 C14.5780979,7.80258739 18.6106635,7.50103222 24,7.5 C29.4555501,7.4989551 33.5207858,7.80787492 36.195707,8.42675947 L36.1957073,8.42675825 C36.3799342,8.46938201 36.5620432,8.52069096 36.7414245,8.58051331 L45.4956976,11.5 L43.5023879,21.5 L37.5,19.5 L37.5,42.5 L10.5,42.5 L10.5,19.5 L4.50394922,21.5 L2.5,11.7498991 L11.1816163,8.61496901 C11.4172198,8.52989262 11.6579198,8.45965399 11.9023033,8.4046655 Z M17.5356442,7.68480856 C19.414413,7.56206842 21.5691983,7.50046557 24,7.5 C26.4308732,7.49953441 28.5857137,7.56060916 30.4645215,7.68322422 C30.1230767,10.9519423 27.3591038,13.5 24,13.5 C20.641439,13.5 17.8778164,10.9527656 17.5356442,7.68480856 Z M17.5645161,24 C19.2570017,24 20.6290323,22.6568542 20.6290323,21 C20.6290323,19.3431458 19.2570017,18 17.5645161,18 C15.8720306,18 14.5,19.3431458 14.5,21 C14.5,22.6568542 15.8720306,24 17.5645161,24 Z M30.4354839,24 C32.1279694,24 33.5,22.6568542 33.5,21 C33.5,19.3431458 32.1279694,18 30.4354839,18 C28.7429983,18 27.3709677,19.3431458 27.3709677,21 C27.3709677,22.6568542 28.7429983,24 30.4354839,24 Z M26.1451613,24 C27.8376468,24 29.2096774,22.6568542 29.2096774,21 C29.2096774,19.3431458 27.8376468,18 26.1451613,18 C24.4526758,18 23.0806452,19.3431458 23.0806452,21 C23.0806452,22.6568542 24.4526758,24 26.1451613,24 Z M21.8548387,24 C23.5473242,24 24.9193548,22.6568542 24.9193548,21 C24.9193548,19.3431458 23.5473242,18 21.8548387,18 C20.1623532,18 18.7903226,19.3431458 18.7903226,21 C18.7903226,22.6568542 20.1623532,24 21.8548387,24 Z" stroke="currentColor" stroke-width="1" fill="none" fill-rule="evenodd"/>
</svg>
