<svg width="24" height="24" viewBox="0 0 24 24" version="1.1" xmlns="http://www.w3.org/2000/svg">
    <title>
        merchandise-black-small
    </title>
    <path d="M6.97128854,2.67399923 C7.90666009,2.558466 9.58289725,2.50046671 12,2.50000136 C14.4174048,2.49953595 16.0937589,2.55739498 17.0290621,2.67357847 L17.0290611,2.6735865 C17.3013423,2.70740931 17.5676966,2.77842496 17.8206745,2.88464732 L22.9977988,5.05845852 L22,10 L18.4977703,8.67142993 L18.4977703,20.5000014 L5.50222975,20.5000014 L5.50222975,8.67142993 L2,10 L1,5.05845852 L6.17800364,2.88515036 C6.43150753,2.77874978 6.6984342,2.70770107 6.97128854,2.67399923 Z M8.50051545,2.56068204 C9.41007708,2.5205023 10.5765719,2.5002754 12,2.50000136 C13.4234354,2.49972731 14.589935,2.51967542 15.4994987,2.55984568 C15.4675537,4.46523624 13.9130085,6 12,6 C10.0872714,6 8.53290123,4.46568534 8.50051545,2.56068204 Z" stroke="currentColor" stroke-width="1" fill="none" fill-rule="evenodd"/>
</svg>
