<svg width="24" height="24" viewBox="0 0 24 24" version="1.1" xmlns="http://www.w3.org/2000/svg">
    <title>
        merchandise-small
    </title>
    <path d="M6.89424441,2.68861039 C7.76282961,2.56287104 8.6314148,2.50000136 9.5,2.50000136 C11,2.50000136 13,2.50000136 14.5,2.50000136 C15.3684787,2.50000136 16.2369574,2.56285563 17.1054362,2.68856416 C17.356945,2.72495363 17.6028068,2.79316731 17.8371173,2.89155143 L22.9977988,5.05845852 L22.9977988,5.05845852 L22,10.0000014 L18.4977703,8.67142993 L18.4977703,20.5000014 L5.50222975,20.5000014 L5.50222975,8.67142993 L2,10.0000014 L1,5.05845852 L6.16301604,2.89143882 C6.39719092,2.79315043 6.6428989,2.72499603 6.89424441,2.68861039 Z M15.4998921,2.52777299 C15.4849682,4.44798396 13.9237305,6 12,6 C10.0762695,6 8.51503176,4.44798396 8.50010789,2.52777299 L8.50010789,2.52777299 L8.50010789,2.52777299" stroke="currentColor" stroke-width="1" fill="none" fill-rule="evenodd"/>
</svg>
