<svg width="24" height="24" viewBox="0 0 24 24" version="1.1" xmlns="http://www.w3.org/2000/svg">
    <title>
        microphone-off-small
    </title>
    <path d="M18.5,11.0000009 L18.5,12.8571009 C18.5,16.4470009 15.5899,19.3571009 12,19.3571009 C10.5026,19.3571009 9.12345,18.8508009 8.02444,18.0000009 M5.5,11.0000009 L5.5,12.8571009 C5.5,13.7982009 5.69998,14.6925009 6.05977,15.5000009 M12,23.0000009 L12,19.5000009 M8,23.5000009 L16,23.5000009 M8.5,13.0000009 L8.5,4.00000087 C8.5,2.06700087 10.067,0.500000868 12,0.500000868 C13.933,0.500000868 15.5,2.06700087 15.5,4.00000087 L15.5,6.00000087 M10.1962,16.0000009 C10.723,16.3174009 11.3402,16.5000009 12,16.5000009 C13.933,16.5000009 15.5,14.9330009 15.5,13.0000009 L15.5,11.0000009 M1.375,22.6250009 L22.875,1.00000087" stroke="currentColor" stroke-width="1" fill="none" fill-rule="evenodd"/>
</svg>
