<svg width="48" height="48" viewBox="0 0 48 48" version="1.1" xmlns="http://www.w3.org/2000/svg">
    <title>
        microphone-off-large
    </title>
    <path d="M24.5,47.5000002 L24.5,38.5000002 M24.5,47.5000002 L16.5,47.5000002 M24.5,47.5000002 L32.5,47.5000002 M24.5,38.5000002 C31.1274,38.5000002 36.5,33.1274002 36.5,26.5000002 L36.5,22.0000002 M24.5,38.5000002 C21.1788,38.5000002 18.1727,37.1508002 16,34.9705002 M12.5,22.0000002 L12.5,26.5000002 C12.5,28.2844002 12.8895,29.9779002 13.5881,31.5000002 M32.5,18.0000002 L32.5,26.5000002 C32.5,30.9183002 28.9183,34.5000002 24.5,34.5000002 C22.2121,34.5000002 20.1486,33.5396002 18.6905,32.0000002 M32.5,13.0000002 L32.5,8.50000025 C32.5,4.08172025 28.9183,0.50000025 24.5,0.50000025 C20.0817,0.50000025 16.5,4.08172025 16.5,8.50000025 L16.5,26.5000002 C16.5,27.1368002 16.5744,27.7562002 16.715,28.3500002 M3.49902,44.4990002 L45.499,2.49902025" stroke="currentColor" stroke-width="1" fill="none" fill-rule="evenodd"/>
</svg>
