<svg width="48" height="48" viewBox="0 0 48 48" version="1.1" xmlns="http://www.w3.org/2000/svg">
    <title>
        microphone-on-large
    </title>
    <path d="M24.5,38.5000002 L24.5,47.5000002 M24.5,38.5000002 C17.8726,38.5000002 12.5,33.1274002 12.5,26.5000002 L12.5,22.0000002 M24.5,38.5000002 C31.1274,38.5000002 36.5,33.1274002 36.5,26.5000002 L36.5,22.0000002 M24.5,47.5000002 L16.5,47.5000002 M24.5,47.5000002 L32.5,47.5000002 M24.5,34.5000002 C20.0817,34.5000002 16.5,30.9183002 16.5,26.5000002 L16.5,8.50000025 C16.5,4.08172025 20.0817,0.50000025 24.5,0.50000025 C28.9183,0.50000025 32.5,4.08172025 32.5,8.50000025 L32.5,26.5000002 C32.5,30.9183002 28.9183,34.5000002 24.5,34.5000002 Z" stroke="currentColor" stroke-width="1" fill="none" fill-rule="evenodd"/>
</svg>
