<svg width="24" height="24" viewBox="0 0 24 24" version="1.1" xmlns="http://www.w3.org/2000/svg">
    <title>
        mileage-small
    </title>
    <path d="M8.5,19.5 L1.5,19.5 L1.5,4.5 L8.5,4.5 L8.5,19.5 Z M8.5,4.5 L15.5,4.5 L15.5,19.5 L8.5,19.5 L8.5,4.5 Z M15.5,4.5 L22.5,4.5 L22.5,19.5 L15.5,19.5 L15.5,4.5 Z M23,1.5 L1,1.5 L23,1.5 Z M1,22.5 L23,22.5 L1,22.5 Z M3,9.5 L6.2,9.5 L3.6,14.7 M14,9.5 L10.5,9.5 L10.5,12.1 C10.5,12.1 13.4,12.1 13.4,13.8 C13.4,15.5 10.2,14.7 10.2,14.7 M17.5,16 C18,15.6 18.6,15.4 19.2,15.4 C20.3,15.5 20.5,16.6 20.3,17.2 C19.9,18.2 19.2,19.5 17.5,19.5 M19.5,4.5 L19.5,9" stroke="currentColor" stroke-width="1" fill="none" fill-rule="evenodd"/>
</svg>
