<svg width="48" height="48" viewBox="0 0 48 48" version="1.1" xmlns="http://www.w3.org/2000/svg">
    <title>
        mileage-large
    </title>
    <path d="M1.5,11.5 L13.5,11.5 L13.5,36.5 L1.5,36.5 L1.5,11.5 Z M17.5,11.5 L29.5,11.5 L29.5,36.5 L17.5,36.5 L17.5,11.5 Z M33.5,11.5 L45.5,11.5 L45.5,36.5 L33.5,36.5 L33.5,11.5 Z M46,7.5 L1,7.5 L46,7.5 Z M1,40.5 L46,40.5 L1,40.5 Z M4,19.5 L10.5,19.5 L5.5,29 M27,19.5 L21.5,19.5 L21.5,23.5 C21.5,23.5 26.5,23.4 26.5,26.5 C26.5,29.6 20.5,28.5 20.5,28.5 M41.5,36 L41.5,26.5 L36.5,33.5 L43,33.5 M36.5,18.5 C37.3,19.2 38.4,19.6 39.5,19.5 C41.5,19.5 41.5,17 41.5,17 C41.5,17 41.5,14.5 38.5,14.5 C40.1,14.6 41.4,13.4 41.5,11.8 C41.5,11.7 41.5,11.6 41.5,11.5" stroke="currentColor" stroke-width="1" fill="none" fill-rule="evenodd"/>
</svg>
