<svg width="48" height="48" viewBox="0 0 48 48" version="1.1" xmlns="http://www.w3.org/2000/svg">
    <title>
        mmi-large
    </title>
    <path d="M8.5,30.5 L8.5,14.5 C8.5,13.3954305 9.3954305,12.5 10.5,12.5 L37.4727844,12.5 C38.5773539,12.5 39.4727844,13.3954305 39.4727844,14.5 L39.4727844,30.5 L39.4727844,30.5 M8.5,15.5 L39.4727844,15.5 M22,26.5 L26,26.5 M2.92638282,31 C9.67020786,29.9963672 16.5280802,29.4945508 23.5,29.4945508 C30.4719198,29.4945508 37.6631442,29.9963672 45.0736735,31 M2.92638282,28 C5.40961717,27.6566946 7.27637185,27.4182631 8.52664686,27.2847055 M39.4930127,27.3347918 C40.7238073,27.461216 42.5840276,27.6829521 45.0736735,28" stroke="currentColor" stroke-width="1" fill="none" fill-rule="evenodd"/>
</svg>
