<svg width="48" height="48" viewBox="0 0 48 48" version="1.1" xmlns="http://www.w3.org/2000/svg">
    <title>
        mobile-phone-large
    </title>
    <path d="M14.5,3.5 L33.5,3.5 C34.6,3.5 35.5,4.4 35.5,5.5 L35.5,42.5 C35.5,43.6 34.6,44.5 33.5,44.5 L14.5,44.5 C13.4,44.5 12.5,43.6 12.5,42.5 L12.5,5.5 C12.5,4.4 13.4,3.5 14.5,3.5 Z M12.5,38.5 L35.5,38.5 M24,42.4 C24.4970563,42.4 24.9,41.9970563 24.9,41.5 C24.9,41.0029437 24.4970563,40.6 24,40.6 C23.5029437,40.6 23.1,41.0029437 23.1,41.5 C23.1,41.9970563 23.5029437,42.4 24,42.4 Z M21,7.5 L27,7.5" stroke="currentColor" stroke-width="1" fill="none" fill-rule="evenodd"/>
</svg>
