<svg width="48" height="48" viewBox="0 0 48 48" version="1.1" xmlns="http://www.w3.org/2000/svg">
    <title>
        more-large
    </title>
    <path d="M38.5,27 C39.8807119,27 41,25.8807119 41,24.5 C41,23.1192881 39.8807119,22 38.5,22 C37.1192881,22 36,23.1192881 36,24.5 C36,25.8807119 37.1192881,27 38.5,27 Z M23.5,27 C24.8807119,27 26,25.8807119 26,24.5 C26,23.1192881 24.8807119,22 23.5,22 C22.1192881,22 21,23.1192881 21,24.5 C21,25.8807119 22.1192881,27 23.5,27 Z M8.5,27 C9.88071187,27 11,25.8807119 11,24.5 C11,23.1192881 9.88071187,22 8.5,22 C7.11928813,22 6,23.1192881 6,24.5 C6,25.8807119 7.11928813,27 8.5,27 Z" stroke="currentColor" stroke-width="1" fill="none" fill-rule="evenodd"/>
</svg>
