<svg width="48" height="48" viewBox="0 0 48 48" version="1.1" xmlns="http://www.w3.org/2000/svg">
    <title>
        motorway-large
    </title>
    <path d="M45.5,45.5 L45.5,46 L46.25,46 L45.9615,45.3077 L45.5,45.5 Z M3.5,45.5 L3.03846,45.3077 L2.75,46 L3.5,46 L3.5,45.5 Z M21.5,3.5 L21.5,3 L21.1767,3 L21.044,3.29482 L21.5,3.5 Z M27.5,3.5 L27.956,3.29482 L27.8233,3 L27.5,3 L27.5,3.5 Z M3.5,13.5 L3.5,13 L3,13 L3,13.5 L3.5,13.5 Z M45.5,13.5 L46,13.5 L46,13 L45.5,13 L45.5,13.5 Z M45.5,21.5 L45.5,22 L46,22 L46,21.5 L45.5,21.5 Z M3.5,21.5 L3,21.5 L3,22 L3.5,22 L3.5,21.5 Z M6.5,21.5 L7,21.5 L7,21 L6.5,21 L6.5,21.5 Z M42.5,21.5 L42.5,21 L42,21 L42,21.5 L42.5,21.5 Z M8.5,21.5 L8.5,21 L8,21 L8,21.5 L8.5,21.5 Z M40.5,21.5 L41,21.5 L41,21 L40.5,21 L40.5,21.5 Z M45.5,45 L3.5,45 L3.5,46 L45.5,46 L45.5,45 Z M21.5,4 L27.5,4 L27.5,3 L21.5,3 L21.5,4 Z M21.044,3.29482 L16.544,13.2948 L17.456,13.7052 L21.956,3.70518 L21.044,3.29482 Z M27.044,3.70518 L31.544,13.7052 L32.456,13.2948 L27.956,3.29482 L27.044,3.70518 Z M35.0385,21.6923 L45.0385,45.6923 L45.9615,45.3077 L35.9615,21.3077 L35.0385,21.6923 Z M3.96154,45.6923 L13.9615,21.6923 L13.0385,21.3077 L3.03846,45.3077 L3.96154,45.6923 Z M24,34 L24,45.5 L25,45.5 L25,34 L24,34 Z M24,24 L24,30 L25,30 L25,24 L24,24 Z M24,8 L24,12 L25,12 L25,8 L24,8 Z M24,3.5 L24,6 L25,6 L25,3.5 L24,3.5 Z M3.5,14 L45.5,14 L45.5,13 L3.5,13 L3.5,14 Z M45,13.5 L45,21.5 L46,21.5 L46,13.5 L45,13.5 Z M4,21.5 L4,13.5 L3,13.5 L3,21.5 L4,21.5 Z M3.5,22 L6.5,22 L6.5,21 L3.5,21 L3.5,22 Z M45.5,21 L42.5,21 L42.5,22 L45.5,22 L45.5,21 Z M35.5,21 L13.5,21 L13.5,22 L35.5,22 L35.5,21 Z M6,21.5 L6,27 L7,27 L7,21.5 L6,21.5 Z M42,21.5 L42,27 L43,27 L43,21.5 L42,21.5 Z M8,21.5 L8,27 L9,27 L9,21.5 L8,21.5 Z M8.5,22 L13.5,22 L13.5,21 L8.5,21 L8.5,22 Z M41,27 L41,21.5 L40,21.5 L40,27 L41,27 Z M40.5,21 L35.5,21 L35.5,22 L40.5,22 L40.5,21 Z" fill="currentColor" fill-rule="nonzero" stroke="none" stroke-width="1"/>
</svg>
