<svg width="24" height="24" viewBox="0 0 24 24" version="1.1" xmlns="http://www.w3.org/2000/svg">
    <title>
        motorway-small
    </title>
    <path d="M22.5,22.5 L22.5,23 L23.25,23 L22.9615,22.3077 L22.5,22.5 Z M1.5,22.5 L1.03846,22.3077 L0.75,23 L1.5,23 L1.5,22.5 Z M10.5,1.5 L10.5,1 L10.1615,1 L10.0358,1.3143 L10.5,1.5 Z M13.5,1.5 L13.9642,1.3143 L13.8385,1 L13.5,1 L13.5,1.5 Z M17.5,10.5 L17.9615,10.3077 L17.8333,10 L17.5,10 L17.5,10.5 Z M6.5,10.5 L6.5,10 L6.16667,10 L6.03846,10.3077 L6.5,10.5 Z M1.5,6.5 L1.5,6 L1,6 L1,6.5 L1.5,6.5 Z M22.5,6.5 L23,6.5 L23,6 L22.5,6 L22.5,6.5 Z M22.5,10.5 L22.5,11 L23,11 L23,10.5 L22.5,10.5 Z M1.5,10.5 L1,10.5 L1,11 L1.5,11 L1.5,10.5 Z M3.5,10.5 L4,10.5 L4,10 L3.5,10 L3.5,10.5 Z M20.5,10.5 L20.5,10 L20,10 L20,10.5 L20.5,10.5 Z M22.5,22 L1.5,22 L1.5,23 L22.5,23 L22.5,22 Z M10.5,2 L13.5,2 L13.5,1 L10.5,1 L10.5,2 Z M10.0358,1.3143 L8.03576,6.3143 L8.96424,6.6857 L10.9642,1.6857 L10.0358,1.3143 Z M13.0358,1.6857 L15.0358,6.6857 L15.9642,6.3143 L13.9642,1.3143 L13.0358,1.6857 Z M17.0385,10.6923 L22.0385,22.6923 L22.9615,22.3077 L17.9615,10.3077 L17.0385,10.6923 Z M1.96154,22.6923 L6.96154,10.6923 L6.03846,10.3077 L1.03846,22.3077 L1.96154,22.6923 Z M11.5,17 L11.5,22 L12.5,22 L12.5,17 L11.5,17 Z M11.5,12 L11.5,15 L12.5,15 L12.5,12 L11.5,12 Z M11.5,4 L11.5,6 L12.5,6 L12.5,4 L11.5,4 Z M11.5,2 L11.5,3 L12.5,3 L12.5,2 L11.5,2 Z M1.5,7 L22.5,7 L22.5,6 L1.5,6 L1.5,7 Z M22,6.5 L22,10.5 L23,10.5 L23,6.5 L22,6.5 Z M2,10.5 L2,6.5 L1,6.5 L1,10.5 L2,10.5 Z M1.5,11 L3.5,11 L3.5,10 L1.5,10 L1.5,11 Z M22.5,10 L20.5,10 L20.5,11 L22.5,11 L22.5,10 Z M17.5,10 L6.5,10 L6.5,11 L17.5,11 L17.5,10 Z M3,10.5 L3,13 L4,13 L4,10.5 L3,10.5 Z M20,10.5 L20,13 L21,13 L21,10.5 L20,10.5 Z" fill="currentColor" fill-rule="nonzero" stroke="none" stroke-width="1"/>
</svg>
