<svg xmlns="http://www.w3.org/2000/svg" width="24" height="24" viewBox="0 0 24px 24px"><path fill="none" stroke="currentColor" stroke-miterlimit="10" d="M7.5 7.5C6 6 4.5 6 4.5 6v8s1.3 5.5 7 5.5 7-5.5 7-5.5V6s-1.5 0-3 1.5c0 0-1.7-1.5-4-1.5s-4 1.5-4 1.5zM11 15.5h1M10 17.5h3"/><path d="M7 12h2s2 .1 2 2H9s-2-.1-2-2zM16 12h-2s-2 .1-2 2h2s2-.1 2-2z"/><g><path fill="none" stroke="currentColor" stroke-miterlimit="10" d="M6.323 6.598L6.5 6.3s1.6-2.8 5-2.8 5.4 2.8 5.4 2.8l.08.13"/><path d="M4 7.9s-1.9.9-1.9 2.6S4 13.1 4 13.1V7.9zM19 7.9s1.9.9 1.9 2.6-1.9 2.6-1.9 2.6V7.9z"/></g></svg>