<svg width="48" height="48" viewBox="0 0 48 48" version="1.1" xmlns="http://www.w3.org/2000/svg">
    <title>
        napster-large
    </title>
    <g stroke="none" stroke-width="1" fill="none" fill-rule="evenodd">
        <path d="M19,17 C16.9,15.1 14,15 14,15 L14,27 C14,27 16,36 24.5,36 C33,36 35,27 35,27 L35,15 C35,15 32,15 30,17 C30,17 28,15 24.5,15 C21,15 19,17 19,17 Z M22,32.5 L27,32.5 L22,32.5 Z M23,30.5 L26,30.5 L23,30.5 Z M16.5,15.5 C16.5,15.5 19.2,11 24.5,11 C29.8,11 32.5,15.5 32.5,15.5" stroke="currentColor"/>
        <path d="M18,25 L21,25 C21,25 24,25 24,28 L21,28 C21,28 18,28 18,25 Z M31,25 L28,25 C28,25 25,25 25,28 L28,28 C28,28 31,28 31,25 Z M13,18 C13,18 10,19.4 10,22 C10,24.6 13,25.9 13,25.9 L13,18 Z M36,18 C36,18 39,19.4 39,22 C39,24.6 36,25.9 36,25.9 L36,18 Z" fill="currentColor" fill-rule="nonzero"/>
    </g>
</svg>
