<svg xmlns="http://www.w3.org/2000/svg" width="48" height="48" viewBox="0 0 48 48"><path fill="none" stroke="currentColor" stroke-miterlimit="10" d="M16.5 15.5s2.7-4.5 8-4.5 8 4.5 8 4.5"/><path d="M13 18s-3 1.4-3 4 3 3.9 3 3.9V18zM36 18s3 1.4 3 4-3 3.9-3 3.9V18z"/><g><path fill="none" stroke="currentColor" stroke-miterlimit="10" d="M19 17c-2.1-1.9-5-2-5-2v12s2 9 10.5 9S35 27 35 27V15s-3 0-5 2c0 0-2-2-5.5-2S19 17 19 17zM22 32.5h5M23 30.5h3"/><path d="M18 25h3s3 0 3 3h-3s-3 0-3-3zM31 25h-3s-3 0-3 3h3s3 0 3-3z"/></g></svg>