<?xml version="1.0" encoding="UTF-8"?>
<svg width="48px" height="48px" viewBox="0 0 48 48" version="1.1" xmlns="http://www.w3.org/2000/svg" xmlns:xlink="http://www.w3.org/1999/xlink">
    <!-- Generator: sketchtool 48.1 (47250) - http://www.bohemiancoding.com/sketch -->
    <title>napster-large</title>
    <desc>Created with sketchtool.</desc>
    <defs></defs>
    <g id="icons-published" stroke="none" stroke-width="1" fill="none" fill-rule="evenodd">
        <g id="briefing" transform="translate(-1728.000000, -1050.000000)"></g>
        <g id="napster-large">
            <path d="M16.5,15.5 C16.5,15.5 19.2,11 24.5,11 C29.8,11 32.5,15.5 32.5,15.5" id="Shape" stroke="#000000"></path>
            <path d="M13,18 C13,18 10,19.4 10,22 C10,24.6 13,25.9 13,25.9 L13,18 Z M36,18 C36,18 39,19.4 39,22 C39,24.6 36,25.9 36,25.9 L36,18 Z" id="Shape" fill="#000000" fill-rule="nonzero"></path>
            <path d="M19,17 C16.9,15.1 14,15 14,15 L14,27 C14,27 16,36 24.5,36 C33,36 35,27 35,27 L35,15 C35,15 32,15 30,17 C30,17 28,15 24.5,15 C21,15 19,17 19,17 Z M22,32.5 L27,32.5 L22,32.5 Z M23,30.5 L26,30.5 L23,30.5 Z" id="Shape" stroke="#000000"></path>
            <path d="M18,25 L21,25 C21,25 24,25 24,28 L21,28 C21,28 18,28 18,25 Z M31,25 L28,25 C28,25 25,25 25,28 L28,28 C28,28 31,28 31,25 Z" id="Shape" fill="#000000" fill-rule="nonzero"></path>
        </g>
    </g>
</svg>