<svg width="48" height="48" viewBox="0 0 48 48" version="1.1" xmlns="http://www.w3.org/2000/svg">
    <title>
        network-large
    </title>
    <path d="M20.2998,18.8997002 C18.5997,20.1768002 17.5,22.2100002 17.5,24.5000002 C17.5,26.4330002 18.2835,28.1830002 19.5503,29.4497002 M20.2998,18.8997002 C21.4697,18.0208002 22.924,17.5000002 24.5,17.5000002 C26.6263,17.5000002 28.5311,18.4480002 29.8149,19.9444002 M20.2998,18.8997002 L14.3001,10.9001002 M19.5503,29.4497002 C20.817,30.7165002 22.567,31.5000002 24.5,31.5000002 C27.7804,31.5000002 30.5337,29.2436002 31.2926,26.1982002 M19.5503,29.4497002 C16.5554,32.4446002 13.9481,35.0519002 10.6213,38.3787002 M31.2926,26.1982002 C31.4281,25.6545002 31.5,25.0856002 31.5,24.5000002 C31.5,22.7603002 30.8653,21.1687002 29.8149,19.9444002 M31.2926,26.1982002 C33.3377,26.7094002 35.3045,27.2011002 37.5889,27.7722002 M29.8149,19.9444002 C31.9167,18.1429002 33.8716,16.4672002 36.2222,14.4524002 M36.2222,14.4524002 C36.7724,15.0937002 37.5887,15.5000002 38.5,15.5000002 C40.1569,15.5000002 41.5,14.1569002 41.5,12.5000002 C41.5,10.8431002 40.1569,9.50000025 38.5,9.50000025 C36.8431,9.50000025 35.5,10.8431002 35.5,12.5000002 C35.5,13.2456002 35.772,13.9277002 36.2222,14.4524002 Z M14.3001,10.9001002 C15.0287,10.3528002 15.5,9.48144025 15.5,8.50000025 C15.5,6.84315025 14.1569,5.50000025 12.5,5.50000025 C10.8431,5.50000025 9.5,6.84315025 9.5,8.50000025 C9.5,10.1569002 10.8431,11.5000002 12.5,11.5000002 C13.1754,11.5000002 13.7987,11.2768002 14.3001,10.9001002 Z M10.6213,38.3787002 C10.0784,37.8358002 9.32843,37.5000002 8.5,37.5000002 C6.84315,37.5000002 5.5,38.8431002 5.5,40.5000002 C5.5,42.1569002 6.84315,43.5000002 8.5,43.5000002 C10.1569,43.5000002 11.5,42.1569002 11.5,40.5000002 C11.5,39.6716002 11.1642,38.9216002 10.6213,38.3787002 Z M37.5889,27.7722002 C37.5308,28.0052002 37.5,28.2490002 37.5,28.5000002 C37.5,30.1569002 38.8431,31.5000002 40.5,31.5000002 C42.1569,31.5000002 43.5,30.1569002 43.5,28.5000002 C43.5,26.8431002 42.1569,25.5000002 40.5,25.5000002 C39.0941,25.5000002 37.9141,26.4670002 37.5889,27.7722002 Z" stroke="currentColor" stroke-width="1" fill="none" fill-rule="evenodd"/>
</svg>
