<svg width="24" height="24" viewBox="0 0 24 24" version="1.1" xmlns="http://www.w3.org/2000/svg">
    <title>
        network-small
    </title>
    <path d="M9.89988,9.19984087 C9.04983,9.83839087 8.5,10.8550009 8.5,12.0000009 C8.5,12.9665009 8.89175,13.8415009 9.52513,14.4749009 M9.89988,9.19984087 C10.4849,8.76040087 11.212,8.50000087 12,8.50000087 C13.0631,8.50000087 14.0155,8.97400087 14.6574,9.72219087 M9.89988,9.19984087 L6.90005,5.20007087 M9.52513,14.4749009 C10.1585,15.1082009 11.0335,15.5000009 12,15.5000009 C13.6402,15.5000009 15.0169,14.3718009 15.3963,12.8491009 M9.52513,14.4749009 C8.0277,15.9723009 6.72406,17.2759009 5.06066,18.9393009 M15.3963,12.8491009 C15.464,12.5772009 15.5,12.2928009 15.5,12.0000009 C15.5,11.1301009 15.1827,10.3344009 14.6574,9.72219087 M15.3963,12.8491009 C16.4188,13.1047009 17.4022,13.3506009 18.5444,13.6361009 M14.6574,9.72219087 C15.7083,8.82143087 16.6858,7.98359087 17.8611,6.97620087 M17.8611,6.97620087 C18.1362,7.29686087 18.5444,7.50000087 19,7.50000087 C19.8284,7.50000087 20.5,6.82843087 20.5,6.00000087 C20.5,5.17157087 19.8284,4.50000087 19,4.50000087 C18.1716,4.50000087 17.5,5.17157087 17.5,6.00000087 C17.5,6.37280087 17.636,6.71384087 17.8611,6.97620087 Z M6.90005,5.20007087 C7.26436,4.92641087 7.5,4.49072087 7.5,4.00000087 C7.5,3.17157087 6.82843,2.50000087 6,2.50000087 C5.17157,2.50000087 4.5,3.17157087 4.5,4.00000087 C4.5,4.82843087 5.17157,5.50000087 6,5.50000087 C6.33771,5.50000087 6.64935,5.38840087 6.90005,5.20007087 Z M5.06066,18.9393009 C4.78921,18.6679009 4.41421,18.5000009 4,18.5000009 C3.17157,18.5000009 2.5,19.1716009 2.5,20.0000009 C2.5,20.8284009 3.17157,21.5000009 4,21.5000009 C4.82843,21.5000009 5.5,20.8284009 5.5,20.0000009 C5.5,19.5858009 5.33211,19.2108009 5.06066,18.9393009 Z M18.5444,13.6361009 C18.5154,13.7526009 18.5,13.8745009 18.5,14.0000009 C18.5,14.8284009 19.1716,15.5000009 20,15.5000009 C20.8284,15.5000009 21.5,14.8284009 21.5,14.0000009 C21.5,13.1716009 20.8284,12.5000009 20,12.5000009 C19.2971,12.5000009 18.7071,12.9835009 18.5444,13.6361009 Z" stroke="currentColor" stroke-width="1" fill="none" fill-rule="evenodd"/>
</svg>
