<svg xmlns="http://www.w3.org/2000/svg" width="24" height="24" viewBox="0 0 24px 24px"><g fill="none" stroke="currentColor"><g stroke-miterlimit="10"><path d="M14.32 12.83a9.5 9.5 0 0 0-.08-9.76M17.5 15.5a15.72 15.72 0 0 0 0-15M10.88 4.28a9.52 9.52 0 0 1 0 7.27L4.58 6A10.61 10.61 0 0 0 5 11.5"/></g><path d="M10.5 24v-5.5H14M14 21.5h-3.467M3.5 24v-5l4 3.82V18M20.65 22.85c-.455.394-1.038.651-1.64.65-1.428-.089-2.513-1.148-2.424-2.576A2.59 2.59 0 0 1 19.01 18.5c.415-.001.825.102 1.19.3"/></g></svg>