<svg xmlns="http://www.w3.org/2000/svg" width="48" height="48" viewBox="0 0 48 48"><g fill="none" stroke="currentColor"><path d="M32.185 12.247l.133.643-.026.022c-.341-2.367-1.086-4.41-2.372-6.522M30.07 24.86a17.892 17.892 0 0 0 2.314-6.732l.031-.03-.218 1.175M38.055 6.519l.253.705-.017.018A28.293 28.293 0 0 0 35.88 1.72M36.09 29.42a28.331 28.331 0 0 0 3.134-18.17l.037-.037.143 1.315M22.355 8.715a18.003 18.003 0 0 1 .05 13.76l-12.75-10.44a20.725 20.725 0 0 0 1 10.5"/><g><path d="M11.717 38.319L18.5 45v-9M10.5 46v-5.922l.035-.033-.035.817M22.5 46v-9.5H29M28 41.5h-5M38.45 44.36a4.16 4.16 0 0 1-2.72 1 4.3 4.3 0 0 1 0-8.6 4.133 4.133 0 0 1 2 .5"/></g><path d="M3.499 44.499l42-42"/></g></svg>