<svg width="24" height="24" viewBox="0 0 24 24" version="1.1" xmlns="http://www.w3.org/2000/svg">
    <title>
        nfc-inactive-small
    </title>
    <path d="M3.527,23.277 L3.5,23.302 L3.51999998,23.9500008 L3.527,23.277 Z M20.65,22.85 C20.195,23.244 19.612,23.501 19.01,23.5000029 C17.582,23.411 16.497,22.352 16.586,20.924 C16.6671892,19.620371 17.706371,18.5811892 19.01,18.4999928 C19.425,18.499 19.835,18.602 20.2,18.8 M10.5,24 L10.5,18.5 L14,18.5 M14,21.5 L10.533,21.5 M7.5,18.796 L7.5,22.85 L5.51,21 M14.24,3.07 C14.859,4.167 14.935,4.28 15.24,5.441 L15.279,5.408 L15.023,4.673 M14.592,13.32 C15.082,12.775 15.368,12.112 15.512,11.5 L15.492,11.518 L15.38,11.956 M18.21,1.9 L18.479,2.555 L18.457,2.575 C18.167,1.692 17.952,1.333 17.5,0.5 M17.5,15.5 C18.842,13.027 19.498,10.615 19.421,7.887 L19.4,7.915 L19.387,9.405 M8.9,4.3 C9.9,6.6 9.9,9.2 8.9,11.6 L2.6,6 C2.2,7.8 2.4,9.7 3,11.5 M1.375,22.625 L22.875,1" stroke="currentColor" stroke-width="1" fill="none" fill-rule="evenodd"/>
</svg>
