<svg xmlns="http://www.w3.org/2000/svg" width="24" height="24" viewBox="0 0 24px 24px"><g fill="none" stroke="currentColor"><g stroke-miterlimit="10"><path d="M14.24 3.07c.619 1.097.695 1.21 1 2.371l.039-.033-.256-.735M14.592 13.32c.49-.545.776-1.208.92-1.82l-.02.018-.112.438M18.21 1.9l.269.655-.022.02c-.29-.883-.505-1.242-.957-2.075M17.5 15.5c1.342-2.473 1.998-4.885 1.921-7.613l-.021.028-.013 1.49M8.88 4.28c.48 1.164.721 2.4.721 3.635 0 0 0 1.371-.385 2.682l-.043.142c-.102.329-.207.603-.293.811l-.455-.4-.114-.102L2.58 6 3 11.5"/></g><path d="M20.65 22.85c-.455.394-1.038.651-1.64.65-1.428-.089-2.513-1.148-2.424-2.576A2.59 2.59 0 0 1 19.01 18.5c.415-.001.825.102 1.19.3M10.5 24v-5.5H14M14 21.5h-3.467M7.5 18.796v4.054L5.51 21M3.5 24l.027-.723-.027.025V24M1.375 22.625L22.875 1"/></g></svg>