<?xml version="1.0" encoding="UTF-8"?>
<svg width="24px" height="25px" viewBox="0 0 24 25" version="1.1" xmlns="http://www.w3.org/2000/svg" xmlns:xlink="http://www.w3.org/1999/xlink">
    <!-- Generator: sketchtool 48.1 (47250) - http://www.bohemiancoding.com/sketch -->
    <title>nfc-inactive-small</title>
    <desc>Created with sketchtool.</desc>
    <defs></defs>
    <g id="icons-published" stroke="none" stroke-width="1" fill="none" fill-rule="evenodd">
        <g id="briefing" transform="translate(-2372.000000, -1050.000000)"></g>
        <g id="nfc-inactive-small" stroke="#000000">
            <path d="M14.2,3.1 C14.8,4.2 14.9,4.3 15.2,5.5 L15,4.7 M14.6,13.3 C15.1,12.8 15.4,12.1 15.5,11.5 L15.4,12 M18.2,1.9 L18.5,2.6 C18.2,1.7 18,1.4 17.5,0.5 M17.5,15.5 C18.8,13 19.5,10.6 19.4,7.9 L19.4,9.4 M8.9,4.3 C9.4,5.5 9.6,6.7 9.6,7.9 C9.6,7.9 9.6,9.3 9.2,10.6 L9.2,10.7 C9.1,11 9,11.3 8.9,11.5 L8.4,11.1 L8.3,11 L2.6,6 L3,11.5" id="Shape"></path>
            <path d="M20.6,22.9 C20.1,23.3 19.6,23.6 19,23.5 C17.6,23.4 16.5,22.4 16.6,20.9 C16.7,19.6 17.7,18.6 19,18.5 C19.4,18.5 19.8,18.6 20.2,18.8 M10.5,24 L10.5,18.5 L14,18.5 M14,21.5 L10.5,21.5 M7.5,18.8 L7.5,22.9 L5.5,21.1 M3.5,24 L3.5,23.3 L3.5,24 M1.4,22.6 L22.9,1" id="Shape"></path>
        </g>
    </g>
</svg>