<svg width="48" height="48" viewBox="0 0 48 48" version="1.1" xmlns="http://www.w3.org/2000/svg">
    <title>
        nfc-inactive-large
    </title>
    <path d="M32.185,12.247 L32.318,12.89 L32.292,12.912 C31.951,10.545 31.206,8.502 29.92,6.39 M30.07,24.86 C31.2844577,22.7936436 32.0713631,20.5043405 32.384,18.128 L32.415,18.098 L32.197,19.273 M38.055,6.519 L38.308,7.224 L38.291,7.242 C37.6861812,5.32076061 36.8779324,3.46959922 35.88,1.72 M36.09,29.42 C39.1314684,23.8822189 40.2345832,17.4866875 39.224,11.25 L39.261,11.213 L39.404,12.528 M22.355,8.715 C24.1930031,13.1141052 24.2109847,18.0626536 22.405,22.475 L9.655,12.035 C9.07722917,15.5626708 9.42171866,19.1798104 10.655,22.535 M11.717,38.319 L18.5,45 L18.5,36 M10.5,46 L10.5,40.078 L10.535,40.045 L10.5,40.862 M22.5,46 L22.5,36.5 L29,36.5 M28,41.5 L23,41.5 M38.45,44.36 C37.6924989,45.0085745 36.7272185,45.363457 35.73,45.360025 C33.3551756,45.360025 31.43,43.4348244 31.43,41.06 C31.43,38.6851756 33.3551756,36.76 35.73,36.76 C36.4281985,36.7550542 37.1162699,36.9270721 37.73,37.26 M3.499,44.499 L45.499,2.499" stroke="currentColor" stroke-width="1" fill="none" fill-rule="evenodd"/>
</svg>
