<svg width="48" height="48" viewBox="0 0 48 48" version="1.1" xmlns="http://www.w3.org/2000/svg">
    <title>
        oculus-large
    </title>
    <path d="M33.7141707,27.5963377 C33.2093398,27.9488877 32.6433172,28.1634834 32.0466989,28.2554529 C31.4500805,28.3472692 30.8381643,28.3320943 30.2415459,28.3320943 L17.773752,28.3320943 C17.1618357,28.3320943 16.5652174,28.3472692 15.968599,28.2554529 C15.3566828,28.1634834 14.8059581,27.9488877 14.3011272,27.5963377 C13.2914654,26.8910843 12.6795491,25.7414647 12.6795491,24.5000287 C12.6795491,23.2584395 13.2914654,22.1088198 14.3011272,21.4037197 C14.8059581,21.0511697 15.3719807,20.836574 15.968599,20.7446045 C16.5652174,20.6526349 17.1771337,20.6679632 17.773752,20.6679632 L30.2415459,20.6679632 C30.8534622,20.6679632 31.4500805,20.6526349 32.0466989,20.7446045 C32.6586151,20.836574 33.2093398,21.0511697 33.7141707,21.4037197 C34.7238325,22.1088198 35.3357488,23.2584395 35.3357488,24.5000287 C35.3510467,25.7414647 34.7391304,26.8910843 33.7141707,27.5963377 M38.747182,15.6096366 C37.4162641,14.5366583 35.8711755,13.7855734 34.2037037,13.3870386 C33.2552335,13.1571147 32.2914654,13.0498169 31.3123994,13.0191603 C30.5933977,12.9885038 29.8590982,13.0038321 29.1400966,13.0038321 L18.8446055,13.0038321 C18.1256039,13.0038321 17.3913043,13.0038321 16.6723027,13.0191603 C15.6932367,13.0498169 14.7447665,13.1571147 13.7809984,13.3870386 C12.1135266,13.7855734 10.5837359,14.5366583 9.25281804,15.6096366 C6.56038647,17.7709216 5,21.0358415 5,24.5000287 C5,27.9640627 6.56038647,31.2291358 9.25281804,33.3904208 C10.5837359,34.4633991 12.1288245,35.214484 13.7962963,35.6130188 C14.7447665,35.8429427 15.7085346,35.9502406 16.6876006,35.9808971 C17.4066023,36.0114003 18.1409018,35.9962253 18.8599034,35.9962253 L29.1553945,35.9962253 C29.8743961,35.9962253 30.6086957,35.9962253 31.3276973,35.9808971 C32.3067633,35.9502406 33.2552335,35.8429427 34.2190016,35.6130188 C35.8864734,35.214484 37.4162641,34.4633991 38.747182,33.3904208 C41.4396135,31.2291358 43,27.9640627 43,24.5000287 C43,21.0358415 41.4396135,17.7709216 38.747182,15.6096366" fill="currentColor" fill-rule="nonzero" stroke="none" stroke-width="1"/>
</svg>
