<svg width="24" height="24" viewBox="0 0 24 24" version="1.1" xmlns="http://www.w3.org/2000/svg">
    <title>
        oculus-small
    </title>
    <path d="M16.3713768,13.2827714 C16.1442029,13.4345212 15.8894928,13.5268907 15.6210145,13.5664776 C15.3525362,13.6059985 15.0771739,13.5994667 14.8086957,13.5994667 L9.19818841,13.5994667 C8.92282609,13.5994667 8.65434783,13.6059985 8.38586957,13.5664776 C8.11050725,13.5268907 7.86268116,13.4345212 7.63550725,13.2827714 C7.18115942,12.9792059 6.9057971,12.4843696 6.9057971,11.9500124 C6.9057971,11.4155892 7.18115942,10.9207529 7.63550725,10.6172533 C7.86268116,10.4655035 8.1173913,10.373134 8.38586957,10.3335471 C8.65434783,10.2939602 8.92971014,10.3005581 9.19818841,10.3005581 L14.8086957,10.3005581 C15.084058,10.3005581 15.3525362,10.2939602 15.6210145,10.3335471 C15.8963768,10.373134 16.1442029,10.4655035 16.3713768,10.6172533 C16.8257246,10.9207529 17.101087,11.4155892 17.101087,11.9500124 C17.107971,12.4843696 16.8326087,12.9792059 16.3713768,13.2827714 M18.6362319,8.12327838 C18.0373188,7.66143117 17.342029,7.33813813 16.5916667,7.16659488 C16.1648551,7.06762763 15.7311594,7.02144291 15.2905797,7.00824727 C14.967029,6.99505164 14.6365942,7.00164945 14.3130435,7.00164945 L9.68007246,7.00164945 C9.35652174,7.00164945 9.02608696,7.00164945 8.70253623,7.00824727 C8.26195652,7.02144291 7.83514493,7.06762763 7.40144928,7.16659488 C6.65108696,7.33813813 5.96268116,7.66143117 5.36376812,8.12327838 C4.15217391,9.0535706 3.45,10.4589057 3.45,11.9500124 C3.45,13.4410531 4.15217391,14.8464541 5.36376812,15.7767463 C5.96268116,16.2385935 6.65797101,16.5618866 7.40833333,16.7334298 C7.83514493,16.8323971 8.26884058,16.8785818 8.70942029,16.8917774 C9.03297101,16.9049071 9.3634058,16.8983753 9.68695652,16.8983753 L14.3199275,16.8983753 C14.6434783,16.8983753 14.973913,16.8983753 15.2974638,16.8917774 C15.7380435,16.8785818 16.1648551,16.8323971 16.5985507,16.7334298 C17.348913,16.5618866 18.0373188,16.2385935 18.6362319,15.7767463 C19.8478261,14.8464541 20.55,13.4410531 20.55,11.9500124 C20.55,10.4589057 19.8478261,9.0535706 18.6362319,8.12327838" fill="currentColor" fill-rule="nonzero" stroke="none" stroke-width="1"/>
</svg>
