<svg width="48" height="48" viewBox="0 0 48 48" version="1.1" xmlns="http://www.w3.org/2000/svg">
    <title>
        oil-change-large
    </title>
    <path d="M27.5,24.5 L44,19 L47,20.5 L45.5,22.5 L43.5,21.5 L33.5,25.5 L27.5,34.5 L9.5,34.5 L9.5,24.5 L6,21.5 L1.5,21.5 L1.5,19 L7,19 L10.5,21.5 L23.5,21.5 L27.5,24.5 Z M45.5,29.5 C46.3284271,29.5 47,28.7041827 47,27.7224922 C47,26.7408018 45.5,24.5 45.5,24.5 C45.5,24.5 44,26.7408018 44,27.7224922 C44,28.7041827 44.6715729,29.5 45.5,29.5 Z M14,16.5 C14,15.9477153 14.4378814,15.5 15.0029293,15.5 L19.9970707,15.5 C20.5509732,15.5 21,15.9438648 21,16.5 C21,17.0522847 20.5621186,17.5 19.9970707,17.5 L15.0029293,17.5 C14.4490268,17.5 14,17.0561352 14,16.5 Z M17.5,17.5 L17.5,21.5" stroke="currentColor" stroke-width="1" fill="none" fill-rule="evenodd"/>
</svg>
