<?xml version="1.0" encoding="UTF-8"?>
<svg width="48px" height="48px" viewBox="0 0 48 48" version="1.1" xmlns="http://www.w3.org/2000/svg" xmlns:xlink="http://www.w3.org/1999/xlink">
    <!-- Generator: sketchtool 48.1 (47250) - http://www.bohemiancoding.com/sketch -->
    <title>oil-change-large</title>
    <desc>Created with sketchtool.</desc>
    <defs/>
    <g id="icons-published" stroke="none" stroke-width="1" fill="none" fill-rule="evenodd">
        <g id="briefing" transform="translate(-3744.000000, -1050.000000)"/>
        <g id="oil-change-large" stroke="currentColor">
            <path d="M17.5,45.5 L17.5,25.5 C17.5,24.4 18.4,23.5 19.5,23.5 L31.5,23.5 C32.6,23.5 33.5,24.4 33.5,25.5 L33.5,45.5 L17.5,45.5 Z M21.5,23.5 L21.5,19.5 C21.5,18.4 22.4,17.5 23.5,17.5 L27.5,17.5 C28.6,17.5 29.5,18.4 29.5,19.5 L29.5,23.5 L21.5,23.5 Z" id="Shape"/>
            <path d="M29.5,20.5 L38.5,20.5 L29.5,20.5 Z M43.8,27.8 C42.9,28.7 41.7,28.7 40.9,27.9 L37,24.1 C36.2,23.3 36.2,22.1 37,21.3 L37.1,21.2 C37.9,20.4 39.1,20.3 39.9,21.1 L43.8,25.1 C44.5,25.7 44.6,27 43.8,27.8 Z" id="Shape"/>
            <polyline id="Path" points="22 18 7.5 3.5 3 3.5"/>
        </g>
    </g>
</svg>