<svg width="24" height="24" viewBox="0 0 24 24" version="1.1" xmlns="http://www.w3.org/2000/svg">
    <title>
        options-small
    </title>
    <path d="M1,8.5 L3.5,8.5 M3.5,8.5 C3.5,9.60457 4.39543,10.5 5.5,10.5 C6.60457,10.5 7.5,9.60457 7.5,8.5 C7.5,7.39543 6.60457,6.5 5.5,6.5 C4.39543,6.5 3.5,7.39543 3.5,8.5 Z M10,8.5 L23,8.5 M23,15.5 L20.5,15.5 M20.5,15.5 C20.5,14.3954 19.6046,13.5 18.5,13.5 C17.3954,13.5 16.5,14.3954 16.5,15.5 C16.5,16.6046 17.3954,17.5 18.5,17.5 C19.6046,17.5 20.5,16.6046 20.5,15.5 Z M14,15.5 L1,15.5" stroke="currentColor" stroke-width="1" fill="none" fill-rule="evenodd"/>
</svg>
