<svg width="48" height="48" viewBox="0 0 48 48" version="1.1" xmlns="http://www.w3.org/2000/svg">
    <title>
        options-large
    </title>
    <path d="M3,11.5 L7.5,11.5 M7.5,11.5 C7.5,13.7091 9.29086,15.5 11.5,15.5 C13.7091,15.5 15.5,13.7091 15.5,11.5 C15.5,9.29086 13.7091,7.5 11.5,7.5 C9.29086,7.5 7.5,9.29086 7.5,11.5 Z M18,11.5 L45,11.5 M3,23.5 L34,23.5 M3,35.5 L19.5,35.5 M19.5,35.5 C19.5,37.7091 21.2909,39.5 23.5,39.5 C25.7091,39.5 27.5,37.7091 27.5,35.5 C27.5,33.2909 25.7091,31.5 23.5,31.5 C21.2909,31.5 19.5,33.2909 19.5,35.5 Z M30,35.5 L45,35.5 M44.5,23.5 C44.5,25.7091 42.7091,27.5 40.5,27.5 C38.2909,27.5 36.5,25.7091 36.5,23.5 C36.5,21.2909 38.2909,19.5 40.5,19.5 C42.7091,19.5 44.5,21.2909 44.5,23.5 Z" stroke="currentColor" stroke-width="1" fill="none" fill-rule="evenodd"/>
</svg>
