<svg width="48" height="48" viewBox="0 0 48 48" version="1.1" xmlns="http://www.w3.org/2000/svg">
    <title>
        over-the-air-car-large
    </title>
    <path d="M45.5,24.5 L45.5,18 L41,13.5 C40.0667,11.6667 39.2333,10.1667 38.5,9 C37.7667,7.83333 36.7667,6.5 35.5,5 C31.7609,4.66667 27.9348,4.5 24.0217,4.5 C20.1087,4.5 16.2681,4.66667 12.5,5 C11.2333,6.5 10.2333,7.83333 9.5,9 C8.76667,10.1667 7.93333,11.6667 7,13.5 L2.5,18 L2.5,32 C2.5,32.8284 3.17157,33.5 4,33.5 L9,33.5 C9.82843,33.5 10.5,32.8284 10.5,32 L10.5,30.5 L24,30.5 M33,22 L31,19.5 L17,19.5 L15,22 C16.3333,25.6667 17.3333,27.5 18,27.5 C18.5,27.5 21.25,27.5 24,27.5 M6.75,13.5 L41.25,13.5 M44.8551,36.5 C44.6979,37.2398 44.4476,37.9734 44.1,38.6845 C42.6,41.7845 39.5,43.6845 36,43.6845 C31.7,43.6845 28.6,40.1845 27.7,36.6845 M32.5486,36.5845 L27.6449,36.5845 L27.6449,42.5763 M27.6449,33.6845 C27.8021,32.9446 28.0524,32.2111 28.4,31.5 C29.9,28.4 33,26.5 36.5,26.5 C40.8,26.5 43.9,30 44.8,33.5 M39.9514,33.6 L45.5,33.6 L45.5,27.6082 M43.5,18.5749 C43.5,19.5459 43.4167,20.2054 43.25,20.5532 C43,21.0749 42.5,21.5749 42,21.5749 L40,21.5749 C39.5,21.5749 35.75,20.5749 35.25,20.0749 C34.9167,19.7416 34.6667,19.4083 34.5,19.0749 C36.2684,18.8415 37.7684,18.6748 39,18.5749 C40.2316,18.475 41.7316,18.475 43.5,18.5749 Z M4.5,18.5749 C6.26837,18.475 7.76837,18.475 9,18.5749 C10.2316,18.6748 11.7316,18.8415 13.5,19.0749 C13.3333,19.4083 13.0833,19.7416 12.75,20.0749 C12.25,20.5749 8.5,21.5749 8,21.5749 C7.5,21.5749 6.5,21.5749 6,21.5749 C5.5,21.5749 5,21.0749 4.75,20.5532 C4.58333,20.2054 4.5,19.5459 4.5,18.5749 Z" stroke="currentColor" stroke-width="1" fill="none" fill-rule="evenodd"/>
</svg>
