<svg width="24" height="24" viewBox="0 0 24 24" version="1.1" xmlns="http://www.w3.org/2000/svg">
    <title>
        over-the-air-car-small
    </title>
    <path d="M0.5,10.5 L0.5,9.49998 L2.5,7.49998 M0.5,10.5 L0.5,17.5 C0.5,18.0523 0.947715,18.5 1.5,18.5 L3.5,18.5 C4.05228,18.5 4.5,18.0523 4.5,17.5 L4.5,16.5 L12,16.5 M0.5,10.5 L5,10.5 M23.5,11 L23.5,10.5 M23.5,10.5 L23.5,9.49998 L21.5,7.49998 M23.5,10.5 L19,10.5 M21.5,7.49998 C20.8394,6.28786 20.3091,5.36361 19.9091,4.72725 C19.5091,4.09089 19.0394,3.36361 18.5,2.54543 C16.309,2.36361 14.1462,2.27271 12.0119,2.27271 C9.87747,2.27271 7.70685,2.36361 5.5,2.54543 C4.96061,3.36361 4.49091,4.09089 4.09091,4.72725 C3.69091,5.36361 3.16061,6.28786 2.5,7.49998 M21.5,7.49998 L2.5,7.49998 M17,10.5 L7.5,10.5 L6.5,11.5 C7.13636,13.5 7.63636,14.5 8,14.5 L12,14.5 M14.7675,15.9522 C14.8275,15.7829 14.8977,15.6152 14.9785,15.45 C15.7285,13.9 17.2785,12.95 19.0285,12.95 C21.1785,12.95 22.7285,14.7 23.1785,16.45 M20.0285,16.5 L23.5285,16.5 L23.5285,13 M23.261,19.0477 C23.2011,19.217 23.1308,19.3847 23.05,19.55 C22.3,21.1 20.75,22.05 19,22.05 C16.85,22.05 15.3,20.3 14.85,18.55 M18,18.5 L14.5,18.5 L14.5,22" stroke="currentColor" stroke-width="1" fill="none" fill-rule="evenodd"/>
</svg>
