<svg width="48" height="48" viewBox="0 0 48 48" version="1.1" xmlns="http://www.w3.org/2000/svg">
    <title>
        over-the-air-large
    </title>
    <path d="M24.9959717,36.5 L8.5,36.5 L8.27506174,36.4958615 C5.06557489,36.3775718 2.5,33.7383969 2.5,30.5 C2.5,28.4767751 3.50141218,26.6874425 5.035618,25.6006208 C6.01418809,24.9074079 7.20951643,24.5 8.5,24.5 C9.01678073,24.5 9.51830196,24.5653337 9.9967545,24.6881919 C9.67573739,23.8541533 9.5,22.9475995 9.5,22 C9.5,17.8578644 12.8578644,14.5 17,14.5 C17.933259,14.5 18.8267052,14.6704586 19.650903,14.9819401 C21.5135222,11.1448639 25.4478906,8.5 30,8.5 C36.3512746,8.5 41.5,13.6487254 41.5,20 M45.8551125,32.5 C45.6978962,33.2398474 45.4476388,33.9733993 45.1,34.6844786 C43.6,37.7844786 40.5,39.6844786 37,39.6844786 C32.7,39.6844786 29.6,36.1844786 28.7,32.6844786 M33.5486017,32.5844786 L28,32.5844786 L28,38.5762719 M28.6448875,29.6844786 C28.8021038,28.9446311 29.0523612,28.2110793 29.4,27.5 C30.9,24.4 34,22.5 37.5,22.5 C41.8,22.5 44.9,26 45.8,29.5 M40.9513983,29.6 L46.5,29.6 L46.5,23.6082066" stroke="currentColor" stroke-width="1" fill="none" fill-rule="evenodd"/>
</svg>
