<svg width="24" height="24" viewBox="0 0 24 24" version="1.1" xmlns="http://www.w3.org/2000/svg">
    <title>
        over-the-air-small
    </title>
    <path d="M11.0047607,17.5 L5.5,17.5 L5.30035966,17.4951047 C3.18396847,17.3910789 1.5,15.6421954 1.5,13.5 C1.5,11.6349873 2.77637818,10.0680887 4.50325852,9.62518027 L4.5,9.5 C4.5,7.290861 6.290861,5.5 8.5,5.5 C8.89189149,5.5 9.27062011,5.55635695 9.62852342,5.6614084 C10.6329603,4.34800187 12.2174494,3.5 14,3.5 C17.0375661,3.5 19.5,5.96243388 19.5,9 M13.7674863,13.952251 C13.8274586,13.7829479 13.8977326,13.6152601 13.9785265,13.45 C14.7285265,11.9 16.2785265,10.95 18.0285265,10.95 C20.1785265,10.95 21.7285265,12.7 22.1785265,14.45 M19.0285265,14.5 L22.5285265,14.5 L22.5285265,11 M22.2610402,17.047749 C22.2010679,17.2170521 22.1307938,17.3847399 22.05,17.55 C21.3,19.1 19.75,20.05 18,20.05 C15.85,20.05 14.3,18.3 13.85,16.55 M17,16.5 L13.5,16.5 L13.5,20" stroke="currentColor" stroke-width="1" fill="none" fill-rule="evenodd"/>
</svg>
