<svg width="24" height="24" viewBox="0 0 24 24" version="1.1" xmlns="http://www.w3.org/2000/svg">
    <title>
        piloted-parking-small
    </title>
    <g stroke="currentColor" stroke-width="1" fill="none" fill-rule="evenodd">
        <path d="M8,9.5 L0.5,9.5 L0.5,20.9 C0.5,22.3 1.7,23.5 3.1,23.5 L14.5,23.5 L14.5,15.1"/>
        <path d="M4.5,20.9 L4.5,13.5 L8.5,13.5 C8.5,13.5 10.6,13.5 10.6,15.5 C10.6,17.7 9.9,18.5 8.3,18.5 L4.5,18.5 L4.5,20.9 Z M19,7 C19,5.6 17.9,4.5 16.5,4.5 C15.1,4.5 14,5.6 14,7 C14,8.4 15.1,9.5 16.5,9.5 C17.9,9.5 19,8.4 19,7 Z M16.5,9.5 L16.5,13.5 L16.5,9.5 Z M14.1,6.5 L9.6,6.5 L14.1,6.5 Z M19,6.5 L23.5,6.5 L19,6.5 Z"/>
        <path d="M13,13.5 L20.5,13.5 C22.2,12.3 23.5,9.7 23.5,7.5 C23.5,3.9 21,0.5 16.5,0.5 C12,0.5 9.5,3.9 9.5,7.5 C9.5,9.7 11.3,12.3 13,13.5 Z"/>
    </g>
</svg>
