<svg width="48" height="48" viewBox="0 0 48 48" version="1.1" xmlns="http://www.w3.org/2000/svg">
    <title>
        piloted-parking-large
    </title>
    <g stroke="none" stroke-width="1" fill="none" fill-rule="evenodd">
        <text font-family=".SFNSDisplay, .SF NS Display" font-size="25" font-weight="normal" fill="currentColor">
            <tspan x="3" y="28">P</tspan>
        </text>
        <path d="M30,42.5 C36.9035594,42.5 42.5,36.9035594 42.5,30 C42.5,23.0964406 36.9035594,17.5 30,17.5 C23.0964406,17.5 17.5,23.0964406 17.5,30 C17.5,36.9035594 23.0964406,42.5 30,42.5 Z M21.6662732,39.3337268 L26.3311551,34.6688449 M38.3430219,39.3430219 L33.6814063,34.6814063 L38.3430219,39.3430219 Z M42.4420928,28.5 L34.2999992,28.5 M25.7000008,28.5 L17.5657501,28.5 M30,36.3742304 C32.8833567,36.3742304 34.5681818,34.4164382 34.5681818,31.4797499 C34.5681818,29.8482564 34.5681818,27.8904642 33.262987,27.042088 C32.2171649,26.3623041 27.7803389,26.3639266 26.737013,27.042088 C25.4318182,27.8904642 25.4318182,29.8482564 25.4318182,31.4797499 C25.4318182,34.4164382 27.1166433,36.3742304 30,36.3742304 Z" stroke="currentColor"/>
    </g>
</svg>
