<?xml version="1.0" encoding="UTF-8"?>
<svg width="48px" height="48px" viewBox="0 0 48 48" version="1.1" xmlns="http://www.w3.org/2000/svg" xmlns:xlink="http://www.w3.org/1999/xlink">
    <!-- Generator: sketchtool 48.1 (47250) - http://www.bohemiancoding.com/sketch -->
    <title>piloted-parking-large</title>
    <desc>Created with sketchtool.</desc>
    <defs></defs>
    <g id="icons-published" stroke="none" stroke-width="1" fill="none" fill-rule="evenodd">
        <g id="briefing" transform="translate(-3744.000000, -1178.000000)"></g>
        <g id="piloted-parking-large" stroke="#000000">
            <path d="M24.9,8.5 L2.5,8.5 L2.5,40.5 C2.5,43.3 4.7,45.5 7.5,45.5 L39.5,45.5 L39.5,21" id="Shape"></path>
            <path d="M14.5,36 L14.5,18.5 L24.5,18.5 C24.5,18.5 29.5,18.3 29.5,22.5 C29.5,27.7 27.9,29.5 24,29.5 L15,29.5" id="Shape"></path>
            <circle id="Oval" cx="37.5" cy="9.5" r="3"></circle>
            <path d="M37.5,12.5 L37.5,17.5 L37.5,12.5 Z M34.5,9.5 L28.5,9.5 L34.5,9.5 Z M40.5,9.5 L46.5,9.5 L40.5,9.5 Z M32.5,17.5 L42.5,17.5 C44.8,15.9 46.5,12.9 46.5,10 C46.5,5.2 42.5,1.5 37.5,1.5 C32.5,1.5 28.5,5.2 28.5,10 C28.5,12.9 30.2,15.9 32.5,17.5 Z" id="Shape"></path>
        </g>
    </g>
</svg>