<svg xmlns="http://www.w3.org/2000/svg" width="48" height="48" viewBox="0 0 48px 48px"><path d="M24.703 9c-8.187 0-12.315 5.87-12.315 10.765 0 2.963 1.122 5.6 3.529 6.583.394.161.748.005.862-.432.08-.302.268-1.065.352-1.383.115-.432.07-.583-.248-.96-.694-.819-1.137-1.878-1.137-3.38 0-4.354 3.258-8.252 8.484-8.252 4.627 0 7.17 2.827 7.17 6.603 0 4.969-2.199 9.162-5.463 9.162-1.803 0-3.152-1.49-2.72-3.319.518-2.183 1.521-4.539 1.521-6.115 0-1.41-.757-2.587-2.324-2.587-1.842 0-3.323 1.907-3.323 4.46 0 1.627.55 2.727.55 2.727l-2.216 9.39c-.659 2.787-.1 6.203-.052 6.548.028.205.29.253.41.099.17-.222 2.364-2.932 3.11-5.639.211-.767 1.212-4.737 1.212-4.737.6 1.142 2.349 2.148 4.21 2.148 5.539 0 9.297-5.05 9.297-11.81 0-5.11-4.33-9.871-10.91-9.871z"/></svg>