<svg xmlns="http://www.w3.org/2000/svg" width="24" height="24" viewBox="0 0 24 24"><path d="M12.328 5c-3.82 0-5.747 2.74-5.747 5.024 0 1.383.524 2.613 1.647 3.072.184.075.349.002.402-.202.037-.14.125-.497.165-.645.053-.202.032-.272-.116-.448-.324-.382-.53-.877-.53-1.577 0-2.032 1.52-3.852 3.958-3.852 2.16 0 3.346 1.32 3.346 3.082 0 2.319-1.026 4.276-2.55 4.276-.84 0-1.47-.696-1.268-1.55.241-1.018.71-2.117.71-2.853 0-.658-.354-1.207-1.085-1.207-.86 0-1.55.89-1.55 2.081 0 .76.256 1.273.256 1.273L8.93 15.856c-.307 1.3-.046 2.895-.024 3.056.013.095.136.118.191.046.08-.104 1.104-1.369 1.452-2.632.099-.358.566-2.21.566-2.21.28.533 1.096 1.002 1.964 1.002 2.585 0 4.34-2.357 4.34-5.511C17.418 7.22 15.398 5 12.327 5z" fill="currentColor"/></svg>