<svg width="48" height="48" viewBox="0 0 48 48" version="1.1" xmlns="http://www.w3.org/2000/svg">
    <title>
        pinterest-large
    </title>
    <path d="M24.7,9 C16.5,9 12.4,14.9 12.4,19.8 C12.4,22.8 13.5,25.4 15.9,26.4 C16.3,26.6 16.6,26.4 16.8,26 C16.9,25.7 17.1,24.9 17.2,24.6 C17.3,24.2 17.3,24 17,23.6 C16.3,22.8 15.9,21.7 15.9,20.2 C15.9,15.8 19.2,11.9 24.4,11.9 C29,11.9 31.6,14.7 31.6,18.5 C31.6,23.5 29.4,27.7 26.1,27.7 C24.3,27.7 22.9,26.2 23.4,24.4 C23.9,22.2 24.9,19.9 24.9,18.3 C24.9,16.9 24.1,15.7 22.6,15.7 C20.8,15.7 19.3,17.6 19.3,20.2 C19.3,21.8 19.8,22.9 19.8,22.9 L17.6,32.3 C16.9,35.1 17.5,38.5 17.5,38.8 C17.5,39 17.8,39.1 17.9,38.9 C18.1,38.7 20.3,36 21,33.3 C21.2,32.5 22.2,28.6 22.2,28.6 C22.8,29.7 24.5,30.7 26.4,30.7 C31.9,30.7 35.7,25.6 35.7,18.9 C35.6,13.8 31.3,9 24.7,9 L24.7,9 Z" fill="currentColor" fill-rule="nonzero" stroke="none" stroke-width="1"/>
</svg>
