<svg width="24" height="24" viewBox="0 0 24 24" version="1.1" xmlns="http://www.w3.org/2000/svg">
    <title>
        pinterest-small
    </title>
    <path d="M12.3,5 C8.5,5 6.6,7.7 6.6,10 C6.6,11.4 7.1,12.6 8.2,13.1 C8.4,13.2 8.5,13.1 8.6,12.9 C8.6,12.8 8.7,12.4 8.8,12.3 C8.9,12.1 8.8,12 8.7,11.9 C8.4,11.5 8.2,11 8.2,10.3 C8.2,8.3 9.7,6.4 12.2,6.4 C14.4,6.4 15.5,7.7 15.5,9.5 C15.5,11.8 14.5,13.8 12.9,13.8 C12.1,13.8 11.4,13.1 11.6,12.2 C11.8,11.2 12.3,10.1 12.3,9.3 C12.3,8.6 11.9,8.1 11.2,8.1 C10.3,8.1 9.6,9 9.6,10.2 C9.6,11 9.9,11.5 9.9,11.5 L8.9,15.9 C8.6,17.2 8.9,18.8 8.9,19 C8.9,19 9,19 9.1,19 C9.2,18.9 10.2,17.6 10.6,16.4 C10.7,16 11.2,14.2 11.2,14.2 C11.5,14.7 12.3,15.2 13.2,15.2 C15.8,15.2 17.5,12.8 17.5,9.7 C17.4,7.2 15.4,5 12.3,5 L12.3,5 Z" fill="currentColor" fill-rule="nonzero" stroke="none" stroke-width="1"/>
</svg>
