<svg width="48" height="48" viewBox="0 0 48 48" version="1.1" xmlns="http://www.w3.org/2000/svg">
    <title>
        plug-cee5-large
    </title>
    <path d="M27.5,33 C27.5,34.933 25.933,36.5 24,36.5 C22.067,36.5 20.5,34.933 20.5,33 C20.5,31.067 22.067,29.5 24,29.5 C25.933,29.5 27.5,31.067 27.5,33 Z M31.5,16.5 C31.5,17.605 30.605,18.5 29.5,18.5 C28.395,18.5 27.5,17.605 27.5,16.5 C27.5,15.395 28.395,14.5 29.5,14.5 C30.605,14.5 31.5,15.395 31.5,16.5 Z M20.5,16.5 C20.5,17.605 19.605,18.5 18.5,18.5 C17.395,18.5 16.5,17.605 16.5,16.5 C16.5,15.395 17.395,14.5 18.5,14.5 C19.605,14.5 20.5,15.395 20.5,16.5 Z M36.5,25.5 C36.5,26.605 35.605,27.5 34.5,27.5 C33.395,27.5 32.5,26.605 32.5,25.5 C32.5,24.395 33.395,23.5 34.5,23.5 C35.605,23.5 36.5,24.395 36.5,25.5 Z M15.5,25.5 C15.5,26.605 14.605,27.5 13.5,27.5 C12.395,27.5 11.5,26.605 11.5,25.5 C11.5,24.395 12.395,23.5 13.5,23.5 C14.605,23.5 15.5,24.395 15.5,25.5 Z M43.5,24 C43.5,13.23 34.77,4.5 24,4.5 C13.23,4.5 4.5,13.23 4.5,24 C4.5,34.77 13.23,43.5 24,43.5 C34.77,43.5 43.5,34.77 43.5,24 Z" stroke="currentColor" stroke-width="1" fill="none" fill-rule="evenodd"/>
</svg>
