<svg width="48" height="48" viewBox="0 0 48 48" version="1.1" xmlns="http://www.w3.org/2000/svg">
    <title>
        plug-ccs1-large
    </title>
    <path d="M20.5,37.51 C20.5,39.719 18.709,41.51 16.5,41.51 C14.291,41.51 12.5,39.719 12.5,37.51 C12.5,35.301 14.291,33.51 16.5,33.51 C18.709,33.51 20.5,35.301 20.5,37.51 Z M35.5,37.51 C35.5,39.719 33.709,41.51 31.5,41.51 C29.291,41.51 27.5,39.719 27.5,37.51 C27.5,35.301 29.291,33.51 31.5,33.51 C33.709,33.51 35.5,35.301 35.5,37.51 Z M36.5,44.51 L11.5,44.51 C9.291,44.51 7.5,42.719 7.5,40.51 L7.5,34.51 C7.5,32.301 9.291,30.51 11.5,30.51 L36.5,30.51 C38.709,30.51 40.5,32.301 40.5,34.51 L40.5,40.51 C40.5,42.719 38.709,44.51 36.5,44.51 Z M21.5,24.0199 C21.5,22.6389 22.619,21.5199 24,21.5199 C25.381,21.5199 26.5,22.6389 26.5,24.0199 C26.5,25.4009 25.381,26.5199 24,26.5199 C22.619,26.5199 21.5,25.4009 21.5,24.0199 Z M16.5,13.0199 C16.5,11.6389 17.619,10.5199 19,10.5199 C20.381,10.5199 21.5,11.6389 21.5,13.0199 C21.5,14.4009 20.381,15.5199 19,15.5199 C17.619,15.5199 16.5,14.4009 16.5,13.0199 Z M26.5,13.0199 C26.5,11.6389 27.619,10.5199 29,10.5199 C30.381,10.5199 31.5,11.6389 31.5,13.0199 C31.5,14.4009 30.381,15.5199 29,15.5199 C27.619,15.5199 26.5,14.4009 26.5,13.0199 Z M15.5,20.0199 C15.5,19.1919 16.172,18.5199 17,18.5199 C17.828,18.5199 18.5,19.1919 18.5,20.0199 C18.5,20.8479 17.828,21.5199 17,21.5199 C16.172,21.5199 15.5,20.8479 15.5,20.0199 Z M29.5,20.0199 C29.5,19.1919 30.172,18.5199 31,18.5199 C31.828,18.5199 32.5,19.1919 32.5,20.0199 C32.5,20.8479 31.828,21.5199 31,21.5199 C30.172,21.5199 29.5,20.8479 29.5,20.0199 Z M37.5099,17.01 C37.5099,9.549 31.4609,3.5 23.9999,3.5 C16.5389,3.5 10.4899,9.549 10.4899,17.01 C10.4899,24.471 16.5389,30.52 23.9999,30.52 C31.4609,30.52 37.5099,24.471 37.5099,17.01 Z" stroke="currentColor" stroke-width="1" fill="none" fill-rule="evenodd"/>
</svg>
