<svg width="48" height="48" viewBox="0 0 48 48" version="1.1" xmlns="http://www.w3.org/2000/svg">
    <title>
        plug-schuko-large
    </title>
    <path d="M13.5,23.84 C13.5,22.459 14.619,21.34 16,21.34 C17.381,21.34 18.5,22.459 18.5,23.84 C18.5,25.221 17.381,26.34 16,26.34 C14.619,26.34 13.5,25.221 13.5,23.84 Z M29.5,23.84 C29.5,22.459 30.619,21.34 32,21.34 C33.381,21.34 34.5,22.459 34.5,23.84 C34.5,25.221 33.381,26.34 32,26.34 C30.619,26.34 29.5,25.221 29.5,23.84 Z M26.5,4.5 C32.057,5.207 36.885,8.262 39.96,12.636 C40.993,14.105 41.5,15.881 41.5,17.677 L41.5,21.34 L43.5,21.34 C44.052,21.34 44.5,21.788 44.5,22.34 L44.5,25.34 C44.5,25.892 44.052,26.34 43.5,26.34 L41.5,26.34 L41.5,30.003 C41.5,31.799 40.993,33.575 39.96,35.044 C36.885,39.418 32.057,42.473 26.5,43.18 L26.5,41.34 C26.5,40.788 26.052,40.34 25.5,40.34 L22.5,40.34 C21.948,40.34 21.5,40.788 21.5,41.34 L21.5,43.18 C15.943,42.473 11.115,39.418 8.04,35.044 C7.007,33.575 6.5,31.799 6.5,30.003 L6.5,26.34 L4.5,26.34 C3.948,26.34 3.5,25.892 3.5,25.34 L3.5,22.34 C3.5,21.788 3.948,21.34 4.5,21.34 L6.5,21.34 L6.5,17.677 C6.5,15.881 7.007,14.105 8.04,12.636 C11.115,8.262 15.943,5.207 21.5,4.5 L21.5,6.34 C21.5,6.892 21.948,7.34 22.5,7.34 L25.5,7.34 C26.052,7.34 26.5,6.892 26.5,6.34 L26.5,4.5 Z" stroke="currentColor" stroke-width="1" fill="none" fill-rule="evenodd"/>
</svg>
