<svg width="48" height="48" viewBox="0 0 48 48" version="1.1" xmlns="http://www.w3.org/2000/svg">
    <title>
        plug-cee3-large
    </title>
    <path d="M43.5,24 C43.5,13.23 34.77,4.5 24,4.5 C13.23,4.5 4.5,13.23 4.5,24 C4.5,34.77 13.23,43.5 24,43.5 C34.77,43.5 43.5,34.77 43.5,24 Z M27.5,30.5 C27.5,32.433 25.933,34 24,34 C22.067,34 20.5,32.433 20.5,30.5 C20.5,28.567 22.067,27 24,27 C25.933,27 27.5,28.567 27.5,30.5 Z M33,18 C33,19.105 32.105,20 31,20 C29.895,20 29,19.105 29,18 C29,16.895 29.895,16 31,16 C32.105,16 33,16.895 33,18 Z M19,18 C19,19.105 18.105,20 17,20 C15.895,20 15,19.105 15,18 C15,16.895 15.895,16 17,16 C18.105,16 19,16.895 19,18 Z" stroke="currentColor" stroke-width="1" fill="none" fill-rule="evenodd"/>
</svg>
