<svg width="24" height="24" viewBox="0 0 24 24" version="1.1" xmlns="http://www.w3.org/2000/svg">
    <title>
        plug-ccs-dc-small
    </title>
    <path d="M16.2513,2.5 C16.4963,2.5 16.7393,2.584 16.9203,2.749 C18.6103,4.284 19.5813,6.599 19.2613,9.128 C18.8453,12.421 16.1413,15.082 12.8433,15.452 C8.4173,15.949 4.6683,12.499 4.6683,8.173 C4.6683,6.022 5.5953,4.089 7.0683,2.749 C7.2503,2.584 7.4933,2.5 7.7393,2.5 L16.2513,2.5 Z M17.5,21.5 L6.5,21.5 C5.395,21.5 4.5,20.605 4.5,19.5 L4.5,17.5 C4.5,16.395 5.395,15.5 6.5,15.5 L17.5,15.5 C18.605,15.5 19.5,16.395 19.5,17.5 L19.5,19.5 C19.5,20.605 18.605,21.5 17.5,21.5 Z M9.5,18.5 C9.5,19.052 9.052,19.5 8.5,19.5 C7.948,19.5 7.5,19.052 7.5,18.5 C7.5,17.948 7.948,17.5 8.5,17.5 C9.052,17.5 9.5,17.948 9.5,18.5 Z M16.5,18.5 C16.5,19.052 16.052,19.5 15.5,19.5 C14.948,19.5 14.5,19.052 14.5,18.5 C14.5,17.948 14.948,17.5 15.5,17.5 C16.052,17.5 16.5,17.948 16.5,18.5 Z M14.5,12.0001 C14.5,12.2761 14.276,12.5001 14,12.5001 C13.724,12.5001 13.5,12.2761 13.5,12.0001 C13.5,11.7241 13.724,11.5001 14,11.5001 C14.276,11.5001 14.5,11.7241 14.5,12.0001 Z M8.5,9.0001 C8.5,9.2761 8.276,9.5001 8,9.5001 C7.724,9.5001 7.5,9.2761 7.5,9.0001 C7.5,8.7241 7.724,8.5001 8,8.5001 C8.276,8.5001 8.5,8.7241 8.5,9.0001 Z M12.5,9.0001 C12.5,9.2761 12.276,9.5001 12,9.5001 C11.724,9.5001 11.5,9.2761 11.5,9.0001 C11.5,8.7241 11.724,8.5001 12,8.5001 C12.276,8.5001 12.5,8.7241 12.5,9.0001 Z M16.5,9.0001 C16.5,9.2761 16.276,9.5001 16,9.5001 C15.724,9.5001 15.5,9.2761 15.5,9.0001 C15.5,8.7241 15.724,8.5001 16,8.5001 C16.276,8.5001 16.5,8.7241 16.5,9.0001 Z M9.5,5 L9.5,7 M14.5,5 L14.5,7 M10.5,12.0001 C10.5,12.2761 10.276,12.5001 10,12.5001 C9.724,12.5001 9.5,12.2761 9.5,12.0001 C9.5,11.7241 9.724,11.5001 10,11.5001 C10.276,11.5001 10.5,11.7241 10.5,12.0001 Z" stroke="currentColor" stroke-width="1" fill="none" fill-rule="evenodd"/>
</svg>
