<svg width="24" height="24" viewBox="0 0 24 24" version="1.1" xmlns="http://www.w3.org/2000/svg">
    <title>
        plug-ccs1-small
    </title>
    <path d="M17.5,21.514 L6.5,21.514 C5.395,21.514 4.5,20.619 4.5,19.514 L4.5,17.514 C4.5,16.409 5.395,15.514 6.5,15.514 L17.5,15.514 C18.605,15.514 19.5,16.409 19.5,17.514 L19.5,19.514 C19.5,20.619 18.605,21.514 17.5,21.514 Z M9.5,18.514 C9.5,19.066 9.052,19.514 8.5,19.514 C7.948,19.514 7.5,19.066 7.5,18.514 C7.5,17.962 7.948,17.514 8.5,17.514 C9.052,17.514 9.5,17.962 9.5,18.514 Z M16.5,18.514 C16.5,19.066 16.052,19.514 15.5,19.514 C14.948,19.514 14.5,19.066 14.5,18.514 C14.5,17.962 14.948,17.514 15.5,17.514 C16.052,17.514 16.5,17.962 16.5,18.514 Z M9.5,6.9996 C9.5,6.7236 9.724,6.4996 10,6.4996 C10.276,6.4996 10.5,6.7236 10.5,6.9996 C10.5,7.2756 10.276,7.4996 10,7.4996 C9.724,7.4996 9.5,7.2756 9.5,6.9996 Z M11.5,11.9996 C11.5,11.7236 11.724,11.4996 12,11.4996 C12.276,11.4996 12.5,11.7236 12.5,11.9996 C12.5,12.2756 12.276,12.4996 12,12.4996 C11.724,12.4996 11.5,12.2756 11.5,11.9996 Z M15.5,10.9996 L15.5,8.9996 M8.5,10.9996 L8.5,8.9996 M13.5,6.9996 C13.5,6.7236 13.724,6.4996 14,6.4996 C14.276,6.4996 14.5,6.7236 14.5,6.9996 C14.5,7.2756 14.276,7.4996 14,7.4996 C13.724,7.4996 13.5,7.2756 13.5,6.9996 Z M18.5094,9.014 C18.5094,5.416 15.5924,2.5 11.9954,2.5 C8.3974,2.5 5.4804,5.416 5.4804,9.014 C5.4804,12.612 8.3974,15.528 11.9954,15.528 C15.5924,15.528 18.5094,12.612 18.5094,9.014 Z" stroke="currentColor" stroke-width="1" fill="none" fill-rule="evenodd"/>
</svg>
