<svg width="24" height="24" viewBox="0 0 24 24" version="1.1" xmlns="http://www.w3.org/2000/svg">
    <title>
        plug-type1-ac-small
    </title>
    <path d="M20.5,11 C20.5,6.306 16.694,2.5 12,2.5 C7.306,2.5 3.5,6.306 3.5,11 C3.5,15.694 7.306,19.5 12,19.5 C16.694,19.5 20.5,15.694 20.5,11 Z M8.505,8 C8.505,7.724 8.729,7.5 9.005,7.5 C9.281,7.5 9.505,7.724 9.505,8 C9.505,8.276 9.281,8.5 9.005,8.5 C8.729,8.5 8.505,8.276 8.505,8 Z M11.505,15 C11.505,14.724 11.729,14.5 12.005,14.5 C12.281,14.5 12.505,14.724 12.505,15 C12.505,15.276 12.281,15.5 12.005,15.5 C11.729,15.5 11.505,15.276 11.505,15 Z M16.505,13 L16.505,11 M7.505,13 L7.505,11 M14.505,8 C14.505,7.724 14.729,7.5 15.005,7.5 C15.281,7.5 15.505,7.724 15.505,8 C15.505,8.276 15.281,8.5 15.005,8.5 C14.729,8.5 14.505,8.276 14.505,8 Z M10.505,19.5 L10.505,21.5 L13.505,21.5 L13.505,19.5" stroke="currentColor" stroke-width="1" fill="none" fill-rule="evenodd"/>
</svg>
