<svg width="48" height="48" viewBox="0 0 48 48" version="1.1" xmlns="http://www.w3.org/2000/svg">
    <title>
        plug-type2-ac-large
    </title>
    <path d="M27.4769,23.0005 C27.4769,24.9335 25.9099,26.5005 23.9769,26.5005 C22.0439,26.5005 20.4769,24.9335 20.4769,23.0005 C20.4769,21.0675 22.0439,19.5005 23.9769,19.5005 C25.9099,19.5005 27.4769,21.0675 27.4769,23.0005 Z M16.4769,23.0005 C16.4769,24.9335 14.9099,26.5005 12.9769,26.5005 C11.0439,26.5005 9.4769,24.9335 9.4769,23.0005 C9.4769,21.0675 11.0439,19.5005 12.9769,19.5005 C14.9099,19.5005 16.4769,21.0675 16.4769,23.0005 Z M38.4769,23.0005 C38.4769,24.9335 36.9099,26.5005 34.9769,26.5005 C33.0439,26.5005 31.4769,24.9335 31.4769,23.0005 C31.4769,21.0675 33.0439,19.5005 34.9769,19.5005 C36.9099,19.5005 38.4769,21.0675 38.4769,23.0005 Z M21.4769,32.0004 C21.4769,33.9334 19.9099,35.5004 17.9769,35.5004 C16.0439,35.5004 14.4769,33.9334 14.4769,32.0004 C14.4769,30.0674 16.0439,28.5004 17.9769,28.5004 C19.9099,28.5004 21.4769,30.0674 21.4769,32.0004 Z M33.4769,32.0004 C33.4769,33.9334 31.9099,35.5004 29.9769,35.5004 C28.0439,35.5004 26.4769,33.9334 26.4769,32.0004 C26.4769,30.0674 28.0439,28.5004 29.9769,28.5004 C31.9099,28.5004 33.4769,30.0674 33.4769,32.0004 Z M19.4769,14.5004 C19.4769,15.6054 18.5819,16.5004 17.4769,16.5004 C16.3719,16.5004 15.4769,15.6054 15.4769,14.5004 C15.4769,13.3954 16.3719,12.5004 17.4769,12.5004 C18.5819,12.5004 19.4769,13.3954 19.4769,14.5004 Z M32.4899,14.5004 C32.4899,15.6054 31.5949,16.5004 30.4899,16.5004 C29.3849,16.5004 28.4899,15.6054 28.4899,14.5004 C28.4899,13.3954 29.3849,12.5004 30.4899,12.5004 C31.5949,12.5004 32.4899,13.3954 32.4899,14.5004 Z M36.748,6.739 C42.861,11.937 45.774,20.807 42.054,29.952 C40.253,34.379 36.729,37.955 32.314,39.786 C17.977,45.733 4.25,35.355 4.25,21.773 C4.25,15.747 6.954,10.354 11.206,6.739 C11.389,6.584 11.618,6.501 11.858,6.501 C14.704,6.501 33.25,6.501 36.096,6.5 C36.336,6.5 36.565,6.583 36.748,6.739 Z" stroke="currentColor" stroke-width="1" fill="none" fill-rule="evenodd"/>
</svg>
