<svg width="24" height="24" viewBox="0 0 24 24" version="1.1" xmlns="http://www.w3.org/2000/svg">
    <title>
        plug-cee3-small
    </title>
    <path d="M20.5,12 C20.5,7.306 16.694,3.5 12,3.5 C7.306,3.5 3.5,7.306 3.5,12 C3.5,16.694 7.306,20.5 12,20.5 C16.694,20.5 20.5,16.694 20.5,12 Z M11.505,15 C11.505,14.724 11.729,14.5 12.005,14.5 C12.281,14.5 12.505,14.724 12.505,15 C12.505,15.276 12.281,15.5 12.005,15.5 C11.729,15.5 11.505,15.276 11.505,15 Z M9.5,10 L9.5,8 M14.505,10 L14.505,8" stroke="currentColor" stroke-width="1" fill="none" fill-rule="evenodd"/>
</svg>
