<svg width="48" height="48" viewBox="0 0 48 48" version="1.1" xmlns="http://www.w3.org/2000/svg">
    <title>
        plug-type1-ac-large
    </title>
    <path d="M43.5,22 C43.5,11.23 34.77,2.5 24,2.5 C13.23,2.5 4.5,11.23 4.5,22 C4.5,32.77 13.23,41.5 24,41.5 C34.77,41.5 43.5,32.77 43.5,22 Z M36.4999,26.5 C36.4999,27.605 35.6049,28.5 34.4999,28.5 C33.3949,28.5 32.4999,27.605 32.4999,26.5 C32.4999,25.395 33.3949,24.5 34.4999,24.5 C35.6049,24.5 36.4999,25.395 36.4999,26.5 Z M15.5,26.5 C15.5,27.605 14.605,28.5 13.5,28.5 C12.395,28.5 11.5,27.605 11.5,26.5 C11.5,25.395 12.395,24.5 13.5,24.5 C14.605,24.5 15.5,25.395 15.5,26.5 Z M20.5,16 C20.5,17.933 18.933,19.5 17,19.5 C15.067,19.5 13.5,17.933 13.5,16 C13.5,14.067 15.067,12.5 17,12.5 C18.933,12.5 20.5,14.067 20.5,16 Z M27.5,32 C27.5,33.933 25.933,35.5 24,35.5 C22.067,35.5 20.5,33.933 20.5,32 C20.5,30.067 22.067,28.5 24,28.5 C25.933,28.5 27.5,30.067 27.5,32 Z M34.5,16 C34.5,17.933 32.933,19.5 31,19.5 C29.067,19.5 27.5,17.933 27.5,16 C27.5,14.067 29.067,12.5 31,12.5 C32.933,12.5 34.5,14.067 34.5,16 Z M20.4999,41 L20.4999,45.5 L27.4999,45.5 L27.4999,41" stroke="currentColor" stroke-width="1" fill="none" fill-rule="evenodd"/>
</svg>
