<svg width="48" height="48" viewBox="0 0 48 48" version="1.1" xmlns="http://www.w3.org/2000/svg">
    <title>
        plug-ccs-dc-large
    </title>
    <path d="M33.9087,3.741 C38.6127,7.788 40.8237,14.67 37.8717,21.746 C36.4747,25.093 33.7717,27.788 30.4217,29.178 C19.3617,33.765 8.7717,25.759 8.7717,15.282 C8.7717,10.665 10.8297,6.529 14.0717,3.741 C14.2547,3.583 14.4867,3.5 14.7277,3.5 C17.1567,3.5 30.8227,3.5 33.2517,3.5 C33.4937,3.5 33.7257,3.583 33.9087,3.741 Z M18.5,16 C18.5,17.381 17.381,18.5 16,18.5 C14.619,18.5 13.5,17.381 13.5,16 C13.5,14.619 14.619,13.5 16,13.5 C17.381,13.5 18.5,14.619 18.5,16 Z M26.5,16 C26.5,17.381 25.381,18.5 24,18.5 C22.619,18.5 21.5,17.381 21.5,16 C21.5,14.619 22.619,13.5 24,13.5 C25.381,13.5 26.5,14.619 26.5,16 Z M34.5,16 C34.5,17.381 33.381,18.5 32,18.5 C30.619,18.5 29.5,17.381 29.5,16 C29.5,14.619 30.619,13.5 32,13.5 C33.381,13.5 34.5,14.619 34.5,16 Z M20.5,37.5 C20.5,39.709 18.709,41.5 16.5,41.5 C14.291,41.5 12.5,39.709 12.5,37.5 C12.5,35.291 14.291,33.5 16.5,33.5 C18.709,33.5 20.5,35.291 20.5,37.5 Z M35.5,37.5 C35.5,39.709 33.709,41.5 31.5,41.5 C29.291,41.5 27.5,39.709 27.5,37.5 C27.5,35.291 29.291,33.5 31.5,33.5 C33.709,33.5 35.5,35.291 35.5,37.5 Z M36.5,44.5 L11.5,44.5 C9.291,44.5 7.5,42.709 7.5,40.5 L7.5,34.5 C7.5,32.291 9.291,30.5 11.5,30.5 L36.5,30.5 C38.709,30.5 40.5,32.291 40.5,34.5 L40.5,40.5 C40.5,42.709 38.709,44.5 36.5,44.5 Z M30.5,23 C30.5,24.381 29.381,25.5 28,25.5 C26.619,25.5 25.5,24.381 25.5,23 C25.5,21.619 26.619,20.5 28,20.5 C29.381,20.5 30.5,21.619 30.5,23 Z M22.5,23 C22.5,24.381 21.381,25.5 20,25.5 C18.619,25.5 17.5,24.381 17.5,23 C17.5,21.619 18.619,20.5 20,20.5 C21.381,20.5 22.5,21.619 22.5,23 Z M21.5,10 C21.5,10.828 20.828,11.5 20,11.5 C19.172,11.5 18.5,10.828 18.5,10 C18.5,9.172 19.172,8.5 20,8.5 C20.828,8.5 21.5,9.172 21.5,10 Z M29.5,10 C29.5,10.828 28.828,11.5 28,11.5 C27.172,11.5 26.5,10.828 26.5,10 C26.5,9.172 27.172,8.5 28,8.5 C28.828,8.5 29.5,9.172 29.5,10 Z" stroke="currentColor" stroke-width="1" fill="none" fill-rule="evenodd"/>
</svg>
