<svg width="24" height="24" viewBox="0 0 24 24" version="1.1" xmlns="http://www.w3.org/2000/svg">
    <title>
        plug-schuko-small
    </title>
    <path d="M16.5,11.88 C16.5,12.156 16.276,12.38 16,12.38 C15.724,12.38 15.5,12.156 15.5,11.88 C15.5,11.604 15.724,11.38 16,11.38 C16.276,11.38 16.5,11.604 16.5,11.88 Z M8.5,11.88 C8.5,12.156 8.276,12.38 8,12.38 C7.724,12.38 7.5,12.156 7.5,11.88 C7.5,11.604 7.724,11.38 8,11.38 C8.276,11.38 8.5,11.604 8.5,11.88 Z M10.5,21.26 C7.76,20.83 5.43,19.24 3.99,17 C3.67,16.51 3.5,15.93 3.5,15.34 L3.5,13.38 L2.5,13.38 C1.95,13.38 1.5,12.93 1.5,12.38 L1.5,11.38 C1.5,10.83 1.95,10.38 2.5,10.38 L3.5,10.38 L3.5,8.42 C3.5,7.83 3.67,7.25 3.99,6.76 C5.43,4.52 7.76,2.93 10.5,2.5 L10.5,3.38 C10.5,3.932 10.948,4.38 11.5,4.38 L12.5,4.38 C13.052,4.38 13.5,3.932 13.5,3.38 L13.5,2.5 C16.24,2.93 18.57,4.52 20.01,6.76 C20.33,7.25 20.5,7.83 20.5,8.42 L20.5,10.38 L21.5,10.38 C22.05,10.38 22.5,10.83 22.5,11.38 L22.5,12.38 C22.5,12.93 22.05,13.38 21.5,13.38 L20.5,13.38 L20.5,15.34 C20.5,15.93 20.33,16.51 20.01,17 C18.57,19.24 16.24,20.83 13.5,21.26 L13.5,20.38 C13.5,19.828 13.052,19.38 12.5,19.38 L11.5,19.38 C10.948,19.38 10.5,19.828 10.5,20.38 L10.5,21.26 Z" stroke="currentColor" stroke-width="1" fill="none" fill-rule="evenodd"/>
</svg>
