<svg width="24" height="24" viewBox="0 0 24 24" version="1.1" xmlns="http://www.w3.org/2000/svg">
    <title>
        plug-chademo-dc-small
    </title>
    <path d="M7.5,12 C7.5,11.724 7.724,11.5 8,11.5 C8.276,11.5 8.5,11.724 8.5,12 C8.5,12.276 8.276,12.5 8,12.5 C7.724,12.5 7.5,12.276 7.5,12 Z M11.5,16 C11.5,15.724 11.724,15.5 12,15.5 C12.276,15.5 12.5,15.724 12.5,16 C12.5,16.276 12.276,16.5 12,16.5 C11.724,16.5 11.5,16.276 11.5,16 Z M11.5,8 C11.5,7.724 11.724,7.5 12,7.5 C12.276,7.5 12.5,7.724 12.5,8 C12.5,8.276 12.276,8.5 12,8.5 C11.724,8.5 11.5,8.276 11.5,8 Z M15.5,12 C15.5,11.724 15.724,11.5 16,11.5 C16.276,11.5 16.5,11.724 16.5,12 C16.5,12.276 16.276,12.5 16,12.5 C15.724,12.5 15.5,12.276 15.5,12 Z M20.5,12 C20.5,7.306 16.694,3.5 12,3.5 C7.306,3.5 3.5,7.306 3.5,12 C3.5,16.694 7.306,20.5 12,20.5 C16.694,20.5 20.5,16.694 20.5,12 Z M4.5,7.5 L3,6 L6,3 L7.5,4.5 M16.5,4.5 L18,3 L21,6 L19.5,7.5" stroke="currentColor" stroke-width="1" fill="none" fill-rule="evenodd"/>
</svg>
