<svg width="24" height="24" viewBox="0 0 24 24" version="1.1" xmlns="http://www.w3.org/2000/svg">
    <title>
        plug-type2-ac-small
    </title>
    <path d="M16.924,4.5 C17.169,4.5 17.412,4.584 17.594,4.748 C19.57,6.519 20.711,9.208 20.339,12.148 C19.858,15.947 16.739,19.017 12.933,19.445 C7.826,20.019 3.5,16.037 3.5,11.046 C3.5,8.543 4.588,6.295 6.314,4.748 C6.497,4.584 6.739,4.5 6.985,4.5 L16.924,4.5 Z M8.4216,12.0001 C8.4216,12.2761 8.1976,12.5001 7.9216,12.5001 C7.6456,12.5001 7.4216,12.2761 7.4216,12.0001 C7.4216,11.7241 7.6456,11.5001 7.9216,11.5001 C8.1976,11.5001 8.4216,11.7241 8.4216,12.0001 Z M10.4543,15 C10.4543,15.276 10.2303,15.5 9.9543,15.5 C9.6783,15.5 9.4543,15.276 9.4543,15 C9.4543,14.724 9.6783,14.5 9.9543,14.5 C10.2303,14.5 10.4543,14.724 10.4543,15 Z M14.4543,15 C14.4543,15.276 14.2303,15.5 13.9543,15.5 C13.6783,15.5 13.4543,15.276 13.4543,15 C13.4543,14.724 13.6783,14.5 13.9543,14.5 C14.2303,14.5 14.4543,14.724 14.4543,15 Z M12.4543,12.0001 C12.4543,12.2761 12.2303,12.5001 11.9543,12.5001 C11.6783,12.5001 11.4543,12.2761 11.4543,12.0001 C11.4543,11.7241 11.6783,11.5001 11.9543,11.5001 C12.2303,11.5001 12.4543,11.7241 12.4543,12.0001 Z M16.4593,12.0001 C16.4593,12.2761 16.2353,12.5001 15.9593,12.5001 C15.6833,12.5001 15.4593,12.2761 15.4593,12.0001 C15.4593,11.7241 15.6833,11.5001 15.9593,11.5001 C16.2353,11.5001 16.4593,11.7241 16.4593,12.0001 Z M9.4543,8 L9.4543,10 M14.4543,8 L14.4543,10" stroke="currentColor" stroke-width="1" fill="none" fill-rule="evenodd"/>
</svg>
