<?xml version="1.0" encoding="UTF-8"?>
<svg width="48px" height="48px" viewBox="0 0 48 48" version="1.1" xmlns="http://www.w3.org/2000/svg" xmlns:xlink="http://www.w3.org/1999/xlink">
    <!-- Generator: sketchtool 48.1 (47250) - http://www.bohemiancoding.com/sketch -->
    <title>poi-work-large</title>
    <desc>Created with sketchtool.</desc>
    <defs></defs>
    <g id="icons-published" stroke="none" stroke-width="1" fill="none" fill-rule="evenodd">
        <g id="briefing" transform="translate(-2880.000000, -1306.000000)"></g>
        <g id="poi-work-large" stroke="#000000">
            <path d="M37.5,17.5 C37.5,9.8 31.2,3.5 23.5,3.5 C15.8,3.5 9.5,9.8 9.5,17.5 C9.5,25.2 23.5,44.5 23.5,44.5 C23.5,44.5 37.5,25.2 37.5,17.5 Z" id="Shape"></path>
            <polygon id="Shape" points="29.5 27.5 24.5 27.5 24.5 22.5 21.5 22.5 21.5 27.5 16.5 27.5 16.5 8.5 29.5 8.5"></polygon>
            <path d="M24.5,11.5 L26.5,11.5 L26.5,13.5 L24.5,13.5 L24.5,11.5 Z M19.5,11.5 L21.5,11.5 L21.5,13.5 L19.5,13.5 L19.5,11.5 Z M24.5,17.5 L26.5,17.5 L26.5,19.5 L24.5,19.5 L24.5,17.5 Z M19.5,17.5 L21.5,17.5 L21.5,19.5 L19.5,19.5 L19.5,17.5 Z" id="Shape"></path>
        </g>
    </g>
</svg>