<svg width="24" height="24" viewBox="0 0 24 24" version="1.1" xmlns="http://www.w3.org/2000/svg">
    <title>
        poi-car-small
    </title>
    <path d="M18.7,8.6 C18.7,4.6 15.4,1.3 11.5,1.3 C7.6,1.3 4.3,4.6 4.3,8.6 C4.3,12.6 11.5,22.7 11.5,22.7 C11.5,22.7 18.7,12.6 18.7,8.6 Z M6.5,7.5 L6.5,11 C6.5,11.2761424 6.72385763,11.5 7,11.5 L8.5,11.5 C8.77614237,11.5 9,11.2761424 9,11 L9,10.5 L9,10.5 L14,10.5 L14,11 C14,11.2761424 14.2238576,11.5 14.5,11.5 L16,11.5 C16.2761424,11.5 16.5,11.2761424 16.5,11 L16.5,7.5310559 L16.5,7.5310559 L14,4.5 L9,4.5 L6.5,7.5 Z M6.5,8.5 L9,8.5 M14,8.5 L16.5,8.5" stroke="currentColor" stroke-width="1" fill="none" fill-rule="evenodd"/>
</svg>
