<svg width="24" height="24" viewBox="0 0 24 24" version="1.1" xmlns="http://www.w3.org/2000/svg">
    <title>
        poi-contact-small
    </title>
    <path d="M12.5,7.5 L10.5,7.5 C9.9,7.5 9.5,7.1 9.5,6.5 L9.5,4.5 C9.5,4 9.9,3.5 10.5,3.5 L12.5,3.5 C13.1,3.5 13.5,4 13.5,4.5 L13.5,6.5 C13.5,7.1 13.1,7.5 12.5,7.5 Z M14.5,10.2 C14.5,10.2 14.5,9.5 14,9.5 L9,9.5 C8.4,9.5 8.5,10.2 8.5,10.2 L8.5,13.5 L14.5,13.5 L14.5,10.2 Z M18.6,8.7 C18.6,4.8 15.5,1.5 11.7,1.5 C7.9,1.5 4.8,4.8 4.8,8.7 C4.8,12.6 11.7,22.5 11.7,22.5 C11.7,22.5 18.6,12.7 18.6,8.7 Z" stroke="currentColor" stroke-width="1" fill="none" fill-rule="evenodd"/>
</svg>
