<svg width="48" height="48" viewBox="0 0 48 48" version="1.1" xmlns="http://www.w3.org/2000/svg">
    <title>
        poi-calendar-large
    </title>
    <path d="M16,10.5 L29,10.5 M16.5,12 L16.5,22 C16.5,22.3 16.7,22.6 17.1,22.6 L25,22.6 L28.5,19.4 L28.5,12 M28.5,19.5 L24.5,19.5 L24.5,22.5 M19.5,22.6 L19.5,23.9 C19.5,24.2 19.7,24.5 20.1,24.5 L29.8,24.5 C30.2,24.5 30.5,24.2 30.5,23.9 L30.5,14 M37.5,17.5 C37.5,9.8 31.2,3.5 23.5,3.5 C15.8,3.5 9.5,9.8 9.5,17.5 C9.5,25.2 23.5,44.5 23.5,44.5 C23.5,44.5 37.5,25.2 37.5,17.5 Z" stroke="currentColor" stroke-width="1" fill="none" fill-rule="evenodd"/>
</svg>
