<?xml version="1.0" encoding="UTF-8"?>
<svg width="24px" height="24px" viewBox="0 0 24 24" version="1.1" xmlns="http://www.w3.org/2000/svg" xmlns:xlink="http://www.w3.org/1999/xlink">
    <!-- Generator: sketchtool 48.1 (47250) - http://www.bohemiancoding.com/sketch -->
    <title>poi-search-small</title>
    <desc>Created with sketchtool.</desc>
    <defs></defs>
    <g id="icons-published" stroke="none" stroke-width="1" fill="none" fill-rule="evenodd">
        <g id="briefing" transform="translate(-2372.000000, -1306.000000)"></g>
        <g id="poi-search-small" stroke="#000000">
            <path d="M18.8,15.8 L13.7,10.7 M13.6,10.6 C14.8,9.4 14.8,7.5 13.6,6.4 C12.4,5.3 10.5,5.2 9.4,6.4 C8.3,7.6 8.2,9.5 9.4,10.6 C10,11.2 10.7,11.5 11.5,11.5 C12.3,11.5 13.1,11.2 13.6,10.6" id="Shape"></path>
            <path d="M17.6,11.8 C18.1,10.8 18.4,9.6 18.5,8.5 C18.5,4.6 15.4,1.5 11.5,1.5 C7.6,1.5 4.5,4.6 4.5,8.5 C4.5,12.4 11.5,22.5 11.5,22.5 C11.5,22.5 13.8,19.2 15.8,15.6" id="Shape"></path>
        </g>
    </g>
</svg>