<svg width="24" height="24" viewBox="0 0 24 24" version="1.1" xmlns="http://www.w3.org/2000/svg">
    <title>
        poi-search-small
    </title>
    <path d="M18.8,15.8 L13.7,10.7 M13.6,10.6 C14.8,9.4 14.8,7.5 13.6,6.4 C12.4,5.3 10.5,5.2 9.4,6.4 C8.3,7.6 8.2,9.5 9.4,10.6 C10,11.2 10.7,11.5 11.5,11.5 C12.3,11.5 13.1,11.2 13.6,10.6 M17.6,11.8 C18.1,10.8 18.4,9.6 18.5,8.5 C18.5,4.6 15.4,1.5 11.5,1.5 C7.6,1.5 4.5,4.6 4.5,8.5 C4.5,12.4 11.5,22.5 11.5,22.5 C11.5,22.5 13.8,19.2 15.8,15.6" stroke="currentColor" stroke-width="1" fill="none" fill-rule="evenodd"/>
</svg>
