<?xml version="1.0" encoding="UTF-8"?>
<svg width="48px" height="48px" viewBox="0 0 48 48" version="1.1" xmlns="http://www.w3.org/2000/svg" xmlns:xlink="http://www.w3.org/1999/xlink">
    <!-- Generator: sketchtool 48.1 (47250) - http://www.bohemiancoding.com/sketch -->
    <title>poi-contact-large</title>
    <desc>Created with sketchtool.</desc>
    <defs></defs>
    <g id="icons-published" stroke="none" stroke-width="1" fill="none" fill-rule="evenodd">
        <g id="briefing" transform="translate(-1152.000000, -1306.000000)"></g>
        <g id="poi-contact-large" stroke="#000000">
            <path d="M37.5,17.5 C37.5,9.8 31.2,3.5 23.5,3.5 C15.8,3.5 9.5,9.8 9.5,17.5 C9.5,25.2 23.5,44.5 23.5,44.5 C23.5,44.5 37.5,25.2 37.5,17.5 Z" id="Shape"></path>
            <path d="M25,14.5 L22,14.5 C20.9,14.5 20,13.6 20,12.5 L20,9.5 C20,8.4 20.9,7.5 22,7.5 L25,7.5 C26.1,7.5 27,8.4 27,9.5 L27,12.5 C27,13.6 26.1,14.5 25,14.5 Z M30.5,19 C30.5,19 30.6,17.5 29.3,17.5 L17.8,17.5 C16.5,17.5 16.6,19 16.6,19 L16.6,25.5 L30.6,25.5 L30.6,19 L30.5,19 Z" id="Shape"></path>
        </g>
    </g>
</svg>