<svg xmlns="http://www.w3.org/2000/svg" width="48" height="48" viewBox="0 0 48 48"><g fill="none" stroke="currentColor"><path d="M37.5 17.5c0-7.7-6.3-14-14-14s-14 6.3-14 14 14 27 14 27 14-19.3 14-27zM14.031 11.516h2.316z"/><path d="M13.688 14.646s.734.192 1.644.45c.775.22 1.095.411 1.263 1.191.212.98.496 1.38-.926 1.107-1.422-.273-2.227-.514-2.227-.514M33.016 11.547H30.69M33.312 14.646s-.734.192-1.644.45c-.775.22-1.095.411-1.263 1.191-.212.98-.496 1.38.926 1.107 1.422-.273 2.227-.514 2.227-.514"/><path d="M30.5 20.578v2.047h2.12c.477 0 .934-.382.943-.86v-4.162c0-3.3-.613-3.646-.613-3.646L31.668 13s-.703-.72-1.394-2.215C29.68 9.5 28.414 9.5 28.414 9.5h-9.829s-1.265 0-1.86 1.285C16.036 12.281 15.333 13 15.333 13l-1.244.93s-.05.034-.072.057c-.13.132-.578.792-.578 3.616v4.163c.008.477.465.859.942.859h2.12v-2.047h14z"/><path d="M26.917 15.875l1.294.863-1.258 1.762h-6.81l-1.35-1.762 1.35-.863zM31.29 12.531H15.71"/></g></svg>