<svg width="48" height="48" viewBox="0 0 48 48" version="1.1" xmlns="http://www.w3.org/2000/svg">
    <title>
        poi-last-destination-large
    </title>
    <path d="M37.5,17.5 C37.5,9.8 31.2,3.5 23.5,3.5 C15.8,3.5 9.5,9.8 9.5,17.5 C9.5,25.2 23.5,44.5 23.5,44.5 C23.5,44.5 37.5,25.2 37.5,17.5 Z M17.4,21 C18.6,23.1 20.9,24.5 23.5,24.5 C27.4,24.5 30.5,21.4 30.5,17.5 C30.5,13.6 27.4,10.5 23.5,10.5 C20.9,10.5 18.9,11.6 17,13.8 C16.7,14.2 16.5,14.5 16.5,14.5 M21,14.5 L16.5,14.5 L16.5,10 M23.5,14 L23.5,18.5 L27,18.5" stroke="currentColor" stroke-width="1" fill="none" fill-rule="evenodd"/>
</svg>
