<svg width="48" height="48" viewBox="0 0 48 48" version="1.1" xmlns="http://www.w3.org/2000/svg">
    <title>
        poi-search-large
    </title>
    <path d="M39.5,32.5 L28.6,22.3 M23.5,24.5 C27.3659932,24.5 30.5,21.3659932 30.5,17.5 C30.5,13.6340068 27.3659932,10.5 23.5,10.5 C19.6340068,10.5 16.5,13.6340068 16.5,17.5 C16.5,21.3659932 19.6340068,24.5 23.5,24.5 Z M36.7,21.6 C37.2,20.3 37.5,18.9 37.5,17.5 C37.5,9.8 31.2,3.5 23.5,3.5 C15.8,3.5 9.5,9.8 9.5,17.5 C9.5,25.2 23.5,44.5 23.5,44.5 C23.5,44.5 27.4,39.1 31.1,32.9" stroke="currentColor" stroke-width="1" fill="none" fill-rule="evenodd"/>
</svg>
