<?xml version="1.0" encoding="UTF-8"?>
<svg width="48px" height="48px" viewBox="0 0 48 48" version="1.1" xmlns="http://www.w3.org/2000/svg" xmlns:xlink="http://www.w3.org/1999/xlink">
    <!-- Generator: sketchtool 48.1 (47250) - http://www.bohemiancoding.com/sketch -->
    <title>poi-car-large</title>
    <desc>Created with sketchtool.</desc>
    <defs></defs>
    <g id="icons-published" stroke="none" stroke-width="1" fill="none" fill-rule="evenodd">
        <g id="briefing" transform="translate(-864.000000, -1306.000000)"></g>
        <g id="poi-car-large" stroke="#000000">
            <path d="M37.5,17.5 C37.5,9.8 31.2,3.5 23.5,3.5 C15.8,3.5 9.5,9.8 9.5,17.5 C9.5,25.2 23.5,44.5 23.5,44.5 C23.5,44.5 37.5,25.2 37.5,17.5 Z M14,11.5 L16.3,11.5 L14,11.5 Z" id="Shape"></path>
            <path d="M13.7,14.6 C13.7,14.6 14.4,14.8 15.3,15 C16.1,15.2 16.4,15.4 16.6,16.2 C16.8,17.2 17.1,17.6 15.7,17.3 C14.3,17 13.5,16.8 13.5,16.8 M33,11.5 L30.7,11.5 M33.3,14.6 C33.3,14.6 32.6,14.8 31.7,15 C30.9,15.2 30.6,15.4 30.4,16.2 C30.2,17.2 29.9,17.6 31.3,17.3 C32.7,17 33.5,16.8 33.5,16.8" id="Shape"></path>
            <path d="M30.5,20.6 L30.5,22.6 L32.6,22.6 C33.1,22.6 33.5,22.2 33.5,21.7 L33.5,17.5 C33.5,14.2 32.9,13.9 32.9,13.9 L31.6,12.9 C31.6,12.9 30.9,12.2 30.2,10.7 C29.6,9.4 28.3,9.4 28.3,9.4 L18.5,9.4 C18.5,9.4 17.2,9.4 16.6,10.7 C16,12.3 15.3,13 15.3,13 L14.1,13.9 C14.1,13.9 14,13.9 14,14 C13.9,14.1 13.4,14.8 13.4,17.6 L13.4,21.8 C13.4,22.3 13.9,22.7 14.3,22.7 L16.4,22.7 L16.4,20.7 L30.5,20.7 L30.5,20.6 Z" id="Shape"></path>
            <path d="M26.9,15.9 L28.2,16.8 L27,18.5 L20.2,18.5 L18.8,16.7 L20.2,15.8 L26.9,15.9 Z M31.3,12.5 L15.7,12.5 L31.3,12.5 Z" id="Shape"></path>
        </g>
    </g>
</svg>