<svg width="48" height="48" viewBox="0 0 48 48" version="1.1" xmlns="http://www.w3.org/2000/svg">
    <title>
        poi-work-large
    </title>
    <path d="M37.5,17.5 C37.5,9.8 31.2,3.5 23.5,3.5 C15.8,3.5 9.5,9.8 9.5,17.5 C9.5,25.2 23.5,44.5 23.5,44.5 C23.5,44.5 37.5,25.2 37.5,17.5 Z M24.5,11.5 L26.5,11.5 L26.5,13.5 L24.5,13.5 L24.5,11.5 Z M19.5,11.5 L21.5,11.5 L21.5,13.5 L19.5,13.5 L19.5,11.5 Z M24.5,17.5 L26.5,17.5 L26.5,19.5 L24.5,19.5 L24.5,17.5 Z M19.5,17.5 L21.5,17.5 L21.5,19.5 L19.5,19.5 L19.5,17.5 Z M29.5,27.5 L24.5,27.5 L24.5,22.5 L21.5,22.5 L21.5,27.5 L16.5,27.5 L16.5,8.5 L29.5,8.5 L29.5,27.5 Z" stroke="currentColor" stroke-width="1" fill="none" fill-rule="evenodd"/>
</svg>
