<svg width="48" height="48" viewBox="0 0 48 48" version="1.1" xmlns="http://www.w3.org/2000/svg">
    <title>
        poi-car-large
    </title>
    <path d="M37.5,17.5 C37.5,9.8 31.2,3.5 23.5,3.5 C15.8,3.5 9.5,9.8 9.5,17.5 C9.5,25.2 23.5,44.5 23.5,44.5 C23.5,44.5 37.5,25.2 37.5,17.5 Z M13.5,14.5 L13.5,21.5 C13.5,22.0522847 13.9477153,22.5 14.5,22.5 L16.5,22.5 C17.0522847,22.5 17.5,22.0522847 17.5,21.5 L17.5,20.5 L17.5,20.5 L29.5,20.5 L29.5,21.5 C29.5,22.0522847 29.9477153,22.5 30.5,22.5 L32.5,22.5 C33.0522847,22.5 33.5,22.0522847 33.5,21.5 L33.5,14.5 L33.5,14.5 L31.75,12.5 C31.2136359,11.6477273 30.7704541,10.9431818 30.4204545,10.3863636 C30.070455,9.82954545 29.5969702,9.20075758 29,8.5 C27.2078393,8.32575758 25.3779644,8.23863636 23.5103755,8.23863636 C21.6427866,8.23863636 19.8059947,8.31818182 18,8.47727273 C17.4030304,9.19318182 16.9295456,9.82954545 16.5795455,10.3863636 C16.2295453,10.9431818 15.7863635,11.6477273 15.25,12.5 L13.5,14.5 Z M18.5,16.5 L19.5,15.5 L27.5,15.5 L28.5,16.5 C27.8181818,17.9666672 27.3181818,18.7000008 27,18.7000008 C26.5227273,18.7000008 20.4772727,18.7000008 20,18.7000008 C19.6818182,18.7000008 19.1818182,17.9666672 18.5,16.5 Z M15.25,12.5 L31.75,12.5 M13.5,15.5 L17,15.5 M30,15.5 L33.5,15.5" stroke="currentColor" stroke-width="1" fill="none" fill-rule="evenodd"/>
</svg>
