<svg width="48" height="48" viewBox="0 0 48 48" version="1.1" xmlns="http://www.w3.org/2000/svg">
    <title>
        pois-large
    </title>
    <path d="M39.6,31.2 C41.3120827,31.2 42.7,29.8120827 42.7,28.1 C42.7,26.3879173 41.3120827,25 39.6,25 C37.8879173,25 36.5,26.3879173 36.5,28.1 C36.5,29.8120827 37.8879173,31.2 39.6,31.2 Z M33.1,32.6 C35,35.8 39.4,42 39.4,42 C39.4,42 46.5,32.2 46.5,28.4 C46.7,24.6 43.7,21.4 39.9,21.3 C39.7,21.3 39.6,21.3 39.4,21.3 M22.5,24.5 C26.3659932,24.5 29.5,21.3659932 29.5,17.5 C29.5,13.6340068 26.3659932,10.5 22.5,10.5 C18.6340068,10.5 15.5,13.6340068 15.5,17.5 C15.5,21.3659932 18.6340068,24.5 22.5,24.5 Z M36.5,17.5 C36.5,9.8 30.2,3.5 22.5,3.5 C14.8,3.5 8.5,9.8 8.5,17.5 C8.5,25.2 22.5,44.5 22.5,44.5 C22.5,44.5 36.5,25.2 36.5,17.5 Z" stroke="currentColor" stroke-width="1" fill="none" fill-rule="evenodd"/>
</svg>
