<svg width="48" height="48" viewBox="0 0 48 48" version="1.1" xmlns="http://www.w3.org/2000/svg">
    <title>
        power-large
    </title>
    <path d="M37,25.5 L41.5,25.5 M33,16 L36.2,12.8 M23.5,12 L23.5,7.5 M14,16 L10.8,12.8 M5.5,25.5 L10,25.5 M14,35 L10.8,38.2 C7.4,34.8 5.5,30.2 5.5,25.5 C5.5,15.6 13.6,7.5 23.5,7.5 C33.4,7.5 41.5,15.6 41.5,25.5 C41.5,30.5 39.5,35 36.2,38.2 L33,35 M26.3,26.5 L34.8,29.6 M23.5,28.5 C25.1568542,28.5 26.5,27.1568542 26.5,25.5 C26.5,23.8431458 25.1568542,22.5 23.5,22.5 C21.8431458,22.5 20.5,23.8431458 20.5,25.5 C20.5,27.1568542 21.8431458,28.5 23.5,28.5 Z" stroke="currentColor" stroke-width="1" fill="none" fill-rule="evenodd"/>
</svg>
