<svg xmlns="http://www.w3.org/2000/svg" width="24" height="24" viewBox="0 0 24 24"><g fill="none" stroke="currentColor"><path d="M0 23.5h24M9.999 20.702c2 0 4.5-1.936 4.5-5.531 0-3.53-2.958-4.971-2.958-7.97V.939"/><path d="M9.092 3.452l2.5-2.5 2.5 2.5M1.999 20.702c2 0 4.5-1.936 4.5-5.531 0-3.53-2.958-4.971-2.958-7.97V.939"/><path d="M.353 4.407L3.494.988 7 4.408"/><g><path d="M17.999 20.702c2 0 4.5-1.936 4.5-5.531 0-3.53-2.958-4.971-2.958-7.97V.939"/><path d="M16.354 4.407l3.14-3.419L23 4.408"/></g></g></svg>