<svg width="48" height="48" viewBox="0 0 48 48" version="1.1" xmlns="http://www.w3.org/2000/svg">
    <title>
        pre-heating-large
    </title>
    <path d="M19.1,10 L23.6,4.5 L28.1,10 M23.5,17 L23.5,5 M6,44.5 L42,44.5 L6,44.5 Z M36.5,17 L36.5,5 M32.1,10 L36.6,4.5 L41.1,10 M10.6,5 L10.6,12.6 C10.6,12.6 10.3,16.3 12.3,19.9 C14.3,23.5 16,26 16,30 C16,34 14.4,40.5 8.1,40.5 M6.1,10 L10.6,4.5 L15.1,10 M30.1,27.5 C28.4,27.5 27.1,28.8 27.1,30.5 C27.1,32.2 28.4,33.5 30.1,33.5 C31.8,33.5 33.1,32.2 33.1,30.5 C33.1,28.8 31.8,27.5 30.1,27.5 Z M32.6,32.4 C32.5,42.5 36.5,41 38,39.5 C39.5,38 41.1,35.3 38.9,33.2 C36.7,31.1 33.5,31.8 33.5,31.8 L32.8,32 L32.6,32.4 Z M28.7,33.4 C18.6,33.3 19.6,37.3 21.1,38.8 C22.6,40.3 25.4,41.7 27.5,39.5 C28.8,38 29.5,36 29.2,34.1 L29,33.4 L28.7,33.4 Z M31.5,27.5 C31.3,26.6 31.1,23.3 32.8,21.6 C35,19.5 38,20.8 39.5,22.3 C41.3,24.1 43.3,27.5 33.1,27.5 L31.5,27.5 L31.5,27.5 Z M26.9,29.5 C25.1,29.7 23.3,29.2 21.9,28 C19.8,25.9 21.1,22.9 22.6,21.4 C23.9,20.1 27.3,18.4 27.2,28.5 L27,29.7 L26.9,29.5 Z" stroke="currentColor" stroke-width="1" fill="none" fill-rule="evenodd"/>
</svg>
