<svg xmlns="http://www.w3.org/2000/svg" width="48" height="48" viewBox="0 0 48px 48px"><g fill="none" stroke="currentColor"><path d="M6 44.5h36M30.1 27.5c-1.7 0-3 1.3-3 3s1.3 3 3 3 3-1.3 3-3-1.3-3-3-3zM32.6 32.4c-.1 10.1 3.9 8.6 5.4 7.1s3.1-4.2.9-6.3c-2.2-2.1-5.4-1.4-5.4-1.4l-.7.2M28.7 33.4c-10.1-.1-9.1 3.9-7.6 5.4s4.3 2.9 6.4.7c1.3-1.5 2-3.5 1.7-5.4l-.2-.7M31.5 27.5c-.2-.9-.4-4.2 1.3-5.9 2.2-2.1 5.2-.8 6.7.7 1.8 1.8 3.8 5.2-6.4 5.2h-1.6M26.9 29.5c-1.8.2-3.6-.3-5-1.5-2.1-2.1-.8-5.1.7-6.6 1.3-1.3 4.7-3 4.6 7.1l-.2 1.2"/><g><path d="M19.056 9.998l4.5-5.5 4.5 5.5M23.5 17V5"/></g><g><path d="M36.5 17V5M32.056 9.998l4.5-5.5 4.5 5.5"/></g><g><path d="M10.556 4.998v7.6s-.253 3.716 1.747 7.341S16 26.031 16 30.002s-1.633 10.53-7.946 10.53"/><path d="M6.056 9.998l4.5-5.5 4.5 5.5"/></g></g></svg>