<svg width="24" height="24" viewBox="0 0 24 24" version="1.1" xmlns="http://www.w3.org/2000/svg">
    <title>
        pre-heating-small
    </title>
    <g stroke="currentColor" stroke-width="1" fill="none" fill-rule="evenodd">
        <path d="M0,23.5 L24,23.5"/>
        <path d="M10,20.7 C12,20.7 14.5,18.8 14.5,15.2 C14.5,11.7 11.5,10.2 11.5,7.2 L11.5,0.9"/>
        <path d="M9.1,3.5 L11.6,1 L14.1,3.5 M2,20.7 C4,20.7 6.5,18.8 6.5,15.2 C6.5,11.7 3.5,10.2 3.5,7.2 L3.5,0.9"/>
        <path d="M0.4 4.4L3.5 1 7 4.4"/>
        <path d="M18,20.7 C20,20.7 22.5,18.8 22.5,15.2 C22.5,11.7 19.5,10.2 19.5,7.2 L19.5,0.9"/>
        <path d="M16.4 4.4L19.5 1 23 4.4"/>
    </g>
</svg>
