<svg width="24" height="24" viewBox="0 0 24 24" version="1.1" xmlns="http://www.w3.org/2000/svg">
    <title>
        private-customer-small
    </title>
    <path d="M11.5,9.5 L8.5,9.5 C7.4,9.5 6.5,8.6 6.5,7.5 L6.5,4.5 C6.5,3.4 7.4,2.5 8.5,2.5 L11.5,2.5 C12.6,2.5 13.5,3.4 13.5,4.5 L13.5,7.5 C13.5,8.6 12.6,9.5 11.5,9.5 Z M10,20.5 L3.5,20.5 L3.5,14 C3.5,14 3.4,12.5 4.7,12.5 L15,12.5 M12.5,17 L12.5,20.5308199 C12.5,21.0660833 13.0116746,21.5 13.6428571,21.5 L20.5,21.5 L20.5,17 M22,18 L16.5,14 L11,17.9994467" stroke="currentColor" stroke-width="1" fill="none" fill-rule="evenodd"/>
</svg>
