<svg width="48" height="48" viewBox="0 0 48 48" version="1.1" xmlns="http://www.w3.org/2000/svg">
    <title>
        private-customer-large
    </title>
    <path d="M23.5,20.5 L16.5,20.5 C14.9,20.5 13.5,19.1 13.5,17.5 L13.5,10.5 C13.5,8.9 14.9,7.5 16.5,7.5 L23.5,7.5 C25.1,7.5 26.5,8.9 26.5,10.5 L26.5,17.5 C26.5,19.1 25.1,20.5 23.5,20.5 Z M25,40.5 L7.5,40.5 L7.5,27.3 C7.5,27.3 7.7,24.5 11,24.5 L29,24.5 C31.2018715,24.5 32.3028072,25.4333333 32.3028072,27.3 M27.5,34.058 L27.5,40.5 C27.5,41.6045695 28.3954305,42.5 29.5,42.5 L41.5,42.5 L41.5,34.068 M43.828,35.813 L34.56,28.583 L25.292,35.812" stroke="currentColor" stroke-width="1" fill="none" fill-rule="evenodd"/>
</svg>
