<svg width="24" height="24" viewBox="0 0 24 24" version="1.1" xmlns="http://www.w3.org/2000/svg">
    <title>
        privacy-mode-small
    </title>
    <path d="M11.5,12 L11.5,14 M14.5,10.5 L14.5,8.5 C14.5,7.39543 13.6046,6.5 12.5,6.5 L10.5,6.5 C9.39543,6.5 8.5,7.39543 8.5,8.5 L8.5,10.5 M1.5002,4.5 C1.5002,20 11.5002,23.4 11.5002,23.4 C11.5002,23.4 21.5,20 21.5,4.5 C21.5,4.5 15.0002,4.5 12.0002,0.5 L11.0002,0.5 C8.0002,4.5 1.5002,4.5 1.5002,4.5 Z M7.5,10.5 L15.5,10.5 L15.5,15.5 L7.5,15.5 L7.5,10.5 Z" stroke="currentColor" stroke-width="1" fill="none" fill-rule="evenodd"/>
</svg>
