<svg width="48" height="48" viewBox="0 0 48 48" version="1.1" xmlns="http://www.w3.org/2000/svg">
    <title>
        privacy-mode-large
    </title>
    <path d="M24,24.5 L24,28.5 M28.5,21.4583 L28.5,18.75 C28.5,16.9551 27.0449,15.5 25.25,15.5 L22.75,15.5 C20.9551,15.5 19.5,16.9551 19.5,18.75 L19.5,21.4583 M19.5,21.5 L30.5,21.5 L30.5,31.5 L17.5,31.5 L17.5,21.5 L19.5,21.5 Z M4.5,9.50008 C4.5,40.5004 24,46.5 24,46.5 C24,46.5 43.5,40.5004 43.5,9.50008 C43.5,9.50008 30.5001,9.50008 24.5,1.5 L23.5,1.5 C17.4999,9.50008 4.5,9.50008 4.5,9.50008 Z" stroke="currentColor" stroke-width="1" fill="none" fill-rule="evenodd"/>
</svg>
