<svg width="24" height="24" viewBox="0 0 24 24" version="1.1" xmlns="http://www.w3.org/2000/svg">
    <title>
        projects-small
    </title>
    <g stroke="currentColor" stroke-width="1" fill="none" fill-rule="evenodd">
        <path d="M2.5,9.5 L20.5,9.5 C21.1,9.5 21.5,9.9 21.5,10.5 L21.5,23.5 L3.5,23.5 C2.9,23.5 2.5,23.1 2.5,22.5 L2.5,9.5 Z M15,19.5 L19,19.5 L15,19.5 Z M10,19.5 L14,19.5 L10,19.5 Z M5,19.5 L9,19.5 L5,19.5 Z M15,16.5 L19,16.5 L15,16.5 Z M10,16.5 L14,16.5 L10,16.5 Z M5,16.5 L9,16.5 L5,16.5 Z M15,13.5 L19,13.5 L15,13.5 Z M10,13.5 L14,13.5 L10,13.5 Z M5,13.5 L9,13.5 L5,13.5 Z"/>
        <path d="M18.6,9.5 L13.4,3.2 M9.6,3.2 L4.4,9.5" fill="currentColor" fill-rule="nonzero"/>
        <circle cx="11.5" cy="2.5" r="2"/>
    </g>
</svg>
