<?xml version="1.0" encoding="UTF-8"?>
<svg width="48px" height="48px" viewBox="0 0 48 48" version="1.1" xmlns="http://www.w3.org/2000/svg" xmlns:xlink="http://www.w3.org/1999/xlink">
    <!-- Generator: sketchtool 48.1 (47250) - http://www.bohemiancoding.com/sketch -->
    <title>projects-large</title>
    <desc>Created with sketchtool.</desc>
    <defs/>
    <g id="icons-published" stroke="none" stroke-width="1" fill="none" fill-rule="evenodd">
        <g id="briefing" transform="translate(-864.000000, -1434.000000)"/>
        <g id="projects-large" stroke="currentColor">
            <path d="M40.5,43.5 L9.5,43.5 C7.8,43.5 6.5,42.2 6.5,40.5 L6.5,19.5 L37.5,19.5 C39.2,19.5 40.5,20.8 40.5,22.5 L40.5,43.5 Z M29,36.5 L36,36.5 L29,36.5 Z M20,36.5 L27,36.5 L20,36.5 Z M11,36.5 L18,36.5 L11,36.5 Z M29,31.5 L36,31.5 L29,31.5 Z M20,31.5 L27,31.5 L20,31.5 Z M11,31.5 L18,31.5 L11,31.5 Z M29,26.5 L36,26.5 L29,26.5 Z M20,26.5 L27,26.5 L20,26.5 Z M11,26.5 L18,26.5 L11,26.5 Z M35.3,19.5 L23.9,7.1 L35.3,19.5 Z M10,19.5 L21.2,7.1 L10,19.5 Z" id="Shape"/>
            <circle id="Oval" cx="22.6" cy="5.6" r="2"/>
        </g>
    </g>
</svg>