<svg width="48" height="48" viewBox="0 0 48 48" version="1.1" xmlns="http://www.w3.org/2000/svg">
    <title>
        projects-large
    </title>
    <g stroke="currentColor" stroke-width="1" fill="none" fill-rule="evenodd">
        <path d="M40.5,43.5 L9.5,43.5 C7.8,43.5 6.5,42.2 6.5,40.5 L6.5,19.5 L37.5,19.5 C39.2,19.5 40.5,20.8 40.5,22.5 L40.5,43.5 Z M29,36.5 L36,36.5 L29,36.5 Z M20,36.5 L27,36.5 L20,36.5 Z M11,36.5 L18,36.5 L11,36.5 Z M29,31.5 L36,31.5 L29,31.5 Z M20,31.5 L27,31.5 L20,31.5 Z M11,31.5 L18,31.5 L11,31.5 Z M29,26.5 L36,26.5 L29,26.5 Z M20,26.5 L27,26.5 L20,26.5 Z M11,26.5 L18,26.5 L11,26.5 Z M35.3,19.5 L23.9,7.1 L35.3,19.5 Z M10,19.5 L21.2,7.1 L10,19.5 Z"/>
        <circle cx="22.6" cy="5.6" r="2"/>
    </g>
</svg>
