<svg width="48" height="48" viewBox="0 0 48 48" version="1.1" xmlns="http://www.w3.org/2000/svg">
    <title>
        public-transport-large
    </title>
    <path d="M42.5,29.5 L5.5,29.5 L42.5,29.5 Z M32.5,43.5 L32.5,41.5 L15.5,41.5 L15.5,43.5 C15.5,44.6 14.6,45.5 13.5,45.5 L10.5,45.5 C9.4,45.5 8.5,44.6 8.5,43.5 L8.5,41.5 L5.5,41.5 L5.5,22.5 L4.5,22.5 C3.4,22.5 2.5,21.6 2.5,20.5 L2.5,9.5 L45.5,9.5 L45.5,20.5 C45.5,21.6 44.6,22.5 43.5,22.5 L42.5,22.5 L42.5,41.5 L39.5,41.5 L39.5,43.5 C39.5,44.6 38.6,45.5 37.5,45.5 L34.5,45.5 C33.4,45.5 32.5,44.6 32.5,43.5 Z M12,32.5 C13.4,32.5 14.5,33.6 14.5,35 C14.5,36.4 13.4,37.5 12,37.5 C10.6,37.5 9.5,36.4 9.5,35 C9.5,33.6 10.6,32.5 12,32.5 Z M36,32.5 C37.4,32.5 38.5,33.6 38.5,35 C38.5,36.4 37.4,37.5 36,37.5 C34.6,37.5 33.5,36.4 33.5,35 C33.5,33.6 34.6,32.5 36,32.5 Z M5.5,23 L5.5,6.5 C5.5,4.9 6.8,3.5 8.5,3.5 L39.5,3.5 C41.2,3.5 42.5,4.8 42.5,6.5 L42.5,23" stroke="currentColor" stroke-width="1" fill="none" fill-rule="evenodd"/>
</svg>
