<svg width="24" height="24" viewBox="0 0 24 24" version="1.1" xmlns="http://www.w3.org/2000/svg">
    <title>
        quattro-small
    </title>
    <path d="M17.5,8.5 L21.5,8.5 L21.5,14.5 L17.5,14.5 L17.5,8.5 Z M12.6,11.5 L17.5,11.5 L12.6,11.5 Z M6.5,10 L12.6,11.5 L6.5,13 L6.5,14.5 L2.5,14.5 L2.5,8.5 L6.5,8.5 L6.5,10 Z M19.5,14.5 L19.5,17.5 M16.5,17.5 L22.5,17.5 C23.1,17.5 23.5,17.9 23.5,18.5 L23.5,19.5 C23.5,20.1 23.1,20.5 22.5,20.5 L16.5,20.5 C15.9,20.5 15.5,20.1 15.5,19.5 L15.5,18.5 C15.5,17.9 15.9,17.5 16.5,17.5 Z M4.5,14.5 L4.5,17.5 M1.5,17.5 L7.5,17.5 C8.1,17.5 8.5,17.9 8.5,18.5 L8.5,19.5 C8.5,20.1 8.1,20.5 7.5,20.5 L1.5,20.5 C0.9,20.5 0.5,20.1 0.5,19.5 L0.5,18.5 C0.5,17.9 0.9,17.5 1.5,17.5 Z M19.5,5.5 L19.5,8.5 M16.5,2.5 L22.5,2.5 C23.1,2.5 23.5,2.9 23.5,3.5 L23.5,4.5 C23.5,5.1 23.1,5.5 22.5,5.5 L16.5,5.5 C15.9,5.5 15.5,5.1 15.5,4.5 L15.5,3.5 C15.5,2.9 15.9,2.5 16.5,2.5 Z M4.5,5.5 L4.5,8.5 M1.5,2.5 L7.5,2.5 C8.1,2.5 8.5,2.9 8.5,3.5 L8.5,4.5 C8.5,5.1 8.1,5.5 7.5,5.5 L1.5,5.5 C0.9,5.5 0.5,5.1 0.5,4.5 L0.5,3.5 C0.5,2.9 0.9,2.5 1.5,2.5 Z" stroke="currentColor" stroke-width="1" fill="none" fill-rule="evenodd"/>
</svg>
