<svg width="48" height="48" viewBox="0 0 48 48" version="1.1" xmlns="http://www.w3.org/2000/svg">
    <title>
        quattro-large
    </title>
    <path d="M37.5,18.5 L41.5,18.5 L41.5,28.5 L37.5,28.5 L37.5,18.5 Z M37.5,23.5 L24,23.5 L37.5,23.5 Z M12.5,21.5 L24,23.5 L12.5,25.5 L12.5,28.5 L4.5,28.5 L4.5,18.5 L12.5,18.5 L12.5,21.5 Z M39.5,28.5 L39.5,32.5 M33.5,32.5 L45.5,32.5 C46.1,32.5 46.5,32.9 46.5,33.5 L46.5,36.5 C46.5,37.1 46.1,37.5 45.5,37.5 L33.5,37.5 C32.9,37.5 32.5,37.1 32.5,36.5 L32.5,33.5 C32.5,32.9 32.9,32.5 33.5,32.5 Z M8.5,28.5 L8.5,32.5 M2.5,32.5 L14.5,32.5 C15.1,32.5 15.5,32.9 15.5,33.5 L15.5,36.5 C15.5,37.1 15.1,37.5 14.5,37.5 L2.5,37.5 C1.9,37.5 1.5,37.1 1.5,36.5 L1.5,33.5 C1.5,32.9 1.9,32.5 2.5,32.5 Z M39.5,14.5 L39.5,18.5 M33.5,9.5 L45.5,9.5 C46.1,9.5 46.5,9.9 46.5,10.5 L46.5,13.5 C46.5,14.1 46.1,14.5 45.5,14.5 L33.5,14.5 C32.9,14.5 32.5,14.1 32.5,13.5 L32.5,10.5 C32.5,9.9 32.9,9.5 33.5,9.5 Z M8.5,14.5 L8.5,18.5 M2.5,9.5 L14.5,9.5 C15.1,9.5 15.5,9.9 15.5,10.5 L15.5,13.5 C15.5,14.1 15.1,14.5 14.5,14.5 L2.5,14.5 C1.9,14.5 1.5,14.1 1.5,13.5 L1.5,10.5 C1.5,9.9 1.9,9.5 2.5,9.5 Z" stroke="currentColor" stroke-width="1" fill="none" fill-rule="evenodd"/>
</svg>
