<svg width="48" height="48" viewBox="0 0 48 48" version="1.1" xmlns="http://www.w3.org/2000/svg">
    <title>
        restroom-large
    </title>
    <path d="M40.9175,14 C41.7797,14 42.655,14.0985 43.5432,14.2954 C44.4315,14.4923 45.1616,14.7417 45.7335,15.0436 L45.7335,16.5533 C44.9623,16.2033 44.1672,15.932 43.3482,15.7394 C42.5337,15.5469 41.7126,15.4506 40.885,15.4506 C39.5201,15.4506 38.3784,15.7876 37.4598,16.4614 C36.5455,17.1309 35.8631,18.1024 35.4125,19.3758 C34.9619,20.6448 34.7366,22.1851 34.7366,23.9967 C34.7366,25.7777 34.9575,27.3049 35.3995,28.5783 C35.8458,29.8517 36.5282,30.8319 37.4468,31.5189 C38.3654,32.2059 39.5223,32.5494 40.9175,32.5494 C41.7884,32.5494 42.6636,32.4575 43.5432,32.2737 C44.4271,32.0899 45.2461,31.8405 46,31.5254 L46,32.9498 C45.3284,33.2386 44.529,33.4858 43.6017,33.6915 C42.6745,33.8972 41.7602,34 40.859,34 C39.0955,34 37.6266,33.5974 36.4524,32.7923 C35.2782,31.9827 34.4051,30.834 33.8331,29.3462 C33.2655,27.8584 32.9817,26.084 32.9817,24.023 C32.9817,21.9663 33.2764,20.1897 33.8656,18.6931 C34.4592,17.1922 35.3475,16.0348 36.5304,15.2209 C37.7176,14.407 39.18,14 40.9175,14 Z M4.81333,14.2626 L9.70738,29.2937 C10.02801,30.2564 10.26849,31.0638 10.42881,31.7158 C10.6238,30.8975 10.8534,30.0901 11.1177,29.2937 L15.9143,14.2626 L17.5391,14.2626 L22.4332,29.2937 C22.7538,30.2564 22.9943,31.0638 23.1546,31.7158 C23.3496,30.8975 23.5793,30.0901 23.8436,29.2937 L28.7441,14.2626 L30.4729,14.2626 L24.006,33.7309 L22.2187,33.7309 L17.2142,18.6997 C16.9542,17.9033 16.7592,17.1791 16.6292,16.5271 C16.4732,17.3235 16.2869,18.0477 16.0703,18.6997 L11.2802,33.7309 L9.4669,33.7309 L3,14.2626 L4.81333,14.2626 Z" fill="currentColor" fill-rule="nonzero" stroke="none" stroke-width="1"/>
</svg>
