<svg width="48" height="48" viewBox="0 0 48 48" version="1.1" xmlns="http://www.w3.org/2000/svg">
    <title>
        restaurant-large
    </title>
    <path d="M16.5,23.4999 L16.5,45.9999 M16.5,23.4999 C17.5609,23.4999 18.5783,23.0785 19.3284,22.3284 C20.0786,21.5782 20.5,20.5608 20.5,19.4999 L20.5,1.82837 M16.5,23.4999 C15.4391,23.4999 14.4217,23.0785 13.6716,22.3284 C12.9214,21.5782 12.5,20.5608 12.5,19.4999 L12.5,1.82837 M16.5,1.99994 L16.5,17.9999 M35.5,23.4999 L29.5,23.4999 L29.5,6.49994 C29.5,5.43908 29.9214,4.42166 30.6716,3.67152 C31.4217,2.92137 32.4391,2.49994 33.5,2.49994 L35.5,2.49994 M35.5,1.99994 L35.5,45.9999" stroke="currentColor" stroke-width="1" fill="none" fill-rule="evenodd"/>
</svg>
