<svg width="24" height="24" viewBox="0 0 24 24" version="1.1" xmlns="http://www.w3.org/2000/svg">
    <title>
        restroom-small
    </title>
    <path d="M20.6548,6.62988 C20.9183,6.62988 21.1784,6.6425 21.4351,6.66773 C21.6918,6.69296 21.9371,6.72966 22.1711,6.77782 C22.4051,6.82599 22.6232,6.88563 22.8253,6.95673 C23.0298,7.02554 23.2104,7.10352 23.3671,7.19068 L23.3671,8.34325 C23.2013,8.26068 23.0173,8.18613 22.8151,8.11962 C22.6152,8.0531 22.4028,7.99691 22.1779,7.95103 C21.9553,7.90287 21.7225,7.86617 21.4794,7.84094 C21.2363,7.81571 20.9899,7.80309 20.74,7.80309 C20.3902,7.80309 20.0699,7.84438 19.7791,7.92695 C19.4883,8.00723 19.2271,8.12764 18.9954,8.2882 C18.766,8.44646 18.5649,8.64257 18.3923,8.87652 C18.2219,9.10818 18.08,9.3754 17.9664,9.67816 C17.8528,9.98092 17.7676,10.3181 17.7108,10.6897 C17.654,11.0589 17.6256,11.4592 17.6256,11.8904 C17.6256,12.3744 17.6608,12.8124 17.7313,13.2047 C17.8039,13.5969 17.9062,13.9467 18.0379,14.254 C18.1719,14.5591 18.3332,14.8228 18.5218,15.0453 C18.7103,15.2678 18.9216,15.4525 19.1556,15.5992 C19.3918,15.7437 19.6474,15.8515 19.9222,15.9227 C20.1994,15.9915 20.4913,16.0259 20.7979,16.0259 C21.0932,16.0259 21.367,16.0144 21.6191,15.9915 C21.8735,15.9685 22.1109,15.9364 22.3313,15.8951 C22.5516,15.8538 22.7572,15.8034 22.948,15.7437 C23.1411,15.6841 23.3251,15.6176 23.5,15.5442 L23.5,16.6658 C23.3251,16.7438 23.1399,16.8149 22.9446,16.8791 C22.7515,16.941 22.5391,16.9938 22.3074,17.0374 C22.078,17.081 21.827,17.1142 21.5544,17.1371 C21.2818,17.1601 20.9785,17.1715 20.6446,17.1715 C20.1925,17.1715 19.7712,17.1211 19.3804,17.0202 C18.992,16.9192 18.6354,16.7702 18.3105,16.5729 C17.9879,16.3756 17.7006,16.1291 17.4484,15.8332 C17.1986,15.5373 16.9873,15.1944 16.8147,14.8045 C16.642,14.4123 16.5103,13.973 16.4194,13.4868 C16.3308,13.0005 16.2865,12.4684 16.2865,11.8904 C16.2865,11.3651 16.3285,10.8709 16.4126,10.4075 C16.4966,9.94193 16.6204,9.51531 16.784,9.12768 C16.9498,8.73776 17.1554,8.38797 17.4007,8.07833 C17.6461,7.76869 17.93,7.50721 18.2526,7.2939 C18.5774,7.08059 18.9398,6.91659 19.3396,6.80191 C19.7416,6.68722 20.18,6.62988 20.6548,6.62988 Z M1.90385,6.79847 L4.20044,14.2127 C4.23225,14.3136 4.26405,14.4146 4.29585,14.5155 C4.32993,14.6164 4.36173,14.7185 4.39126,14.8217 C4.42079,14.9226 4.44919,15.0247 4.47644,15.1279 C4.50598,15.2311 4.53323,15.3366 4.55822,15.4444 C4.57867,15.3366 4.60138,15.2311 4.62637,15.1279 C4.65136,15.0247 4.67748,14.9226 4.70474,14.8217 C4.732,14.7185 4.7604,14.6164 4.78993,14.5155 C4.82173,14.4146 4.85467,14.3136 4.88874,14.2127 L7.19896,6.79847 L8.49719,6.79847 L10.8108,14.223 L10.860225,14.3770125 L10.860225,14.3770125 L10.9062,14.5293 C10.938,14.6302 10.9676,14.7322 10.9948,14.8355 C11.0243,14.9364 11.0505,15.0396 11.0732,15.1451 C11.0982,15.2483 11.122,15.3527 11.1447,15.4582 C11.1675,15.3527 11.1924,15.2483 11.2197,15.1451 C11.247,15.0396 11.2754,14.9364 11.3049,14.8355 C11.3367,14.7322 11.3696,14.6302 11.4037,14.5293 C11.4378,14.4283 11.4719,14.3263 11.5059,14.223 L13.8059,6.79847 L15.1927,6.79847 L11.8467,17.003 L10.4735,17.003 L8.25526,10.1461 C8.22119,10.0451 8.18484,9.93161 8.14622,9.80546 C8.10988,9.67701 8.07353,9.53939 8.03719,9.3926 C8.00311,9.2458 7.96904,9.09442 7.93496,8.93845 C7.90316,8.78248 7.87363,8.62651 7.84637,8.47055 C7.81684,8.62651 7.78504,8.78248 7.75096,8.93845 C7.71689,9.09442 7.68168,9.2458 7.64533,9.3926 C7.61126,9.53939 7.57605,9.67701 7.5397,9.80546 C7.50563,9.93161 7.47156,10.0451 7.43748,10.1461 L5.22607,17.003 L3.84948,17.003 L0.5,6.79847 L1.90385,6.79847 Z" fill="currentColor" fill-rule="nonzero" stroke="none" stroke-width="1"/>
</svg>
