<svg width="24" height="24" viewBox="0 0 24 24" version="1.1" xmlns="http://www.w3.org/2000/svg">
    <title>
        results-list-small
    </title>
    <path d="M5,12.5 L8,12.5 L5,12.5 Z M2,12.5 L4,12.5 L2,12.5 Z M5,9.5 L10,9.5 L5,9.5 Z M2,9.5 L4,9.5 L2,9.5 Z M5,6.5 L14,6.5 L5,6.5 Z M2,6.5 L4,6.5 L2,6.5 Z M5,3.5 L14,3.5 L5,3.5 Z M2,3.5 L4,3.5 L2,3.5 Z M11.5,12.4 C11.4,10.3 13.1,8.5 15.2,8.4 C15.3,8.4 15.4,8.4 15.5,8.4 C17.7,8.4 19.5,10.2 19.5,12.4 C19.5,14.6 15.5,20.5 15.5,20.5 C15.5,20.5 11.5,14.6 11.5,12.4 Z" stroke="currentColor" stroke-width="1" fill="none" fill-rule="evenodd"/>
</svg>
