<?xml version="1.0" encoding="UTF-8" standalone="no"?>
<svg width="48px" height="48px" viewBox="0 0 48 48" version="1.1" xmlns="http://www.w3.org/2000/svg" xmlns:xlink="http://www.w3.org/1999/xlink">
    <!-- Generator: sketchtool 46.2 (44496) - http://www.bohemiancoding.com/sketch -->
    <title>results-list-large</title>
    <desc>Created with sketchtool.</desc>
    <defs></defs>
    <g id="icons-published" stroke="none" stroke-width="1" fill="none" fill-rule="evenodd">
        <g id="briefing" transform="translate(-2880.000000, -1434.000000)"></g>
        <g id="results-list-large" stroke="#000000">
            <path d="M36.5,23.4 C38.2,23.4 39.6,24.7 39.6,26.4 C39.6,28.1 38.3,29.5 36.6,29.5 C36.6,29.5 36.5,29.5 36.5,29.5 C34.8,29.5 33.4,28.1 33.5,26.4 C33.5,24.8 34.8,23.5 36.5,23.4 Z" id="Shape"></path>
            <path d="M29.4,26.7 C29.2,22.9 32.2,19.7 36,19.6 C36.1,19.6 36.3,19.6 36.4,19.6 C40.3,19.6 43.5,22.8 43.6,26.7 C43.6,30.6 36.5,40.5 36.5,40.5 C36.5,40.5 29.4,30.6 29.4,26.7 Z" id="Shape"></path>
            <path d="M16,11.5 L34,11.5 M16,17.5 L28,17.5 M16,23.5 L21,23.5 M12,23.5 L14,23.5 M12,17.5 L14,17.5 M12,11.5 L14,11.5" id="Shape"></path>
        </g>
    </g>
</svg>