<svg width="24" height="24" viewBox="0 0 24 24" version="1.1" xmlns="http://www.w3.org/2000/svg">
    <title>
        roof-open-small
    </title>
    <path d="M6.36147167,10.273101 C15.4523808,9.90946467 20.3614717,9.78825254 21.0887444,9.90946467 C21.475544,9.97393127 21.7632,10.0555411 22.1499996,10.1542943 C22.7579842,10.3095225 23.2566428,10.8371427 23.2999992,11.4631309 L23.5,14.0973485 C23.5415357,14.6970487 23.1129435,15.2173373 22.5133785,15.2607816 L20.999895,15.5206227 C20.999895,16.7518738 20.0017688,17.75 18.7705177,17.75 L18.7293773,17.75 C17.4981262,17.75 16.5,16.7518738 16.5,15.5206227 L7.49988801,15.5 C7.49988801,16.7426658 6.49255377,17.75 5.24994401,17.75 L5.22937732,17.75 C3.99812622,17.75 3,16.7518738 3,15.5206227 L1.5,15.5 C0.997922955,15.5 0.5,14.9569963 0.5,14.4549192 L0.5,14.273101 C0.5,13.5458283 0.478787903,13.0003738 0.600000024,12.6367374 C0.781818206,12.0912828 1.559091,11.3640101 2.6500001,11.0003738 C3.37727282,10.7579495 4.54328985,10.5155253 6.36147167,10.273101 C7.88621795,8.80578552 8.91652098,7.95730068 9.45238076,7.72764648 M18.771254,9.73284855 L20.7875256,7.86698367 C20.9902008,7.67942734 21.002457,7.36308218 20.8149007,7.16040699 C20.700617,7.03691088 20.5318816,6.97917833 20.3658993,7.00678185 L16,7.73284855 L16,7.73284855" stroke="currentColor" stroke-width="1" fill="none" fill-rule="evenodd"/>
</svg>
