<svg width="48" height="48" viewBox="0 0 48 48" version="1.1" xmlns="http://www.w3.org/2000/svg">
    <title>
        roof-open-large
    </title>
    <path d="M13.0219007,19.1251995 C33.0016351,18.8447773 43.2407836,18.7682097 43.7393462,18.8954969 C44.914832,19.1956173 45.5269464,20.3520395 45.8491818,21.4260198 C46.1714172,22.5 46.5702123,24.8405312 46.4958148,26 C46.4214172,27.1594688 45.4880123,28.2164208 44.328805,28.3004166 L41.5,28.5 C41.5,30.709139 39.709139,32.5 37.5,32.5 L37,32.5 C34.790861,32.5 33,30.709139 33,28.5 L15,28.5 C15,30.709139 13.209139,32.5 11,32.5 L10.5,32.5 C8.290861,32.5 6.5,30.709139 6.5,28.5 L3.25764901,28.5 C2.28692627,28.5 1.5,27.7130737 1.5,26.742351 L1.5,26.3908212 C1.5,24.984702 1.53859384,24.3981465 1.77294704,23.6950869 C2.12447684,22.6404975 3.53059606,21.2343783 5.63977487,20.5313187 C7.04589408,20.0626123 9.5066027,19.5939059 13.0219007,19.1251995 C15.9698664,16.2882713 17.9618686,14.6477988 18.9979074,14.2037822 M38.003418,18.7284593 L41.8450309,14.9686061 C42.2397328,14.5823046 42.2465426,13.9491762 41.860241,13.5544744 C41.6497296,13.3393853 41.353541,13.2305455 41.0538472,13.2581506 L33,14 L33,14" stroke="currentColor" stroke-width="1" fill="none" fill-rule="evenodd"/>
</svg>
