<svg width="24" height="24" viewBox="0 0 24 24" version="1.1" xmlns="http://www.w3.org/2000/svg">
    <title>
        rotate-device-small
    </title>
    <path d="M4,19.5 L11,19.5 M9,3.5 L6,3.5 M17,6 L19.5,8.5 L22,6 M19.5,8 L19.5,5.5 C19.5,3.29086 17.7091,1.5 15.5,1.5 L15,1.5 M15,22.5 L21.5,22.5 C22.1,22.5 22.5,22.1 22.5,21.5 L22.5,11.5 C22.5,10.9 22.1,10.5 21.5,10.5 L15,10.5 M2.5,1.5 L12.5,1.5 C13.1,1.5 13.5,1.9 13.5,2.5 L13.5,21.5 C13.5,22.1 13.1,22.5 12.5,22.5 L2.5,22.5 C1.9,22.5 1.5,22.1 1.5,21.5 L1.5,2.5 C1.5,1.9 1.9,1.5 2.5,1.5 Z" stroke="currentColor" stroke-width="1" fill="none" fill-rule="evenodd"/>
</svg>
