<svg width="48" height="48" viewBox="0 0 48 48" version="1.1" xmlns="http://www.w3.org/2000/svg">
    <title>
        rotate-device-large
    </title>
    <path d="M9,40.5 L21,40.5 M12,7.5 L18,7.5 M29,44.5 L42.5,44.5 C43.6,44.5 44.5,43.6 44.5,42.5 L44.5,23.5 C44.5,22.4 43.6,21.5 42.5,21.5 L29,21.5 M40.5,27 L40.5,39 M41.5,13.5 L36.5,18.5 L31.5,13.5 M36.5,18.5 L36.5,13.5 C36.5,10.1863 33.8137,7.5 30.5,7.5 L29,7.5 M5.5,3.5 L24.5,3.5 C25.6,3.5 26.5,4.4 26.5,5.5 L26.5,42.5 C26.5,43.6 25.6,44.5 24.5,44.5 L5.5,44.5 C4.4,44.5 3.5,43.6 3.5,42.5 L3.5,5.5 C3.5,4.4 4.4,3.5 5.5,3.5 Z" stroke="currentColor" stroke-width="1" fill="none" fill-rule="evenodd"/>
</svg>
