<svg width="48" height="48" viewBox="0 0 48 48" version="1.1" xmlns="http://www.w3.org/2000/svg">
    <title>
        rss-feed-large
    </title>
    <path d="M36,10 L13,10 C11.3,10 10,11.3 10,13 L10,36 C10,37.7 11.3,39 13,39 L36,39 C37.7,39 39,37.7 39,36 L39,13 C39,11.3 37.7,10 36,10 Z M17,34 C15.9,34 15,33.1 15,32 C15,30.9 15.9,30 17,30 C18.1,30 19,30.9 19,32 C19,33.1 18.1,34 17,34 Z M22.5,34 C22.5,31.8 21.9,30 20.6,28.7 C18.4,26.5 15,26.5 15,26.5 L15,23.5 C15.2,23.5 19.6,23.5 22.7,26.6 C24.5,28.4 25.5,30.9 25.5,34 L22.5,34 Z M29,34 C29,19.2 15.6,19 15,19 L15,16 C15.2,16 32,16.2 32,34 L29,34 Z" fill="currentColor" fill-rule="nonzero" stroke="none" stroke-width="1"/>
</svg>
