<svg width="24" height="24" viewBox="0 0 24 24" version="1.1" xmlns="http://www.w3.org/2000/svg">
    <title>
        select-all-small
    </title>
    <path d="M7,2.5 L9,2.5 M11,2.5 L13,2.5 M15,2.5 L17,2.5 M5,2.5 L2.8,2.5 C2.8,2.5 2.5,2.5 2.5,2.8 L2.5,5 M19,2.5 L21.2,2.5 C21.2,2.5 21.5,2.5 21.5,2.8 L21.5,5 M7,21.5 L9,21.5 M11,21.5 L13,21.5 M15,21.5 L17,21.5 M5,21.5 L2.8,21.5 C2.8,21.5 2.5,21.5 2.5,21.2 L2.5,19 M19,21.5 L21.2,21.5 C21.2,21.5 21.5,21.5 21.5,21.2 L21.5,19 M2.5,17 L2.5,15 M2.5,13 L2.5,11 M2.5,9 L2.5,7 M21.5,17 L21.5,15 M21.5,13 L21.5,11 M21.5,9 L21.5,7 M6.5,6.5 L17.5,6.5 L17.5,17.5 L6.5,17.5 L6.5,6.5 Z" stroke="currentColor" stroke-width="1" fill="none" fill-rule="evenodd"/>
</svg>
