<svg width="48" height="48" viewBox="0 0 48 48" version="1.1" xmlns="http://www.w3.org/2000/svg">
    <title>
        send-to-vehicle-large
    </title>
    <g stroke="currentColor" stroke-width="1" fill="none" fill-rule="evenodd">
        <path d="M11.5,43 L11.5,41.9 C11.5,38.4 8.6,35.5 5.1,35.5 L4,35.5 M19.5,43 C19.5,34.4 12.9,27.5 4,27.5 M17,22.2 C13.4,19.8 8.8,18.3 4,18.5 M29.5,43 C29.5,38.2 28.3,33.3 25.5,29.7"/>
        <path d="M22,13.5 L24.4,13.5 M21.8,16.5 C21.8,16.5 22.6,16.7 23.7,17 C24.6,17.3 25,17.5 25.1,18.4 C25.3,19.5 25.7,20 24,19.7 C22.3,19.4 21.5,19 21.5,19 M44,13.5 L41.6,13.5 M44.2,16.5 C44.2,16.5 43.4,16.7 42.3,17 C41.4,17.3 41,17.5 40.9,18.4 C40.7,19.5 40.3,20 42,19.7 C43.7,19.4 44.5,19.1 44.5,19.1"/>
        <path d="M40.5,25.4 L43.4,25.4 C43.9,25.4 44.5,25 44.5,24.4 L44.5,19.6 C44.5,15.8 43.8,15.4 43.8,15.4 L42.3,14.3 C42.3,14.3 41.5,13.6 40.7,11.9 C40,10.4 38.6,10.5 38.6,10.5 L27.4,10.5 C27.4,10.5 26,10.4 25.3,11.9 C24.5,13.6 23.7,14.4 23.7,14.4 L22.2,15.5 C22.2,15.5 21.5,15.9 21.5,19.7 L21.5,24.5 C21.5,25 22,25.5 22.6,25.5 L25.5,25.5 L25.5,23.5 L40.5,23.5 C40.5,23.5 40.5,25.4 40.5,25.4 Z"/>
        <path d="M29.2,18.5 L36.9,18.5 L38.4,19.5 L36.9,21.5 L29.2,21.5 L27.6,19.5 L29.2,18.5 Z M42.6,14.5 L23.6,14.5 L42.6,14.5 Z"/>
    </g>
</svg>
