<svg xmlns="http://www.w3.org/2000/svg" width="48" height="48" viewBox="0 0 48px 48px"><g fill="none" stroke="currentColor" stroke-miterlimit="10"><path d="M11.5 43v-1.1c0-3.5-2.9-6.4-6.4-6.4H4M19.5 43c0-8.6-6.611-15.5-15.5-15.5M17 22.2c-3.594-2.354-8.219-3.851-13-3.7M29.5 43c0-4.8-1.222-9.666-4-13.3"/><g><path d="M22 13.5h2.4M21.8 16.5s.8.2 1.9.5c.9.3 1.3.5 1.4 1.4.2 1.1.6 1.6-1.1 1.3s-2.5-.7-2.5-.7M44 13.5h-2.374M44.2 16.5s-.8.2-1.9.5c-.9.3-1.3.5-1.4 1.4-.2 1.1-.6 1.6 1.1 1.3s2.5-.6 2.5-.6"/><path d="M40.5 25.401h2.9c.5 0 1.1-.4 1.1-1v-4.8c0-3.8-.7-4.2-.7-4.2l-1.5-1.1s-.8-.7-1.6-2.4c-.7-1.5-2.1-1.4-2.1-1.4H27.4s-1.4-.1-2.1 1.4c-.8 1.7-1.6 2.5-1.6 2.5l-1.5 1.1s-.7.4-.7 4.2v4.8c0 .5.5 1 1.1 1h2.9v-2h15v1.9z"/><path d="M29.2 18.5h7.7l1.5 1-1.5 2h-7.7l-1.6-2zM42.559 14.5H23.571"/></g></g></svg>