<svg width="24" height="24" viewBox="0 0 24 24" version="1.1" xmlns="http://www.w3.org/2000/svg">
    <title>
        send-to-vehicle-small
    </title>
    <path d="M3.5,21 C3.5,19 1.9,17.5 0,17.5 M8.5,9.5 C6.7,8.2 4.5,7.5 2.1,7.5 L0,7.5 M13.5,21 L13.5,19 C13.5,17.4 13.2,15.9 12.6,14.5 M8.5,21 L8.5,20 C8.5,15.9 5.1,12.5 1,12.5 L0,12.5 M13.5,12.5 L10.9,12.5 C10.6,12.5 10.5,11.6 10.5,11.3 L10.5,7.5 L13.7,4.5 L20.2,4.5 L23.5,7.5 L23.5,11.3 C23.5,11.6 23.3,12.5 23,12.5 L20.5,12.5 L20.5,10.5 L13.5,10.5 L13.5,12.5 Z" stroke="currentColor" stroke-width="1" fill="none" fill-rule="evenodd"/>
</svg>
