<svg width="48" height="48" viewBox="0 0 48 48" version="1.1" xmlns="http://www.w3.org/2000/svg">
    <title>
        send-to-vehicle-large
    </title>
    <path d="M21.5,16.5 L21.5,24.5 C21.5,25.0522847 21.9477153,25.5 22.5,25.5 L24.5,25.5 C25.0522847,25.5 25.5,25.0522847 25.5,24.5 L25.5,23.4545455 L25.5,23.4545455 L40.5,23.5 L40.5,24.5 C40.5,25.0522847 40.9477153,25.5 41.5,25.5 L43.5,25.5 C44.0522847,25.5 44.5,25.0522847 44.5,24.5 L44.5,16.5 L44.5,16.5 L42.5,14.5 C41.8393934,13.2878788 41.3090904,12.3636364 40.9090909,11.7272727 C40.5090915,11.0909091 40.0393945,10.3636364 39.5,9.54545455 C37.3089592,9.36363636 35.1462451,9.27272727 33.0118577,9.27272727 C30.8774704,9.27272727 28.7068511,9.36363636 26.5,9.54545455 C25.9606062,10.3636364 25.4909092,11.0909091 25.0909091,11.7272727 C24.690909,12.3636364 24.1606059,13.2878788 23.5,14.5 L21.5,16.5 Z M27.5,18.5 L28.5,17.5 L37.5,17.5 L38.5,18.5 C37.8636364,20.5 37.3636364,21.5 37,21.5 C36.4545455,21.5 29.5454545,21.5 29,21.5 C28.6363636,21.5 28.1363636,20.5 27.5,18.5 Z M23.5,14.5 L42.5,14.5 M21.5,17.5 L26,17.5 M40,17.5 L44.5,17.5 M11.5,43 L11.5,41.9 C11.5,38.4 8.6,35.5 5.1,35.5 L4,35.5 M19.5,43 C19.5,34.4 12.9,27.5 4,27.5 M17,22.2 C13.4,19.8 8.8,18.3 4,18.5 M29.5,43 C29.5,38.2 28.3,33.3 25.5,29.7" stroke="currentColor" stroke-width="1" fill="none" fill-rule="evenodd"/>
</svg>
