<svg width="24" height="24" viewBox="0 0 24 24" version="1.1" xmlns="http://www.w3.org/2000/svg">
    <title>
        send-to-vehicle-small
    </title>
    <path d="M10.5,7.35770751 L10.5,11.75 C10.5,12.1642136 10.8357864,12.5 11.25,12.5 L13,12.5 C13.4142136,12.5 13.75,12.1642136 13.75,11.75 L13.75,11.5 L13.75,11.5 L20.25,11.5 L20.25,11.75 C20.25,12.1642136 20.5857864,12.5 21,12.5 L22.75,12.5 C23.1642136,12.5 23.5,12.1642136 23.5,11.75 L23.5,7.35770751 L23.5,7.35770751 L20.5,3.5 L13.5,3.5 L10.5,7.35770751 Z M10.5,8.5 L13.5,8.5 M20.5,8.5 L23.5,8.5 M3.5,21 C3.5,19 1.9,17.5 0,17.5 M8.5,9.5 C6.7,8.2 4.5,7.5 2.1,7.5 L0,7.5 M13.5,21 L13.5,19 C13.5,17.4 13.2,15.9 12.6,14.5 M8.5,21 L8.5,20 C8.5,15.9 5.1,12.5 1,12.5 L0,12.5" stroke="currentColor" stroke-width="1" fill="none" fill-rule="evenodd"/>
</svg>
