<svg id="settings-small" xmlns="http://www.w3.org/2000/svg" width="24" height="24" viewBox="0 0 24 24">
  <title>settings</title>
  <g class="audiicon-group audiicon-group--small">
    <path d="M13.1368,2.5V5.17a6.5572,6.5572,0,0,1,1.6842.6961L16.7083,3.981l2.3145,2.3123L17.1337,8.1822a6.4664,6.4664,0,0,1,.6979,1.6841H20.5v3.2713H17.8316a6.48,6.48,0,0,1-.697,1.682l1.8862,1.889-2.3125,2.3123-1.8873-1.887a6.4989,6.4989,0,0,1-1.6832.698V20.5H9.8642V17.8319a6.4831,6.4831,0,0,1-1.6832-.698l-1.8873,1.887L3.9812,16.7086,5.8664,14.82a6.4834,6.4834,0,0,1-.6971-1.682H2.5V9.8663H5.1693a6.4668,6.4668,0,0,1,.6981-1.6841L3.9792,6.2933,6.2937,3.981,8.181,5.8661A6.5559,6.5559,0,0,1,9.8652,5.17V2.5ZM11.501,7.999A3.5,3.5,0,1,0,15,11.5a3.501,3.501,0,0,0-3.5-3.501" fill="none" stroke="currentColor" stroke-miterlimit="10" stroke-width="0.99" class="audiicon-settings__settings"/>
  </g>
</svg>