<svg id="settings-large" xmlns="http://www.w3.org/2000/svg" width="48" height="48" viewBox="0 0 48 48">
  <title>settings</title>
  <g class="audiicon-group audiicon-group--large">
    <path d="M27.3646,5.5v5.4884a13.4787,13.4787,0,0,1,3.4619,1.4309L34.706,8.5443l4.7576,4.753L35.58,17.18a13.2921,13.2921,0,0,1,1.4346,3.4618H42.5v6.7243H37.015a13.32,13.32,0,0,1-1.4328,3.4575l3.8772,3.883L34.706,39.46l-3.8794-3.8789a13.3588,13.3588,0,0,1-3.46,1.4348V42.5h-6.729V37.0156a13.3263,13.3263,0,0,1-3.46-1.4348L13.2982,39.46,8.5448,34.7066l3.8751-3.883a13.3269,13.3269,0,0,1-1.433-3.4575H5.5V20.6419h5.4869a13.293,13.293,0,0,1,1.435-3.4618L8.5406,13.2973l4.7576-4.753,3.8794,3.8749A13.4759,13.4759,0,0,1,20.64,10.9884V5.5ZM24.002,17.4979A6.5,6.5,0,1,0,30.5011,24a6.5019,6.5019,0,0,0-6.4991-6.5019" fill="none" stroke="currentColor" stroke-miterlimit="10" stroke-width="0.99" class="audiicon-settings__settings"/>
  </g>
</svg>
