<svg width="48" height="48" viewBox="0 0 48 48" version="1.1" xmlns="http://www.w3.org/2000/svg">
    <title>
        settings-large
    </title>
    <path d="M27.4,5.5 L27.4,11 C28.6,11.3 29.8,11.8 30.9,12.4 L34.8,8.5 L39.6,13.3 L35.7,17.2 C36.3,18.3 36.8,19.4 37.1,20.7 L42.6,20.7 L42.6,27.4 L37,27.4 C36.7,28.6 36.2,29.8 35.6,30.9 L39.5,34.8 L34.7,39.6 L30.8,35.7 C29.7,36.3 28.6,36.8 27.3,37.1 L27.3,42.6 L20.6,42.6 L20.6,37 C19.4,36.7 18.2,36.2 17.1,35.6 L13.2,39.5 L8.4,34.7 L12.3,30.8 C11.7,29.7 11.2,28.6 10.9,27.3 L5.5,27.3 L5.5,20.6 L11,20.6 C11.3,19.4 11.8,18.2 12.4,17.1 L8.5,13.2 L13.3,8.4 L17.2,12.3 C18.3,11.7 19.4,11.2 20.7,10.9 L20.7,5.5 L27.4,5.5 Z M24,17.5 C20.4,17.5 17.5,20.4 17.5,24 C17.5,27.6 20.4,30.5 24,30.5 C27.6,30.5 30.5,27.6 30.5,24 C30.5,20.4 27.6,17.5 24,17.5 L24,17.5 Z" stroke="currentColor" stroke-width="1" fill="none" fill-rule="evenodd"/>
</svg>
