<svg width="48" height="48" viewBox="0 0 48 48" version="1.1" xmlns="http://www.w3.org/2000/svg">
    <title>
        share-android-large
    </title>
    <path d="M31.8838727,34.1706101 L13.1100704,25.826698 M13.1051591,22.1754849 L31.8732277,13.834121 M36,40.5 C38.4852814,40.5 40.5,38.4852814 40.5,36 C40.5,33.5147186 38.4852814,31.5 36,31.5 C33.5147186,31.5 31.5,33.5147186 31.5,36 C31.5,38.4852814 33.5147186,40.5 36,40.5 Z M36,16.5 C38.4852814,16.5 40.5,14.4852814 40.5,12 C40.5,9.51471863 38.4852814,7.5 36,7.5 C33.5147186,7.5 31.5,9.51471863 31.5,12 C31.5,14.4852814 33.5147186,16.5 36,16.5 Z M9,28.5 C11.4852814,28.5 13.5,26.4852814 13.5,24 C13.5,21.5147186 11.4852814,19.5 9,19.5 C6.51471863,19.5 4.5,21.5147186 4.5,24 C4.5,26.4852814 6.51471863,28.5 9,28.5 Z" stroke="currentColor" stroke-width="1" fill="none" fill-rule="evenodd"/>
</svg>
