<svg width="24" height="24" viewBox="0 0 24 24" version="1.1" xmlns="http://www.w3.org/2000/svg">
    <title>
        share-android-small
    </title>
    <path d="M15.7287405,16.9517264 L7.27231446,13.0487605 M7.25968578,10.9570681 L15.7326062,7.04648946 M18,8.5 C19.3807119,8.5 20.5,7.38071187 20.5,6 C20.5,4.61928813 19.3807119,3.5 18,3.5 C16.6192881,3.5 15.5,4.61928813 15.5,6 C15.5,7.38071187 16.6192881,8.5 18,8.5 Z M18,20.5 C19.3807119,20.5 20.5,19.3807119 20.5,18 C20.5,16.6192881 19.3807119,15.5 18,15.5 C16.6192881,15.5 15.5,16.6192881 15.5,18 C15.5,19.3807119 16.6192881,20.5 18,20.5 Z M5,14.5 C6.38071187,14.5 7.5,13.3807119 7.5,12 C7.5,10.6192881 6.38071187,9.5 5,9.5 C3.61928813,9.5 2.5,10.6192881 2.5,12 C2.5,13.3807119 3.61928813,14.5 5,14.5 Z" stroke="currentColor" stroke-width="1" fill="none" fill-rule="evenodd"/>
</svg>
