<svg width="24" height="24" viewBox="0 0 24 24" version="1.1" xmlns="http://www.w3.org/2000/svg">
    <title>
        share-android-small
    </title>
    <path d="M7.27044541,13.0478979 L15.7295546,16.9521021 C16.1258874,16.0948123 16.9934808,15.5 18,15.5 C19.3807119,15.5 20.5,16.6192881 20.5,18 C20.5,19.3807119 19.3807119,20.5 18,20.5 C16.6192881,20.5 15.5,19.3807119 15.5,18 C15.5,17.6258073 15.5822103,17.2708159 15.7295546,16.9521021 L7.27044541,13.0478979 C7.41778969,12.7291841 7.5,12.3741927 7.5,12 C7.5,11.6258073 7.41778969,11.2708159 7.27044541,10.9521021 L15.7295546,7.04789788 C15.5822103,6.72918408 15.5,6.37419266 15.5,6 C15.5,4.61928813 16.6192881,3.5 18,3.5 C19.3807119,3.5 20.5,4.61928813 20.5,6 C20.5,7.38071187 19.3807119,8.5 18,8.5 C16.9934808,8.5 16.1258874,7.90518773 15.7295546,7.04789788 L7.27044541,10.9521021 C6.87411258,10.0948123 6.00651921,9.5 5,9.5 C3.61928813,9.5 2.5,10.6192881 2.5,12 C2.5,13.3807119 3.61928813,14.5 5,14.5 C6.00651921,14.5 6.87411258,13.9051877 7.27044541,13.0478979 Z" stroke="currentColor" stroke-width="1" fill="none" fill-rule="evenodd"/>
</svg>
