<svg width="48" height="48" viewBox="0 0 48 48" version="1.1" xmlns="http://www.w3.org/2000/svg">
    <title>
        share-android-large
    </title>
    <path d="M13.1131776,22.1719211 L31.8868224,13.8280789 C31.6381867,13.2694862 31.5,12.6508807 31.5,12 C31.5,9.51471863 33.5147186,7.5 36,7.5 C38.4852814,7.5 40.5,9.51471863 40.5,12 C40.5,14.4852814 38.4852814,16.5 36,16.5 C34.1655994,16.5 32.5875614,15.4023809 31.8868224,13.8280789 L13.1131776,22.1719211 C12.4124386,20.5976191 10.8344006,19.5 9,19.5 C6.51471863,19.5 4.5,21.5147186 4.5,24 C4.5,26.4852814 6.51471863,28.5 9,28.5 C10.8344006,28.5 12.4124386,27.4023809 13.1131776,25.8280789 L31.8868224,34.1719211 C32.5875614,32.5976191 34.1655994,31.5 36,31.5 C38.4852814,31.5 40.5,33.5147186 40.5,36 C40.5,38.4852814 38.4852814,40.5 36,40.5 C33.5147186,40.5 31.5,38.4852814 31.5,36 C31.5,35.3491193 31.6381867,34.7305138 31.8868224,34.1719211 L13.1131776,25.8280789 C13.3618133,25.2694862 13.5,24.6508807 13.5,24 C13.5,23.3491193 13.3618133,22.7305138 13.1131776,22.1719211 Z" stroke="currentColor" stroke-width="1" fill="none" fill-rule="evenodd"/>
</svg>
