<svg width="24" height="24" viewBox="0 0 24 24" version="1.1" xmlns="http://www.w3.org/2000/svg">
    <title>
        shopping-basket-small
    </title>
    <path d="M6.4,9.5 L21.7,9.5 M5,5.5 L23,5.5 L20.5,13.5 L7.9,13.5 M19.5,22.5 C20.6045695,22.5 21.5,21.6045695 21.5,20.5 C21.5,19.3954305 20.6045695,18.5 19.5,18.5 C18.3954305,18.5 17.5,19.3954305 17.5,20.5 C17.5,21.6045695 18.3954305,22.5 19.5,22.5 Z M10.5,22.5 C11.6045695,22.5 12.5,21.6045695 12.5,20.5 C12.5,19.3954305 11.6045695,18.5 10.5,18.5 C9.3954305,18.5 8.5,19.3954305 8.5,20.5 C8.5,21.6045695 9.3954305,22.5 10.5,22.5 Z M0,1.5 L3.5,1.5 L9,16.5" stroke="currentColor" stroke-width="1" fill="none" fill-rule="evenodd"/>
</svg>
