<svg xmlns="http://www.w3.org/2000/svg" width="48" height="48" viewBox="0 0 48 48"><g fill="none" stroke="currentColor"><path d="M25.82 20.247s2.333-3.118 3.196-4.087a11.762 11.762 0 0 1 8.821-3.66h5.577M4 34.5h4.838a11.907 11.907 0 0 0 8.82-3.82c.842-.945 3.119-3.987 3.119-3.987" stroke-linejoin="round"/><path stroke-miterlimit="10" d="M38.223 7.319l5.191 5.191-5.17 5.171"/><path d="M4 12.5h5.064a11.754 11.754 0 0 1 8.876 3.715c2.996 3.414 8.108 10.963 11.066 14.41a11.77 11.77 0 0 0 8.877 3.875h5.594" stroke-linejoin="round"/><path stroke-miterlimit="10" d="M38.251 29.338l5.226 5.104-5.22 5.22"/></g></svg>