<svg xmlns="http://www.w3.org/2000/svg" width="24" height="24" viewBox="0 0 24 24"><g fill="none" stroke="currentColor"><path d="M13.34 9.74s1.286-1.615 1.75-2.123A7.255 7.255 0 0 1 20.43 5.5l2.861.006M0 18.5h2.808a6.908 6.908 0 0 0 5.239-2.15c.436-.498 1.596-2.112 1.596-2.112" stroke-linejoin="round"/><path stroke-miterlimit="10" d="M20.209 2.423l3.082 3.083-3.07 3.071"/><g><path d="M0 5.5h3.143a6.865 6.865 0 0 1 5.271 2.167c1.76 2.055 4.79 6.57 6.572 8.604a6.993 6.993 0 0 0 5.271 2.229l3.034.006" stroke-linejoin="round"/><path stroke-miterlimit="10" d="M20.188 15.434l3.103 3.066-3.1 3.066"/></g></g></svg>