<svg width="24" height="24" viewBox="0 0 24 24" version="1.1" xmlns="http://www.w3.org/2000/svg">
    <title>
        shuffle-small
    </title>
    <g stroke="currentColor" stroke-width="1" fill="none" fill-rule="evenodd">
        <path d="M13.3,9.7 C13.3,9.7 14.6,8.1 15.1,7.6 C16.5,6.2 18.4,5.4 20.4,5.5 L23.3,5.5 M0,18.5 L2.8,18.5 C4.8,18.6 6.7,17.8 8,16.4 C8.4,15.9 9.6,14.3 9.6,14.3" stroke-linejoin="round"/>
        <path d="M20.2 2.4L23.3 5.5 20.2 8.6"/>
        <path d="M0,5.5 L3.1,5.5 C5.1,5.4 7,6.2 8.4,7.7 C10.2,9.8 13.2,14.3 15,16.3 C16.4,17.8 18.3,18.6 20.3,18.5 L23.3,18.5" stroke-linejoin="round"/>
        <path d="M20.2 15.4L23.3 18.5 20.2 21.6"/>
    </g>
</svg>
