<svg width="48" height="48" viewBox="0 0 48 48" version="1.1" xmlns="http://www.w3.org/2000/svg">
    <title>
        shuffle-large
    </title>
    <path d="M25.8,20.2 C25.8,20.2 28.1,17.1 29,16.1 C31.3,13.7 34.5,12.4 37.8,12.4 L43.4,12.4 M4,34.5 L8.8,34.5 C12.1,34.5 15.3,33.1 17.6,30.7 C18.4,29.8 20.7,26.7 20.7,26.7 M38.2,7.3 L43.4,12.5 L38.2,17.7 M4,12.5 L9.1,12.5 C12.5,12.4 15.7,13.8 18,16.2 C21,19.6 26.1,27.2 29.1,30.6 C31.4,33.1 34.6,34.5 38,34.5 L43.6,34.5 M38.3,29.3 L43.5,34.4 L38.3,39.6" stroke="currentColor" stroke-width="1" fill="none" fill-rule="evenodd"/>
</svg>
