<?xml version="1.0" encoding="UTF-8" standalone="no"?>
<svg width="48px" height="48px" viewBox="0 0 48 48" version="1.1" xmlns="http://www.w3.org/2000/svg" xmlns:xlink="http://www.w3.org/1999/xlink">
    <!-- Generator: sketchtool 46.2 (44496) - http://www.bohemiancoding.com/sketch -->
    <title>shuffle-large</title>
    <desc>Created with sketchtool.</desc>
    <defs></defs>
    <g id="icons-published" stroke="none" stroke-width="1" fill="none" fill-rule="evenodd">
        <g id="briefing" transform="translate(-576.000000, -1690.000000)"></g>
        <g id="shuffle-large" stroke="#000000">
            <path d="M25.8,20.2 C25.8,20.2 28.1,17.1 29,16.1 C31.3,13.7 34.5,12.4 37.8,12.4 L43.4,12.4 M4,34.5 L8.8,34.5 C12.1,34.5 15.3,33.1 17.6,30.7 C18.4,29.8 20.7,26.7 20.7,26.7" id="Shape" stroke-linejoin="round"></path>
            <polyline id="Shape" points="38.2 7.3 43.4 12.5 38.2 17.7"></polyline>
            <path d="M4,12.5 L9.1,12.5 C12.5,12.4 15.7,13.8 18,16.2 C21,19.6 26.1,27.2 29.1,30.6 C31.4,33.1 34.6,34.5 38,34.5 L43.6,34.5" id="Shape" stroke-linejoin="round"></path>
            <polyline id="Shape" points="38.3 29.3 43.5 34.4 38.3 39.6"></polyline>
        </g>
    </g>
</svg>