<svg width="24" height="24" viewBox="0 0 24 24" version="1.1" xmlns="http://www.w3.org/2000/svg">
    <title>
        side-assist-small
    </title>
    <path d="M3.5,23 L3.5,17.3603796 C3.5,17.1451644 3.63771505,16.954095 3.84188612,16.886038 L4.69209979,16.6026334 C4.89603273,16.5346558 5.10959113,16.5 5.32455532,16.5 L6.46327495,16.5 C6.64832128,16.5 6.83247234,16.525681 7.0104584,16.5763082 L8.13679586,16.8966886 C8.35172791,16.9578248 8.5,17.1541537 8.5,17.3776116 L8.5,23 L8.5,23 M4.5,20.5 L7.5,20.5 M15.3691544,15.7187879 C13.5114192,14.6018517 12.0900245,12.8332311 11.42125,10.7292055 M14.0156785,18.4036674 C11.2101253,16.786393 9.1201412,14.0668841 8.33723847,10.8366533 M15.8418861,1.88603796 L16.6920998,1.6026334 C16.8960327,1.53465576 17.1095911,1.5 17.3245553,1.5 L18.4632749,1.5 C18.6483213,1.5 18.8324723,1.52568102 19.0104584,1.57630817 L20.1367959,1.8966886 C20.3517279,1.95782483 20.5,2.15415368 20.5,2.37761156 L20.5,11.5354669 C20.5,12.0877517 20.0522847,12.5354669 19.5,12.5354669 L16.5,12.5354669 C15.9477153,12.5354669 15.5,12.0877517 15.5,11.5354669 L15.5,2.36037961 C15.5,2.14516441 15.637715,1.95409498 15.8418861,1.88603796 Z M16.5,5.5 L19.5,5.5 M16.5,10.5 L19.5,10.5" stroke="currentColor" stroke-width="1" fill="none" fill-rule="evenodd"/>
</svg>
