<svg width="24" height="24" viewBox="0 0 24 24" version="1.1" xmlns="http://www.w3.org/2000/svg">
    <title>
        smartwatch-small
    </title>
    <path d="M10.5,0.5 L15.5,0.5 L15.5,0.5 L15.5,5.5 L8.5,5.5 L8.5,2.5 C8.5,1.3954305 9.3954305,0.5 10.5,0.5 Z M13.5,23.5 L8.5,23.5 L8.5,23.5 L8.5,18.5 L15.5,18.5 L15.5,21.5 C15.5,22.6045695 14.6045695,23.5 13.5,23.5 Z M8.5,5.5 L15.5,5.5 C16.6045695,5.5 17.5,6.3954305 17.5,7.5 L17.5,16.5 C17.5,17.6045695 16.6045695,18.5 15.5,18.5 L8.5,18.5 C7.3954305,18.5 6.5,17.6045695 6.5,16.5 L6.5,7.5 C6.5,6.3954305 7.3954305,5.5 8.5,5.5 Z M19.5,10.5 L19.5,13.5" stroke="currentColor" stroke-width="1" fill="none" fill-rule="evenodd"/>
</svg>
