<svg width="48" height="48" viewBox="0 0 48 48" version="1.1" xmlns="http://www.w3.org/2000/svg">
    <title>
        smartwatch-large
    </title>
    <path d="M21.5,0.5 L29.5,0.5 L29.5,0.5 L29.5,10.5 L18.5,10.5 L18.5,3.5 C18.5,1.84314575 19.8431458,0.5 21.5,0.5 Z M26.5,47.5 L18.5,47.5 L18.5,47.5 L18.5,37.5 L29.5,37.5 L29.5,44.5 C29.5,46.1568542 28.1568542,47.5 26.5,47.5 Z M17.5,10.5 L30.5,10.5 C32.709139,10.5 34.5,12.290861 34.5,14.5 L34.5,33.5 C34.5,35.709139 32.709139,37.5 30.5,37.5 L17.5,37.5 C15.290861,37.5 13.5,35.709139 13.5,33.5 L13.5,14.5 C13.5,12.290861 15.290861,10.5 17.5,10.5 Z M34.5,20.5 C36.5,20.5 37.5,20.5 37.5,20.5 C37.5,20.5 37.5,23 37.5,28 L34.5,28 L34.5,20.5 Z" stroke="currentColor" stroke-width="1" fill="none" fill-rule="evenodd"/>
</svg>
