<svg width="24" height="24" viewBox="0 0 24 24" version="1.1" xmlns="http://www.w3.org/2000/svg">
    <title>
        smiley-unhappy-small
    </title>
    <path d="M6.55029,16.5000009 C9.28396,13.7664009 13.7161,13.7664009 16.4498,16.5000009 M8,8.50000087 C8,8.77614087 7.77614,9.00000087 7.5,9.00000087 C7.22386,9.00000087 7,8.77614087 7,8.50000087 C7,8.22386087 7.22386,8.00000087 7.5,8.00000087 C7.77614,8.00000087 8,8.22386087 8,8.50000087 Z M16,8.50000087 C16,8.77614087 15.7761,9.00000087 15.5,9.00000087 C15.2239,9.00000087 15,8.77614087 15,8.50000087 C15,8.22386087 15.2239,8.00000087 15.5,8.00000087 C15.7761,8.00000087 16,8.22386087 16,8.50000087 Z M11.4995,22.5000009 C17.5746,22.5000009 22.4995,17.5751009 22.4995,11.5000009 C22.4995,5.42487087 17.5746,0.500000868 11.4995,0.500000868 C5.42438,0.500000868 0.499512,5.42487087 0.499512,11.5000009 C0.499512,17.5751009 5.42438,22.5000009 11.4995,22.5000009 Z" stroke="currentColor" stroke-width="1" fill="none" fill-rule="evenodd"/>
</svg>
