<svg width="48" height="48" viewBox="0 0 48 48" version="1.1" xmlns="http://www.w3.org/2000/svg">
    <title>
        smiley-neutral-large
    </title>
    <path d="M13,31.5000002 L36,31.5000002 M18.5,18.5000002 C18.5,19.3284002 17.8284,20.0000002 17,20.0000002 C16.1716,20.0000002 15.5,19.3284002 15.5,18.5000002 C15.5,17.6716002 16.1716,17.0000002 17,17.0000002 C17.8284,17.0000002 18.5,17.6716002 18.5,18.5000002 Z M33.5,18.5000002 C33.5,19.3284002 32.8284,20.0000002 32,20.0000002 C31.1716,20.0000002 30.5,19.3284002 30.5,18.5000002 C30.5,17.6716002 31.1716,17.0000002 32,17.0000002 C32.8284,17.0000002 33.5,17.6716002 33.5,18.5000002 Z M24,2.50000025 C23.9,2.50000025 23.9,2.50000025 23.9,2.50000025 C12.1,2.60000025 2.5,12.2000002 2.5,24.1000002 C2.6,35.9000002 12.2,45.5000002 24.1,45.5000002 C35.9,45.4000002 45.5,35.8000002 45.5,23.9000002 C45.4,12.1000002 35.8,2.50000025 24,2.50000025 Z" stroke="currentColor" stroke-width="1" fill="none" fill-rule="evenodd"/>
</svg>
