<svg width="24" height="24" viewBox="0 0 24 24" version="1.1" xmlns="http://www.w3.org/2000/svg">
    <title>
        snapchat-small
    </title>
    <path d="M19.8531898,15.8592761 C18.2205917,15.49448 17.2480053,14.3899304 16.6013987,12.9325768 C16.4700003,12.6363459 16.5605883,12.4280872 16.8330388,12.2488473 C17.0444109,12.1097945 17.2842863,12.033906 17.5237041,11.9593905 C17.822965,11.8662462 18.1112455,11.7487059 18.348513,11.5375178 C18.6916953,11.2319953 18.6506562,10.8054997 18.2548596,10.5705106 C17.9642,10.3979076 17.6591287,10.3517702 17.3417045,10.5032728 C17.1417702,10.5986599 16.9330974,10.6707494 16.7106991,10.6783474 C16.5392223,10.6842519 16.4227847,10.6624648 16.4419088,10.413012 C16.4814381,9.89735421 16.5351962,9.38009438 16.5086146,8.94430721 C16.5086146,8.69293202 16.5084315,8.52513497 16.5086146,8.35729214 C16.5105819,6.85567784 15.8114525,5.73954822 14.5859973,4.93731718 C13.6938879,4.353323 12.6867134,4.20470406 11.639186,4.26109413 C10.6729591,4.31313593 9.78377782,4.59275192 9.0314394,5.21107446 C8.21230372,5.88427661 7.64690612,6.71841015 7.53403705,7.80744325 C7.44317448,8.68368625 7.5044358,9.55901383 7.56167099,10.4327852 C7.57507619,10.638023 7.49222014,10.6687813 7.34224657,10.6793086 C7.07729937,10.6978917 6.83010377,10.6257106 6.59539834,10.5121524 C6.30871915,10.37342 6.03420987,10.4121882 5.76834764,10.5589305 C5.35205432,10.7886101 5.31311976,11.2435754 5.67611252,11.5526223 C5.90665456,11.748889 6.17832724,11.8635915 6.4612548,11.9544472 C6.6637054,12.0195338 6.86560697,12.0836134 7.05497262,12.1824791 C7.45278231,12.3901429 7.55371022,12.6312653 7.36118771,13.0411918 C6.68960077,14.4708538 5.69761575,15.5369098 4.0831352,15.8841298 C3.75999203,15.9536104 3.66185496,16.2045279 3.8331945,16.4868901 C3.94052763,16.6637957 4.11081488,16.7664604 4.28952042,16.8530594 C4.72333658,17.0633778 5.18867555,17.1843968 5.66142628,17.2401003 C5.93941267,17.2729182 6.02277199,17.4029083 6.07387647,17.6425203 C6.2391768,18.4179294 6.29352964,18.4404488 7.06741704,18.2922876 C7.95312122,18.1226597 8.79426339,18.1913622 9.52537309,18.7993405 C9.69424205,18.9397206 9.88264691,19.0583137 10.0694505,19.1751216 C11.3545657,19.9788174 12.6439357,19.9818383 13.9292796,19.1781883 C14.2514163,18.9767952 14.5587294,18.7519215 14.8754216,18.5416489 C15.1875844,18.3343971 15.5354334,18.2473403 15.9077595,18.2255533 C16.3759808,18.1980906 16.8330388,18.2626279 17.2905542,18.3468468 C17.5990569,18.403603 17.7693442,18.2939811 17.8520172,17.9940427 C17.9003308,17.818785 17.9350563,17.6398198 17.9772849,17.4628685 C18.0037293,17.3520565 18.0547881,17.2855968 18.1866898,17.2648625 C18.4932709,17.2168028 18.7993945,17.1565221 19.0992501,17.0768803 C19.4439422,16.985338 19.7852488,16.8718713 20.0570587,16.6244782 C20.1981107,16.4961817 20.287372,16.3360742 20.234712,16.1358712 C20.184248,15.9438612 20.0216013,15.8969457 19.8531898,15.8592761 Z" fill="currentColor" fill-rule="nonzero" stroke="none" stroke-width="1"/>
</svg>
