<svg width="48" height="48" viewBox="0 0 48 48" version="1.1" xmlns="http://www.w3.org/2000/svg">
    <title>
        snapchat-large
    </title>
    <path d="M39.9703505,32.0513865 C39.872481,31.6790035 39.5570449,31.5880159 39.2304287,31.5149596 C36.0641778,30.8074763 34.1779497,28.6653196 32.9239247,25.8389369 C32.6690914,25.2644285 32.8447773,24.8605327 33.3731661,24.512916 C33.7830999,24.2432379 34.2483128,24.0960601 34.7126383,23.9515453 C35.293023,23.7709018 35.8521124,23.5429448 36.3122676,23.1333678 C36.9778334,22.5408394 36.8982423,21.7136964 36.1306367,21.2579599 C35.5669333,20.9232147 34.9752799,20.8337362 34.3596692,21.1275593 C33.971918,21.3125524 33.5672192,21.4523625 33.1359014,21.4670981 C32.8033403,21.4785492 32.5775218,21.4362955 32.614611,20.9525082 C32.691274,19.9524445 32.795532,18.9492739 32.7439797,18.1041109 C32.7439797,17.6165954 32.7436248,17.2911708 32.7439797,16.9656575 C32.7477951,14.0534358 31.3919079,11.8888208 29.0152676,10.3329788 C27.285116,9.20038401 25.3318078,8.91215333 23.3002395,9.02151588 C21.426345,9.12244544 19.7018721,9.66473099 18.2427916,10.863902 C16.6541648,12.1695062 15.5576361,13.7872197 15.3387385,15.8992839 C15.1625202,17.5986642 15.28133,19.2962692 15.3923316,20.9908561 C15.4183296,21.3888932 15.2576391,21.4485455 14.9667812,21.4689622 C14.4529442,21.5050021 13.9735346,21.3650145 13.5183483,21.1447803 C12.9623644,20.8757236 12.4299828,20.9509104 11.9143712,21.2355016 C11.1070144,21.6809409 11.031505,22.5632978 11.735491,23.1626614 C12.1826028,23.5432999 12.7094831,23.7657532 13.2581911,23.9419583 C13.6508226,24.0681868 14.0423893,24.1924624 14.4096439,24.384202 C15.1811536,24.7869438 15.3768925,25.2545752 15.0035156,26.0495841 C13.7010439,28.822262 11.7771942,30.8897645 8.64608038,31.5631608 C8.01937848,31.6979111 7.82905205,32.1845389 8.16134691,32.7321506 C8.36950813,33.0752401 8.6997622,33.2743474 9.04634264,33.442297 C9.88768307,33.8501873 10.7901587,34.0848907 11.7070085,34.1929217 C12.2461337,34.2565686 12.4078002,34.5086706 12.5069119,34.9733727 C12.8274944,36.4771965 12.932906,36.5208705 14.4337785,36.2335275 C16.1515078,35.9045521 17.7828138,36.0377934 19.2007236,37.2169027 C19.528227,37.4891551 19.8936183,37.7191538 20.255904,37.9456905 C22.7482485,39.5043731 25.248845,39.5102318 27.7416333,37.9516379 C28.3663831,37.5610574 28.9623843,37.1249387 29.5765753,36.7171372 C30.1819819,36.3151943 30.8565982,36.146357 31.5786851,36.1041033 C32.4867507,36.0508423 33.3731661,36.1760056 34.2604688,36.3393393 C34.858777,36.449412 35.1890311,36.2368119 35.3493667,35.6551132 C35.4430659,35.3152194 35.5104121,34.9681353 35.5923102,34.6249571 C35.6435963,34.410049 35.7426193,34.2811574 35.9984286,34.2409454 C36.5930102,34.1477387 37.1867044,34.0308308 37.7682426,33.876374 C38.4367365,33.6988374 39.0986643,33.4787808 39.6258108,32.9989881 C39.8993663,32.7501705 40.072479,32.439659 39.9703505,32.0513865" fill="currentColor" fill-rule="nonzero" stroke="none" stroke-width="1"/>
</svg>
