<svg width="48" height="48" viewBox="0 0 48 48" version="1.1" xmlns="http://www.w3.org/2000/svg">
    <title>
        spark-plug-large
    </title>
    <path d="M25.5,43.5 L21.5,43.5 C20.3954,43.5 19.5,42.6046 19.5,41.5 L19.5,34.5 M25.5,43.5 C26.6045,43.5 27.5,42.6046 27.5,41.5 L27.5,34.5 M25.5,43.5 L25.5,46.5 C25.5,47.0523 25.0523,47.5 24.5,47.5 L22.5,47.5 M19.5,23 L19.5,9.5 C19.5,7.5 20.5,5.5 21.5,5.5 L25.5,5.5 C26.5,5.5 27.5,7.5 27.5,9.5 L27.5,23 M18.5,23.5 L18.5,29.5 M28.5,23.5 L28.5,29.5 M27.5,37.5 L19.5,37.5 M27.5,40.5 L19.5,40.5 M17.5,29.5 L17.5,34.5 L29.5,34.5 L29.5,29.5 M22.5,5.5 L22.5,0.5 L24.5,0.5 L24.5,5.5 M15.5,29.5 L15.5,23.5 L31.5,23.5 L31.5,29.5 L15.5,29.5 Z" stroke="currentColor" stroke-width="1" fill="none" fill-rule="evenodd"/>
</svg>
