<svg width="24" height="24" viewBox="0 0 24 24" version="1.1" xmlns="http://www.w3.org/2000/svg">
    <title>
        spark-plug-small
    </title>
    <path d="M12.5,21.5 L10.5,21.5 C9.9477,21.5 9.5,21.0523 9.5,20.5 L9.5,17.5 M12.5,21.5 C13.0523,21.5 13.5,21.0523 13.5,20.5 L13.5,17.5 M12.5,21.5 L12.5,22.5 C12.5,23.0523 12.0523,23.5 11.5,23.5 L11,23.5 M9.5,11.5 L9.5,4.5 C9.5,3.5 10,2.5 10.5,2.5 L12.5,2.5 C13,2.5 13.5,3.5 13.5,4.5 L13.5,11.5 M8.5,14.5 L8.5,17.5 L14.5,17.5 L14.5,14.5 M11.5,0 L11.5,2.5 M7.5,14.5 L7.5,11.5 L15.5,11.5 L15.5,14.5 L7.5,14.5 Z" stroke="currentColor" stroke-width="1" fill="none" fill-rule="evenodd"/>
</svg>
