<svg width="24" height="24" viewBox="0 0 24 24" version="1.1" xmlns="http://www.w3.org/2000/svg">
    <title>
        special-offer-small
    </title>
    <path d="M5.84315,11.5 L17.1569,11.5 M12.5,22.5 L22.6,12.4 L10.7,0.5 L0.5,0.5 L0.5,10.5 L12.5,22.5 Z M4.5,6.5 C5.60457,6.5 6.5,5.60457 6.5,4.5 C6.5,3.39543 5.60457,2.5 4.5,2.5 C3.39543,2.5 2.5,3.39543 2.5,4.5 C2.5,5.60457 3.39543,6.5 4.5,6.5 Z M10.6161,9.15165 C11.1043,9.63981 11.8957,9.63981 12.3839,9.15165 C12.872,8.6635 12.872,7.87204 12.3839,7.38388 C11.8957,6.89573 11.1043,6.89573 10.6161,7.38388 C10.128,7.87204 10.128,8.6635 10.6161,9.15165 Z M10.6161,15.6517 C11.1043,16.1398 11.8957,16.1398 12.3839,15.6517 C12.872,15.1635 12.872,14.372 12.3839,13.8839 C11.8957,13.3957 11.1043,13.3957 10.6161,13.8839 C10.128,14.372 10.128,15.1635 10.6161,15.6517 Z" stroke="currentColor" stroke-width="1" fill="none" fill-rule="evenodd"/>
</svg>
