<svg width="48" height="48" viewBox="0 0 48 48" version="1.1" xmlns="http://www.w3.org/2000/svg">
    <title>
        special-offer-large
    </title>
    <path d="M12.6863,24 L35.3137,24 M22.2322,19.3033 C23.2085,20.2796 24.7915,20.2796 25.7678,19.3033 C26.7441,18.327 26.7441,16.7441 25.7678,15.7678 C24.7915,14.7915 23.2085,14.7915 22.2322,15.7678 C21.2559,16.7441 21.2559,18.327 22.2322,19.3033 Z M22.2322,32.3033 C23.2085,33.2796 24.7915,33.2796 25.7678,32.3033 C26.7441,31.327 26.7441,29.7441 25.7678,28.7678 C24.7915,27.7915 23.2085,27.7915 22.2322,28.7678 C21.2559,29.7441 21.2559,31.327 22.2322,32.3033 Z M26.5,45.5 L45.5,26.5 L21.5,2.5 L2.5,2.5 L2.5,21.5 L26.5,45.5 Z M9,11.5 C10.3807,11.5 11.5,10.3807 11.5,9 C11.5,7.61929 10.3807,6.5 9,6.5 C7.61929,6.5 6.5,7.61929 6.5,9 C6.5,10.3807 7.61929,11.5 9,11.5 Z" stroke="currentColor" stroke-width="1" fill="none" fill-rule="evenodd"/>
</svg>
