<svg width="48" height="48" viewBox="0 0 48 48" version="1.1" xmlns="http://www.w3.org/2000/svg">
    <title>
        split-large
    </title>
    <path d="M10,24 L19.5,24 M19.5,24 L27.307,12.7232 C28.0542,11.644 29.2783,11 30.5909,11 C34.1951,11 41.5684,11 45.5,11 M19.5,24 L27.307,35.2768 C28.0542,36.356 29.2832,37 30.5958,37 L45.5,37 M5,26.5 C6.38071,26.5 7.5,25.3807 7.5,24 C7.5,22.6193 6.38071,21.5 5,21.5 C3.61929,21.5 2.5,22.6193 2.5,24 C2.5,25.3807 3.61929,26.5 5,26.5 Z M40.25,5.75 L45.5,11 L40.25,16.25 M40.25,31.75 L45.5,37 L40.25,42.25" stroke="currentColor" stroke-width="1" fill="none" fill-rule="evenodd"/>
</svg>
