<svg width="24" height="24" viewBox="0 0 24 24" version="1.1" xmlns="http://www.w3.org/2000/svg">
    <title>
        split-small
    </title>
    <path d="M6,12 L10,12 M10,12 L13.307,7.22316 C14.0542,6.14397 15.2832,5.5 16.5958,5.5 L22.5,5.5 M10,12 L13.307,16.7768 C14.0542,17.856 15.2832,18.5 16.5958,18.5 L22.5,18.5 M19.5,2 L23,5.5 L19.5,9 M19.5,15 L23,18.5 L19.5,22 M3,13.5 C3.82843,13.5 4.5,12.8284 4.5,12 C4.5,11.1716 3.82843,10.5 3,10.5 C2.17157,10.5 1.5,11.1716 1.5,12 C1.5,12.8284 2.17157,13.5 3,13.5 Z" stroke="currentColor" stroke-width="1" fill="none" fill-rule="evenodd"/>
</svg>
