<svg width="48" height="48" viewBox="0 0 48 48" version="1.1" xmlns="http://www.w3.org/2000/svg">
    <title>
        system-pinterest-large
    </title>
    <g stroke="none" stroke-width="1" fill="none" fill-rule="evenodd">
        <path d="M24.2,9 C16.3,9 12.3,14.7 12.3,19.4 C12.3,22.3 13.4,24.8 15.7,25.8 C16.1,26 16.4,25.8 16.5,25.4 C16.6,25.1 16.8,24.4 16.8,24.1 C16.9,23.7 16.9,23.5 16.6,23.2 C15.9,22.4 15.5,21.4 15.5,19.9 C15.5,15.7 18.7,11.9 23.7,11.9 C28.2,11.9 30.6,14.6 30.6,18.3 C30.6,23.1 28.5,27.2 25.3,27.2 C23.6,27.2 22.3,25.8 22.7,24 C23.2,21.9 24.2,19.6 24.2,18.1 C24.2,16.7 23.5,15.6 22,15.6 C20.2,15.6 18.8,17.4 18.8,19.9 C18.8,21.5 19.3,22.5 19.3,22.5 L17.2,31.6 C16.6,34.3 17.1,37.6 17.2,37.9 C17.2,38.1 17.5,38.1 17.6,38 C17.8,37.8 19.9,35.2 20.6,32.5 C20.8,31.8 21.8,27.9 21.8,27.9 C22.4,29 24.1,30 25.9,30 C31.3,30 34.9,25.1 34.9,18.6 C34.7,13.6 30.5,9 24.2,9 L24.2,9 Z" fill="currentColor" fill-rule="nonzero"/>
        <circle stroke="currentColor" cx="23.5" cy="23.5" r="22"/>
    </g>
</svg>
