<svg width="48" height="48" viewBox="0 0 48 48" version="1.1" xmlns="http://www.w3.org/2000/svg">
    <title>
        system-weibo-large
    </title>
    <g stroke="none" stroke-width="1" fill="none" fill-rule="evenodd">
        <circle stroke="currentColor" cx="23.5" cy="23.5" r="22"/>
        <path d="M21.2,24 C19,23.4 16.6,24.5 15.5,26.5 C14.6,28.2 15.3,30.3 17,31.1 C17.2,31.2 17.5,31.3 17.7,31.4 C20,32.1 22.6,31.1 23.7,28.9 C24.5,27.2 23.7,25.1 22,24.3 C21.8,24.1 21.5,24.1 21.2,24 Z M19.5,29.1 C19.1,29.8 18.2,30.1 17.4,29.8 C16.8,29.5 16.5,28.8 16.8,28.2 C16.8,28.1 16.9,28 16.9,28 C17.3,27.3 18.2,27 19,27.3 C19.6,27.6 19.9,28.3 19.7,28.9 C19.6,28.9 19.6,29 19.5,29.1 Z M21,27.2 C20.8,27.5 20.5,27.6 20.2,27.5 C20,27.4 19.8,27.1 19.9,26.9 C19.9,26.9 19.9,26.8 19.9,26.8 C20.1,26.5 20.4,26.4 20.7,26.5 C21,26.6 21.2,26.8 21,27.2 C21.1,27.1 21,27.1 21,27.2 Z M30,22.6 C29.6,22.5 29.3,22.4 29.5,21.9 C30,21 30,20 29.5,19.1 C28.6,17.8 26.1,17.9 23.3,19.1 C23.3,19.1 22.4,19.5 22.6,18.8 C23,17.4 23,16.2 22.3,15.5 C20.8,14 16.6,15.6 13.1,19.1 C10.5,21.7 9,24.5 9,26.9 C9,31.5 14.9,34.3 20.7,34.3 C28.3,34.3 33.4,29.9 33.4,26.4 C33.4,24.3 31.6,23.1 30,22.6 L30,22.6 Z M20.8,32.7 C16.2,33.2 12.2,31.1 11.9,28 C11.6,24.9 15.1,22.1 19.7,21.7 C24.3,21.3 28.3,23.3 28.6,26.4 C28.9,29.4 25.4,32.2 20.8,32.7 Z M35.1,14.1 C33.3,12.1 30.6,11.3 28,11.8 C27.4,11.9 27.1,12.5 27.2,13.1 C27.3,13.7 27.9,14 28.5,13.9 L28.5,13.9 C31.3,13.3 34.1,15.1 34.8,18 C35,18.9 34.9,19.8 34.7,20.7 C34.5,21.3 34.9,21.9 35.4,22 C35.9,22.1 36.5,21.9 36.7,21.3 L36.7,21.3 C37.5,18.8 36.9,16.1 35.1,14.1 M32.3,16.7 C31.4,15.7 30.1,15.3 28.9,15.6 C28.4,15.7 28.1,16.2 28.2,16.7 C28.3,17.2 28.8,17.5 29.3,17.4 C29.3,17.4 29.3,17.4 29.3,17.4 L29.3,17.4 C30.3,17.2 31.2,17.8 31.4,18.8 C31.5,19.1 31.4,19.4 31.4,19.7 L31.4,19.7 C31.2,20.2 31.5,20.7 32,20.9 C32.5,21.1 33,20.8 33.2,20.3 C33.2,20.3 33.2,20.3 33.2,20.3 C33.4,19 33.1,17.6 32.3,16.7" fill="currentColor" fill-rule="nonzero"/>
    </g>
</svg>
