<svg width="24" height="24" viewBox="0 0 24 24" version="1.1" xmlns="http://www.w3.org/2000/svg">
    <title>
        system-share-android-small
    </title>
    <path d="M11.5,22.5 C17.5751322,22.5 22.5,17.5751322 22.5,11.5 C22.5,5.42486775 17.5751322,0.5 11.5,0.5 C5.42486775,0.5 0.5,5.42486775 0.5,11.5 C0.5,17.5751322 5.42486775,22.5 11.5,22.5 Z M8.24969594,10.5304505 L12.6999616,8.37274591 C12.571854,8.10901331 12.5,7.81289786 12.5,7.5 C12.5,6.3954305 13.3954305,5.5 14.5,5.5 C15.6045695,5.5 16.5,6.3954305 16.5,7.5 C16.5,8.6045695 15.6045695,9.5 14.5,9.5 C13.7083284,9.5 13.0240901,9.04002316 12.6999616,8.37274591 L8.24969594,10.5304505 C8.40917529,10.8176404 8.5,11.1482136 8.5,11.5 C8.5,11.8517864 8.40917529,12.1823596 8.24969594,12.4695495 L12.6999616,14.6272541 C13.0240901,13.9599768 13.7083284,13.5 14.5,13.5 C15.6045695,13.5 16.5,14.3954305 16.5,15.5 C16.5,16.6045695 15.6045695,17.5 14.5,17.5 C13.3954305,17.5 12.5,16.6045695 12.5,15.5 C12.5,15.1871021 12.571854,14.8909867 12.6999616,14.6272541 L8.24969594,12.4695495 C7.90842823,13.0841033 7.25278305,13.5 6.5,13.5 C5.3954305,13.5 4.5,12.6045695 4.5,11.5 C4.5,10.3954305 5.3954305,9.5 6.5,9.5 C7.25278305,9.5 7.90842823,9.91589668 8.24969594,10.5304505 Z" stroke="currentColor" stroke-width="1" fill="none" fill-rule="evenodd"/>
</svg>
