<svg width="48" height="48" viewBox="0 0 48 48" version="1.1" xmlns="http://www.w3.org/2000/svg">
    <title>
        system-share-android-large
    </title>
    <path d="M23.5,45.5 C35.6502645,45.5 45.5,35.6502645 45.5,23.5 C45.5,11.3497355 35.6502645,1.5 23.5,1.5 C11.3497355,1.5 1.5,11.3497355 1.5,23.5 C1.5,35.6502645 11.3497355,45.5 23.5,45.5 Z M18.4602128,22.2698936 L26.5397872,18.2301064 C26.9912758,19.1313271 27.9233885,19.75 29,19.75 C30.5187831,19.75 31.75,18.5187831 31.75,17 C31.75,15.4812169 30.5187831,14.25 29,14.25 C27.4812169,14.25 26.25,15.4812169 26.25,17 C26.25,17.4421716 26.3543577,17.8599691 26.5397872,18.2301064 L18.4602128,22.2698936 C18.6456423,22.6400309 18.75,23.0578284 18.75,23.5 C18.75,23.9421716 18.6456423,24.3599691 18.4602128,24.7301064 L26.5397872,28.7698936 C26.9912758,27.8686729 27.9233885,27.25 29,27.25 C30.5187831,27.25 31.75,28.4812169 31.75,30 C31.75,31.5187831 30.5187831,32.75 29,32.75 C27.4812169,32.75 26.25,31.5187831 26.25,30 C26.25,29.5578284 26.3543577,29.1400309 26.5397872,28.7698936 L18.4602128,24.7301064 C18.0087242,25.6313271 17.0766115,26.25 16,26.25 C14.4812169,26.25 13.25,25.0187831 13.25,23.5 C13.25,21.9812169 14.4812169,20.75 16,20.75 C17.0766115,20.75 18.0087242,21.3686729 18.4602128,22.2698936 Z" stroke="currentColor" stroke-width="1" fill="none" fill-rule="evenodd"/>
</svg>
