<svg width="24" height="24" viewBox="0 0 24 24" version="1.1" xmlns="http://www.w3.org/2000/svg">
    <title>
        system-weibo-small
    </title>
    <g stroke="none" stroke-width="1" fill="none" fill-rule="evenodd">
        <circle stroke="currentColor" cx="11.5" cy="11.5" r="11"/>
        <path d="M10.9,11.6 C9.8,11.3 8.6,11.8 8,12.9 C7.6,13.8 7.9,14.8 8.8,15.2 C8.9,15.3 9,15.3 9.2,15.3 C10.4,15.7 11.7,15.1 12.2,14 C12.6,13.1 12.2,12.1 11.3,11.7 C11.2,11.7 11.1,11.7 10.9,11.6 L10.9,11.6 Z M10.1,14.2 C9.9,14.6 9.4,14.7 9,14.6 C8.7,14.5 8.5,14.1 8.7,13.8 C8.7,13.8 8.7,13.7 8.8,13.7 C9,13.3 9.5,13.2 9.9,13.3 C10.2,13.4 10.4,13.8 10.2,14.1 C10.1,14.1 10.1,14.2 10.1,14.2 Z M15.4,10.9 C15.2,10.8 15.1,10.8 15.2,10.5 C15.4,10.1 15.4,9.5 15.2,9.1 C14.7,8.4 13.5,8.5 12,9.1 C12,9.1 11.5,9.3 11.7,8.9 C12,8.4 11.9,7.7 11.5,7.2 C10.7,6.4 8.6,7.2 6.8,9 C5.6,10 4.8,11.5 4.7,13 C4.7,15.4 7.7,16.8 10.7,16.8 C14.6,16.8 17.2,14.5 17.2,12.7 C17.1,11.9 16.4,11.1 15.4,10.9 L15.4,10.9 Z M10.7,16.1 C8.3,16.3 6.3,15.3 6.1,13.7 C5.9,12.1 7.7,10.7 10.1,10.5 C12.5,10.3 14.5,11.3 14.7,12.9 C14.9,14.5 13.1,15.8 10.7,16.1 Z M18,6.6 C17.1,5.6 15.7,5.2 14.4,5.4 L14.4,5.4 C14.1,5.5 14,5.8 14,6.1 C14.1,6.4 14.3,6.5 14.6,6.5 C16.1,6.2 17.5,7.1 17.8,8.6 C17.9,9.1 17.9,9.5 17.7,10 C17.6,10.3 17.8,10.6 18.1,10.7 C18.4,10.8 18.7,10.6 18.8,10.4 L18.8,10.4 C19.2,9 18.9,7.6 18,6.6 M16.6,7.9 C16.2,7.4 15.5,7.2 14.8,7.3 C14.5,7.4 14.4,7.6 14.4,7.9 C14.5,8.2 14.7,8.3 15,8.3 L15,8.3 C15.5,8.2 16,8.5 16.1,9 C16.1,9.2 16.1,9.3 16.1,9.5 C16,9.6 16.1,9.9 16.4,10 C16.6,10.1 16.9,9.9 17,9.7 L17,9.7 C17.2,9.1 17,8.4 16.6,7.9" fill="currentColor" fill-rule="nonzero"/>
    </g>
</svg>
