<svg width="48" height="48" viewBox="0 0 48 48" version="1.1" xmlns="http://www.w3.org/2000/svg">
    <title>
        system-linkedin-large
    </title>
    <g stroke="none" stroke-width="1" fill="none" fill-rule="evenodd">
        <path d="M33.3,12 L13.7,12 C12.8,12 12,12.7 12,13.7 L12,33.4 C12,34.3 12.8,35.1 13.7,35.1 L33.3,35.1 C34.2,35.1 35,34.4 35,33.4 L35,13.7 C35,12.7 34.2,12 33.3,12 Z M18.8,31.6 L15.4,31.6 L15.4,20.6 L18.8,20.6 L18.8,31.6 L18.8,31.6 Z M17.1,19.1 C16,19.1 15.1,18.2 15.1,17.1 C15.1,16 16,15.1 17.1,15.1 C18.2,15.1 19.1,16 19.1,17.1 C19.1,18.2 18.2,19.1 17.1,19.1 Z M31.6,31.6 L28.2,31.6 L28.2,26.3 C28.2,25 28.2,23.4 26.4,23.4 C24.6,23.4 24.4,24.8 24.4,26.2 L24.4,31.6 L21,31.6 L21,20.6 L24.3,20.6 L24.3,22.1 L24.3,22.1 C24.8,21.2 25.9,20.3 27.5,20.3 C31,20.3 31.6,22.6 31.6,25.5 L31.6,31.6 L31.6,31.6 Z" fill="currentColor" fill-rule="nonzero"/>
        <circle stroke="currentColor" cx="23.5" cy="23.5" r="22"/>
    </g>
</svg>
