<svg xmlns="http://www.w3.org/2000/svg" width="24" height="24" viewBox="0 0 24 24"><path d="M14.352 5c-.28 0-.401.176-.502.357l-4.172 7.398 2.664 4.888c.093.166.237.357.524.357h1.873c.112 0 .2-.043.248-.12.05-.08.049-.186-.003-.29l-2.644-4.829a.01.01 0 0 1 0-.012l4.152-7.34c.052-.104.053-.21.003-.29-.047-.076-.136-.119-.249-.119h-1.894zM6.476 7.567c-.113 0-.208.04-.256.118-.05.08-.042.183.01.287l1.268 2.195c.002.004.002.007 0 .01l-1.992 3.516c-.052.103-.05.207 0 .287a.276.276 0 0 0 .245.128h1.875c.28 0 .415-.189.511-.362l2.024-3.58L8.872 7.92c-.093-.166-.234-.352-.522-.352H6.476z"/><circle fill="none" stroke="currentColor" stroke-miterlimit="10" cx="11.5" cy="11.5" r="11"/></svg>