<?xml version="1.0" encoding="UTF-8"?>
<svg width="48px" height="48px" viewBox="0 0 48 48" version="1.1" xmlns="http://www.w3.org/2000/svg" xmlns:xlink="http://www.w3.org/1999/xlink">
    <!-- Generator: sketchtool 48.1 (47250) - http://www.bohemiancoding.com/sketch -->
    <title>system-instagram-large</title>
    <desc>Created with sketchtool.</desc>
    <defs></defs>
    <g id="icons-published" stroke="none" stroke-width="1" fill="none" fill-rule="evenodd">
        <g id="briefing" transform="translate(-1440.000000, -1818.000000)"></g>
        <g id="system-instagram-large">
            <path d="M23.5,14.1 C26.6,14.1 26.9,14.1 28.1,14.2 C29.2,14.3 29.8,14.4 30.2,14.6 C30.7,14.8 31.1,15.1 31.5,15.5 C31.9,15.9 32.2,16.3 32.4,16.8 C32.6,17.2 32.7,17.8 32.8,18.9 C32.9,20.1 32.9,20.5 32.9,23.5 C32.9,26.5 32.9,26.9 32.8,28.1 C32.7,29.2 32.6,29.8 32.4,30.2 C32.2,30.7 31.9,31.1 31.5,31.5 C31.1,31.9 30.7,32.2 30.2,32.4 C29.8,32.6 29.2,32.7 28.1,32.8 C26.9,32.9 26.5,32.9 23.5,32.9 C20.5,32.9 20.1,32.9 18.9,32.8 C17.8,32.7 17.2,32.6 16.8,32.4 C16.3,32.2 15.8,31.9 15.5,31.5 C15.1,31.1 14.8,30.7 14.6,30.2 C14.4,29.8 14.3,29.2 14.2,28.1 C14.1,26.9 14.1,26.5 14.1,23.5 C14.1,20.5 14.1,20.1 14.2,18.9 C14.3,17.8 14.4,17.2 14.6,16.8 C14.8,16.3 15.1,15.9 15.5,15.5 C15.9,15.1 16.3,14.8 16.8,14.6 C17.2,14.4 17.8,14.3 18.9,14.2 C20.1,14.1 20.4,14.1 23.5,14.1 Z M23.5,12 C20.4,12 20,12 18.8,12.1 C17.6,12.2 16.7,12.3 16,12.6 C15.2,12.9 14.5,13.3 14,13.9 C13.4,14.5 13,15.2 12.7,15.9 C12.4,16.6 12.2,17.5 12.2,18.7 C12,20 12,20.4 12,23.5 C12,26.6 12,27 12.1,28.2 C12.2,29.4 12.3,30.3 12.6,31 C12.9,31.8 13.3,32.5 13.9,33 C14.5,33.6 15.2,34 15.9,34.3 C16.6,34.6 17.5,34.8 18.7,34.8 C20,35 20.4,35 23.5,35 C26.6,35 27,35 28.2,34.9 C29.4,34.8 30.3,34.7 31,34.4 C31.8,34.1 32.5,33.7 33,33.1 C33.6,32.5 34,31.8 34.3,31.1 C34.6,30.4 34.8,29.5 34.8,28.3 C35,27 35,26.6 35,23.5 C35,20.4 35,20 34.9,18.8 C34.8,17.6 34.7,16.7 34.4,16 C34.1,15.2 33.7,14.5 33.1,14 C32.5,13.4 31.8,13 31.1,12.7 C30.4,12.4 29.5,12.2 28.3,12.2 C27,12 26.6,12 23.5,12 Z" id="Shape" fill="#000000" fill-rule="nonzero"></path>
            <path d="M23.5,17.6 C20.2,17.6 17.6,20.2 17.6,23.5 C17.6,26.8 20.2,29.4 23.5,29.4 C23.5,29.4 23.5,29.4 23.5,29.4 C26.8,29.4 29.4,26.8 29.4,23.5 C29.4,20.2 26.8,17.6 23.5,17.6 Z M23.5,27.3 C21.4,27.3 19.7,25.6 19.7,23.5 C19.7,21.4 21.4,19.7 23.5,19.7 C25.6,19.7 27.3,21.4 27.3,23.5 C27.3,25.6 25.6,27.3 23.5,27.3 Z" id="Shape" fill="#000000" fill-rule="nonzero"></path>
            <circle id="Oval" fill="#000000" fill-rule="nonzero" cx="29.6" cy="17.4" r="1.4"></circle>
            <circle id="Oval" stroke="#000000" cx="23.5" cy="23.5" r="22"></circle>
        </g>
    </g>
</svg>