<svg width="24" height="24" viewBox="0 0 24 24" version="1.1" xmlns="http://www.w3.org/2000/svg">
    <title>
        system-whatsapp-small
    </title>
    <g stroke="none" stroke-width="1" fill="none" fill-rule="evenodd">
        <circle stroke="currentColor" cx="12" cy="12" r="11"/>
        <path d="M16.8543225,6.86501603 C14.5533916,4.59651933 10.9268696,4.37038024 8.36061484,6.33537376 C5.79436013,8.30036728 5.07613555,11.8532997 6.67845506,14.6567265 L5.75,18 L9.18218887,17.1016689 C10.1311788,17.6191057 11.1955231,17.8898293 12.2770391,17.8888663 L12.2770391,17.8888663 C14.895186,17.8881988 17.2552365,16.3147399 18.2570674,13.9019476 C19.2588983,11.4891553 18.7052975,8.71199231 16.8543225,6.86501603 Z M12.2770391,16.7991394 L12.2770391,16.7991394 C11.3130022,16.7996073 10.3667225,16.5404364 9.53809665,16.0489853 L9.34312108,15.9347645 L7.2974251,16.4657369 L7.84211874,14.4869388 L7.71213503,14.2831936 C6.67343484,12.6274658 6.61762377,10.5398218 7.5663822,8.83122883 C8.51514063,7.12263586 10.318926,6.06238342 12.2770391,6.06238342 C15.2486967,6.06579051 17.6558887,8.46967941 17.6558887,11.4338478 C17.6524778,14.3956054 15.2462817,16.7957358 12.2770391,16.7991394 L12.2770391,16.7991394 Z M15.2264313,12.7859751 C15.0654991,12.7057118 14.2701226,12.3136566 14.1215698,12.2611768 C13.973017,12.208697 13.8646972,12.1809136 13.7594723,12.3414401 C13.6542474,12.5019666 13.3416675,12.8662383 13.2457272,12.9588498 C13.1497868,13.0514612 13.0569413,13.0792447 12.8960091,12.9989814 C12.4191277,12.8104608 11.9791605,12.5398316 11.596172,12.1994359 C11.2456903,11.8752777 10.9443927,11.501945 10.7017603,11.0911854 C10.6089148,10.9275719 10.7017603,10.8411345 10.7729419,10.7608712 C10.8441234,10.680608 10.9338741,10.5725613 11.0143402,10.4799498 C11.0804944,10.3968051 11.1356246,10.3054989 11.1783673,10.2082896 C11.2187739,10.1176109 11.2130162,10.0130852 11.162893,9.92736815 C11.1226599,9.84710489 10.8007955,9.05373342 10.6646221,8.72959333 C10.5284487,8.40545324 10.4015598,8.45793306 10.3025247,8.45175896 L9.99303963,8.45175896 C9.82734841,8.45650643 9.67126849,8.53042949 9.56285545,8.65550416 C9.19195499,9.00422329 8.98622092,9.49315191 8.99649786,10.0014573 C9.04831833,10.609953 9.27866897,11.1897464 9.6587958,11.6684635 C9.73926191,11.7765102 10.7977007,13.4064718 12.4194022,14.1041448 C12.7225298,14.233934 13.0324666,14.347291 13.3478572,14.4437201 C13.6776448,14.543699 14.0262082,14.5658916 14.366063,14.5085481 C14.675548,14.4622424 15.3223717,14.11958 15.4585451,13.7398731 C15.5631682,13.4990305 15.5954228,13.2330648 15.5513906,12.974285 C15.4956833,12.9001959 15.3873635,12.8600642 15.2264313,12.779801 L15.2264313,12.7859751 Z" fill="currentColor" fill-rule="nonzero"/>
    </g>
</svg>
