<svg id="system-youku-small" xmlns="http://www.w3.org/2000/svg" width="24" height="24" viewBox="0 0 24 24">
  <title>system-youku</title>
  <g id="circle">
    <path d="M11.5,23A11.5,11.5,0,1,1,23,11.5,11.5134,11.5134,0,0,1,11.5,23Zm0-22A10.5,10.5,0,1,0,22,11.5,10.5115,10.5115,0,0,0,11.5,1Z"/>
  </g>
  <path id="youku-icon" d="M13.3531,10.2462l-1.876-1.3585c-.4872-.3529-1.0187-.8563-1.6575-.4923a.9859.9859,0,0,0-.2778,1.4592,2.8122,2.8122,0,0,0,.5682.4561c.5582.4042,1.173.735,1.7313,1.1393-.5.3591-1.0571.7917-1.5573,1.1509-.1817.13-.3726.2536-.5475.3931a.9892.9892,0,0,0-.1882,1.4126c.5871.7194,1.2986.1965,1.8529-.2015L13.23,12.8917c.49-.352,1.255-.9517,1.255-1.4418C14.4853,10.9677,13.7789,10.5544,13.3531,10.2462Zm4.4283-.0391A6.4555,6.4555,0,0,0,5.39,9.2269,6.4554,6.4554,0,0,0,14.76,16.9944,6.5169,6.5169,0,0,0,17.7815,10.2071ZM15.8682,12.338a4.5066,4.5066,0,1,1-2.09-4.7391A4.5545,4.5545,0,0,1,15.8682,12.338Z"/>
</svg>
