<?xml version="1.0" encoding="UTF-8"?>
<svg width="48px" height="48px" viewBox="0 0 48 48" version="1.1" xmlns="http://www.w3.org/2000/svg" xmlns:xlink="http://www.w3.org/1999/xlink">
    <!-- Generator: sketchtool 48.1 (47250) - http://www.bohemiancoding.com/sketch -->
    <title>system-vimeo-large</title>
    <desc>Created with sketchtool.</desc>
    <defs/>
    <g id="icons-published" stroke="none" stroke-width="1" fill="none" fill-rule="evenodd">
        <g id="briefing" transform="translate(-3168.000000, -1946.000000)"/>
        <g id="system-vimeo-large">
            <path d="M36.3,18.3 C36.2,20.9 34.4,24.4 30.9,28.9 C27.3,33.6 24.2,35.9 21.7,35.9 C20.2,35.9 18.8,34.5 17.8,31.6 L15.7,23.7 C14.8,21 14,19.5 13,19.5 C12.2,19.8 11.5,20.2 10.9,20.8 L9.7,19.2 C11,18 12.3,16.9 13.6,15.7 C15.4,14.2 16.7,13.4 17.5,13.3 C19.6,13.1 20.8,14.5 21.3,17.5 C21.8,20.8 22.2,22.8 22.4,23.6 C23,26.3 23.7,27.7 24.4,27.7 C25,27.7 25.8,26.8 26.9,25.1 C27.8,23.9 28.4,22.5 28.7,21.1 C28.9,19.6 28.3,18.8 26.9,18.8 C26.2,18.8 25.6,19 24.9,19.2 C26.2,14.9 28.7,12.8 32.4,13 C35.1,13.1 36.4,14.9 36.3,18.3 Z" id="Shape" fill="currentColor" fill-rule="nonzero"/>
            <circle id="Oval" stroke="currentColor" cx="23.5" cy="23.5" r="22"/>
        </g>
    </g>
</svg>