<svg xmlns="http://www.w3.org/2000/svg" width="24" height="24" viewBox="0 0 24 24"><path d="M16.994 9.523q-.08 1.752-2.447 4.797-2.447 3.18-4.141 3.18-1.05 0-1.775-1.937l-.969-3.551q-.538-1.936-1.156-1.937a3.713 3.713 0 0 0-.942.565L5 9.913q.888-.78 1.751-1.562A3.972 3.972 0 0 1 8.53 7.274q1.4-.135 1.724 1.915.35 2.211.485 2.75.404 1.835.889 1.834a2.267 2.267 0 0 0 1.132-1.19 4.688 4.688 0 0 0 .807-1.812.772.772 0 0 0-.807-1.028 2.25 2.25 0 0 0-.889.197q.885-2.897 3.38-2.816 1.849.054 1.743 2.399z" fill="currentColor"/><circle cx="11.5" cy="11.5" r="11" fill="none" stroke="currentColor" stroke-miterlimit="10"/></svg>