<svg xmlns="http://www.w3.org/2000/svg" width="24" height="24" viewBox="0 0 24 24"><path d="M16.112 9.565h1.279c.002.427.004.857.008 1.285.428.004.858.004 1.285.008v1.278c-.427.005-.855.007-1.285.011-.004.43-.006.857-.008 1.285h-1.28c-.005-.428-.005-.855-.01-1.283l-1.284-.013v-1.278c.427-.004.855-.006 1.285-.009.002-.43.006-.857.01-1.284zM4.528 11.275c.038-2.318 2.17-4.349 4.488-4.271 1.11-.052 2.155.432 3.006 1.11-.363.413-.74.81-1.141 1.182-1.023-.707-2.477-.909-3.5-.092-1.463 1.012-1.53 3.4-.122 4.49 1.368 1.242 3.955.625 4.333-1.276-.857-.013-1.717 0-2.574-.028-.002-.511-.004-1.023-.002-1.534 1.433-.004 2.866-.006 4.301.004.086 1.203-.073 2.484-.812 3.479-1.12 1.574-3.367 2.034-5.12 1.36-1.76-.67-3.005-2.53-2.857-4.424z"/><circle fill="none" stroke="currentColor" stroke-miterlimit="10" cx="11.5" cy="11.5" r="11"/></svg>