<svg width="24" height="24" viewBox="0 0 24 24" version="1.1" xmlns="http://www.w3.org/2000/svg">
    <title>
        system-paragraph-small
    </title>
    <g stroke="none" stroke-width="1" fill="none" fill-rule="evenodd">
        <circle stroke="currentColor" cx="11.5" cy="11.5" r="11"/>
        <path d="M11.2778647,17.8 C10.735085,17.8 10.2024588,17.7378603 9.67996992,17.6135789 C9.1574811,17.4892976 8.70855326,17.323169 8.33317293,17.115188 L8.33317293,16.2287368 C8.75674397,16.451936 9.22279194,16.629478 9.73133083,16.7613684 C10.2398697,16.8932588 10.7655211,16.959203 11.3083008,16.959203 C11.9094165,16.959203 12.3970232,16.9072085 12.7711353,16.803218 C13.1452475,16.6992276 13.4159992,16.5527553 13.5833985,16.363797 C13.7507978,16.1748387 13.8344962,15.9472043 13.8344962,15.6808872 C13.8344962,15.4094974 13.7698202,15.1850335 13.6404662,15.0074887 C13.5111121,14.829944 13.2625532,14.6555723 12.894782,14.4843684 C12.5270107,14.3131646 11.9677531,14.1146979 11.2169925,13.8889624 C10.2709326,13.6074272 9.55822796,13.3379436 9.07885714,13.0805038 C8.59948632,12.8230639 8.27483794,12.5491418 8.10490226,12.2587293 C7.93496657,11.9683168 7.85,11.6037215 7.85,11.1649323 C7.85,10.7134614 7.9939359,10.2848241 8.28181203,9.87900752 C8.56968816,9.47319095 8.87721641,9.16883309 9.20440602,8.96592481 C8.91526171,8.77316194 8.69270003,8.5493321 8.53671429,8.29442857 C8.38072854,8.03952504 8.30273684,7.71297442 8.30273684,7.31476692 C8.30273684,6.88865952 8.42511406,6.51328483 8.66987218,6.18863158 C8.9146303,5.86397833 9.28746867,5.6097127 9.7883985,5.42582707 C10.2893283,5.24194144 10.9100915,5.15 11.6507068,5.15 C12.1427594,5.15 12.6468521,5.2070671 13.163,5.32120301 C13.6791479,5.43533892 14.1312462,5.5799089 14.5193083,5.75491729 L14.5193083,6.64517293 C14.07291,6.45241006 13.6017894,6.2951585 13.1059323,6.17341353 C12.6100752,6.05166856 12.1199322,5.99079699 11.6354887,5.99079699 C11.0952454,5.99079699 10.6513902,6.04342554 10.3039098,6.14868421 C9.95642934,6.25394288 9.70216371,6.40104918 9.54110526,6.59000752 C9.38004681,6.77896586 9.2995188,7.00533201 9.2995188,7.26911278 C9.2995188,7.54050261 9.36419484,7.76496653 9.49354887,7.94251128 C9.6229029,8.12005603 9.8720959,8.29506179 10.2411353,8.46753383 C10.6101748,8.64000587 11.1687983,8.83783848 11.9170226,9.06103759 C12.8630824,9.34257284 13.5757871,9.61205636 14.0551579,9.86949624 C14.5345287,10.1269361 14.8591771,10.4008582 15.0291128,10.6912707 C15.1990485,10.9816832 15.284015,11.3462785 15.284015,11.7850677 C15.284015,12.2365386 15.1400791,12.6651759 14.852203,13.0709925 C14.5643269,13.476809 14.2567986,13.7811669 13.929609,13.9840752 C14.2288987,14.1819108 14.4539967,14.4101792 14.6049098,14.6688872 C14.7558228,14.9275953 14.8312782,15.2497073 14.8312782,15.6352331 C14.8312782,16.0638768 14.7057306,16.4405197 14.4546316,16.7651729 C14.2035326,17.0898262 13.81294,17.3434577 13.2828421,17.5260752 C12.7527442,17.7086926 12.0844251,17.8 11.2778647,17.8 Z M14.2872331,11.8193083 C14.2872331,11.5200186 14.2200207,11.2758982 14.085594,11.0869398 C13.9511672,10.8979815 13.7019743,10.7191713 13.3380075,10.5505038 C12.9740408,10.3818362 12.4179536,10.1859059 11.6697293,9.96270677 C11.251231,9.83588909 10.8999513,9.72302305 10.6158797,9.62410526 C10.3318081,9.52518748 10.106076,9.43514828 9.93867669,9.35398496 C9.59373261,9.61776573 9.32551725,9.91261241 9.13402256,10.2385338 C8.94252786,10.5644553 8.84678195,10.8618383 8.84678195,11.1306917 C8.84678195,11.4299814 8.91399432,11.6741018 9.04842105,11.8630602 C9.18284779,12.0520185 9.43204079,12.2308287 9.79600752,12.3994962 C10.1599743,12.5681638 10.7160614,12.7640941 11.4642857,12.9872932 C11.8548842,13.1039655 12.1928482,13.212393 12.478188,13.3125789 C12.7635277,13.4127649 13.0025755,13.5072427 13.1953383,13.596015 C13.5402824,13.3322343 13.8084978,13.0373876 13.9999925,12.7114662 C14.1914872,12.3855447 14.2872331,12.0881617 14.2872331,11.8193083 Z" fill="currentColor" fill-rule="nonzero"/>
    </g>
</svg>
