<?xml version="1.0" encoding="UTF-8"?>
<svg width="24px" height="24px" viewBox="0 0 24 24" version="1.1" xmlns="http://www.w3.org/2000/svg" xmlns:xlink="http://www.w3.org/1999/xlink">
    <!-- Generator: sketchtool 48.1 (47250) - http://www.bohemiancoding.com/sketch -->
    <title>system-vimeo-small</title>
    <desc>Created with sketchtool.</desc>
    <defs/>
    <g id="icons-published" stroke="none" stroke-width="1" fill="none" fill-rule="evenodd">
        <g id="briefing" transform="translate(-3236.000000, -1946.000000)"/>
        <g id="system-vimeo-small">
            <path d="M17,9.5 C16.9,10.7 16.1,12.3 14.6,14.3 C13,16.4 11.6,17.5 10.5,17.5 C9.8,17.5 9.2,16.9 8.7,15.6 L7.7,12 C7.3,10.7 7,10.1 6.5,10.1 C6.2,10.2 5.8,10.4 5.6,10.7 L5,9.9 C5.6,9.4 6.2,8.9 6.8,8.3 C7.3,7.8 7.9,7.4 8.6,7.2 C9.5,7.1 10.1,7.7 10.3,9.1 C10.5,10.6 10.7,11.5 10.8,11.9 C11.1,13.1 11.4,13.7 11.7,13.7 C12.2,13.5 12.6,13 12.8,12.5 C13.2,12 13.5,11.3 13.6,10.7 C13.7,10.3 13.5,9.9 13.1,9.7 C13,9.7 12.9,9.6 12.8,9.7 C12.5,9.7 12.2,9.8 11.9,9.9 C12.5,8 13.6,7 15.3,7.1 C16.5,7.2 17.1,8 17,9.5 Z" id="Shape" fill="currentColor" fill-rule="nonzero"/>
            <circle id="Oval" stroke="currentColor" cx="11.5" cy="11.5" r="11"/>
        </g>
    </g>
</svg>