<svg width="48" height="48" viewBox="0 0 48 48" version="1.1" xmlns="http://www.w3.org/2000/svg">
    <title>
        system-youku-large
    </title>
    <g stroke="none" stroke-width="1" fill="none" fill-rule="evenodd">
        <circle stroke="currentColor" cx="23.5" cy="23.5" r="22"/>
        <path d="M27.5,21 L23.6,18.2 C22.6,17.5 21.5,16.4 20.1,17.2 C19.1,17.8 18.8,19 19.4,20 C19.4,20.1 19.5,20.2 19.6,20.2 C20,20.6 20.4,20.9 20.8,21.2 C22,22 23.3,22.7 24.4,23.6 C23.4,24.4 22.2,25.3 21.1,26 C20.7,26.3 20.3,26.5 20,26.8 C19.1,27.5 18.9,28.8 19.6,29.7 C19.6,29.7 19.6,29.7 19.6,29.8 C20.8,31.3 22.3,30.2 23.5,29.4 L27.3,26.7 C28.3,26 29.9,24.7 29.9,23.7 C29.9,22.5 28.4,21.6 27.5,21 Z M36.8,20.9 C35.4,13.6 28.2,8.8 20.9,10.3 C16.3,11.2 12.5,14.5 10.8,18.9 C8.2,25.9 11.8,33.7 18.8,36.2 C22.6,37.6 26.9,37.2 30.4,35.1 C35.3,32.2 37.8,26.5 36.8,20.9 L36.8,20.9 Z M32.7,25.4 C31.7,30.5 26.7,33.8 21.6,32.8 C16.5,31.8 13.2,26.8 14.2,21.7 C15.2,16.6 20.2,13.3 25.3,14.3 C26.4,14.5 27.4,14.9 28.3,15.5 C31.8,17.5 33.5,21.5 32.7,25.4 L32.7,25.4 Z" fill="currentColor" fill-rule="nonzero"/>
    </g>
</svg>
