<svg xmlns="http://www.w3.org/2000/svg" width="24" height="24" viewBox="0 0 24 24"><path d="M16.764 8.202A3.989 3.989 0 0 0 18.61 8.1a7.28 7.28 0 0 0-1.883 1.365 7.075 7.075 0 0 1-5.72 7.445 9.134 9.134 0 0 1-5.533-1.476s2.46.664 3.817-.838c0 0-2.31.21-2.865-1.577a7.032 7.032 0 0 0 1.615-.228 2.626 2.626 0 0 1-2.136-2.573 2.533 2.533 0 0 0 1.206.322s-1.787-1.613-.679-3.507c0 0 2.394 2.925 5.362 2.756a2.55 2.55 0 0 1 4.288-2.422 4 4 0 0 0 1.733-.835 2.22 2.22 0 0 1-1.05 1.671z" fill-rule="evenodd"/><circle cx="11.5" cy="11.5" r="11" fill="none" stroke="currentColor" stroke-miterlimit="10"/></svg>