<?xml version="1.0" encoding="UTF-8" standalone="no"?>
<svg width="48px" height="48px" viewBox="0 0 48 48" version="1.1" xmlns="http://www.w3.org/2000/svg" xmlns:xlink="http://www.w3.org/1999/xlink">
    <!-- Generator: sketchtool 46.2 (44496) - http://www.bohemiancoding.com/sketch -->
    <title>system-wechat-large</title>
    <desc>Created with sketchtool.</desc>
    <defs></defs>
    <g id="icons-published" stroke="none" stroke-width="1" fill="none" fill-rule="evenodd">
        <g id="briefing" transform="translate(-3456.000000, -1946.000000)"></g>
        <g id="system-wechat-large">
            <circle id="Oval" stroke="#000000" cx="23.5" cy="23.5" r="22"></circle>
            <path d="M19.1,25.4 C19.4,23.8 20.3,22.3 21.5,21.1 C23.4,19.4 26,18.4 28.6,18.5 C28.7,18.5 28.7,18.5 28.8,18.5 C27.4,14 22.1,11.8 17.7,12.3 C14.7,12.6 11.9,14.2 10.2,16.8 C8.6,19.4 8.8,22.6 10.6,25 C11.2,25.8 11.9,26.5 12.7,27.1 C13.1,27.4 13.1,27.4 13,27.8 L12.8,28.3 L12,30.4 L14.5,29.2 L15.1,28.9 C15.4,28.7 15.7,28.7 16.1,28.8 C17.2,29 18.3,29.2 19.4,29.2 C18.9,27.9 18.8,26.6 19.1,25.4 Z M22.6,16.4 C23.3,16.4 23.9,17 23.9,17.8 C23.9,18.5 23.3,19.1 22.6,19.1 C21.8,19.2 21.1,18.6 21,17.7 C21.1,16.9 21.8,16.3 22.6,16.4 Z M15.7,19.1 C14.9,19.2 14.2,18.6 14.1,17.7 C14.2,16.9 14.9,16.3 15.7,16.4 C16.4,16.4 17,17 17,17.8 C17,18.5 16.4,19 15.7,19.1 Z" id="Shape" fill="#000000" fill-rule="nonzero"></path>
            <path d="M36.7,24.9 C34.7,19.2 26.5,18.1 22.4,22 C21.4,23 20.6,24.2 20.3,25.6 C19.9,27.9 20.7,30.3 22.5,31.8 C24.9,33.8 28.2,34.5 31.2,33.6 C32.1,33.4 33.5,34.6 34.3,35 L33.9,33.8 C33.7,33.4 33.6,33.1 33.6,32.7 C33.6,32.4 34.1,32.1 34.4,31.9 C34.8,31.6 35.1,31.2 35.4,30.9 C35.9,30.3 36.4,29.6 36.7,28.8 C37.1,27.6 37.1,26.2 36.7,24.9 Z M26.3,25.7 C24.6,26.2 24.2,23.6 25.8,23.6 C27.2,23.6 27.8,25.3 26.3,25.7 Z M31.7,25.7 C30,26.2 29.6,23.6 31.2,23.6 C32.7,23.6 33.2,25.3 31.7,25.7 Z" id="Shape" fill="#000000" fill-rule="nonzero"></path>
        </g>
    </g>
</svg>