<svg width="48" height="48" viewBox="0 0 48 48" version="1.1" xmlns="http://www.w3.org/2000/svg">
    <title>
        system-share-android-large
    </title>
    <path d="M23.5,45.5 C35.6502645,45.5 45.5,35.6502645 45.5,23.5 C45.5,11.3497355 35.6502645,1.5 23.5,1.5 C11.3497355,1.5 1.5,11.3497355 1.5,23.5 C1.5,35.6502645 11.3497355,45.5 23.5,45.5 Z M26.5601719,28.7800859 L18.4497146,24.7248573 M18.436211,22.2818945 L26.549859,18.2250705 M29,32.75 C30.5187831,32.75 31.75,31.5187831 31.75,30 C31.75,28.4812169 30.5187831,27.25 29,27.25 C27.4812169,27.25 26.25,28.4812169 26.25,30 C26.25,31.5187831 27.4812169,32.75 29,32.75 Z M29,19.75 C30.5187831,19.75 31.75,18.5187831 31.75,17 C31.75,15.4812169 30.5187831,14.25 29,14.25 C27.4812169,14.25 26.25,15.4812169 26.25,17 C26.25,18.5187831 27.4812169,19.75 29,19.75 Z M16,26.25 C17.5187831,26.25 18.75,25.0187831 18.75,23.5 C18.75,21.9812169 17.5187831,20.75 16,20.75 C14.4812169,20.75 13.25,21.9812169 13.25,23.5 C13.25,25.0187831 14.4812169,26.25 16,26.25 Z" stroke="currentColor" stroke-width="1" fill="none" fill-rule="evenodd"/>
</svg>
