<svg xmlns="http://www.w3.org/2000/svg" width="48" height="48" viewBox="0 0 48 48"><path d="M33.297 12h-19.6c-.936 0-1.697.742-1.697 1.658V33.34c0 .916.761 1.66 1.698 1.66h19.6c.938 0 1.702-.744 1.702-1.66V13.658c0-.915-.764-1.658-1.703-1.658zM18.822 31.6H15.41V20.623h3.412v10.976zm-1.706-12.477a1.978 1.978 0 1 1 0-3.956 1.978 1.978 0 0 1 0 3.956zM31.6 31.6h-3.41V26.26c0-1.273-.023-2.91-1.772-2.91-1.775 0-2.047 1.386-2.047 2.818v5.43H20.96V20.623h3.272v1.5h.046c.455-.863 1.568-1.773 3.227-1.773 3.455 0 4.093 2.273 4.093 5.228v6.02z"/><circle fill="none" stroke="currentColor" stroke-miterlimit="10" cx="23.5" cy="23.5" r="22"/></svg>