<svg xmlns="http://www.w3.org/2000/svg" width="48" height="48" viewBox="0 0 48 48"><circle fill="none" stroke="currentColor" stroke-miterlimit="10" cx="23.5" cy="23.5" r="22"/><path d="M23.2 30a7 7 0 0 1-1.64-.19 5.43 5.43 0 0 1-1.38-.51v-.91c.458.239.94.423 1.44.55.53.135 1.074.203 1.62.2.506.013 1.01-.04 1.5-.16a1.69 1.69 0 0 0 .83-.45 1 1 0 0 0 .26-.7 1.15 1.15 0 0 0-.2-.69 2 2 0 0 0-.77-.54 13.78 13.78 0 0 0-1.72-.6 12.268 12.268 0 0 1-2.2-.83 2.49 2.49 0 0 1-1-.84 2.19 2.19 0 0 1-.26-1.15 2.24 2.24 0 0 1 .44-1.32 3.37 3.37 0 0 1 .95-.94 2.251 2.251 0 0 1-.69-.69 1.9 1.9 0 0 1-.24-1 1.87 1.87 0 0 1 .38-1.16 2.44 2.44 0 0 1 1.16-.79 5.6 5.6 0 0 1 1.9-.28 7.65 7.65 0 0 1 2.95.63v.91a9.13 9.13 0 0 0-1.45-.48c-.493-.124-1-.188-1.51-.19a4.8 4.8 0 0 0-1.37.16 1.62 1.62 0 0 0-.78.45 1 1 0 0 0-.25.7 1.15 1.15 0 0 0 .2.69 2 2 0 0 0 .77.54 13.5 13.5 0 0 0 1.72.61c.759.206 1.495.483 2.2.83a2.49 2.49 0 0 1 1 .84c.185.343.275.73.26 1.12a2.24 2.24 0 0 1-.44 1.32 3.37 3.37 0 0 1-.95.94c.281.177.517.417.69.7.166.307.245.652.23 1 .007.42-.13.83-.39 1.16a2.5 2.5 0 0 1-1.2.78 6.4 6.4 0 0 1-2.06.29zm3.09-6.14a1.27 1.27 0 0 0-.21-.75 1.91 1.91 0 0 0-.77-.55 13.789 13.789 0 0 0-1.71-.6l-1.08-.35a6.74 6.74 0 0 1-.7-.28 3.16 3.16 0 0 0-.83.91 1.85 1.85 0 0 0-.29.92c-.01.266.064.528.21.75.207.245.472.434.77.55.557.237 1.128.438 1.71.6l1 .33c.29.1.54.2.74.29a3.16 3.16 0 0 0 .83-.91c.191-.272.305-.59.33-.92v.01z" fill="currentColor"/></svg>