<svg width="24" height="24" viewBox="0 0 24 24" version="1.1" xmlns="http://www.w3.org/2000/svg">
    <title>
        system-replay-small
    </title>
    <path d="M7.5,13.5 C8.6,15.7 11.3,16.6 13.5,15.5 C15.7,14.4 16.6,11.7 15.5,9.5 C14.4,7.3 11.7,6.4 9.5,7.5 C8.3,8.1 7.4,9.2 7.1,10.5 M10,10.5 L6.5,10.5 L6.5,7 M11.5,22.5 C17.5751322,22.5 22.5,17.5751322 22.5,11.5 C22.5,5.42486775 17.5751322,0.5 11.5,0.5 C5.42486775,0.5 0.5,5.42486775 0.5,11.5 C0.5,17.5751322 5.42486775,22.5 11.5,22.5 Z" stroke="currentColor" stroke-width="1" fill="none" fill-rule="evenodd"/>
</svg>
