<svg width="48" height="48" viewBox="0 0 48 48" version="1.1" xmlns="http://www.w3.org/2000/svg">
    <title>
        system-xing-large
    </title>
    <g stroke="none" stroke-width="1" fill="none" fill-rule="evenodd">
        <circle stroke="currentColor" cx="23.5" cy="23.5" r="22"/>
        <path d="M29.5,10 C28.9,10 28.7,10.4 28.5,10.7 L19.8,26.1 L25.3,36.3 C25.5,36.6 25.8,37 26.4,37 L30.3,37 C30.5,37 30.7,36.9 30.8,36.8 C30.9,36.6 30.9,36.4 30.8,36.2 L25.3,26.2 C25.3,26.2 25.3,26.2 25.3,26.2 L33.9,11 C34,10.8 34,10.6 33.9,10.4 C33.8,10.2 33.6,10.2 33.4,10.2 C33.4,10 29.5,10 29.5,10 Z M13.1,15.3 C12.9,15.3 12.7,15.4 12.6,15.5 C12.5,15.7 12.5,15.9 12.6,16.1 L15.2,20.7 C15.2,20.7 15.2,20.7 15.2,20.7 L11.1,28 C11,28.2 11,28.4 11.1,28.6 C11.2,28.8 11.4,28.9 11.6,28.9 L15.5,28.9 C16.1,28.9 16.4,28.5 16.6,28.1 L20.8,20.7 L18.1,16 C17.9,15.7 17.6,15.3 17,15.3 C17,15.3 13.1,15.3 13.1,15.3 Z" fill="currentColor" fill-rule="nonzero"/>
    </g>
</svg>
