<?xml version="1.0" encoding="UTF-8"?>
<svg width="24px" height="24px" viewBox="0 0 24 24" version="1.1" xmlns="http://www.w3.org/2000/svg" xmlns:xlink="http://www.w3.org/1999/xlink">
    <!-- Generator: sketchtool 48.1 (47250) - http://www.bohemiancoding.com/sketch -->
    <title>system-settings-small</title>
    <desc>Created with sketchtool.</desc>
    <defs></defs>
    <g id="icons-published" stroke="none" stroke-width="1" fill="none" fill-rule="evenodd">
        <g id="briefing" transform="translate(-932.000000, -1946.000000)"></g>
        <g id="system-settings-small" stroke="#000000">
            <path d="M12.7,6.7 C13.6,6.9 14.4,7.4 15,8 L16.9,7 L18.2,9.1 L16.3,10.3 C16.5,11.1 16.5,12 16.3,12.8 L18.3,14 L17,16.1 L15,14.9 C14.4,15.5 13.6,16 12.7,16.2 L12.7,18.5 L10.2,18.5 L10.2,16.2 C9.4,16 8.6,15.6 8,14.9 L6.1,16 L4.8,14 L6.8,12.8 C6.6,11.9 6.6,11 6.8,10.2 L4.8,9.1 L6.2,7 L8,8 C8.6,7.4 9.4,7 10.2,6.8 L10.2,4.5 L12.7,4.5 L12.7,6.7 Z" id="Shape"></path>
            <circle id="Oval" cx="11.5" cy="11.5" r="2.1"></circle>
            <circle id="Oval" cx="11.5" cy="11.5" r="11"></circle>
        </g>
    </g>
</svg>