<svg width="48" height="48" viewBox="0 0 48 48" version="1.1" xmlns="http://www.w3.org/2000/svg">
    <title>
        system-yelp-large
    </title>
    <g stroke="none" stroke-width="1" fill="none" fill-rule="evenodd">
        <circle stroke="currentColor" cx="23.5" cy="23.5" r="22"/>
        <path d="M15.2938765,22.1418506 L20.7427427,24.798753 C21.7909025,25.3103175 21.629246,26.8517902 20.4976506,27.1339068 L14.6154408,28.6002875 C13.881729,28.7833244 13.1574037,28.2769746 13.0708393,27.5260542 C12.8857165,25.9188759 13.0682319,24.3320351 13.5620664,22.8630471 C13.8019437,22.1496727 14.6170052,21.8117585 15.2938765,22.1418506 M17.4757175,33.3587241 L21.5312091,28.8542446 C22.311332,27.9875573 23.7485102,28.5679562 23.7078354,29.7334473 L23.4961175,35.7934792 C23.4700439,36.5485714 22.7843076,37.1075899 22.0391234,36.9824365 C20.4720985,36.7196144 18.9895522,36.1136633 17.6952574,35.2250742 C17.0736622,34.7974667 16.9704106,33.9198285 17.4757175,33.3587241 M27.0916704,27.3643977 L32.856549,29.2375269 C33.5740951,29.4706251 33.9240032,30.2825578 33.5986043,30.9636009 C32.9222545,32.3804417 31.9418862,33.6460555 30.7164258,34.6577121 C30.1334195,35.1385098 29.2599531,34.9971907 28.8594622,34.356301 L25.6461487,29.2140607 C25.0282037,28.2248273 25.9824984,27.0035387 27.0916704,27.3643977 M32.9540643,23.6864521 L27.1266091,25.35725 C26.0054432,25.6789986 25.0944308,24.4248572 25.7467929,23.4580472 L29.1368856,18.4326167 C29.5582354,17.8084141 30.4332662,17.6936901 30.9974995,18.1911749 C32.1598617,19.2169113 33.111549,20.4997337 33.7545246,21.9838444 C34.0554142,22.6774028 33.680997,23.4783846 32.9540643,23.6864521 M19.3373743,9.54620376 C18.2886931,9.82727744 17.2879874,10.1985659 16.3420363,10.6496396 C15.6855024,10.9625231 15.4372815,11.7713269 15.8012693,12.4012657 L21.496792,22.265961 C22.1355958,23.3730472 23.827774,22.9193661 23.827774,21.6417585 L23.827774,10.2507131 C23.827774,9.52325897 23.2082647,8.94703185 22.4834179,9.00387236 C21.438387,9.08626501 20.3860555,9.26513008 19.3373743,9.54620376" fill="currentColor" fill-rule="nonzero"/>
    </g>
</svg>
