<svg id="system-wechat-small" xmlns="http://www.w3.org/2000/svg" width="24" height="24" viewBox="0 0 24 24">
  <title>system-wechat</title>
  <g class="audiicon-group audiicon-group--small">
    <circle cx="11.5" cy="11.5" r="11" fill="none" stroke="currentColor" stroke-miterlimit="10" class="audiicon-system-wechat__circle"/>
    <g class="audiicon-system-wechat__bubbles">
      <path d="M9.4267,12.5529a4.13,4.13,0,0,1,1.318-2.1149,5.1753,5.1753,0,0,1,3.5269-1.3169c.0275,0,.0543.0024.0818.0028-.72-2.2293-3.3684-3.3413-5.5756-3.0885a5.0192,5.0192,0,0,0-3.7386,2.24,3.6724,3.6724,0,0,0,.1876,4.1093,5.2148,5.2148,0,0,0,1.0577,1.0406c.18.1356-.7153,1.9443-.8314,2.2937.4095-.2054,1.9653-1.3854,2.0708-1.4383a.5751.5751,0,0,1,.4821-.0352,7.4064,7.4064,0,0,0,1.6317.1773A3.8963,3.8963,0,0,1,9.4267,12.5529Zm1.9413-4.64a.7751.7751,0,0,1,0,1.55.8776.8776,0,0,1-.9313-.7764A.8743.8743,0,0,1,11.368,7.9125ZM7.75,9.4993a.8779.8779,0,0,1-.9324-.7751A.876.876,0,0,1,7.75,7.9519.7739.7739,0,0,1,7.75,9.4993Z" transform="translate(0)" class="audiicon-system-wechat__bubble-cut"/>
      <path d="M18.3339,12.3265c-.9888-2.8374-5.099-3.3781-7.1658-1.4382A3.4359,3.4359,0,0,0,10.133,12.701,3.3246,3.3246,0,0,0,11.23,15.8022a4.729,4.729,0,0,0,4.3492.9139c.4422-.1079,1.63.97,2.0305,1.19-.0592-.197-.8255-1.4894-.82-1.6546.0063-.1742.2458-.2891.3916-.4195a5.1728,5.1728,0,0,0,.4991-.5094,3.682,3.682,0,0,0,.6339-1.0337A2.8273,2.8273,0,0,0,18.3339,12.3265Zm-5.55.7428c-1.1444.3269-1.4349-1.46-.3158-1.46C13.4054,11.6092,13.7832,12.7837,12.7837,13.0693Zm3.1466,0c-1.1394.3257-1.4248-1.46-.3139-1.46C16.5554,11.6092,16.93,12.7836,15.93,13.07Z" transform="translate(0)" class="audiicon-system-wechat__bubble-full"/>
    </g>
  </g>
  <rect width="24" height="24" fill="none"/>
</svg>
