<svg width="24" height="24" viewBox="0 0 24 24" version="1.1" xmlns="http://www.w3.org/2000/svg">
    <title>
        system-google-plus-small
    </title>
    <g stroke="none" stroke-width="1" fill="none" fill-rule="evenodd">
        <path d="M16.1,9.6 L17.4,9.6 C17.4,10 17.4,10.5 17.4,10.9 C17.8,10.9 18.3,10.9 18.7,10.9 L18.7,12.2 C18.3,12.2 17.8,12.2 17.4,12.2 C17.4,12.6 17.4,13.1 17.4,13.5 L16.1,13.5 C16.1,13.1 16.1,12.6 16.1,12.2 L14.8,12.2 L14.8,10.9 C15.2,10.9 15.7,10.9 16.1,10.9 C16.1,10.4 16.1,10 16.1,9.6 Z M4.5,11.3 C4.6,9 6.7,6.9 9,7 C10.1,6.9 11.2,7.4 12,8.1 C11.6,8.5 11.3,8.9 10.9,9.3 C9.9,8.6 8.4,8.4 7.4,9.2 C5.9,10.2 5.9,12.6 7.3,13.7 C8.7,14.9 11.3,14.3 11.6,12.4 C10.7,12.4 9.9,12.4 9,12.4 C9,11.9 9,11.4 9,10.9 C10.4,10.9 11.9,10.9 13.3,10.9 C13.4,12.1 13.2,13.4 12.5,14.4 C11.4,16 9.1,16.4 7.4,15.8 C5.6,15 4.4,13.2 4.5,11.3 Z" fill="currentColor" fill-rule="nonzero"/>
        <circle stroke="currentColor" cx="11.5" cy="11.5" r="11"/>
    </g>
</svg>
