<svg id="system-weibo-small" xmlns="http://www.w3.org/2000/svg" width="24" height="24" viewBox="0 0 24 24">
  <title>system-weibo</title>
  <g class="audiicon-group audiicon-group--small">
    <circle cx="11.5" cy="11.5" r="11" fill="none" stroke="currentColor" stroke-miterlimit="10" class="audiicon-system-weibo__circle"/>
    <g class="audiicon-system-weibo__weibo">
      <g class="audiicon-system-weibo__signal">
        <path d="M18.0248,6.579a3.7846,3.7846,0,0,0-3.6032-1.1664H14.421A.5476.5476,0,0,0,14.65,6.4837a2.6922,2.6922,0,0,1,3.1243,3.462l0,0a.5478.5478,0,0,0,1.0422.3377l0-.0021a3.7839,3.7839,0,0,0-.7919-3.7024" transform="translate(0)" class="audiicon-system-weibo__curve-small"/>
        <path d="M16.5825,7.8805a1.8426,1.8426,0,0,0-1.7552-.5673.4711.4711,0,1,0,.1966.9214v.0005A.9007.9007,0,0,1,16.07,9.3944h0a.4712.4712,0,1,0,.8967.29,1.8414,1.8414,0,0,0-.3848-1.8037" transform="translate(0)" class="audiicon-system-weibo__curve-big"/>
      </g>
      <g class="audiicon-system-weibo__eye">
        <path d="M15.4421,10.9066c-.2014-.06-.3394-.1015-.2339-.3661a1.4926,1.4926,0,0,0,.0043-1.4236c-.4642-.6633-1.7343-.6274-3.19-.0179,0-.0008-.4571.2-.34-.1626a1.6388,1.6388,0,0,0-.1583-1.6711c-.79-.79-2.89.03-4.6915,1.83A6.1827,6.1827,0,0,0,4.7,13.111c0,2.3648,3.0325,3.8025,5.9992,3.8025,3.8892,0,6.4762-2.26,6.4762-4.0536A2.17,2.17,0,0,0,15.4421,10.9066ZM10.7072,16.066C8.34,16.3,6.2964,15.23,6.1426,13.6751s1.6413-3.0033,4.0083-3.2373,4.4112.836,4.5646,2.39S13.0748,15.8317,10.7072,16.066Z" transform="translate(0)" class="audiicon-system-weibo__eye-lashes"/>
        <path d="M10.9376,11.6481A2.56,2.56,0,0,0,8.07,12.9a1.7434,1.7434,0,0,0,1.1133,2.4847,2.5363,2.5363,0,0,0,3.0288-1.2854A1.7519,1.7519,0,0,0,10.9376,11.6481Zm-.8537,2.566a.89.89,0,0,1-1.0805.3541.6232.6232,0,0,1-.2406-.9392.8935.8935,0,0,1,1.0586-.3564A.6259.6259,0,0,1,10.0839,14.2141Z" transform="translate(0)" class="audiicon-system-weibo__eye-ball"/>
      </g>
    </g>
  </g>
  <rect width="24" height="24" fill="none"/>
</svg>
