<svg xmlns="http://www.w3.org/2000/svg" width="24" height="24" viewBox="0 0 24 24"><path d="M15.472 6H7.528A1.528 1.528 0 0 0 6 7.528v7.944A1.528 1.528 0 0 0 7.528 17h7.944A1.528 1.528 0 0 0 17 15.472V7.528A1.528 1.528 0 0 0 15.472 6zM11.52 9.342a2.139 2.139 0 1 1-2.139 2.139 2.139 2.139 0 0 1 2.14-2.139zM16 15.453a.824.824 0 0 1-.509.547H7.547A.88.88 0 0 1 7 15.453V11h1.284a1.13 1.13 0 0 0-.126.699 3.27 3.27 0 0 0 3.361 3.252 3.225 3.225 0 0 0 3.361-3.198 1.356 1.356 0 0 0-.126-.753H16v4.453zm0-6.759a.306.306 0 0 1-.306.306h-1.388A.306.306 0 0 1 14 8.694V7.306A.306.306 0 0 1 14.306 7h1.389a.306.306 0 0 1 .305.306v1.388z"/><circle cx="11.5" cy="11.5" r="11" fill="none" stroke="currentColor" stroke-miterlimit="10"/></svg>