<svg width="24" height="24" viewBox="0 0 24 24" version="1.1" xmlns="http://www.w3.org/2000/svg">
    <title>
        system-code-small
    </title>
    <g stroke="currentColor" stroke-width="1" fill="none" fill-rule="evenodd">
        <circle cx="11.5" cy="11.5" r="11"/>
        <path d="M15.5,15.5 L16.5,15.5 L16.5,16.5 L15.5,16.5 L15.5,15.5 Z M12.5,15.5 L13.5,15.5 L13.5,16.5 L12.5,16.5 L12.5,15.5 Z M15.5,12.5 L16.5,12.5 L16.5,13.5 L15.5,13.5 L15.5,12.5 Z M12.5,12.5 L13.5,12.5 L13.5,13.5 L12.5,13.5 L12.5,12.5 Z M6.5,12.5 L10.5,12.5 L10.5,16.5 L6.5,16.5 L6.5,12.5 Z M12.5,6.5 L16.5,6.5 L16.5,10.5 L12.5,10.5 L12.5,6.5 Z M6.5,6.5 L10.5,6.5 L10.5,10.5 L6.5,10.5 L6.5,6.5 Z"/>
    </g>
</svg>
