<svg width="48" height="48" viewBox="0 0 48 48" version="1.1" xmlns="http://www.w3.org/2000/svg">
    <title>
        system-google-plus-large
    </title>
    <g stroke="none" stroke-width="1" fill="none" fill-rule="evenodd">
        <path d="M33.6,19.4 L36.3,19.4 C36.3,20.3 36.3,21.2 36.3,22.1 C37.2,22.1 38.1,22.1 39,22.1 L39,24.8 C38.1,24.8 37.2,24.8 36.3,24.8 C36.3,25.7 36.3,26.6 36.3,27.5 L33.6,27.5 C33.6,26.6 33.6,25.7 33.6,24.8 C32.7,24.8 31.8,24.8 30.9,24.8 L30.9,22.1 C31.8,22.1 32.7,22.1 33.6,22.1 C33.6,21.2 33.6,20.3 33.6,19.4 L33.6,19.4 Z M9.1,23 C9.2,18.1 13.7,13.8 18.6,14 C20.9,13.9 23.1,14.9 24.9,16.3 C24.1,17.2 23.3,18 22.5,18.8 C20.3,17.3 17.3,16.9 15.1,18.6 C12,20.7 11.9,25.8 14.8,28.1 C17.7,30.7 23.1,29.4 23.9,25.4 C22.1,25.4 20.3,25.4 18.5,25.3 C18.5,24.2 18.5,23.1 18.5,22.1 C21.5,22.1 24.5,22.1 27.6,22.1 C27.8,24.6 27.4,27.3 25.9,29.4 C23.5,32.7 18.8,33.7 15.1,32.3 C11.4,30.9 8.8,27 9.1,23 Z" fill="currentColor" fill-rule="nonzero"/>
        <circle stroke="currentColor" cx="23.5" cy="23.5" r="22"/>
    </g>
</svg>
