<svg width="48" height="48" viewBox="0 0 48 48" version="1.1" xmlns="http://www.w3.org/2000/svg">
    <title>
        system-print-large
    </title>
    <path d="M31.6,24.5 L34,24.5 C34.8284271,24.5 35.5,25.1715729 35.5,26 L35.5,33.5 L35.5,33.5 L12.5,33.5 L12.5,26 C12.5,25.1715729 13.1715729,24.5 14,24.5 L16.5,24.5 L16.5,24.5 M31.5,16.5 L31.5,28.5 L16.5,28.5 L16.5,11.5 L26.5,11.5 L31.5,16.5 Z M26.5,11.5 L26.5,16.5 L31.5,16.5 M20,24.5 L28,24.5 M20,20.5 L28,20.5 M23.5,45.5 C35.6502645,45.5 45.5,35.6502645 45.5,23.5 C45.5,11.3497355 35.6502645,1.5 23.5,1.5 C11.3497355,1.5 1.5,11.3497355 1.5,23.5 C1.5,35.6502645 11.3497355,45.5 23.5,45.5 Z" stroke="currentColor" stroke-width="1" fill="none" fill-rule="evenodd"/>
</svg>
