<svg width="48" height="48" viewBox="0 0 48 48" version="1.1" xmlns="http://www.w3.org/2000/svg">
    <title>
        system-line-me-large
    </title>
    <g stroke="none" stroke-width="1" fill="none" fill-rule="evenodd">
        <circle stroke="currentColor" cx="23.5" cy="23.5" r="22"/>
        <path d="M33.2472291,19.8692674 C33.2472291,20.019699 33.1236538,20.1415086 32.9709887,20.1415086 L30.2647342,20.1415086 L30.2647342,21.1703452 L32.9709887,21.1703452 C33.1236538,21.1703452 33.2472291,21.2923767 33.2472291,21.4425864 L33.2472291,22.4226103 C33.2472291,22.5730419 33.1236538,22.6948515 32.9709887,22.6948515 L30.2647342,22.6948515 L30.2647342,23.72391 L32.9709887,23.72391 C33.1236538,23.72391 33.2472291,23.8457196 33.2472291,23.9959293 L33.2472291,24.9761751 C33.2472291,25.1263848 33.1236538,25.2484163 32.9709887,25.2484163 L28.9922241,25.2484163 C28.9175828,25.2484163 28.8501575,25.2191288 28.800547,25.172313 C28.7450734,25.1157348 28.7153071,25.0496159 28.7153071,24.9766189 L28.7153071,18.8892434 C28.7153071,18.8162464 28.7448479,18.7503494 28.7922034,18.7015368 C28.8497065,18.6462898 28.9171318,18.6170022 28.9915476,18.6170022 L32.9709887,18.6170022 C33.1236538,18.6170022 33.2472291,18.7390337 33.2472291,18.8892434 L33.2472291,19.8692674 Z M27.7469997,24.9766189 C27.7469997,25.1266067 27.6234244,25.2481945 27.4705338,25.2481945 L26.4747151,25.2481945 C26.4499098,25.2481945 26.4262321,25.2448663 26.4036818,25.2388757 C26.3933087,25.2362132 26.3874457,25.2342163 26.3809061,25.2319975 C26.367827,25.2271163 26.3637679,25.2251194 26.3592579,25.2233444 C26.3432472,25.2155788 26.3407667,25.2142475 26.3380606,25.2126944 C26.3321976,25.20981 26.3267855,25.2060381 26.321148,25.20271 C26.2916071,25.1829631 26.2674784,25.1605536 26.2480852,25.1334848 L23.4090098,21.3609362 L23.4090098,24.9766189 C23.4090098,25.1266067 23.2849834,25.2481945 23.1323183,25.2481945 L22.1364996,25.2481945 C21.9838345,25.2481945 21.8598082,25.1266067 21.8598082,24.9766189 L21.8598082,18.8887997 C21.8598082,18.7388119 21.9838345,18.6170022 22.1364996,18.6170022 L23.1323183,18.6170022 C23.1467505,18.6176679 23.151486,18.6178897 23.1562216,18.6183335 C23.1747128,18.6205522 23.1787718,18.620996 23.1823798,18.6216616 C23.2017731,18.6260991 23.2049301,18.6267648 23.2078616,18.6276523 C23.2274803,18.6338648 23.2301864,18.6349742 23.2333434,18.6360835 C23.2522856,18.644071 23.2549916,18.6454023 23.2579232,18.6469554 C23.2757378,18.6564961 23.2784439,18.6580492 23.2811499,18.6598242 C23.2978371,18.6713617 23.3005431,18.6731367 23.3025726,18.6751336 C23.3077592,18.6789055 23.3127202,18.6828993 23.3174558,18.6871149 C23.3282799,18.6970993 23.333692,18.7026462 23.339104,18.7086368 C23.3485751,18.719065 23.3560167,18.7281619 23.3625563,18.7379244 L26.1980236,22.5055918 L26.1980236,18.8887997 C26.1980236,18.7388119 26.3218245,18.6170022 26.4747151,18.6170022 L27.4705338,18.6170022 C27.6234244,18.6170022 27.7469997,18.7388119 27.7469997,18.8887997 L27.7469997,24.9766189 Z M20.8912753,24.9766189 C20.8912753,25.1266067 20.7674745,25.2481945 20.6145839,25.2481945 L19.6185397,25.2481945 C19.4661001,25.2481945 19.3420737,25.1266067 19.3420737,24.9766189 L19.3420737,18.8887997 C19.3420737,18.7388119 19.4661001,18.6170022 19.6185397,18.6170022 L20.6145839,18.6170022 C20.7674745,18.6170022 20.8912753,18.7388119 20.8912753,18.8887997 L20.8912753,24.9766189 Z M18.4901256,24.9759533 C18.4901256,25.1263848 18.3665503,25.2481945 18.2138851,25.2481945 L14.2346695,25.2481945 C14.1600282,25.2481945 14.0932795,25.2193506 14.0434435,25.172313 C13.9877444,25.1157348 13.9582036,25.049394 13.9582036,24.976397 L13.9582036,18.8890216 C13.9582036,18.7388119 14.0822299,18.6170022 14.2346695,18.6170022 L15.2309392,18.6170022 C15.3836043,18.6170022 15.5074052,18.7388119 15.5074052,18.8890216 L15.5074052,23.72391 L18.2138851,23.72391 C18.3665503,23.72391 18.4901256,23.8457196 18.4901256,23.9959293 L18.4901256,24.9759533 Z M23.4998872,10.3000002 C15.6706689,10.3000002 9.30000019,15.3862735 9.30000019,21.6382805 C9.30000019,27.2430768 14.3517053,31.9368524 21.1756339,32.8243543 C21.6381393,32.9226451 22.2675166,33.1245518 22.4267213,33.5134995 C22.5696898,33.8665034 22.5203048,34.4200827 22.4727237,34.7768585 C22.4727237,34.7768585 22.305852,35.7624293 22.2699971,35.9727672 C22.2082094,36.3257711 21.9847365,37.3541639 23.4998872,36.7260345 C25.0157145,36.0976831 31.6777323,31.9881057 34.6568447,28.6142672 C36.7143288,26.3937375 37.6999998,24.1403702 37.6999998,21.6382805 C37.6999998,15.3862735 31.3300076,10.3000002 23.4998872,10.3000002 Z" fill="currentColor" fill-rule="nonzero"/>
    </g>
</svg>
