<svg width="24" height="24" viewBox="0 0 24 24" version="1.1" xmlns="http://www.w3.org/2000/svg">
    <title>
        system-compare-small
    </title>
    <g stroke="none" stroke-width="1" fill="none" fill-rule="evenodd">
        <path d="M11.5,22.5 C17.5751322,22.5 22.5,17.5751322 22.5,11.5 C22.5,5.42486775 17.5751322,0.5 11.5,0.5 C5.42486775,0.5 0.5,5.42486775 0.5,11.5 C0.5,17.5751322 5.42486775,22.5 11.5,22.5 Z M11.5,4 L11.5,19" stroke="currentColor"/>
        <path d="M16.2624309,8.5 C17.9447514,8.5 18.8232044,9.0801105 18.8232044,10.1740331 C18.8232044,10.8618785 18.4585635,11.2430939 17.8535912,11.441989 C18.6574586,11.6491713 19.121547,12.0718232 19.121547,12.8259669 C19.121547,13.9198895 18.2430939,14.5 16.5607735,14.5 L14,14.5 L14,8.5 L16.2624309,8.5 Z M6.98618785,8.5 L9.98618785,14.5 L9.03314917,14.5 L8.28729282,13.0165746 L4.67403315,13.0165746 L3.93646409,14.5 L3,14.5 L6,8.5 L6.98618785,8.5 Z M16.378453,11.8314917 L14.8535912,11.8314917 L14.8535912,13.8121547 L16.378453,13.8121547 C17.5966851,13.8121547 18.2430939,13.5966851 18.2430939,12.8259669 C18.2430939,12.0552486 17.5966851,11.8314917 16.378453,11.8314917 Z M6.48066298,9.28729282 L4.98066298,12.320442 L7.98066298,12.320442 L6.48066298,9.28729282 Z M16.0801105,9.1878453 L14.8535912,9.1878453 L14.8535912,11.1685083 L16.0801105,11.1685083 C17.2983425,11.1685083 17.9447514,10.9447514 17.9447514,10.1740331 C17.9447514,9.40331492 17.2983425,9.1878453 16.0801105,9.1878453 Z" fill="currentColor" fill-rule="nonzero"/>
    </g>
</svg>
