<svg width="24" height="24" viewBox="0 0 24 24" version="1.1" xmlns="http://www.w3.org/2000/svg">
    <title>
        system-pinterest-small
    </title>
    <g stroke="none" stroke-width="1" fill="none" fill-rule="evenodd">
        <path d="M11.8,5 C8.3,5 6.5,7.5 6.5,9.7 C6.5,11 7,12.1 8,12.6 C8.2,12.7 8.3,12.6 8.4,12.4 C8.4,12.3 8.5,11.9 8.6,11.8 C8.7,11.6 8.6,11.5 8.5,11.4 C8.1,11 7.9,10.5 7.9,9.9 C7.9,8 9.3,6.3 11.6,6.3 C13.6,6.3 14.7,7.5 14.7,9.2 C14.7,11.4 13.7,13.2 12.3,13.2 C11.5,13.2 10.9,12.6 11.1,11.8 C11.3,10.9 11.8,9.8 11.8,9.1 C11.8,8.5 11.5,8 10.8,8 C10,8 9.4,8.8 9.4,9.9 C9.4,10.6 9.6,11.1 9.6,11.1 L8.6,15.2 C8.3,16.4 8.6,17.9 8.6,18 C8.6,18.1 8.7,18.1 8.8,18 C8.9,17.9 9.8,16.7 10.1,15.6 C10.2,15.3 10.6,13.5 10.6,13.5 C10.9,14 11.6,14.4 12.4,14.4 C14.8,14.4 16.4,12.2 16.4,9.3 C16.5,7.1 14.7,5 11.8,5 Z" fill="currentColor" fill-rule="nonzero"/>
        <circle stroke="currentColor" cx="11.5" cy="11.5" r="11"/>
    </g>
</svg>
