<?xml version="1.0" encoding="UTF-8"?>
<svg width="24px" height="24px" viewBox="0 0 24 24" version="1.1" xmlns="http://www.w3.org/2000/svg" xmlns:xlink="http://www.w3.org/1999/xlink">
    <!-- Generator: sketchtool 48.1 (47250) - http://www.bohemiancoding.com/sketch -->
    <title>system-instagram-small</title>
    <desc>Created with sketchtool.</desc>
    <defs></defs>
    <g id="icons-published" stroke="none" stroke-width="1" fill="none" fill-rule="evenodd">
        <g id="briefing" transform="translate(-1508.000000, -1818.000000)"></g>
        <g id="system-instagram-small">
            <path d="M11.5,7 C13,7 13.1,7 13.7,7 C14.2,7 14.5,7.1 14.7,7.2 C15,7.3 15.1,7.4 15.3,7.6 C15.5,7.8 15.6,8 15.7,8.2 C15.8,8.4 15.9,8.7 15.9,9.2 C15.9,9.8 15.9,10 15.9,11.4 C15.9,12.8 15.9,13 15.9,13.6 C15.9,14.1 15.8,14.4 15.7,14.6 C15.6,14.9 15.5,15 15.3,15.2 C15.1,15.4 14.9,15.5 14.7,15.6 C14.5,15.7 14.2,15.8 13.7,15.8 C13.1,15.8 12.9,15.8 11.5,15.8 C10.1,15.8 9.9,15.8 9.3,15.8 C8.8,15.8 8.5,15.7 8.3,15.6 C8,15.5 7.9,15.4 7.7,15.2 C7.5,15 7.4,14.8 7.3,14.6 C7.2,14.4 7.1,14.1 7.1,13.6 C7.1,13 7.1,12.8 7.1,11.4 C7.1,10 7.1,9.8 7.1,9.2 C7.1,8.7 7.2,8.4 7.3,8.2 C7.3,8 7.4,7.8 7.6,7.6 C7.8,7.4 8,7.3 8.3,7.2 C8.5,7.1 8.7,7 9.3,7 C9.9,7 10,7 11.5,7 Z M11.5,6 C10,6 9.8,6 9.2,6 C8.6,6 8.2,6.1 7.9,6.3 C7.5,6.4 7.2,6.6 6.9,6.9 C6.6,7.2 6.4,7.5 6.3,7.9 C6.2,8.2 6.1,8.6 6,9.2 C6,9.8 6,10 6,11.5 C6,13 6,13.2 6,13.8 C6,14.4 6.1,14.8 6.3,15.1 C6.4,15.5 6.6,15.8 6.9,16.1 C7.2,16.4 7.5,16.6 7.9,16.7 C8.2,16.8 8.6,16.9 9.2,17 C9.8,17 10,17 11.5,17 C13,17 13.2,17 13.8,17 C14.4,17 14.8,16.9 15.1,16.7 C15.5,16.6 15.8,16.4 16.1,16.1 C16.4,15.8 16.6,15.5 16.7,15.1 C16.8,14.7 16.9,14.3 17,13.8 C17,13.2 17,13 17,11.5 C17,10 17,9.8 17,9.2 C17,8.6 16.9,8.2 16.7,7.9 C16.6,7.5 16.3,7.2 16.1,6.9 C15.8,6.6 15.5,6.4 15.1,6.3 C14.7,6.2 14.3,6.1 13.8,6 C13.2,6 13,6 11.5,6 Z" id="Shape" fill="#000000" fill-rule="nonzero"></path>
            <path d="M11.5,8.7 C9.9,8.7 8.7,10 8.7,11.5 C8.7,13 10,14.3 11.5,14.3 C13,14.3 14.3,13 14.3,11.5 C14.3,10 13.1,8.7 11.5,8.7 Z M11.5,13.3 C10.5,13.3 9.7,12.5 9.7,11.5 C9.7,10.5 10.5,9.7 11.5,9.7 C12.5,9.7 13.3,10.5 13.3,11.5 C13.3,12.5 12.5,13.3 11.5,13.3 Z" id="Shape" fill="#000000" fill-rule="nonzero"></path>
            <circle id="Oval" fill="#000000" fill-rule="nonzero" cx="14.4" cy="8.6" r="1"></circle>
            <circle id="Oval" stroke="#000000" cx="11.5" cy="11.5" r="11"></circle>
        </g>
    </g>
</svg>