<svg width="24" height="24" viewBox="0 0 24 24" version="1.1" xmlns="http://www.w3.org/2000/svg">
    <title>
        system-yelp-small
    </title>
    <g stroke="none" stroke-width="1" fill="none" fill-rule="evenodd">
        <circle stroke="currentColor" cx="11.5" cy="11.5" r="11"/>
        <path d="M7.64693827,10.5709253 L10.3713714,11.8993765 C10.8954512,12.1551588 10.814623,12.9258951 10.2488253,13.0669534 L7.30772041,13.8001438 C6.9408645,13.8916622 6.57870185,13.6384873 6.53541963,13.2630271 C6.44285826,12.459438 6.53411595,11.6660175 6.78103318,10.9315235 C6.90097186,10.5748363 7.30850262,10.4058792 7.64693827,10.5709253 M8.73785875,16.1793621 L10.7656046,13.9271223 C11.155666,13.4937787 11.8742551,13.7839781 11.8539177,14.3667236 L11.7480588,17.3967396 C11.735022,17.7742857 11.3921538,18.053795 11.0195617,17.9912183 C10.2360492,17.8598072 9.49477608,17.5568317 8.84762871,17.1125371 C8.5368311,16.8987334 8.48520532,16.4599143 8.73785875,16.1793621 M13.5458352,13.1821988 L16.4282745,14.1187635 C16.7870476,14.2353126 16.9620016,14.6412789 16.7993022,14.9818005 C16.4611272,15.6902208 15.9709431,16.3230277 15.3582129,16.8288561 C15.0667098,17.0692549 14.6299766,16.9985954 14.4297311,16.6781505 L12.8230743,14.1070303 C12.5141019,13.6124137 12.9912492,13.0017694 13.5458352,13.1821988 M16.4770322,11.3432261 L13.5633045,12.178625 C13.0027216,12.3394993 12.5472154,11.7124286 12.8733964,11.2290236 L14.5684428,8.71630834 C14.7791177,8.40420704 15.2166331,8.34684507 15.4987497,8.59558745 C16.0799308,9.10845566 16.5557745,9.74986684 16.8772623,10.4919222 C17.0277071,10.8387014 16.8404985,11.2391923 16.4770322,11.3432261 M9.66868716,4.27310188 C9.14434656,4.41363872 8.6439937,4.59928293 8.17101814,4.82481979 C7.8427512,4.98126154 7.71864074,5.38566346 7.90063464,5.70063285 L10.748396,10.6329805 C11.0677979,11.1865236 11.913887,10.959683 11.913887,10.3208792 L11.913887,4.62535655 C11.913887,4.26162948 11.6041324,3.97351593 11.241709,4.00193618 C10.7191935,4.04313251 10.1930278,4.13256504 9.66868716,4.27310188" fill="currentColor" fill-rule="nonzero"/>
    </g>
</svg>
