<svg xmlns="http://www.w3.org/2000/svg" width="48" height="48" viewBox="0 0 48 48"><path d="M24.18 9c-7.915 0-11.905 5.674-11.905 10.406 0 2.865 1.085 5.414 3.411 6.364.381.155.723.005.834-.417.077-.293.259-1.03.34-1.337.112-.418.068-.564-.24-.929-.67-.79-1.099-1.815-1.099-3.266 0-4.21 3.15-7.978 8.201-7.978 4.474 0 6.931 2.733 6.931 6.383 0 4.803-2.125 8.857-5.28 8.857-1.743 0-3.048-1.441-2.63-3.209.501-2.11 1.47-4.387 1.47-5.91 0-1.364-.73-2.501-2.246-2.501-1.781 0-3.212 1.843-3.212 4.311 0 1.573.531 2.636.531 2.636l-2.142 9.077c-.637 2.694-.096 5.997-.05 6.33.027.198.28.245.396.095.164-.214 2.286-2.834 3.007-5.45.204-.742 1.172-4.58 1.172-4.58.578 1.105 2.27 2.077 4.068 2.077 5.355 0 8.988-4.882 8.988-11.416C34.725 13.602 30.54 9 24.179 9z" fill="currentColor"/><circle fill="none" stroke="currentColor" stroke-miterlimit="10" cx="23.5" cy="23.5" r="22"/></svg>