<svg width="24" height="24" viewBox="0 0 24 24" version="1.1" xmlns="http://www.w3.org/2000/svg">
    <title>
        system-paragraph-small
    </title>
    <g stroke="none" stroke-width="1" fill="none" fill-rule="evenodd">
        <circle stroke="currentColor" cx="11.5" cy="11.5" r="11"/>
        <path d="M11.6,9.8 L10.6,9.5 C10.4,9.4 10.2,9.3 9.9,9.2 C9.6,9.4 9.3,9.7 9.1,10.1 C8.9,10.3 8.8,10.7 8.8,11 C8.8,11.2 8.9,11.5 9,11.7 C9.2,11.9 9.4,12.1 9.7,12.2 C10.2,12.4 10.8,12.6 11.3,12.8 L12.3,13.1 C12.6,13.2 12.8,13.3 13,13.4 C13.3,13.2 13.6,12.9 13.8,12.5 C14,12.3 14,12 14.1,11.7 C14.1,11.4 14,11.2 13.9,11 C13.7,10.8 13.5,10.6 13.2,10.5 C12.7,10.2 12.1,10 11.6,9.8 Z M8.7,6.2 C9,5.9 9.4,5.6 9.8,5.5 C10.4,5.3 11,5.2 11.6,5.2 C12.5,5.2 13.5,5.4 14.4,5.8 L14.4,6.7 C14,6.5 13.5,6.4 13,6.3 C12.5,6.1 12,6 11.6,6 C11.2,6 10.7,6.1 10.3,6.2 C10,6.3 9.8,6.4 9.6,6.6 C9.4,6.8 9.3,7 9.3,7.2 C9.3,7.4 9.4,7.6 9.5,7.9 C9.7,8.1 9.9,8.3 10.2,8.4 C10.7,8.6 11.3,8.8 11.8,9 C12.5,9.2 13.2,9.4 13.9,9.8 C14.3,10 14.6,10.2 14.8,10.6 C15,10.9 15.1,11.3 15,11.7 C15,12.1 14.9,12.6 14.6,13 C14.4,13.3 14.1,13.6 13.7,13.9 C14,14.1 14.2,14.3 14.3,14.6 C14.4,14.9 14.5,15.2 14.5,15.5 C14.5,15.9 14.4,16.3 14.1,16.6 C13.8,16.9 13.4,17.2 13,17.3 C12.4,17.5 11.7,17.6 11.1,17.6 C10.6,17.6 10,17.5 9.5,17.4 C9.1,17.3 8.6,17.1 8.2,16.9 L8.2,16 C8.6,16.2 9.1,16.4 9.6,16.5 C10.1,16.6 10.6,16.7 11.1,16.7 C11.6,16.7 12.1,16.7 12.5,16.5 C12.8,16.4 13.1,16.3 13.3,16.1 C13.5,15.9 13.5,15.7 13.5,15.4 C13.5,15.2 13.4,14.9 13.3,14.8 C13.1,14.6 12.9,14.4 12.6,14.3 C12.1,14.1 11.5,13.9 11,13.7 C10.3,13.5 9.6,13.2 8.9,12.9 C8.5,12.7 8.2,12.5 8,12.1 C8,11.7 7.9,11.4 7.9,11 C7.9,10.6 8,10.1 8.3,9.8 C8.5,9.4 8.8,9.2 9.2,8.9 C9,8.7 8.7,8.5 8.6,8.2 C8.4,7.9 8.3,7.6 8.4,7.3 C8.3,6.9 8.4,6.5 8.7,6.2 Z" fill="currentColor" fill-rule="nonzero"/>
    </g>
</svg>
