<svg width="48" height="48" viewBox="0 0 48 48" version="1.1" xmlns="http://www.w3.org/2000/svg">
    <title>
        system-instagram-large
    </title>
    <g stroke="none" stroke-width="1" fill="none" fill-rule="evenodd">
        <circle stroke="currentColor" cx="23.5" cy="23.5" r="22"/>
        <path d="M24.6458325,12.000833 C26.7471324,12.0044648 27.1840238,12.0209578 28.2414353,12.0692044 C29.4654762,12.1250335 30.3014522,12.319454 31.032937,12.6037579 C31.7891636,12.8976026 32.430491,13.2908259 33.0698554,13.9301446 C33.7091741,14.569509 34.1023974,15.2108364 34.3962877,15.967063 C34.680546,16.6985478 34.8749665,17.5345238 34.9307956,18.7585647 C34.9867617,19.985162 35,20.3767875 35,23.5000228 C35,26.6232125 34.9867617,27.014838 34.9307956,28.2414353 C34.8749665,29.4654762 34.680546,30.3014522 34.3962877,31.032937 C34.1023974,31.7891636 33.7091741,32.430491 33.0698554,33.0698554 C32.430491,33.7091741 31.7891636,34.1023974 31.032937,34.3962877 C30.3014522,34.680546 29.4654762,34.8749665 28.2414353,34.9307956 C27.014838,34.9867617 26.6232125,35 23.5000228,35 C20.3767875,35 19.985162,34.9867617 18.7585647,34.9307956 C17.5345238,34.8749665 16.6985478,34.680546 15.967063,34.3962877 C15.2108364,34.1023974 14.569509,33.7091741 13.9301446,33.0698554 C13.2908259,32.430491 12.8976026,31.7891636 12.6037579,31.032937 C12.319454,30.3014522 12.1250335,29.4654762 12.0692044,28.2414353 C12.0209578,27.1840238 12.0044648,26.7471324 12.000833,24.6458325 L12.000833,22.3541968 C12.0044648,20.2528676 12.0209578,19.8159762 12.0692044,18.7585647 C12.1250335,17.5345238 12.319454,16.6985478 12.6037579,15.967063 C12.8976026,15.2108364 13.2908259,14.569509 13.9301446,13.9301446 C14.569509,13.2908259 15.2108364,12.8976026 15.967063,12.6037579 C16.6985478,12.319454 17.5345238,12.1250335 18.7585647,12.0692044 C19.8159762,12.0209578 20.2528676,12.0044648 22.3541968,12.000833 Z M24.6254532,14.0728216 L22.3745761,14.0728216 C20.312885,14.0761341 19.8983826,14.0914316 18.8530132,14.1391272 C17.7317745,14.1902545 17.1228582,14.3775993 16.7176292,14.5350894 C16.1808388,14.7437068 15.7977497,14.9929065 15.3953509,15.3953509 C14.9929065,15.7977497 14.7437068,16.1808388 14.5350894,16.7176292 C14.3775993,17.1228582 14.1902545,17.7317745 14.1391272,18.8530132 C14.0914316,19.8983826 14.0761341,20.312885 14.0728216,22.3745761 L14.0728216,24.6254532 C14.0761341,26.687115 14.0914316,27.1016174 14.1391272,28.1469868 C14.1902545,29.2682255 14.3775993,29.8771418 14.5350894,30.2823708 C14.7437068,30.8191612 14.9929521,31.2022503 15.3953509,31.6046491 C15.7977497,32.0070935 16.1808388,32.2562932 16.7176292,32.4649106 C17.1228582,32.6224007 17.7317745,32.8097455 18.8530132,32.8608728 C19.8982646,32.9085684 20.3126828,32.9238659 22.3744992,32.9271784 L24.6255323,32.9271784 C26.6873281,32.9238659 27.1017748,32.9085684 28.1469868,32.8608728 C29.2682255,32.8097455 29.8771418,32.6224007 30.2823708,32.4649106 C30.8191612,32.2562932 31.2022503,32.0070935 31.6046491,31.6046491 C32.0070935,31.2022503 32.2562932,30.8191612 32.4649106,30.2823708 C32.6224007,29.8771418 32.8097455,29.2682255 32.8608728,28.1469868 C32.9085684,27.1016174 32.9238659,26.687115 32.9271784,24.6254532 L32.9271784,22.3745761 C32.9238659,20.312885 32.9085684,19.8983826 32.8608728,18.8530132 C32.8097455,17.7317745 32.6224007,17.1228582 32.4649106,16.7176292 C32.2562932,16.1808388 32.0070935,15.7977497 31.6046491,15.3953509 C31.2022503,14.9929065 30.8191612,14.7437068 30.2823708,14.5350894 C29.8771418,14.3775993 29.2682255,14.1902545 28.1469868,14.1391272 C27.1016174,14.0914316 26.687115,14.0761341 24.6254532,14.0728216 Z M23.5000228,17.5945983 C26.7614843,17.5945983 29.4054017,20.2385157 29.4054017,23.5000228 C29.4054017,26.7614843 26.7614843,29.4054017 23.5000228,29.4054017 C20.2385157,29.4054017 17.5945983,26.7614843 17.5945983,23.5000228 C17.5945983,20.2385157 20.2385157,17.5945983 23.5000228,17.5945983 Z M23.5000228,19.6666667 C21.3828986,19.6666667 19.6666667,21.3828986 19.6666667,23.5000228 C19.6666667,25.6171014 21.3828986,27.3333333 23.5000228,27.3333333 C25.6171014,27.3333333 27.3333333,25.6171014 27.3333333,23.5000228 C27.3333333,21.3828986 25.6171014,19.6666667 23.5000228,19.6666667 Z M29.6387154,15.98126 C30.4008765,15.98126 31.01874,16.5991235 31.01874,17.3612846 C31.01874,18.1234457 30.4008765,18.7412636 29.6387154,18.7412636 C28.8766,18.7412636 28.2587364,18.1234457 28.2587364,17.3612846 C28.2587364,16.5991235 28.8766,15.98126 29.6387154,15.98126 Z" fill="currentColor" fill-rule="nonzero"/>
    </g>
</svg>
