<svg xmlns="http://www.w3.org/2000/svg" width="48" height="48" viewBox="0 0 48 48"><path d="M37.71 17.85s-.283-1.998-1.152-2.878c-1.103-1.155-2.34-1.161-2.906-1.229-4.058-.293-10.146-.293-10.146-.293h-.012s-6.088 0-10.146.293c-.567.068-1.803.074-2.906 1.229-.87.88-1.152 2.878-1.152 2.878S9 20.197 9 22.544v2.2c0 2.347.29 4.693.29 4.693s.283 1.999 1.152 2.879c1.103 1.155 2.553 1.118 3.198 1.24 2.32.222 9.86.29 9.86.29s6.094-.008 10.152-.302c.567-.067 1.803-.073 2.905-1.228.87-.88 1.153-2.879 1.153-2.879s.29-2.346.29-4.693v-2.2c0-2.347-.29-4.694-.29-4.694zm-17.204 9.56l-.001-8.148 7.836 4.088-7.835 4.06z"/><circle fill="none" stroke="currentColor" stroke-miterlimit="10" cx="23.5" cy="23.5" r="22"/></svg>