<svg xmlns="http://www.w3.org/2000/svg" width="24" height="24" viewBox="0 0 24 24"><path d="M17.87 8.9s-.127-.895-.517-1.29c-.494-.517-1.048-.52-1.302-.55-1.82-.132-4.548-.132-4.548-.132h-.006s-2.729 0-4.548.132c-.254.03-.808.033-1.302.55-.39.395-.517 1.29-.517 1.29S5 9.954 5 11.006v.986c0 1.052.13 2.104.13 2.104s.127.896.517 1.29c.494.518 1.144.502 1.433.556 1.04.1 4.42.13 4.42.13s2.732-.003 4.55-.135c.255-.03.809-.033 1.303-.55.39-.395.517-1.291.517-1.291s.13-1.052.13-2.104v-.986c0-1.052-.13-2.104-.13-2.104zm-7.712 4.286V9.534l3.512 1.832-3.512 1.82z"/><circle fill="none" stroke="currentColor" stroke-miterlimit="10" cx="11.5" cy="11.5" r="11"/></svg>