<svg xmlns="http://www.w3.org/2000/svg" width="48" height="48" viewBox="0 0 48 48"><path d="M34.494 16.667s3.196.447 4.102-.229a16.178 16.178 0 0 0-4.185 3.033S35.638 32.76 21.7 36.016c0 0-7.173.572-12.296-3.28 0 0 5.466 1.475 8.483-1.861 0 0-5.136.466-6.367-3.505a15.628 15.628 0 0 0 3.588-.506s-4.825-.914-4.746-5.72a5.63 5.63 0 0 0 2.68.716s-3.97-3.585-1.509-7.794c0 0 5.321 6.5 11.915 6.127a5.667 5.667 0 0 1 9.529-5.383 8.888 8.888 0 0 0 3.852-1.855s.089 1.836-2.335 3.712z" fill="currentColor"/><circle cx="23.5" cy="23.5" r="22" fill="none" stroke="currentColor" stroke-miterlimit="10"/></svg>