<svg xmlns="http://www.w3.org/2000/svg" width="24" height="24" viewBox="0 0 24 24"><circle fill="none" stroke="currentColor" stroke-miterlimit="10" cx="11.5" cy="11.5" r="11"/><path d="M11.6 9.83l-1-.33c-.23-.09-.45-.18-.67-.28-.31.23-.57.51-.77.85-.17.25-.26.55-.28.86-.01.25.05.49.19.71.19.23.44.41.72.52.52.22 1.06.41 1.61.57l1 .31c.27.1.5.19.69.27.31-.24.57-.52.77-.85.16-.25.25-.54.26-.83.01-.26-.05-.5-.19-.71-.19-.24-.44-.41-.72-.52-.52-.23-1.06-.42-1.61-.57zM8.66 6.22c.28-.35.66-.6 1.08-.73.59-.2 1.22-.3 1.84-.27.95.01 1.89.21 2.76.59v.86c-.44-.19-.89-.34-1.36-.45-.46-.13-.94-.2-1.42-.2-.43 0-.87.07-1.28.2-.28.06-.53.21-.73.42-.14.16-.22.36-.23.58-.01.23.06.45.19.65.2.22.44.39.72.51.52.22 1.06.41 1.61.57.71.19 1.4.45 2.06.78.38.17.7.44.94.79.18.32.26.68.25 1.05 0 .45-.15.9-.43 1.27-.24.34-.54.64-.89.88.27.16.49.39.65.66.15.28.23.6.22.93.01.39-.12.77-.36 1.09-.3.34-.69.6-1.13.73-.62.19-1.28.27-1.93.26-.52 0-1.05-.06-1.56-.17-.45-.11-.89-.27-1.3-.48v-.85c.43.22.88.39 1.35.51.5.12 1.01.19 1.52.19.48.01.96-.05 1.43-.16.29-.07.56-.21.78-.42.16-.19.24-.42.24-.66.01-.24-.06-.46-.19-.65-.2-.23-.44-.4-.72-.5-.52-.23-1.06-.42-1.61-.57-.71-.2-1.4-.46-2.06-.78-.38-.18-.7-.45-.94-.79a2.06 2.06 0 0 1-.25-1.05c0-.45.15-.89.42-1.24.23-.35.54-.65.89-.88-.26-.18-.48-.41-.64-.67-.16-.29-.24-.62-.23-.94-.01-.38.09-.75.31-1.06z"/></svg>