<svg xmlns="http://www.w3.org/2000/svg" width="24" height="24" viewBox="0 0 24 24"><path d="M16.186 6H6.812A.803.803 0 0 0 6 6.793v9.413c0 .438.364.794.812.794h9.374a.805.805 0 0 0 .814-.794V6.793A.804.804 0 0 0 16.186 6zm-6.924 9.373H7.631v-5.249h1.631v5.25zm-.815-5.967a.946.946 0 1 1 0-1.892.946.946 0 0 1 0 1.892zm6.926 5.967h-1.63v-2.552c0-.61-.011-1.392-.848-1.392-.849 0-.979.663-.979 1.348v2.596h-1.63v-5.249h1.565v.717h.022c.217-.412.75-.848 1.543-.848 1.652 0 1.957 1.088 1.957 2.5v2.88z"/><circle fill="none" stroke="currentColor" stroke-miterlimit="10" cx="11.5" cy="11.5" r="11"/></svg>