<svg width="24" height="24" viewBox="0 0 24 24" version="1.1" xmlns="http://www.w3.org/2000/svg">
    <title>
        system-instagram-small
    </title>
    <g stroke="none" stroke-width="1" fill="none" fill-rule="evenodd">
        <circle stroke="currentColor" cx="11.5" cy="11.5" r="11"/>
        <path d="M12.1458908,6.00059291 C13.067236,6.00267809 13.2787817,6.01079243 13.767643,6.03309774 C14.3530538,6.05979863 14.7528685,6.15278233 15.102709,6.28875379 C15.4643826,6.42928821 15.7711044,6.61735151 16.0768874,6.92311265 C16.3826485,7.22889562 16.5707118,7.53561739 16.711268,7.89729101 C16.8472177,8.24713154 16.9402014,8.64694616 16.9669023,9.23235703 C16.9936686,9.81899051 17,10.0062897 17,11.5000109 C17,12.9937103 16.9936686,13.1810095 16.9669023,13.767643 C16.9402014,14.3530538 16.8472177,14.7528685 16.711268,15.102709 C16.5707118,15.4643826 16.3826485,15.7711044 16.0768874,16.0768874 C15.7711044,16.3826485 15.4643826,16.5707118 15.102709,16.711268 C14.7528685,16.8472177 14.3530538,16.9402014 13.767643,16.9669023 C13.1810095,16.9936686 12.9937103,17 11.5000109,17 C10.0062897,17 9.81899051,16.9936686 9.23235703,16.9669023 C8.64694616,16.9402014 8.24713154,16.8472177 7.89729101,16.711268 C7.53561739,16.5707118 7.22889562,16.3826485 6.92311265,16.0768874 C6.61735151,15.7711044 6.42928821,15.4643826 6.28875379,15.102709 C6.15278233,14.7528685 6.05979863,14.3530538 6.03309774,13.767643 C6.01079243,13.2787817 6.00267809,13.067236 6.00059291,12.1458908 L6.00059291,10.8541218 C6.00267809,9.93276401 6.01079243,9.72121827 6.03309774,9.23235703 C6.05979863,8.64694616 6.15278233,8.24713154 6.28875379,7.89729101 C6.42928821,7.53561739 6.61735151,7.22889562 6.92311265,6.92311265 C7.22889562,6.61735151 7.53561739,6.42928821 7.89729101,6.28875379 C8.24713154,6.15278233 8.64694616,6.05979863 9.23235703,6.03309774 C9.72121827,6.01079243 9.93276401,6.00267809 10.8541218,6.00059291 Z M11.5000109,6.99098922 C10.0314405,6.99098922 9.85748083,6.99660012 9.27752803,7.02306085 C8.74128346,7.04751301 8.45006262,7.1371127 8.25625743,7.21243408 C7.9995316,7.31220762 7.81631507,7.43139006 7.62386348,7.62386348 C7.43139006,7.81631507 7.31220762,7.9995316 7.21243408,8.25625743 C7.1371127,8.45006262 7.04751301,8.74128346 7.02306085,9.27752803 C6.99660012,9.85748083 6.99098922,10.0314405 6.99098922,11.5000109 C6.99098922,12.9685595 6.99660012,13.1425192 7.02306085,13.722472 C7.04751301,14.2587165 7.1371127,14.5499374 7.21243408,14.7437426 C7.31220762,15.0004684 7.43141189,15.1836849 7.62386348,15.3761365 C7.81631507,15.5686099 7.9995316,15.6877924 8.25625743,15.7875659 C8.45006262,15.8628873 8.74128346,15.952487 9.27752803,15.9769392 C9.85741534,16.0033999 10.0313313,16.0090108 11.5000109,16.0090108 C12.9686687,16.0090108 13.1426065,16.0033999 13.722472,15.9769392 C14.2587165,15.952487 14.5499374,15.8628873 14.7437426,15.7875659 C15.0004684,15.6877924 15.1836849,15.5686099 15.3761365,15.3761365 C15.5686099,15.1836849 15.6877924,15.0004684 15.7875659,14.7437426 C15.8628873,14.5499374 15.952487,14.2587165 15.9769392,13.722472 C16.0033999,13.1425192 16.0090108,12.9685595 16.0090108,11.5000109 C16.0090108,10.0314405 16.0033999,9.85748083 15.9769392,9.27752803 C15.952487,8.74128346 15.8628873,8.45006262 15.7875659,8.25625743 C15.6877924,7.9995316 15.5686099,7.81631507 15.3761365,7.62386348 C15.1836849,7.43139006 15.0004684,7.31220762 14.7437426,7.21243408 C14.5499374,7.1371127 14.2587165,7.04751301 13.722472,7.02306085 C13.1425192,6.99660012 12.9685595,6.99098922 11.5000109,6.99098922 Z M11.5000109,8.67567745 C13.0598403,8.67567745 14.3243226,9.94015969 14.3243226,11.5000109 C14.3243226,13.0598403 13.0598403,14.3243226 11.5000109,14.3243226 C9.94015969,14.3243226 8.67567745,13.0598403 8.67567745,11.5000109 C8.67567745,9.94015969 9.94015969,8.67567745 11.5000109,8.67567745 Z M11.5000109,9.66666667 C10.4874732,9.66666667 9.66666667,10.4874732 9.66666667,11.5000109 C9.66666667,12.5125268 10.4874732,13.3333333 11.5000109,13.3333333 C12.5125268,13.3333333 13.3333333,12.5125268 13.3333333,11.5000109 C13.3333333,10.4874732 12.5125268,9.66666667 11.5000109,9.66666667 Z M14.4359074,7.90408085 C14.8004192,7.90408085 15.0959191,8.19958082 15.0959191,8.56409264 C15.0959191,8.92860446 14.8004192,9.2240826 14.4359074,9.2240826 C14.0714174,9.2240826 13.7759174,8.92860446 13.7759174,8.56409264 C13.7759174,8.19958082 14.0714174,7.90408085 14.4359074,7.90408085 Z" fill="currentColor" fill-rule="nonzero"/>
    </g>
</svg>
