<svg width="24" height="24" viewBox="0 0 24 24" version="1.1" xmlns="http://www.w3.org/2000/svg">
    <title>
        system-wechat-small
    </title>
    <g stroke="none" stroke-width="1" fill="none" fill-rule="evenodd">
        <circle stroke="currentColor" cx="11.5" cy="11.5" r="11"/>
        <path d="M11.1,10.9 C13.2,8.9 17.3,9.5 18.3,12.3 C18.6,13 18.6,13.7 18.3,14.3 C18.2,14.6 18,15 17.7,15.3 C17.5,15.5 17.4,15.6 17.2,15.8 C17,15.9 16.8,16 16.8,16.2 C16.8,16.4 17.5,17.7 17.6,17.9 C17.2,17.7 16,16.6 15.6,16.7 C14,17.2 12.4,16.8 11.2,15.8 C10.3,15 9.9,13.9 10.1,12.7 C10.2,12 10.6,11.4 11.1,10.9 Z M8.8,6 C11,5.8 13.6,6.9 14.3,9.2 L14.3,9.2 L14.2,9.2 C12.9,9.2 11.7,9.6 10.7,10.5 C10.1,11 9.6,11.8 9.4,12.6 C9.3,13.2 9.4,13.8 9.7,14.5 C9.2,14.5 8.6,14.4 8.1,14.3 C7.9,14.2 7.7,14.2 7.6,14.3 C7.5,14.3 5.9,15.5 5.5,15.7 C5.6,15.3 6.5,13.5 6.3,13.4 C5.9,13.1 5.5,12.8 5.2,12.4 C4.3,11.2 4.2,9.6 5,8.3 C5.9,7 7.3,6.2 8.8,6 Z M12.5,11.6 C11.4,11.6 11.7,13.4 12.8,13.1 C13.8,12.8 13.4,11.6 12.5,11.6 Z M15.6,11.6 C14.5,11.6 14.8,13.4 15.9,13.1 C16.9,12.8 16.6,11.6 15.6,11.6 Z M11.4,7.9 C10.9,7.9 10.5,8.2 10.5,8.7 C10.5,9.2 10.9,9.5 11.4,9.5 C11.9,9.5 12.2,9.1 12.2,8.7 C12.2,8.2 11.8,7.9 11.4,7.9 Z M7.8,8 C7.3,7.9 6.9,8.3 6.9,8.7 C6.9,9.2 7.3,9.5 7.8,9.5 C8.2,9.5 8.5,9.2 8.5,8.8 C8.6,8.4 8.2,8 7.8,8 Z" fill="currentColor" fill-rule="nonzero"/>
    </g>
</svg>
