<svg id="system-wechat-large" xmlns="http://www.w3.org/2000/svg" width="48" height="48" viewBox="0 0 48 48">
  <title>system-wechat</title>
  <g class="audiicon-group audiicon-group--large">
    <circle cx="23.5" cy="23.5" r="22" fill="none" stroke="currentColor" stroke-miterlimit="10" class="audiicon-system-wechat__circle"/>
    <g class="audiicon-system-wechat__bubbles">
      <path d="M19.0533,25.419A8.0429,8.0429,0,0,1,21.49,21.1343a10.3505,10.3505,0,0,1,7.0537-2.6338c.0551,0,.1086.0048.1635.0055-1.4392-4.4585-6.7368-6.6825-11.1511-6.177a10.0385,10.0385,0,0,0-7.4772,4.48,7.3451,7.3451,0,0,0,.3752,8.2188,10.434,10.434,0,0,0,2.1155,2.0811c.3606.2713.3862.26.2557.6525l-.17.5115q-.3485,1.0481-.697,2.0961l2.457-1.2319.6331-.3175a1.1508,1.1508,0,0,1,.9643-.07,14.8123,14.8123,0,0,0,3.2633.3547A7.49,7.49,0,0,1,19.0533,25.419Zm3.5775-9.061a1.3519,1.3519,0,0,1,0,2.7032,1.5307,1.5307,0,0,1-1.6242-1.354A1.5248,1.5248,0,0,1,22.6308,16.358ZM15.689,19.0611A1.5336,1.5336,0,0,1,14.06,17.7072a1.53,1.53,0,0,1,1.6288-1.3491A1.3518,1.3518,0,0,1,15.689,19.0611Z" transform="translate(0)" class="audiicon-system-wechat__bubble-full"/>
      <path d="M36.6678,24.9114C34.69,19.2366,26.47,18.1551,22.3362,22.0349a6.8713,6.8713,0,0,0-2.07,3.6256,6.6493,6.6493,0,0,0,2.1934,6.2023,9.4583,9.4583,0,0,0,8.6984,1.8277c.8844-.2156,2.3184.9516,3.12,1.3911Q34.1,34.4909,33.9225,33.9a4.4341,4.4341,0,0,1-.3427-1.1386c.0126-.3484.4917-.5782.7832-.8389a10.38,10.38,0,0,0,.9983-1.0188,7.3638,7.3638,0,0,0,1.2677-2.0675A5.6542,5.6542,0,0,0,36.6678,24.9114Zm-10.3728.7865c-1.6794.48-2.1057-2.1428-.4634-2.1428C27.2075,23.5551,27.762,25.2788,26.295,25.6979Zm5.453,0c-1.6727.4783-2.0915-2.1436-.4608-2.1436C32.6656,23.5547,33.2153,25.2788,31.748,25.6983Z" transform="translate(0)" class="audiicon-system-wechat__bubble-cut"/>
    </g>
  </g>
  <rect width="48" height="48" fill="none"/>
</svg>
