<svg width="48" height="48" viewBox="0 0 48 48" version="1.1" xmlns="http://www.w3.org/2000/svg">
    <title>
        system-compare-large
    </title>
    <g stroke="none" stroke-width="1" fill="none" fill-rule="evenodd">
        <path d="M23.5,45.5 C35.6502645,45.5 45.5,35.6502645 45.5,23.5 C45.5,11.3497355 35.6502645,1.5 23.5,1.5 C11.3497355,1.5 1.5,11.3497355 1.5,23.5 C1.5,35.6502645 11.3497355,45.5 23.5,45.5 Z M23.5,9 L23.5,38" stroke="currentColor"/>
        <path d="M31.822,17.5 C34.664,17.5 36.148,18.48 36.148,20.328 C36.148,21.49 35.532,22.134 34.51,22.47 C35.868,22.82 36.652,23.534 36.652,24.808 C36.652,26.656 35.168,27.636 32.326,27.636 L28,27.636 L28,17.5 L31.822,17.5 Z M15.304,17.5 L20.372,27.636 L18.762,27.636 L17.502,25.13 L11.398,25.13 L10.152,27.636 L8.57,27.636 L13.638,17.5 L15.304,17.5 Z M32.018,23.128 L29.442,23.128 L29.442,26.474 L32.018,26.474 C34.076,26.474 35.168,26.11 35.168,24.808 C35.168,23.506 34.076,23.128 32.018,23.128 Z M14.45,18.83 L11.916,23.954 L16.984,23.954 L14.45,18.83 Z M31.514,18.662 L29.442,18.662 L29.442,22.008 L31.514,22.008 C33.572,22.008 34.664,21.63 34.664,20.328 C34.664,19.026 33.572,18.662 31.514,18.662 Z" fill="currentColor" fill-rule="nonzero"/>
    </g>
</svg>
