<svg width="48" height="48" viewBox="0 0 48 48" version="1.1" xmlns="http://www.w3.org/2000/svg">
    <title>
        system-audio-off-large
    </title>
    <path d="M14.5,20.5 L18.5,20.5 L18.5,26.5 L14.5,26.5 L14.5,20.5 Z M18.5,26.5 L22.5,29.4 L22.5,17.6 L18.5,20.5 M26,19.9 C27.9,21.9 27.9,25 26,27 M28.5,17.3 C28.5,17.3 35.2,23.2 28.5,29.6 M14,32.1 L27.9,14 L14,32.1 Z M23.5,45.5 C35.6502645,45.5 45.5,35.6502645 45.5,23.5 C45.5,11.3497355 35.6502645,1.5 23.5,1.5 C11.3497355,1.5 1.5,11.3497355 1.5,23.5 C1.5,35.6502645 11.3497355,45.5 23.5,45.5 Z" stroke="currentColor" stroke-width="1" fill="none" fill-rule="evenodd"/>
</svg>
