<svg width="48" height="48" viewBox="0 0 48 48" version="1.1" xmlns="http://www.w3.org/2000/svg">
    <title>
        system-youtube-large
    </title>
    <g stroke="none" stroke-width="1" fill="none" fill-rule="evenodd">
        <circle stroke="currentColor" cx="23.5" cy="23.5" r="22"/>
        <path d="M37.7,17.9 C37.7,17.9 37.4,15.9 36.5,15 C35.4,13.8 34.2,13.8 33.6,13.8 C29.5,13.5 23.5,13.5 23.5,13.5 L23.5,13.5 C23.5,13.5 17.4,13.5 13.4,13.8 C12.8,13.9 11.6,13.9 10.5,15 C9.6,15.9 9.3,17.9 9.3,17.9 C9.3,17.9 9,20.2 9,22.5 L9,24.7 C9,27 9.3,29.4 9.3,29.4 C9.3,29.4 9.6,31.4 10.5,32.3 C11.6,33.5 13.1,33.4 13.7,33.5 C16,33.7 23.6,33.8 23.6,33.8 C23.6,33.8 29.7,33.8 33.8,33.5 C34.4,33.4 35.6,33.4 36.7,32.3 C37.6,31.4 37.9,29.4 37.9,29.4 C37.9,29.4 38.2,27.1 38.2,24.7 L38.2,22.5 C38,20.2 37.7,17.9 37.7,17.9 Z M20.5,27.4 L20.5,19.3 L28.3,23.4 C28.3,23.4 20.5,27.4 20.5,27.4 Z" fill="currentColor" fill-rule="nonzero"/>
    </g>
</svg>
