<svg xmlns="http://www.w3.org/2000/svg" width="48" height="48" viewBox="0 0 48 48"><path d="M31.806 12H15.194A3.194 3.194 0 0 0 12 15.194v16.612A3.194 3.194 0 0 0 15.194 35h16.612A3.194 3.194 0 0 0 35 31.806V15.194A3.194 3.194 0 0 0 31.806 12zm-8.266 6.988a4.472 4.472 0 1 1-4.472 4.472 4.472 4.472 0 0 1 4.472-4.472zM32 31.766c0 .352.198.234-.154.234H15.234c-.352 0-.234.118-.234-.234V22h1.777a3.351 3.351 0 0 0-.265 1.688 6.931 6.931 0 0 0 7.028 6.914 6.884 6.884 0 0 0 7.028-6.857A3.63 3.63 0 0 0 30.303 22H32v9.766zm0-13.405a.639.639 0 0 1-.639.639H28.64a.639.639 0 0 1-.639-.639V15.64a.639.639 0 0 1 .639-.639h2.722a.639.639 0 0 1 .639.639v2.722z"/><circle cx="23.5" cy="23.5" r="22" fill="none" stroke="currentColor" stroke-miterlimit="10"/></svg>