<svg width="48" height="48" viewBox="0 0 48 48" version="1.1" xmlns="http://www.w3.org/2000/svg">
    <title>
        system-snapchat-large
    </title>
    <g stroke="none" stroke-width="1" fill="none" fill-rule="evenodd">
        <circle stroke="currentColor" cx="23.5" cy="23.5" r="22"/>
        <path d="M37.691151,30.4851188 C37.6041771,30.1541925 37.3238579,30.0733345 37.0336034,30.0084114 C34.2198452,29.3796908 32.5436073,27.4760165 31.4291906,24.9642896 C31.2027274,24.4537401 31.3588546,24.0948093 31.8284188,23.7858922 C32.1927155,23.5462368 32.606137,23.415444 33.01877,23.2870178 C33.5345416,23.126485 34.0313887,22.923906 34.4403156,22.5599265 C35.0317852,22.0333632 34.9610549,21.2983044 34.2789054,20.8933042 C33.777958,20.5958255 33.2521722,20.5163086 32.7050964,20.7774209 C32.3605127,20.9418191 32.0008683,21.0660643 31.6175683,21.0791594 C31.3220306,21.0893357 31.1213521,21.051786 31.1543122,20.6218579 C31.2224404,19.7331294 31.3150917,18.8416399 31.2692786,18.0905673 C31.2692786,17.657326 31.2689632,17.3681303 31.2692786,17.0788558 C31.2726692,14.4908463 30.0677303,12.5672138 27.9556769,11.1845807 C26.4181399,10.1780756 24.6822899,9.92193314 22.8768923,10.0191206 C21.2116149,10.1088138 19.6791244,10.5907277 18.3824805,11.6563973 C16.9707126,12.816651 15.9962584,14.2542675 15.8017302,16.1311995 C15.64513,17.6413911 15.7507129,19.1500049 15.8493569,20.6559366 C15.8724606,21.0096609 15.7296594,21.0626722 15.4711823,21.080816 C15.0145498,21.1128437 14.5885119,20.9884406 14.1840006,20.7927247 C13.6899134,20.5536216 13.2168008,20.6204379 12.7585913,20.8733461 C12.0411161,21.2691955 11.9740129,22.0533213 12.5996255,22.5859588 C12.9969612,22.9242216 13.4651849,23.1219096 13.9528063,23.2784981 C14.3017268,23.3906738 14.6497011,23.5011141 14.9760699,23.6715076 C15.6616889,24.0294129 15.8356366,24.4449838 15.503827,25.1514859 C14.3463571,27.6154867 12.6366859,29.452818 9.85415321,30.0512464 C9.29722081,30.1709952 9.12808311,30.6034477 9.42338421,31.0900948 C9.60837121,31.3949887 9.90185871,31.5719298 10.209855,31.7211819 C10.9575306,32.0836626 11.7595352,32.2922369 12.5743139,32.388241 C13.0534193,32.4448022 13.1970878,32.6688381 13.2851656,33.0818058 C13.5700582,34.4182117 13.6637345,34.4570235 14.9975177,34.2016699 C16.5240154,33.9093188 17.9737112,34.0277265 19.2337677,35.0755678 C19.5248108,35.3175109 19.8495237,35.5219042 20.1714769,35.723221 C22.3863534,37.1083784 24.6085632,37.1135849 26.823834,35.7285064 C27.3790316,35.3814084 27.9086811,34.9938421 28.4544953,34.6314403 C28.9925032,34.2742449 29.5920156,34.124204 30.233714,34.0866543 C31.0406864,34.0393227 31.8284188,34.1505519 32.6169398,34.2957019 C33.1486394,34.3935204 33.4421269,34.2045887 33.5846127,33.6876494 C33.6678805,33.3855954 33.7277292,33.0771515 33.8005097,32.7721786 C33.8460862,32.5811959 33.9340852,32.4666536 34.1614158,32.4309183 C34.6898037,32.3480881 35.217403,32.2441954 35.7341997,32.1069339 C36.3282714,31.9491621 36.916508,31.753604 37.3849683,31.3272257 C37.6280693,31.1061086 37.7819098,30.8301657 37.691151,30.4851188" fill="currentColor" fill-rule="nonzero"/>
    </g>
</svg>
