<svg width="48" height="48" viewBox="0 0 48 48" version="1.1" xmlns="http://www.w3.org/2000/svg">
    <title>
        system-code-large
    </title>
    <g stroke="currentColor" stroke-width="1" fill="none" fill-rule="evenodd">
        <path d="M31.5,31.5 L34.5,31.5 L34.5,34.5 L31.5,34.5 L31.5,31.5 Z M25.5,31.5 L28.5,31.5 L28.5,34.5 L25.5,34.5 L25.5,31.5 Z M31.5,25.5 L34.5,25.5 L34.5,28.5 L31.5,28.5 L31.5,25.5 Z M25.5,25.5 L28.5,25.5 L28.5,28.5 L25.5,28.5 L25.5,25.5 Z M15.5,27.5 L20.5,27.5 L20.5,32.5 L15.5,32.5 L15.5,27.5 Z M13.5,25.5 L22.5,25.5 L22.5,34.5 L13.5,34.5 L13.5,25.5 Z M27.5,15.5 L32.5,15.5 L32.5,20.5 L27.5,20.5 L27.5,15.5 Z M25.5,13.5 L34.5,13.5 L34.5,22.5 L25.5,22.5 L25.5,13.5 Z M15.5,15.5 L20.5,15.5 L20.5,20.5 L15.5,20.5 L15.5,15.5 Z M13.5,13.5 L22.5,13.5 L22.5,22.5 L13.5,22.5 L13.5,13.5 Z"/>
        <circle cx="23.5" cy="23.5" r="22"/>
    </g>
</svg>
