<svg width="24" height="24" viewBox="0 0 24 24" version="1.1" xmlns="http://www.w3.org/2000/svg">
    <title>
        system-line-me-small
    </title>
    <g stroke="none" stroke-width="1" fill="none" fill-rule="evenodd">
        <circle stroke="currentColor" cx="11.5" cy="11.5" r="11"/>
        <path d="M16.6481845,10.0541905 C16.6481845,10.1336438 16.5829158,10.1979799 16.5022828,10.1979799 L15.072923,10.1979799 L15.072923,10.7413795 L16.5022828,10.7413795 C16.5829158,10.7413795 16.6481845,10.8058327 16.6481845,10.8851688 L16.6481845,11.4027871 C16.6481845,11.4822404 16.5829158,11.5465765 16.5022828,11.5465765 L15.072923,11.5465765 L15.072923,12.0900933 L16.5022828,12.0900933 C16.5829158,12.0900933 16.6481845,12.1544294 16.6481845,12.2337655 L16.6481845,12.751501 C16.6481845,12.8308371 16.5829158,12.8952903 16.5022828,12.8952903 L14.4008226,12.8952903 L14.4004653,12.8952903 C14.3613994,12.8952903 14.3257875,12.8798215 14.2995847,12.8550949 C14.2988701,12.8543918 14.2981555,12.8536887 14.29756,12.8531027 C14.2968453,12.8523996 14.2961307,12.8516965 14.2955352,12.8509934 C14.2702853,12.825212 14.2545636,12.7902901 14.2545636,12.7517353 L14.2545636,12.751501 L14.2545636,9.5365722 L14.2545636,9.53645501 C14.2545636,9.49801743 14.2701662,9.46321267 14.2951779,9.43743136 C14.2958925,9.43661105 14.2967262,9.43579074 14.29756,9.43485323 C14.2980364,9.43438448 14.2986319,9.43391573 14.2991083,9.43332979 C14.3255493,9.40825161 14.3611612,9.39278283 14.4004653,9.39278283 L14.4008226,9.39278283 L16.5022828,9.39278283 C16.5829158,9.39278283 16.6481845,9.45723609 16.6481845,9.5365722 L16.6481845,10.0541905 Z M13.7431337,12.7517353 C13.7431337,12.8309542 13.677865,12.8951731 13.5971129,12.8951731 L13.0711524,12.8951731 C13.058051,12.8951731 13.0455451,12.8934153 13.0336348,12.8902512 C13.0329202,12.8901341 13.0323247,12.8898997 13.03161,12.8897825 C13.028156,12.888845 13.0250594,12.8877903 13.0216054,12.8866184 C13.020057,12.8862669 13.0187469,12.8855637 13.0173176,12.8849778 C13.0146974,12.8840403 13.0125535,12.8829856 13.0101714,12.8820481 C13.0077894,12.8811106 13.0054073,12.8799387 13.0031443,12.8786497 C13.0017151,12.8779465 13.000405,12.8772434 12.9989757,12.8764231 C12.995879,12.8748997 12.9930205,12.8729075 12.990043,12.8711496 C12.9895665,12.8706809 12.9888519,12.8703293 12.9883755,12.8699778 C12.9744404,12.8607199 12.9616963,12.848884 12.9514535,12.8345871 L11.4519418,10.8420437 L11.4519418,12.7517353 C11.4519418,12.8309542 11.3864349,12.8951731 11.3058019,12.8951731 L10.7798414,12.8951731 C10.6992084,12.8951731 10.6337015,12.8309542 10.6337015,12.7517353 L10.6337015,9.53633783 C10.6337015,9.45711891 10.6992084,9.39278283 10.7798414,9.39278283 L11.3058019,9.39278283 C11.3074694,9.39278283 11.3091368,9.39301721 11.3108043,9.39301721 C11.3134245,9.39313439 11.3159257,9.39325158 11.3184269,9.39348596 C11.3210472,9.39372033 11.3236674,9.39395471 11.3260495,9.39442346 C11.3281934,9.39465784 11.3303372,9.39489221 11.3322429,9.39524377 C11.3352205,9.39582971 11.3378407,9.39641565 11.3406992,9.39711878 C11.3424858,9.39758753 11.3441532,9.39793909 11.3457016,9.39840784 C11.3487982,9.39922816 11.3515376,9.40016566 11.3545152,9.40122035 C11.3560636,9.4016891 11.3574928,9.40227504 11.3591602,9.40286098 C11.3621378,9.40391567 11.3648772,9.40508755 11.3676166,9.40637661 C11.3691649,9.40707974 11.3705942,9.40778286 11.3721425,9.40860318 C11.3748819,9.40977506 11.3773831,9.4112985 11.3800033,9.41282194 C11.3815517,9.41364225 11.3829809,9.41446257 11.3844102,9.41540007 C11.3870304,9.4170407 11.3895316,9.41879851 11.3919137,9.42055633 C11.3932238,9.42149383 11.3946531,9.42243133 11.395725,9.42348602 C11.3984644,9.42547821 11.4010846,9.42758759 11.4035858,9.42981416 C11.4045386,9.43063447 11.4052533,9.43157198 11.4062061,9.4322751 C11.4093028,9.43508761 11.4121613,9.4380173 11.4150197,9.44118137 L11.4159726,9.44211887 C11.4200221,9.4466892 11.4239525,9.45149389 11.4274065,9.45665016 L12.9250125,11.4466153 L12.9250125,9.53633783 C12.9250125,9.45711891 12.9904003,9.39278283 13.0711524,9.39278283 L13.5971129,9.39278283 C13.677865,9.39278283 13.7431337,9.45711891 13.7431337,9.53633783 L13.7431337,12.7517353 Z M10.1221524,12.7517353 C10.1221524,12.8309542 10.0567647,12.8951731 9.97601258,12.8951731 L9.44993291,12.8951731 C9.36941901,12.8951731 9.30391215,12.8309542 9.30391215,12.7517353 L9.30391215,9.53633783 C9.30391215,9.45711891 9.36941901,9.39278283 9.44993291,9.39278283 L9.97601258,9.39278283 C10.0567647,9.39278283 10.1221524,9.45711891 10.1221524,9.53633783 L10.1221524,12.7517353 Z M8.85393954,12.7513838 C8.85393954,12.8308371 8.78867089,12.8951731 8.70803789,12.8951731 L6.60633948,12.8951731 L6.60622037,12.8951731 C6.56691625,12.8951731 6.53166165,12.8799387 6.5053398,12.8550949 C6.50462518,12.8543918 6.50391056,12.8538059 6.50319594,12.8531027 C6.50236222,12.8523996 6.5017667,12.8516965 6.50117118,12.8509934 C6.47592126,12.825212 6.46031872,12.7901729 6.46031872,12.7516181 L6.46031872,12.7513838 L6.46031872,9.53645501 C6.46031872,9.45711891 6.52582558,9.39278283 6.60633948,9.39278283 L7.13253825,9.39278283 C7.21317125,9.39278283 7.27855901,9.45711891 7.27855901,9.53645501 L7.27855901,12.0900933 L8.70803789,12.0900933 C8.78867089,12.0900933 8.85393954,12.1544294 8.85393954,12.2337655 L8.85393954,12.7513838 Z M19,10.9885284 C19,7.68641199 15.6355674,5 11.4999404,5 C7.36478986,5 4,7.68641199 4,10.9885284 C4,13.9488082 6.66815414,16.4279151 10.2723418,16.8966661 C10.5166229,16.9485802 10.8490404,17.0552211 10.9331274,17.2606512 C11.008639,17.4470969 10.9825553,17.7394804 10.9574245,17.9279183 C10.9574245,17.9279183 10.869288,18.4484663 10.8503506,18.5595602 C10.8177162,18.746006 10.6996848,19.2891712 11.4999404,18.9574127 C12.3005534,18.6255369 15.8192249,16.4549854 17.3926998,14.6730285 L17.3923424,14.6730285 C18.4793991,13.5002135 19,12.3100547 19,10.9885284 L19,10.9885284 Z" fill="currentColor" fill-rule="nonzero"/>
    </g>
</svg>
