<svg width="24" height="24" viewBox="0 0 24 24" version="1.1" xmlns="http://www.w3.org/2000/svg">
    <title>
        system-linkedin-small
    </title>
    <g stroke="none" stroke-width="1" fill="none" fill-rule="evenodd">
        <path d="M16.2,6 L6.8,6 C6.4,6 6,6.3 6,6.8 L6,16.2 C6,16.6 6.4,17 6.8,17 L16.2,17 C16.6,17 17,16.6 17,16.2 L17,6.8 C17,6.3 16.6,6 16.2,6 Z M9.3,15.4 L7.6,15.4 L7.6,10.2 L9.2,10.2 L9.3,15.4 L9.3,15.4 Z M8.4,9.4 C7.9,9.4 7.5,9 7.5,8.5 C7.5,8 7.9,7.6 8.4,7.6 C8.9,7.6 9.3,8 9.3,8.5 C9.3,9 9,9.4 8.4,9.4 Z M15.4,15.4 L13.8,15.4 L13.8,12.8 C13.8,12.2 13.8,11.4 13,11.4 C12.2,11.4 12,12.1 12,12.7 L12,15.3 L10.4,15.3 L10.4,10.1 L12,10.1 L12,10.8 L12,10.8 C12.2,10.4 12.8,10 13.5,10 C15.2,10 15.5,11.1 15.5,12.5 C15.4,12.5 15.4,15.4 15.4,15.4 Z" fill="currentColor" fill-rule="nonzero"/>
        <circle stroke="currentColor" cx="11.5" cy="11.5" r="11"/>
    </g>
</svg>
