<svg width="48" height="48" viewBox="0 0 48 48" version="1.1" xmlns="http://www.w3.org/2000/svg">
    <title>
        system-sync-large
    </title>
    <path d="M23.5,45.5 C35.6502645,45.5 45.5,35.6502645 45.5,23.5 C45.5,11.3497355 35.6502645,1.5 23.5,1.5 C11.3497355,1.5 1.5,11.3497355 1.5,23.5 C1.5,35.6502645 11.3497355,45.5 23.5,45.5 Z M17.7,26.3 L15.5,28.5 L17.7,30.7 M15.5,28.5 L28.8,28.5 C32,28.5 34.6,25.8 34.5,22.6 L34.5,22 M30.3,20.7 L32.5,18.5 L30.3,16.3 M32.5,18.5 L19.2,18.5 C16,18.5 13.4,21.2 13.5,24.4 L13.5,25" stroke="currentColor" stroke-width="1" fill="none" fill-rule="evenodd"/>
</svg>
