<svg xmlns="http://www.w3.org/2000/svg" width="48" height="48" viewBox="0 0 48 48"><path d="M36.278 18.324q-.178 3.88-5.421 10.626-5.421 7.044-9.173 7.045-2.325 0-3.932-4.29l-2.145-7.867q-1.194-4.289-2.561-4.29a8.224 8.224 0 0 0-2.086 1.251l-1.25-1.61q1.967-1.729 3.878-3.459 2.625-2.267 3.94-2.387 3.102-.298 3.819 4.242.774 4.898 1.074 6.09.896 4.065 1.97 4.063.834 0 2.507-2.636a10.384 10.384 0 0 0 1.79-4.013q.238-2.275-1.79-2.277a4.983 4.983 0 0 0-1.968.436q1.96-6.417 7.486-6.238 4.097.12 3.862 5.314z" fill="currentColor"/><circle cx="23.5" cy="23.5" r="22" fill="none" stroke="currentColor" stroke-miterlimit="10"/></svg>