<svg width="48" height="48" viewBox="0 0 48 48" version="1.1" xmlns="http://www.w3.org/2000/svg">
    <title>
        system-wechat-large
    </title>
    <g stroke="none" stroke-width="1" fill="none" fill-rule="evenodd">
        <circle stroke="currentColor" cx="23.5" cy="23.5" r="22"/>
        <path d="M22.4,22 C26.5,18.1 34.7,19.2 36.7,24.9 C37.1,26.2 37.1,27.6 36.7,28.8 C36.4,29.6 35.9,30.3 35.4,30.9 C35.1,31.2 34.8,31.6 34.4,31.9 C34.1,32.1 33.6,32.4 33.6,32.7 C33.6,33.1 33.7,33.4 33.9,33.8 L33.9,33.8 L34.3,35 C33.5,34.6 32.1,33.4 31.2,33.6 C28.2,34.5 24.9,33.8 22.5,31.8 C20.7,30.3 19.9,27.9 20.3,25.6 C20.6,24.2 21.4,23 22.4,22 Z M17.7,12.3 C22.1,11.8 27.4,14 28.8,18.5 L28.8,18.5 L28.6,18.5 C26,18.4 23.4,19.4 21.5,21.1 C20.3,22.3 19.4,23.8 19.1,25.4 C18.8,26.6 18.9,27.9 19.4,29.2 C18.3,29.2 17.2,29 16.1,28.8 C15.7,28.7 15.4,28.7 15.1,28.9 L15.1,28.9 L14.5,29.2 L12,30.4 L12.8,28.3 L13,27.8 C13.1,27.4 13.1,27.4 12.7,27.1 C11.9,26.5 11.2,25.8 10.6,25 C8.8,22.6 8.6,19.4 10.2,16.8 C11.9,14.2 14.7,12.6 17.7,12.3 Z M25.8,23.6 C24.2,23.6 24.6,26.2 26.3,25.7 C27.8,25.3 27.2,23.6 25.8,23.6 Z M31.2,23.6 C29.6,23.6 30,26.2 31.7,25.7 C33.2,25.3 32.7,23.6 31.2,23.6 Z M22.6,16.4 C21.8,16.3 21.1,16.9 21,17.7 C21.1,18.6 21.8,19.2 22.6,19.1 C23.3,19.1 23.9,18.5 23.9,17.8 C23.9,17 23.3,16.4 22.6,16.4 Z M15.7,16.4 C14.9,16.3 14.2,16.9 14.1,17.7 C14.2,18.6 14.9,19.2 15.7,19.1 C16.4,19 17,18.5 17,17.8 C17,17 16.4,16.4 15.7,16.4 Z" fill="currentColor" fill-rule="nonzero"/>
    </g>
</svg>
