<svg width="48" height="48" viewBox="0 0 48 48" version="1.1" xmlns="http://www.w3.org/2000/svg">
    <title>
        system-paragraph-large
    </title>
    <g stroke="none" stroke-width="1" fill="none" fill-rule="evenodd">
        <circle stroke="currentColor" cx="23.5" cy="23.5" r="22"/>
        <path d="M23.2727068,30 C22.7149095,30 22.1675465,29.936141 21.6306015,29.8084211 C21.0936565,29.6807011 20.6323077,29.509976 20.2465414,29.2962406 L20.2465414,28.3852632 C20.6818318,28.6146377 21.1607743,28.7970921 21.6833835,28.9326316 C22.2059926,29.0681711 22.7461877,29.1359398 23.303985,29.1359398 C23.9217324,29.1359398 24.4228302,29.0825068 24.8072932,28.9756391 C25.1917563,28.8687714 25.4699991,28.7182466 25.6420301,28.5240602 C25.814061,28.3298737 25.9000752,28.0959412 25.9000752,27.8222556 C25.9000752,27.543357 25.8336097,27.3126826 25.7006767,27.1302256 C25.5677437,26.9477685 25.3123077,26.7685723 24.9343609,26.5926316 C24.5564142,26.4166908 23.9816831,26.212733 23.2101504,25.9807519 C22.2379149,25.6914271 21.5054912,25.4144875 21.0128571,25.1499248 C20.5202231,24.8853621 20.1865924,24.6038611 20.0119549,24.3054135 C19.8373174,24.0069659 19.75,23.632283 19.75,23.1813534 C19.75,22.7173912 19.8979183,22.2768943 20.1937594,21.8598496 C20.4896005,21.4428049 20.8056374,21.1300261 21.1418797,20.9215038 C20.8447354,20.7234075 20.6160158,20.4933848 20.4557143,20.2314286 C20.2954127,19.9694724 20.2152632,19.6338868 20.2152632,19.2246617 C20.2152632,18.7867647 20.3410263,18.4010042 20.5925564,18.0673684 C20.8440865,17.7337327 21.2272405,17.472432 21.7420301,17.2834586 C22.2568196,17.0944853 22.8947581,17 23.6558647,17 C24.1615314,17 24.6795713,17.058646 25.21,17.1759398 C25.7404287,17.2932337 26.2050356,17.4418036 26.6038346,17.6216541 L26.6038346,18.5365414 C26.1450854,18.3384451 25.6609299,18.1768427 25.1513534,18.0517293 C24.6417769,17.9266159 24.1380727,17.8640602 23.6402256,17.8640602 C23.0850348,17.8640602 22.628899,17.9181448 22.2718045,18.0263158 C21.91471,18.1344868 21.6534093,18.2856632 21.4878947,18.4798496 C21.3223801,18.6740361 21.2396241,18.9066653 21.2396241,19.1777444 C21.2396241,19.456643 21.3060896,19.6873174 21.4390226,19.8697744 C21.5719556,20.0522315 21.8280432,20.2320793 22.2072932,20.4093233 C22.5865432,20.5865673 23.1606227,20.7898735 23.9295489,21.0192481 C24.9017843,21.3085729 25.6342081,21.5855125 26.1268421,21.8500752 C26.6194761,22.1146379 26.9531069,22.3961389 27.1277444,22.6945865 C27.3023818,22.9930341 27.3896992,23.367717 27.3896992,23.8186466 C27.3896992,24.2826088 27.2417809,24.7231057 26.9459398,25.1401504 C26.6500988,25.5571951 26.3340618,25.8699739 25.9978195,26.0784962 C26.30539,26.2818055 26.536716,26.5163896 26.6918045,26.7822556 C26.846893,27.0481216 26.9244361,27.3791459 26.9244361,27.7753383 C26.9244361,28.2158418 26.7954148,28.6029056 26.5373684,28.9365414 C26.279322,29.2701771 25.8779225,29.5308261 25.3331579,29.7184962 C24.7883933,29.9061664 24.1015831,30 23.2727068,30 Z M26.3653383,23.8538346 C26.3653383,23.5462641 26.2962664,23.2953894 26.1581203,23.101203 C26.0199742,22.9070166 25.7638866,22.723259 25.3898496,22.5499248 C25.0158127,22.3765906 24.4443397,22.1752392 23.6754135,21.9458647 C23.2453362,21.8155382 22.8843373,21.6995494 22.592406,21.5978947 C22.3004747,21.4962401 22.0684971,21.4037097 21.8964662,21.3203008 C21.5419782,21.5913798 21.2663418,21.8943843 21.0695489,22.2293233 C20.8727559,22.5642623 20.7743609,22.8698733 20.7743609,23.1461654 C20.7743609,23.4537359 20.8434329,23.7046106 20.9815789,23.898797 C21.119725,24.0929834 21.3758127,24.276741 21.7498496,24.4500752 C22.1238866,24.6234094 22.6953596,24.8247608 23.4642857,25.0541353 C23.8656912,25.1740357 24.2130061,25.2854631 24.5062406,25.3884211 C24.7994752,25.491379 25.0451369,25.5884707 25.2432331,25.6796992 C25.5977211,25.4086202 25.8733574,25.1056157 26.0701504,24.7706767 C26.2669433,24.4357377 26.3653383,24.1301267 26.3653383,23.8538346 Z" fill="currentColor" fill-rule="nonzero"/>
    </g>
</svg>
