<svg xmlns="http://www.w3.org/2000/svg" width="48" height="48" viewBox="0 0 48 48"><path d="M23.5 14.072c3.07 0 3.434.012 4.647.067 1.121.051 1.73.239 2.135.396.537.209.92.458 1.323.86.402.403.651.786.86 1.323.157.405.345 1.014.396 2.135.055 1.213.067 1.576.067 4.647s-.012 3.434-.067 4.647c-.051 1.121-.239 1.73-.396 2.135-.209.537-.458.92-.86 1.323a3.563 3.563 0 0 1-1.323.86c-.405.157-1.014.345-2.135.396-1.212.055-1.576.067-4.647.067s-3.434-.012-4.647-.067c-1.121-.051-1.73-.239-2.135-.396a3.563 3.563 0 0 1-1.323-.86 3.563 3.563 0 0 1-.86-1.323c-.157-.405-.345-1.014-.396-2.135-.055-1.213-.067-1.576-.067-4.647s.012-3.434.067-4.647c.051-1.121.239-1.73.396-2.135.209-.537.458-.92.86-1.323s.786-.651 1.323-.86c.405-.157 1.014-.345 2.135-.396 1.213-.055 1.576-.067 4.647-.067m0-2.072c-3.123 0-3.515.013-4.741.07-1.224.055-2.06.25-2.792.534a5.636 5.636 0 0 0-2.037 1.326 5.636 5.636 0 0 0-1.326 2.037c-.285.732-.479 1.567-.535 2.792C12.013 19.985 12 20.377 12 23.5s.013 3.515.07 4.741c.055 1.224.25 2.06.534 2.792a5.636 5.636 0 0 0 1.326 2.037c.64.64 1.28 1.032 2.037 1.326.732.285 1.567.479 2.792.535 1.226.056 1.618.069 4.741.069s3.515-.013 4.741-.07c1.224-.055 2.06-.25 2.792-.534a5.636 5.636 0 0 0 2.037-1.326 5.636 5.636 0 0 0 1.326-2.037c.285-.732.479-1.568.535-2.792.056-1.226.069-1.618.069-4.741s-.013-3.515-.07-4.741c-.055-1.224-.25-2.06-.534-2.792a5.636 5.636 0 0 0-1.326-2.037 5.636 5.636 0 0 0-2.037-1.326c-.732-.285-1.568-.479-2.792-.535C27.015 12.013 26.623 12 23.5 12z"/><path d="M23.5 17.595a5.905 5.905 0 1 0 0 11.81 5.905 5.905 0 0 0 0-11.81zm0 9.738a3.833 3.833 0 1 1 0-7.666 3.833 3.833 0 0 1 0 7.666z"/><circle cx="29.639" cy="17.361" r="1.38"/><circle fill="none" stroke="currentColor" stroke-miterlimit="10" cx="23.5" cy="23.5" r="22"/></svg>