<svg width="24" height="24" viewBox="0 0 24 24" version="1.1" xmlns="http://www.w3.org/2000/svg">
    <title>
        system-share-android-small
    </title>
    <path d="M11.5,22.5 C17.5751322,22.5 22.5,17.5751322 22.5,11.5 C22.5,5.42486775 17.5751322,0.5 11.5,0.5 C5.42486775,0.5 0.5,5.42486775 0.5,11.5 C0.5,17.5751322 5.42486775,22.5 11.5,22.5 Z M12.7240132,14.6389155 L8.24227819,12.4659531 M8.24018855,10.5350601 L12.7079343,8.36888034 M14.5,17.5 C15.6045695,17.5 16.5,16.6045695 16.5,15.5 C16.5,14.3954305 15.6045695,13.5 14.5,13.5 C13.3954305,13.5 12.5,14.3954305 12.5,15.5 C12.5,16.6045695 13.3954305,17.5 14.5,17.5 Z M14.5,9.5 C15.6045695,9.5 16.5,8.6045695 16.5,7.5 C16.5,6.3954305 15.6045695,5.5 14.5,5.5 C13.3954305,5.5 12.5,6.3954305 12.5,7.5 C12.5,8.6045695 13.3954305,9.5 14.5,9.5 Z M6.5,13.5 C7.6045695,13.5 8.5,12.6045695 8.5,11.5 C8.5,10.3954305 7.6045695,9.5 6.5,9.5 C5.3954305,9.5 4.5,10.3954305 4.5,11.5 C4.5,12.6045695 5.3954305,13.5 6.5,13.5 Z" stroke="currentColor" stroke-width="1" fill="none" fill-rule="evenodd"/>
</svg>
