<svg xmlns="http://www.w3.org/2000/svg" width="24" height="24" viewBox="0 0 24 24"><path d="M11.5 6.991c1.469 0 1.643.006 2.223.032.536.025.827.114 1.02.19.258.1.44.218.633.41.193.193.312.377.412.633.075.194.165.485.189 1.022.026.58.032.753.032 2.222s-.006 1.643-.032 2.223c-.024.536-.114.827-.19 1.02-.1.258-.218.44-.41.633a1.703 1.703 0 0 1-.633.412c-.194.075-.485.165-1.021.189-.58.026-.754.032-2.223.032s-1.643-.006-2.223-.032c-.536-.024-.827-.114-1.02-.19-.257-.1-.44-.218-.633-.41a1.702 1.702 0 0 1-.412-.633c-.075-.194-.164-.485-.189-1.021-.026-.58-.032-.754-.032-2.223s.006-1.643.032-2.223c.025-.536.114-.827.19-1.02.1-.257.218-.44.41-.633.193-.193.376-.312.633-.412.194-.075.485-.164 1.021-.189.58-.026.754-.032 2.223-.032m0-.991c-1.494 0-1.681.006-2.268.033-.585.027-.985.12-1.335.256-.361.14-.668.328-.974.634a2.698 2.698 0 0 0-.634.974c-.136.35-.23.75-.256 1.335C6.006 9.82 6 10.006 6 11.5s.006 1.681.033 2.268c.027.585.12.985.256 1.335.14.361.328.668.634.974.306.306.613.494.974.634.35.136.75.23 1.335.256.587.027.774.033 2.268.033s1.681-.006 2.268-.033c.585-.027.985-.12 1.335-.256.361-.14.668-.328.974-.634.306-.306.494-.613.634-.974.136-.35.23-.75.256-1.335.027-.587.033-.774.033-2.268s-.006-1.681-.033-2.268c-.027-.585-.12-.985-.256-1.335a2.698 2.698 0 0 0-.634-.974 2.696 2.696 0 0 0-.974-.634c-.35-.136-.75-.23-1.335-.256C13.18 6.006 12.994 6 11.5 6z"/><path d="M11.5 8.676a2.824 2.824 0 1 0 0 5.648 2.824 2.824 0 0 0 0-5.648zm0 4.657a1.833 1.833 0 1 1 0-3.666 1.833 1.833 0 0 1 0 3.666z"/><circle cx="14.436" cy="8.564" r=".66"/><circle fill="none" stroke="currentColor" stroke-miterlimit="10" cx="11.5" cy="11.5" r="11"/></svg>