<svg width="24" height="24" viewBox="0 0 24 24" version="1.1" xmlns="http://www.w3.org/2000/svg">
    <title>
        system-xing-small
    </title>
    <g stroke="none" stroke-width="1" fill="none" fill-rule="evenodd">
        <path d="M14.4,5 C14.1,5 14,5.2 13.9,5.4 L9.7,12.8 L12.4,17.7 C12.5,17.9 12.6,18.1 12.9,18.1 L14.8,18.1 C14.9,18.1 15,18.1 15,18 C15.1,17.9 15,17.8 15,17.7 L12.4,12.9 C12.4,12.9 12.4,12.9 12.4,12.9 L16.6,5.6 C16.7,5.5 16.7,5.4 16.6,5.3 C16.4,5 16.4,5 16.2,5 C16.2,5 14.4,5 14.4,5 Z M6.5,7.6 C6.4,7.6 6.3,7.6 6.2,7.7 C6.1,7.8 6.2,7.9 6.2,8 L7.5,10.2 C7.5,10.2 7.5,10.2 7.5,10.2 L5.5,13.7 C5.4,13.8 5.4,13.9 5.5,14 C5.6,14.1 5.6,14.1 5.7,14.1 L7.6,14.1 C7.9,14.1 8,13.9 8.1,13.7 L10.1,10.1 L8.9,7.9 C8.8,7.8 8.6,7.6 8.3,7.6 L6.5,7.6 L6.5,7.6 Z" fill="currentColor" fill-rule="nonzero"/>
        <circle stroke="currentColor" cx="11.5" cy="11.5" r="11"/>
    </g>
</svg>
