<svg width="24" height="24" viewBox="0 0 24 24" version="1.1" xmlns="http://www.w3.org/2000/svg">
    <title>
        system-youtube-small
    </title>
    <g stroke="none" stroke-width="1" fill="none" fill-rule="evenodd">
        <circle stroke="currentColor" cx="11.5" cy="11.5" r="11"/>
        <path d="M17.9,8.9 C17.9,8.9 17.8,8 17.4,7.6 C16.9,7.1 16.4,7.1 16.1,7 C14.3,6.9 11.6,6.9 11.6,6.9 L11.6,6.9 C11.6,6.9 8.9,6.9 7.1,7 C6.8,7 6.3,7 5.8,7.6 C5.3,8 5.1,8.9 5.1,8.9 C5.1,8.9 5,10 5,11 L5,12 C5,13.1 5.1,14.1 5.1,14.1 C5.1,14.1 5.2,15 5.6,15.4 C6.1,15.9 6.7,15.9 7,16 C8,16.1 11.4,16.1 11.4,16.1 C11.4,16.1 14.1,16.1 15.9,16 C16.2,16 16.7,16 17.2,15.4 C17.6,15 17.7,14.1 17.7,14.1 C17.7,14.1 18,13 18,12 L18,11 C18,10 17.9,8.9 17.9,8.9 L17.9,8.9 Z M10.2,13.2 L10.2,9.5 L13.7,11.3 C13.7,11.4 10.2,13.2 10.2,13.2 Z" fill="currentColor" fill-rule="nonzero"/>
    </g>
</svg>
