<svg width="48" height="48" viewBox="0 0 48 48" version="1.1" xmlns="http://www.w3.org/2000/svg">
    <title>
        system-instagram-large
    </title>
    <g stroke="none" stroke-width="1" fill="none" fill-rule="evenodd">
        <circle stroke="currentColor" cx="23.5" cy="23.5" r="22"/>
        <path d="M23.5000228,12 C26.6232125,12 27.014838,12.0132383 28.2414353,12.0692044 C29.4654762,12.1250335 30.3014522,12.319454 31.032937,12.6037579 C31.7891636,12.8976026 32.430491,13.2908259 33.0698554,13.9301446 C33.7091741,14.569509 34.1023974,15.2108364 34.3962877,15.967063 C34.680546,16.6985478 34.8749665,17.5345238 34.9307956,18.7585647 C34.9867617,19.985162 35,20.3767875 35,23.5000228 C35,26.6232125 34.9867617,27.014838 34.9307956,28.2414353 C34.8749665,29.4654762 34.680546,30.3014522 34.3962877,31.032937 C34.1023974,31.7891636 33.7091741,32.430491 33.0698554,33.0698554 C32.430491,33.7091741 31.7891636,34.1023974 31.032937,34.3962877 C30.3014522,34.680546 29.4654762,34.8749665 28.2414353,34.9307956 C27.014838,34.9867617 26.6232125,35 23.5000228,35 C20.3767875,35 19.985162,34.9867617 18.7585647,34.9307956 C17.5345238,34.8749665 16.6985478,34.680546 15.967063,34.3962877 C15.2108364,34.1023974 14.569509,33.7091741 13.9301446,33.0698554 C13.2908259,32.430491 12.8976026,31.7891636 12.6037579,31.032937 C12.319454,30.3014522 12.1250335,29.4654762 12.0692044,28.2414353 C12.0132383,27.014838 12,26.6232125 12,23.5000228 C12,20.3767875 12.0132383,19.985162 12.0692044,18.7585647 C12.1250335,17.5345238 12.319454,16.6985478 12.6037579,15.967063 C12.8976026,15.2108364 13.2908259,14.569509 13.9301446,13.9301446 C14.569509,13.2908259 15.2108364,12.8976026 15.967063,12.6037579 C16.6985478,12.319454 17.5345238,12.1250335 18.7585647,12.0692044 C19.985162,12.0132383 20.3767875,12 23.5000228,12 Z M23.5000228,14.0720684 C20.4293755,14.0720684 20.0656417,14.0838002 18.8530132,14.1391272 C17.7317745,14.1902545 17.1228582,14.3775993 16.7176292,14.5350894 C16.1808388,14.7437068 15.7977497,14.9929065 15.3953509,15.3953509 C14.9929065,15.7977497 14.7437068,16.1808388 14.5350894,16.7176292 C14.3775993,17.1228582 14.1902545,17.7317745 14.1391272,18.8530132 C14.0838002,20.0656417 14.0720684,20.4293755 14.0720684,23.5000228 C14.0720684,26.5706245 14.0838002,26.9343583 14.1391272,28.1469868 C14.1902545,29.2682255 14.3775993,29.8771418 14.5350894,30.2823708 C14.7437068,30.8191612 14.9929521,31.2022503 15.3953509,31.6046491 C15.7977497,32.0070935 16.1808388,32.2562932 16.7176292,32.4649106 C17.1228582,32.6224007 17.7317745,32.8097455 18.8530132,32.8608728 C20.0655048,32.9161998 20.4291473,32.9279316 23.5000228,32.9279316 C26.5708527,32.9279316 26.9345409,32.9161998 28.1469868,32.8608728 C29.2682255,32.8097455 29.8771418,32.6224007 30.2823708,32.4649106 C30.8191612,32.2562932 31.2022503,32.0070935 31.6046491,31.6046491 C32.0070935,31.2022503 32.2562932,30.8191612 32.4649106,30.2823708 C32.6224007,29.8771418 32.8097455,29.2682255 32.8608728,28.1469868 C32.9161998,26.9343583 32.9279316,26.5706245 32.9279316,23.5000228 C32.9279316,20.4293755 32.9161998,20.0656417 32.8608728,18.8530132 C32.8097455,17.7317745 32.6224007,17.1228582 32.4649106,16.7176292 C32.2562932,16.1808388 32.0070935,15.7977497 31.6046491,15.3953509 C31.2022503,14.9929065 30.8191612,14.7437068 30.2823708,14.5350894 C29.8771418,14.3775993 29.2682255,14.1902545 28.1469868,14.1391272 C26.9343583,14.0838002 26.5706245,14.0720684 23.5000228,14.0720684 Z M23.5000228,17.5945983 C26.7614843,17.5945983 29.4054017,20.2385157 29.4054017,23.5000228 C29.4054017,26.7614843 26.7614843,29.4054017 23.5000228,29.4054017 C20.2385157,29.4054017 17.5945983,26.7614843 17.5945983,23.5000228 C17.5945983,20.2385157 20.2385157,17.5945983 23.5000228,17.5945983 Z M23.5000228,27.3333333 C25.6171014,27.3333333 27.3333333,25.6171014 27.3333333,23.5000228 C27.3333333,21.3828986 25.6171014,19.6666667 23.5000228,19.6666667 C21.3828986,19.6666667 19.6666667,21.3828986 19.6666667,23.5000228 C19.6666667,25.6171014 21.3828986,27.3333333 23.5000228,27.3333333 Z M31.01874,17.3612846 C31.01874,18.1234457 30.4008765,18.7412636 29.6387154,18.7412636 C28.8766,18.7412636 28.2587364,18.1234457 28.2587364,17.3612846 C28.2587364,16.5991235 28.8766,15.98126 29.6387154,15.98126 C30.4008765,15.98126 31.01874,16.5991235 31.01874,17.3612846 Z" fill="currentColor"/>
    </g>
</svg>
