<svg width="48" height="48" viewBox="0 0 48 48" version="1.1" xmlns="http://www.w3.org/2000/svg">
    <title>
        system-search-large
    </title>
    <path d="M30.7,30.9 L24,24.2 L30.7,30.9 Z M25.3,21 C25.4,23.4 23.5,25.4 21.1,25.5 C21,25.5 20.9,25.5 20.8,25.5 C18.3,25.5 16.3,23.5 16.3,21 C16.3,18.5 18.4,16.5 20.8,16.5 C23.3,16.5 25.3,18.5 25.3,21 L25.3,21 Z M23.5,45.5 C35.6502645,45.5 45.5,35.6502645 45.5,23.5 C45.5,11.3497355 35.6502645,1.5 23.5,1.5 C11.3497355,1.5 1.5,11.3497355 1.5,23.5 C1.5,35.6502645 11.3497355,45.5 23.5,45.5 Z" stroke="currentColor" stroke-width="1" fill="none" fill-rule="evenodd"/>
</svg>
