<svg width="48" height="48" viewBox="0 0 48 48" version="1.1" xmlns="http://www.w3.org/2000/svg">
    <title>
        system-whatsapp-large
    </title>
    <g stroke="none" stroke-width="1" fill="none" fill-rule="evenodd">
        <circle stroke="currentColor" cx="23.5" cy="23.5" r="22"/>
        <path d="M33.8128237,12.6234948 C29.0339672,7.9120017 21.5019598,7.44232819 16.1720462,11.5234686 C10.8421326,15.604609 9.35043538,22.9837763 12.6783297,28.806278 L10.75,35.75 L17.8783923,33.8842354 C19.8493714,34.9589118 22.0599326,35.5211839 24.3061581,35.5191838 L24.3061581,35.5191838 C29.7438479,35.5177975 34.6454911,32.2498443 36.7262169,27.2386603 C38.8069427,22.2274763 37.6571564,16.4595225 33.8128237,12.6234948 Z M24.3061581,33.2559036 L24.3061581,33.2559036 C22.3039277,33.2568768 20.3385775,32.7185986 18.6175853,31.6978926 L18.2126361,31.4606648 L13.9638829,32.5634535 L15.0951697,28.4536421 L14.8252035,28.030479 C12.6679031,24.5916597 12.5519878,20.2557837 14.5224861,16.7071676 C16.4929844,13.1585514 20.239308,10.9564886 24.3061581,10.9564886 C30.4780623,10.9635649 35.477615,15.9562572 35.477615,22.112607 C35.4705307,28.2639496 30.4730466,33.2488358 24.3061581,33.2559036 L24.3061581,33.2559036 Z M30.4318189,24.9208713 C30.0975751,24.7541707 28.4456393,23.9399023 28.1371065,23.8309057 C27.8285737,23.7219091 27.6036019,23.6642051 27.3850579,23.9976063 C27.1665139,24.3310076 26.5173095,25.0875719 26.3180488,25.2799188 C26.118788,25.4722657 25.9259551,25.5299697 25.5917112,25.3632691 C24.6012652,24.9717262 23.6874871,24.4096503 22.8920496,23.7026745 C22.164126,23.029423 21.538354,22.2540396 21.0344253,21.4009236 C20.8415923,21.0611108 21.0344253,20.8815871 21.1822639,20.7148864 C21.3301025,20.5481858 21.5165077,20.3237811 21.6836296,20.1314343 C21.8210268,19.9587491 21.935528,19.7691131 22.0243012,19.5672168 C22.1082227,19.3788842 22.0962644,19.1617923 21.9921624,18.9837646 C21.9086014,18.817064 21.2401138,17.1692925 20.9572921,16.4960785 C20.6744704,15.8228644 20.410932,15.931861 20.2052435,15.9190378 L19.5624669,15.9190378 C19.218339,15.928898 18.894173,16.0824305 18.6690075,16.342201 C17.8986758,17.0664638 17.4713819,18.0819309 17.4927263,19.1376421 C17.6003535,20.4014409 18.078774,21.6056271 18.8682682,22.5998857 C19.0353901,22.8242904 21.233686,26.2095953 24.6018353,27.6586084 C25.2314081,27.9281707 25.875123,28.1636045 26.530165,28.3638802 C27.2151084,28.5715286 27.9390478,28.617621 28.6449,28.4985231 C29.2876766,28.4023496 30.6310796,27.6906662 30.9139013,26.902044 C31.1311955,26.4018326 31.1981858,25.8494422 31.1067343,25.3119766 C30.9910345,25.1580991 30.7660627,25.0747488 30.4318189,24.9080482 L30.4318189,24.9208713 Z" fill="currentColor" fill-rule="nonzero"/>
    </g>
</svg>
