<svg id="system-weibo-large" xmlns="http://www.w3.org/2000/svg" width="48" height="48" viewBox="0 0 48 48">
  <title>system-weibo</title>
  <g class="audiicon-group audiicon-group--large">
    <circle cx="23.5" cy="23.5" r="22" fill="none" stroke="currentColor" stroke-miterlimit="10" class="audiicon-system-weibo__circle"/>
    <g class="audiicon-system-weibo__weibo">
      <g class="audiicon-system-weibo__signal">
        <path d="M35.0905,14.1055a7.41,7.41,0,0,0-7.0553-2.2838h-.001a1.0723,1.0723,0,0,0,.448,2.0973A5.2714,5.2714,0,0,1,34.6,20.6977l0,0a1.0726,1.0726,0,0,0,2.0408.6611l0-.0041a7.409,7.409,0,0,0-1.5506-7.25" transform="translate(0)" class="audiicon-system-weibo__curve-small"/>
        <path d="M32.2664,16.654A3.6078,3.6078,0,0,0,28.83,15.5433a.9224.9224,0,1,0,.385,1.8041v.001a1.7634,1.7634,0,0,1,2.0483,2.27h.001a.9226.9226,0,1,0,1.7558.5675,3.6049,3.6049,0,0,0-.7534-3.5318" transform="translate(0)" class="audiicon-system-weibo__curve-big"/>
      </g>
      <g class="audiicon-system-weibo__eye">
        <path d="M30.0335,22.5792c-.3943-.1184-.6647-.1987-.4579-.7168a2.9231,2.9231,0,0,0,.0084-2.7874c-.9089-1.2989-3.3959-1.2285-6.2466-.0351,0-.0015-.895.3917-.6664-.3184.4387-1.4095.3726-2.59-.31-3.272-1.5467-1.5477-5.66.0584-9.1862,3.5842C10.5337,21.6754,9,24.4748,9,26.8955c0,4.63,5.9378,7.4455,11.7467,7.4455,7.6152,0,12.6807-4.4244,12.6807-7.9371C33.4274,24.2815,31.64,23.0771,30.0335,22.5792ZM20.7623,32.6814c-4.6353.4574-8.6366-1.6379-8.9377-4.6813s3.2137-5.8806,7.8485-6.3389,8.6373,1.637,8.9377,4.679C28.9115,29.3846,25.3982,32.2228,20.7623,32.6814Z" transform="translate(0)" class="audiicon-system-weibo__eye-lashes"/>
        <path d="M21.2255,24.0033a5.05,5.05,0,0,0-5.6569,2.4689,3.44,3.44,0,0,0,2.1963,4.9019,5.0036,5.0036,0,0,0,5.9752-2.536A3.4561,3.4561,0,0,0,21.2255,24.0033Zm-1.6843,5.062a1.756,1.756,0,0,1-2.1316.6986,1.2293,1.2293,0,0,1-.4747-1.8527,1.7627,1.7627,0,0,1,2.0885-.7031A1.2345,1.2345,0,0,1,19.5412,29.0653Zm1.477-1.8956a.67.67,0,0,1-.8013.2949.4675.4675,0,0,1-.2057-.696.6606.6606,0,0,1,.7813-.2939A.4679.4679,0,0,1,21.0182,27.17Z" transform="translate(0)" class="audiicon-system-weibo__eye-ball"/>
      </g>
    </g>
  </g>
  <rect width="48" height="48" fill="none"/>
</svg>
