<svg width="48" height="48" viewBox="0 0 48 48" version="1.1" xmlns="http://www.w3.org/2000/svg">
    <title>
        system-whatsapp-large
    </title>
    <g stroke="none" stroke-width="1" fill="none" fill-rule="evenodd">
        <circle stroke="currentColor" cx="24" cy="24" r="22"/>
        <path d="M34.3128237,13.1234948 C29.5339672,8.4120017 22.0019598,7.94232819 16.6720462,12.0234686 C11.3421326,16.104609 9.85043538,23.4837763 13.1783297,29.306278 L11.25,36.25 L18.3783923,34.3842354 C20.3493714,35.4589118 22.5599326,36.0211839 24.8061581,36.0191838 L24.8061581,36.0191838 C30.2438479,36.0177975 35.1454911,32.7498443 37.2262169,27.7386603 C39.3069427,22.7274763 38.1571564,16.9595225 34.3128237,13.1234948 Z M24.8061581,33.7559049 L24.8061581,33.7559049 C22.8039277,33.7568768 20.8385775,33.2185986 19.1175853,32.1978926 L18.7126361,31.9606648 L14.4638829,33.0634535 L15.5951697,28.9536421 L15.3252035,28.530479 C13.1679031,25.0916597 13.0519878,20.7557837 15.0224861,17.2071676 C16.9929844,13.6585514 20.739308,11.4564886 24.8061581,11.4564886 C30.9780623,11.4635649 35.977615,16.4562572 35.977615,22.612607 C35.9705307,28.7639496 30.9730466,33.7488358 24.8061581,33.7559049 L24.8061581,33.7559049 Z M30.9318189,25.4208713 C30.5975751,25.2541707 28.9456393,24.4399023 28.6371065,24.3309057 C28.3285737,24.2219091 28.1036019,24.1642051 27.8850579,24.4976063 C27.6665139,24.8310076 27.0173095,25.5875719 26.8180488,25.7799188 C26.618788,25.9722657 26.4259551,26.0299697 26.0917112,25.8632691 C25.1012652,25.4717262 24.1874871,24.9096503 23.3920496,24.2026745 C22.664126,23.529423 22.038354,22.7540396 21.5344253,21.9009236 C21.3415923,21.5611108 21.5344253,21.3815871 21.6822639,21.2148864 C21.8301025,21.0481858 22.0165077,20.8237811 22.1836296,20.6314343 C22.3210268,20.4587491 22.435528,20.2691131 22.5243012,20.0672168 C22.6082227,19.8788842 22.5962644,19.6617923 22.4921624,19.4837646 C22.4086014,19.317064 21.7401138,17.6692925 21.4572921,16.9960785 C21.1744704,16.3228644 20.910932,16.431861 20.7052435,16.4190378 L20.0624669,16.4190378 C19.718339,16.428898 19.394173,16.5824305 19.1690075,16.842201 C18.3986758,17.5664638 17.9713819,18.5819309 17.9927263,19.6376421 C18.1003535,20.9014409 18.578774,22.1056271 19.3682682,23.0998857 C19.5353901,23.3242904 21.733686,26.7095953 25.1018353,28.1586084 C25.7314081,28.4281707 26.375123,28.6636045 27.030165,28.8638802 C27.7151084,29.0715286 28.4390478,29.117621 29.1449,28.9985231 C29.7876766,28.9023496 31.1310796,28.1906662 31.4139013,27.402044 C31.6311955,26.9018326 31.6981858,26.3494422 31.6067343,25.8119766 C31.4910345,25.6580991 31.2660627,25.5747488 30.9318189,25.4080482 L30.9318189,25.4208713 Z" fill="currentColor" fill-rule="nonzero"/>
    </g>
</svg>
