<svg xmlns="http://www.w3.org/2000/svg" width="48" height="48" viewBox="0 0 48 48"><g fill="none" stroke="currentColor" stroke-miterlimit="10"><path d="M25.137 14.5v2.67a6.557 6.557 0 0 1 1.684.696l1.887-1.885 2.315 2.312-1.89 1.89a6.467 6.467 0 0 1 .699 1.683H32.5v3.272h-2.668a6.48 6.48 0 0 1-.697 1.682l1.886 1.889-2.313 2.312-1.887-1.887a6.5 6.5 0 0 1-1.683.698V32.5h-3.274v-2.668a6.483 6.483 0 0 1-1.683-.698l-1.887 1.887-2.313-2.312 1.885-1.89a6.484 6.484 0 0 1-.697-1.681H14.5v-3.272h2.67a6.467 6.467 0 0 1 .697-1.684l-1.888-1.889 2.315-2.312 1.887 1.885a6.555 6.555 0 0 1 1.684-.696V14.5h3.272z"/><path d="M23.501 19.999a3.5 3.5 0 1 1-3.5 3.501 3.501 3.501 0 0 1 3.5-3.501"/><circle cx="23.5" cy="23.5" r="22"/></g></svg>