<svg xmlns="http://www.w3.org/2000/svg" width="24" height="24" viewBox="0 0 24px 24px"><path d="M11.805 5C8.257 5 6.468 7.544 6.468 9.665c0 1.284.486 2.427 1.53 2.852.17.07.323.003.373-.186.034-.132.116-.462.152-.6.05-.187.031-.253-.107-.416-.3-.355-.493-.814-.493-1.464 0-1.887 1.412-3.577 3.677-3.577 2.005 0 3.106 1.226 3.106 2.862 0 2.153-.952 3.97-2.367 3.97-.781 0-1.366-.646-1.178-1.438.224-.946.659-1.967.659-2.65 0-.611-.328-1.12-1.007-1.12-.799 0-1.44.825-1.44 1.932 0 .705.238 1.182.238 1.182l-.96 4.068c-.286 1.208-.044 2.689-.023 2.838.012.089.126.11.177.043.074-.096 1.025-1.27 1.349-2.444.091-.332.525-2.052.525-2.052.26.495 1.018.93 1.824.93 2.4 0 4.029-2.188 4.029-5.117C16.532 7.063 14.656 5 11.805 5z"/><circle fill="none" stroke="currentColor" stroke-miterlimit="10" cx="11.5" cy="11.5" r="11"/></svg>