<svg width="24" height="24" viewBox="0 0 24 24" version="1.1" xmlns="http://www.w3.org/2000/svg">
    <title>
        system-print-small
    </title>
    <path d="M15.5,12.5 L16.5,12.5 C17.0522847,12.5 17.5,12.9477153 17.5,13.5 L17.5,17.5 L17.5,17.5 L5.5,17.5 L5.5,13.5 C5.5,12.9477153 5.94771525,12.5 6.5,12.5 L7.5,12.5 L7.5,12.5 M15.5,8 L15.5,14.5 L7.5,14.5 L7.5,5.5 L13,5.5 L15.5,8 Z M12.5,5.5 L12.5,8.5 L15.5,8.5 M9,12.5 L14,12.5 M9,10.5 L14,10.5 M11.5,22.5 C17.5751322,22.5 22.5,17.5751322 22.5,11.5 C22.5,5.42486775 17.5751322,0.5 11.5,0.5 C5.42486775,0.5 0.5,5.42486775 0.5,11.5 C0.5,17.5751322 5.42486775,22.5 11.5,22.5 Z" stroke="currentColor" stroke-width="1" fill="none" fill-rule="evenodd"/>
</svg>
