<?xml version="1.0" encoding="UTF-8" standalone="no"?>
<svg width="48px" height="48px" viewBox="0 0 48 48" version="1.1" xmlns="http://www.w3.org/2000/svg" xmlns:xlink="http://www.w3.org/1999/xlink">
    <!-- Generator: sketchtool 46.2 (44496) - http://www.bohemiancoding.com/sketch -->
    <title>system-resize-decrease-large</title>
    <desc>Created with sketchtool.</desc>
    <defs></defs>
    <g id="icons-published" stroke="none" stroke-width="1" fill="none" fill-rule="evenodd">
        <g id="briefing" transform="translate(-1440.000000, -1946.000000)"></g>
        <g id="system-resize-decrease-large" stroke="#000000">
            <path d="M31.9919,21.5 L25.5,21.5 L25.5,15 M25.5,21.5 L33,14 L25.5,21.5 Z M14,33 L21.5,25.5 L14,33 Z M21.4919,32 L21.4919,25.5 L15,25.5 M23.5,1.5 C11.3497355,1.5 1.5,11.3497355 1.5,23.5 C1.5,35.6502645 11.3497355,45.5 23.5,45.5 C35.6502645,45.5 45.5,35.6502645 45.5,23.5 C45.5,17.6652372 43.1821495,12.0694511 39.0563492,7.94365081 C34.9305489,3.81785049 29.3347628,1.5 23.5,1.5 Z" id="system-resize-decrease"></path>
        </g>
    </g>
</svg>