<?xml version="1.0" encoding="UTF-8"?>
<svg width="48px" height="48px" viewBox="0 0 48 48" version="1.1" xmlns="http://www.w3.org/2000/svg" xmlns:xlink="http://www.w3.org/1999/xlink">
    <!-- Generator: sketchtool 48.1 (47250) - http://www.bohemiancoding.com/sketch -->
    <title>system-paragraph-large</title>
    <desc>Created with sketchtool.</desc>
    <defs></defs>
    <g id="icons-published" stroke="none" stroke-width="1" fill="none" fill-rule="evenodd">
        <g id="briefing" transform="translate(-2016.000000, -1818.000000)"></g>
        <g id="system-paragraph-large">
            <circle id="Oval" stroke="#000000" cx="23.5" cy="23.5" r="22"></circle>
            <path d="M23.2,30 C22.6,30 22.1,29.9 21.6,29.8 C21.1,29.7 20.7,29.5 20.2,29.3 L20.2,28.4 C20.7,28.6 21.1,28.8 21.6,28.9 C22.1,29 22.7,29.1 23.2,29.1 C23.7,29.1 24.2,29.1 24.7,28.9 C25,28.8 25.3,28.7 25.5,28.4 C25.7,28.2 25.8,28 25.8,27.7 C25.8,27.5 25.7,27.2 25.6,27 C25.4,26.8 25.1,26.6 24.8,26.5 C24.2,26.3 23.7,26.1 23.1,25.9 C22.3,25.7 21.6,25.4 20.9,25.1 C20.5,24.9 20.2,24.6 19.9,24.3 C19.7,23.9 19.6,23.5 19.6,23.2 C19.6,22.7 19.8,22.3 20,21.9 C20.3,21.5 20.6,21.2 21,21 C20.7,20.8 20.5,20.6 20.3,20.3 C20.1,20 20,19.6 20.1,19.3 C20.1,18.9 20.2,18.5 20.5,18.1 C20.8,17.7 21.2,17.5 21.7,17.3 C22.3,17.1 23,17 23.6,17 C24.6,17 25.6,17.2 26.6,17.6 L26.6,18.5 C26.1,18.3 25.6,18.1 25.1,18 C24.6,17.9 24.1,17.8 23.6,17.8 C23.1,17.8 22.7,17.8 22.2,18 C21.9,18.1 21.6,18.2 21.4,18.5 C21.2,18.7 21.1,18.9 21.2,19.2 C21.2,19.4 21.3,19.7 21.4,19.9 C21.6,20.1 21.9,20.3 22.2,20.4 C22.8,20.6 23.3,20.8 23.9,21 C24.7,21.2 25.4,21.5 26.1,21.8 C26.5,22 26.8,22.3 27.1,22.6 C27.3,22.9 27.4,23.3 27.4,23.7 C27.4,24.2 27.2,24.6 27,25 C26.7,25.4 26.4,25.7 26,25.9 C26.3,26.1 26.5,26.3 26.7,26.6 C26.9,26.9 26.9,27.3 26.9,27.6 C26.9,28 26.8,28.4 26.5,28.8 C26.2,29.2 25.8,29.4 25.3,29.6 C24.6,29.9 23.9,30 23.2,30 Z M26.3,23.9 C26.3,23.6 26.2,23.4 26.1,23.1 C25.9,22.9 25.6,22.7 25.3,22.6 C24.7,22.4 24.2,22.2 23.6,22 L22.5,21.6 C22.3,21.5 22,21.4 21.8,21.3 C21.5,21.5 21.2,21.9 21,22.2 C20.8,22.5 20.7,22.8 20.7,23.1 C20.7,23.4 20.8,23.6 20.9,23.9 C21.1,24.1 21.4,24.3 21.7,24.4 C22.3,24.6 22.8,24.8 23.4,25 L24.4,25.3 C24.7,25.4 24.9,25.5 25.1,25.6 C25.4,25.4 25.7,25 25.9,24.7 C26.2,24.5 26.3,24.2 26.3,23.9 C26.3,23.9 26.3,23.9 26.3,23.9 Z" id="Shape" fill="#000000" fill-rule="nonzero"></path>
        </g>
    </g>
</svg>