<svg id="system-youku-large" xmlns="http://www.w3.org/2000/svg" width="48" height="48" viewBox="0 0 48 48">
  <title>system-youku</title>
  <g id="circle">
    <path d="M23.5,46A22.5,22.5,0,1,1,46,23.5,22.5259,22.5259,0,0,1,23.5,46Zm0-44A21.5,21.5,0,1,0,45,23.5,21.5239,21.5239,0,0,0,23.5,2Z"/>
  </g>
  <path id="youku-icon" d="M27.4834,20.98,23.5568,18.137c-1.02-.7385-2.1322-1.7922-3.4692-1.03a2.0637,2.0637,0,0,0-.5815,3.0543,5.8914,5.8914,0,0,0,1.1892.9545c1.1684.8461,2.4553,1.5385,3.6236,2.3846-1.047.7517-2.2125,1.657-3.26,2.4088-.38.2729-.78.5309-1.1461.8228a2.07,2.07,0,0,0-.3939,2.9565c1.2289,1.5056,2.7181.4112,3.8782-.4216l3.8286-2.7486c1.0263-.7368,2.6268-1.9921,2.6268-3.0178C29.853,22.4907,28.3745,21.6257,27.4834,20.98Zm9.2686-.0818a13.5116,13.5116,0,0,0-25.9362-2.0515,13.5113,13.5113,0,0,0,19.613,16.2574A13.64,13.64,0,0,0,36.752,20.8986Zm-4.0046,4.46a9.4324,9.4324,0,1,1-4.3748-9.9191A9.5327,9.5327,0,0,1,32.7474,25.3586Z"/>
</svg>
