<svg width="24" height="24" viewBox="0 0 24 24" version="1.1" xmlns="http://www.w3.org/2000/svg">
    <title>
        system-sync-small
    </title>
    <path d="M11.5,22.5 C17.5751322,22.5 22.5,17.5751322 22.5,11.5 C22.5,5.42486775 17.5751322,0.5 11.5,0.5 C5.42486775,0.5 0.5,5.42486775 0.5,11.5 C0.5,17.5751322 5.42486775,22.5 11.5,22.5 Z M8.69999981,12.3000002 L6.5,14.5 L8.69999981,16.6999998 M6.5,14.5 L13.65,14.5 C15.25,14.5 16.55,13.15 16.5,11.55 L16.5,11.25 M16.5,8.5 L9.35,8.5 C7.75,8.5 6.45,9.85 6.5,11.45 L6.5,11.75 M14.3000002,10.6999998 L16.5,8.5 L14.3000002,6.30000019" stroke="currentColor" stroke-width="1" fill="none" fill-rule="evenodd"/>
</svg>
