<svg width="24" height="24" viewBox="0 0 24 24" version="1.1" xmlns="http://www.w3.org/2000/svg">
    <title>
        system-whatsapp-small
    </title>
    <g stroke="none" stroke-width="1" fill="none" fill-rule="evenodd">
        <circle stroke="currentColor" cx="11.5" cy="11.5" r="11"/>
        <path d="M16.3543225,6.36501603 C14.0533916,4.09651933 10.4268696,3.87038024 7.86061484,5.83537376 C5.29436013,7.80036728 4.57613555,11.3532997 6.17845506,14.1567265 L5.25,17.5 L8.68218887,16.6016689 C9.63117881,17.1191057 10.6955231,17.3898293 11.7770391,17.3888663 L11.7770391,17.3888663 C14.395186,17.3881988 16.7552365,15.8147399 17.7570674,13.4019476 C18.7588983,10.9891553 18.2052975,8.21199231 16.3543225,6.36501603 Z M11.7770391,16.2991388 L11.7770391,16.2991388 C10.8130022,16.2996073 9.86672251,16.0404364 9.03809665,15.5489853 L8.84312108,15.4347645 L6.7974251,15.9657369 L7.34211874,13.9869388 L7.21213503,13.7831936 C6.17343484,12.1274658 6.11762377,10.0398218 7.0663822,8.33122883 C8.01514063,6.62263586 9.81892605,5.56238342 11.7770391,5.56238342 C14.7486967,5.56579051 17.1558887,7.96967941 17.1558887,10.9338478 C17.1524778,13.8956054 14.7462817,16.2957358 11.7770391,16.2991388 L11.7770391,16.2991388 Z M14.7264313,12.2859751 C14.5654991,12.2057118 13.7701226,11.8136566 13.6215698,11.7611768 C13.473017,11.708697 13.3646972,11.6809136 13.2594723,11.8414401 C13.1542474,12.0019666 12.8416675,12.3662383 12.7457272,12.4588498 C12.6497868,12.5514612 12.5569413,12.5792447 12.3960091,12.4989814 C11.9191277,12.3104608 11.4791605,12.0398316 11.096172,11.6994359 C10.7456903,11.3752777 10.4443927,11.001945 10.2017603,10.5911854 C10.1089148,10.4275719 10.2017603,10.3411345 10.2729419,10.2608712 C10.3441234,10.180608 10.4338741,10.0725613 10.5143402,9.97994983 C10.5804944,9.89680511 10.6356246,9.80549889 10.6783673,9.70828956 C10.7187739,9.61761089 10.7130162,9.5130852 10.662893,9.42736815 C10.6226599,9.34710489 10.3007955,8.55373342 10.1646221,8.22959333 C10.0284487,7.90545324 9.90155985,7.95793306 9.80252465,7.95175896 L9.49303963,7.95175896 C9.32734841,7.95650643 9.17126849,8.03042949 9.06285545,8.15550416 C8.69195499,8.50422329 8.48622092,8.99315191 8.49649786,9.50145731 C8.54831833,10.109953 8.77866897,10.6897464 9.1587958,11.1684635 C9.23926191,11.2765102 10.2977007,12.9064718 11.9194022,13.6041448 C12.2225298,13.733934 12.5324666,13.847291 12.8478572,13.9437201 C13.1776448,14.043699 13.5262082,14.0658916 13.866063,14.0085481 C14.175548,13.9622424 14.8223717,13.61958 14.9585451,13.2398731 C15.0631682,12.9990305 15.0954228,12.7330648 15.0513906,12.474285 C14.9956833,12.4001959 14.8873635,12.3600642 14.7264313,12.279801 L14.7264313,12.2859751 Z" fill="currentColor" fill-rule="nonzero"/>
    </g>
</svg>
