<svg width="48" height="48" viewBox="0 0 48 48" version="1.1" xmlns="http://www.w3.org/2000/svg">
    <title>
        system-twitter-large
    </title>
    <g stroke="none" stroke-width="1" fill="none" fill-rule="evenodd">
        <path d="M34.1,16.9 C34.1,16.9 37.3,17.3 38.2,16.7 C36.7,17.5 35.2,18.5 34,19.7 C34,19.7 35.2,33 21.3,36.2 C21.3,36.2 14.1,36.8 9,32.9 C9,32.9 14.5,34.4 17.5,31 C17.5,31 12.4,31.5 11.1,27.5 C12.3,27.5 13.5,27.3 14.7,27 C14.7,27 9.9,26.1 10,21.3 C10.8,21.8 11.7,22 12.7,22 C12.7,22 8.7,18.4 11.2,14.2 C11.2,14.2 16.5,20.7 23.1,20.3 C22.3,17.3 24.1,14.2 27.2,13.4 C29.2,12.9 31.2,13.5 32.6,14.9 C34,14.6 35.3,14 36.5,13 C36.4,13.2 36.5,15 34.1,16.9 Z" fill="currentColor" fill-rule="nonzero"/>
        <circle stroke="currentColor" cx="23.5" cy="23.5" r="22"/>
    </g>
</svg>
