<svg width="24" height="24" viewBox="0 0 24 24" version="1.1" xmlns="http://www.w3.org/2000/svg">
    <title>
        system-youku-small
    </title>
    <g stroke="none" stroke-width="1" fill="none" fill-rule="evenodd">
        <circle stroke="currentColor" cx="11.5" cy="11.5" r="11"/>
        <path d="M13.4,10.2 L11.5,8.8 C11,8.5 10.5,8 9.8,8.4 C9.3,8.7 9.2,9.3 9.5,9.7 C9.5,9.7 9.5,9.8 9.6,9.8 C9.8,10 10,10.1 10.2,10.3 C10.8,10.7 11.4,11 11.9,11.4 C11.4,11.8 10.8,12.2 10.3,12.5 C10.1,12.6 9.9,12.8 9.8,12.9 C9.4,13.2 9.3,13.8 9.6,14.3 C9.6,14.3 9.6,14.3 9.6,14.3 C10.2,15 10.9,14.5 11.5,14.1 L13.3,12.8 C13.8,12.4 14.6,11.8 14.6,11.4 C14.5,11 13.8,10.6 13.4,10.2 Z M17.8,10.2 C17.1,6.7 13.7,4.4 10.2,5.1 C8,5.5 6.2,7.1 5.4,9.2 C4.2,12.5 5.9,16.3 9.2,17.5 C11,18.2 13.1,18 14.7,17 C17.1,15.6 18.3,12.9 17.8,10.2 L17.8,10.2 Z M15.9,12.3 C15.4,14.7 13,16.3 10.6,15.8 C8.2,15.3 6.5,13 7,10.6 C7.5,8.2 9.9,6.6 12.3,7.1 C12.8,7.2 13.3,7.4 13.7,7.7 C15.4,8.6 16.2,10.5 15.9,12.3 Z" fill="currentColor" fill-rule="nonzero"/>
    </g>
</svg>
