<svg width="48" height="48" viewBox="0 0 48 48" version="1.1" xmlns="http://www.w3.org/2000/svg">
    <title>
        system-vimeo-large
    </title>
    <g stroke="none" stroke-width="1" fill="none" fill-rule="evenodd">
        <circle stroke="currentColor" cx="23.5" cy="23.5" r="22"/>
        <path d="M36.636944,18.3210225 C36.5167932,20.9093357 34.6810513,24.4535704 31.1305284,28.9518692 C27.4595847,33.6508 24.3537546,36 21.8130382,36 C20.239738,36 18.9072794,34.5695675 17.8197124,31.7076411 C17.0928677,29.084297 16.366833,26.4612182 15.6402583,23.8378741 C14.8321431,20.9775399 13.9657075,19.5455152 13.0393315,19.5455152 C12.8373702,19.5455152 12.1305056,19.9640295 10.9203578,20.7978734 L9.64999962,19.186182 C10.9824582,18.0330783 12.2970967,16.88024 13.5904051,15.7258094 C15.3675566,14.2133725 16.7016352,13.4180096 17.5907509,13.3375975 C19.6921745,13.1388232 20.9854828,14.5533324 21.470946,17.5813908 C21.9955594,20.8482968 22.3584417,22.8803601 22.562563,23.675723 C23.1681769,26.3861139 23.8345412,27.7395843 24.562736,27.7395843 C25.1278496,27.7395843 25.9767351,26.8606247 27.1085824,25.1027055 C28.2393497,23.3442555 28.8449636,22.0064428 28.9267741,21.0874099 C29.0876952,19.5699307 28.4818113,18.8093334 27.1085824,18.8093334 C26.4621982,18.8093334 25.7958339,18.9558267 25.1102995,19.2453632 C26.4370881,14.9649467 28.9724044,12.8861753 32.7146286,13.004803 C35.4888965,13.0849497 36.796785,14.8569344 36.636944,18.3210225" fill="currentColor" fill-rule="nonzero"/>
    </g>
</svg>
