<svg width="24" height="24" viewBox="0 0 24 24" version="1.1" xmlns="http://www.w3.org/2000/svg">
    <title>
        thumbs-down-small
    </title>
    <path d="M17.5,10 L17.5,2.5 M17,12.5 L9.5,21.5 L8.5,20.5 C8.1968,20.2231 7.98616,19.8596 7.89671,19.4589 C7.80726,19.0581 7.84332,18.6395 8,18.26 L10.5,12.5 L4.33,12.5 C4.10857,12.4997 3.88995,12.4505 3.68982,12.3557 C3.48969,12.261 3.31302,12.1231 3.1725,11.952 C3.03197,11.7809 2.93107,11.5807 2.87704,11.366 C2.82301,11.1513 2.81719,10.9272 2.86,10.71 L4.5,2.5 L21.5,2.5 L21.5,12.5 L17,12.5 Z" stroke="currentColor" stroke-width="1" fill="none" fill-rule="evenodd"/>
</svg>
