<svg width="48" height="48" viewBox="0 0 48 48" version="1.1" xmlns="http://www.w3.org/2000/svg">
    <title>
        thumbs-down-large
    </title>
    <path d="M34.5,23 L34.5,5.5 M33.5,25.5 L18.5,43.5 L16.5,41.5 C15.8936,40.9462 15.4723,40.2192 15.2934,39.4177 C15.1145,38.6162 15.1866,37.7791 15.5,37.02 L20.5,25.5 L8.16,25.5 C7.71715,25.4995 7.2799,25.401 6.87964,25.2115 C6.47939,25.0219 6.12605,24.7462 5.845,24.4039 C5.56394,24.0617 5.36214,23.6615 5.25408,23.232 C5.14602,22.8026 5.13438,22.3545 5.22,21.92 L8.5,5.5 L42.5,5.5 L42.5,25.5 L33.5,25.5 Z" stroke="currentColor" stroke-width="1" fill="none" fill-rule="evenodd"/>
</svg>
