<svg width="48" height="48" viewBox="0 0 48 48" version="1.1" xmlns="http://www.w3.org/2000/svg">
    <title>
        thumbs-up-large
    </title>
    <path d="M13.5,25 L13.5,42.5 M14.5,22.5 L29.5,4.5 L31.5,6.5 C32.1064,7.05378 32.5277,7.78079 32.7066,8.58228 C32.8855,9.38378 32.8134,10.2209 32.5,10.98 L27.5,22.5 L39.84,22.5 C40.2829,22.5005 40.7201,22.599 41.1204,22.7885 C41.5206,22.9781 41.874,23.2538 42.155,23.5961 C42.4361,23.9383 42.6379,24.3385 42.7459,24.768 C42.854,25.1974 42.8656,25.6455 42.78,26.08 L39.5,42.5 L5.5,42.5 L5.5,22.5 L14.5,22.5 Z" stroke="currentColor" stroke-width="1" fill="none" fill-rule="evenodd"/>
</svg>
