<svg width="24" height="24" viewBox="0 0 24 24" version="1.1" xmlns="http://www.w3.org/2000/svg">
    <title>
        thumbs-up-small
    </title>
    <path d="M6.5,14 L6.5,21.5 M7,11.5 L14.5,2.5 L15.5,3.5 C15.8032,3.77689 16.0138,4.14039 16.1033,4.54114 C16.1927,4.94189 16.1567,5.36046 16,5.74 L13.5,11.5 L19.67,11.5 C19.8914,11.5003 20.1101,11.5495 20.3102,11.6443 C20.5103,11.739 20.687,11.8769 20.8275,12.048 C20.968,12.2191 21.0689,12.4193 21.123,12.634 C21.177,12.8487 21.1828,13.0728 21.14,13.29 L19.5,21.5 L2.5,21.5 L2.5,11.5 L7,11.5 Z" stroke="currentColor" stroke-width="1" fill="none" fill-rule="evenodd"/>
</svg>
