<svg width="48" height="48" viewBox="0 0 48 48" version="1.1" xmlns="http://www.w3.org/2000/svg">
    <title>
        time-long-large
    </title>
    <path d="M23,41.5 C13.1,41.2 5.2,32.9 5.5,23 L5.5,22.5 M23.5,5.5 C33.4,5.5 41.5,13.6 41.5,23.5 C41.5,33.4 33.4,41.5 23.5,41.5 L23,41.5 M7,14 L9,16 M14.5,7.5 L16,10 M23.5,26.5 C25.1568542,26.5 26.5,25.1568542 26.5,23.5 C26.5,21.8431458 25.1568542,20.5 23.5,20.5 C21.8431458,20.5 20.5,21.8431458 20.5,23.5 C20.5,25.1568542 21.8431458,26.5 23.5,26.5 Z M25.6,21.4 L31.5,14.5 M1,27 L5.5,22.5 L10,27" stroke="currentColor" stroke-width="1" fill="none" fill-rule="evenodd"/>
</svg>
