<?xml version="1.0" encoding="UTF-8"?>
<svg width="24px" height="24px" viewBox="0 0 24 24" version="1.1" xmlns="http://www.w3.org/2000/svg" xmlns:xlink="http://www.w3.org/1999/xlink">
    <!-- Generator: sketchtool 48.1 (47250) - http://www.bohemiancoding.com/sketch -->
    <title>time-climate2-small</title>
    <desc>Created with sketchtool.</desc>
    <defs></defs>
    <g id="icons-published" stroke="none" stroke-width="1" fill="none" fill-rule="evenodd">
        <g id="briefing" transform="translate(-2084.000000, -2074.000000)"></g>
        <g id="time-climate2-small">
            <path d="M18,23 L18,22.3 L19.1,21.4 C19.3,21.3 19.4,21.1 19.6,21 C19.8,20.9 19.9,20.8 20,20.7 C20.1,20.6 20.2,20.5 20.3,20.4 C20.4,20.3 20.4,20.2 20.5,20.1 C20.6,20 20.6,19.9 20.6,19.8 C20.6,19.7 20.6,19.6 20.6,19.5 C20.6,19.4 20.6,19.3 20.5,19.2 C20.4,19.1 20.4,19 20.3,18.9 C20.2,18.8 20.1,18.8 20,18.7 C19.9,18.6 19.7,18.6 19.6,18.6 C19.5,18.6 19.3,18.6 19.2,18.6 C19.1,18.6 18.9,18.6 18.8,18.7 C18.7,18.8 18.6,18.8 18.5,18.8 C18.4,18.8 18.2,19 18.1,19 L18.1,18.2 C18.2,18.2 18.3,18.1 18.4,18.1 C18.5,18.1 18.6,18 18.7,18 C18.8,18 19,17.9 19.1,17.9 C19.2,17.9 19.4,17.9 19.6,17.9 C19.8,17.9 20,17.9 20.2,18 C20.4,18.1 20.6,18.1 20.7,18.2 C20.8,18.3 21,18.4 21.1,18.5 C21.2,18.6 21.3,18.7 21.3,18.8 C21.3,18.9 21.4,19 21.4,19.2 C21.4,19.4 21.4,19.5 21.4,19.6 C21.4,19.8 21.4,19.9 21.3,20.1 C21.2,20.3 21.2,20.4 21.1,20.6 C21,20.8 20.9,20.9 20.8,21 C20.7,21.1 20.6,21.3 20.4,21.4 C20.2,21.5 20.1,21.7 20,21.8 C19.9,21.9 19.7,22 19.5,22.2 L19.2,22.5 L21.6,22.5 L21.6,23 L18,23 Z" id="Shape" fill="#000000" fill-rule="nonzero"></path>
            <path d="M16,22.6 C14.6,23.2 13.1,23.5 11.5,23.5 C5.4,23.5 0.5,18.6 0.5,12.5 C0.5,6.4 5.4,1.5 11.5,1.5 C17.6,1.5 22.5,6.4 22.5,12.5 C22.5,13.7 22.3,14.9 21.9,16" id="Shape" stroke="#000000"></path>
            <polyline id="Shape" stroke="#000000" points="16 13.5 11.5 13.5 11.5 5.5"></polyline>
        </g>
    </g>
</svg>