<svg width="48" height="48" viewBox="0 0 48 48" version="1.1" xmlns="http://www.w3.org/2000/svg">
    <title>
        time-climate2-large
    </title>
    <g stroke="none" stroke-width="1" fill="none" fill-rule="evenodd">
        <path d="M23.5,20.5 C25.2,20.5 26.5,21.8 26.5,23.5 C26.5,25.2 25.2,26.5 23.5,26.5 C21.8,26.5 20.5,25.2 20.5,23.5 C20.5,21.8 21.8,20.5 23.5,20.5 Z M32,39.4 C29.5,40.8 26.6,41.5 23.5,41.5 C13.6,41.5 5.5,33.4 5.5,23.5 C5.5,13.6 13.6,5.5 23.5,5.5 C33.4,5.5 41.5,13.6 41.5,23.5 C41.5,25.8 41.1,28 40.3,30 M23.5,20.5 L23.5,9 M26.5,23.5 L34,23.5" stroke="currentColor"/>
        <path d="M35,41.9690933 L35,41.0359879 L37.4216309,38.706398 C37.684002,38.4546064 37.9257395,38.2176296 38.1468506,37.9954605 C38.3679617,37.7732914 38.5689688,37.561176 38.7498779,37.359108 C38.930787,37.1570399 39.0900058,36.9629094 39.2275391,36.7767105 C39.3650723,36.5905117 39.4809159,36.4085473 39.5750732,36.2308121 C39.6692306,36.0530768 39.7401121,35.8769311 39.7877197,35.7023697 C39.8353274,35.5278083 39.8591309,35.3506046 39.8591309,35.1707535 C39.8591309,34.9126142 39.8194584,34.6788112 39.7401123,34.4693375 C39.6607662,34.2598638 39.5401619,34.0821312 39.3782959,33.9361343 C39.2164299,33.7901375 39.011191,33.6779967 38.7625732,33.5997086 C38.5139555,33.5214204 38.2203793,33.4822769 37.8818359,33.4822769 C37.615233,33.4822769 37.3629162,33.4928562 37.1248779,33.5140152 C36.8868396,33.5351742 36.6604422,33.5674411 36.4456787,33.610817 C36.2309153,33.6541928 36.0272633,33.7081474 35.8347168,33.7726822 C35.6421703,33.837217 35.4580901,33.9139171 35.2824707,34.0027847 L35.2824707,32.9300308 C35.4369311,32.8432791 35.6062003,32.767108 35.7902832,32.7015152 C35.9743662,32.6359224 36.1748443,32.580381 36.3917236,32.5348892 C36.608603,32.4893975 36.8408191,32.4555436 37.0883789,32.4333267 C37.3359387,32.4111098 37.6025376,32.4000015 37.8881836,32.4000015 C38.2690449,32.4000015 38.6134018,32.4290947 38.9212646,32.4872818 C39.2291275,32.5454689 39.5031319,32.6290456 39.7432861,32.7380142 C39.9834403,32.8469829 40.1897371,32.9808113 40.3621826,33.1395035 C40.5346281,33.2981957 40.67692,33.4780441 40.7890625,33.6790543 C40.901205,33.8800644 40.9837237,34.1017012 41.0366211,34.3439713 C41.0895185,34.5862413 41.1159668,34.8459637 41.1159668,35.1231461 C41.1159668,35.3939807 41.082113,35.6537031 41.0144043,35.9023209 C40.9466956,36.1509386 40.8509528,36.3932051 40.7271729,36.6291275 C40.6033929,36.8650499 40.4552824,37.096737 40.2828369,37.3241959 C40.1103914,37.5516547 39.9194346,37.7791101 39.7099609,38.0065689 C39.5004872,38.2340277 39.2746187,38.463599 39.0323486,38.6952896 C38.7900785,38.9269802 38.5398776,39.1634281 38.2817383,39.4046402 L36.6472168,40.9629898 L41.4936523,40.9629898 L41.4936523,41.9690933 L35,41.9690933 Z" fill="currentColor" fill-rule="nonzero"/>
    </g>
</svg>
