<svg width="48" height="48" viewBox="0 0 48 48" version="1.1" xmlns="http://www.w3.org/2000/svg">
    <title>
        time-climate1-large
    </title>
    <g stroke="none" stroke-width="1" fill="none" fill-rule="evenodd">
        <path d="M23.5,20.5 C25.2,20.5 26.5,21.8 26.5,23.5 C26.5,25.2 25.2,26.5 23.5,26.5 C21.8,26.5 20.5,25.2 20.5,23.5 C20.5,21.8 21.8,20.5 23.5,20.5 Z M32,39.4 C29.5,40.8 26.6,41.5 23.5,41.5 C13.6,41.5 5.5,33.4 5.5,23.5 C5.5,13.6 13.6,5.5 23.5,5.5 C33.4,5.5 41.5,13.6 41.5,23.5 C41.5,25.8 41.1,28 40.3,30 M23.5,20.5 L23.5,9 M26.5,23.5 L34,23.5" stroke="currentColor"/>
        <path fill="currentColor" fill-rule="nonzero" d="M37.4946289 41.9135742L37.4946289 33.6552734 35 34.0869141 35 33.0808105 37.9643555 32.5 38.7165527 32.5 38.7165527 41.9135742z"/>
    </g>
</svg>
