<svg xmlns="http://www.w3.org/2000/svg" width="24" height="24" viewBox="0 0 24px 24px"><path d="M18 23v-.735l1.07-.895c.166-.14.317-.27.454-.392s.257-.238.364-.348.2-.214.278-.314.143-.197.194-.293.09-.19.115-.283.037-.187.037-.283c0-.115-.019-.222-.056-.32s-.097-.184-.177-.256-.183-.128-.308-.168-.273-.06-.447-.06c-.134 0-.268.01-.402.03s-.262.047-.385.08-.24.07-.347.111-.204.082-.286.122v-.812c.073-.046.16-.09.263-.134s.218-.083.345-.117.266-.062.417-.082.311-.031.48-.031c.235 0 .444.02.63.059s.35.094.492.165.264.155.366.253.184.206.25.324.112.243.142.376.045.271.045.412c0 .169-.023.331-.07.486s-.114.307-.198.453-.184.289-.3.426-.24.271-.376.401-.28.259-.43.384-.305.249-.46.37l-.336.26h2.394V23H18z"/><path fill="none" stroke="currentColor" d="M16 22.6c-1.4.6-2.9.9-4.5.9-6.1 0-11-4.9-11-11s4.9-11 11-11 11 4.9 11 11c0 1.2-.2 2.4-.6 3.5"/><path fill="none" stroke="currentColor" d="M16 13.5h-4.5v-8"/></svg>