<svg xmlns="http://www.w3.org/2000/svg" width="48" height="48" viewBox="0 0 48 48"><path d="M35 42v-1.419l2.065-1.729c.321-.268.613-.52.876-.755s.498-.46.705-.671.385-.415.536-.607c.15-.193.275-.382.374-.566.1-.185.173-.367.221-.546s.073-.362.073-.546a1.72 1.72 0 0 0-.109-.619 1.25 1.25 0 0 0-.342-.493c-.155-.139-.353-.247-.593-.325s-.529-.117-.863-.117c-.26 0-.519.02-.777.06a6.896 6.896 0 0 0-1.414.369c-.209.079-.393.157-.55.234v-1.115c.14-.088 2.027-.719 3.443-.563C40.063 32.75 41 33.634 41 35.53s-4.844 5.5-4.844 5.5h5.406V42H35z"/><path fill="none" stroke="currentColor" d="M23.5 20.5c1.7 0 3 1.3 3 3s-1.3 3-3 3-3-1.3-3-3 1.3-3 3-3z"/><path fill="none" stroke="currentColor" stroke-linejoin="round" d="M32 39.4c-2.5 1.4-5.4 2.1-8.5 2.1-9.9 0-18-8.1-18-18s8.1-18 18-18 18 8.1 18 18c0 2.3-.4 4.5-1.2 6.5M23.5 20.5V9"/><path fill="none" stroke="currentColor" d="M26.5 23.5H34"/></svg>