<?xml version="1.0" encoding="UTF-8"?>
<svg width="48px" height="48px" viewBox="0 0 48 48" version="1.1" xmlns="http://www.w3.org/2000/svg" xmlns:xlink="http://www.w3.org/1999/xlink">
    <!-- Generator: sketchtool 48.1 (47250) - http://www.bohemiancoding.com/sketch -->
    <title>time-short-large</title>
    <desc>Created with sketchtool.</desc>
    <defs></defs>
    <g id="icons-published" stroke="none" stroke-width="1" fill="none" fill-rule="evenodd">
        <g id="briefing" transform="translate(-3168.000000, -2074.000000)"></g>
        <g id="time-short-large" stroke="#000000">
            <path d="M41.5,24.5 L41.5,23.5 C41.5,13.6 33.4,5.5 23.5,5.5 L23,5.5" id="Shape"></path>
            <circle id="Oval" cx="23.5" cy="23.5" r="3"></circle>
            <path d="M46,20 L41.5,24.5 L37,20 M23.5,40 L23.5,43 M7,14 L9,16 M31,38 L33,40 M13,40 L15,38 M14.5,7.5 L16,10 M38,31.5 L40,33 M6,33 L8,31.5 M4,23.5 L7,23.5 M25.6,21.4 L31.5,14.5" id="Shape"></path>
        </g>
    </g>
</svg>