<?xml version="1.0" encoding="UTF-8"?>
<svg width="48px" height="48px" viewBox="0 0 48 48" version="1.1" xmlns="http://www.w3.org/2000/svg" xmlns:xlink="http://www.w3.org/1999/xlink">
    <!-- Generator: sketchtool 48.1 (47250) - http://www.bohemiancoding.com/sketch -->
    <title>time-climate2-large</title>
    <desc>Created with sketchtool.</desc>
    <defs/>
    <g id="icons-published" stroke="none" stroke-width="1" fill="none" fill-rule="evenodd">
        <g id="briefing" transform="translate(-2016.000000, -2074.000000)"/>
        <g id="time-climate2-large">
            <path d="M35,42 L35,40.6 L37.1,38.9 C37.4,38.6 37.7,38.4 38,38.1 C38.3,37.8 38.5,37.6 38.7,37.4 C38.9,37.2 39.1,37 39.2,36.8 C39.4,36.6 39.5,36.4 39.6,36.2 C39.7,36 39.8,35.8 39.8,35.7 C39.8,35.6 39.9,35.3 39.9,35.2 C39.9,35 39.9,34.8 39.8,34.6 C39.7,34.4 39.6,34.2 39.5,34.1 C39.3,34 39.1,33.9 38.9,33.8 C38.7,33.7 38.4,33.7 38,33.7 C37.7,33.7 37.5,33.7 37.2,33.8 C36.7,33.9 36.2,34 35.8,34.2 C35.6,34.3 35.4,34.4 35.3,34.4 L35.3,33.3 C35.4,33.2 37.3,32.6 38.7,32.7 C40.1,32.9 41.1,33.7 41.1,35.6 C41.1,37.5 36.2,41 36.2,41 L41.6,41 L41.6,42 L35,42 Z" id="Shape" fill="currentColor" fill-rule="nonzero"/>
            <path d="M23.5,20.5 C25.2,20.5 26.5,21.8 26.5,23.5 C26.5,25.2 25.2,26.5 23.5,26.5 C21.8,26.5 20.5,25.2 20.5,23.5 C20.5,21.8 21.8,20.5 23.5,20.5 Z" id="Shape" stroke="currentColor"/>
            <path d="M32,39.4 C29.5,40.8 26.6,41.5 23.5,41.5 C13.6,41.5 5.5,33.4 5.5,23.5 C5.5,13.6 13.6,5.5 23.5,5.5 C33.4,5.5 41.5,13.6 41.5,23.5 C41.5,25.8 41.1,28 40.3,30 M23.5,20.5 L23.5,9" id="Shape" stroke="currentColor" stroke-linejoin="round"/>
            <path d="M26.5,23.5 L34,23.5" id="Shape" stroke="currentColor"/>
        </g>
    </g>
</svg>