<svg width="48" height="48" viewBox="0 0 48 48" version="1.1" xmlns="http://www.w3.org/2000/svg">
    <title>
        tire-sealant-large
    </title>
    <path d="M20.1,21 L20.9,23.25 M22.9,36.75 L22.8656,39 M24.5,33.15 L26.1,34.5 M20.9,33.15 L19.3,34.5 M20.5,27.975 L18.5,27.525 M24.9,28.2 L26.5,27.3 M29.4172,27 C29.4717,27.6512 29.5,28.3193 29.5,29 C29.5,35.9036 26.5899,41.5 23,41.5 C19.4101,41.5 16.5,35.9036 16.5,29 C16.5,22.0964 19.4101,16.5 23,16.5 C23.3401,16.5 23.674,16.5502 24,16.647 M31.4954,28.5 C31.4984,28.666 31.5,28.8327 31.5,29 C31.5,37.5604 27.4299,44.5 22.4091,44.5 L15.5909,44.5 C10.5701,44.5 6.5,37.5604 6.5,29 C6.5,20.4396 10.5701,13.5 15.5909,13.5 L22.4091,13.5 C23.1286,13.5 23.8287,13.6425 24.5,13.9119 M24.5,22.125 L24.1,23.25 M42.997,17.8755 C43.1184,22.489 39.5976,26.2526 34.9841,26.4954 C34.8627,26.4954 34.6199,26.4954 34.4985,26.4954 C29.7636,26.374 26,22.6104 26,17.8755 C26,13.1407 34.4985,1 34.4985,1 C34.4985,1 42.997,13.2621 42.997,17.8755 Z" stroke="currentColor" stroke-width="1" fill="none" fill-rule="evenodd"/>
</svg>
