<svg width="24" height="24" viewBox="0 0 24 24" version="1.1" xmlns="http://www.w3.org/2000/svg">
    <title>
        tire-sealant-small
    </title>
    <path d="M10.5,6.5 C9.92129,6.5 7.44231,6.5 6.86364,6.5 C4.45367,6.5 2.5,9.85786 2.5,14 C2.5,18.1421 4.45367,21.5 6.86364,21.5 C7.44231,21.5 9.92133,21.5 10.5,21.5 M10.5,21.5 C8.29086,21.5 6.5,18.1421 6.5,14 C6.5,9.85786 8.29086,6.5 10.5,6.5 C10.8453,6.5 11.1804,6.58204 11.5,6.73628 M10.5,21.5 C12.4352,21.5 14.0494,18.9234 14.42,15.5 M21.4984,9.93411 C21.5627,12.3765 19.6987,14.369 17.2563,14.4976 C17.192,14.4976 17.0635,14.4976 16.9992,14.4976 C14.4925,14.4333 12.5,12.4408 12.5,9.93411 C12.5,7.42742 16.9992,1 16.9992,1 C16.9992,1 21.4984,7.49169 21.4984,9.93411 Z M10.5,16.5 C11.0523,16.5 11.5,15.3807 11.5,14 C11.5,12.6193 11.0523,11.5 10.5,11.5 C9.94772,11.5 9.5,12.6193 9.5,14 C9.5,15.3807 9.94772,16.5 10.5,16.5 Z" stroke="currentColor" stroke-width="1" fill="none" fill-rule="evenodd"/>
</svg>
