<svg width="48" height="48" viewBox="0 0 48 48" version="1.1" xmlns="http://www.w3.org/2000/svg">
    <title>
        tire-battery-large
    </title>
    <path d="M35,11 L32.5,15.49 L36.6,15.49 L34,20 M31.5,5.5 L28.5,5.5 L28.5,23.5 C28.5,24.0304 28.7107,24.5391 29.0858,24.9142 C29.4609,25.2893 29.9696,25.5 30.5,25.5 L38.5,25.5 C39.0304,25.5 39.5391,25.2893 39.9142,24.9142 C40.2893,24.5391 40.5,24.0304 40.5,23.5 L40.5,5.5 L37.5,5.5 M31.5,5.5 L31.5,2.5 L37.5,2.5 L37.5,5.5 M31.5,5.5 L37.5,5.5 M20.1,21 L20.9,23.25 M24.9,21 L24.1,23.25 M22.9,36.75 L22.8656,39 M24.5,33.15 L26.1,34.5 M20.9,33.15 L19.3,34.5 M20.5,27.975 L18.5,27.525 M24.9,28.2 L26.5,27.3 M31.4814,28 C31.4937,28.3306 31.5,28.6641 31.5,29 C31.5,37.5604 27.4299,44.5 22.4091,44.5 L15.5909,44.5 C10.5701,44.5 6.5,37.5604 6.5,29 C6.5,20.4396 10.5701,13.5 15.5909,13.5 L22.4091,13.5 C23.7232,13.5 24.9721,13.9754 26.1,14.8307 M29.4795,28 C29.4931,28.3299 29.5,28.6634 29.5,29 C29.5,35.9036 26.5899,41.5 23,41.5 C19.4101,41.5 16.5,35.9036 16.5,29 C16.5,22.0964 19.4101,16.5 23,16.5 C24.1225,16.5 25.1786,17.0472 26.1,18.0105" stroke="currentColor" stroke-width="1" fill="none" fill-rule="evenodd"/>
</svg>
