<svg width="24" height="24" viewBox="0 0 24 24" version="1.1" xmlns="http://www.w3.org/2000/svg">
    <title>
        tire-battery-small
    </title>
    <path d="M15.5,3.50203615 L15.5,1.5 L19.5,1.5 L19.5,3.50203615 M10.5,6.5 C9.92129,6.5 7.44231,6.5 6.86364,6.5 C4.45367,6.5 2.5,9.85786 2.5,14 C2.5,18.1421 4.45367,21.5 6.86364,21.5 C7.44231,21.5 9.92133,21.5 10.5,21.5 M10.5,21.5 C8.29086,21.5 6.5,18.1421 6.5,14 C6.5,9.85786 8.29086,6.5 10.5,6.5 C10.8453,6.5 11.1804,6.58204 11.5,6.73628 M10.5,21.5 C11.8919,21.5 13.1178,20.167 13.8343,18.1446 M21.5,3.5 L21.5,15.1667 C21.5,15.5203 21.3595,15.8594 21.1095,16.1095 C20.8594,16.3595 20.5203,16.5 20.1667,16.5 L14.8333,16.5 C14.4797,16.5 14.1406,16.3595 13.8905,16.1095 C13.6405,15.8594 13.5,15.5203 13.5,15.1667 L13.5,3.5 L21.5,3.5 Z M10.5,16.5 C11.0523,16.5 11.5,15.3807 11.5,14 C11.5,12.6193 11.0523,11.5 10.5,11.5 C9.94772,11.5 9.5,12.6193 9.5,14 C9.5,15.3807 9.94772,16.5 10.5,16.5 Z" stroke="currentColor" stroke-width="1" fill="none" fill-rule="evenodd"/>
</svg>
