<svg width="24" height="24" viewBox="0 0 24 24" version="1.1" xmlns="http://www.w3.org/2000/svg">
    <title>
        tire-small
    </title>
    <path d="M14.8333,1.5 C14.0135,1.5 10.5016,1.5 9.68182,1.5 C6.26769,1.5 3.5,6.20101 3.5,12 C3.5,17.799 6.26769,22.5 9.68182,22.5 C10.5016,22.5 13.4984,22.5 14.3182,22.5 M14.8333,1.5 C11.7037,1.5 9.16667,6.20101 9.16667,12 C9.16667,17.799 11.7037,22.5 14.8333,22.5 C17.9629,22.5 20.5,17.799 20.5,12 C20.5,6.20101 17.9629,1.5 14.8333,1.5 Z M14.8333,15.5 C15.6157,15.5 16.25,13.933 16.25,12 C16.25,10.067 15.6157,8.5 14.8333,8.5 C14.0509,8.5 13.4167,10.067 13.4167,12 C13.4167,13.933 14.0509,15.5 14.8333,15.5 Z" stroke="currentColor" stroke-width="1" fill="none" fill-rule="evenodd"/>
</svg>
