<svg width="48" height="48" viewBox="0 0 48 48" version="1.1" xmlns="http://www.w3.org/2000/svg">
    <title>
        top-speed-large
    </title>
    <g stroke="currentColor" stroke-width="1" fill="none" fill-rule="evenodd">
        <path d="M11.9,27.5 L4,27.5 M11.9,24.6 L2,24.6 M11.9,21.5 L4,21.5" stroke-linejoin="round"/>
        <circle cx="38.7" cy="27.7" r="2.8"/>
        <circle cx="21.2" cy="27.7" r="2.8"/>
        <path d="M36,28.5 L23.8,28.5"/>
        <path d="M18.5,28.7 C15.2,28.7 14.5,27.5 14.5,27.5 L14.5,22.4 L20.3,19.2 C20.3,19.2 22.6,17.4 28,17.4 C33.4,17.4 36.7,20.6 36.7,20.6 L43.2,22.7 C43.2,22.7 44.6,23 45.2,24.4 C45.5,25 45.5,26 45.5,27 L45.5,28.4 L41.4,28.4" stroke-linejoin="round"/>
    </g>
</svg>
