<?xml version="1.0" encoding="UTF-8"?>
<svg width="48px" height="48px" viewBox="0 0 48 48" version="1.1" xmlns="http://www.w3.org/2000/svg" xmlns:xlink="http://www.w3.org/1999/xlink">
    <!-- Generator: sketchtool 48.1 (47250) - http://www.bohemiancoding.com/sketch -->
    <title>top-speed-large</title>
    <desc>Created with sketchtool.</desc>
    <defs/>
    <g id="icons-published" stroke="none" stroke-width="1" fill="none" fill-rule="evenodd">
        <g id="briefing" transform="translate(-3456.000000, -2074.000000)"/>
        <g id="top-speed-large" stroke="currentColor">
            <path d="M11.9,27.5 L4,27.5 M11.9,24.6 L2,24.6 M11.9,21.5 L4,21.5" id="Shape" stroke-linejoin="round"/>
            <circle id="Oval" cx="38.7" cy="27.7" r="2.8"/>
            <circle id="Oval" cx="21.2" cy="27.7" r="2.8"/>
            <path d="M36,28.5 L23.8,28.5" id="Shape"/>
            <path d="M18.5,28.7 C15.2,28.7 14.5,27.5 14.5,27.5 L14.5,22.4 L20.3,19.2 C20.3,19.2 22.6,17.4 28,17.4 C33.4,17.4 36.7,20.6 36.7,20.6 L43.2,22.7 C43.2,22.7 44.6,23 45.2,24.4 C45.5,25 45.5,26 45.5,27 L45.5,28.4 L41.4,28.4" id="Shape" stroke-linejoin="round"/>
        </g>
    </g>
</svg>