<svg width="24" height="24" viewBox="0 0 24 24" version="1.1" xmlns="http://www.w3.org/2000/svg">
    <title>
        top-speed-small
    </title>
    <path d="M11.5,15.5 C11.5,16.3284271 10.8284271,17 10,17 C9.17157288,17 8.5,16.3284271 8.5,15.5 L8.5,15.5 L8.5,15.5 L7.31864814,15.3480812 C6.88072538,15.3163495 6.46966227,14.9380215 6.5,14.5 L6.71617782,12.4942741 C6.74784541,12.0370518 7.06915442,11.6516776 7.51322685,11.5382988 C7.79574562,11.4661694 8.07826439,11.4065615 8.36078316,11.3594751 C9.15758405,11.2266749 10.7511858,10.1642737 11.813587,9.76587329 C12.3581447,9.56166414 13.4631262,9.49513811 14.5,9.50027299 C15.4860081,9.50515597 16.4068796,9.571682 16.8599926,9.76587329 C17.251385,9.9336129 18.0039192,10.5533469 19.1175951,11.6250754 C20.4455966,11.8021422 21.3751976,11.9792091 21.9063982,12.1562759 C22.7031991,12.4218762 23.2343997,12.9530768 23.3671999,13.3514773 C23.4557333,13.6170776 23.5,14.015478 23.5,14.5466786 L23.4984189,14.7594787 C23.4984189,15.1261962 23.2011357,15.4234794 22.8344182,15.4234794 L21.5,15.5 C21.5,16.3284271 20.8284271,17 20,17 C19.1715729,17 18.5,16.3284271 18.5,15.5 L18.5,15.5 L18.5,15.5 L11.5,15.5 Z M5,15.5 L1,15.5 M5,13.5 L0,13.5 M5,11.5 L1,11.5" stroke="currentColor" stroke-width="1" fill="none" fill-rule="evenodd"/>
</svg>
