<svg width="48" height="48" viewBox="0 0 48 48" version="1.1" xmlns="http://www.w3.org/2000/svg">
    <title>
        top-speed-large
    </title>
    <path d="M11,27.5 L4,27.5 M11,24.5 L2,24.5 M11,21.5 L4,21.5 M23.0029764,28.5005139 C23.0029764,30.1573682 21.6598307,31.5005139 20.0029764,31.5005139 C18.3461222,31.5005139 17.0029764,30.1573682 17.0029764,28.5005139 L17.0029764,28.5005139 L17.0029764,28.5005139 L15.0441045,28.3585747 C14.2197027,28.2988388 13.4458648,27.583442 13.5029764,26.7588541 L13.9069608,23.136805 C13.9665759,22.2760711 14.5714491,21.5505935 15.407428,21.3371546 C15.9392775,21.2013691 16.4711269,21.0891555 17.0029764,21.0005139 C18.5029764,20.7505139 21.5029764,18.7505139 23.5029764,18.0005139 C24.5281216,17.6160845 26.5510324,17.4908474 28.5029764,17.5005139 C30.3591642,17.5097063 32.1499785,17.6349434 33.0029764,18.0005139 C33.7397836,18.3162884 35.1564503,19.4829551 37.2529764,21.5005139 C39.7529764,21.8338472 41.5029764,22.1671806 42.5029764,22.5005139 C44.0029764,23.0005139 45.0029764,24.0005139 45.2529764,24.7505139 C45.4196431,25.2505139 45.5029764,26.0005139 45.5029764,27.0005139 L45.5029764,27.2505139 C45.5029764,27.9408699 44.9433324,28.5005139 44.2529764,28.5005139 L42.0029764,28.5005139 C42.0029764,30.1573682 40.6598307,31.5005139 39.0029764,31.5005139 C37.3461222,31.5005139 36.0029764,30.1573682 36.0029764,28.5005139 L36.0029764,28.5005139 L36.0029764,28.5005139 L23.0029764,28.5005139 Z" stroke="currentColor" stroke-width="1" fill="none" fill-rule="evenodd"/>
</svg>
