<?xml version="1.0" encoding="UTF-8"?>
<svg width="24px" height="24px" viewBox="0 0 24 24" version="1.1" xmlns="http://www.w3.org/2000/svg" xmlns:xlink="http://www.w3.org/1999/xlink">
    <!-- Generator: sketchtool 48.1 (47250) - http://www.bohemiancoding.com/sketch -->
    <title>top-speed-small</title>
    <desc>Created with sketchtool.</desc>
    <defs></defs>
    <g id="icons-published" stroke="none" stroke-width="1" fill="none" fill-rule="evenodd">
        <g id="briefing" transform="translate(-3524.000000, -2074.000000)"></g>
        <g id="top-speed-small" stroke="#000000">
            <path d="M5,15.5 L1,15.5 M5,13.5 L0,13.5 M5,11.5 L1,11.5" id="Shape" stroke-linejoin="round"></path>
            <circle id="Oval" cx="19.5" cy="15" r="1.5"></circle>
            <circle id="Oval" cx="10.5" cy="15" r="1.5"></circle>
            <path d="M11.9,15.5 L18.1,15.5" id="Shape"></path>
            <path d="M9.1,15.5 C7.2,15.5 6.5,15 6.5,15 L6.5,12.2 C6.5,12.2 9.8,9.5 14.1,9.5 C17.2,9.5 18.5,11.3 18.5,11.3 L22.2,12.4 C22.2,12.4 23,12.5 23.4,13.3 C23.6,13.6 23.6,14.1 23.6,14.7 L23.6,15.5 L21,15.5" id="Shape" stroke-linejoin="round"></path>
        </g>
    </g>
</svg>