<svg xmlns="http://www.w3.org/2000/svg" width="24" height="24" viewBox="0 0 24px 24px"><g fill="none" stroke="currentColor" stroke-miterlimit="10"><path d="M12.723 6.742a4.977 4.977 0 0 1 2.346 1.341l1.872-1.124L18.25 9.08l-1.944 1.168a4.84 4.84 0 0 1-.015 2.544l1.959 1.183-1.31 2.122-1.915-1.154a4.977 4.977 0 0 1-2.302 1.298V18.5h-2.518v-2.278a4.978 4.978 0 0 1-2.225-1.275l-1.92 1.15-1.31-2.122 1.963-1.174a4.84 4.84 0 0 1-.005-2.602L4.845 9.08l1.309-2.12 1.813 1.088a4.977 4.977 0 0 1 2.239-1.288V4.5h2.517v2.242zM11.5 11v1"/><g><path d="M2.742 4.864C4.75 2.217 7.92.5 11.5.5c6.075 0 11 4.925 11 11s-4.925 11-11 11c-3.416 0-5.878-1.557-7.896-4"/><path d="M8 18.5H3.5V23"/></g></g></svg>