<svg width="48" height="48" viewBox="0 0 48 48" version="1.1" xmlns="http://www.w3.org/2000/svg">
    <title>
        torque-large
    </title>
    <g stroke="currentColor" stroke-width="1" fill="none" fill-rule="evenodd">
        <path d="M25.1,14.5 L25.1,17.2 C25.7,17.4 26.3,17.6 26.8,17.9 L28.7,16 L31,18.3 L29.1,20.2 C29.4,20.7 29.6,21.3 29.8,21.9 L32.5,21.9 L32.5,25.2 L29.8,25.2 C29.6,25.8 29.4,26.4 29.1,26.9 L31,28.8 L28.7,31 L26.8,29.1 C26.3,29.4 25.7,29.6 25.1,29.8 L25.1,32.5 L21.8,32.5 L21.8,29.8 C21.2,29.6 20.6,29.4 20.1,29.1 L18.3,31 L16,28.7 L17.9,26.8 C17.6,26.3 17.4,25.7 17.2,25.1 L14.5,25.1 L14.5,21.8 L17.2,21.8 C17.4,21.2 17.6,20.6 17.9,20.1 L16,18.3 L18.3,16 L20.2,17.9 C20.7,17.6 21.3,17.4 21.9,17.2 L21.9,14.5 L25.1,14.5 Z M23.5,23 L23.5,24 L23.5,23 Z M14.7,4.7 C15.6,4.9 16.4,5.4 17,6 L18.9,5 L20.2,7.1 L18.3,8.3 C18.5,9.1 18.5,10 18.3,10.8 L20.3,12 L19,14.1 L17,12.9 C16.4,13.5 15.6,14 14.7,14.2 L14.7,16.5 L12.2,16.5 L12.2,14.2 C11.4,14 10.6,13.5 10,12.9 L8.1,14 L6.8,12 L8.8,10.8 C8.6,10 8.6,9.1 8.8,8.2 L6.8,7.1 L8.2,5 L10,6 C10.6,5.4 11.4,4.9 12.2,4.7 L12.2,2.5 L14.7,2.5 L14.7,4.7 Z M13.5,9 L13.5,10 L13.5,9 Z"/>
        <path d="M6.5,21.6 L6.5,23.5 C6.5,32.9 14.1,40.5 23.5,40.5 C32.9,40.5 40.5,32.9 40.5,23.5 C40.5,14.1 32.9,6.5 23.5,6.5"/>
        <path d="M10.7 25.7L6.5 21.5 2.3 25.7"/>
    </g>
</svg>
