<svg xmlns="http://www.w3.org/2000/svg" width="48" height="48" viewBox="0 0 48px 48px"><g fill="none" stroke="currentColor" stroke-miterlimit="10"><path d="M25.137 14.5v2.67c.6.155 1.164.39 1.684.696l1.887-1.885 2.315 2.312-1.89 1.89c.308.517.544 1.084.699 1.683H32.5v3.272h-2.668a6.48 6.48 0 0 1-.697 1.682l1.886 1.889-2.313 2.312-1.887-1.887a6.5 6.5 0 0 1-1.683.698V32.5h-3.274v-2.668a6.483 6.483 0 0 1-1.683-.698l-1.887 1.887-2.313-2.312 1.885-1.89a6.484 6.484 0 0 1-.697-1.681H14.5v-3.272h2.67c.155-.6.389-1.166.697-1.684l-1.888-1.889 2.315-2.312 1.887 1.885a6.555 6.555 0 0 1 1.684-.696V14.5h3.272zM23.5 23v1M14.723 4.742a4.977 4.977 0 0 1 2.346 1.341l1.872-1.124L20.25 7.08l-1.944 1.168a4.84 4.84 0 0 1-.015 2.544l1.959 1.184-1.31 2.12-1.915-1.153a4.977 4.977 0 0 1-2.302 1.298V16.5h-2.518v-2.278a4.978 4.978 0 0 1-2.225-1.274l-1.92 1.149-1.31-2.121L8.713 10.8A4.84 4.84 0 0 1 8.708 8.2L6.845 7.08l1.309-2.12 1.813 1.088a4.977 4.977 0 0 1 2.239-1.288V2.5h2.517v2.242zM13.5 9v1"/><g><path d="M6.5 21.61v1.89c0 9.389 7.611 17 17 17s17-7.611 17-17-7.611-17-17-17"/><path d="M10.743 25.743L6.5 21.5l-4.243 4.243"/></g></g></svg>