<?xml version="1.0" encoding="UTF-8"?>
<svg width="48px" height="48px" viewBox="0 0 48 48" version="1.1" xmlns="http://www.w3.org/2000/svg" xmlns:xlink="http://www.w3.org/1999/xlink">
    <!-- Generator: sketchtool 48.1 (47250) - http://www.bohemiancoding.com/sketch -->
    <title>tour-large</title>
    <desc>Created with sketchtool.</desc>
    <defs/>
    <g id="icons-published" stroke="none" stroke-width="1" fill="none" fill-rule="evenodd">
        <g id="briefing" transform="translate(0.000000, -2202.000000)"/>
        <g id="tour-large" stroke="currentColor">
            <path d="M31.5,27.5 C31.3,23.7 34.2,20.7 38,20.5 C38.1,20.5 38.3,20.5 38.4,20.5 C42.3,20.5 45.4,23.6 45.5,27.5 C45.5,31.4 38.5,41.5 38.5,41.5 C38.5,41.5 31.5,31.4 31.5,27.5 Z" id="Shape"/>
            <path d="M38.5,24.5 C40.2,24.5 41.5,25.8 41.5,27.5 C41.5,29.2 40.2,30.5 38.5,30.5 C36.8,30.5 35.5,29.2 35.5,27.5 C35.5,25.8 36.8,24.5 38.5,24.5 Z M7.7,5.5 C7.8,5.5 7.9,5.5 8,5.5 C10.2,5.5 12,7.3 12,9.5 C12,11.7 8,17.7 8,17.7 C8,17.7 4,11.6 4,9.5 C3.9,7.4 5.6,5.6 7.7,5.5 Z M25.7,5.5 C25.8,5.5 25.9,5.5 26,5.5 C28.2,5.5 30,7.3 30,9.5 C30,11.7 26,17.7 26,17.7 C26,17.7 22,11.6 22,9.5 C21.9,7.4 23.6,5.6 25.7,5.5 Z" id="Shape"/>
            <polyline id="Path" points="8 21.5 24 21.5 10 32 38 46.1"/>
        </g>
    </g>
</svg>