<svg xmlns="http://www.w3.org/2000/svg" width="48" height="48" viewBox="0 0 48 48"><g fill="none" stroke="currentColor" stroke-miterlimit="10"><path d="M31.5 27.5c-.161-3.78 2.712-6.838 6.492-7 .149-.006.299-.003.448 0 3.929.038 7.017 3.071 7.06 7 0 3.88-7 14-7 14s-7-10.12-7-14z"/><path d="M38.5 24.5c1.707 0 3 1.293 3 3s-1.293 3-3 3-3-1.293-3-3 1.293-3 3-3zM7.708 5.502a3.9 3.9 0 0 1 .265 0c2.188.048 3.979 1.812 4.027 4 0 2.2-4 8.248-4 8.248s-4-6.058-4-8.248c-.073-2.135 1.572-3.927 3.708-4zM8 21.5h16L10 32l28 14.063M25.708 5.502a3.9 3.9 0 0 1 .265 0c2.188.048 3.979 1.812 4.027 4 0 2.2-4 8.248-4 8.248s-4-6.058-4-8.248c-.073-2.135 1.573-3.927 3.708-4z"/></g></svg>