<?xml version="1.0" encoding="UTF-8" standalone="no"?>
<svg width="24px" height="24px" viewBox="0 0 24 24" version="1.1" xmlns="http://www.w3.org/2000/svg" xmlns:xlink="http://www.w3.org/1999/xlink">
    <!-- Generator: sketchtool 46.2 (44496) - http://www.bohemiancoding.com/sketch -->
    <title>tour-small</title>
    <desc>Created with sketchtool.</desc>
    <defs></defs>
    <g id="icons-published" stroke="none" stroke-width="1" fill="none" fill-rule="evenodd">
        <g id="briefing" transform="translate(-68.000000, -2202.000000)"></g>
        <g id="tour-small" stroke="#000000">
            <path d="M18.5,8.5 C20.7,8.5 22.5,10.3 22.5,12.5 C22.5,14.7 18.5,20.5 18.5,20.5 C18.5,20.5 14.5,14.7 14.5,12.5 C14.4,10.3 16.1,8.6 18.3,8.5 C18.4,8.5 18.4,8.5 18.5,8.5 Z M3.5,2.5 C4.6,2.5 5.5,3.4 5.5,4.5 C5.5,5.6 3.5,8.5 3.5,8.5 C3.5,8.5 1.5,5.6 1.5,4.5 C1.5,3.4 2.3,2.5 3.4,2.5 C3.4,2.5 3.4,2.5 3.5,2.5 Z M12.5,2.5 C13.6,2.5 14.5,3.4 14.5,4.5 C14.5,5.6 12.5,8.5 12.5,8.5 C12.5,8.5 10.5,5.6 10.5,4.5 C10.5,3.4 11.3,2.5 12.4,2.5 C12.4,2.5 12.4,2.5 12.5,2.5 Z" id="Shape"></path>
            <polyline id="Path" points="3 10.5 11.5 10.5 4.5 15.5 18.5 23"></polyline>
        </g>
    </g>
</svg>