<?xml version="1.0" encoding="UTF-8"?>
<svg width="48px" height="48px" viewBox="0 0 48 48" version="1.1" xmlns="http://www.w3.org/2000/svg" xmlns:xlink="http://www.w3.org/1999/xlink">
    <!-- Generator: sketchtool 48.1 (47250) - http://www.bohemiancoding.com/sketch -->
    <title>traffic-large</title>
    <desc>Created with sketchtool.</desc>
    <defs></defs>
    <g id="icons-published" stroke="none" stroke-width="1" fill="none" fill-rule="evenodd">
        <g id="briefing" transform="translate(-288.000000, -2202.000000)"></g>
        <g id="traffic-large" stroke="#000000">
            <path d="M21,23.5 L23.4,23.5 L21,23.5 Z M20.8,26.5 C20.8,26.5 21.6,26.7 22.7,27 C23.4,27.1 24,27.6 24.1,28.4 C24.3,29.5 24.7,30 23,29.7 C21.3,29.4 20.5,29 20.5,29 L20.8,26.5 Z M43,23.5 L40.6,23.5 L43,23.5 Z M43.2,26.5 C43.2,26.5 42.4,26.7 41.3,27 C40.6,27.1 40,27.6 39.9,28.4 C39.7,29.5 39.3,30 41,29.7 C42.7,29.4 43.5,29.1 43.5,29.1 L43.2,26.5 Z M28.2,28.5 L35.9,28.5 L37.4,29.5 L36,31.5 L28.2,31.5 L26.7,29.5 L28.2,28.5 Z M41.3,24.5 L22.7,24.5 L41.3,24.5 Z" id="Shape"></path>
            <path d="M39.5,33.5 L39.5,35.5 L42.4,35.5 C43,35.5 43.4,35.1 43.5,34.5 L43.5,29.7 C43.5,25.9 42.8,25.5 42.8,25.5 L41.3,24.4 C40.6,23.6 40.1,22.8 39.7,21.9 C39.3,21 38.5,20.5 37.6,20.4 L26.4,20.4 C25.5,20.5 24.7,21 24.3,21.9 C23.9,22.8 23.4,23.7 22.7,24.4 L21.2,25.5 C21.2,25.5 20.5,25.9 20.5,29.7 L20.5,34.5 C20.5,35.1 21,35.5 21.6,35.5 L24.5,35.5 L24.5,33.5 L39.5,33.5 Z M11,16.5 L13.4,16.5 L11,16.5 Z M10.8,19.5 C10.8,19.5 11.6,19.7 12.7,20 C13.4,20.1 14,20.6 14.1,21.4 C14.3,22.5 14.7,23 13,22.7 C11.3,22.4 10.5,22 10.5,22 L10.8,19.5 Z M33,16.5 L30.6,16.5 L33,16.5 Z M31.3,17.5 L12.7,17.5 L31.3,17.5 Z" id="Shape"></path>
            <polyline id="Path" points="19 24.5 18.2 24.5 16.7 22.5 18.2 21.5 21 21.5"></polyline>
            <path d="M32.8,18.6 L31.3,17.5 C30.6,16.7 30.1,15.9 29.7,15 C29.3,14.1 28.5,13.6 27.6,13.5 L16.4,13.5 C15.5,13.6 14.7,14.1 14.3,15 C13.9,15.9 13.4,16.8 12.7,17.5 L11.2,18.6 C11.2,18.6 10.5,19 10.5,22.8 L10.5,27.6 C10.5,28.2 11,28.6 11.6,28.6 L14.5,28.6 L14.5,26.6 L19,26.6" id="Shape"></path>
            <path d="M4,13.5 L6.4,13.5 M18,11.5 L8.6,11.5 C7.8,11.5 7.1,12 6.8,12.8 C6.5,13.6 6,14.3 5.4,15 L4.1,15.9 C4.1,15.9 3.5,16.2 3.5,19.5 L3.5,23.6 C3.5,24.1 3.9,24.5 4.4,24.5 L7.5,24.5 L7.5,22.5 L9,22.5" id="Shape"></path>
        </g>
    </g>
</svg>