<svg width="48" height="48" viewBox="0 0 48 48" version="1.1" xmlns="http://www.w3.org/2000/svg">
    <title>
        traffic-large
    </title>
    <path d="M20,14 C19.6966671,13.5174242 19.3840408,13.1073232 18.8666667,12.5 C17.3134607,12.3489899 15.7275692,12.25 14.1089921,12.25 C12.490415,12.25 10.8985288,12.3621212 9.33333333,12.5 C8.8159597,13.1204545 8.40560617,13.5856061 8.10227273,14.0681818 C7.79893929,14.5507576 7.41484838,15.1613636 6.95,15.9 L5.5,17.5 L5.5,23.5 C5.5,23.9786468 6.02135322,24.5 6.5,24.5 L8.5,24.5 C8.97864678,24.5 9.5,23.9786468 9.5,23.5 L11,23.5 M6.38000011,16.5 L13.5,16.5 M5.43333333,18.5 L8.9,18.5 M29.4204545,18.3863636 C29.070455,17.8295455 28.5969702,17.2007576 28,16.5 C26.2078393,16.3257576 24.3779644,16.2386364 22.5103755,16.2386364 C20.6427866,16.2386364 18.8059947,16.3181818 17,16.4772727 C16.4030304,17.1931818 15.9295456,17.8295455 15.5795455,18.3863636 C15.2295453,18.9431818 14.7863635,19.6477273 14.25,20.5 L12.5,22.5 L12.5,29.5 C12.5,30.0522847 12.9477153,30.5 13.5,30.5 L15.5,30.5 C16.0522847,30.5 16.5,30.0522847 16.5,29.5 L16.5,28.5 L19,28.5 M14.25,20.5 L22,20.5 M12.5,23.5 L16.5,23.5 M20.5,27.5 L20.5,35.5 C20.5,36.0522847 20.9477153,36.5 21.5,36.5 L23.5,36.5 C24.0522847,36.5 24.5,36.0522847 24.5,35.5 L24.5,34.5 L24.5,34.5 L39.5,34.5 L39.5,35.5 C39.5,36.0522847 39.9477153,36.5 40.5,36.5 L42.5,36.5 C43.0522847,36.5 43.5,36.0522847 43.5,35.5 L43.5,27.5 L43.5,27.5 L41.5,25.5 C40.8393934,24.2878788 40.3090904,23.3636364 39.9090909,22.7272727 C39.5090915,22.0909091 39.0393945,21.3636364 38.5,20.5454545 C36.3089592,20.3636364 34.1462451,20.2727273 32.0118577,20.2727273 C29.8774704,20.2727273 27.7068511,20.3636364 25.5,20.5454545 C24.9606062,21.3636364 24.4909092,22.0909091 24.0909091,22.7272727 C23.690909,23.3636364 23.1606059,24.2878788 22.5,25.5 L20.5,27.5 Z M22.5,25.5 L41.5,25.5 M20.5,28.5 L25,28.5 M39,28.5 L43.5,28.5" stroke="currentColor" stroke-width="1" fill="none" fill-rule="evenodd"/>
</svg>
