<svg xmlns="http://www.w3.org/2000/svg" width="48" height="48" viewBox="0 0 48 48"><g fill="none" stroke="currentColor" stroke-miterlimit="10"><path d="M2.5 42.5l21-38 21 38zM17 28.5h2.146"/><path d="M16.7 31.4s.7.2 1.5.4c.7.2 1 .4 1.1 1.1.2.9.4 1.2-.8 1-1.3-.2-2-.5-2-.5M34 28.5h-1.969M34.3 31.4s-.7.2-1.5.4c-.7.2-1 .4-1.1 1.1-.2.9-.4 1.2.8 1 1.3-.2 2-.5 2-.5"/><path d="M34 30.7l-1.1-.9s-.6-.6-1.2-2c-.5-1.1-1.5-1.4-2.5-1.4H22c-.9 0-1.9.3-2.5 1.4-.6 1.3-1.2 2-1.2 2l-1.3.9s-.5.3-.5 3.3v3.7c0 .4.4.8.8.8h2.2v-1h12v1h2.2c.4 0 .8-.3.8-.8V34c0-2.9-.5-3.3-.5-3.3z"/><path d="M28.6 24.9c-.5-1.1-1.5-1.4-2.5-1.4h-7.2c-.9 0-1.9.3-2.5 1.4-.6 1.3-1.2 2-1.2 2l-1.2.8s-.5.3-.5 3.3v3.7c0 .4.4.8.8.8h.7M22.5 33.5h6.1l1.1.7-1.1 1.3h-6.1l-1.2-1.3zM32.663 29.5H18.51"/></g></svg>