<svg xmlns="http://www.w3.org/2000/svg" width="24" height="24" viewBox="0 0 24 24"><g fill="none" stroke="currentColor" stroke-miterlimit="10"><path d="M6 11.5h2.146m-2.422 2.92s.656.171 1.47.403a1.23 1.23 0 0 1 1.13 1.064c.19.876.443 1.235-.829.99s-1.99-.46-1.99-.46M23 11.5h-2.145m2.421 2.92s-.656.171-1.47.403a1.23 1.23 0 0 0-1.13 1.064c-.19.876-.443 1.235.829.99s1.99-.46 1.99-.46m-12 .083h6.059l1.157.657-1.125 1.343h-6.091l-1.206-1.343 1.206-.657zm9.991-4H7.514"/><path d="M22.952 13.747l-1.147-.856a7.605 7.605 0 0 1-1.246-1.981 2.482 2.482 0 0 0-2.475-1.41h-7.168a2.482 2.482 0 0 0-2.475 1.41 7.605 7.605 0 0 1-1.246 1.981l-1.147.856s-.548.31-.548 3.261v3.723a.838.838 0 0 0 .843.77H8.63v-1h11.74v1h2.287a.838.838 0 0 0 .843-.77v-3.723c0-2.951-.548-3.26-.548-3.26z"/><path d="M17.559 7.91a2.482 2.482 0 0 0-2.475-1.41H7.916A2.482 2.482 0 0 0 5.44 7.91a7.605 7.605 0 0 1-1.246 1.981l-1.147.856s-.548.31-.548 3.261v3.724a.838.838 0 0 0 .843.768H4"/><path d="M13 3.5H5.916A2.482 2.482 0 0 0 3.44 4.91a7.605 7.605 0 0 1-1.246 1.981l-1.147.856S.5 8.057.5 11.008V13"/></g></svg>