<svg xmlns="http://www.w3.org/2000/svg" width="48" height="48" viewBox="0 0 48 48"><g fill="none" stroke="currentColor" stroke-miterlimit="10"><path d="M21 23.459h2.429m-2.643 2.993s.839.22 1.88.516a1.571 1.571 0 0 1 1.443 1.36c.243 1.12.566 1.578-1.059 1.266s-2.545-.588-2.545-.588M43 23.459h-2.429m2.643 2.993s-.839.22-1.88.516a1.571 1.571 0 0 0-1.443 1.36c-.243 1.12-.566 1.578 1.059 1.266s2.545-.588 2.545-.588M28.16 28.5h7.742l1.479.986-1.437 2.014H28.16l-1.541-2.014 1.541-.986zm13.175-4h-18.67"/><path d="M39.5 33.5v2h2.923a1.07 1.07 0 0 0 1.077-.982V29.76c0-3.77-.7-4.167-.7-4.167L41.335 24.5a9.718 9.718 0 0 1-1.593-2.531 2.473 2.473 0 0 0-2.125-1.469H26.383a2.473 2.473 0 0 0-2.125 1.469 9.718 9.718 0 0 1-1.593 2.531L21.2 25.594s-.7.395-.7 4.166v4.758a1.07 1.07 0 0 0 1.077.982H24.5v-2h15zM11 16.459h2.429m-2.643 2.993s.839.22 1.88.516a1.571 1.571 0 0 1 1.443 1.36c.243 1.12.566 1.578-1.059 1.266s-2.545-.588-2.545-.588M33 16.459h-2.429M19 24.5h-.84l-1.541-2.014 1.541-.986H21m10.335-4h-18.67"/><path d="M32.8 18.594L31.335 17.5a9.718 9.718 0 0 1-1.593-2.531 2.473 2.473 0 0 0-2.125-1.469H16.383a2.473 2.473 0 0 0-2.125 1.469 9.718 9.718 0 0 1-1.593 2.531L11.2 18.594s-.7.395-.7 4.166v4.758a1.07 1.07 0 0 0 1.077.982H14.5v-2H19"/><g><path d="M4 13.5h2.375M18 11.5H8.599a2.143 2.143 0 0 0-1.842 1.273 8.422 8.422 0 0 1-1.38 2.194l-1.27.947s-.607.344-.607 3.612v4.123a.928.928 0 0 0 .934.851H7.5v-2H9"/></g></g></svg>