<svg width="24" height="24" viewBox="0 0 24 24" version="1.1" xmlns="http://www.w3.org/2000/svg">
    <title>
        traffic-sign-recognition-alert-small
    </title>
    <g stroke="currentColor" stroke-width="1" fill="none" fill-rule="evenodd">
        <path d="M19.5 15L23.2 22.5 0.8 22.5 12 1.5 13.5 4"/>
        <path d="M23.2,12.5 L11.6,12.5 L17.5,1 L23.2,12.5 Z M17.5,5 L17.5,8 M17.5,9 L17.5,11"/>
        <path d="M9 12.5L6.5 15.5 6.5 19"/>
        <path d="M8.5,17 L8.5,20 C8.5,20.2761424 8.72385762,20.5 9,20.5 L10,20.5 C10.2761424,20.5 10.5,20.2761424 10.5,20 L10.5,19.5 L15.5,19.5 L15.5,20 C15.5,20.2761424 15.7238576,20.5 16,20.5 L17,20.5 C17.2761424,20.5 17.5,20.2761424 17.5,20 L17.5,17 L15.5,14.5 L10.5,14.5 L8.5,17 Z"/>
    </g>
</svg>
