<svg width="48" height="48" viewBox="0 0 48 48" version="1.1" xmlns="http://www.w3.org/2000/svg">
    <title>
        traffic-sign-recognition-alert-large
    </title>
    <path d="M46.5,23.5 L26.5,23.5 L36.5,5.5 L46.5,23.5 Z M36.5,11 L36.5,17 M36.5,19 L36.5,21 M35.9,27 L44.5,42.5 L2.5,42.5 L23.5,4.5 L28.2,13.1 M24.6427713,23.273747 C23.8383713,23.2397339 23.0528645,23.2227273 22.286251,23.2227273 C20.6742017,23.2227273 18.9786094,23.2979278 17.1994741,23.4483289 C16.7616889,24.0532027 16.3917412,24.5959544 16.0896312,25.0765839 C15.7875211,25.5572134 15.386745,26.1653569 14.8873028,26.9010143 L13.5,28.565945 L13.5,36 M15.5,32 L15.5,38.5327277 C15.5,39.0850124 15.9477153,39.5327277 16.5,39.5327277 L18.5,39.5327277 C19.0522847,39.5327277 19.5,39.0850124 19.5,38.5327277 L19.5,37.5 L19.5,37.5 L30.5,37.5 L30.5,38.5327277 C30.5,39.0850124 30.9477153,39.5327277 31.5,39.5327277 L33.5,39.5327277 C34.0522847,39.5327277 34.5,39.0850124 34.5,38.5327277 L34.5,32 L34.5,32 L33,30.199819 C32.4599852,29.4044007 32.0266521,28.7468548 31.7000008,28.2271815 C31.3733494,27.7075082 30.9733492,27.1206662 30.5,26.4666556 C28.576337,26.3040367 26.7430037,26.2227273 25,26.2227273 C23.2569963,26.2227273 21.423663,26.3040367 19.5,26.4666556 C19.0266514,27.1206662 18.6266512,27.7075082 18.2999992,28.2271815 C17.9733473,28.7468548 17.5400142,29.4044007 17,30.199819 L15.5,32 Z M16.5,30.5 L33.5,30.5 M15.5,33.5 L19,33.5 M31,33.5 L34.5,33.5" stroke="currentColor" stroke-width="1" fill="none" fill-rule="evenodd"/>
</svg>
