<?xml version="1.0" encoding="UTF-8"?>
<svg width="24px" height="24px" viewBox="0 0 24 24" version="1.1" xmlns="http://www.w3.org/2000/svg" xmlns:xlink="http://www.w3.org/1999/xlink">
    <!-- Generator: sketchtool 48.1 (47250) - http://www.bohemiancoding.com/sketch -->
    <title>traffic-small</title>
    <desc>Created with sketchtool.</desc>
    <defs></defs>
    <g id="icons-published" stroke="none" stroke-width="1" fill="none" fill-rule="evenodd">
        <g id="briefing" transform="translate(-356.000000, -2202.000000)"></g>
        <g id="traffic-small" stroke="#000000">
            <path d="M6,11.5 L8.1,11.5 L6,11.5 Z M5.7,14.4 C5.7,14.4 6.4,14.6 7.2,14.8 C7.8,14.8 8.3,15.3 8.3,15.9 C8.5,16.8 8.7,17.1 7.5,16.9 C6.3,16.7 5.5,16.4 5.5,16.4 L5.7,14.4 Z M23,11.5 L20.9,11.5 L23,11.5 Z M23.3,14.4 C23.3,14.4 22.6,14.6 21.8,14.8 C21.2,14.8 20.7,15.3 20.7,15.9 C20.5,16.8 20.3,17.1 21.5,16.9 C22.7,16.7 23.5,16.4 23.5,16.4 L23.3,14.4 Z M11.5,16.5 L17.6,16.5 L18.8,17.2 L17.7,18.5 L11.6,18.5 L10.4,17.2 L11.5,16.5 Z M21.5,12.5 L7.5,12.5 L21.5,12.5 Z" id="Shape"></path>
            <path d="M23,13.7 L21.9,12.8 C21.4,12.2 21,11.5 20.7,10.8 C20.3,9.9 19.3,9.3 18.2,9.4 L11,9.4 C10,9.3 9,9.9 8.5,10.8 C8.2,11.5 7.8,12.2 7.3,12.8 L6,13.7 C6,13.7 5.5,14 5.5,17 L5.5,20.7 C5.5,21.1 5.9,21.5 6.3,21.5 L8.6,21.5 L8.6,20.5 L20.3,20.5 L20.3,21.5 L22.6,21.5 C23,21.5 23.4,21.2 23.4,20.7 L23.4,17 C23.5,14.1 23,13.7 23,13.7 Z" id="Shape"></path>
            <path d="M17.6,7.9 C17.2,7 16.2,6.4 15.1,6.5 L7.9,6.5 C6.9,6.4 5.9,7 5.4,7.9 C5.1,8.6 4.7,9.3 4.2,9.9 L3,10.7 C3,10.7 2.5,11 2.5,14 L2.5,17.7 C2.5,18.1 2.9,18.5 3.3,18.5 L4,18.5" id="Shape"></path>
            <path d="M13,3.5 L5.9,3.5 C4.9,3.4 3.9,4 3.4,4.9 C3.1,5.6 2.7,6.3 2.2,6.9 L1,7.7 C1,7.7 0.5,8 0.5,11 L0.5,13" id="Shape"></path>
        </g>
    </g>
</svg>