<svg xmlns="http://www.w3.org/2000/svg" width="48" height="48" viewBox="0 0 48px 48px"><g fill="none" stroke="currentColor"><path d="M28.9 37.1c-.6.3-1.2.4-1.8.4h-4c-.6 0-1.3-.2-1.8-.4l-6-3.1c-1.6-1.1-2.8-3-2.8-5V12.5c0-2.8 2.4-5 5.2-5h15c2.8 0 4.8 2.2 4.8 5V29c0 2-.8 3.8-2.4 5l-6.2 3.1zM9 46l8-8M33 38l8 8"/><path d="M18 26.5a2.5 2.5 0 1 1 0 5 2.5 2.5 0 0 1 0-5zM32 26.5a2.5 2.5 0 1 1 0 5 2.5 2.5 0 0 1 0-5zM16 3.5h18M19.4 3.5l4 4M30.4 3.5l-4 4M14 9l6.5 14.5H29l7.063-14.632M14.684 10.5h20.6M19.154 20.5H30.5"/></g></svg>