<svg width="24" height="24" viewBox="0 0 24 24" version="1.1" xmlns="http://www.w3.org/2000/svg">
    <title>
        trailer-maneuver-small
    </title>
    <g stroke="none" stroke-width="1" fill="none" fill-rule="evenodd">
        <path d="M1,19.5 L7.5,19.5 L9.5,17.5 L18.5,17.5 L20.5,19.5 L21.5,19.5 C22.0522847,19.5 22.5,19.0522847 22.5,18.5 L22.5,9 L22.5,9 M4.5,14 L4.5,19.5 M11.125,22.5 C12.0224627,22.5 12.75,21.7724627 12.75,20.875 C12.75,19.9775373 12.0224627,19.25 11.125,19.25 C10.2275373,19.25 9.5,19.9775373 9.5,20.875 C9.5,21.7724627 10.2275373,22.5 11.125,22.5 Z M16.875,22.5 C17.7724627,22.5 18.5,21.7724627 18.5,20.875 C18.5,19.9775373 17.7724627,19.25 16.875,19.25 C15.9775373,19.25 15.25,19.9775373 15.25,20.875 C15.25,21.7724627 15.9775373,22.5 16.875,22.5 Z M8.80079027,11.2613401 L6.83559706,9.29519302 L8.80079027,11.2613401 Z M2.19641848,11.2599522 L4.18040535,9.27919061 M5.5,12.5 C8.26142375,12.5 10.5,10.2614237 10.5,7.5 C10.5,4.73857625 8.26142375,2.5 5.5,2.5 C2.73857625,2.5 0.5,4.73857625 0.5,7.5 C0.5,10.2614237 2.73857625,12.5 5.5,12.5 Z M5.5,9.84055034 C6.55197095,9.84055034 7.16666667,9.12626462 7.16666667,8.05483605 C7.16666667,7.45959796 7.16666667,6.74531224 6.69047619,6.43578862 C6.30891589,6.18777457 4.69017339,6.18836653 4.30952381,6.43578862 C3.83333333,6.74531224 3.83333333,7.45959796 3.83333333,8.05483605 C3.83333333,9.12626462 4.44802905,9.84055034 5.5,9.84055034 Z M3.99657438,6.81060606 L0.515857922,6.81060606 M10.4641808,6.81060606 L7.01023054,6.81060606" stroke="currentColor"/>
        <path d="M14.0053711,3.25 C14.2631849,3.25 14.4919424,3.27734348 14.6916504,3.33203125 C14.8913584,3.38671902 15.0651848,3.46337841 15.2131348,3.56201172 C15.3610847,3.66064502 15.4860835,3.77929618 15.5881348,3.91796875 C15.6901861,4.05664132 15.7722165,4.2099601 15.8342285,4.37792969 C15.8962405,4.54589928 15.9409178,4.72607326 15.9682617,4.91845703 C15.9956056,5.11084081 16.0092773,5.31054584 16.0092773,5.51757812 C16.0092773,5.72363384 15.9943849,5.9228506 15.9645996,6.11523438 C15.9348143,6.30761815 15.8876956,6.48803627 15.8232422,6.65649414 C15.7587887,6.82495201 15.6745611,6.97827079 15.5705566,7.11645508 C15.4665522,7.25463936 15.3403328,7.37353466 15.1918945,7.47314453 C15.0434563,7.5727544 14.8710947,7.64990207 14.6748047,7.70458984 C14.4785146,7.75927762 14.2553723,7.78662109 14.0053711,7.78662109 C13.7465807,7.78662109 13.5175791,7.75927762 13.3183594,7.70458984 C13.1191396,7.64990207 12.9453132,7.57299854 12.796875,7.47387695 C12.6484368,7.37475536 12.523438,7.25610421 12.421875,7.11791992 C12.320312,6.97973564 12.2382816,6.82641686 12.1757812,6.65795898 C12.1132809,6.48950111 12.0683595,6.30908299 12.0410156,6.11669922 C12.0136717,5.92431544 12,5.72461041 12,5.51757812 C12,5.31152241 12.0148924,5.11230565 12.0446777,4.91992188 C12.074463,4.7275381 12.1218258,4.54736412 12.1867676,4.37939453 C12.2517093,4.21142494 12.335937,4.05810616 12.4394531,3.91943359 C12.5429693,3.78076103 12.6689446,3.66186573 12.8173828,3.56274414 C12.9658211,3.46362255 13.1381826,3.38671902 13.3344727,3.33203125 C13.5307627,3.27734348 13.7543933,3.25 14.0053711,3.25 Z M19.7421875,3.35 L19.7421875,4.04873047 L17.8671875,4.04873047 L17.8671875,5.23525391 L19.5356445,5.23525391 L19.5356445,5.93251953 L17.8671875,5.93251953 L17.8671875,7.69472656 L17,7.69472656 L17,3.35 L19.7421875,3.35 Z M23.7421875,3.35 L23.7421875,4.04873047 L21.8671875,4.04873047 L21.8671875,5.23525391 L23.5356445,5.23525391 L23.5356445,5.93251953 L21.8671875,5.93251953 L21.8671875,7.69472656 L21,7.69472656 L21,3.35 L23.7421875,3.35 Z M14.0053711,3.97216797 C13.8745111,3.97216797 13.756104,3.98852523 13.6501465,4.02124023 C13.5441889,4.05395524 13.4501957,4.10107391 13.3681641,4.16259766 C13.2861324,4.2241214 13.2155765,4.29980424 13.1564941,4.38964844 C13.0974118,4.47949264 13.0485842,4.5815424 13.0100098,4.69580078 C12.9714354,4.81005917 12.9431153,4.93603447 12.9250488,5.07373047 C12.9069823,5.21142647 12.8979492,5.35937421 12.8979492,5.51757812 C12.8979492,5.67578204 12.9069823,5.82372978 12.9250488,5.96142578 C12.9431153,6.09912178 12.9714354,6.22534122 13.0100098,6.34008789 C13.0485842,6.45483456 13.0974118,6.55688432 13.1564941,6.64624023 C13.2155765,6.73559615 13.2861324,6.81127899 13.3681641,6.87329102 C13.4501957,6.93530304 13.5441889,6.98242171 13.6501465,7.01464844 C13.756104,7.04687516 13.8745111,7.06298828 14.0053711,7.06298828 C14.1362311,7.06298828 14.254394,7.04687516 14.3598633,7.01464844 C14.4653326,6.98242171 14.5590816,6.93530304 14.6411133,6.87329102 C14.7231449,6.81127899 14.7937009,6.73559615 14.8527832,6.64624023 C14.9118655,6.55688432 14.9606932,6.45483456 14.9992676,6.34008789 C15.037842,6.22534122 15.066162,6.09912178 15.0842285,5.96142578 C15.102295,5.82372978 15.1113281,5.67578204 15.1113281,5.51757812 C15.1113281,5.35937421 15.102295,5.21142647 15.0842285,5.07373047 C15.066162,4.93603447 15.037842,4.81005917 14.9992676,4.69580078 C14.9606932,4.5815424 14.9118655,4.47949264 14.8527832,4.38964844 C14.7937009,4.29980424 14.7231449,4.2241214 14.6411133,4.16259766 C14.5590816,4.10107391 14.4653326,4.05395524 14.3598633,4.02124023 C14.254394,3.98852523 14.1362311,3.97216797 14.0053711,3.97216797 Z" fill="currentColor" fill-rule="nonzero"/>
    </g>
</svg>
