<svg width="48" height="48" viewBox="0 0 48 48" version="1.1" xmlns="http://www.w3.org/2000/svg">
    <title>
        trailer-maneuver-large
    </title>
    <g stroke="none" stroke-width="1" fill="none" fill-rule="evenodd">
        <path d="M5,34.5 L16.5,34.5 L19.5,31.5 L34.5,31.5 L37.5,34.5 L39.5,34.5 C40.6045695,34.5 41.5,33.6045695 41.5,32.5 L41.5,19 L41.5,19 M11.5,25 L11.5,34.5 M22.5,39.5 C24.1568542,39.5 25.5,38.1568542 25.5,36.5 C25.5,34.8431458 24.1568542,33.5 22.5,33.5 C20.8431458,33.5 19.5,34.8431458 19.5,36.5 C19.5,38.1568542 20.8431458,39.5 22.5,39.5 Z M31.5,39.5 C33.1568542,39.5 34.5,38.1568542 34.5,36.5 C34.5,34.8431458 33.1568542,33.5 31.5,33.5 C29.8431458,33.5 28.5,34.8431458 28.5,36.5 C28.5,38.1568542 29.8431458,39.5 31.5,39.5 Z M22,14.5 L24.9765503,14.5 M16.9511854,20.1420102 L14.0033956,17.1927895 L16.9511854,20.1420102 Z M7.04462771,20.1399284 L10.020608,17.1687859 M12,22 C16.1421356,22 19.5,18.6421356 19.5,14.5 C19.5,10.3578644 16.1421356,7 12,7 C7.85786438,7 4.5,10.3578644 4.5,14.5 C4.5,18.6421356 7.85786438,22 12,22 Z M12,18.0108255 C13.5779564,18.0108255 14.5,16.9393969 14.5,15.3322541 C14.5,14.4393969 14.5,13.3679684 13.7857143,12.9036829 C13.2133738,12.5316619 10.7852601,12.5325498 10.2142857,12.9036829 C9.5,13.3679684 9.5,14.4393969 9.5,15.3322541 C9.5,16.9393969 10.4220436,18.0108255 12,18.0108255 Z M9.74486157,13.4659091 L4.52378688,13.4659091 M19.4462712,13.4659091 L14.2653458,13.4659091" stroke="currentColor"/>
        <path d="M30.0883789,8.8 C30.4594745,8.8 30.7935369,8.84191039 31.0905762,8.92573242 C31.3876154,9.00955446 31.6504709,9.12999596 31.8791504,9.28706055 C32.1078299,9.44412513 32.3035474,9.63373912 32.4663086,9.8559082 C32.6290698,10.0780773 32.762532,10.327912 32.8666992,10.6054199 C32.9708664,10.8829278 33.047363,11.1836247 33.0961914,11.5075195 C33.1450198,11.8314144 33.1694336,12.1732078 33.1694336,12.5329102 C33.1694336,12.8909849 33.1446129,13.2327783 33.0949707,13.5583008 C33.0453285,13.8838232 32.9676112,14.184927 32.8618164,14.4616211 C32.7560216,14.7383152 32.6209318,14.9889637 32.456543,15.2135742 C32.2921541,15.4381847 32.095216,15.6294263 31.8657227,15.7873047 C31.6362293,15.9451831 31.3725601,16.0668453 31.074707,16.1522949 C30.776854,16.2377446 30.4431985,16.2804687 30.0737305,16.2804687 C29.7026349,16.2804687 29.3689793,16.2385584 29.0727539,16.1547363 C28.7765285,16.0709143 28.5144868,15.9504728 28.2866211,15.7934082 C28.0587554,15.6363436 27.8638517,15.4467296 27.7019043,15.2245605 C27.5399569,15.0023915 27.4069016,14.7529636 27.3027344,14.4762695 C27.1985672,14.1995754 27.1220706,13.8988786 27.0732422,13.5741699 C27.0244138,13.2494613 27,12.9072609 27,12.5475586 C27,12.1894839 27.0248207,11.8480973 27.0744629,11.5233887 C27.1241051,11.19868 27.2014155,10.8975763 27.3063965,10.6200684 C27.4113775,10.3425605 27.5456535,10.091505 27.7092285,9.86689453 C27.8728036,9.64228403 28.0693348,9.45104246 28.2988281,9.29316406 C28.5283215,9.13528567 28.7911769,9.01362347 29.0874023,8.92817383 C29.3836278,8.84272418 29.7172833,8.8 30.0883789,8.8 Z M30.0883789,9.58857422 C29.8328438,9.58857422 29.6033539,9.62193977 29.3999023,9.68867187 C29.1964508,9.75540398 29.0166023,9.85102477 28.8603516,9.97553711 C28.7041008,10.1000495 28.5702317,10.2501944 28.4587402,10.4259766 C28.3472488,10.6017587 28.2552901,10.7995106 28.1828613,11.0192383 C28.1104326,11.2389659 28.0579429,11.4765938 28.0253906,11.7321289 C27.9928384,11.987664 27.9765625,12.2570298 27.9765625,12.5402344 C27.9765625,12.8234389 27.9928384,13.0932116 28.0253906,13.3495605 C28.0579429,13.6059095 28.1104326,13.8435373 28.1828613,14.0624512 C28.2552901,14.281365 28.3472488,14.479117 28.4587402,14.6557129 C28.5702317,14.8323088 28.7041008,14.9824538 28.8603516,15.1061523 C29.0166023,15.2298509 29.1964508,15.3254717 29.3999023,15.3930176 C29.6033539,15.4605635 29.8328438,15.4943359 30.0883789,15.4943359 C30.343914,15.4943359 30.572997,15.4605635 30.7756348,15.3930176 C30.9782725,15.3254717 31.1573072,15.2298509 31.3127441,15.1061523 C31.4681811,14.9824538 31.6012364,14.8323088 31.7119141,14.6557129 C31.8225917,14.479117 31.9141435,14.281365 31.9865723,14.0624512 C32.059001,13.8435373 32.1118976,13.6059095 32.1452637,13.3495605 C32.1786297,13.0932116 32.1953125,12.8234389 32.1953125,12.5402344 C32.1953125,12.2570298 32.1786297,11.987664 32.1452637,11.7321289 C32.1118976,11.4765938 32.059001,11.2389659 31.9865723,11.0192383 C31.9141435,10.7995106 31.8225917,10.6017587 31.7119141,10.4259766 C31.6012364,10.2501944 31.4681811,10.1000495 31.3127441,9.97553711 C31.1573072,9.85102477 30.9778656,9.75540398 30.7744141,9.68867187 C30.5709625,9.62193977 30.3422864,9.58857422 30.0883789,9.58857422 Z M35,16.2412109 L35,9 L39.3286133,9 L39.3286133,9.77636719 L35.9399414,9.77636719 L35.9399414,12.3203125 L39.0600586,12.3203125 L39.0600586,13.0966797 L35.9399414,13.0966797 L35.9399414,16.2412109 L35,16.2412109 Z M41,16.2412109 L41,9 L45.3286133,9 L45.3286133,9.77636719 L41.9399414,9.77636719 L41.9399414,12.3203125 L45.0600586,12.3203125 L45.0600586,13.0966797 L41.9399414,13.0966797 L41.9399414,16.2412109 L41,16.2412109 Z" fill="currentColor" fill-rule="nonzero"/>
    </g>
</svg>
