<svg width="48" height="48" viewBox="0 0 48 48" version="1.1" xmlns="http://www.w3.org/2000/svg">
    <title>
        train-large
    </title>
    <path d="M28.9,37.1 C28.3,37.4 27.7,37.5 27.1,37.5 L23.1,37.5 C22.5,37.5 21.8,37.3 21.3,37.1 L15.3,34 C13.7,32.9 12.5,31 12.5,29 L12.5,12.5 C12.5,9.7 14.9,7.5 17.7,7.5 L32.7,7.5 C35.5,7.5 37.5,9.7 37.5,12.5 L37.5,29 C37.5,31 36.7,32.8 35.1,34 C35.1,34 28.9,37.1 28.9,37.1 Z M9,46 L17,38 L9,46 Z M33,38 L41,46 L33,38 Z M18,26.5 C19.4,26.5 20.5,27.6 20.5,29 C20.5,30.4 19.4,31.5 18,31.5 C16.6,31.5 15.5,30.4 15.5,29 C15.5,27.6 16.6,26.5 18,26.5 Z M32,26.5 C33.4,26.5 34.5,27.6 34.5,29 C34.5,30.4 33.4,31.5 32,31.5 C30.6,31.5 29.5,30.4 29.5,29 C29.5,27.6 30.6,26.5 32,26.5 Z M16,3.5 L34,3.5 L16,3.5 Z M19.4,3.5 L23.4,7.5 L19.4,3.5 Z M30.4,3.5 L26.4,7.5 L30.4,3.5 Z M14.7,10.5 L35.3,10.5 L14.7,10.5 Z M19.2,20.5 L30.5,20.5 L19.2,20.5 Z M14,9 L20.5,23.5 L29,23.5 L36.1,8.9" stroke="currentColor" stroke-width="1" fill="none" fill-rule="evenodd"/>
</svg>
