<svg width="48" height="48" viewBox="0 0 48 48" version="1.1" xmlns="http://www.w3.org/2000/svg">
    <title>
        training-large
    </title>
    <path d="M30.1,37.5000002 L43.5,37.5000002 L43.5,25.5000002 C43.5,23.8000002 42.2,22.5000002 40.5,22.5000002 L24,22.5000002 M28,6.50000025 L34.5,6.50000025 C36.2,6.50000025 37.5,7.80000025 37.5,9.50000025 L37.5,15.5000002 C37.5,17.2000002 36.2,18.5000002 34.5,18.5000002 L28.5,18.5000002 C26.8,18.5000002 25.5,17.2000002 25.5,15.5000002 L25.5,13.0000002 M21.5,12.0000002 L21.5,18.5000002 C21.5,20.2000002 20.2,21.5000002 18.5,21.5000002 L12.5,21.5000002 C10.8,21.5000002 9.5,20.2000002 9.5,18.5000002 L9.5,12.0000002 M3.5,9.00000025 L3.5,8.50000025 L15.5,3.00000025 L27.5,9.00000025 L15.5,15.0000002 L3.5,9.00000025 Z M3.5,9.00000025 L3.5,18.0000002 M3.5,40.5000002 L3.5,28.5000002 C3.5,26.8000002 4.8,25.5000002 6.5,25.5000002 L24.5,25.5000002 C26.2,25.5000002 27.5,26.8000002 27.5,28.5000002 L27.5,40.5000002 L3.5,40.5000002 Z" stroke="currentColor" stroke-width="1" fill="none" fill-rule="evenodd"/>
</svg>
