<svg width="24" height="24" viewBox="0 0 24 24" version="1.1" xmlns="http://www.w3.org/2000/svg">
    <title>
        training-small
    </title>
    <path d="M15,18.5000009 L22.5,18.5000009 L22.5,12.5000009 C22.5,11.9000009 22.1,11.5000009 21.5,11.5000009 L12,11.5000009 M15,2.50000087 L17.5,2.50000087 C18.6,2.50000087 19.5,3.40000087 19.5,4.50000087 L19.5,6.50000087 C19.5,7.60000087 18.6,8.50000087 17.5,8.50000087 L15.5,8.50000087 C14.4,8.50000087 13.5,7.60000087 13.5,6.50000087 M10.5,6.00000087 L10.5,8.50000087 C10.5,9.60000087 9.6,10.5000009 8.5,10.5000009 L6.5,10.5000009 C5.4,10.5000009 4.5,9.60000087 4.5,8.50000087 L4.5,6.00000087 M1.5,4.50000087 L1.5,4.00000087 L7.5,1.50000087 L13.5,4.50000087 L7.5,7.50000087 L1.5,4.50000087 Z M1.5,4.50000087 L1.5,9.00000087 M1.5,20.5000009 L1.5,14.5000009 C1.5,13.9000009 1.9,13.5000009 2.5,13.5000009 L12.5,13.5000009 C13.1,13.5000009 13.5,13.9000009 13.5,14.5000009 L13.5,20.5000009 L1.5,20.5000009 Z" stroke="currentColor" stroke-width="1" fill="none" fill-rule="evenodd"/>
</svg>
