<svg width="48" height="48" viewBox="0 0 48 48" version="1.1" xmlns="http://www.w3.org/2000/svg">
    <title>
        trunk-open-large
    </title>
    <path d="M33,28.5 L15,28.5 C15,30.709139 13.209139,32.5 11,32.5 L10.5,32.5 C8.290861,32.5 6.5,30.709139 6.5,28.5 L3.25764901,28.5 C2.28692627,28.5 1.5,27.7130737 1.5,26.742351 L1.5,26.3908212 C1.5,24.984702 1.53859384,24.3981465 1.77294704,23.6950869 C2.12447684,22.6404975 3.53059606,21.2343783 5.63977487,20.5313187 C7.04589408,20.0626123 9.5066027,19.5939059 13.0219007,19.1251995 C15.9698664,16.2882713 17.9618686,14.6477988 18.9979074,14.2037822 C20.1973242,13.6897465 22.7154225,13.5136482 25.3254438,13.5007226 C28.0701098,13.4871303 30.9145635,13.6632286 32.3560399,14.2037822 C35.1682783,15.2583716 39.3866359,18.0706101 41.4958148,18.4221399 C42.2436586,18.5467805 42.9915024,18.7045662 43.7393462,18.8954969 C44.914832,19.1956173 45.5269464,20.3520395 45.8491818,21.4260198 C46.1714172,22.5 46.5702123,24.8405312 46.4958148,26 C46.4214172,27.1594688 45.4880123,28.2164208 44.328805,28.3004166 L41.5,28.5 C41.5,30.709139 39.709139,32.5 37.5,32.5 L37,32.5 C34.790861,32.5 33,30.709139 33,28.5 Z M35.5,14 L35.6049095,13.7451322 C36.2027539,13.1281741 36.5479544,12.769499 36.640511,12.6691069 C38.8114015,10.3144347 40.4128044,9 41.5144895,9 C43.3975879,9 43.7492111,9.43779513 44.5,10.25" stroke="currentColor" stroke-width="1" fill="none" fill-rule="evenodd"/>
</svg>
