<svg width="48" height="48" viewBox="0 0 48 48" version="1.1" xmlns="http://www.w3.org/2000/svg">
    <title>
        tube-large
    </title>
    <path d="M7,46 L13,40 L7,46 Z M34.1,39.9 L40.1,46 L34.1,39.9 Z M23.5,14.5 L32.5,14.5 C34.2,14.5 35.5,15.9 35.5,17.5 L35.5,23.5 L23.5,23.5 L23.5,14.5 Z M23.5,23.5 L11.5,23.5 L11.5,17.5 C11.5,15.8 12.8,14.5 14.5,14.5 L23.5,14.5 L23.5,23.5 Z M14,29.5 C15.4,29.5 16.5,30.6 16.5,32 C16.5,33.4 15.4,34.5 14,34.5 C12.6,34.5 11.5,33.4 11.5,32 C11.5,30.6 12.6,29.5 14,29.5 Z M33,29.5 C34.4,29.5 35.5,30.6 35.5,32 C35.5,33.4 34.4,34.5 33,34.5 C31.6,34.5 30.5,33.4 30.5,32 C30.5,30.6 31.6,29.5 33,29.5 Z M13,5.5 L34,5.5 L13,5.5 Z M18.4,5.5 L22.5,9.6 L18.4,5.5 Z M28.4,5.5 L24.4,9.5 L28.4,5.5 Z M27,11.5 L33.5,11.5 C36.3,11.5 38.5,13.7 38.5,16.5 L38.5,34.5 C38.5,36.2 37.2,37.5 35.5,37.5 L11.5,37.5 C9.8,37.5 8.5,36.2 8.5,34.5 L8.5,16.5 C8.5,13.7 10.7,11.5 13.5,11.5 L20,11.5 C20,11.5 20,9.5 23.5,9.5 C27,9.5 27,11.5 27,11.5 Z" stroke="currentColor" stroke-width="1" fill="none" fill-rule="evenodd"/>
</svg>
