<svg width="24" height="24" viewBox="0 0 24 24" version="1.1" xmlns="http://www.w3.org/2000/svg">
    <title>
        tube-small
    </title>
    <path d="M13.6,3.5 L17.5,3.5 C19.2,3.5 20.5,5.4 20.5,7.1 L20.5,17.8 C20.5,18.8 19.7,19.5 18.6,19.5 L4.3,19.5 C3.3,19.5 2.5,18.9 2.5,17.8 L2.5,7.1 C2.5,5.4 3.8,3.5 5.5,3.5 L9.4,3.5 C9.4,3.5 9.4,2.3 11.5,2.3 C13.6,2.3 13.6,3.5 13.6,3.5 Z M5,0.5 L18,0.5 L5,0.5 Z M11.5,0 L11.5,11.5 L11.5,0 Z M3.5,23.5 L6,21 L3.5,23.5 Z M17,21 L19.5,23.5 L17,21 Z M20.5,11.5 L2.5,11.5 L20.5,11.5 Z M18,16 C18,17 17,18 16,18 C15,18 14,17 14,16 C14,15 15,14 16,14 C17,14 18,15 18,16 Z M7,14 C8,14 9,15 9,16 C9,17 8,18 7,18 C6,18 5,17 5,16 C5,15 6,14 7,14 Z" stroke="currentColor" stroke-width="1" fill="none" fill-rule="evenodd"/>
</svg>
