<svg xmlns="http://www.w3.org/2000/svg" width="48" height="48" viewBox="0 0 48 48"><g fill="none" stroke="currentColor"><path d="M7 46l6-6M34.1 39.9l6 6.1M23.5 14.5h9c1.7 0 3 1.4 3 3v6h-12v-9zM23.5 23.5h-12v-6c0-1.7 1.3-3 3-3h9v9zM14 29.5a2.5 2.5 0 1 1 0 5 2.5 2.5 0 0 1 0-5z"/><path d="M27 11.5h6.5c2.8 0 5 2.2 5 5v18c0 1.7-1.3 3-3 3h-24c-1.7 0-3-1.3-3-3v-18c0-2.8 2.2-5 5-5H20s0-2 3.5-2 3.5 2 3.5 2z"/><path d="M33 29.5a2.5 2.5 0 1 1 0 5 2.5 2.5 0 0 1 0-5zM13 5.5h21M18.4 5.5l4.065 4.062M28.4 5.5l-4.046 4.044"/></g></svg>