<svg width="24" height="24" viewBox="0 0 24 24" version="1.1" xmlns="http://www.w3.org/2000/svg">
    <title>
        twitter-small
    </title>
    <path d="M17,8.2 C17.7,8.3 18.3,8.3 19,8.1 C18.3,8.5 17.6,9 17,9.6 C17.3,13.4 14.7,16.8 10.9,17.5 C8.8,17.6 6.7,17.1 5,15.9 C5,15.9 7.6,16.6 9.1,15 C9.1,15 6.6,15.2 6,13.3 C6.6,13.3 7.2,13.2 7.7,13.1 C6.4,12.8 5.4,11.7 5.4,10.4 C5.8,10.6 6.2,10.7 6.7,10.7 C6.7,10.7 4.8,9 6,7 C6,7 8.6,10.1 11.7,9.9 C11.3,8.4 12.2,7 13.7,6.6 C14.6,6.4 15.6,6.6 16.3,7.3 C17,7.2 17.6,6.9 18.1,6.4 C18.1,7.2 17.7,7.9 17,8.2 Z" fill="currentColor" fill-rule="nonzero" stroke="none" stroke-width="1"/>
</svg>
