<svg xmlns="http://www.w3.org/2000/svg" width="24" height="24" viewBox="0 0 24 24"><path d="M17.033 8.243A4.25 4.25 0 0 0 19 8.133a7.759 7.759 0 0 0-2.007 1.455 7.54 7.54 0 0 1-6.096 7.935A9.734 9.734 0 0 1 5 15.95s2.622.708 4.069-.893c0 0-2.464.224-3.054-1.68a7.495 7.495 0 0 0 1.72-.243 2.798 2.798 0 0 1-2.275-2.743 2.7 2.7 0 0 0 1.285.343s-1.904-1.72-.724-3.738c0 0 2.552 3.117 5.714 2.938a2.718 2.718 0 0 1 4.57-2.581 4.262 4.262 0 0 0 1.848-.89 2.365 2.365 0 0 1-1.12 1.78z" fill="currentColor"/></svg>