<svg width="48" height="48" viewBox="0 0 48 48" version="1.1" xmlns="http://www.w3.org/2000/svg">
    <title>
        twitter-large
    </title>
    <path d="M34.5,16.2 C34.5,16.2 37.7,16.6 38.6,16 C37.1,16.8 35.6,17.8 34.4,19 C34.4,19 35.6,32.3 21.7,35.5 C21.7,35.5 14.5,36.1 9.4,32.2 C9.4,32.2 14.9,33.7 17.9,30.3 C17.9,30.3 12.8,30.8 11.5,26.8 C12.7,26.8 13.9,26.6 15.1,26.3 C15.1,26.3 10.3,25.4 10.4,20.6 C11.2,21.1 12.1,21.3 13.1,21.3 C13.1,21.3 9.1,17.7 11.6,13.5 C11.6,13.5 16.9,20 23.5,19.6 C22.7,16.6 24.5,13.5 27.6,12.7 C29.6,12.2 31.6,12.8 33,14.2 C34.4,13.9 35.7,13.3 36.9,12.3 C36.8,12.5 36.9,14.3 34.5,16.2 Z" fill="currentColor" fill-rule="nonzero" stroke="none" stroke-width="1"/>
</svg>
