<svg xmlns="http://www.w3.org/2000/svg" width="48" height="48" viewBox="0 0 48px 48px"><g fill="none" stroke="currentColor" stroke-miterlimit="10"><path d="M35.5 43.5c3.3 0 6-2.7 6-6v-20h-35v20c0 3.3 2.7 6 6 6h23zM37.5 17.5v-8c0-3.9-3.1-7-7-7h-13c-3.9 0-7 3.1-7 7v3h4v-3c0-1.7 1.3-3 3-3h13c1.7 0 3 1.3 3 3v8"/><path d="M24 36.5c-.8 0-1.5-.7-1.5-1.502v-3.803c-1.4-.701-2.3-2.303-1.9-4.004a3.454 3.454 0 0 1 2.6-2.603c2.3-.5 4.3 1.201 4.3 3.403 0 1.402-1 2.603-2 3.204v3.804c0 .8-.7 1.501-1.5 1.501z"/></g></svg>