<svg xmlns="http://www.w3.org/2000/svg" width="24" height="24" viewBox="0 0 24 24"><g fill="none" stroke="currentColor"><path d="M20.892 20.5a4.836 4.836 0 0 0 2.606-.507v-2.79a13.202 13.202 0 0 0-7.607-2.703 5.383 5.383 0 0 0-4.355 1.788l-3.698 1.125a1.74 1.74 0 0 0-1.165.914 3.263 3.263 0 0 0-.175 1.357v.816H9" stroke-linejoin="round"/><path stroke-miterlimit="10" d="M18.108 20.5h-6.2"/><circle cx="19.5" cy="19.99" r="1.51" stroke-miterlimit="10"/><ellipse cx="10.5" cy="19.99" rx="1.5" ry="1.51" stroke-miterlimit="10"/><g><path d="M17.5 12.993v-1.79A13.202 13.202 0 0 0 9.892 8.5a5.383 5.383 0 0 0-4.354 1.788l-3.699 1.125a1.74 1.74 0 0 0-1.164.914A3.263 3.263 0 0 0 .5 13.684v.816h2.502" stroke-linejoin="round"/><path stroke-miterlimit="10" d="M11 14.5H5.91"/><ellipse cx="4.502" cy="13.99" rx="1.5" ry="1.51" stroke-miterlimit="10"/></g><g><path d="M20.892 8.5a4.836 4.836 0 0 0 2.606-.507v-2.79A13.202 13.202 0 0 0 15.891 2.5a5.383 5.383 0 0 0-4.355 1.788L7.838 5.412a1.74 1.74 0 0 0-1.165.914" stroke-linejoin="round"/><path stroke-miterlimit="10" d="M18.108 8.5H16"/><circle cx="19.5" cy="7.99" r="1.51" stroke-miterlimit="10"/></g></g></svg>