<svg width="24" height="24" viewBox="0 0 24 24" version="1.1" xmlns="http://www.w3.org/2000/svg">
    <title>
        used-car-search-small
    </title>
    <path d="M4.37030234,12.5840546 C3.62640882,12.7228277 3.06631923,12.8616007 2.6500001,13.0003738 C1.559091,13.3640101 0.781818206,14.0912828 0.600000024,14.6367374 C0.478787903,15.0003738 0.5,15.5458283 0.5,16.273101 L0.5,16.4549192 C0.5,16.9569963 0.997922955,17.5 1.5,17.5 L3,17.5206227 C3,18.7518738 3.99812622,19.75 5.22937732,19.75 L5.24994401,19.75 C6.49255377,19.75 7.49988801,18.7426658 7.49988801,17.500056 L7.49988801,17.5 L11.4113865,17.5089627 M15.4881069,17.518304 L16.5,17.5206227 C16.5,18.7518738 17.4981262,19.75 18.7293773,19.75 L18.7705177,19.75 C20.0017688,19.75 20.999895,18.7518738 20.999895,17.5206227 L22.5133785,17.2607816 C23.1129435,17.2173373 23.5415357,16.6970487 23.5,16.0973485 L23.2999992,13.4631309 C23.2566428,12.8371427 22.7579842,12.3095225 22.1499996,12.1542943 C21.7632,12.0555411 21.475544,11.9739313 21.0887444,11.9094647 C19.9978353,11.7276465 17.8160171,10.273101 16.3614717,9.72764648 C16.274543,9.69504822 16.1777495,9.66501255 16.0723232,9.6373962 M12.4786286,9.36619762 C11.2187266,9.38246348 10.0348835,9.47800246 9.45238076,9.72764648 C9.13622564,9.86314154 8.64795716,10.2140486 7.98757532,10.7803677 M15.4,22.6 L11.4,13.1 L15.4,22.6 Z M14.5,8.5 C14.6,11.2 12.5,13.4 9.9,13.5 C9.8,13.5 9.7,13.5 9.6,13.5 C6.8,13.5 4.6,11.2 4.6,8.5 C4.6,5.7 6.9,3.5 9.6,3.5 C12.3,3.5 14.5,5.7 14.5,8.5 L14.5,8.5 Z" stroke="currentColor" stroke-width="1" fill="none" fill-rule="evenodd"/>
</svg>
