<?xml version="1.0" encoding="UTF-8" standalone="no"?>
<svg width="24px" height="24px" viewBox="0 0 24 24" version="1.1" xmlns="http://www.w3.org/2000/svg" xmlns:xlink="http://www.w3.org/1999/xlink">
    <!-- Generator: sketchtool 46.2 (44496) - http://www.bohemiancoding.com/sketch -->
    <title>used-cars-small</title>
    <desc>Created with sketchtool.</desc>
    <defs></defs>
    <g id="icons-published" stroke="none" stroke-width="1" fill="none" fill-rule="evenodd">
        <g id="briefing" transform="translate(-2948.000000, -2202.000000)"></g>
        <g id="used-cars-small" stroke="#000000">
            <path d="M20.9,20.5 C21.8,20.6 22.7,20.4 23.5,20 L23.5,17.2 C21.3,15.5 18.6,14.6 15.9,14.5 C14.3,14.4 12.6,15.1 11.5,16.3 L7.8,17.4 C7.3,17.5 6.9,17.9 6.6,18.3 C6.4,18.7 6.4,19.2 6.4,19.7 L6.4,20.5 L9,20.5" id="Shape" stroke-linejoin="round"></path>
            <path d="M18.1,20.5 L11.9,20.5" id="Shape"></path>
            <circle id="Oval" cx="19.5" cy="20" r="1.5"></circle>
            <circle id="Oval" cx="10.5" cy="20" r="1.5"></circle>
            <path d="M17.5,13 L17.5,11.2 C15.3,9.5 12.6,8.6 9.9,8.5 C8.3,8.4 6.6,9.1 5.5,10.3 L1.8,11.4 C1.3,11.5 0.9,11.9 0.6,12.3 C0.4,12.7 0.4,13.2 0.4,13.7 L0.4,14.5 L3,14.5" id="Shape" stroke-linejoin="round"></path>
            <path d="M11,14.5 L5.9,14.5" id="Shape"></path>
            <circle id="Oval" cx="4.5" cy="14" r="1.5"></circle>
            <path d="M20.9,8.5 C21.8,8.6 22.7,8.4 23.5,8 L23.5,5.2 C21.3,3.5 18.6,2.6 15.9,2.5 C14.3,2.4 12.6,3.1 11.5,4.3 L7.8,5.4 C7.3,5.5 6.9,5.9 6.7,6.3" id="Shape" stroke-linejoin="round"></path>
            <path d="M18.1,8.5 L16,8.5" id="Shape"></path>
            <circle id="Oval" cx="19.5" cy="8" r="1.5"></circle>
        </g>
    </g>
</svg>