<svg width="24" height="24" viewBox="0 0 24 24" version="1.1" xmlns="http://www.w3.org/2000/svg">
    <title>
        used-cars-small
    </title>
    <g stroke="currentColor" stroke-width="1" fill="none" fill-rule="evenodd">
        <path d="M13.3380272,8.5 L11.5243177,8.5 C11.5243177,9.32842712 10.8527448,10 10.0243177,10 C9.19589057,10 8.52431769,9.32842712 8.52431769,8.5 L7.34296583,8.34808123 C6.90504307,8.31634949 6.49397996,7.93802154 6.52431769,7.5 L6.74049551,5.49427414 C6.7721631,5.03705181 7.09347211,4.65167764 7.53754454,4.53829881 C7.82006331,4.46616944 8.10258208,4.40656152 8.38510085,4.35947506 C9.18190174,4.22667491 10.7755035,3.16427373 11.8379047,2.76587329 C12.3824624,2.56166414 13.4874439,2.49513811 14.5243177,2.50027299 C15.5103257,2.50515597 16.4311973,2.571682 16.8843103,2.76587329 C17.2757027,2.9336129 18.0282369,3.55334692 19.1419128,4.62507536 C20.4699143,4.80214222 21.3995153,4.97920908 21.9307159,5.15627595 C22.7275168,5.42187624 23.2587174,5.95307683 23.3915175,6.35147728 C23.4433999,6.50712444 23.4800803,6.70837781 23.5015585,6.95523737" transform="matrix(-1 0 0 1 30.024 0)"/>
        <path d="M0.500049609,12.9634199 C0.535237394,12.6369431 0.588019071,12.1472278 0.658394641,11.4942741 C0.690062233,11.0370518 1.01137124,10.6516776 1.45544368,10.5382988 C1.73796245,10.4661694 2.02048122,10.4065615 2.30299998,10.3594751 C3.09980087,10.2266749 4.69340264,9.16427373 5.75580383,8.76587329 C6.30036156,8.56166414 7.40534301,8.49513811 8.44221683,8.50027299 C9.42822488,8.50515597 10.3490964,8.571682 10.8022094,8.76587329 C11.1936019,8.9336129 11.946136,9.55334692 13.059812,10.6250754 C14.3878134,10.8021422 15.3174145,10.9792091 15.8486151,11.1562759 C16.6454159,11.4218762 17.1766165,11.9530768 17.3094167,12.3514773 C17.3979501,12.6170776 17.4422168,13.015478 17.4422168,13.5466786 L17.4406357,13.7594787 C17.4406357,14.1261962 17.1433525,14.4234794 16.776635,14.4234794 L15.4422168,14.5 C15.4422168,15.3284271 14.7706439,16 13.9422168,16 C13.1137897,16 12.4422168,15.3284271 12.4422168,14.5 L7.95256736,14.5" transform="matrix(-1 0 0 1 17.942 0)"/>
        <path d="M11.5015811,20.5 L11.5015811,20.5 C11.5015811,21.3284271 10.8300082,22 10.0015811,22 L10.0015811,22 C9.17315397,22 8.50158109,21.3284271 8.50158109,20.5 L7.32022924,20.3480812 C6.88230647,20.3163495 6.47124336,19.9380215 6.50158109,19.5 L6.71775891,17.4942741 C6.7494265,17.0370518 7.07073551,16.6516776 7.51480795,16.5382988 C7.79732671,16.4661694 8.07984548,16.4065615 8.36236425,16.3594751 C9.15916514,16.2266749 10.7527669,15.1642737 11.8151681,14.7658733 C12.3597258,14.5616641 13.4647073,14.4951381 14.5015811,14.500273 C15.4875891,14.505156 16.4084607,14.571682 16.8615737,14.7658733 C17.2529661,14.9336129 18.0055003,15.5533469 19.1191762,16.6250754 C20.4471777,16.8021422 21.3767787,16.9792091 21.9079793,17.1562759 C22.7047802,17.4218762 23.2359808,17.9530768 23.3687809,18.3514773 C23.4573144,18.6170776 23.5015811,19.015478 23.5015811,19.5466786 L23.5,19.7594787 C23.5,20.1261962 23.2027167,20.4234794 22.8359993,20.4234794 L21.5015811,20.5 L21.5015811,20.5 C21.5015811,21.3284271 20.8300082,22 20.0015811,22 L20.0015811,22 C19.173154,22 18.5015811,21.3284271 18.5015811,20.5 L11.5015811,20.5 Z" transform="matrix(-1 0 0 1 30.002 0)"/>
    </g>
</svg>
