<svg width="24" height="24" viewBox="0 0 24 24" version="1.1" xmlns="http://www.w3.org/2000/svg">
    <title>
        used-cars-small
    </title>
    <path d="M16.6862679,8.5 L18.4999774,8.5 L18.4999774,8.5 L18.4999774,8.5 C18.4999774,9.32842712 19.1715503,10 19.9999774,10 L19.9999774,10 C20.8284045,10 21.4999774,9.32842712 21.4999774,8.5 L22.6813293,8.34808123 C23.119252,8.31634949 23.5303151,7.93802154 23.4999774,7.5 L23.2837996,5.49427414 C23.252132,5.03705181 22.930823,4.65167764 22.4867506,4.53829881 C22.2042318,4.46616944 21.921713,4.40656152 21.6391943,4.35947506 C20.8423934,4.22667491 19.2487916,3.16427373 18.1863904,2.76587329 C17.6418327,2.56166414 16.5368512,2.49513811 15.4999774,2.50027299 C14.5139694,2.50515597 13.5930978,2.571682 13.1399848,2.76587329 C12.7485924,2.9336129 11.9960582,3.55334692 10.8823823,4.62507536 C9.55438081,4.80214222 8.62477978,4.97920908 8.09357919,5.15627595 C7.2967783,5.42187624 6.76557771,5.95307683 6.63277756,6.35147728 C6.58089518,6.50712444 6.54421485,6.70837781 6.5227366,6.95523737 M17.4422168,12.9634199 C17.407029,12.6369431 17.3542474,12.1472278 17.2838718,11.4942741 C17.2522042,11.0370518 16.9308952,10.6516776 16.4868228,10.5382988 C16.204304,10.4661694 15.9217852,10.4065615 15.6392664,10.3594751 C14.8424656,10.2266749 13.2488638,9.16427373 12.1864626,8.76587329 C11.6419049,8.56166414 10.5369234,8.49513811 9.50004961,8.50027299 C8.51404156,8.50515597 7.59317001,8.571682 7.140057,8.76587329 C6.74866458,8.9336129 5.99613041,9.55334692 4.88245448,10.6250754 C3.55445301,10.8021422 2.62485197,10.9792091 2.09365138,11.1562759 C1.2968505,11.4218762 0.765649905,11.9530768 0.632849757,12.3514773 C0.544316325,12.6170776 0.500049609,13.015478 0.500049609,13.5466786 L0.501630701,13.7594787 C0.501630701,14.1261962 0.798913958,14.4234794 1.16563144,14.4234794 L2.50004961,14.5 L2.50004961,14.5 C2.50004961,15.3284271 3.17162248,16 4.00004961,16 L4.00004961,16 C4.82847673,16 5.50004961,15.3284271 5.50004961,14.5 L9.98969908,14.5 M18.5,20.5 C18.5,21.3284271 19.1715729,22 20,22 C20.8284271,22 21.5,21.3284271 21.5,20.5 L21.5,20.5 L21.5,20.5 L22.6813519,20.3480812 C23.1192746,20.3163495 23.5303377,19.9380215 23.5,19.5 L23.2838222,17.4942741 C23.2521546,17.0370518 22.9308456,16.6516776 22.4867731,16.5382988 C22.2042544,16.4661694 21.9217356,16.4065615 21.6392168,16.3594751 C20.842416,16.2266749 19.2488142,15.1642737 18.186413,14.7658733 C17.6418553,14.5616641 16.5368738,14.4951381 15.5,14.500273 C14.5139919,14.505156 13.5931204,14.571682 13.1400074,14.7658733 C12.748615,14.9336129 11.9960808,15.5533469 10.8824049,16.6250754 C9.5544034,16.8021422 8.62480236,16.9792091 8.09360177,17.1562759 C7.29680089,17.4218762 6.7656003,17.9530768 6.63280015,18.3514773 C6.54426672,18.6170776 6.5,19.015478 6.5,19.5466786 L6.50158109,19.7594787 C6.50158109,20.1261962 6.79886435,20.4234794 7.16558183,20.4234794 L8.5,20.5 C8.5,21.3284271 9.17157288,22 10,22 C10.8284271,22 11.5,21.3284271 11.5,20.5 L11.5,20.5 L11.5,20.5 L18.5,20.5 Z" stroke="currentColor" stroke-width="1" fill="none" fill-rule="evenodd"/>
</svg>
