<svg width="48" height="48" viewBox="0 0 48 48" version="1.1" xmlns="http://www.w3.org/2000/svg">
    <title>
        used-cars-large
    </title>
    <g stroke="currentColor" stroke-width="1" fill="none" fill-rule="evenodd">
        <path d="M26.8995704,17.5005139 L23.0397828,17.5005139 C23.0397828,19.1573682 21.6966371,20.5005139 20.0397828,20.5005139 C18.3829286,20.5005139 17.0397828,19.1573682 17.0397828,17.5005139 L15.0809109,17.3585747 C14.256509,17.2988388 13.4826712,16.583442 13.5397828,15.7588541 L13.9437672,12.136805 C14.0033823,11.2760711 14.6082555,10.5505935 15.4442343,10.3371546 C15.9760838,10.2013691 16.5079333,10.0891555 17.0397828,10.0005139 C18.5397828,9.75051392 21.5397828,7.75051392 23.5397828,7.00051392 C24.564928,6.61608447 26.5878388,6.49084736 28.5397828,6.50051392 C30.3959706,6.50970626 32.1867849,6.63494336 33.0397828,7.00051392 C33.77659,7.31628843 35.1932567,8.48295509 37.2897828,10.5005139 C39.7897828,10.8338472 41.5397828,11.1671806 42.5397828,11.5005139 C44.0397828,12.0005139 45.0397828,13.0005139 45.2897828,13.7505139 C45.3899325,14.0509629 45.4599923,14.4416815 45.4999622,14.9226697" transform="matrix(-1 0 0 1 59.037 0)"/>
        <path d="M2.49720551,24.2874621 C2.55051062,23.8095383 2.63046829,23.0926526 2.73707852,22.136805 C2.79669365,21.2760711 3.40156686,20.5505935 4.23754567,20.3371546 C4.76939517,20.2013691 5.30124467,20.0891555 5.83309417,20.0005139 C7.33309417,19.7505139 10.3330942,17.7505139 12.3330942,17.0005139 C13.3582394,16.6160845 15.3811502,16.4908474 17.3330942,16.5005139 C19.189282,16.5097063 20.9800962,16.6349434 21.8330942,17.0005139 C22.5699014,17.3162884 23.986568,18.4829551 26.0830942,20.5005139 C28.5830942,20.8338472 30.3330942,21.1671806 31.3330942,21.5005139 C32.8330942,22.0005139 33.8330942,23.0005139 34.0830942,23.7505139 C34.2497608,24.2505139 34.3330942,25.0005139 34.3330942,26.0005139 L34.3330942,26.2505139 C34.3330942,26.9408699 33.7734501,27.5005139 33.0830942,27.5005139 L30.8330942,27.5005139 C30.8330942,29.1573682 29.4899484,30.5005139 27.8330942,30.5005139 C26.1762399,30.5005139 24.8330942,29.1573682 24.8330942,27.5005139 L18.8338798,27.5005139" transform="matrix(-1 0 0 1 36.83 0)"/>
        <path d="M21,37.5005139 L21,37.5005139 C21,39.1573682 19.6568542,40.5005139 18,40.5005139 L18,40.5005139 C16.3431458,40.5005139 15,39.1573682 15,37.5005139 L13.0411281,37.3585747 C12.2167262,37.2988388 11.4428884,36.583442 11.5,35.7588541 L11.9039843,32.136805 C11.9635995,31.2760711 12.5684727,30.5505935 13.4044515,30.3371546 C13.936301,30.2013691 14.4681505,30.0891555 15,30.0005139 C16.5,29.7505139 19.5,27.7505139 21.5,27.0005139 C22.5251452,26.6160845 24.548056,26.4908474 26.5,26.5005139 C28.3561878,26.5097063 30.147002,26.6349434 31,27.0005139 C31.7368072,27.3162884 33.1534739,28.4829551 35.25,30.5005139 C37.75,30.8338472 39.5,31.1671806 40.5,31.5005139 C42,32.0005139 43,33.0005139 43.25,33.7505139 C43.4166667,34.2505139 43.5,35.0005139 43.5,36.0005139 L43.5,36.2505139 C43.5,36.9408699 42.9403559,37.5005139 42.25,37.5005139 L40,37.5005139 L40,37.5005139 C40,39.1573682 38.6568542,40.5005139 37,40.5005139 L37,40.5005139 C35.3431458,40.5005139 34,39.1573682 34,37.5005139 L21,37.5005139 Z" transform="matrix(-1 0 0 1 54.997 0)"/>
    </g>
</svg>
