<svg width="48" height="48" viewBox="0 0 48 48" version="1.1" xmlns="http://www.w3.org/2000/svg">
    <title>
        used-cars-large
    </title>
    <path d="M32.1371982,17.5005139 L35.9969858,17.5005139 L35.9969858,17.5005139 L35.9969858,17.5005139 C35.9969858,19.1573682 37.3401315,20.5005139 38.9969858,20.5005139 L38.9969858,20.5005139 C40.65384,20.5005139 41.9969858,19.1573682 41.9969858,17.5005139 L43.9558577,17.3585747 C44.7802596,17.2988388 45.5540974,16.583442 45.4969858,15.7588541 L45.0930014,12.136805 C45.0333863,11.2760711 44.4285131,10.5505935 43.5925343,10.3371546 C43.0606848,10.2013691 42.5288353,10.0891555 41.9969858,10.0005139 C40.4969858,9.75051392 37.4969858,7.75051392 35.4969858,7.00051392 C34.4718406,6.61608447 32.4489298,6.49084736 30.4969858,6.50051392 C28.640798,6.50970626 26.8499837,6.63494336 25.9969858,7.00051392 C25.2601786,7.31628843 23.8435119,8.48295509 21.7469858,10.5005139 C19.2469858,10.8338472 17.4969858,11.1671806 16.4969858,11.5005139 C14.9969858,12.0005139 13.9969858,13.0005139 13.7469858,13.7505139 C13.6468361,14.0509629 13.5767763,14.4416815 13.5368064,14.9226697 M34.3330942,24.2874621 C34.2797891,23.8095383 34.1998314,23.0926526 34.0932212,22.136805 C34.033606,21.2760711 33.4287328,20.5505935 32.592754,20.3371546 C32.0609045,20.2013691 31.529055,20.0891555 30.9972055,20.0005139 C29.4972055,19.7505139 26.4972055,17.7505139 24.4972055,17.0005139 C23.4720603,16.6160845 21.4491495,16.4908474 19.4972055,16.5005139 C17.6410177,16.5097063 15.8502035,16.6349434 14.9972055,17.0005139 C14.2603983,17.3162884 12.8437316,18.4829551 10.7472055,20.5005139 C8.24720551,20.8338472 6.49720551,21.1671806 5.49720551,21.5005139 C3.99720551,22.0005139 2.99720551,23.0005139 2.74720551,23.7505139 C2.58053884,24.2505139 2.49720551,25.0005139 2.49720551,26.0005139 L2.49720551,26.2505139 C2.49720551,26.9408699 3.05684957,27.5005139 3.74720551,27.5005139 L5.99720551,27.5005139 C5.99720551,29.1573682 7.34035126,30.5005139 8.99720551,30.5005139 C10.6540598,30.5005139 11.9972055,29.1573682 11.9972055,27.5005139 L17.9964199,27.5005139 M33.9970236,37.5005139 C33.9970236,39.1573682 35.3401693,40.5005139 36.9970236,40.5005139 C38.6538778,40.5005139 39.9970236,39.1573682 39.9970236,37.5005139 L39.9970236,37.5005139 L39.9970236,37.5005139 L41.9558955,37.3585747 C42.7802973,37.2988388 43.5541352,36.583442 43.4970236,35.7588541 L43.0930392,32.136805 C43.0334241,31.2760711 42.4285509,30.5505935 41.592572,30.3371546 C41.0607225,30.2013691 40.5288731,30.0891555 39.9970236,30.0005139 C38.4970236,29.7505139 35.4970236,27.7505139 33.4970236,27.0005139 C32.4718784,26.6160845 30.4489676,26.4908474 28.4970236,26.5005139 C26.6408358,26.5097063 24.8500215,26.6349434 23.9970236,27.0005139 C23.2602164,27.3162884 21.8435497,28.4829551 19.7470236,30.5005139 C17.2470236,30.8338472 15.4970236,31.1671806 14.4970236,31.5005139 C12.9970236,32.0005139 11.9970236,33.0005139 11.7470236,33.7505139 C11.5803569,34.2505139 11.4970236,35.0005139 11.4970236,36.0005139 L11.4970236,36.2505139 C11.4970236,36.9408699 12.0566676,37.5005139 12.7470236,37.5005139 L14.9970236,37.5005139 C14.9970236,39.1573682 16.3401693,40.5005139 17.9970236,40.5005139 C19.6538778,40.5005139 20.9970236,39.1573682 20.9970236,37.5005139 L20.9970236,37.5005139 L20.9970236,37.5005139 L33.9970236,37.5005139 Z" stroke="currentColor" stroke-width="1" fill="none" fill-rule="evenodd"/>
</svg>
