<svg xmlns="http://www.w3.org/2000/svg" width="48" height="48" viewBox="0 0 48 48"><g fill="none" stroke="currentColor"><path d="M39.619 38.653c3.328 0 3.881-1.153 3.881-1.153v-5.057l-5.584-3.177S35.582 27.5 30.195 27.5s-7.664 3.218-7.664 3.218l-6.507 2.12a3.076 3.076 0 0 0-2.05 1.72 6.548 6.548 0 0 0-.307 2.557V38.5h4.145" stroke-linejoin="round"/><path stroke-miterlimit="10" d="M23.188 38.5H34.33"/><circle cx="37" cy="37.694" r="2.806" stroke-miterlimit="10"/><circle cx="20.5" cy="37.694" r="2.806" stroke-miterlimit="10"/><path d="M32.333 24v-2.557l-5.584-3.177S24.415 16.5 19.028 16.5s-7.663 3.218-7.663 3.218l-6.508 2.12a3.076 3.076 0 0 0-2.05 1.721 6.548 6.548 0 0 0-.307 2.556V27.5h4.145" stroke-linejoin="round"/><path stroke-miterlimit="10" d="M12.061 27.5H20"/><circle cx="9.333" cy="26.694" r="2.806" stroke-miterlimit="10"/><g><path d="M41.619 17.653c3.328 0 3.881-1.153 3.881-1.153v-5.057l-5.584-3.176S37.582 6.5 32.195 6.5 24.53 9.718 24.53 9.718l-6.507 2.12" stroke-linejoin="round"/><path stroke-miterlimit="10" d="M32 17.5h4.33"/><circle cx="39" cy="16.694" r="2.806" stroke-miterlimit="10"/></g></g></svg>