<svg width="48" height="48" viewBox="0 0 48 48" version="1.1" xmlns="http://www.w3.org/2000/svg">
    <title>
        used-car-search-large
    </title>
    <g stroke="currentColor" stroke-width="1" fill="none" fill-rule="evenodd">
        <path d="M22.0180112,16.5012021 C22.2386095,16.4997625 22.4593411,16.4996327 22.679431,16.5007226 C22.8027439,16.5013333 22.9258516,16.5023082 23.0486247,16.5036658 C25.5244486,16.5310423 27.8642182,16.7140326 29.0069675,17.2037822 C29.5731203,17.4464192 30.4247406,18.0463388 31.5618283,19.0035411 C31.9077585,19.2947457 32.2801096,19.6190179 32.6788814,19.9763575 M37.4943795,22.4881609 C38.0328564,22.5731154 38.5366873,22.6580699 39.005872,22.7430244 C40.457063,23.0057892 41.5768057,23.2685539 42.3651,23.5313187 C44.4742788,24.2343783 45.880398,25.6404975 46.2319278,26.6950869 C46.466281,27.3981465 46.5048748,27.984702 46.5048748,29.3908212 L46.5048748,29.742351 C46.5048748,30.7130737 45.7179486,31.5 44.7472258,31.5 L41.5048748,31.5 C41.5048748,33.709139 39.7140138,35.5 37.5048748,35.5 L37.0048748,35.5 C34.7957358,35.5 33.0048748,33.709139 33.0048748,31.5 L25.0048748,31.5 M17.9954027,31.5 L17.5048748,31.5 L15.0048748,31.5 C15.0048748,33.709139 13.2140138,35.5 11.0048748,35.5 L10.5048748,35.5 C8.29573584,35.5 6.50487484,33.709139 6.50487484,31.5 L3.67606988,31.3004166 C2.51686257,31.2164208 1.5834576,30.1594688 1.50906009,29 C1.43466257,27.8405312 1.8334576,25.5 2.155693,24.4260198 C2.4779284,23.3520395 3.09004282,22.1956173 4.26552869,21.8954969 C5.01337249,21.7045662 5.76121629,21.5467805 6.50906009,21.4221399 C8.6182389,21.0706101 12.8365965,18.2583716 15.648835,17.2037822 C15.7517002,17.1652077 15.8617101,17.1284892 15.9783183,17.0935631 C16.265569,17.0075268 16.5928606,16.9323675 16.9520297,16.8671358" transform="matrix(-1 0 0 1 48.005 0)"/>
        <path d="M30.7,40.7 L23.2,23.8 L30.7,40.7 Z M28.5,15.4 C28.7,20.2 25,24.3 20.2,24.5 C20,24.5 19.8,24.5 19.6,24.5 C14.6,24.4 10.6,20.4 10.5,15.4 C10.6,10.4 14.6,6.5 19.6,6.5 C24.5,6.5 28.5,10.5 28.5,15.4 Z"/>
    </g>
</svg>
