<svg xmlns="http://www.w3.org/2000/svg" width="24" height="24" viewBox="0 0 24 24"><g fill="none" stroke="currentColor"><circle cx="18.5" cy="17.25" r="2.25" stroke-miterlimit="10"/><circle cx="5.5" cy="17.25" r="2.25" stroke-miterlimit="10"/><path stroke-miterlimit="10" d="M16.282 17.5H15m-4 0H7.722m12.878.102c2.564 0 2.9-.735 2.9-.735V12.82a27.625 27.625 0 0 0-6.854-3.382"/><path d="M12.377 9.111A7.196 7.196 0 0 0 7.75 11.01" stroke-linejoin="round"/><path d="M4.17 12.51c-.325.095-.879.26-1.255.391-.91.317-2.415.674-2.415 3.6v.999h2.876M15.4 22.641l-3.96-9.491m3.06-4.688A4.832 4.832 0 0 1 9.54 13.5 5.095 5.095 0 0 1 4.5 8.462 5.03 5.03 0 0 1 9.54 3.5a4.961 4.961 0 0 1 4.96 4.962z" stroke-miterlimit="10"/></g></svg>