<svg width="24" height="24" viewBox="0 0 24 24" version="1.1" xmlns="http://www.w3.org/2000/svg">
    <title>
        used-car-search-small
    </title>
    <g stroke="currentColor" stroke-width="1" fill="none" fill-rule="evenodd">
        <path d="M19.6310505,12.5840546 C20.374944,12.7228277 20.9350336,12.8616007 21.3513527,13.0003738 C22.4422618,13.3640101 23.2195346,14.0912828 23.4013528,14.6367374 C23.5225649,15.0003738 23.5013528,15.5458283 23.5013528,16.273101 L23.5013528,16.4549192 C23.5013528,16.9569963 23.0034299,17.5 22.5013528,17.5 L21.0013528,17.5206227 C21.0013528,18.7518738 20.0032266,19.75 18.7719755,19.75 L18.7514088,19.75 C17.5087991,19.75 16.5014648,18.7426658 16.5014648,17.500056 L16.5014648,17.5 L12.5899663,17.5089627 M8.51324597,17.518304 L7.50135283,17.5206227 C7.50135283,18.7518738 6.5032266,19.75 5.27197551,19.75 L5.23083516,19.75 C3.99958406,19.75 3.00145784,18.7518738 3.00145784,17.5206227 L1.4879743,17.2607816 C0.888409301,17.2173373 0.459817099,16.6970487 0.501352828,16.0973485 L0.701353591,13.4631309 C0.744710048,12.8371427 1.24336862,12.3095225 1.85135321,12.1542943 C2.23815285,12.0555411 2.52580879,11.9739313 2.91260843,11.9094647 C4.00351752,11.7276465 6.1853357,10.273101 7.63988115,9.72764648 C7.72680987,9.69504822 7.82360335,9.66501255 7.92902962,9.6373962 M11.5227243,9.36619762 C12.7826262,9.38246348 13.9664693,9.47800246 14.5489721,9.72764648 C14.8651272,9.86314154 15.3533957,10.2140486 16.0137775,10.7803677" transform="matrix(-1 0 0 1 24.001 0)"/>
        <path d="M15.4,22.6 L11.4,13.1 L15.4,22.6 Z M14.5,8.5 C14.6,11.2 12.5,13.4 9.9,13.5 C9.8,13.5 9.7,13.5 9.6,13.5 C6.8,13.5 4.6,11.2 4.6,8.5 C4.6,5.7 6.9,3.5 9.6,3.5 C12.3,3.5 14.5,5.7 14.5,8.5 Z"/>
    </g>
</svg>
