<svg width="48" height="48" viewBox="0 0 48 48" version="1.1" xmlns="http://www.w3.org/2000/svg">
    <title>
        used-car-search-large
    </title>
    <path d="M25.9868637,16.5012021 C25.7662653,16.4997625 25.5455337,16.4996327 25.3254438,16.5007226 C25.202131,16.5013333 25.0790233,16.5023082 24.9562502,16.5036658 C22.4804263,16.5310423 20.1406566,16.7140326 18.9979074,17.2037822 C18.4317546,17.4464192 17.5801343,18.0463388 16.4430465,19.0035411 C16.0971163,19.2947457 15.7247653,19.6190179 15.3259934,19.9763575 M10.5104953,22.4881609 C9.9720184,22.5731154 9.46818756,22.6580699 8.99900283,22.7430244 C7.54781181,23.0057892 6.42806916,23.2685539 5.63977487,23.5313187 C3.53059606,24.2343783 2.12447684,25.6404975 1.77294704,26.6950869 C1.53859384,27.3981465 1.5,27.984702 1.5,29.3908212 L1.5,29.742351 C1.5,30.7130737 2.28692627,31.5 3.25764901,31.5 L6.5,31.5 C6.5,33.709139 8.290861,35.5 10.5,35.5 L11,35.5 C13.209139,35.5 15,33.709139 15,31.5 L23,31.5 M30.0094721,31.5 L30.5,31.5 L33,31.5 C33,33.709139 34.790861,35.5 37,35.5 L37.5,35.5 C39.709139,35.5 41.5,33.709139 41.5,31.5 L44.328805,31.3004166 C45.4880123,31.2164208 46.4214172,30.1594688 46.4958148,29 C46.5702123,27.8405312 46.1714172,25.5 45.8491818,24.4260198 C45.5269464,23.3520395 44.914832,22.1956173 43.7393462,21.8954969 C42.9915024,21.7045662 42.2436586,21.5467805 41.4958148,21.4221399 C39.3866359,21.0706101 35.1682783,18.2583716 32.3560399,17.2037822 C32.2531746,17.1652077 32.1431648,17.1284892 32.0265566,17.0935631 C31.7393059,17.0075268 31.4120143,16.9323675 31.0528452,16.8671358 M30.7,40.7 L23.2,23.8 L30.7,40.7 Z M28.5,15.4 C28.7,20.2 25,24.3 20.2,24.5 C20,24.5 19.8,24.5 19.6,24.5 C14.6,24.4 10.6,20.4 10.5,15.4 C10.6,10.4 14.6,6.5 19.6,6.5 C24.5,6.5 28.5,10.5 28.5,15.4 Z" stroke="currentColor" stroke-width="1" fill="none" fill-rule="evenodd"/>
</svg>
