<?xml version="1.0" encoding="UTF-8"?>
<svg width="24px" height="24px" viewBox="0 0 24 24" version="1.1" xmlns="http://www.w3.org/2000/svg" xmlns:xlink="http://www.w3.org/1999/xlink">
    <!-- Generator: sketchtool 48.1 (47250) - http://www.bohemiancoding.com/sketch -->
    <title>used-car-search-small</title>
    <desc>Created with sketchtool.</desc>
    <defs/>
    <g id="icons-published" stroke="none" stroke-width="1" fill="none" fill-rule="evenodd">
        <g id="briefing" transform="translate(-2660.000000, -2202.000000)"/>
        <g id="used-car-search-small" stroke="currentColor">
            <circle id="Oval" cx="18.5" cy="17.2" r="2.2"/>
            <circle id="Oval" cx="5.5" cy="17.2" r="2.2"/>
            <path d="M16.3,17.5 L15,17.5 M11,17.5 L7.7,17.5 M20.6,17.6 C23.2,17.6 23.5,16.9 23.5,16.9 L23.5,12.9 C21.4,11.5 19.1,10.3 16.6,9.5" id="Shape"/>
            <path d="M12.4,9.1 C10.7,9.2 9,9.8 7.8,11" id="Shape" stroke-linejoin="round"/>
            <path d="M15.4,22.6 L11.4,13.1 L15.4,22.6 Z M14.5,8.5 C14.6,11.2 12.5,13.4 9.9,13.5 C9.8,13.5 9.7,13.5 9.6,13.5 C6.8,13.5 4.6,11.2 4.6,8.5 C4.6,5.7 6.9,3.5 9.6,3.5 C12.3,3.5 14.5,5.7 14.5,8.5 Z" id="Shape"/>
            <path d="M4.2,12.5 C3.9,12.6 3.3,12.8 2.9,12.9 C2,13.2 0.5,13.6 0.5,16.5 L0.5,17.5 L3.4,17.5" id="Path"/>
        </g>
    </g>
</svg>