<svg xmlns="http://www.w3.org/2000/svg" width="48" height="48" viewBox="0 0 48 48"><g fill="none" stroke="currentColor"><circle cx="35.508" cy="30.5" r="4" stroke-miterlimit="10"/><circle cx="12.5" cy="30.5" r="4" stroke-miterlimit="10"/><path stroke-miterlimit="10" d="M31.634 31.5H30m-6 0h-7.626m22.956.183c4.57 0 5.17-1.31 5.17-1.31v-7.216s-7.78-5.632-14.111-6.357"/><path d="M26 16.5c-7.458 0-10.33 4.288-10.33 4.288" stroke-linejoin="round"/><path d="M10.512 22.469s-1.707.485-2.707.833C6.182 23.867 3.5 24.504 3.5 29.72v1.78h5.126M30.722 40.664l-7.465-16.892m5.243-8.341a8.697 8.697 0 0 1-8.928 9.069 9.172 9.172 0 0 1-9.072-9.069A9.053 9.053 0 0 1 19.572 6.5a8.93 8.93 0 0 1 8.928 8.931z" stroke-miterlimit="10"/></g></svg>