<?xml version="1.0" encoding="UTF-8" standalone="no"?>
<svg width="24px" height="24px" viewBox="0 0 24 24" version="1.1" xmlns="http://www.w3.org/2000/svg" xmlns:xlink="http://www.w3.org/1999/xlink">
    <!-- Generator: sketchtool 46.2 (44496) - http://www.bohemiancoding.com/sketch -->
    <title>user-small</title>
    <desc>Created with sketchtool.</desc>
    <defs></defs>
    <g id="icons-published" stroke="none" stroke-width="1" fill="none" fill-rule="evenodd">
        <g id="briefing" transform="translate(-3236.000000, -2202.000000)"></g>
        <g id="user-small" stroke="#000000">
            <path d="M5.5,21.5 L5.5,14.5 C5.5,13.9 5.9,13.5 6.5,13.5 L17.5,13.5 C18.1,13.5 18.5,13.9 18.5,14.5 L18.5,21.5 L5.5,21.5 Z" id="Shape"></path>
            <path d="M10.5,3.5 L13.5,3.5 C14.6,3.5 15.5,4.4 15.5,5.5 L15.5,8.5 C15.5,9.6 14.6,10.5 13.5,10.5 L10.5,10.5 C9.4,10.5 8.5,9.6 8.5,8.5 L8.5,5.5 C8.5,4.4 9.4,3.5 10.5,3.5 Z" id="Shape"></path>
        </g>
    </g>
</svg>