<svg width="48" height="48" viewBox="0 0 48 48" version="1.1" xmlns="http://www.w3.org/2000/svg">
    <title>
        user-whole-body-large
    </title>
    <path d="M23.5,44.5 L23.5,31 M19.5,19 L19.5,27.7 L20.5,44.5 L26.5,44.5 L27.5,27.5 L27.5,19 M19.5,27.5 L16.5,27.5 L16.5,14.4 C16.5,13.3 17.4,12.4 18.5,12.5 L28.5,12.5 C29.6,12.5 30.5,13.4 30.5,14.4 C30.5,14.4 30.5,14.4 30.5,14.4 L30.5,27.5 L27.5,27.5 M22.5,3.5 L24.5,3.5 C25.6,3.5 26.5,4.4 26.5,5.5 L26.5,7.5 C26.5,8.6 25.6,9.5 24.5,9.5 L22.5,9.5 C21.4,9.5 20.5,8.6 20.5,7.5 L20.5,5.5 C20.5,4.4 21.4,3.5 22.5,3.5 Z" stroke="currentColor" stroke-width="1" fill="none" fill-rule="evenodd"/>
</svg>
