<svg width="24" height="24" viewBox="0 0 24 24" version="1.1" xmlns="http://www.w3.org/2000/svg">
    <title>
        user-whole-body-small
    </title>
    <path d="M9.5,10 L9.5,23.5 L13.5,23.5 L13.5,10 M9.5,14.5 L7.5,14.5 L7.5,7.5 C7.5,7 7.9,6.5 8.4,6.5 C8.4,6.5 8.5,6.5 8.5,6.5 L14.5,6.5 C15,6.5 15.5,6.9 15.5,7.4 C15.5,7.4 15.5,7.5 15.5,7.5 L15.5,14.5 L13.5,14.5 M10.5,0.5 L12.5,0.5 C13.1,0.5 13.5,0.9 13.5,1.5 L13.5,3.5 C13.5,4.1 13.1,4.5 12.5,4.5 L10.5,4.5 C9.9,4.5 9.5,4.1 9.5,3.5 L9.5,1.5 C9.5,0.9 9.9,0.5 10.5,0.5 Z" stroke="currentColor" stroke-width="1" fill="none" fill-rule="evenodd"/>
</svg>
