<?xml version="1.0" encoding="UTF-8"?>
<svg width="24px" height="24px" viewBox="0 0 24 24" version="1.1" xmlns="http://www.w3.org/2000/svg" xmlns:xlink="http://www.w3.org/1999/xlink">
    <!-- Generator: sketchtool 48.1 (47250) - http://www.bohemiancoding.com/sketch -->
    <title>valet-parking-small</title>
    <desc>Created with sketchtool.</desc>
    <defs/>
    <g id="icons-published" stroke="none" stroke-width="1" fill="none" fill-rule="evenodd">
        <g id="briefing" transform="translate(-3812.000000, -2202.000000)"/>
        <g id="valet-parking-small" stroke="currentColor">
            <path d="M21.5,15 L21.5,18.7 C20.5,19.2 19.6,19.4 18.5,19.3 M3.5,19.5 L0.5,19.5 L0.5,18.3 C0.5,17.7 0.5,17.2 0.7,16.6 C1,16 1.5,15.6 2.1,15.5 L6.6,14.1 C8,12.6 10,11.4 12,11.5" id="Shape" stroke-linejoin="round"/>
            <path d="M7.5,19.5 L14.5,19.5" id="Shape"/>
            <circle id="Oval" cx="16.5" cy="19.5" r="2"/>
            <circle id="Oval" cx="5.5" cy="19.5" r="2"/>
            <path d="M18.5,9 L18.5,12 L18.5,9 Z" id="Shape"/>
            <polygon id="Path" points="23.5 13.5 23.5 7.5 13.5 7.5 13.5 13.5"/>
            <path d="M15.5,7.5 L15.5,5.625 C15.5,3.89911016 16.4593898,2.5 17.6428571,2.5 L19.3571429,2.5 C20.5406102,2.5 21.5,3.89911016 21.5,5.625 L21.5,7.5" id="Rectangle-6"/>
        </g>
    </g>
</svg>