<svg width="24" height="24" viewBox="0 0 24 24" version="1.1" xmlns="http://www.w3.org/2000/svg">
    <title>
        valet-parking-small
    </title>
    <g stroke="currentColor" stroke-width="1" fill="none" fill-rule="evenodd">
        <path d="M12.0286198,11.3773382 C13.0919536,11.4111361 14.0452787,11.5117779 14.5489721,11.7276465 C15.0848318,11.9573007 16.1151349,12.8057855 17.6398812,14.273101 C19.458063,14.5155253 20.62408,14.7579495 21.3513527,15.0003738 C22.4422618,15.3640101 23.2195346,16.0912828 23.4013528,16.6367374 C23.5225649,17.0003738 23.5013528,17.5458283 23.5013528,18.273101 L23.5013528,18.4549192 C23.5013528,18.9569963 23.0034299,19.5 22.5013528,19.5 L21.0013528,19.5206227 L21.0013528,19.5206227 C21.0013528,20.7518738 20.0032266,21.75 18.7719755,21.75 L18.7513528,21.75 C17.508774,21.75 16.5014648,20.7426908 16.5014648,19.500112 C16.5014648,19.5000747 16.5014648,19.5000373 16.5014648,19.5 L7.50135283,19.5206227 L7.50135283,19.5206227 C7.50135283,20.7518738 6.5032266,21.75 5.27197551,21.75 L5.23083516,21.75 C3.99958406,21.75 3.00145784,20.7518738 3.00145784,19.5206227 L1.4879743,19.2607816 C0.888409301,19.2173373 0.459817099,18.6970487 0.501352828,18.0973485 L0.751352828,15.1499996" transform="matrix(-1 0 0 1 24.001 0)"/>
        <path d="M23.5,13.5 L23.5,7.5 L13.5,7.5 L13.5,13.5 L23.5,13.5 Z M18.5,9 L18.5,11.5 L18.5,9 Z M14.5,7.5 L14.5,5.5 C14.5,3.84314575 15.8431458,2.5 17.5,2.5 L19.5,2.5 C21.1568542,2.5 22.5,3.84314575 22.5,5.5 L22.5,7.5"/>
    </g>
</svg>
