<svg xmlns="http://www.w3.org/2000/svg" width="48" height="48" viewBox="0 0 48px 48px"><g fill="none" stroke="currentColor"><path stroke-linejoin="round" d="M43 27l3.5 1.8v7.3s-.7 1.6-5.6 1.6h-.358M7.598 37.5H1.5v-1.9c0-1.3.1-2.5.5-3.7.5-1.2 1.6-2.1 2.9-2.5l9.5-3.1c3.5-3 8-4.8 12.6-4.8"/><circle stroke-miterlimit="10" cx="11.6" cy="36.6" r="4.1"/><circle stroke-miterlimit="10" cx="36.6" cy="36.6" r="4.1"/><path stroke-miterlimit="10" d="M32.604 37.5H15.597"/><g stroke-miterlimit="10"><path d="M42.5 24.5c1.7 0 3-1.3 3-3v-8h-16v8c0 1.7 1.3 3 3 3h10zM37.5 17v4"/><path d="M32.5 14v-3.5c0-1.7 1.3-3 3-3h4c1.7 0 3 1.3 3 3V13"/></g></g></svg>