<svg width="24" height="24" viewBox="0 0 24 24" version="1.1" xmlns="http://www.w3.org/2000/svg">
    <title>
        valet-parking-small
    </title>
    <path d="M11.972733,11.3773382 C10.9093992,11.4111361 9.95607412,11.5117779 9.45238076,11.7276465 C8.91652098,11.9573007 7.88621795,12.8057855 6.36147167,14.273101 C4.54328985,14.5155253 3.37727282,14.7579495 2.6500001,15.0003738 C1.559091,15.3640101 0.781818206,16.0912828 0.600000024,16.6367374 C0.478787903,17.0003738 0.5,17.5458283 0.5,18.273101 L0.5,18.4549192 C0.5,18.9569963 0.997922955,19.5 1.5,19.5 L3,19.5206227 C3,20.7518738 3.99812622,21.75 5.22937732,21.75 L5.25,21.75 C6.49257884,21.75 7.49988801,20.7426908 7.49988801,19.500112 C7.49988801,19.5000747 7.49988801,19.5000373 7.49988801,19.5 L7.49988801,19.5 L7.49988801,19.5 L16.5,19.5206227 C16.5,20.7518738 17.4981262,21.75 18.7293773,21.75 L18.7705177,21.75 C20.0017688,21.75 20.999895,20.7518738 20.999895,19.5206227 L20.999895,19.5206227 L20.999895,19.5206227 L22.5133785,19.2607816 C23.1129435,19.2173373 23.5415357,18.6970487 23.5,18.0973485 L23.25,15.1499996 M23.5,13.5 L23.5,7.5 L13.5,7.5 L13.5,13.5 L23.5,13.5 Z M18.5,9 L18.5,11.5 L18.5,9 Z M14.5,7.5 L14.5,5.5 C14.5,3.84314575 15.8431458,2.5 17.5,2.5 L19.5,2.5 C21.1568542,2.5 22.5,3.84314575 22.5,5.5 L22.5,7.5 L22.5,7.5" stroke="currentColor" stroke-width="1" fill="none" fill-rule="evenodd"/>
</svg>
