<svg xmlns="http://www.w3.org/2000/svg" width="24" height="24" viewBox="0 0 24px 24px"><g fill="none" stroke="currentColor"><g stroke-miterlimit="10"><path d="M21.5 13.5c1.1 0 2-.9 2-2v-4h-10v4c0 1.1.9 2 2 2h6zM18.5 9v3M15.5 7V4.4c0-1.1.5-1.9 1.6-1.9h2.5c1.1 0 1.8.8 1.8 1.9V7"/></g><path stroke-linejoin="round" d="M21.5 15v3.7c-.972.486-1.86.689-3.01.608M3.5 19.5h-3v-1.2c0-.6 0-1.1.2-1.7.3-.6.8-1 1.4-1.1l4.5-1.4C8 12.6 10 11.4 12 11.5"/><path stroke-miterlimit="10" d="M7.5 19.5h7"/><circle stroke-miterlimit="10" cx="16.5" cy="19.5" r="2"/><circle stroke-miterlimit="10" cx="5.5" cy="19.5" r="2"/></g></svg>