<svg width="48" height="48" viewBox="0 0 48 48" version="1.1" xmlns="http://www.w3.org/2000/svg">
    <title>
        valet-parking-large
    </title>
    <path d="M27,21.5 C26.2380198,21.4987267 25.6798345,21.4989676 25.3254438,21.5007226 C22.7154225,21.5136482 20.1973242,21.6897465 18.9979074,22.2037822 C17.9618686,22.6477988 15.9698664,24.2882713 13.0219007,27.1251995 C9.5066027,27.5939059 7.04589408,28.0626123 5.63977487,28.5313187 C3.53059606,29.2343783 2.12447684,30.6404975 1.77294704,31.6950869 C1.53859384,32.3981465 1.5,32.984702 1.5,34.3908212 L1.5,34.742351 C1.5,35.7130737 2.28692627,36.5 3.25764901,36.5 L6.5,36.5 C6.5,38.709139 8.290861,40.5 10.5,40.5 L11,40.5 C13.209139,40.5 15,38.709139 15,36.5 L33,36.5 C33,38.709139 34.790861,40.5 37,40.5 L37.5,40.5 C39.709139,40.5 41.5,38.709139 41.5,36.5 L44.328805,36.3004166 C45.4880123,36.2164208 46.4214172,35.1594688 46.4958148,34 C46.5702123,32.8405312 46.1714172,30.5 45.8491818,29.4260198 C45.5269464,28.3520395 44.914832,27.1956173 43.7393462,26.8954969 C42.9915024,26.7045662 42.2436586,26.6246406 41.4958148,26.5 M45.5,23.5 L45.5,13.5 L29.5,13.5 L29.5,23.5 L45.5,23.5 Z M37.5,16 L37.5,20 L37.5,16 Z M31.5,13.5 L31.5,10.5 C31.5,7.73857625 33.4187796,5.5 35.7857143,5.5 L39.2142857,5.5 C41.5812204,5.5 43.5,7.73857625 43.5,10.5 L43.5,13.5" stroke="currentColor" stroke-width="1" fill="none" fill-rule="evenodd"/>
</svg>
