<svg width="48" height="48" viewBox="0 0 48 48" version="1.1" xmlns="http://www.w3.org/2000/svg">
    <title>
        valet-parking-large
    </title>
    <g stroke="currentColor" stroke-width="1" fill="none" fill-rule="evenodd">
        <path d="M21.0048748,21.5 C21.766855,21.4987267 22.3250404,21.4989676 22.679431,21.5007226 C25.2894523,21.5136482 27.8075507,21.6897465 29.0069675,22.2037822 C30.0430062,22.6477988 32.0350084,24.2882713 34.9829741,27.1251995 C38.4982721,27.5939059 40.9589808,28.0626123 42.3651,28.5313187 C44.4742788,29.2343783 45.880398,30.6404975 46.2319278,31.6950869 C46.466281,32.3981465 46.5048748,32.984702 46.5048748,34.3908212 L46.5048748,34.742351 C46.5048748,35.7130737 45.7179486,36.5 44.7472258,36.5 L41.5048748,36.5 C41.5048748,38.709139 39.7140138,40.5 37.5048748,40.5 L37.0048748,40.5 C34.7957358,40.5 33.0048748,38.709139 33.0048748,36.5 L15.0048748,36.5 C15.0048748,38.709139 13.2140138,40.5 11.0048748,40.5 L10.5048748,40.5 C8.29573584,40.5 6.50487484,38.709139 6.50487484,36.5 L3.67606988,36.3004166 C2.51686257,36.2164208 1.5834576,35.1594688 1.50906009,34 C1.43466257,32.8405312 1.8334576,30.5 2.155693,29.4260198 C2.4779284,28.3520395 3.09004282,27.1956173 4.26552869,26.8954969 C5.01337249,26.7045662 5.76121629,26.6246406 6.50906009,26.5" transform="matrix(-1 0 0 1 48.005 0)"/>
        <path d="M45.5,23.5 L45.5,13.5 L29.5,13.5 L29.5,23.5 L45.5,23.5 Z M37.5,16 L37.5,20 L37.5,16 Z M31.5,13.5 L31.5,10.5 C31.5,7.73857625 33.4187796,5.5 35.7857143,5.5 L39.2142857,5.5 C41.5812204,5.5 43.5,7.73857625 43.5,10.5 L43.5,13.5"/>
    </g>
</svg>
