<?xml version="1.0" encoding="UTF-8" standalone="no"?>
<svg width="48px" height="48px" viewBox="0 0 48 48" version="1.1" xmlns="http://www.w3.org/2000/svg" xmlns:xlink="http://www.w3.org/1999/xlink">
    <!-- Generator: sketchtool 46.2 (44496) - http://www.bohemiancoding.com/sketch -->
    <title>vehicle-wi-fi-2-large</title>
    <desc>Created with sketchtool.</desc>
    <defs></defs>
    <g id="icons-published" stroke="none" stroke-width="1" fill="none" fill-rule="evenodd">
        <g id="briefing" transform="translate(-576.000000, -2330.000000)"></g>
        <g id="vehicle-wi-fi-2-large" stroke="#000000">
            <path d="M29,23.4 C27.8,22.2 25.9,21.5 24,21.5 C22.1,21.5 20.2,22.1 19,23.4 M13,31.5 L15.4,31.5 M12.8,34.5 C12.8,34.5 13.6,34.7 14.7,35 C15.6,35.3 16,35.5 16.1,36.4 C16.3,37.5 16.7,38 15,37.7 C13.3,37.4 12.5,37 12.5,37 M35,31.5 L32.6,31.5 M35.2,34.5 C35.2,34.5 34.4,34.7 33.3,35 C32.4,35.3 32,35.5 31.9,36.4 C31.7,37.5 31.3,38 33,37.7 C34.7,37.4 35.5,37.1 35.5,37.1" id="Shape"></path>
            <path d="M31.5,43.4 L34.4,43.4 C34.9,43.4 35.5,43 35.5,42.4 L35.5,37.6 C35.5,33.8 34.8,33.4 34.8,33.4 L33.3,32.3 C33.3,32.3 32.5,31.6 31.7,29.9 C31,28.4 29.6,28.5 29.6,28.5 L18.4,28.5 C18.4,28.5 17,28.4 16.3,29.9 C15.5,31.6 14.7,32.4 14.7,32.4 L13.2,33.5 C13.2,33.5 12.5,33.9 12.5,37.7 L12.5,42.5 C12.5,43 13,43.5 13.6,43.5 L16.5,43.5 L16.5,41.5 L31.5,41.5 L31.5,43.4 Z" id="Shape"></path>
            <path d="M20.2,36.5 L27.9,36.5 L29.4,37.5 L27.9,39.5 L20.2,39.5 L18.6,37.5 L20.2,36.5 Z M33.6,32.5 L14.6,32.5 L33.6,32.5 Z" id="Shape"></path>
        </g>
    </g>
</svg>