<svg width="48" height="48" viewBox="0 0 48 48" version="1.1" xmlns="http://www.w3.org/2000/svg">
    <title>
        vehicle-wi-fi-4-large
    </title>
    <path d="M12.5,34.5 L12.5,42.5 C12.5,43.0522847 12.9477153,43.5 13.5,43.5 L15.5,43.5 C16.0522847,43.5 16.5,43.0522847 16.5,42.5 L16.5,41.4545455 L16.5,41.4545455 L31.5,41.5 L31.5,42.5 C31.5,43.0522847 31.9477153,43.5 32.5,43.5 L34.5,43.5 C35.0522847,43.5 35.5,43.0522847 35.5,42.5 L35.5,34.5 L35.5,34.5 L33.5,32.5 C32.8393934,31.2878788 32.3090904,30.3636364 31.9090909,29.7272727 C31.5090915,29.0909091 31.0393945,28.3636364 30.5,27.5454545 C28.3089592,27.3636364 26.1462451,27.2727273 24.0118577,27.2727273 C21.8774704,27.2727273 19.7068511,27.3636364 17.5,27.5454545 C16.9606062,28.3636364 16.4909092,29.0909091 16.0909091,29.7272727 C15.690909,30.3636364 15.1606059,31.2878788 14.5,32.5 L12.5,34.5 Z M18.5,36.5 L19.5,35.5 L28.5,35.5 L29.5,36.5 C28.8636364,38.5 28.3636364,39.5 28,39.5 C27.4545455,39.5 20.5454545,39.5 20,39.5 C19.6363636,39.5 19.1363636,38.5 18.5,36.5 Z M14.5,32.5 L33.5,32.5 M12.5,35.5 L17,35.5 M31,35.5 L35.5,35.5 M41.5,13 C36.7,8.2 30.4,5.5 24,5.5 C17.6,5.5 11.2,8.2 6.5,13 M29,23.4 C27.8,22.2 25.9,21.5 24,21.5 C22.1,21.5 20.2,22.1 19,23.4 M35.5,18 C32.5,14.9 28.2,13.5 24,13.5 C19.8,13.5 15.5,14.9 12.5,18" stroke="currentColor" stroke-width="1" fill="none" fill-rule="evenodd"/>
</svg>
