<svg xmlns="http://www.w3.org/2000/svg" width="48" height="48" viewBox="0 0 48px 48px"><g fill="none" stroke="currentColor" stroke-miterlimit="10"><path d="M10.5 19c-3 1.9-3.9 6-2 9M8 13c-5.5 4.4-6.9 12.6-4 19M13 22.5h2.479M12.8 25.5s.8.2 1.9.5c.9.3 1.3.5 1.4 1.4.2 1.1.6 1.6-1.1 1.3s-2.5-.7-2.5-.7M35 22.5h-2.47M35.2 25.5s-.8.2-1.9.5c-.9.3-1.3.5-1.4 1.4-.2 1.1-.6 1.6 1.1 1.3s2.5-.6 2.5-.6"/><path d="M31.5 32.5v2h2.9c.5 0 1.1-.4 1.1-1v-4.7c0-3.8-.7-4.2-.7-4.2l-1.5-1.1s-.8-.8-1.6-2.5c-.7-1.5-2.1-1.5-2.1-1.5H18.4s-1.4 0-2.1 1.5c-.8 1.7-1.6 2.5-1.6 2.5l-1.5 1.1s-.7.4-.7 4.2v4.7c0 .5.5 1 1.1 1h2.9v-2h15z"/><path d="M20.2 27.5h7.7l1.5 1-1.5 2h-7.7l-1.6-2zM33.316 23.5H14.702M39.5 28c1.9-3 1-7.1-2-9M44 32c2.9-6.4 1.5-14.6-4-19"/></g></svg>