<svg width="24" height="24" viewBox="0 0 24 24" version="1.1" xmlns="http://www.w3.org/2000/svg">
    <title>
        vehicle-signal-small
    </title>
    <path d="M5,10 C3.4,11 2.5,13.4 3.5,15 M3.5,7 C0.5,9.3 -0.2,13.4 1.2,16.8 M20.5,15 C21.5,13.4 20.6,11 19,10 M22.8,16.8 C24.3,13.4 23.5,9.2 20.5,7 M5.5,12.3577075 L5.5,16.75 C5.5,17.1642136 5.83578644,17.5 6.25,17.5 L8,17.5 C8.41421356,17.5 8.75,17.1642136 8.75,16.75 L8.75,16.5 L8.75,16.5 L15.25,16.5 L15.25,16.75 C15.25,17.1642136 15.5857864,17.5 16,17.5 L17.75,17.5 C18.1642136,17.5 18.5,17.1642136 18.5,16.75 L18.5,12.3577075 L18.5,12.3577075 L15.5,8.5 L8.5,8.5 L5.5,12.3577075 Z M5.5,13.5 L8.5,13.5 M15.5,13.5 L18.5,13.5" stroke="currentColor" stroke-width="1" fill="none" fill-rule="evenodd"/>
</svg>
