<svg xmlns="http://www.w3.org/2000/svg" width="48" height="48" viewBox="0 0 48 48"><g fill="none" stroke="currentColor" stroke-miterlimit="10"><path d="M13 31.5h2.4M12.8 34.5s.8.2 1.9.5c.9.3 1.3.5 1.4 1.4.2 1.1.6 1.6-1.1 1.3-1.7-.3-2.5-.7-2.5-.7M35 31.5h-2.374M35.2 34.5s-.8.2-1.9.5c-.9.3-1.3.5-1.4 1.4-.2 1.1-.6 1.6 1.1 1.3 1.7-.3 2.5-.6 2.5-.6"/><path d="M31.5 43.401h2.9c.5 0 1.1-.4 1.1-1v-4.8c0-3.8-.7-4.2-.7-4.2l-1.5-1.1s-.8-.7-1.6-2.4c-.7-1.5-2.1-1.4-2.1-1.4H18.4s-1.4-.1-2.1 1.4c-.8 1.7-1.6 2.5-1.6 2.5l-1.5 1.1s-.7.4-.7 4.2v4.8c0 .5.5 1 1.1 1h2.9v-2h15v1.9z"/><path d="M20.2 36.5h7.7l1.5 1-1.5 2h-7.7l-1.6-2zM33.559 32.5H14.571"/></g></svg>