<svg width="48" height="48" viewBox="0 0 48 48" version="1.1" xmlns="http://www.w3.org/2000/svg">
    <title>
        vehicle-signal-large
    </title>
    <g stroke="currentColor" stroke-width="1" fill="none" fill-rule="evenodd">
        <path d="M10.5,19 C7.5,20.9 6.6,25 8.5,28 M8,13 C2.5,17.4 1.1,25.6 4,32 M13,22.5 L15.5,22.5 M12.8,25.5 C12.8,25.5 13.6,25.7 14.7,26 C15.6,26.3 16,26.5 16.1,27.4 C16.3,28.5 16.7,29 15,28.7 C13.3,28.4 12.5,28 12.5,28 M35,22.5 L32.5,22.5 M35.2,25.5 C35.2,25.5 34.4,25.7 33.3,26 C32.4,26.3 32,26.5 31.9,27.4 C31.7,28.5 31.3,29 33,28.7 C34.7,28.4 35.5,28.1 35.5,28.1"/>
        <path d="M31.5,32.5 L31.5,34.5 L34.4,34.5 C34.9,34.5 35.5,34.1 35.5,33.5 L35.5,28.8 C35.5,25 34.8,24.6 34.8,24.6 L33.3,23.5 C33.3,23.5 32.5,22.7 31.7,21 C31,19.5 29.6,19.5 29.6,19.5 L18.4,19.5 C18.4,19.5 17,19.5 16.3,21 C15.5,22.7 14.7,23.5 14.7,23.5 L13.2,24.6 C13.2,24.6 12.5,25 12.5,28.8 L12.5,33.5 C12.5,34 13,34.5 13.6,34.5 L16.5,34.5 L16.5,32.5 L31.5,32.5 Z"/>
        <path d="M20.2,27.5 L27.9,27.5 L29.4,28.5 L27.9,30.5 L20.2,30.5 L18.6,28.5 L20.2,27.5 Z M33.3,23.5 L14.7,23.5 L33.3,23.5 Z"/>
        <path d="M39.5,28 C41.4,25 40.5,20.9 37.5,19"/>
        <path d="M44,32 C46.9,25.6 45.5,17.4 40,13"/>
    </g>
</svg>
