<svg width="24" height="24" viewBox="0 0 24 24" version="1.1" xmlns="http://www.w3.org/2000/svg">
    <title>
        vehicle-wi-fi-4-small
    </title>
    <g stroke="currentColor" stroke-width="1" fill="none" fill-rule="evenodd">
        <path d="M16.5,13.5 L20.5,17.5 L20.5,22 C20.5,22.4 20.4,23.5 20,23.5 L18,23.5 C17.6,23.5 17.5,22.4 17.5,22 L17.5,21.5 L7.5,21.5 L7.5,22 C7.5,22.4 7.4,23.5 7,23.5 L5,23.5 C4.6,23.5 4.5,22.4 4.5,22 L4.5,17.5 L8.5,13.5 L16.5,13.5 Z"/>
        <path d="M15.2,9.4 C13.9,8 11,8 9.7,9.4"/>
        <path d="M18,6.6 C16.5,5.1 14.4,4.5 12.5,4.5 C10.6,4.5 8.4,5.1 7,6.6"/>
        <path d="M20.6,3.8 C18.4,1.6 15.4,0.5 12.5,0.5 C9.6,0.5 6.6,1.5 4.4,3.8"/>
    </g>
</svg>
