<svg width="24" height="24" viewBox="0 0 24 24" version="1.1" xmlns="http://www.w3.org/2000/svg">
    <title>
        vehicle-signal-small
    </title>
    <path d="M8.5,17.5 L5.9,17.5 C5.6,17.5 5.5,16.6 5.5,16.3 L5.5,12.6 L8.7,9.5 L15.2,9.5 L18.4,12.6 L18.4,16.3 C18.4,16.6 18.3,17.5 18,17.5 L15.4,17.5 L15.4,15.5 L8.4,15.5 C8.4,15.5 8.5,17.5 8.5,17.5 Z M5,10 C3.4,11 2.5,13.4 3.5,15 M3.5,7 C0.5,9.3 -0.2,13.4 1.2,16.8 M20.5,15 C21.5,13.4 20.6,11 19,10 M22.8,16.8 C24.3,13.4 23.5,9.2 20.5,7" stroke="currentColor" stroke-width="1" fill="none" fill-rule="evenodd"/>
</svg>
