<svg width="24" height="24" viewBox="0 0 24 24" version="1.1" xmlns="http://www.w3.org/2000/svg">
    <title>
        velocity-small
    </title>
    <path d="M16.7,6.2 L18.6,4.3 L20.7,6.4 L18.8,8.3 M6.3,6.2 L4.4,4.3 L2.3,6.4 L4.2,8.3 M11.5,22.5 C16.4705627,22.5 20.5,18.4705627 20.5,13.5 C20.5,8.52943725 16.4705627,4.5 11.5,4.5 C6.52943725,4.5 2.5,8.52943725 2.5,13.5 C2.5,18.4705627 6.52943725,22.5 11.5,22.5 Z M11.5,4.5 L11.5,2.5 L11.5,4.5 Z M7.5,0.5 L15.5,0.5 L15.5,2.5 L7.5,2.5 L7.5,0.5 Z M11.5,13.5 L17,15.5 L11.5,13.5 Z" stroke="currentColor" stroke-width="1" fill="none" fill-rule="evenodd"/>
</svg>
