<svg width="24" height="24" viewBox="0 0 24 24" version="1.1" xmlns="http://www.w3.org/2000/svg">
    <title>
        velocity-alert-small
    </title>
    <path d="M23.2,12.5 L11.6,12.5 L17.5,1 L23.2,12.5 Z M5.5,1.5 L13.5,1.5 L13.5,3.5 L5.5,3.5 L5.5,1.5 Z M9.5,5.5 L9.5,4 L9.5,5.5 Z M9.5,14.5 L15,16.5 L9.5,14.5 Z M17.5,5 L17.5,8 M17.5,9 L17.5,11 M11.4,5.7 C6.5,4.6 1.7,7.7 0.7,12.6 C-0.3,17.5 2.7,22.3 7.6,23.3 C12.5,24.3 17.3,21.3 18.3,16.4 C18.4,15.8 18.5,15.1 18.5,14.5 M4.8,6.8 L3,4.7 L0.7,6.7 L2.5,8.8" stroke="currentColor" stroke-width="1" fill="none" fill-rule="evenodd"/>
</svg>
