<?xml version="1.0" encoding="UTF-8"?>
<svg width="48px" height="48px" viewBox="0 0 48 48" version="1.1" xmlns="http://www.w3.org/2000/svg" xmlns:xlink="http://www.w3.org/1999/xlink">
    <!-- Generator: sketchtool 48.1 (47250) - http://www.bohemiancoding.com/sketch -->
    <title>velocity-alert-large</title>
    <desc>Created with sketchtool.</desc>
    <defs></defs>
    <g id="icons-published" stroke="none" stroke-width="1" fill="none" fill-rule="evenodd">
        <g id="briefing" transform="translate(-1440.000000, -2330.000000)"></g>
        <g id="velocity-alert-large" stroke="#000000">
            <path d="M35.5,9 L35.5,15 M35.5,17 L35.5,19" id="Shape" stroke-linejoin="round"></path>
            <polygon id="Shape" points="45.5 21.5 25.5 21.5 35.5 3.5"></polygon>
            <path d="M26.5,10.5 C17.1,7.2 6.8,12.1 3.5,21.5 C0.2,30.9 5.1,41.2 14.5,44.5 C23.9,47.8 34.2,42.9 37.5,33.5 C38.5,30.7 38.8,27.6 38.3,24.6 M23.3,28.5 L31.8,31.6 M18.5,9.6 L18.5,7 M22.5,9.6 L22.5,7" id="Shape"></path>
            <circle id="Oval" cx="20.5" cy="27.5" r="3"></circle>
            <polygon id="Shape" points="13.5 3.5 27.5 3.5 27.5 6.5 13.5 6.5"></polygon>
            <polyline id="Path" points="9.3 13.4 6.4 10.5 3.6 13.3 6.5 16.2"></polyline>
        </g>
    </g>
</svg>