<svg width="48" height="48" viewBox="0 0 48 48" version="1.1" xmlns="http://www.w3.org/2000/svg">
    <title>
        velocity-alert-large
    </title>
    <g stroke="currentColor" stroke-width="1" fill="none" fill-rule="evenodd">
        <path d="M35.5,9 L35.5,15 M35.5,17 L35.5,19" stroke-linejoin="round"/>
        <path d="M45.5 21.5L25.5 21.5 35.5 3.5z"/>
        <path d="M26.5,10.5 C17.1,7.2 6.8,12.1 3.5,21.5 C0.2,30.9 5.1,41.2 14.5,44.5 C23.9,47.8 34.2,42.9 37.5,33.5 C38.5,30.7 38.8,27.6 38.3,24.6 M23.3,28.5 L31.8,31.6 M18.5,9.6 L18.5,7 M22.5,9.6 L22.5,7"/>
        <circle cx="20.5" cy="27.5" r="3"/>
        <path d="M13.5 3.5L27.5 3.5 27.5 6.5 13.5 6.5z"/>
        <path d="M9.3 13.4L6.4 10.5 3.6 13.3 6.5 16.2"/>
    </g>
</svg>
