<svg xmlns="http://www.w3.org/2000/svg" width="48" height="48" viewBox="0 0 48 48"><g fill="none" stroke="currentColor"><path stroke-linejoin="round" d="M35.5 9v6M35.5 17v2"/><path stroke-miterlimit="10" d="M45.5 21.5h-20l10.03-18z"/><path stroke-miterlimit="10" d="M26.51 10.53C17.14 7.21 6.852 12.116 3.533 21.487S5.119 41.145 14.49 44.464s19.657-1.586 22.977-10.957a18 18 0 0 0 .803-8.877M23.32 28.53l8.46 3.07M18.5 9.6V7M22.5 9.6V7"/><circle stroke-miterlimit="10" cx="20.5" cy="27.5" r="3"/><path stroke-miterlimit="10" d="M9.27 13.44l-2.91-2.91-2.83 2.83 2.91 2.91M13.5 3.5h14v3h-14z"/></g></svg>