<svg width="48" height="48" viewBox="0 0 48 48" version="1.1" xmlns="http://www.w3.org/2000/svg">
    <title>
        view-360-large
    </title>
    <g stroke="none" stroke-width="1" fill="none" fill-rule="evenodd">
        <path d="M15.9,28.5 L19.4,33.4 L14.4,36.8 M18.8,33.1 C12.4,32.4 7.7,30.1 7.7,27.4 C7.7,25.7 9.5,24.2 12.5,23.1 M34.4,23.2 C37.3,24.3 39.1,25.8 39.1,27.4 C39.1,30.5 32.9,33 24.9,33.3" stroke="currentColor"/>
        <path d="M13.3301065,19.7999997 C15.3418712,19.7999997 16.5814434,18.9465238 16.5814434,17.7069516 C16.5814434,16.8534757 16.002299,16.1524062 15.026898,15.8374329 C15.7787696,15.5021388 16.2258284,14.912834 16.2258284,14.1609624 C16.2258284,12.9112297 15.098021,12.1999998 13.3301065,12.1999998 C12.4461493,12.1999998 11.5723525,12.3524062 10.9322456,12.6267378 L10.9322456,13.4903741 C11.6637964,13.1957217 12.5782349,13.0737966 13.3301065,13.0737966 C14.3055076,13.0737966 15.1589835,13.4294116 15.1589835,14.2016041 C15.1589835,15.0652404 14.4274327,15.4513367 13.2589835,15.4513367 L12.3750263,15.4513367 L12.3750263,16.2946522 L13.2589835,16.2946522 C14.7322456,16.2946522 15.5145985,16.8433153 15.5145985,17.6663099 C15.5145985,18.499465 14.5493579,18.9058821 13.3504274,18.9058821 C12.2835825,18.9058821 11.4605878,18.712834 10.7899996,18.5096254 L10.7899996,19.3935826 C11.4199461,19.6272724 12.2226199,19.7999997 13.3301065,19.7999997 Z M21.9461492,19.7999997 C19.7616573,19.7999997 18.5525664,18.6315505 18.5525664,16.3352939 C18.5525664,13.6631014 19.9750262,12.1999998 22.6980209,12.1999998 C23.5921385,12.1999998 24.1611224,12.3016041 24.6386625,12.4438501 L24.6386625,13.3481281 C24.0899995,13.2058821 23.5413364,13.0941174 22.7386626,13.0941174 C20.848823,13.0941174 19.7921385,13.8866308 19.6397321,15.6951869 C20.2391974,15.2176468 21.0825129,14.9331549 22.0579139,14.9331549 C24.0290369,14.9331549 25.1263631,15.8882351 25.1263631,17.3716575 C25.1263631,18.6213901 24.1306412,19.7999997 21.9461492,19.7999997 Z M21.9461492,15.7967912 C21.0215503,15.7967912 20.2493578,16.0508019 19.6092508,16.4775399 C19.6702134,18.4486628 20.6659353,18.9871655 21.9461492,18.9871655 C23.2568444,18.9871655 24.0595182,18.4181815 24.0595182,17.3716575 C24.0595182,16.3048126 23.3076465,15.7967912 21.9461492,15.7967912 Z M29.9525662,19.7999997 C27.381978,19.7999997 26.5386625,18.14385 26.5386625,15.9898393 C26.5386625,13.8866308 27.4327802,12.1999998 29.9525662,12.1999998 C32.5231544,12.1999998 33.3664699,13.8561495 33.3664699,16.0101602 C33.3664699,18.1133687 32.4723523,19.7999997 29.9525662,19.7999997 Z M29.9525662,18.9973259 C31.7204806,18.9973259 32.3097854,17.6663099 32.3097854,15.9999998 C32.3097854,14.34385 31.7204806,13.0026736 29.9525662,13.0026736 C28.1846518,13.0026736 27.595347,14.3336896 27.595347,15.9999998 C27.595347,17.6561495 28.1846518,18.9973259 29.9525662,18.9973259 Z M36.6482881,15.7764704 C35.6220849,15.7764704 34.8092507,14.9636361 34.8092507,13.9882351 C34.8092507,13.012834 35.6220849,12.1999998 36.6482881,12.1999998 C37.6744913,12.1999998 38.4873255,13.012834 38.4873255,13.9882351 C38.4873255,14.9636361 37.6744913,15.7764704 36.6482881,15.7764704 Z M36.6482881,15.0449196 C37.217272,15.0449196 37.7049725,14.557219 37.7049725,13.9882351 C37.7049725,13.4192511 37.217272,12.9315506 36.6482881,12.9315506 C36.0793041,12.9315506 35.5916036,13.4192511 35.5916036,13.9882351 C35.5916036,14.557219 36.0793041,15.0449196 36.6482881,15.0449196 Z" fill="currentColor" fill-rule="nonzero"/>
    </g>
</svg>
