<?xml version="1.0" encoding="UTF-8"?>
<svg width="48px" height="48px" viewBox="0 0 48 48" version="1.1" xmlns="http://www.w3.org/2000/svg" xmlns:xlink="http://www.w3.org/1999/xlink">
    <!-- Generator: sketchtool 48.1 (47250) - http://www.bohemiancoding.com/sketch -->
    <title>view-360-large</title>
    <desc>Created with sketchtool.</desc>
    <defs/>
    <g id="icons-published" stroke="none" stroke-width="1" fill="none" fill-rule="evenodd">
        <g id="briefing" transform="translate(-2304.000000, -2330.000000)"/>
        <g id="view-360-large">
            <g id="Group" transform="translate(7.000000, 12.000000)">
                <path d="M11.8,21.1 C5.4,20.4 0.7,18.1 0.7,15.4 C0.7,13.7 2.5,12.2 5.5,11.1 M27.4,11.2 C30.3,12.3 32.1,13.8 32.1,15.4 C32.1,18.5 25.9,21 17.9,21.3" id="Shape" stroke="currentColor"/>
                <polyline id="Shape" stroke="currentColor" points="8.9 16.5 12.4 21.4 7.4 24.8"/>
                <path d="M6.33010654,7.79999971 C8.34187122,7.79999971 9.5814434,6.94652379 9.5814434,5.70695161 C9.5814434,4.85347569 9.00229902,4.15240618 8.02689796,3.83743292 C8.77876961,3.50213881 9.22582843,2.912834 9.22582843,2.16096235 C9.22582843,0.911229747 8.09802095,0.199999809 6.33010654,0.199999809 C5.44614933,0.199999809 4.57235255,0.352406224 3.93224561,0.626737772 L3.93224561,1.49037412 C4.6637964,1.19572172 5.57823489,1.07379659 6.33010654,1.07379659 C7.3055076,1.07379659 8.15898352,1.42941156 8.15898352,2.20160406 C8.15898352,3.06524042 7.42743273,3.45133667 6.25898354,3.45133667 L5.37502634,3.45133667 L5.37502634,4.29465216 L6.25898354,4.29465216 C7.73224556,4.29465216 8.51459849,4.84331526 8.51459849,5.6663099 C8.51459849,6.49946497 7.54935786,6.90588208 6.35042739,6.90588208 C5.28358249,6.90588208 4.46058785,6.71283395 3.78999962,6.5096254 L3.78999962,7.39358261 C4.41994613,7.62727244 5.22261992,7.79999971 6.33010654,7.79999971 Z M14.9461492,7.79999971 C12.7616573,7.79999971 11.5525664,6.63155053 11.5525664,4.33529388 C11.5525664,1.6631014 12.9750262,0.199999809 15.6980209,0.199999809 C16.5921385,0.199999809 17.1611224,0.301604086 17.6386625,0.443850074 L17.6386625,1.34812814 C17.0899995,1.20588215 16.5413364,1.09411745 15.7386626,1.09411745 C13.848823,1.09411745 12.7921385,1.8866308 12.6397321,3.69518693 C13.2391974,3.21764683 14.0825129,2.93315486 15.0579139,2.93315486 C17.0290369,2.93315486 18.1263631,3.88823506 18.1263631,5.3716575 C18.1263631,6.6213901 17.1306412,7.79999971 14.9461492,7.79999971 Z M14.9461492,3.79679121 C14.0215503,3.79679121 13.2493578,4.0508019 12.6092508,4.47753986 C12.6702134,6.44866283 13.6659353,6.9871655 14.9461492,6.9871655 C16.2568444,6.9871655 17.0595182,6.41818155 17.0595182,5.3716575 C17.0595182,4.30481259 16.3076465,3.79679121 14.9461492,3.79679121 Z M22.9525662,7.79999971 C20.381978,7.79999971 19.5386625,6.14385 19.5386625,3.98983933 C19.5386625,1.8866308 20.4327802,0.199999809 22.9525662,0.199999809 C25.5231544,0.199999809 26.3664699,1.85614952 26.3664699,4.01016019 C26.3664699,6.11336872 25.4723523,7.79999971 22.9525662,7.79999971 Z M22.9525662,6.99732593 C24.7204806,6.99732593 25.3097854,5.6663099 25.3097854,3.99999976 C25.3097854,2.34385005 24.7204806,1.0026736 22.9525662,1.0026736 C21.1846518,1.0026736 20.595347,2.33368962 20.595347,3.99999976 C20.595347,5.65614947 21.1846518,6.99732593 22.9525662,6.99732593 Z M29.6482881,3.77647035 C28.6220849,3.77647035 27.8092507,2.96363614 27.8092507,1.98823508 C27.8092507,1.01283402 28.6220849,0.199999809 29.6482881,0.199999809 C30.6744913,0.199999809 31.4873255,1.01283402 31.4873255,1.98823508 C31.4873255,2.96363614 30.6744913,3.77647035 29.6482881,3.77647035 Z M29.6482881,3.04491956 C30.217272,3.04491956 30.7049725,2.55721903 30.7049725,1.98823508 C30.7049725,1.41925113 30.217272,0.931550602 29.6482881,0.931550602 C29.0793041,0.931550602 28.5916036,1.41925113 28.5916036,1.98823508 C28.5916036,2.55721903 29.0793041,3.04491956 29.6482881,3.04491956 Z" id="360&#xB0;" fill="currentColor"/>
            </g>
        </g>
    </g>
</svg>