<svg xmlns="http://www.w3.org/2000/svg" width="48" height="48" viewBox="0 0 48 48"><g fill="none" stroke="currentColor" stroke-miterlimit="10"><path d="M18.768 33.12C12.358 32.376 7.7 30.126 7.7 27.465c0-1.67 1.835-3.178 4.785-4.253m21.908.032c2.9 1.074 4.697 2.568 4.697 4.221 0 3.08-6.246 5.612-14.225 5.891"/><path d="M15.88 28.523l3.482 4.859-5.014 3.406"/></g><path d="M34.605 13.981a1.81 1.81 0 1 1 1.81 1.794 1.803 1.803 0 0 1-1.81-1.794zm2.848 0a1.04 1.04 0 1 0-1.039 1.06 1.07 1.07 0 0 0 1.04-1.06zm-26.688 5.424v-.887a8.212 8.212 0 0 0 2.518.397c1.179 0 2.13-.407 2.13-1.243 0-.826-.77-1.377-2.22-1.377h-.87v-.846h.87c1.15 0 1.87-.387 1.87-1.254 0-.775-.84-1.131-1.8-1.131a6.542 6.542 0 0 0-2.359.417v-.867a6.152 6.152 0 0 1 2.358-.427c1.74 0 2.85.713 2.85 1.968a1.82 1.82 0 0 1-1.18 1.681 1.999 1.999 0 0 1 1.528 1.877c0 1.243-1.218 2.1-3.198 2.1a6.887 6.887 0 0 1-2.497-.408zm7.639-3.069c0-2.682 1.4-4.149 4.078-4.149a6.279 6.279 0 0 1 1.91.244v.908a6.763 6.763 0 0 0-1.87-.255c-1.859 0-2.898.795-3.048 2.61a3.75 3.75 0 0 1 2.379-.765c1.94 0 3.018.959 3.018 2.447 0 1.254-.98 2.437-3.128 2.437s-3.339-1.173-3.339-3.477zm1.04.143c.06 1.978 1.04 2.518 2.3 2.518 1.288 0 2.077-.57 2.077-1.62 0-1.072-.74-1.582-2.078-1.582a3.99 3.99 0 0 0-2.299.684zm6.821-.489c0-2.111.88-3.803 3.358-3.803 2.528 0 3.357 1.662 3.357 3.823 0 2.111-.878 3.803-3.357 3.803-2.53 0-3.358-1.662-3.358-3.823zm5.676.01c0-1.662-.579-3.008-2.318-3.008s-2.32 1.336-2.32 3.008c0 1.662.58 3.008 2.32 3.008s2.318-1.336 2.318-3.008z"/></svg>