<svg xmlns="http://www.w3.org/2000/svg" width="24" height="24" viewBox="0 0 24 24"><g fill="none" stroke="currentColor" stroke-miterlimit="10"><path d="M8.905 19.12C4.617 18.622 1.5 17.116 1.5 15.336c0-1.117 1.227-2.125 3.201-2.845M19.358 12.512c1.94.719 3.142 1.719 3.142 2.824 0 2.061-4.179 3.754-9.517 3.941"/><path d="M6.858 16.125l2.33 3.25-3.355 2.279"/></g><path d="M3 10.661v-.696a6.699 6.699 0 0 0 2.016.312c.943 0 1.703-.32 1.703-.975 0-.648-.617-1.08-1.776-1.08h-.695V7.56h.695c.92 0 1.496-.304 1.496-.984 0-.607-.672-.887-1.44-.887a5.32 5.32 0 0 0-1.887.328v-.68A5.005 5.005 0 0 1 5 5c1.392 0 2.28.56 2.28 1.543a1.43 1.43 0 0 1-.944 1.32 1.574 1.574 0 0 1 1.223 1.471c0 .975-.976 1.647-2.559 1.647A5.637 5.637 0 0 1 3 10.66zM9 8.254A2.92 2.92 0 0 1 12.262 5a5.13 5.13 0 0 1 1.527.191v.712a5.52 5.52 0 0 0-1.495-.2c-1.487 0-2.319.624-2.439 2.047a3.042 3.042 0 0 1 1.903-.6c1.552 0 2.415.752 2.415 1.92 0 .983-.784 1.91-2.503 1.91A2.414 2.414 0 0 1 9 8.254zm.831.112c.048 1.551.832 1.975 1.839 1.975 1.031 0 1.663-.447 1.663-1.272 0-.839-.592-1.239-1.663-1.239a3.241 3.241 0 0 0-1.839.536zM15.4 7.982C15.4 6.327 16.104 5 18.087 5c2.022 0 2.686 1.304 2.686 2.998 0 1.655-.704 2.982-2.687 2.982-2.022 0-2.686-1.302-2.686-2.998zm4.542.008c0-1.303-.464-2.358-1.855-2.358S16.23 6.679 16.23 7.99c0 1.304.464 2.358 1.856 2.358s1.855-1.046 1.855-2.358z"/></svg>