<svg width="24" height="24" viewBox="0 0 24 24" version="1.1" xmlns="http://www.w3.org/2000/svg">
    <title>
        view-360-small
    </title>
    <g stroke="none" stroke-width="1" fill="none" fill-rule="evenodd">
        <path d="M8.9,19.1 C4.6,18.6 1.5,17.1 1.5,15.3 C1.5,14.2 2.7,13.2 4.7,12.5 M19.4,12.5 C21.3,13.2 22.5,14.2 22.5,15.3 C22.5,17.4 18.3,19.1 13,19.2 M6.9,16.1 L9.2,19.3 L5.8,21.6" stroke="currentColor"/>
        <path d="M5,10.984 C6.584,10.984 7.56,10.312 7.56,9.336 C7.56,8.664 7.104,8.112 6.336,7.864 C6.928,7.6 7.28,7.136 7.28,6.544 C7.28,5.56 6.392,5 5,5 C4.304,5 3.616,5.12 3.112,5.336 L3.112,6.016 C3.688,5.784 4.408,5.688 5,5.688 C5.768,5.688 6.44,5.968 6.44,6.576 C6.44,7.256 5.864,7.56 4.944,7.56 L4.248,7.56 L4.248,8.224 L4.944,8.224 C6.104,8.224 6.72,8.656 6.72,9.304 C6.72,9.96 5.96,10.28 5.016,10.28 C4.176,10.28 3.528,10.128 3,9.968 L3,10.664 C3.496,10.848 4.128,10.984 5,10.984 Z M11.784,10.984 C10.064,10.984 9.112,10.064 9.112,8.256 C9.112,6.152 10.232,5 12.376,5 C13.08,5 13.528,5.08 13.904,5.192 L13.904,5.904 C13.472,5.792 13.04,5.704 12.408,5.704 C10.92,5.704 10.088,6.328 9.968,7.752 C10.44,7.376 11.104,7.152 11.872,7.152 C13.424,7.152 14.288,7.904 14.288,9.072 C14.288,10.056 13.504,10.984 11.784,10.984 Z M11.784,7.832 C11.056,7.832 10.448,8.032 9.944,8.368 C9.992,9.92 10.776,10.344 11.784,10.344 C12.816,10.344 13.448,9.896 13.448,9.072 C13.448,8.232 12.856,7.832 11.784,7.832 Z M18.4880002,5 C20.5120002,5 21.1760002,6.304 21.1760002,8 C21.1760002,9.656 20.4720002,10.984 18.4880002,10.984 C16.4640002,10.984 15.8000002,9.68 15.8000002,7.984 C15.8000002,6.328 16.5040002,5 18.4880002,5 Z M18.4880002,5.632 C17.0960002,5.632 16.6320002,6.68 16.6320002,7.992 C16.6320002,9.296 17.0960002,10.352 18.4880002,10.352 C19.8800002,10.352 20.3440002,9.304 20.3440002,7.992 C20.3440002,6.688 19.8800002,5.632 18.4880002,5.632 Z" fill="currentColor" fill-rule="nonzero"/>
    </g>
</svg>
