<?xml version="1.0" encoding="UTF-8"?>
<svg width="48px" height="48px" viewBox="0 0 48 48" version="1.1" xmlns="http://www.w3.org/2000/svg" xmlns:xlink="http://www.w3.org/1999/xlink">
    <!-- Generator: sketchtool 48.1 (47250) - http://www.bohemiancoding.com/sketch -->
    <title>vimeo-large</title>
    <desc>Created with sketchtool.</desc>
    <defs></defs>
    <g id="icons-published" stroke="none" stroke-width="1" fill="none" fill-rule="evenodd">
        <g id="briefing" transform="translate(-2592.000000, -2330.000000)"></g>
        <g id="vimeo-large" fill="#000000" fill-rule="nonzero">
            <path d="M36.6,17.8 C36.5,20.4 34.7,23.9 31.2,28.4 C27.6,33.1 24.5,35.4 22,35.4 C20.4,35.4 19.1,34 18.1,31.1 L16,23.2 C15.2,20.3 14.4,18.9 13.4,18.9 C12.6,19.2 11.9,19.6 11.3,20.2 L10,18.7 C11.3,17.5 12.6,16.4 13.9,15.2 C15.6,13.7 17,12.9 17.8,12.8 C19.9,12.6 21.1,14 21.6,17 C22.1,20.3 22.5,22.3 22.7,23.1 C23.3,25.8 24,27.2 24.7,27.2 C25.3,27.2 26.1,26.3 27.2,24.6 C28.1,23.4 28.7,22 29,20.6 C29.2,19.1 28.6,18.3 27.2,18.3 C26.5,18.3 25.9,18.5 25.2,18.7 C26.5,14.4 29,12.3 32.7,12.5 C35.4,12.6 36.7,14.4 36.6,17.8 Z" id="Shape"></path>
        </g>
    </g>
</svg>