<svg width="48" height="48" viewBox="0 0 48 48" version="1.1" xmlns="http://www.w3.org/2000/svg">
    <title>
        vimeo-large
    </title>
    <path d="M36.6,17.3130517 C36.5,19.9130517 34.7,23.4130517 31.2,27.9130517 C27.6,32.6130517 24.5,34.9130517 22,34.9130517 C20.4,34.9130517 19.1,33.5130517 18.1,30.6130517 L16,22.7130517 C15.2,19.8130517 14.4,18.4130517 13.4,18.4130517 C12.6,18.7130517 11.9,19.1130517 11.3,19.7130517 L10,18.2130517 C11.3,17.0130517 12.6,15.9130517 13.9,14.7130517 C15.6,13.2130517 17,12.4130517 17.8,12.3130517 C19.9,12.1130517 21.1,13.5130517 21.6,16.5130517 C22.1,19.8130517 22.5,21.8130517 22.7,22.6130517 C23.3,25.3130517 24,26.7130517 24.7,26.7130517 C25.3,26.7130517 26.1,25.8130517 27.2,24.1130517 C28.1,22.9130517 28.7,21.5130517 29,20.1130517 C29.2,18.6130517 28.6,17.8130517 27.2,17.8130517 C26.5,17.8130517 25.9,18.0130517 25.2,18.2130517 C26.5,13.9130517 29,11.8130517 32.7,12.0130517 C35.4,12.1130517 36.7,13.9130517 36.6,17.3130517 L36.6,17.3130517 Z" fill="currentColor" fill-rule="nonzero" stroke="none" stroke-width="1"/>
</svg>
