<svg xmlns="http://www.w3.org/2000/svg" width="24" height="24" viewBox="0 0 24 24"><path d="M17.994 8.98q-.087 1.897-2.652 5.196-2.65 3.445-4.485 3.446-1.137 0-1.924-2.099l-1.049-3.847Q7.301 9.58 6.632 9.578a4.022 4.022 0 0 0-1.02.612L5 9.402q.962-.845 1.897-1.691a4.303 4.303 0 0 1 1.927-1.168q1.517-.145 1.867 2.075.38 2.395.526 2.979.438 1.987.963 1.987a2.456 2.456 0 0 0 1.226-1.29 5.079 5.079 0 0 0 .875-1.963.837.837 0 0 0-.875-1.113 2.437 2.437 0 0 0-.962.213q.958-3.139 3.661-3.05 2.004.058 1.889 2.598z" fill="currentColor"/></svg>