<svg width="24" height="24" viewBox="0 0 24 24" version="1.1" xmlns="http://www.w3.org/2000/svg">
    <title>
        vimeo-small
    </title>
    <path d="M17.9973824,8.85066736 C17.94852,10.0988643 17.0689979,11.7791293 15.358816,13.9394701 C13.5997718,16.195826 12.0850393,17.3000002 10.8634808,17.3000002 C10.0816833,17.3000002 9.44647292,16.6278942 8.95784952,15.2356746 L7.93174039,11.4430763 C7.54084167,10.0508567 7.14994295,9.37875066 6.66131955,9.37875066 C6.27042083,9.52277338 5.92838446,9.71480367 5.63521042,10.0028491 L5,9.28273552 C5.63521042,8.70664464 6.27042083,8.17856134 6.90563125,7.60247047 C7.73629103,6.88235687 8.42036378,6.49829629 8.8112625,6.45028872 C9.83737164,6.35427357 10.4237197,7.02637959 10.6680314,8.46660678 C10.9123431,10.0508567 11.1077925,11.0110081 11.2055171,11.3950687 C11.4986912,12.6912732 11.8407276,13.3633792 12.1827639,13.3633792 C12.475938,13.3633792 12.8668367,12.9313111 13.4043224,12.1151823 C13.8440835,11.5390914 14.1372575,10.8669854 14.2838446,10.1948794 C14.3815692,9.47476581 14.0883952,9.09070523 13.4043224,9.09070523 C13.0622861,9.09070523 12.769112,9.18672037 12.4270756,9.28273552 C13.0622861,7.21840988 14.2838446,6.21025085 16.0917511,6.306266 C17.4110343,6.35427357 18.0462447,7.21840988 17.9973824,8.85066736 L17.9973824,8.85066736 Z" fill="currentColor" fill-rule="nonzero" stroke="none" stroke-width="1"/>
</svg>
