<svg xmlns="http://www.w3.org/2000/svg" width="48" height="48" viewBox="0 0 48 48"><path d="M36.568 17.824q-.178 3.88-5.421 10.626-5.42 7.044-9.172 7.045-2.325 0-3.933-4.29l-2.145-7.867q-1.193-4.289-2.56-4.29a8.224 8.224 0 0 0-2.087 1.251L10 18.69q1.968-1.729 3.879-3.459 2.624-2.267 3.94-2.387 3.101-.298 3.818 4.242.775 4.898 1.075 6.09.895 4.065 1.97 4.063.834 0 2.506-2.636a10.384 10.384 0 0 0 1.79-4.013q.238-2.275-1.79-2.277a4.983 4.983 0 0 0-1.967.436q1.96-6.417 7.486-6.238 4.096.12 3.861 5.314z"/></svg>