<?xml version="1.0" encoding="UTF-8"?>
<svg width="48px" height="48px" viewBox="0 0 48 48" version="1.1" xmlns="http://www.w3.org/2000/svg" xmlns:xlink="http://www.w3.org/1999/xlink">
    <!-- Generator: sketchtool 48.1 (47250) - http://www.bohemiancoding.com/sketch -->
    <title>voice-call-large</title>
    <desc>Created with sketchtool.</desc>
    <defs/>
    <g id="icons-published" stroke="none" stroke-width="1" fill="none" fill-rule="evenodd">
        <g id="briefing" transform="translate(-3744.000000, -2330.000000)"/>
        <g id="voice-call-large" fill="currentColor" fill-rule="nonzero">
            <path d="M15.4379266,18.7773788 C16.3841215,20.3246471 18.3462272,22.6391204 21.5535534,25.8464466 L22.5535534,26.8464466 C25.6803023,29.9731956 28.0355087,31.8585776 29.7120644,32.7310478 C30.7810867,33.2873611 31.3619224,33.3444867 31.5969058,33.2011327 C31.6001858,33.1991317 31.6304347,33.1686093 31.6876525,33.1095656 L34.1464466,31.1464466 C34.8417088,30.4511845 36.1582912,30.4511845 36.8535534,31.1464466 L41.8535534,36.1464466 C42.5488155,36.8417088 42.5488155,38.1582912 41.8655276,38.8411591 L34.597148,46.6287087 L34.2544935,46.4355761 C28.8801207,43.4063842 23.9386406,39.8264761 19.4209962,35.809506 C14.2418144,31.2043144 9.8793102,26.2705156 6.30686301,21.3356515 C5.055652,19.6072687 3.9922326,18.001552 3.11332962,16.5593768 C2.80507014,16.0535597 2.54173259,15.6039794 2.32291067,15.2157441 C2.19070844,14.98119 2.10221935,14.8182116 2.05703885,14.7319168 L1.87437819,14.383035 L2.1707477,14.1237117 L10.1464466,7.14644661 C10.8417088,6.45118446 12.1582912,6.45118446 12.8535534,7.14644661 L16.8535534,11.1464466 C17.5315261,11.8244194 17.5483856,13.0931954 16.9041318,13.8005517 L14.8462643,17.4018196 C14.9121528,17.7980277 15.0948523,18.2163652 15.4379266,18.7773788 Z M41.1464466,38.1464466 C41.4511845,37.8417088 41.4511845,37.1582912 41.1464466,36.8535534 L36.1464466,31.8535534 C35.8417088,31.5488155 35.1582912,31.5488155 34.8123475,31.8904344 L32.3603246,33.8520528 C32.301202,33.9216418 32.2211563,33.9917004 32.1177025,34.0548135 C30.7024173,34.9182226 27.592984,33.3000908 21.8464466,27.5535534 L20.8464466,26.5535534 C14.9457281,20.6528349 13.2303541,17.8477635 14.0170359,16.7742931 C14.0487047,16.7310794 14.0825692,16.6935399 14.1176835,16.6612716 L16.0658784,13.2519305 L16.1464466,13.1464466 C16.4511845,12.8417088 16.4511845,12.1582912 16.1464466,11.8535534 L12.1464466,7.85355339 C11.8417088,7.54881554 11.1582912,7.54881554 10.8292523,7.87628835 L3.13096551,14.6122893 C3.15065031,14.6475329 3.17168258,14.6850237 3.19406444,14.7247338 C3.40737587,15.1031923 3.66497568,15.5429769 3.96725003,16.0389732 C4.83272939,17.4591218 5.88158757,19.0428517 7.11688896,20.7492574 C10.6487629,25.628075 14.9635941,30.5079578 20.0854789,35.0622024 C24.4554555,38.9478702 29.2254977,42.4190566 34.4035279,45.3705838 L41.1464466,38.1464466 Z" id="Shape"/>
            <path d="M26,2 C37.0238576,2 46,10.9761424 46,22 L47,22 C47,10.4238576 37.5761424,1 26,1 L26,2 Z M26,12 C31.5238576,12 36,16.4761424 36,22 L37,22 C37,15.9238576 32.0761424,11 26,11 L26,12 Z" id="Shape"/>
        </g>
    </g>
</svg>