<svg width="24" height="24" viewBox="0 0 24 24" version="1.1" xmlns="http://www.w3.org/2000/svg">
    <title>
        walk-small
    </title>
    <path d="M14.5,2.5 C14.5,3.1 14.1,3.5 13.5,3.5 L12.5,3.5 C12,3.5 11.5,3 11.5,2.5 L11.5,1.5 C11.5,0.9 11.9,0.5 12.5,0.5 L13.5,0.5 C14,0.5 14.5,1 14.5,1.5 L14.5,2.5 Z M8,13.5 L5.5,13.5 L7.5,8 L9.3,5.8 C9.5,5.6 9.8,5.5 10,5.5 L12.5,5.5 L16,10 L17.5,10.5 L17.5,12.5 L15,12 L12.5,9 L11.3,13.4 L17.5,23.5 L14.5,23.5 L8,13.5 L9.5,9 L8,13.5 Z M9,15.1 L5,23.5 L8,23.5 L10.8,17.7" stroke="currentColor" stroke-width="1" fill="none" fill-rule="evenodd"/>
</svg>
