<svg width="48" height="48" viewBox="0 0 48 48" version="1.1" xmlns="http://www.w3.org/2000/svg">
    <title>
        walk-large
    </title>
    <path d="M30.5,7.5 C30.5,8.6 29.6,9.5 28.5,9.5 L26.5,9.5 C25.4,9.5 24.5,8.6 24.5,7.5 L24.5,5.5 C24.5,4.4 25.4,3.5 26.5,3.5 L28.5,3.5 C29.6,3.5 30.5,4.4 30.5,5.5 L30.5,7.5 Z M19.5,26.5 L15.5,26.5 L18.5,16.5 L21.6,13.4 C22.2,12.8 22.9,12.5 23.7,12.5 L27.5,12.5 L33.5,19.5 L36.5,20.5 L36.5,24.5 L31.5,23.5 L27.5,18.5 L25.5,26.5 L36.5,44.5 L31.5,44.5 L19.5,26.5 L22,18 L19.5,26.5 Z M19.5,26.5 L19.5,33.5 L14.5,44.5 L19.5,44.5 L24.5,34" stroke="currentColor" stroke-width="1" fill="none" fill-rule="evenodd"/>
</svg>
