<?xml version="1.0" encoding="UTF-8" standalone="no"?>
<svg width="24px" height="24px" viewBox="0 0 24 24" version="1.1" xmlns="http://www.w3.org/2000/svg" xmlns:xlink="http://www.w3.org/1999/xlink">
    <!-- Generator: sketchtool 46.2 (44496) - http://www.bohemiancoding.com/sketch -->
    <title>walk-small</title>
    <desc>Created with sketchtool.</desc>
    <defs></defs>
    <g id="icons-published" stroke="none" stroke-width="1" fill="none" fill-rule="evenodd">
        <g id="briefing" transform="translate(-68.000000, -2458.000000)"></g>
        <g id="walk-small" stroke="#000000">
            <path d="M14.5,2.5 C14.5,3.1 14.1,3.5 13.5,3.5 L12.5,3.5 C12,3.5 11.5,3 11.5,2.5 L11.5,1.5 C11.5,0.9 11.9,0.5 12.5,0.5 L13.5,0.5 C14,0.5 14.5,1 14.5,1.5 L14.5,2.5 Z M8,13.5 L5.5,13.5 L7.5,8 L9.3,5.8 C9.5,5.6 9.8,5.5 10,5.5 L12.5,5.5 L16,10 L17.5,10.5 L17.5,12.5 L15,12 L12.5,9 L11.3,13.4 L17.5,23.5 L14.5,23.5 L8,13.5 L9.5,9 L8,13.5 Z" id="Shape"></path>
            <polyline id="Shape" points="9 15.1 5 23.5 8 23.5 10.8 17.7"></polyline>
        </g>
    </g>
</svg>