<svg width="48" height="48" viewBox="0 0 48 48" version="1.1" xmlns="http://www.w3.org/2000/svg">
    <title>
        wallbox-large
    </title>
    <path d="M16,31.5 L16,33.5 C16,35.709139 14.209139,37.5 12,37.5 L8,37.5 L8,37.5 C6.06700338,37.5 4.5,39.0670034 4.5,41 C4.5,42.9329966 6.06700338,44.5 8,44.5 L36.5,44.5 C38.709139,44.5 40.5,42.709139 40.5,40.5 L40.5,21.5 L40.5,21.5 M46.5,9.5 L46.5,15.5 C46.5,18.8137085 43.8137085,21.5 40.5,21.5 C37.1862915,21.5 34.5,18.8137085 34.5,15.5 L34.5,9.5 L34.5,9.5 L46.5,9.5 Z M37.5,9.5 L37.5,4.5 M43.5,9.5 L43.5,4.5 M9.5,3.5 L22.5,3.5 C24.709139,3.5 26.5,5.290861 26.5,7.5 L26.5,27.5 C26.5,29.709139 24.709139,31.5 22.5,31.5 L9.5,31.5 C7.290861,31.5 5.5,29.709139 5.5,27.5 L5.5,7.5 C5.5,5.290861 7.290861,3.5 9.5,3.5 Z M24,9.5 L8,9.5 M21.4,22.5 C22.7807119,22.5 23.9,21.3807119 23.9,20 C23.9,18.6192881 22.7807119,17.5 21.4,17.5 C20.0192881,17.5 18.9,18.6192881 18.9,20 C18.9,21.3807119 20.0192881,22.5 21.4,22.5 Z M10.6,22.5 C11.9807119,22.5 13.1,21.3807119 13.1,20 C13.1,18.6192881 11.9807119,17.5 10.6,17.5 C9.21928813,17.5 8.1,18.6192881 8.1,20 C8.1,21.3807119 9.21928813,22.5 10.6,22.5 Z M14.2,22.5 C15.5807119,22.5 16.7,21.3807119 16.7,20 C16.7,18.6192881 15.5807119,17.5 14.2,17.5 C12.8192881,17.5 11.7,18.6192881 11.7,20 C11.7,21.3807119 12.8192881,22.5 14.2,22.5 Z M17.8,22.5 C19.1807119,22.5 20.3,21.3807119 20.3,20 C20.3,18.6192881 19.1807119,17.5 17.8,17.5 C16.4192881,17.5 15.3,18.6192881 15.3,20 C15.3,21.3807119 16.4192881,22.5 17.8,22.5 Z" stroke="currentColor" stroke-width="1" fill="none" fill-rule="evenodd"/>
</svg>
