<svg width="24" height="24" viewBox="0 0 24 24" version="1.1" xmlns="http://www.w3.org/2000/svg">
    <title>
        wallbox-small
    </title>
    <path d="M22.5,4.5 L22.5,7.5 C22.5,9.15685425 21.1568542,10.5 19.5,10.5 C17.8431458,10.5 16.5,9.15685425 16.5,7.5 L16.5,4.5 L16.5,4.5 L22.5,4.5 Z M17.5,4.5 L17.5,1 M21.5,4.5 L21.5,1 M19.5,10.5 L19.5,20.5 C19.5,21.6045695 18.6045695,22.5 17.5,22.5 L4,22.5 L4,22.5 C2.8954305,22.5 2,21.6045695 2,20.5 C2,19.3954305 2.8954305,18.5 4,18.5 L5.5,18.5 C6.6045695,18.5 7.5,17.6045695 7.5,16.5 L7.5,14.5 L7.5,14.5 M4.5,1.5 L10.5,1.5 C11.6045695,1.5 12.5,2.3954305 12.5,3.5 L12.5,12.5 C12.5,13.6045695 11.6045695,14.5 10.5,14.5 L4.5,14.5 C3.3954305,14.5 2.5,13.6045695 2.5,12.5 L2.5,3.5 C2.5,2.3954305 3.3954305,1.5 4.5,1.5 Z M5,4.5 L10,4.5" stroke="currentColor" stroke-width="1" fill="none" fill-rule="evenodd"/>
</svg>
