<svg width="48" height="48" viewBox="0 0 48 48" version="1.1" xmlns="http://www.w3.org/2000/svg">
    <title>
        warranty-large
    </title>
    <path d="M37.2998972,41.2875763 L32.0052417,39.1647463 L28.6485419,43.7683125 L25.1170895,31.4526746 C28.3426584,31.1781583 31.2323345,29.7258581 33.3542884,27.5276033 L37.2998972,41.2875763 Z M22.8829105,31.4526746 L19.3514581,43.7683125 L15.9862642,39.1623107 L10.7001028,41.2875763 L14.6457116,27.5276033 M24,31.5 C31.1797017,31.5 37,25.6797017 37,18.5 C37,11.3202983 31.1797017,5.5 24,5.5 C16.8202983,5.5 11,11.3202983 11,18.5 C11,25.6797017 16.8202983,31.5 24,31.5 Z M18,19.6 L22.3,23.8 L30.4,13.5" stroke="currentColor" stroke-width="1" fill="none" fill-rule="evenodd"/>
</svg>
