<svg xmlns="http://www.w3.org/2000/svg" width="24" height="24" viewBox="0 0 24 24"><g fill="none" stroke="currentColor" stroke-miterlimit="10"><path d="M19.845 20.457L16.726 12.8M14.923 17.151l1.803-4.351 4.351 1.802"/></g><path d="M16.082 7.006h1.228l1.085 2.701.995-2.701h1.288l1.017 2.701 1.1-2.701H24l-1.683 3.838h-1.265l-1.026-2.626-.987 2.626h-1.272zM8.041 7.006H9.27l1.084 2.701.996-2.701h1.288l1.017 2.701 1.1-2.701h1.205l-1.684 3.838H13.01l-1.025-2.626-.987 2.626H9.726zM0 7.006h1.228l1.084 2.701.996-2.701h1.288l1.017 2.701 1.1-2.701h1.205l-1.684 3.838H4.97L3.944 8.218l-.987 2.626H1.685z"/></svg>