<svg xmlns="http://www.w3.org/2000/svg" width="48" height="48" viewBox="0 0 48 48"><path d="M35.554 38.748L31.5 28.961m-2.493 5.388l2.398-5.788 5.788 2.397" fill="none" stroke="currentColor" stroke-miterlimit="10"/><path d="M31.294 19h1.475l2.447 5.58L37.525 19h1.257l2.35 5.567L43.553 19H45l-3.28 7h-1.256l-2.337-5.567L35.83 26h-1.257zm-14.146 0h1.475l2.447 5.58L23.379 19h1.257l2.35 5.567L29.407 19h1.448l-3.28 7h-1.256l-2.338-5.567L21.684 26h-1.257zM3 19h1.476l2.447 5.58L9.232 19h1.257l2.351 5.567L15.258 19h1.449l-3.28 7h-1.256l-2.338-5.567L7.537 26H6.28z"/></svg>