<svg width="48" height="48" viewBox="0 0 48 48" version="1.1" xmlns="http://www.w3.org/2000/svg">
    <title>
        wechat-large
    </title>
    <g fill="currentColor" fill-rule="nonzero" stroke="none" stroke-width="1">
        <path d="M19.1,26 C19.5,23.9 20.6,22 22.2,20.6 C24.6,18.5 27.6,17.4 30.8,17.4 C30.9,17.4 30.9,17.4 31,17.4 C29.3,12 22.8,9.3 17.5,9.9 C13.8,10.2 10.5,12.2 8.4,15.3 C6.5,18.4 6.7,22.4 8.9,25.3 C9.6,26.3 10.5,27.1 11.5,27.8 C11.9,28.1 12,28.1 11.8,28.6 L11.6,29.2 L10.8,31.7 L13.8,30.2 L14.6,29.8 C15,29.6 15.4,29.6 15.8,29.7 C17.1,30 18.4,30.1 19.8,30.1 C19,28.9 18.9,27.4 19.1,26 Z M23.6,14.8 C24.5,14.8 25.2,15.5 25.2,16.4 C25.2,17.3 24.5,18 23.6,18 C22.6,18.1 21.7,17.3 21.6,16.4 C21.7,15.4 22.6,14.7 23.6,14.8 Z M15.1,18.1 C14.1,18.2 13.2,17.4 13.1,16.5 C13.2,15.5 14.1,14.8 15.1,14.9 C16,14.9 16.7,15.6 16.7,16.5 C16.8,17.3 16,18.1 15.1,18.1 Z"/>
        <path d="M40.6,25.2 C38.2,18.3 28.5,16.9 23.5,21.7 C22.2,22.9 21.3,24.4 21,26.1 C20.4,28.9 21.3,31.8 23.4,33.7 C26.3,36.1 30.3,37 34,35.9 C35.1,35.6 36.8,37.1 37.8,37.6 L37.4,36.2 C37.2,35.8 37.1,35.3 37,34.8 C37,34.4 37.6,34.1 38,33.8 C38.4,33.4 38.8,33 39.2,32.6 C39.8,31.9 40.4,31 40.7,30.1 C41.1,28.4 41.1,26.7 40.6,25.2 Z M28,26.1 C26,26.7 25.4,23.5 27.4,23.5 C29.1,23.5 29.8,25.6 28,26.1 Z M34.6,26.1 C32.6,26.7 32.1,23.5 34,23.5 C35.7,23.5 36.4,25.6 34.6,26.1 Z"/>
    </g>
</svg>
