<svg id="wechat-small" xmlns="http://www.w3.org/2000/svg" width="24" height="24" viewBox="0 0 24 24">
  <title>wechat</title>
  <g class="audiicon-group audiicon-group--small">
    <path d="M9.3219,13.3868a5.458,5.458,0,0,1,1.6531-2.9075,7.0239,7.0239,0,0,1,4.7865-1.7872c.0373,0,.0737.0032.1109.0038C14.8958,5.67,11.301,4.1613,8.3056,4.5043a6.8117,6.8117,0,0,0-5.0738,3.04,4.984,4.984,0,0,0,.2546,5.577,7.08,7.08,0,0,0,1.4355,1.4122c.2447.1841.2621.1765.1735.4428l-.1154.3471q-.2365.7111-.4729,1.4223L6.1743,15.91l.43-.2154a.7808.7808,0,0,1,.6543-.0478,10.0534,10.0534,0,0,0,2.2144.2407A5.0828,5.0828,0,0,1,9.3219,13.3868Zm2.4367-6.2314a1,1,0,0,1,0,2A1.1323,1.1323,0,0,1,10.557,8.1536,1.128,1.128,0,0,1,11.7586,7.1554Zm-4.7045,2.05A1.1915,1.1915,0,0,1,5.7887,8.1535,1.1889,1.1889,0,0,1,7.0541,7.1054,1.05,1.05,0,0,1,7.0541,9.2054Z" transform="translate(0)" class="audiicon-wechat__bubble-cut"/>
    <path d="M21.2746,13.0424c-1.342-3.8508-6.92-4.5846-9.7251-1.9519a4.6625,4.6625,0,0,0-1.4047,2.46,4.5119,4.5119,0,0,0,1.4883,4.2087A6.4183,6.4183,0,0,0,17.5357,19c.6-.1463,1.5731.6457,2.1172.944q-.12-.4008-.2412-.8016a3.0108,3.0108,0,0,1-.2326-.7726c.0086-.2365.3337-.3924.5315-.5693a7.04,7.04,0,0,0,.6774-.6913,4.9946,4.9946,0,0,0,.86-1.403A3.8366,3.8366,0,0,0,21.2746,13.0424Zm-7.595.5839c-1.2206.3488-1.53-1.5574-.3368-1.5574C14.3428,12.0689,14.7458,13.3217,13.68,13.6263Zm4.2714,0c-1.2153.3475-1.52-1.5577-.3347-1.5577C18.6178,12.0688,19.0172,13.3216,17.951,13.6265Z" transform="translate(0)" class="audiicon-wechat__bubble-full"/>
  </g>
  <rect width="24" height="24" fill="none"/>
</svg>
