<svg id="wechat-large" xmlns="http://www.w3.org/2000/svg" width="48" height="48" viewBox="0 0 48 48">
  <title>wechat</title>
  <g class="audiicon-group audiicon-group--large">
    <path d="M19.1042,26a9.9011,9.9011,0,0,1,3.0716-5.41,12.5578,12.5578,0,0,1,8.5576-3.1953c.0668,0,.1318.0058.1984.0067-1.7461-5.4091-8.1731-8.1072-13.5285-7.494A12.1786,12.1786,0,0,0,8.3319,15.342a8.9108,8.9108,0,0,0,.4551,9.971,12.6565,12.6565,0,0,0,2.5664,2.5248c.4375.3292.4686.3156.31.7917q-.1032.31-.2063.62-.4229,1.2715-.8456,2.543l2.9808-1.4945.7681-.3852a1.3962,1.3962,0,0,1,1.17-.0854,17.9615,17.9615,0,0,0,3.9591.43A9.1,9.1,0,0,1,19.1042,26ZM23.56,14.7953a1.64,1.64,0,0,1,0,3.2794,1.8568,1.8568,0,0,1-1.97-1.6426A1.85,1.85,0,0,1,23.56,14.7953Zm-8.4217,3.2793a1.86,1.86,0,0,1-1.9761-1.6425,1.8566,1.8566,0,0,1,1.9761-1.6368A1.64,1.64,0,0,1,15.1387,18.0746Z" transform="translate(0)" class="audiicon-wechat__bubble-cut"/>
    <path d="M40.59,25.1722c-2.3993-6.8846-12.0889-8.2534-17.1037-3.5464a8.3357,8.3357,0,0,0-2.5115,4.3985,8.001,8.001,0,0,0,2.3775,7.5814,11.4749,11.4749,0,0,0,10.553,2.2174c1.0728-.2616,2.8126,1.1544,3.7852,1.6877q-.2153-.7167-.4312-1.4332a5.3775,5.3775,0,0,1-.4157-1.3814c.0153-.4226.5965-.7014.95-1.0177a12.5737,12.5737,0,0,0,1.2112-1.236,8.9337,8.9337,0,0,0,1.538-2.5083A6.8608,6.8608,0,0,0,40.59,25.1722Zm-12.5843.9542c-2.0375.5822-2.5547-2.6-.5622-2.6C29.1129,23.5268,29.7856,25.6179,28.0059,26.1264Zm6.6155.0006c-2.0292.58-2.5374-2.6008-.559-2.6008C35.7347,23.5262,36.4016,25.6179,34.6214,26.127Z" transform="translate(0)" class="audiicon-wechat__bubble-full"/>
  </g>
  <rect width="48" height="48" fill="none"/>
</svg>
