<svg width="48" height="48" viewBox="0 0 48 48" version="1.1" xmlns="http://www.w3.org/2000/svg">
    <title>
        wechat-large
    </title>
    <path d="M23.5,21.7 C28.5,16.9 38.2,18.3 40.6,25.2 C41.1,26.7 41.1,28.4 40.7,30.1 C40.4,31 39.8,31.9 39.2,32.6 L39.2,32.6 L38,33.8 C37.6,34.1 37,34.4 37,34.8 C37.1,35.3 37.2,35.8 37.4,36.2 L37.4,36.2 L37.8,37.6 C36.8,37.1 35.1,35.6 34,35.9 C30.3,37 26.3,36.1 23.4,33.7 C21.3,31.8 20.4,28.9 21,26.1 C21.3,24.4 22.2,22.9 23.5,21.7 Z M17.5,9.9 C22.8,9.3 29.3,12 31,17.4 L31,17.4 L30.8,17.4 C27.6,17.4 24.6,18.5 22.2,20.6 C20.6,22 19.5,23.9 19.1,26 C18.9,27.4 19,28.9 19.8,30.1 C18.4,30.1 17.1,30 15.8,29.7 C15.4,29.6 15,29.6 14.6,29.8 L14.6,29.8 L10.8,31.7 L11.6,29.2 L11.8,28.6 C12,28.1 11.9,28.1 11.5,27.8 C10.5,27.1 9.6,26.3 8.9,25.3 C6.7,22.4 6.5,18.4 8.4,15.3 C10.5,12.2 13.8,10.2 17.5,9.9 Z M27.4,23.5 C25.4,23.5 26,26.7 28,26.1 C29.8,25.6 29.1,23.5 27.4,23.5 Z M34,23.5 C32.1,23.5 32.6,26.7 34.6,26.1 C36.4,25.6 35.7,23.5 34,23.5 Z M15.1,14.9 C14.1,14.8 13.2,15.5 13.1,16.5 C13.2,17.4 14.1,18.2 15.1,18.1 C16,18.1 16.8,17.3 16.7,16.5 C16.7,15.6 16,14.9 15.1,14.9 Z M23.6,14.8 C22.6,14.7 21.7,15.4 21.6,16.4 C21.7,17.3 22.6,18.1 23.6,18 C24.5,18 25.2,17.3 25.2,16.4 C25.2,15.5 24.5,14.8 23.6,14.8 Z" fill="currentColor" fill-rule="nonzero" stroke="none" stroke-width="1"/>
</svg>
