<svg width="24" height="24" viewBox="0 0 24 24" version="1.1" xmlns="http://www.w3.org/2000/svg">
    <title>
        wechat-small
    </title>
    <g fill="currentColor" fill-rule="nonzero" stroke="none" stroke-width="1">
        <path d="M9.3,13.4 C9.5,12.3 10.1,11.3 11,10.5 C12.3,9.3 14,8.7 15.8,8.7 C15.8,8.7 15.9,8.7 15.9,8.7 C14.9,5.7 11.3,4.2 8.3,4.5 C6.2,4.7 4.4,5.8 3.2,7.5 C2.1,9.2 2.2,11.4 3.5,13.1 C3.9,13.6 4.4,14.1 4.9,14.5 C5.1,14.7 5.2,14.7 5.1,14.9 L5,15.3 L4.5,16.7 L6.2,15.9 L6.6,15.7 C6.8,15.6 7,15.6 7.3,15.7 C8,15.9 8.8,15.9 9.5,15.9 C9.2,15.1 9.2,14.2 9.3,13.4 Z M11.8,7.2 C12.4,7.2 12.8,7.6 12.8,8.2 C12.8,8.8 12.4,9.2 11.8,9.2 C11.2,9.2 10.7,8.8 10.6,8.2 C10.6,7.6 11.2,7.1 11.8,7.2 Z M7.1,9.2 C6.5,9.2 5.9,8.8 5.8,8.1 C5.9,7.5 6.4,7 7.1,7.1 C7.7,7.1 8.1,7.6 8.1,8.1 C8.1,8.6 7.6,9.2 7.1,9.2 Z"/>
        <path d="M21.3,13 C20,9.1 14.4,8.4 11.6,11 C10.9,11.7 10.4,12.5 10.2,13.5 C9.9,15.1 10.5,16.7 11.7,17.7 C13.3,19.1 15.6,19.5 17.6,18.9 C18.2,18.8 19.2,19.5 19.7,19.8 L19.5,19 C19.4,18.8 19.3,18.5 19.3,18.2 C19.3,18 19.6,17.8 19.8,17.6 C20,17.4 20.3,17.2 20.5,16.9 C20.9,16.5 21.2,16 21.4,15.5 C21.6,14.8 21.6,13.9 21.3,13 Z M13.7,13.6 C12.5,14 12.2,12 13.4,12 C14.3,12.1 14.7,13.3 13.7,13.6 Z M18,13.6 C16.8,13.9 16.5,12 17.7,12 C18.6,12.1 19,13.3 18,13.6 Z"/>
    </g>
</svg>
