<svg id="weibo-small" xmlns="http://www.w3.org/2000/svg" width="24" height="24" viewBox="0 0 24 24">
  <title>weibo</title>
  <g class="audiicon-group audiicon-group--small">
    <g class="audiicon-weibo__signal">
      <path d="M20.42,5.8056a5.1609,5.1609,0,0,0-4.9135-1.5905H15.506a.7468.7468,0,0,0,.312,1.4606,3.6712,3.6712,0,0,1,4.26,4.7209l0,0a.747.747,0,0,0,1.4212.46l0-.0028a5.16,5.16,0,0,0-1.08-5.0488" transform="translate(0)" class="audiicon-weibo__curve-small"/>
      <path d="M18.4534,7.5805A2.5126,2.5126,0,0,0,16.06,6.8069a.6424.6424,0,1,0,.2681,1.2564v.0007a1.2281,1.2281,0,0,1,1.4265,1.5808h.0007a.6425.6425,0,1,0,1.2228.3952,2.5105,2.5105,0,0,0-.5247-2.46" transform="translate(0)" class="audiicon-weibo__curve-big"/>
    </g>
    <g class="audiicon-weibo__eye">
      <path d="M16.8983,11.7069c-.2746-.0824-.4629-.1384-.3189-.4992a2.0357,2.0357,0,0,0,.0059-1.9412c-.633-.9045-2.365-.8556-4.35-.0244,0-.0011-.6234.2728-.4641-.2218a2.2348,2.2348,0,0,0-.2158-2.2787c-1.0772-1.0779-3.9415.0407-6.3976,2.4961C3.3181,11.0775,2.25,13.0271,2.25,14.713c0,3.2246,4.1352,5.1852,8.1807,5.1852,5.3034,0,8.8313-3.0813,8.8313-5.5276A2.9594,2.9594,0,0,0,16.8983,11.7069Zm-6.4567,7.0355c-3.2281.3186-6.0147-1.1407-6.2245-3.26s2.2381-4.0954,5.4659-4.4146,6.0152,1.14,6.2244,3.2586C16.1169,16.4464,13.67,18.423,10.4416,18.7424Z" transform="translate(0)" class="audiicon-weibo__eye-lashes"/>
      <path d="M10.7312,12.6956A3.4133,3.4133,0,0,0,6.908,14.3642a2.3246,2.3246,0,0,0,1.4844,3.313,3.3817,3.3817,0,0,0,4.0384-1.714A2.3358,2.3358,0,0,0,10.7312,12.6956ZM9.5929,16.1168a1.1869,1.1869,0,0,1-1.4406.4722.8309.8309,0,0,1-.3208-1.2522,1.1912,1.1912,0,0,1,1.4115-.4752A.8344.8344,0,0,1,9.5929,16.1168Zm.9982-1.2811a.4528.4528,0,0,1-.5415.1993.316.316,0,0,1-.139-.47.4464.4464,0,0,1,.528-.1987A.3163.3163,0,0,1,10.5911,14.8357Z" transform="translate(0)" class="audiicon-weibo__eye-ball"/>
    </g>
  </g>
  <rect width="24" height="24" fill="none"/>
</svg>
