<svg width="24" height="24" viewBox="0 0 24 24" version="1.1" xmlns="http://www.w3.org/2000/svg">
    <title>
        weibo-small
    </title>
    <g fill="currentColor" fill-rule="nonzero" stroke="none" stroke-width="1">
        <path d="M20.4,5.8 C19.2,4.4 17.3,3.8 15.5,4.2 C15.1,4.3 14.9,4.7 15,5.1 C15.1,5.5 15.5,5.7 15.9,5.7 C17.9,5.3 19.8,6.5 20.3,8.5 C20.4,9.1 20.4,9.8 20.2,10.4 C20.1,10.8 20.3,11.2 20.7,11.3 C21.1,11.4 21.5,11.2 21.6,10.8 C22.1,9.1 21.7,7.2 20.4,5.8"/>
        <path d="M18.5,7.6 C17.9,6.9 17,6.6 16.1,6.8 C15.8,6.9 15.5,7.2 15.6,7.6 C15.7,7.9 16,8.2 16.4,8.1 C17,7.9 17.6,8.3 17.8,9 C17.8,9.2 17.8,9.4 17.8,9.6 C17.7,9.9 17.9,10.3 18.2,10.4 C18.5,10.5 18.9,10.3 19,10 C19,10 19,10 19,10 C19.3,9.2 19.1,8.2 18.5,7.6"/>
        <path d="M16.9,11.7 C16.6,11.6 16.4,11.6 16.6,11.2 C16.9,10.6 16.9,9.9 16.6,9.3 C16,8.4 14.2,8.4 12.2,9.3 C12.2,9.3 11.6,9.6 11.7,9.1 C12.1,8.4 12,7.5 11.5,6.8 C10.4,5.7 7.6,6.8 5.1,9.3 C3.3,11.1 2.2,13.1 2.2,14.8 C2.2,18 6.3,20 10.4,20 C15.7,20 19.2,16.9 19.2,14.5 C19.2,13.1 18.2,12 16.9,11.7 Z M10.4,18.7 C7.2,19 4.4,17.6 4.2,15.4 C4,13.2 6.4,11.3 9.7,11 C13,10.7 15.7,12.1 15.9,14.3 C16.1,16.4 13.7,18.4 10.4,18.7 Z"/>
        <path d="M10.7,12.7 C9.2,12.3 7.6,13 6.9,14.4 C6.3,15.5 6.8,16.9 7.9,17.5 C8.1,17.6 8.2,17.6 8.4,17.7 C10,18.2 11.7,17.5 12.4,16 C12.9,14.8 12.4,13.4 11.2,12.9 C11.1,12.8 10.9,12.7 10.7,12.7 Z M9.6,16.1 C9.3,16.6 8.7,16.8 8.2,16.6 C7.8,16.4 7.6,15.9 7.8,15.5 C7.8,15.4 7.9,15.4 7.9,15.3 C8.2,14.8 8.8,14.6 9.3,14.8 C9.7,15 9.9,15.5 9.7,16 C9.7,16 9.6,16.1 9.6,16.1 Z M10.6,14.8 C10.5,15 10.3,15.1 10.1,15 C9.9,14.9 9.9,14.7 9.9,14.6 C9.9,14.6 9.9,14.6 9.9,14.5 C10,14.3 10.2,14.2 10.4,14.3 C10.6,14.4 10.7,14.6 10.6,14.8 C10.6,14.8 10.6,14.8 10.6,14.8 Z"/>
    </g>
</svg>
