<svg width="48" height="48" viewBox="0 0 48 48" version="1.1" xmlns="http://www.w3.org/2000/svg">
    <title>
        weibo-large
    </title>
    <path d="M32.5,22.3 C32,22.2 31.7,22.1 31.9,21.4 C32.5,20.3 32.5,19.1 31.9,18 C30.8,16.4 27.8,16.5 24.3,18 C24.3,18 23.2,18.5 23.5,17.6 C24,15.9 24,14.5 23.1,13.6 C21.2,11.7 16.2,13.7 11.9,18 C8.9,21.2 7,24.6 7,27.5 C7,33.1 14.2,36.5 21.3,36.5 C30.5,36.5 36.7,31.1 36.7,26.9 C36.7,24.3 34.5,22.9 32.5,22.3 L32.5,22.3 Z M21.3,34.5 C15.7,35.1 10.8,32.5 10.4,28.8 C10,25.1 14.3,21.7 19.9,21.1 C25.5,20.5 30.4,23.1 30.8,26.8 C31.2,30.5 26.9,34 21.3,34.5 Z M14.9,27 C16.3,24.6 19.1,23.3 21.8,24 C24.6,24.7 26,27.1 24.9,29.6 C23.5,32.3 20.4,33.6 17.6,32.7 C14.9,31.9 13.7,29.4 14.9,27 Z M19.2,27.7 C18.3,27.4 17.2,27.8 16.7,28.6 C16.6,28.7 16.5,28.8 16.5,28.9 C16.1,29.7 16.4,30.6 17.2,30.9 C18.2,31.3 19.3,31 19.8,30.1 C19.9,30 19.9,30 20,29.7 C20.3,28.9 20,28 19.2,27.7 Z M21.3,27 C21,26.9 20.6,27.1 20.4,27.4 C20.3,27.4 20.3,27.5 20.3,27.5 C20.2,27.7 20.3,28.1 20.6,28.2 C21,28.3 21.4,28.1 21.6,27.8 L21.6,27.8 L21.6,27.7 C21.7,27.4 21.6,27.1 21.3,27 Z M30.419963,9.14532593 C33.5122222,8.66822222 36.5733333,9.68 38.7,12 C40.8,14.4 41.6,17.7 40.4,20.8 L40.4,20.8 L40.3567627,20.9100586 C40.1125,21.4476563 39.45625,21.7875 38.8,21.6 C38.2,21.4 37.8,20.7 38,20 C38.4,18.9 38.4,17.8 38.2,16.7 C37.5,13.3 34.1,11.1 30.6,11.8 C29.9,11.9 29.3,11.5 29.1,10.8 C29,10.1 29.4,9.4 30.1,9.2 L30.1,9.2 Z M31.1,13.8 C32.7,13.4 34.3,13.9 35.3,15.1 C36.3,16.2 36.7,17.9 36.1,19.4 C35.9,20 35.3,20.3 34.7,20.1 C34.1,19.9 33.8,19.3 34,18.7 C34.2,18.4 34.2,18 34.1,17.6 C33.9,16.5 32.8,15.8 31.6,16 L31.6,16 L31.5008,16 L31.5008,16 L31.3801481,16.0134222 C30.8222222,16.0457778 30.2933333,15.66 30.2,15.1 C30.1,14.5 30.5,13.9 31.1,13.8 Z" fill="currentColor" fill-rule="nonzero" stroke="none" stroke-width="1"/>
</svg>
