<svg id="weibo-large" xmlns="http://www.w3.org/2000/svg" width="48" height="48" viewBox="0 0 48 48">
  <title>weibo</title>
  <g class="audiicon-group audiicon-group--large">
    <g class="audiicon-weibo__signal">
      <path d="M38.6813,11.9708a8.9982,8.9982,0,0,0-8.5671-2.7733H30.113a1.3021,1.3021,0,0,0,.544,2.5468,6.401,6.401,0,0,1,7.4283,8.2312l0,0a1.3024,1.3024,0,0,0,2.4781.8027l0-.005a8.9961,8.9961,0,0,0-1.8828-8.8029" transform="translate(0)" class="audiicon-weibo__curve-small"/>
      <path d="M35.2521,15.0654a4.3813,4.3813,0,0,0-4.1732-1.3488,1.12,1.12,0,1,0,.4675,2.1907v.0013a2.1414,2.1414,0,0,1,2.4873,2.7563h.0012a1.12,1.12,0,1,0,2.132.6891,4.3776,4.3776,0,0,0-.9148-4.2886" transform="translate(0)" class="audiicon-weibo__curve-big"/>
    </g>
    <g class="audiicon-weibo__eye">
      <path d="M32.5407,22.26c-.4788-.1437-.8071-.2413-.5561-.87a3.55,3.55,0,0,0,.01-3.3847c-1.1038-1.5771-4.1237-1.4917-7.5851-.0425,0-.0019-1.0869.4756-.8093-.3867.5327-1.7116.4525-3.1456-.3763-3.9731-1.8782-1.8794-6.8722.0709-11.1547,4.3522C8.8623,21.1628,7,24.562,7,27.5015c0,5.6226,7.21,9.041,14.2638,9.041,9.247,0,15.3981-5.3726,15.3981-9.638C36.6619,24.3274,34.4911,22.8649,32.5407,22.26ZM21.2828,34.5273c-5.6285.5554-10.4873-1.9889-10.8529-5.6845s3.9024-7.1407,9.53-7.6972,10.4881,1.9877,10.8529,5.6816C31.1782,30.524,26.9121,33.97,21.2828,34.5273Z" transform="translate(0)" class="audiicon-weibo__eye-lashes"/>
      <g class="audiicon-weibo__eye-ball">
        <path d="M21.8452,23.99a6.1324,6.1324,0,0,0-6.869,2.998c-1.1849,2.407-.0392,4.8521,2.6669,5.7255a6.0758,6.0758,0,0,0,7.2556-3.0794C26.0316,27.094,24.6171,24.7059,21.8452,23.99ZM19.8,30.1363a2.1324,2.1324,0,0,1-2.5883.8483,1.4928,1.4928,0,0,1-.5764-2.25,2.14,2.14,0,0,1,2.536-.8537A1.4991,1.4991,0,0,1,19.8,30.1363Zm1.7935-2.3018a.8137.8137,0,0,1-.973.3581.5677.5677,0,0,1-.25-.8451.802.802,0,0,1,.9487-.357A.5681.5681,0,0,1,21.5935,27.8345Z" transform="translate(0)"/>
      </g>
    </g>
  </g>
  <rect width="48" height="48" fill="none"/>
</svg>
