<?xml version="1.0" encoding="UTF-8"?>
<svg width="48px" height="48px" viewBox="0 0 48 48" version="1.1" xmlns="http://www.w3.org/2000/svg" xmlns:xlink="http://www.w3.org/1999/xlink">
    <!-- Generator: sketchtool 48.1 (47250) - http://www.bohemiancoding.com/sketch -->
    <title>weibo-large</title>
    <desc>Created with sketchtool.</desc>
    <defs/>
    <g id="icons-published" stroke="none" stroke-width="1" fill="none" fill-rule="evenodd">
        <g id="briefing" transform="translate(-864.000000, -2458.000000)"/>
        <g id="weibo-large" fill="currentColor" fill-rule="nonzero">
            <path d="M38.7,12 C36.5,9.6 33.3,8.6 30.1,9.2 C29.4,9.4 29,10.1 29.1,10.8 C29.3,11.5 29.9,11.9 30.6,11.8 C34.1,11.1 37.5,13.3 38.2,16.7 C38.4,17.8 38.4,18.9 38,20 C37.8,20.7 38.2,21.4 38.8,21.6 C39.5,21.8 40.2,21.4 40.4,20.8 C41.6,17.7 40.8,14.4 38.7,12" id="Shape"/>
            <path d="M35.3,15.1 C34.3,13.9 32.7,13.4 31.1,13.8 C30.5,13.9 30.1,14.5 30.2,15.1 C30.3,15.7 30.9,16.1 31.5,16 C31.5,16 31.5,16 31.6,16 C32.8,15.8 33.9,16.5 34.1,17.6 C34.2,18 34.2,18.4 34,18.7 C33.8,19.3 34.1,19.9 34.7,20.1 C35.3,20.3 35.9,20 36.1,19.4 C36.7,17.9 36.3,16.2 35.3,15.1" id="Shape"/>
            <path d="M32.5,22.3 C32,22.2 31.7,22.1 31.9,21.4 C32.5,20.3 32.5,19.1 31.9,18 C30.8,16.4 27.8,16.5 24.3,18 C24.3,18 23.2,18.5 23.5,17.6 C24,15.9 24,14.5 23.1,13.6 C21.2,11.7 16.2,13.7 11.9,18 C8.9,21.2 7,24.6 7,27.5 C7,33.1 14.2,36.5 21.3,36.5 C30.5,36.5 36.7,31.1 36.7,26.9 C36.7,24.3 34.5,22.9 32.5,22.3 Z M21.3,34.5 C15.7,35.1 10.8,32.5 10.4,28.8 C10,25.1 14.3,21.7 19.9,21.1 C25.5,20.5 30.4,23.1 30.8,26.8 C31.2,30.5 26.9,34 21.3,34.5 Z" id="Shape"/>
            <path d="M21.8,24 C19.1,23.3 16.3,24.6 14.9,27 C13.7,29.4 14.9,31.9 17.6,32.7 C20.4,33.6 23.5,32.3 24.9,29.6 C26,27.1 24.6,24.7 21.8,24 Z M19.8,30.1 C19.3,31 18.2,31.3 17.2,30.9 C16.4,30.6 16.1,29.7 16.5,28.9 C16.5,28.8 16.6,28.7 16.7,28.6 C17.2,27.8 18.3,27.4 19.2,27.7 C20,28 20.3,28.9 20,29.7 C19.9,30 19.9,30 19.8,30.1 Z M21.6,27.8 C21.4,28.1 21,28.3 20.6,28.2 C20.3,28.1 20.2,27.7 20.3,27.5 C20.3,27.5 20.3,27.4 20.4,27.4 C20.6,27.1 21,26.9 21.3,27 C21.6,27.1 21.7,27.4 21.6,27.7 C21.6,27.8 21.6,27.8 21.6,27.8 Z" id="Shape"/>
        </g>
    </g>
</svg>