<svg width="48" height="48" viewBox="0 0 48 48" version="1.1" xmlns="http://www.w3.org/2000/svg">
    <title>
        whatsapp-large
    </title>
    <path d="M34.9795383,12.9473459 C29.4927031,7.5378538 20.8448428,6.99859903 14.7253123,11.6843528 C8.60578184,16.3701066 6.89309247,24.8424839 10.7140082,31.5275785 L8.5,39.5 L16.6844504,37.3578258 C18.9474264,38.5917135 21.4854782,39.2372852 24.0644778,39.2349888 L24.0644778,39.2349888 C30.3077513,39.2333972 35.9355638,35.4813028 38.3245453,29.7277211 C40.7135268,23.9741395 39.3934017,17.351674 34.9795383,12.9473459 Z M24.0644778,36.6364093 L24.0644778,36.6364093 C21.7656207,36.6375252 19.5091075,36.0195021 17.5331535,34.8475804 L17.0682118,34.5752078 L12.1900137,35.8413726 L13.4888985,31.1227002 L13.1789374,30.6368463 C10.7020369,26.6885723 10.568949,21.7103443 12.8313729,17.6360072 C15.0937969,13.5616701 19.3951314,11.0333758 24.0644778,11.0333758 C31.1507382,11.0415004 36.8909654,16.7738509 36.8909654,23.8422525 C36.8828316,30.9049052 31.1449794,36.628293 24.0644778,36.6364093 L24.0644778,36.6364093 Z M31.0976439,27.0665559 C30.7138825,26.8751589 28.8172154,25.9402582 28.4629741,25.815114 C28.1087328,25.6899698 27.8504318,25.623717 27.5995109,26.006511 C27.34859,26.389305 26.6032072,27.2579529 26.3744264,27.4787956 C26.1456455,27.6996383 25.9242447,27.7658912 25.5404833,27.5744941 C24.4033044,27.1249449 23.3541519,26.4795985 22.4408718,25.6678855 C21.6051076,24.894893 20.8866287,24.004638 20.3080438,23.0251345 C20.086643,22.6349791 20.3080438,22.4288592 20.4777845,22.2374622 C20.6475251,22.0460652 20.8615459,21.7884154 21.0534266,21.5675727 C21.2111789,21.3693045 21.3426433,21.1515743 21.4445681,20.9197674 C21.5409223,20.7035337 21.5271925,20.4542801 21.4076679,20.2498779 C21.3117276,20.0584809 20.5442047,18.1665951 20.2194835,17.3936456 C19.8947623,16.6206962 19.5921812,16.7458404 19.3560203,16.7311175 L18.6180176,16.7311175 C18.2229077,16.7424384 17.8507172,16.9187165 17.5921938,17.2169715 C16.7077388,18.0485325 16.2171422,19.2144392 16.2416487,20.4265521 C16.3652206,21.8775803 16.9145183,23.2601645 17.8209746,24.4017207 C18.0128553,24.6593705 20.5368247,28.546202 24.4039591,30.2098837 C25.1268019,30.5193811 25.8658819,30.789694 26.6179673,31.0196403 C27.4043837,31.2580514 28.2355734,31.3109723 29.0459963,31.1742302 C29.783999,31.0638088 31.3264248,30.2466908 31.651146,29.3412358 C31.9006318,28.7669189 31.9775466,28.1326929 31.8725468,27.5156028 C31.7397063,27.3389286 31.4814053,27.2432301 31.0976439,27.0518331 L31.0976439,27.0665559 Z" fill="currentColor" fill-rule="nonzero" stroke="none" stroke-width="1"/>
</svg>
