<svg width="48" height="48" viewBox="0 0 48 48" version="1.1" xmlns="http://www.w3.org/2000/svg">
    <title>
        whatsapp-large
    </title>
    <path d="M35.4795383,12.9473459 C29.9927031,7.5378538 21.3448428,6.99859903 15.2253123,11.6843528 C9.10578184,16.3701066 7.39309247,24.8424839 11.2140082,31.5275785 L9,39.5 L17.1844504,37.3578258 C19.4474264,38.5917135 21.9854782,39.2372852 24.5644778,39.2349888 L24.5644778,39.2349888 C30.8077513,39.2333972 36.4355638,35.4813028 38.8245453,29.7277211 C41.2135268,23.9741395 39.8934017,17.351674 35.4795383,12.9473459 Z M24.5644778,36.6364078 L24.5644778,36.6364078 C22.2656207,36.6375252 20.0091075,36.0195021 18.0331535,34.8475804 L17.5682118,34.5752078 L12.6900137,35.8413726 L13.9888985,31.1227002 L13.6789374,30.6368463 C11.2020369,26.6885723 11.068949,21.7103443 13.3313729,17.6360072 C15.5937969,13.5616701 19.8951314,11.0333758 24.5644778,11.0333758 C31.6507382,11.0415004 37.3909654,16.7738509 37.3909654,23.8422525 C37.3828316,30.9049052 31.6449794,36.628293 24.5644778,36.6364078 L24.5644778,36.6364078 Z M31.5976439,27.0665559 C31.2138825,26.8751589 29.3172154,25.9402582 28.9629741,25.815114 C28.6087328,25.6899698 28.3504318,25.623717 28.0995109,26.006511 C27.84859,26.389305 27.1032072,27.2579529 26.8744264,27.4787956 C26.6456455,27.6996383 26.4242447,27.7658912 26.0404833,27.5744941 C24.9033044,27.1249449 23.8541519,26.4795985 22.9408718,25.6678855 C22.1051076,24.894893 21.3866287,24.004638 20.8080438,23.0251345 C20.586643,22.6349791 20.8080438,22.4288592 20.9777845,22.2374622 C21.1475251,22.0460652 21.3615459,21.7884154 21.5534266,21.5675727 C21.7111789,21.3693045 21.8426433,21.1515743 21.9445681,20.9197674 C22.0409223,20.7035337 22.0271925,20.4542801 21.9076679,20.2498779 C21.8117276,20.0584809 21.0442047,18.1665951 20.7194835,17.3936456 C20.3947623,16.6206962 20.0921812,16.7458404 19.8560203,16.7311175 L19.1180176,16.7311175 C18.7229077,16.7424384 18.3507172,16.9187165 18.0921938,17.2169715 C17.2077388,18.0485325 16.7171422,19.2144392 16.7416487,20.4265521 C16.8652206,21.8775803 17.4145183,23.2601645 18.3209746,24.4017207 C18.5128553,24.6593705 21.0368247,28.546202 24.9039591,30.2098837 C25.6268019,30.5193811 26.3658819,30.789694 27.1179673,31.0196403 C27.9043837,31.2580514 28.7355734,31.3109723 29.5459963,31.1742302 C30.283999,31.0638088 31.8264248,30.2466908 32.151146,29.3412358 C32.4006318,28.7669189 32.4775466,28.1326929 32.3725468,27.5156028 C32.2397063,27.3389286 31.9814053,27.2432301 31.5976439,27.0518331 L31.5976439,27.0665559 Z" fill="currentColor" fill-rule="nonzero" stroke="none" stroke-width="1"/>
</svg>
