<svg width="24" height="24" viewBox="0 0 24 24" version="1.1" xmlns="http://www.w3.org/2000/svg">
    <title>
        whatsapp-small
    </title>
    <path d="M17.6668585,6.29540434 C14.8349435,3.50340841 10.3715318,3.22508337 7.21306442,5.64353693 C4.05459708,8.0619905 3.17062837,12.4348304 5.14271392,15.8852018 L4,20 L8.22423246,18.8943617 C9.39222007,19.531207 10.7021823,19.8644053 12.0332789,19.86322 L12.0332789,19.86322 C15.2556136,19.8623985 18.160291,17.9258337 19.3933137,14.9562432 C20.6263364,11.9866526 19.9449815,8.56860592 17.6668585,6.29540434 Z M12.0332789,18.5220177 L12.0332789,18.5220177 C10.846772,18.5225936 9.68212,18.203614 8.6622728,17.5987512 L8.42230287,17.4581718 L5.9045232,18.1116762 L6.57491537,15.6762324 L6.41493542,15.425469 C5.13653519,13.3876502 5.06784464,10.8182422 6.23554732,8.71535856 C7.40325001,6.6124749 9.6232936,5.30754882 12.0332789,5.30754882 C15.6907036,5.31174216 18.6534015,8.27037466 18.6534015,11.9185819 C18.6492034,15.563822 15.6877313,18.5178286 12.0332789,18.5220177 L12.0332789,18.5220177 Z M15.6633001,13.5827385 C15.4652297,13.483953 14.4863047,13.0014236 14.3034705,12.936833 C14.1206363,12.8722425 13.9873197,12.8380475 13.8578121,13.0356186 C13.7283045,13.2331897 13.3435908,13.6815241 13.2255104,13.7955074 C13.1074299,13.9094908 12.9931586,13.9436858 12.7950881,13.8449002 C12.2081571,13.6128748 11.666659,13.2797928 11.1952887,12.8608441 C10.7639265,12.4618803 10.3930987,12.0023938 10.0944742,11.4968436 C9.9802028,11.2954731 10.0944742,11.1890886 10.1820823,11.0903031 C10.2696904,10.9915175 10.3801527,10.858537 10.4791879,10.7445536 C10.5606085,10.6422217 10.6284611,10.5298448 10.6810674,10.4102025 C10.7307986,10.298598 10.7237122,10.169951 10.6620222,10.0644531 C10.6125046,9.96566756 10.2163637,8.98921037 10.0487657,8.59026871 C9.8811676,8.19132706 9.7249967,8.25591761 9.6031073,8.24831872 L9.22220262,8.24831872 C9.01827496,8.25416176 8.82617661,8.34514399 8.69274517,8.49908205 C8.2362523,8.92827482 7.98304113,9.53003312 7.99568967,10.1556398 C8.05946871,10.9045576 8.34297719,11.6181494 8.8108256,12.2073397 C8.90986081,12.3403203 10.2125547,14.3464269 12.208495,15.2051013 C12.5815752,15.3648419 12.9630358,15.5043582 13.3512089,15.6230401 C13.7571012,15.746091 14.1861024,15.7734051 14.6043852,15.7028285 C14.9852898,15.6458368 15.7813805,15.2240985 15.9489786,14.7567668 C16.0777455,14.4603452 16.1174434,14.1330028 16.06325,13.8145046 C15.9946871,13.723318 15.8613705,13.6739252 15.6633001,13.5751397 L15.6633001,13.5827385 Z" fill="currentColor" fill-rule="nonzero" stroke="none" stroke-width="1"/>
</svg>
