<svg width="24" height="24" viewBox="0 0 24 24" version="1.1" xmlns="http://www.w3.org/2000/svg">
    <title>
        whatsapp-small
    </title>
    <path d="M18.1668585,6.29540434 C15.3349435,3.50340841 10.8715318,3.22508337 7.71306442,5.64353693 C4.55459708,8.0619905 3.67062837,12.4348304 5.64271392,15.8852018 L4.5,20 L8.72423246,18.8943617 C9.89222007,19.531207 11.2021823,19.8644053 12.5332789,19.86322 L12.5332789,19.86322 C15.7556136,19.8623985 18.660291,17.9258337 19.8933137,14.9562432 C21.1263364,11.9866526 20.4449815,8.56860592 18.1668585,6.29540434 Z M12.5332789,18.5220169 L12.5332789,18.5220169 C11.346772,18.5225936 10.18212,18.203614 9.1622728,17.5987512 L8.92230287,17.4581718 L6.4045232,18.1116762 L7.07491537,15.6762324 L6.91493542,15.425469 C5.63653519,13.3876502 5.56784464,10.8182422 6.73554732,8.71535856 C7.90325001,6.6124749 10.1232936,5.30754882 12.5332789,5.30754882 C16.1907036,5.31174216 19.1534015,8.27037466 19.1534015,11.9185819 C19.1492034,15.563822 16.1877313,18.5178286 12.5332789,18.5220169 L12.5332789,18.5220169 Z M16.1633001,13.5827385 C15.9652297,13.483953 14.9863047,13.0014236 14.8034705,12.936833 C14.6206363,12.8722425 14.4873197,12.8380475 14.3578121,13.0356186 C14.2283045,13.2331897 13.8435908,13.6815241 13.7255104,13.7955074 C13.6074299,13.9094908 13.4931586,13.9436858 13.2950881,13.8449002 C12.7081571,13.6128748 12.166659,13.2797928 11.6952887,12.8608441 C11.2639265,12.4618803 10.8930987,12.0023938 10.5944742,11.4968436 C10.4802028,11.2954731 10.5944742,11.1890886 10.6820823,11.0903031 C10.7696904,10.9915175 10.8801527,10.858537 10.9791879,10.7445536 C11.0606085,10.6422217 11.1284611,10.5298448 11.1810674,10.4102025 C11.2307986,10.298598 11.2237122,10.169951 11.1620222,10.0644531 C11.1125046,9.96566756 10.7163637,8.98921037 10.5487657,8.59026871 C10.3811676,8.19132706 10.2249967,8.25591761 10.1031073,8.24831872 L9.72220262,8.24831872 C9.51827496,8.25416176 9.32617661,8.34514399 9.19274517,8.49908205 C8.7362523,8.92827482 8.48304113,9.53003312 8.49568967,10.1556398 C8.55946871,10.9045576 8.84297719,11.6181494 9.3108256,12.2073397 C9.40986081,12.3403203 10.7125547,14.3464269 12.708495,15.2051013 C13.0815752,15.3648419 13.4630358,15.5043582 13.8512089,15.6230401 C14.2571012,15.746091 14.6861024,15.7734051 15.1043852,15.7028285 C15.4852898,15.6458368 16.2813805,15.2240985 16.4489786,14.7567668 C16.5777455,14.4603452 16.6174434,14.1330028 16.56325,13.8145046 C16.4946871,13.723318 16.3613705,13.6739252 16.1633001,13.5751397 L16.1633001,13.5827385 Z" fill="currentColor" fill-rule="nonzero" stroke="none" stroke-width="1"/>
</svg>
