<?xml version="1.0" encoding="UTF-8"?>
<svg width="24px" height="24px" viewBox="0 0 24 24" version="1.1" xmlns="http://www.w3.org/2000/svg" xmlns:xlink="http://www.w3.org/1999/xlink">
    <!-- Generator: sketchtool 48.1 (47250) - http://www.bohemiancoding.com/sketch -->
    <title>work-small</title>
    <desc>Created with sketchtool.</desc>
    <defs></defs>
    <g id="icons-published" stroke="none" stroke-width="1" fill="none" fill-rule="evenodd">
        <g id="briefing" transform="translate(-1220.000000, -2458.000000)"></g>
        <g id="work-small" stroke="#000000">
            <polygon id="Shape" points="18.5 21.5 13.5 21.5 13.5 16.5 10.5 16.5 10.5 21.5 5.5 21.5 5.5 2.5 18.5 2.5"></polygon>
            <path d="M13.5,5.5 L15.5,5.5 L15.5,7.5 L13.5,7.5 L13.5,5.5 Z M8.5,5.5 L10.5,5.5 L10.5,7.5 L8.5,7.5 L8.5,5.5 Z M13.5,11.5 L15.5,11.5 L15.5,13.5 L13.5,13.5 L13.5,11.5 Z M8.5,11.5 L10.5,11.5 L10.5,13.5 L8.5,13.5 L8.5,11.5 Z" id="Shape"></path>
        </g>
    </g>
</svg>