<svg width="48" height="48" viewBox="0 0 48 48" version="1.1" xmlns="http://www.w3.org/2000/svg">
    <title>
        work-large
    </title>
    <path d="M37.5286,45.5 L27.5,45.5 L27.5,34.5 L20.5,34.5 L20.5,45.5 L10.5,45.5 L10.5,2.5 L37.5286,2.5 L37.5286,45.5 Z M15.5,7.5 L21.5,7.5 L21.5,13.5 L15.5,13.5 L15.5,7.5 Z M32.5,20.5 L32.5,26.5 L26.5,26.5 L26.5,20.5 L32.5,20.5 Z M21.5,20.5 L21.5,26.5 L15.5,26.5 L15.5,20.5 L21.5,20.5 Z M32.5,7.5 L32.5,13.5 L26.5,13.5 L26.5,7.5 L32.5,7.5 Z" stroke="currentColor" stroke-width="1" fill="none" fill-rule="evenodd"/>
</svg>
