<svg width="48" height="48" viewBox="0 0 48 48" version="1.1" xmlns="http://www.w3.org/2000/svg">
    <title>
        xing-large
    </title>
    <path d="M31.2,10 C30.6,10 30.3,10.4 30.1,10.8 L21.1,26.7 L26.8,37.2 C27,37.6 27.3,38 27.9,38 L31.9,38 C32.1,38 32.3,37.9 32.4,37.7 C32.5,37.5 32.5,37.3 32.4,37.1 L26.7,26.7 C26.7,26.7 26.7,26.7 26.7,26.7 L35.6,10.9 C35.7,10.7 35.7,10.5 35.6,10.3 C35.5,10.1 35.3,10 35.1,10 C35.3,10 31.2,10 31.2,10 Z M14.3,15.5 C14.1,15.5 13.9,15.6 13.7,15.8 C13.6,16 13.6,16.2 13.7,16.4 L16.4,21.1 C16.4,21.1 16.4,21.1 16.4,21.1 L12.1,28.7 C12,28.9 12,29.1 12.1,29.3 C12.2,29.5 12.4,29.6 12.6,29.6 L16.6,29.6 C17.2,29.6 17.5,29.2 17.7,28.8 L22.1,21.1 C21.2,19.5 20.2,17.9 19.3,16.3 C19.1,15.9 18.8,15.5 18.2,15.5 L14.3,15.5 L14.3,15.5 Z" fill="currentColor" fill-rule="nonzero" stroke="none" stroke-width="1"/>
</svg>
