<svg xmlns="http://www.w3.org/2000/svg" width="24" height="24" viewBox="0 0 24 24"><path d="M15.168 5c-.302 0-.433.19-.541.385l-4.493 7.967 2.869 5.263c.1.18.255.385.564.385h2.017c.121 0 .216-.046.268-.129.054-.086.052-.2-.004-.312L13 13.359a.012.012 0 0 1 0-.014l4.47-7.905c.057-.111.058-.225.005-.311-.052-.083-.147-.129-.269-.129h-2.04zM6.685 7.765c-.122 0-.224.043-.275.126-.054.086-.045.197.011.31l1.365 2.363c.003.005.003.007 0 .012L5.641 14.36c-.056.112-.053.224 0 .31a.297.297 0 0 0 .264.138h2.019c.302 0 .447-.204.55-.39l2.18-3.855-1.388-2.42c-.1-.18-.252-.38-.562-.38H6.685z"/></svg>