<svg xmlns="http://www.w3.org/2000/svg" width="48" height="48" viewBox="0 0 48 48"><path d="M31.22 10c-.603 0-.864.38-1.08.77l-8.987 15.934 5.738 10.527c.2.358.51.769 1.128.769h4.034c.243 0 .433-.092.536-.258.107-.172.104-.4-.008-.624l-5.693-10.401a.024.024 0 0 1 0-.027l8.94-15.809c.113-.223.115-.45.009-.623-.103-.166-.294-.258-.537-.258h-4.08zM14.255 15.53c-.243 0-.448.085-.55.252-.107.173-.09.395.022.62l2.73 4.726c.005.01.005.015 0 .023l-4.29 7.572c-.112.223-.106.447 0 .62a.595.595 0 0 0 .528.275h4.038c.604 0 .895-.408 1.101-.78l4.36-7.71a9603.39 9603.39 0 0 1-2.776-4.841c-.201-.358-.505-.758-1.125-.758h-4.038z" fill="currentColor"/></svg>