<svg width="48" height="48" viewBox="0 0 48 48" version="1.1" xmlns="http://www.w3.org/2000/svg">
    <title>
        yelp-large
    </title>
    <path d="M14.6215732,23.0192578 L20.8488488,26.0557177 C22.0467457,26.6403629 21.8619954,28.402046 20.5687436,28.724465 L13.8462181,30.4003286 C13.0076903,30.6095136 12.1798899,30.0308281 12.0809592,29.1726333 C11.8693903,27.3358582 12.0779793,25.5223258 12.6423616,23.8434823 C12.9165071,23.0281973 13.848006,22.6420097 14.6215732,23.0192578 M17.1151057,35.8385418 L21.7499533,30.6905653 C22.6415223,29.7000655 24.2840117,30.3633785 24.2375261,31.6953683 L23.9955629,38.6211191 C23.9657645,39.4840816 23.1820658,40.1229599 22.3304267,39.9799275 C20.5395411,39.6795593 18.8452025,38.9870438 17.3660085,37.9715134 C16.6556139,37.4828191 16.5376122,36.479804 17.1151057,35.8385418 M28.1047662,28.9878831 L34.6931988,31.1286022 C35.5132516,31.3950002 35.9131465,32.3229232 35.5412621,33.1012582 C34.7682908,34.7205048 33.6478699,36.1669205 32.2473438,37.3230996 C31.5810509,37.8725826 30.5828035,37.7110751 30.1250997,36.9786297 L26.4527413,31.1017836 C25.7465186,29.9712312 26.8371411,28.5754728 28.1047662,28.9878831 M34.8046449,24.7845167 L28.1446961,26.694 C26.8633637,27.0617126 25.8222066,25.6284082 26.5677633,24.5234825 L30.442155,18.7801333 C30.9236976,18.066759 31.9237328,17.9356459 32.5685708,18.5041999 C33.8969848,19.6764701 34.9846274,21.1425528 35.7194567,22.8386793 C36.0633306,23.6313175 35.6354251,24.5467253 34.8046449,24.7845167 M19.2427135,8.62423287 C18.0442207,8.94545993 16.900557,9.36978955 15.81947,9.88530237 C15.0691456,10.2428835 14.7854646,11.1672308 15.2014506,11.8871608 L21.7106194,23.1610983 C22.4406809,24.4263396 24.3745989,23.907847 24.3745989,22.4477239 L24.3745989,9.42938641 C24.3745989,8.59801025 23.6665882,7.93946497 22.8381919,8.00442555 C21.6438709,8.09858858 20.4412063,8.30300581 19.2427135,8.62423287" fill="currentColor" fill-rule="nonzero" stroke="none" stroke-width="1"/>
</svg>
