<svg width="24" height="24" viewBox="0 0 24 24" version="1.1" xmlns="http://www.w3.org/2000/svg">
    <title>
        yelp-small
    </title>
    <path d="M7.8107866,11.5096289 L10.9244244,13.0278588 C11.5233728,13.3201814 11.4309977,14.201023 10.7843718,14.3622325 L7.42310904,15.2001643 C7.00384515,15.3047568 6.58994497,15.015414 6.54047958,14.5863167 C6.43469516,13.6679291 6.53898966,12.7611629 6.82118078,11.9217412 C6.95825355,11.5140987 7.42400299,11.3210049 7.8107866,11.5096289 M9.05755285,17.9192709 L11.3749767,15.3452826 C11.8207611,14.8500328 12.6420058,15.1816893 12.6187631,15.8476842 L12.4977814,19.3105596 C12.4828822,19.7420408 12.0910329,20.06148 11.6652134,19.9899637 C10.7697706,19.8397797 9.92260124,19.4935219 9.18300424,18.9857567 C8.82780697,18.7414096 8.76880608,18.239902 9.05755285,17.9192709 M14.5523831,14.4939415 L17.8465994,15.5643011 C18.2566258,15.6975001 18.4565732,16.1614616 18.270631,16.5506291 C17.8841454,17.3602524 17.323935,18.0834603 16.6236719,18.6615498 C16.2905255,18.9362913 15.7914018,18.8555376 15.5625498,18.4893149 L13.7263707,15.5508918 C13.3732593,14.9856156 13.9185705,14.2877364 14.5523831,14.4939415 M17.9023225,12.3922584 L14.5723481,13.347 C13.9316818,13.5308563 13.4111033,12.8142041 13.7838816,12.2617412 L15.7210775,9.39006667 C15.9618488,9.03337948 16.4618664,8.96782294 16.7842854,9.25209995 C17.4484924,9.83823504 17.9923137,10.5712764 18.3597283,11.4193397 C18.5316653,11.8156588 18.3177126,12.2733626 17.9023225,12.3922584 M10.1213568,4.31211643 C9.52211036,4.47272996 8.95027851,4.68489478 8.40973501,4.94265118 C8.0345728,5.12144176 7.89273228,5.58361539 8.10072531,5.94358041 L11.3553097,11.5805492 C11.7203404,12.2131698 12.6872995,11.9539235 12.6872995,11.223862 L12.6872995,4.71469321 C12.6872995,4.29900512 12.3332941,3.96973249 11.919096,4.00221277 C11.3219355,4.04929429 10.7206032,4.1515029 10.1213568,4.31211643" fill="currentColor" fill-rule="nonzero" stroke="none" stroke-width="1"/>
</svg>
