<svg width="48" height="48" viewBox="0 0 48 48" version="1.1" xmlns="http://www.w3.org/2000/svg">
    <title>
        youku-large
    </title>
    <path d="M29,20.8 L24.1,17.2 C22.8,16.3 21.4,14.9 19.7,15.9 C18.5,16.6 18,18.2 18.8,19.5 C18.9,19.6 18.9,19.7 19,19.8 C19.4,20.3 19.9,20.7 20.5,21 C22,22.1 23.6,22.9 25.1,24 C23.8,24.9 22.3,26.1 21,27 C20.5,27.3 20,27.7 19.6,28 C18.4,28.9 18.2,30.5 19,31.6 C19,31.6 19,31.7 19.1,31.7 C20.6,33.6 22.5,32.2 24,31.2 L28.8,27.7 C30,26.9 32,25.3 32,24 C32,22.7 30.1,21.6 29,20.8 Z M40.7,20.7 C39.1,12.8 32.1,7.1 24,7 C14.6,7 7,14.6 7,24 C7,29.1 9.3,33.9 13.1,37.1 C20.3,43.1 31.1,42.1 37.1,34.9 C40.4,30.9 41.7,25.7 40.7,20.7 L40.7,20.7 Z M35.6,26.3 C34.3,32.7 28.1,36.9 21.6,35.6 C15.2,34.3 11,28.1 12.3,21.6 C13.6,15.1 19.8,11 26.3,12.3 C27.6,12.6 28.9,13.1 30.1,13.8 C34.4,16.5 36.6,21.4 35.6,26.3 Z" fill="currentColor" fill-rule="nonzero" stroke="none" stroke-width="1"/>
</svg>
