<svg id="youku-large" xmlns="http://www.w3.org/2000/svg" width="48" height="48" viewBox="0 0 48 48">
  <title>youku</title>
  <path id="youku-icon" d="M29.0161,20.8273l-4.9446-3.5806c-1.2843-.93-2.6851-2.2569-4.3687-1.2975a2.5987,2.5987,0,0,0-.7322,3.8461,7.4168,7.4168,0,0,0,1.4974,1.202C21.9395,22.0626,23.56,22.9346,25.0313,24c-1.3185.9465-2.7861,2.0866-4.1046,3.0332-.4788.3438-.9821.6685-1.4432,1.0361a2.6072,2.6072,0,0,0-.496,3.723c1.5475,1.896,3.4228.5178,4.8837-.5309L28.6923,27.8C29.9846,26.8724,32,25.2916,32,24,32,22.7291,30.1382,21.64,29.0161,20.8273Zm11.6716-.103A17.1914,17.1914,0,0,0,23.9942,7.0028,17.0071,17.0071,0,0,0,13.1286,37.0974a17.0107,17.0107,0,0,0,27.5591-16.373Zm-5.0428,5.6162A11.8778,11.8778,0,1,1,30.1358,13.85,12.0041,12.0041,0,0,1,35.6448,26.3405Z"/>
</svg>
