<svg id="youku-small" xmlns="http://www.w3.org/2000/svg" width="24" height="24" viewBox="0 0 24 24">
  <title>youku</title>
  <path id="youku-icon" d="M14.6556,10.32,12.0378,8.4247c-.68-.4924-1.4214-1.1948-2.3128-.687a1.3758,1.3758,0,0,0-.3876,2.0362,3.93,3.93,0,0,0,.7928.6364c.7789.564,1.6368,1.0256,2.4158,1.59-.698.5011-1.475,1.1047-2.173,1.6058-.2535.182-.52.3539-.764.5485a1.38,1.38,0,0,0-.2626,1.9711c.8193,1.0037,1.8121.2741,2.5854-.2811l2.5524-1.8324c.6842-.4911,1.7512-1.328,1.7512-2.0118C16.2353,11.3272,15.25,10.75,14.6556,10.32Zm6.1791-.0545a9.1013,9.1013,0,0,0-8.8377-7.2643A9.0038,9.0038,0,0,0,6.2446,18.9339a9.0056,9.0056,0,0,0,14.59-8.6681Zm-2.67,2.9733A6.2888,6.2888,0,1,1,7.9587,7.19a6.2883,6.2883,0,0,1,10.2062,6.049Z"/>
</svg>
