<svg width="24" height="24" viewBox="0 0 24 24" version="1.1" xmlns="http://www.w3.org/2000/svg">
    <title>
        youku-small
    </title>
    <path d="M14.7,10.3 L12,8.4 C11.3,7.9 10.6,7.2 9.7,7.7 C9.1,8.1 8.8,9 9.2,9.6 C9.2,9.7 9.3,9.7 9.3,9.8 C9.5,10 9.8,10.3 10.1,10.4 C10.9,11 11.7,11.4 12.5,12 C11.8,12.5 11,13.1 10.3,13.6 C10,13.8 9.8,14 9.5,14.1 C8.9,14.6 8.8,15.4 9.2,16 C9.2,16 9.2,16 9.2,16 C10,17 11,16.3 11.8,15.7 L14.4,13.9 C15.1,13.4 16.2,12.6 16.2,11.9 C16.2,11.3 15.2,10.7 14.7,10.3 L14.7,10.3 Z M20.8,10.3 C20,6.1 16.3,3 12,3 C7,3 3,7 3,12 C3,14.7 4.2,17.2 6.3,18.9 C10.1,22.1 15.8,21.6 19,17.7 C20.7,15.7 21.4,12.9 20.8,10.3 L20.8,10.3 Z M18.2,13.2 C17.5,16.6 14.2,18.8 10.8,18.1 C7.4,17.4 5.2,14.1 5.9,10.7 C6.2,9.3 6.9,8 8,7.1 C10.6,5 14.6,5.3 16.8,8 C18,9.4 18.5,11.4 18.2,13.2 Z" fill="currentColor" fill-rule="nonzero" stroke="none" stroke-width="1"/>
</svg>
