<svg xmlns="http://www.w3.org/2000/svg" width="48" height="48" viewBox="0 0 48px 48px"><path d="M38.7 18.002s-.293-2.067-1.192-2.978c-1.141-1.195-2.42-1.2-3.006-1.27-4.198-.304-10.496-.304-10.496-.304h-.013s-6.297 0-10.495.303c-.586.07-1.865.076-3.006 1.271-.9.91-1.192 2.978-1.192 2.978S9 20.43 9 22.857v2.276c0 2.428.3 4.856.3 4.856s.293 2.067 1.192 2.977c1.141 1.195 2.64 1.157 3.308 1.283 2.4.23 10.2.301 10.2.301s6.304-.01 10.502-.313c.586-.07 1.865-.076 3.006-1.27.9-.911 1.192-2.978 1.192-2.978s.3-2.428.3-4.856v-2.276c0-2.427-.3-4.855-.3-4.855zm-17.797 9.89l-.001-8.43 8.106 4.23-8.105 4.2z"/></svg>