<svg width="24" height="24" viewBox="0 0 24 24" version="1.1" xmlns="http://www.w3.org/2000/svg">
    <title>
        youtube-small
    </title>
    <path d="M18.9,9.1 C18.9,9.1 18.8,8.1 18.3,7.7 C17.8,7.1 17.2,7.1 16.9,7.1 C14.9,7 12,7 12,7 L12,7 C12,7 9.1,7 7.1,7.1 C6.8,7.1 6.2,7.1 5.7,7.7 C5.3,8.1 5.1,9.1 5.1,9.1 C5.1,9.1 5,10.2 5,11.3 L5,12.4 C5,13.5 5.1,14.7 5.1,14.7 C5.1,14.7 5.2,15.7 5.7,16.1 C6.2,16.7 6.9,16.6 7.2,16.7 C8.3,16.8 12,16.8 12,16.8 C12,16.8 14.9,16.8 16.9,16.7 C17.2,16.7 17.8,16.7 18.3,16.1 C18.7,15.7 18.9,14.7 18.9,14.7 C18.9,14.7 19,13.6 19,12.4 L19,11.3 C19,10.6 18.9,9.8 18.9,9.1 Z M10.6,13.7 L10.6,9.8 L14.4,11.8 L10.6,13.7 Z" fill="currentColor" fill-rule="nonzero" stroke="none" stroke-width="1"/>
</svg>
