<svg xmlns="http://www.w3.org/2000/svg" width="24" height="24" viewBox="0 0 24px 24px"><path d="M18.86 9.053s-.137-.965-.556-1.39c-.533-.558-1.13-.56-1.403-.593-1.96-.142-4.898-.142-4.898-.142h-.006s-2.939 0-4.898.142c-.274.033-.87.035-1.403.593-.42.425-.556 1.39-.556 1.39S5 10.185 5 11.318v1.063c0 1.132.14 2.265.14 2.265s.137.965.556 1.39c.533.558 1.232.54 1.544.598 1.12.108 4.76.141 4.76.141s2.942-.004 4.9-.146c.275-.033.871-.036 1.404-.593.42-.425.556-1.39.556-1.39s.14-1.133.14-2.266v-1.062a21.2 21.2 0 0 0-.14-2.265zm-8.305 4.615l-.001-3.934 3.783 1.974-3.782 1.96z"/></svg>