<svg id="zhihu-small" xmlns="http://www.w3.org/2000/svg" width="24" height="24" viewBox="0 0 24 24">
  <title>zhihu</title>
  <g class="audiicon-group audiicon-group--small">
    <path d="M3,20.4432a3.2957,3.2957,0,0,0,2.7283-.227c1.3453-.7951,2.3374-4.2913,2.3374-4.2913l3.1562,3.9127a5.7007,5.7007,0,0,0-.0511-2.3883c-.3389-.526-2.183-2.6409-2.183-2.6409l-.8054.7193.5729-2.3151h3.4385s0-1.3627-.6728-1.4385-2.7657,0-2.7657,0v-4.24h3.102s-.0371-1.4006-.6354-1.4006H6.1768l.7847-2.3093S5.6908,3.9,5.2423,4.695s-1.906,4.8834-1.906,4.8834.4859.2272,1.3081-.3785A3.2793,3.2793,0,0,0,5.7283,7.5342l1.495-.0757.037,4.3156s-2.5785-.0379-3.102,0-.8221,1.4385-.8221,1.4385H7.26A13.332,13.332,0,0,1,5.9152,17.339,11.771,11.771,0,0,1,3,20.4432Z" transform="translate(0)" fill-rule="evenodd" class="audiicon-zhihu__character-first"/>
    <path d="M14.6508,20.3467l2.2235-1.6H20V6H13V18.7465h1.1913ZM14.4377,7.4185h4.1246v9.88H17.0928l-1.8734,1.4306-.4084-1.4306h-.3733Z" transform="translate(0)" fill-rule="evenodd" class="audiicon-zhihu__character-second"/>
  </g>
  <rect width="24" height="24" fill="none"/>
</svg>