<?xml version="1.0" encoding="UTF-8" standalone="no"?>
<svg width="48px" height="48px" viewBox="0 0 48 48" version="1.1" xmlns="http://www.w3.org/2000/svg" xmlns:xlink="http://www.w3.org/1999/xlink">
    <!-- Generator: sketchtool 46.2 (44496) - http://www.bohemiancoding.com/sketch -->
    <title>zhihu-large</title>
    <desc>Created with sketchtool.</desc>
    <defs></defs>
    <g id="icons-published" stroke="none" stroke-width="1" fill="none" fill-rule="evenodd">
        <g id="briefing" transform="translate(-2304.000000, -2458.000000)"></g>
        <g id="zhihu-large" fill-rule="nonzero" fill="#000000">
            <path d="M9,36.8 C10.5,37.3 12.1,37.2 13.5,36.4 C15.7,35.1 17.4,29.3 17.4,29.3 L22.6,35.7 C22.6,35.7 23.1,32.6 22.5,31.8 C21.9,31 18.9,27.4 18.9,27.4 L17.6,28.6 L18.5,24.8 L24,24.8 C24,24.8 24,22.5 23,22.4 C21.9,22.3 18.4,22.4 18.4,22.4 L18.4,15.4 L23.5,15.4 C23.5,15.4 23.4,13.1 22.5,13.1 L14.2,13.1 L15.5,9.3 C15.5,9.3 13.4,9.4 12.7,10.7 C12,12 9.6,18.7 9.6,18.7 C9.6,18.7 10.4,19.1 11.8,18.1 C12.7,17.4 13.3,16.4 13.6,15.4 L16.1,15.3 L16.2,22.4 C16.2,22.4 12,22.3 11.1,22.4 C10.2,22.5 9.7,24.8 9.7,24.8 L16,24.8 C15.6,27.2 14.9,29.5 13.8,31.6 C12.5,33.7 10.9,35.4 9,36.8 Z M28.2,36.6 L31.9,34 L37,34 L37,13 L25.4,13 L25.4,34 L27.5,34 L28.2,36.6 Z M27.8,15.4 L34.6,15.4 L34.6,31.7 L32.2,31.7 L29.1,34 L28.4,31.6 L27.8,31.6 L27.8,15.4 Z" id="Shape"></path>
        </g>
    </g>
</svg>