<svg id="zhihu-large" xmlns="http://www.w3.org/2000/svg" width="48" height="48" viewBox="0 0 48 48">
  <title>zhihu</title>
  <g class="audiicon-group audiicon-group--large">
    <path d="M9,36.8024a5.4283,5.4283,0,0,0,4.4937-.374c2.2157-1.31,3.85-7.068,3.85-7.068l5.1985,6.4444s.4748-3.0671-.0843-3.9336-3.5954-4.35-3.5954-4.35l-1.3265,1.1848.9436-3.8131H24s0-2.2838-.9654-2.3694c-1.1107-.0985-4.5552,0-4.5552,0V15.5405h5.1091s-.0611-2.3069-1.0465-2.3069h-8.31L15.5249,9.43s-2.093.1247-2.8317,1.4342-3.1393,8.0433-3.1393,8.0433.8.3742,2.1545-.6234a5.4017,5.4017,0,0,0,1.7853-2.7436l2.4623-.1247.061,7.108s-4.2469-.0623-5.1091,0-1.354,2.3694-1.354,2.3694H16.017A21.96,21.96,0,0,1,13.8015,31.69,19.3891,19.3891,0,0,1,9,36.8024Z" transform="translate(0)" fill-rule="evenodd" class="audiicon-zhihu__character-first"/>
    <path d="M28.19,36.6435l3.6622-2.6356L37,34V13H25.352V34.0079h2.0807ZM27.818,15.35h6.814V31.6234h-2.42L29.1261,33.98l-.6727-2.3562H27.818Z" transform="translate(0)" fill-rule="evenodd" class="audiicon-zhihu__character-second"/>
  </g>
  <rect width="48" height="48" fill="none"/>
</svg>
