<svg width="24" height="24" viewBox="0 0 24 24" version="1.1" xmlns="http://www.w3.org/2000/svg">
    <title>
        zhihu-small
    </title>
    <path d="M3,20.4 C3.9,20.7 4.9,20.6 5.7,20.2 C7,19.4 8,15.9 8,15.9 L11.2,19.8 C11.4,19 11.3,18.2 11.1,17.4 C10.8,16.9 9,14.8 9,14.8 L8.2,15.5 L8.8,13.2 L12.2,13.2 C12.2,13.2 12.2,11.8 11.5,11.8 C10.8,11.8 8.7,11.8 8.7,11.8 L8.7,7.5 L11.8,7.5 C11.8,7.5 11.8,6.1 11.2,6.1 L6.2,6.1 L7,3.8 C7,3.8 5.7,3.9 5.3,4.7 C4.9,5.5 3.3,9.6 3.3,9.6 C3.3,9.6 3.8,9.8 4.6,9.2 C5.1,8.8 5.5,8.2 5.7,7.5 L7.2,7.4 L7.2,11.7 C7.2,11.7 4.6,11.7 4.1,11.7 C3.6,11.7 3.3,13.1 3.3,13.1 L7.2,13.1 C7,14.7 6.6,16 5.9,17.3 C5.1,18.5 4.2,19.6 3,20.4 Z M14.6,20.3 L16.8,18.7 L20,18.7 L20,6 L13,6 L13,18.7 L14.2,18.7 L14.6,20.3 Z M14.4,7.4 L18.5,7.4 L18.5,17.3 L17,17.3 L15.1,18.7 L14.7,17.3 L14.3,17.3 L14.4,7.4 Z" fill="currentColor" fill-rule="nonzero" stroke="none" stroke-width="1"/>
</svg>
