<?xml version="1.0" encoding="utf-8"?><svg xmlns="http://www.w3.org/2000/svg" xmlns:xlink="http://www.w3.org/1999/xlink"><symbol viewBox="0 0 48 48" id="audiicon-administrator-large"><path fill="none" stroke="currentColor" d="M18.5 34.498V40.5l-4 4h-5l-.5-1 3-3v-1L8.5 36h-1l-3 3-1-.5v-5l4-4h6l16-15.998V7.5l4-4h5l.5 1-3 3v1l3.5 3.5h1l3-3 1 .5v5l-4 4h-6l-16 15.998z"/></symbol><symbol viewBox="0 0 24 24" id="audiicon-administrator-small"><path fill="none" stroke="currentColor" d="M9.5 17.5V21L7 23.5H4l-.5-.5L5 21.5l.5-1-2-2-1 .5L1 20.5.5 20v-3L3 14.5h3.5l8-8V3L17 .5h3l.5.5-1.75 1.719-.25.781 2 2 .781-.25L23 3.5l.5.5v3L21 9.5h-3.5l-8 8z"/></symbol><symbol viewBox="0 0 48 48" id="audiicon-adress-book-large"><g fill="none" stroke="currentColor"><g stroke-miterlimit="10"><path d="M4.5 2.5h32v43h-32zm32 28h3.985a2.018 2.018 0 0 1 2.015 2.009V43.49a2.018 2.018 0 0 1-2.015 2.009H36.5m0-28.999h3.985a2.008 2.008 0 0 1 2.015 1.99V28.5a2.017 2.017 0 0 1-2.015 2H36.5"/><path d="M36.5 2.5h3.985A2.008 2.008 0 0 1 42.5 4.49V14.5a2.017 2.017 0 0 1-2.015 2H36.5"/></g><path d="M11.5 35.5v-9a3.007 3.007 0 0 1 2.997-3h11.006a2.999 2.999 0 0 1 2.997 3v9h-17zm7-24h2.939a3.061 3.061 0 0 1 3.061 3.061V17.5a3 3 0 0 1-3 3h-3a3 3 0 0 1-3-3v-3a3 3 0 0 1 3-3z"/></g></symbol><symbol viewBox="0 0 24 24" id="audiicon-adress-book-small"><g fill="none" stroke="currentColor"><g stroke-miterlimit="10"><path d="M1.5.5h17v23h-17zm17 15h2a1.004 1.004 0 0 1 1 1.001V22.5a1.004 1.004 0 0 1-1 1.001h-2"/><path d="M18 7.5h2.5a1.004 1.004 0 0 1 1 1.001V14.5a1.004 1.004 0 0 1-1 1.001H18M18.5.5h2a1.003 1.003 0 0 1 1 1v5a1.003 1.003 0 0 1-1 1h-2"/></g><path d="M5.5 17.5v-4.027a.991.991 0 0 1 1.008-.973h6.984a.994.994 0 0 1 1.008.974V17.5h-9z"/><rect x="7.5" y="5.5" width="5" height="5" rx="2" ry="2"/></g></symbol><symbol viewBox="0 0 48 48" id="audiicon-announcements-large"><g fill="none" stroke="currentColor"><path d="M23.5 12.5v14h-6l5.5 16h-7.5l-5-16h-7v-14h20z"/><path d="M23.5 12.5c7.313 0 17.5-6 17.5-6 2.047 0 3.5 5.157 3.5 13s-1.453 13-3.5 13c0 0-10.229-6-17.5-6" stroke-linejoin="round"/></g></symbol><symbol viewBox="0 0 24 24" id="audiicon-announcements-small"><g fill="none" stroke="currentColor"><path d="M11.5 5.5v8h-3l3 9h-4l-3-9h-4v-8h11z"/><path d="M11.5 5.5c3.937 0 10-3 10-3 1.162 0 2 2.547 2 7s-.838 7-2 7c0 0-6.064-3-10-3" stroke-linejoin="round"/></g></symbol><symbol viewBox="0 0 48 48" id="audiicon-apps-large"><g fill="none" stroke="currentColor" stroke-miterlimit="10"><path d="M38.475 9.5H41.5a3.01 3.01 0 0 1 3.002 2.999v29.002A3.01 3.01 0 0 1 41.5 44.5H12.504a3.01 3.01 0 0 1-3.002-2.999v-3.023"/><rect x="3.5" y="3.5" width="35" height="35" rx="3" ry="3" stroke-linecap="round"/><g stroke-linecap="round"><circle cx="11.132" cy="14.132" r="4.632"/><circle cx="17.711" cy="14.132" r="4.632"/><circle cx="24.289" cy="14.132" r="4.632"/><circle cx="30.868" cy="14.132" r="4.632"/></g></g></symbol><symbol viewBox="0 0 24 24" id="audiicon-apps-small"><g fill="none" stroke="currentColor" stroke-linecap="round" stroke-miterlimit="10"><path d="M21.453 3.033A3.278 3.278 0 0 1 23.5 6.056v14.17a3.283 3.283 0 0 1-3.274 3.274H6.056a3.277 3.277 0 0 1-3.023-2.047"/><rect x=".5" y=".5" width="21" height="21" rx="3" ry="3"/><circle cx="5.579" cy="7.001" r="2.5"/><circle cx="9.193" cy="7.001" r="2.5"/><circle cx="12.807" cy="7.001" r="2.5"/><circle cx="16.421" cy="7.001" r="2.5"/></g></symbol><symbol viewBox="0 0 48 48" id="audiicon-back-large"><path fill="none" stroke="currentColor" stroke-miterlimit="10" d="M28.635 14.365L19.5 23.5l9.135 9.135"/></symbol><symbol viewBox="0 0 24 24" id="audiicon-back-small"><path fill="none" stroke="currentColor" stroke-miterlimit="10" d="M13.985 16.939L8.5 11.496l5.48-5.435"/></symbol><symbol viewBox="0 0 48 48" id="audiicon-blog-post-large"><path d="M7.5 41.5v-12a3.008 3.008 0 0 1 2.999-3H28.5a3.008 3.008 0 0 1 2.999 3v12h-24zm9.03-31h5.97a3 3 0 0 1 3 3v6a3 3 0 0 1-3 3h-5.97a3.03 3.03 0 0 1-3.03-3.03v-5.94a3.03 3.03 0 0 1 3.03-3.03zm14.69-.027s5.13 5.483 0 10.696m5.327-14.602s11.135 9.577 0 19.358" fill="none" stroke="currentColor"/></symbol><symbol viewBox="0 0 24 24" id="audiicon-blog-post-small"><g fill="none" stroke="currentColor"><path d="M1.5 22.5v-6.921a1.047 1.047 0 0 1 .968-1.079h11.064a1.047 1.047 0 0 1 .968 1.079V22.5h-13z"/><rect x="4.5" y="4.5" width="7" height="7" rx="2" ry="2"/><path d="M15.188 4.423s2.951 3.155 0 6.155m3.464-8.648s6.407 5.51 0 11.14"/></g></symbol><symbol viewBox="0 0 48 48" id="audiicon-business-adress-large"><g fill="none" stroke="currentColor" stroke-miterlimit="10"><path d="M8 37.5h20m-20-5h28m-28.5-20V6.652A4.234 4.234 0 0 1 11.69 2.5h3.792A4.088 4.088 0 0 1 19.5 6.652l.035 14.886a3.978 3.978 0 0 1-3.971 4.013 4.056 4.056 0 0 1-4.064-4.013V7"/><path d="M46.5 14.5a2 2 0 0 0-2-2h-43v31a2 2 0 0 0 2 2h43v-31z"/></g></symbol><symbol viewBox="0 0 24 24" id="audiicon-business-adress-small"><g fill="none" stroke="currentColor" stroke-miterlimit="10"><path d="M3 17.5h14M3.5 7V3.842A2.33 2.33 0 0 1 5.813 1.5h2.333A2.357 2.357 0 0 1 10.5 3.834V10.5c0 1.105-.895 3-2 3s-2-1.895-2-3V4"/><path d="M22.485 6.5H.5v14.002a1.014 1.014 0 0 0 1.027.998H23.5V7.532A1.033 1.033 0 0 0 22.485 6.5z"/></g></symbol><symbol viewBox="0 0 48 48" id="audiicon-calendar-events-large"><path d="M12.5 38.5v5.13a1.876 1.876 0 0 0 1.87 1.87h28.227a1.904 1.904 0 0 0 1.903-1.87V13" fill="none" stroke="currentColor" stroke-miterlimit="10"/><path d="M3.5 7v29.605a1.876 1.876 0 0 0 1.87 1.87h22.232l9.898-9.947V7" fill="none" stroke="currentColor" stroke-linejoin="round"/><path fill="none" stroke="currentColor" stroke-miterlimit="10" d="M37.5 28.476h-10v10M3 2.5h35"/><path d="M13.043 11.94l-3.908.948v.828l3.61-.804v11.001H9.097v.821h8.473v-.821h-3.648V11.94h-.879zm9.298 5.274l-.374-.018.224-4.435h7.67v-.821h-8.697l-.3 6.104c5.575.122 8.4 1.209 8.4 3.23 0 1.271-.801 2.788-4.621 2.788a16.774 16.774 0 0 1-4.34-.607v.883a13.909 13.909 0 0 0 4.302.62c3.836 0 5.948-1.328 5.948-3.74 0-2.377-2.763-3.724-8.212-4.004z"/></symbol><symbol viewBox="0 0 24 24" id="audiicon-calendar-events-small"><path d="M5.5 19.493V22.5a1.001 1.001 0 0 0 .997 1h15.006a1.001 1.001 0 0 0 .997-1V6" fill="none" stroke="currentColor" stroke-miterlimit="10"/><path d="M.5 3v15.52a.99.99 0 0 0 .993.98H13.5l5-5V3" fill="none" stroke="currentColor" stroke-linejoin="round"/><path fill="none" stroke="currentColor" stroke-miterlimit="10" d="M18.5 14.5h-5v5M0 .5h18.997"/><path d="M4.018 5.91l2.062-.496h.603v5.762h1.755v.756H4v-.756h1.756V6.287l-1.738.387v-.765zm5.642 5.778v-.792a7.967 7.967 0 0 0 2.269.351c1.449 0 2.043-.468 2.043-1.161 0-1.206-2.746-1.36-4.051-1.377l.162-3.295h4.537v.756h-3.7l-.09 1.782c1.935.1 4.123.531 4.123 2.107 0 1.134-.918 1.98-3.043 1.98a6.662 6.662 0 0 1-2.25-.35z"/></symbol><symbol viewBox="0 0 48 48" id="audiicon-camera-large"><g fill="none" stroke="currentColor" stroke-miterlimit="10"><path d="M35.5 13.5h10v23a1.969 1.969 0 0 1-2 2h-41v-23a1.969 1.969 0 0 1 2-2h8v-2a1.97 1.97 0 0 1 2-2h19a1.974 1.974 0 0 1 2 2v2z"/><circle cx="24" cy="25" r="9.5"/></g></symbol><symbol viewBox="0 0 24 24" id="audiicon-camera-small"><g fill="none" stroke="currentColor" stroke-miterlimit="10"><path d="M17.5 7.5h5v11.004a.998.998 0 0 1-1 .996h-20v-11a1.001 1.001 0 0 1 1-1h4V6.496a.998.998 0 0 1 1-.996h9a.998.998 0 0 1 1 .993V7.5z"/><circle cx="12" cy="13" r="4.5"/></g></symbol><symbol viewBox="0 0 48 48" id="audiicon-cancel-large"><path d="M31.633 15.37L15.367 31.63m.003-16.263l16.26 16.266" fill="none" stroke="currentColor" stroke-miterlimit="10"/></symbol><symbol viewBox="0 0 24 24" id="audiicon-cancel-small"><path d="M5.902 17.1L17.098 5.9M5.9 5.902l11.2 11.196" fill="none" stroke="currentColor" stroke-miterlimit="10"/></symbol><symbol viewBox="0 0 48 48" id="audiicon-car-large"><g fill="none" stroke="currentColor" stroke-miterlimit="10"><path d="M46.537 34l-11.11-2.5M1.429 34l10.898-2.5m33.548-10.834L36 23.5H11.5l-9.399-2.806m44.318 3.068a7.386 7.386 0 0 1-3.514 1.694 73.38 73.38 0 0 1-4.49.359M1.54 23.797a7.575 7.575 0 0 0 3.76 1.898c2.788.37 3.507.509 4.36.18M39.521 15.5H44m-40 0h4.492"/><path d="M13.5 23.5s-2.814 1.716-3.712 2.285a1.103 1.103 0 0 0-.419 1.466 11.913 11.913 0 0 0 2.873 4.339c.688.778 3.471.91 3.471.91h16.24a17.286 17.286 0 0 0 3.186-.685c1.437-.494 3.068-3.944 3.457-4.827a.985.985 0 0 0-.36-1.305L33.5 23.5m-26.204-6h33.397"/><path d="M36.863 35.5l2.334.968c0 1.157.599 1.032.599 1.032s3.797.03 5.626 0c1.737-.028.997-8.633.997-8.633l.001.088c.037-.764.058-1.61.058-2.542a19.314 19.314 0 0 0-.578-5.686 4.354 4.354 0 0 0-1.143-1.297 5.393 5.393 0 0 0-2.029-.857c-1.323-.3-1.459-.224-1.982-.995s-2.088-3.613-2.088-3.613a15.139 15.139 0 0 0-2.421-2.6 3.674 3.674 0 0 0-1.05-.55A4.936 4.936 0 0 0 33.5 10.5h-19a5.194 5.194 0 0 0-1.72.316 3.735 3.735 0 0 0-.89.431 14.435 14.435 0 0 0-2.58 2.717s-1.564 2.843-2.088 3.614-.659.694-1.982.995a5.392 5.392 0 0 0-2.028.857 4.353 4.353 0 0 0-1.144 1.297 19.314 19.314 0 0 0-.578 5.686c0 .933.02 1.778.058 2.542l.001-.088s-.74 8.605.998 8.633c1.828.03 5.626 0 5.626 0s.598.125.598-1.032l2.334-.968h25.758z"/></g></symbol><symbol viewBox="0 0 48 48" id="audiicon-car-search-large"><g fill="none" stroke="currentColor" stroke-miterlimit="10"><path d="M46.537 36l-11.11-2.5M1.429 36l10.898-2.5M29 34.5h2.952a17.286 17.286 0 0 0 3.187-.685c1.437-.494 3.068-3.944 3.457-4.827a.985.985 0 0 0-.36-1.305L33.5 25.5M9.37 29.251a11.913 11.913 0 0 0 2.872 4.339c.688.778 3.471.91 3.471.91H23M1.54 25.797a7.575 7.575 0 0 0 3.76 1.898"/><path d="M46.419 25.762a7.386 7.386 0 0 1-3.514 1.694 73.38 73.38 0 0 1-4.49.359m7.46-5.149L36 25.5H24m15.521-8H44m-40 0h4.492m-6.665 6a23.356 23.356 0 0 0-.338 4.913c0 .933.021 1.778.058 2.542l.002-.088s-.74 8.605.997 8.633c1.829.03 5.626 0 5.626 0s.599.125.599-1.032l2.334-.968H25"/><path d="M31 37.5h5.863l2.334.968c0 1.157.599 1.032.599 1.032s3.797.03 5.626 0c1.737-.028.997-8.633.997-8.633l.001.088c.037-.764.058-1.609.058-2.541a19.314 19.314 0 0 0-.578-5.686 4.354 4.354 0 0 0-1.143-1.298 5.393 5.393 0 0 0-2.029-.857c-1.323-.3-1.459-.224-1.982-.995s-2.088-3.613-2.088-3.613a15.139 15.139 0 0 0-2.421-2.6 3.674 3.674 0 0 0-1.05-.55A4.936 4.936 0 0 0 33.5 12.5H29m-1 7h12.693M22 12.5h-7.5a5.194 5.194 0 0 0-1.72.316 3.735 3.735 0 0 0-.89.431 14.435 14.435 0 0 0-2.58 2.717S7.745 18.73 7.221 19.5H21"/><path d="M32.161 44.25L19.95 24.783m5.55-10.375c0 7.343-5.33 12.092-11.904 12.092A12.229 12.229 0 0 1 1.5 14.408 12.071 12.071 0 0 1 13.596 2.5 11.906 11.906 0 0 1 25.5 14.408z"/></g></symbol><symbol viewBox="0 0 24 24" id="audiicon-car-search-small"><g fill="none" stroke="currentColor" stroke-miterlimit="10"><path d="M23 9.5h-2.429M.633 13.326A18.73 18.73 0 0 0 .5 15.76v4.758a1.07 1.07 0 0 0 1.077.982H4.5v-2H12m5 0h2.5v2h2.923a1.07 1.07 0 0 0 1.077-.982V15.76c0-3.77-.7-4.167-.7-4.167L21.335 10.5a9.718 9.718 0 0 1-1.593-2.531A2.473 2.473 0 0 0 17.617 6.5H15m-4 0H6.383a2.473 2.473 0 0 0-2.125 1.469 11.233 11.233 0 0 1-1.31 2.197"/><path d="M16.712 22.766l-6.095-9.268M13.5 7.95a6.281 6.281 0 0 1-6.448 6.55A6.624 6.624 0 0 1 .5 7.95 6.538 6.538 0 0 1 7.052 1.5 6.45 6.45 0 0 1 13.5 7.95z"/></g></symbol><symbol viewBox="0 0 24 24" id="audiicon-car-small"><g fill="none" stroke="currentColor" stroke-miterlimit="10"><path d="M23.214 10.452s-.839.22-1.88.516a1.571 1.571 0 0 0-1.443 1.36c-.243 1.12-.566 1.578 1.059 1.266s2.545-.588 2.545-.588M.786 10.452s.839.22 1.88.516a1.571 1.571 0 0 1 1.443 1.36c.243 1.12.566 1.578-1.059 1.266s-2.544-.588-2.544-.588M23 7.459h-2.429M1 7.459h2.429M8.16 12.5h7.742l1.479.986-1.437 2.014H8.16l-1.541-2.014L8.16 12.5zm13.175-4H2.665"/><path d="M19.5 17.5v2h2.923a1.07 1.07 0 0 0 1.077-.982V13.76c0-3.77-.7-4.167-.7-4.167L21.335 8.5a9.718 9.718 0 0 1-1.593-2.531A2.473 2.473 0 0 0 17.617 4.5H6.383a2.473 2.473 0 0 0-2.125 1.469A9.718 9.718 0 0 1 2.665 8.5L1.2 9.594s-.7.395-.7 4.166v4.758a1.07 1.07 0 0 0 1.077.982H4.5v-2h15z"/></g></symbol><symbol viewBox="0 0 48 48" id="audiicon-caution-large"><g fill="none" stroke="currentColor"><path d="M23.5 33v4m0-19v11" stroke-linejoin="round"/><path stroke-miterlimit="10" d="M2.5 42.5l21-38 21 38h-42z"/></g></symbol><symbol viewBox="0 0 24 24" id="audiicon-caution-small"><g fill="none" stroke="currentColor"><path d="M11.5 16v2m0-10v6" stroke-linejoin="round"/><path stroke-miterlimit="10" d="M21.5 20.5h-20l10.026-18 9.974 18z"/></g></symbol><symbol viewBox="0 0 48 48" id="audiicon-co2-emission-large"><path d="M30.996 30.109l2.014-1.492c1.054-.779 1.526-1.25 1.526-1.832 0-.696-.395-1.064-1.346-1.064a5.363 5.363 0 0 0-1.91.386v-1.046a5.035 5.035 0 0 1 2.004-.403c1.886 0 2.657.772 2.657 2.066 0 1.224-1.07 1.945-2.074 2.656l-.857.608h3.48V31h-5.494v-.891zm-10.97-6.339a4.628 4.628 0 0 1 5.012-4.856c3.298 0 5.012 1.987 5.012 4.856a4.628 4.628 0 0 1-5.012 4.856c-3.298 0-5.012-1.987-5.012-4.856zm8.66 0a3.458 3.458 0 0 0-3.648-3.792 3.458 3.458 0 0 0-3.649 3.792 3.457 3.457 0 0 0 3.649 3.79 3.457 3.457 0 0 0 3.648-3.79zM11 23.77c0-3.052 2.207-4.856 5.077-4.856a7.99 7.99 0 0 1 2.96.505v1.157a7.52 7.52 0 0 0-2.778-.52c-2.35 0-3.895 1.22-3.895 3.714 0 2.779 1.96 3.727 3.856 3.727a8.855 8.855 0 0 0 3.025-.455v1.117a8.509 8.509 0 0 1-3.051.467C13.207 28.626 11 26.99 11 23.77z"/><path d="M12.87 14.634S16.152 7.5 23.215 7.5s8.633 5 8.633 5H36c2.41 0 7.442.636 7.442 7.128 0 6.122-3.942 6.92-3.942 6.92v2.795c0 2.61-.063 7.157-6.344 7.157H29.85a7.373 7.373 0 0 1-6.492 4 8.079 8.079 0 0 1-6.778-3.892C5.563 43.563 3 28.625 7.877 26.548a7.082 7.082 0 0 1-3.47-7.235c.722-5.074 6.437-4.844 8.463-4.679z" fill="none" stroke="currentColor" stroke-miterlimit="10"/></symbol><symbol viewBox="0 0 24 24" id="audiicon-co2-emission-small"><path d="M16.627 15.28l1.176-.87a1.595 1.595 0 0 0 .891-1.07c0-.407-.23-.622-.786-.622a3.132 3.132 0 0 0-1.115.226v-.612a2.94 2.94 0 0 1 1.17-.235c1.102 0 1.552.451 1.552 1.207a2.114 2.114 0 0 1-1.211 1.55l-.5.356h2.032v.591h-3.209v-.52zm-6.862-3.444A2.703 2.703 0 0 1 12.692 9a2.651 2.651 0 0 1 2.927 2.836 2.703 2.703 0 0 1-2.927 2.836 2.651 2.651 0 0 1-2.927-2.836zm5.058 0a2.02 2.02 0 0 0-2.131-2.215 2.02 2.02 0 0 0-2.13 2.215 2.019 2.019 0 0 0 2.13 2.214 2.019 2.019 0 0 0 2.13-2.214zm-10.33 0A2.752 2.752 0 0 1 7.458 9a4.667 4.667 0 0 1 1.73.295v.676a4.392 4.392 0 0 0-1.623-.304 2.021 2.021 0 0 0-2.275 2.169 2.045 2.045 0 0 0 2.252 2.177 5.171 5.171 0 0 0 1.767-.266v.652a4.97 4.97 0 0 1-1.782.273 2.722 2.722 0 0 1-3.034-2.836z"/><path d="M5.547 6.649S7.45 2.5 11.545 2.5s5.005 3 5.005 3h3.103s3.847.277 3.847 4.052-2 4.024-2 4.024v2.904a2.935 2.935 0 0 1-3 3.02h-3.108a4.293 4.293 0 0 1-3.764 2 4.72 4.72 0 0 1-3.93-2.074s-4.013 3.319-6.123-1.784c0 0-.62-2.987 1.076-4.066 0 0-2.151-1.327-2.151-3.07S.5 6.65 5.547 6.65z" fill="none" stroke="currentColor" stroke-miterlimit="10"/></symbol><symbol viewBox="0 0 48 48" id="audiicon-consumption-large"><path d="M33.626 33.563a7.875 7.875 0 0 0 6.359-7.694c0-4.259-7.75-15.391-7.75-15.391s-1.524 2.189-3.22 4.996M19.5 41.5c6.594 0 12-5.912 12-12.433S19.5 5.5 19.5 5.5s-12 17.046-12 23.567S12.906 41.5 19.5 41.5z" fill="none" stroke="currentColor" stroke-miterlimit="10"/></symbol><symbol viewBox="0 0 24 24" id="audiicon-consumption-small"><path d="M18.5 15.419a6.822 6.822 0 0 1-7 7.081 7.1 7.1 0 0 1-7-7.081c0-3.851 7-13.919 7-13.919s7 10.068 7 13.919z" fill="none" stroke="currentColor" stroke-miterlimit="10"/></symbol><symbol viewBox="0 0 48 48" id="audiicon-content-activities-large"><path d="M45.5 38.5h-34a3 3 0 0 1-3-3v-9l-6-6 6-6v-5h34a3 3 0 0 1 3 3v26zM16 28.5h23M16 18.495h23" fill="none" stroke="currentColor" stroke-miterlimit="10"/></symbol><symbol viewBox="0 0 24 24" id="audiicon-content-activities-small"><path d="M22.5 19.5h-17a2 2 0 0 1-2-2v-4l-3-3 3-3v-3h17a2 2 0 0 1 2 2v13zM7 14.5h12m-12-5h12" fill="none" stroke="currentColor" stroke-miterlimit="10"/></symbol><symbol viewBox="0 0 48 48" id="audiicon-dashboard-large"><path d="M3.5 3.5h9v9h-9zm16 0h9v9h-9zm16 0h9v9h-9zm-32 16h9v9h-9zm16 0h9v9h-9zm16 0h9v9h-9zm-32 16h9v9h-9zm16 0h9v9h-9zm16 0h9v9h-9z" fill="none" stroke="currentColor" stroke-miterlimit="10"/></symbol><symbol viewBox="0 0 24 24" id="audiicon-dashboard-small"><path d="M18.5 18.5h5v5h-5zm-9 0h5v5h-5zm-9 0h5v5h-5zm18-9h5v5h-5zm-9 0h5v5h-5zm-9 0h5v5h-5zm18-9h5v5h-5zm-9 0h5v5h-5zm-9 0h5v5h-5z" fill="none" stroke="currentColor" stroke-miterlimit="10"/></symbol><symbol viewBox="0 0 48 48" id="audiicon-dealer-request-large"><g fill="none" stroke="currentColor"><path d="M10 28.5H3.5m6.5 11H6.5a3 3 0 0 1-3-3v-34h15.936V19" stroke-miterlimit="10"/><path d="M12.502 21.5h28a3 3 0 0 1 3 3v20h-28a3 3 0 0 1-3-3v-20z"/><path d="M17.697 28.954l10.36 7.912 10.452-7.953"/></g></symbol><symbol viewBox="0 0 24 24" id="audiicon-dealer-request-small"><g fill="none" stroke="currentColor"><path d="M4 15.502H.5m3.5 6H1.493a.997.997 0 0 1-.993-1v-20h9v8.5" stroke-miterlimit="10"/><path d="M5.5 10.502h16a2 2 0 0 1 2 2v11h-16a2 2 0 0 1-2-2v-11z"/><path d="M8.49 14.932l5.983 4.569 6.037-4.593"/></g></symbol><symbol viewBox="0 0 48 48" id="audiicon-dealer-search-large"><g fill="none" stroke="currentColor" stroke-miterlimit="10"><path d="M23.5 27.12v17.394h-13a3 3 0 0 1-3-3V7.5h6.427m9.573 26h-16M20 7.5h3.5v14.415M31.514 22.155l9.293 12.826"/><circle cx="24.924" cy="13.985" r="10.499"/></g></symbol><symbol viewBox="0 0 24 24" id="audiicon-dealer-search-small"><g fill="none" stroke="currentColor" stroke-miterlimit="10"><path d="M11.5 14v8.5H3.493a.997.997 0 0 1-.993-1v-20h4.4m4.591 15h-9M11.5 2v9M16.332 11.165l5.286 7.295"/><circle cx="12.5" cy="6.5" r="6"/></g></symbol><symbol viewBox="0 0 48 48" id="audiicon-decrease-size-large"><g fill="none" stroke="currentColor" stroke-miterlimit="10"><path d="M2.5 20V9A2.497 2.497 0 0 1 5 6.5h40.5V39a2.497 2.497 0 0 1-2.5 2.5H31"/><path d="M20.5 41.5h-15a2.997 2.997 0 0 1-3-3v-10h15a2.997 2.997 0 0 1 3 3v10zm18.5-15H25.5V13m20-6.5l-20 20"/></g></symbol><symbol viewBox="0 0 24 24" id="audiicon-decrease-size-small"><g fill="none" stroke="currentColor" stroke-miterlimit="10"><path d="M3.5 11V6.5a1 1 0 0 1 1-1h16v13a1 1 0 0 1-1 1H15"/><path d="M10.5 19.5h-6a1 1 0 0 1-1-1v-4h6a1 1 0 0 1 1 1v4zm7.5-6h-5.5V8m8-2.5l-8 8"/></g></symbol><symbol viewBox="0 0 48 48" id="audiicon-direct-mail-large"><g fill="none" stroke="currentColor"><path d="M45.5 39.5h-41a2 2 0 0 1-2-2v-29h41a2 2 0 0 1 2 2v29z"/><path d="M7 17l17 13 17-13"/></g></symbol><symbol viewBox="0 0 24 24" id="audiicon-direct-mail-small"><g fill="none"><path d="M22.5 19.5h-19a2 2 0 0 1-2-2v-13h19a2 2 0 0 1 2 2v13z" stroke="currentColor"/><path stroke="#000" d="M5 9.5l7 5.5 7-5.5"/></g></symbol><symbol viewBox="0 0 48 48" id="audiicon-discussion-large"><path d="M40.5 33.5h-27l-11 11v-35a5 5 0 0 1 5-5h38v24a4.981 4.981 0 0 1-5 5z" fill="none" stroke="currentColor"/></symbol><symbol viewBox="0 0 24 24" id="audiicon-discussion-small"><path d="M21 17.5H6.5L.5 23V4.5a3 3 0 0 1 3-3h20V15a2.38 2.38 0 0 1-2.5 2.5z" fill="none" stroke="currentColor"/></symbol><symbol viewBox="0 0 48 48" id="audiicon-documents-large"><g fill="none" stroke="currentColor" stroke-miterlimit="10"><path d="M12 38.5h23m-23-6h23m-23-6h23m-5.5-24v11h11"/><path d="M40.5 13.5v32h-34v-43h23l11 11z"/></g></symbol><symbol viewBox="0 0 24 24" id="audiicon-documents-small"><g fill="none" stroke="currentColor" stroke-miterlimit="10"><path d="M7 18.5h10m-10-3h10m-10-3h10m-2.5-10v5h5"/><path d="M19.5 7.5v14h-15v-19h10l5 5z"/></g></symbol><symbol viewBox="0 0 48 48" id="audiicon-edit-large"><g fill="none" stroke="currentColor" stroke-miterlimit="10"><path d="M12.5 36.776V43.5l5.37-4.046L33.925 7.25a1 1 0 0 0-.449-1.341l-3.58-1.785a1 1 0 0 0-1.34.449z"/><path d="M26.324 9.049l9.397 4.685-6.47 12.977M12.5 36.776l5.37 2.678"/></g></symbol><symbol viewBox="0 0 24 24" id="audiicon-edit-small"><g fill="none" stroke="currentColor" stroke-miterlimit="10"><path d="M5.5 17.768V22.5l3.625-3.042 7.48-16.041a.667.667 0 0 0-.322-.886l-2.417-1.127a.667.667 0 0 0-.886.322z"/><path d="M11.828 4.196l6.642 3.097-2.583 5.539M5.5 17.768l3.626 1.69"/></g></symbol><symbol viewBox="0 0 48 48" id="audiicon-editorial-large"><g fill="none" stroke="currentColor" stroke-miterlimit="10"><path d="M11 32.48h26m-26-3.949h26m-26-3.989h26m-14-4.021h14m-14-4.044h14M23 12.55h14m-25.5-.05h9v8h-9z"/><path d="M41.5 6.5a3 3 0 0 0-3-3h-32v37a3 3 0 0 0 3 3h32v-37z"/></g></symbol><symbol viewBox="0 0 24 24" id="audiicon-editorial-small"><g fill="none" stroke="currentColor" stroke-miterlimit="10"><path d="M5 15.5h14m-14-3h14m-6-3h6m-6-3h6m-13.5 0h5v3h-5z"/><path d="M21.5 23.5H3.494a.999.999 0 0 1-.994-.998V.5h18.006a.999.999 0 0 1 .994.998V23.5z"/></g></symbol><symbol viewBox="0 0 48 48" id="audiicon-erase-large"><g fill="none" stroke="currentColor"><path d="M37.5 16v25a2.5 2.5 0 0 1-2.5 2.5H12A2.5 2.5 0 0 1 9.5 41V16M5 12.5h37l-3.394-5H8.393L5 12.5z" stroke-miterlimit="10"/><path stroke-linejoin="round" d="M23.5 7.435V4.447m-2.5.05h5"/></g></symbol><symbol viewBox="0 0 24 24" id="audiicon-erase-small"><g fill="none" stroke="currentColor"><path d="M5.5 9v10.5a.998.998 0 0 0 .991 1h10.018a.998.998 0 0 0 .991-1V9m-14-1.5h16l-1.434-2H4.934L3.5 7.5z" stroke-miterlimit="10"/><path stroke-linejoin="round" d="M11.5 5.5v-2m-1.5 0h3"/></g></symbol><symbol viewBox="0 0 48 48" id="audiicon-facebook-large"><path d="M20.095 20.421H15.1v4.395h4.995V38h5.86V24.816h5.86V20.42h-5.86v-1.769c0-1.327 1.397-4.09 3.432-4.09h2.427v-4.395h-5.127c-7.233 1.053-6.592 10.254-6.592 10.254z" fill-rule="evenodd"/></symbol><symbol viewBox="0 0 24 24" id="audiicon-facebook-small"><path d="M10.105 10.158H7.593v2.21h2.512V19h2.948v-6.632H16v-2.21h-2.947v-.89c0-.668.702-2.058 1.726-2.058H16V5h-2.579c-3.638.53-3.316 5.158-3.316 5.158z" fill-rule="evenodd"/></symbol><symbol viewBox="0 0 48 48" id="audiicon-favorite-large"><path fill="none" stroke="currentColor" stroke-miterlimit="10" d="M23.5 2.995l6.645 13.496 14.857 2.164-10.751 10.506 2.538 14.834L23.5 36.991l-13.289 7.004 2.538-14.834L1.998 18.655l14.857-2.164L23.5 2.995z"/></symbol><symbol viewBox="0 0 24 24" id="audiicon-favorite-small"><path fill="none" stroke="currentColor" stroke-miterlimit="10" d="M11.5 1.945l3.168 6.419 7.084 1.03-5.126 4.996 1.21 7.055-6.336-3.331-6.336 3.331 1.21-7.055-5.126-4.996 7.084-1.03L11.5 1.945z"/></symbol><symbol viewBox="0 0 48 48" id="audiicon-feed-large"><g fill="none" stroke="currentColor" stroke-miterlimit="10"><path d="M18.5 35.93a6.5 6.5 0 0 0-6.5-6.5M27.5 36A15.5 15.5 0 0 0 12 20.5M36.5 36A24.5 24.5 0 0 0 12 11.5"/><path d="M4.5 35.5v-32h36a3.009 3.009 0 0 1 3 3v37h-31a8 8 0 0 0-8-8z"/></g></symbol><symbol viewBox="0 0 24 24" id="audiicon-feed-small"><g fill="none" stroke="currentColor" stroke-miterlimit="10"><path d="M10.5 17A3.5 3.5 0 0 0 7 13.5m7.5 3.5A7.5 7.5 0 0 0 7 9.5M18.5 17A11.5 11.5 0 0 0 7 5.5"/><path d="M6.5 21.5a4 4 0 0 0-4-4v-16h19a.999.999 0 0 1 1 .992V21.5h-16z"/></g></symbol><symbol viewBox="0 0 48 48" id="audiicon-forward-large"><path fill="none" stroke="currentColor" stroke-miterlimit="10" d="M19.365 32.635L28.5 23.5l-9.135-9.135"/></symbol><symbol viewBox="0 0 24 24" id="audiicon-forward-small"><path fill="none" stroke="currentColor" stroke-miterlimit="10" d="M10.015 16.939l5.485-5.443-5.48-5.435"/></symbol><symbol viewBox="0 0 48 48" id="audiicon-fuel-large"><path d="M32 44.5H2m26.5 0V6c0-1.183-.817-2.5-2-2.5h-19c-1.183 0-2 1.317-2 2.5v38.5h23zm-2.5-24H8m28.5-17l9 9v21a1.912 1.912 0 0 1-2 2h-4a2 2 0 0 1-2-2v-11a2.006 2.006 0 0 0-2-2H31" fill="none" stroke="currentColor" stroke-miterlimit="10"/></symbol><symbol viewBox="0 0 24 24" id="audiicon-fuel-small"><path d="M15 21.5H1m12.5 0v-18a1 1 0 0 0-1-1h-9a1 1 0 0 0-1 1v18h11zm-1.5-11H4m11 0h1.5a1.056 1.056 0 0 1 1 1v5a1.003 1.003 0 0 0 1 1h2a1.003 1.003 0 0 0 1-1v-10l-4-4" fill="none" stroke="currentColor" stroke-miterlimit="10"/></symbol><symbol viewBox="0 0 48 48" id="audiicon-gps-large"><g fill="none" stroke="currentColor" stroke-miterlimit="10"><path d="M23.5 35v10m0-43v10M45 23.5H35m-23 0H2"/><circle cx="23.5" cy="23.5" r="17"/></g></symbol><symbol viewBox="0 0 24 24" id="audiicon-gps-small"><path d="M11.5 17v6m.003-23v6M23 11.5h-6m-11 0H0m20.5.02a9 9 0 1 1-9-9.02 8.99 8.99 0 0 1 9 9.02z" fill="none" stroke="currentColor" stroke-miterlimit="10"/></symbol><symbol viewBox="0 0 48 48" id="audiicon-group-discussion-large"><g fill="none" stroke="currentColor"><path d="M12.5 20.5h-6l-6 6v-22h24v8"/><path d="M43.5 36.5h-22l-9 8.5V12.5h35v20a3.943 3.943 0 0 1-4 4z"/></g></symbol><symbol viewBox="0 0 24 24" id="audiicon-group-discussion-small"><g fill="none" stroke="currentColor"><path d="M6.5 10.5h-3l-3 3v-11h12v4"/><path d="M21.5 18.5h-11l-4 4v-16h17v10a2 2 0 0 1-2 2z"/></g></symbol><symbol viewBox="0 0 48 48" id="audiicon-groups-large"><g fill="none" stroke="currentColor"><path d="M30.103 37.5H43.5V25.502a3.01 3.01 0 0 0-3-3.002H24"/><rect x="25.5" y="6.5" width="12" height="12" rx="3" ry="3"/><path d="M3.5 40.5V28.502A3.008 3.008 0 0 1 6.496 25.5h18.008a3.008 3.008 0 0 1 2.996 3.002V40.5h-24z"/><rect x="9.5" y="9.5" width="12" height="12" rx="3" ry="3"/></g></symbol><symbol viewBox="0 0 24 24" id="audiicon-groups-small"><g fill="none" stroke="currentColor"><path d="M15 18.5h7.5v-6a1.003 1.003 0 0 0-1-1H12"/><rect x="13.5" y="2.5" width="6" height="6" rx="2" ry="2"/><path d="M1.5 20.5v-6a1 1 0 0 1 1-1h10a1.002 1.002 0 0 1 1 1v6h-12z"/><rect x="4.5" y="4.5" width="6" height="6" rx="2" ry="2"/></g></symbol><symbol viewBox="0 0 48 48" id="audiicon-home-large"><g fill="none" stroke="currentColor"><path d="M39.5 19.677V39.5H10.56a3.052 3.052 0 0 1-3.06-3V19.677"/><path d="M44.5 23.5l-21-16.058L2.5 23.5"/></g></symbol><symbol viewBox="0 0 24 24" id="audiicon-home-small"><g fill="none" stroke="currentColor"><path d="M4.5 10.058V16.5a2 2 0 0 0 2 2h12v-8.432"/><path d="M20.828 11.813l-9.268-7.23-9.268 7.229"/></g></symbol><symbol viewBox="0 0 48 48" id="audiicon-increase-size-large"><g fill="none" stroke="currentColor" stroke-miterlimit="10"><path d="M40.5 28v13a2.579 2.579 0 0 1-2.5 2.5H2.5V12.86a2.38 2.38 0 0 1 2.411-2.36H23"/><path d="M2.5 24.5h24v19m3.5-38h15.5V21m-19 3.5l19-19"/></g></symbol><symbol viewBox="0 0 24 24" id="audiicon-increase-size-small"><g fill="none" stroke="currentColor" stroke-miterlimit="10"><path d="M18.5 14v5.5a.999.999 0 0 1-1 1h-15v-13a.999.999 0 0 1 1-1H11"/><path d="M2.5 12.5h10v8m1.5-16h6.5V11m-8 1.5l8-8"/></g></symbol><symbol viewBox="0 0 48 48" id="audiicon-indicators-large"><path d="M26.5 19.5v8h9v8l11.75-12-11.75-12v8h-9zm-5 8v-8h-9v-8L.75 23.5l11.75 12v-8h9z" fill="none" stroke="currentColor" stroke-miterlimit="10"/></symbol><symbol viewBox="0 0 24 24" id="audiicon-indicators-small"><path d="M13.5 13.5v-4h4v-4l5.75 6.004-5.75 5.992V13.5h-4zm-3 0v-4h-4v-4L.75 11.504l5.75 5.992V13.5h4z" fill="none" stroke="currentColor" stroke-miterlimit="10"/></symbol><symbol viewBox="0 0 48 48" id="audiicon-instagram-large"><path d="M32.667 12H15.333A3.333 3.333 0 0 0 12 15.333v17.334A3.333 3.333 0 0 0 15.333 36h17.334A3.333 3.333 0 0 0 36 32.667V15.333A3.333 3.333 0 0 0 32.667 12zm-8.625 7.292a4.667 4.667 0 1 1-4.667 4.666 4.667 4.667 0 0 1 4.667-4.666zM33 32.625c0 .368.076.375-.292.375H15.375c-.368 0-.375-.007-.375-.375V22h1.984a6.915 6.915 0 0 0-.276 1.98 7.333 7.333 0 0 0 14.667.004A6.952 6.952 0 0 0 31.1 22H33v10.625zm1-13.292a.667.667 0 0 1-.667.667h-3.666a.667.667 0 0 1-.667-.667v-3.666a.667.667 0 0 1 .667-.667h3.666a.667.667 0 0 1 .667.667v3.666z"/></symbol><symbol viewBox="0 0 24 24" id="audiicon-instagram-small"><path d="M16.333 6H7.667A1.667 1.667 0 0 0 6 7.667v8.666A1.667 1.667 0 0 0 7.667 18h8.666A1.667 1.667 0 0 0 18 16.333V7.667A1.667 1.667 0 0 0 16.333 6zm-4.312 3.646a2.333 2.333 0 1 1-2.334 2.333 2.333 2.333 0 0 1 2.334-2.333zM17 16.312a1.188 1.188 0 0 1-.646.688H7.688A1.26 1.26 0 0 1 7 16.312V11h1.492a3.458 3.458 0 0 0-.138.99 3.667 3.667 0 0 0 7.333.003A3.476 3.476 0 0 0 15.55 11H17v5.313zm-1-7.645a.333.333 0 0 1-.333.333h-1.334A.333.333 0 0 1 14 8.667V7.333A.333.333 0 0 1 14.333 7h1.334a.333.333 0 0 1 .333.333v1.334z"/></symbol><symbol viewBox="0 0 48 48" id="audiicon-interior-configuration-large"><g fill="none" stroke="currentColor" stroke-miterlimit="10"><path d="M24.226 39l4.928 6.343M4.511 43v-4s-.467-4.6 4.658-4.6S24.198 39 24.198 39c0-5.803 6.995-28.303 16.021-24 0 0 1.754.563.004 4s-9.999 26-9.999 26-.431.6-6.056.6z"/><rect x="35.5" y="2.5" width="7" height="9" rx="2" ry="2"/></g></symbol><symbol viewBox="0 0 24 24" id="audiicon-interior-configuration-small"><path d="M12.324 19.501l2.345 2.996M2.5 21.501v-1.983a2.154 2.154 0 0 1 2.39-2.28c2.54 0 7.491 2.28 7.491 2.28a11.945 11.945 0 0 1 .877-3.623c1.208-2.995 4.17-7.813 7.096-6.275a2.749 2.749 0 0 1 .007 1.983c-.805 1.735-4.955 10.89-4.955 10.89s-.293.007-3.082.007zM18.5 2.5a.984.984 0 0 1 .968-1h1.064a.984.984 0 0 1 .968 1v4a.984.984 0 0 1-.968 1h-1.064a.984.984 0 0 1-.968-1v-4z" fill="none" stroke="currentColor" stroke-miterlimit="10"/></symbol><symbol viewBox="0 0 48 48" id="audiicon-languages-large"><g fill="none" stroke="currentColor" stroke-miterlimit="10"><path d="M32.5 23.949C32.5 35.823 28.695 45.5 24 45.5s-8.5-9.626-8.5-21.5S19.306 2.5 24 2.5s8.5 9.575 8.5 21.449zM5.293 34.5h37.413m-40.2-10h42.988m-40.736-10h38.484"/><path d="M45.5 23.948A21.5 21.5 0 1 1 24 2.5a21.543 21.543 0 0 1 21.5 21.448z"/></g></symbol><symbol viewBox="0 0 24 24" id="audiicon-languages-small"><g fill="none" stroke="currentColor" stroke-miterlimit="10"><ellipse cx="11.5" cy="11.5" rx="5" ry="11"/><path d="M1.7 16.5h19.6m-20.8-5h22m-20.8-5h19.6"/><circle cx="11.5" cy="11.5" r="11"/></g></symbol><symbol viewBox="0 0 48 48" id="audiicon-lights-day-large"><g fill="none" stroke="currentColor" stroke-miterlimit="10"><path d="M21.5 23.5c0-3.31-5.526-6.225-8.758-7.803a1.51 1.51 0 0 0-2.242 1.559v12.488a1.51 1.51 0 0 0 2.242 1.559c3.232-1.578 8.758-4.494 8.758-7.803zM1.187 30.511l7.5-3.007M1 23.5h8m-.313-3.996l-7.5-3.008M25.5 23.5c0-3.31 5.526-6.225 8.758-7.803a1.51 1.51 0 0 1 2.242 1.559v12.488a1.51 1.51 0 0 1-2.242 1.559C31.026 29.725 25.5 26.809 25.5 23.5zm21.313 7.011l-7.5-3.007M47 23.5h-8m.313-3.996l7.5-3.008"/></g></symbol><symbol viewBox="0 0 24 24" id="audiicon-lights-day-small"><g fill="none" stroke="currentColor" stroke-miterlimit="10"><path d="M10.5 11.5c0-1.893-2.234-3.542-3.7-4.568a.801.801 0 0 0-1.3.764v7.608a.801.801 0 0 0 1.3.764c1.466-1.026 3.7-2.675 3.7-4.568zM.259 16.563l3.55-2.151M0 11.5h4M.259 6.438l3.55 2.15M13.5 11.5c0-1.893 2.234-3.542 3.7-4.568a.801.801 0 0 1 1.3.764v7.608a.801.801 0 0 1-1.3.764c-1.466-1.026-3.7-2.675-3.7-4.568zM24 16.563l-3.55-2.151M24 11.5h-4m4-5.062l-3.55 2.15"/></g></symbol><symbol viewBox="0 0 48 48" id="audiicon-lights-dim-large"><path d="M16.808 33.5L4.192 37.875M16.808 28.5L4.192 32.875M16.808 23.5L4.192 27.875M16.808 18.5L4.192 22.875M16.808 13.5L4.192 17.875M42.5 23.5c0-5.791-11.555-10.894-18.312-13.655-2.417-.987-4.688.211-4.688 2.728v21.855c0 2.516 2.27 3.714 4.688 2.727C30.945 34.394 42.5 29.29 42.5 23.5z" fill="none" stroke="currentColor" stroke-miterlimit="10"/></symbol><symbol viewBox="0 0 24 24" id="audiicon-lights-dim-small"><path d="M7.063 16.459L.164 18.852m6.899-7.127L.164 14.118m6.899-7.127L.164 9.383M23.5 11.5c0-3.413-7.033-6.42-11.147-8.046-1.47-.582-2.853.124-2.853 1.607v12.878c0 1.483 1.382 2.19 2.853 1.607C16.467 17.92 23.5 14.913 23.5 11.5z" fill="none" stroke="currentColor" stroke-miterlimit="10"/></symbol><symbol viewBox="0 0 48 48" id="audiicon-lights-full-beam-large"><path d="M4 33.5h13m-13-5h13m-13-5h13m-13-5h13m-13-5h13m25.5 10c0-5.791-11.555-10.894-18.312-13.655-2.417-.987-4.688.211-4.688 2.728v21.855c0 2.516 2.27 3.714 4.688 2.727C30.945 34.394 42.5 29.29 42.5 23.5z" fill="none" stroke="currentColor" stroke-miterlimit="10"/></symbol><symbol viewBox="0 0 24 24" id="audiicon-lights-full-beam-small"><path d="M0 15.5h7m-7-4h7m-7-4h7m16.5 4c0-3.413-7.033-6.42-11.147-8.046-1.47-.582-2.853.124-2.853 1.607v12.878c0 1.483 1.382 2.19 2.853 1.607C16.467 17.92 23.5 14.913 23.5 11.5z" fill="none" stroke="currentColor" stroke-miterlimit="10"/></symbol><symbol viewBox="0 0 48 48" id="audiicon-lights-led-large"><g fill="none" stroke="currentColor" stroke-miterlimit="10"><path d="M13 27.5h1m1 0h1m1 0h1m1 0h1m1 0h1m1 0h1m1 0h1m1 0h1m1 0h1m1 0h1m1 0h1m1-1h1m1-1h1m0-2h1m-1-2h1m-1-2h1m-1-2h1m-15.554 1.767s.842 3.349 6.408 3.349c6.036 0 4.685-7.244 4.685-7.244"/><path d="M21.925 36.142s-8.602 3.264-19.463-10.037l43.075-14.6-2.042 16.718s-.444 3.23-2.285 3.581z"/></g></symbol><symbol viewBox="0 0 24 24" id="audiicon-lights-led-small"><g fill="none" stroke="currentColor" stroke-miterlimit="10"><path d="M7 13.5h1m1 0h1m1 0h1m1 0h1m1 0h1m1-1h1m1-1h1m-1-2h1m-8.097-.223s.286 1.292 3.13 1.292c3.084 0 1.793-3.293 1.793-3.293"/><path d="M10.792 17.61S6.398 19.276.85 12.481l22.108-7.204-1.145 8.286s-.227 1.65-1.167 1.83z"/></g></symbol><symbol viewBox="0 0 48 48" id="audiicon-lights-xenon-large"><g fill="none" stroke="currentColor" stroke-miterlimit="10"><path d="M39.636 19.016l-1.076 7.536-18.557 5.336s-3.279.702-8.315-4.162l8.651-2.707"/><path d="M23.446 19.267s.842 3.349 6.408 3.349c6.036 0 4.685-7.244 4.685-7.244"/><path d="M21.925 36.142s-8.602 3.264-19.463-10.037l43.075-14.6-2.042 16.718s-.444 3.23-2.285 3.581z"/></g></symbol><symbol viewBox="0 0 24 24" id="audiicon-lights-xenon-small"><g fill="none" stroke="currentColor" stroke-miterlimit="10"><path d="M19.866 9.115l-.506 3.543-9.494 2.804s-1.798.33-4.166-1.957l4.324-1.273"/><path d="M11.903 9.277s.286 1.292 3.13 1.292c3.084 0 1.793-3.293 1.793-3.293"/><path d="M10.792 17.61S6.398 19.276.85 12.481l22.108-7.204-1.145 8.286s-.227 1.65-1.167 1.83z"/></g></symbol><symbol viewBox="0 0 48 48" id="audiicon-list-large"><g fill="none" stroke="currentColor" stroke-miterlimit="10"><path d="M16 30.5h5m-9 0h2m2-6h12m-16 0h2M16 18.5h18m-22 0h2"/></g></symbol><symbol viewBox="0 0 24 24" id="audiicon-list-small"><g fill="none" stroke="currentColor" stroke-miterlimit="10"><path d="M7 15.5h5m-9 0h2m2-4h9m-13 0h2M7 7.5h14m-18 0h2"/></g></symbol><symbol viewBox="0 0 48 48" id="audiicon-logbook-large"><g fill="none" stroke="currentColor" stroke-miterlimit="10"><circle cx="24.5" cy="22" r="3.5"/><path d="M24.5 25.5v5m3.5-9h7.5m-14.5 0h-7.5m4.56 9h12.88A10.338 10.338 0 0 0 35.5 22a10.759 10.759 0 0 0-11-10.5 10.759 10.759 0 0 0-11 10.5 10.338 10.338 0 0 0 4.56 8.5z"/><path d="M6 39.5h4.877M6 8.5h4.877m26.622 37H8.5v-43h28.999a3 3 0 0 1 3.001 3v37a3 3 0 0 1-3.001 3z"/></g></symbol><symbol viewBox="0 0 24 24" id="audiicon-logbook-small"><g fill="none" stroke="currentColor" stroke-miterlimit="10"><circle cx="13.5" cy="11.548" r="1.702"/><path d="M13.5 13.249V16.5m5.888-5h-4.186m-3.404 0H7.612m9.088 5a5.833 5.833 0 0 0 2.8-4.983 6 6 0 1 0-12 0 5.822 5.822 0 0 0 2.812 4.983H16.7z"/><path d="M1 18.5h5m-5-13h5m16.5 16a1 1 0 0 1-1 1h-18v-21h18a1 1 0 0 1 1 1v19z"/></g></symbol><symbol viewBox="0 0 48 48" id="audiicon-login-large"><g fill="none" stroke="currentColor" stroke-miterlimit="10"><circle cx="40.5" cy="23.5" r="1"/><path d="M27.102 26.496a9.979 9.979 0 1 0-.012-5.996H4.641l-3.952 4 3.719 4H6.5l3.105-1.991L13.71 28.5l3.98-2 4.481 2 3.64-1.995z"/></g></symbol><symbol viewBox="0 0 24 24" id="audiicon-login-small"><path d="M14.77 10.5a4.493 4.493 0 0 1 8.73 1.427 4.478 4.478 0 0 1-8.704 1.494H13.54L11.594 14.5l-1.946-1.261L7.694 14.5l-2.06-1.286L3.73 14.5H2.8l-2-2.05 2.111-1.95H14.77z" fill="none" stroke="currentColor" stroke-miterlimit="10"/></symbol><symbol viewBox="0 0 48 48" id="audiicon-mobile-phone-large"><path d="M30.497 39.5H17.503a2.003 2.003 0 0 1-2.003-2.131V10.305A1.978 1.978 0 0 1 17.503 8.5h12.994a1.978 1.978 0 0 1 2.003 1.805v27.064a2.003 2.003 0 0 1-2.003 2.131zm-14.989-6.012H32.5M15.508 11.5H32.5M22 36.49h4" fill="none" stroke="currentColor" stroke-miterlimit="10"/></symbol><symbol viewBox="0 0 24 24" id="audiicon-mobile-phone-small"><g fill="none" stroke="currentColor" stroke-miterlimit="10"><rect x="7.5" y="3.5" width="9" height="16" rx="1" ry="1"/><path d="M7.504 15.5H16.5m-8.996-10H16.5m-5.5 12h2"/></g></symbol><symbol viewBox="0 0 48 48" id="audiicon-more-large"><g fill="none" stroke="currentColor" stroke-miterlimit="10"><circle cx="38.5" cy="24.5" r="2.5"/><circle cx="23.5" cy="24.5" r="2.5"/><circle cx="8.5" cy="24.5" r="2.5"/></g></symbol><symbol viewBox="0 0 24 24" id="audiicon-more-small"><g fill="none" stroke="currentColor" stroke-miterlimit="10"><circle cx="18.5" cy="11.5" r="1.125"/><circle cx="11.5" cy="11.5" r="1.125"/><circle cx="4.5" cy="11.5" r="1.125"/></g></symbol><symbol viewBox="0 0 48 48" id="audiicon-my-dealer-large"><g fill="none" stroke="currentColor"><path d="M19 27.5H7.5m5.398 12h-3.39A2.005 2.005 0 0 1 7.5 37.498V2.5h16v10.418" stroke-miterlimit="10"/><path d="M15.5 45.5V33.494a3.007 3.007 0 0 1 3.003-2.994h17.994a3.007 3.007 0 0 1 3.003 2.994V45.5h-24z"/><rect x="21.5" y="15.5" width="12" height="12" rx="3" ry="3"/></g></symbol><symbol viewBox="0 0 24 24" id="audiicon-my-dealer-small"><g fill="none" stroke="currentColor"><path d="M9 15.5H3.5m2.5 6H4.493a.992.992 0 0 1-.993-.995V.5h9v6.422" stroke-miterlimit="10"/><path d="M7.5 23.5v-4.922a1.046 1.046 0 0 1 .968-1.078h11.064a1.046 1.046 0 0 1 .968 1.078V23.5h-13z"/><rect x="10.5" y="8.5" width="7" height="7" rx="2" ry="2"/></g></symbol><symbol viewBox="0 0 48 48" id="audiicon-news-large"><g fill="none" stroke="currentColor" stroke-miterlimit="10"><path d="M39.215 18.5l5.863.01L34.5 37.5m0-23h5.697l-5.697 23m-32-20v20h32v-28h-24l-8 8z"/><path d="M10.5 9.5v8h-8m4.5 13h23m-23-6h23"/></g></symbol><symbol viewBox="0 0 24 24" id="audiicon-news-small"><g fill="none" stroke="currentColor" stroke-miterlimit="10"><path d="M19.7 9.5h3.4l-5.9 10"/><path d="M17 7.5h3.2l-3 12M.5 9.5v10h15v-15h-10l-5 5z"/><path d="M.5 9.5h5v-5m-2.495 11H13m-9.995-3H13"/></g></symbol><symbol viewBox="0 0 48 48" id="audiicon-notepad-large"><g fill="none" stroke="currentColor" stroke-miterlimit="10"><path d="M16 26.5h17M24.5 18v17m17-22v32.5h-34v-43H31L41.5 13z"/><path d="M30.5 2.5v11h11"/></g></symbol><symbol viewBox="0 0 24 24" id="audiicon-notepad-small"><g fill="none" stroke="currentColor" stroke-miterlimit="10"><path d="M8 13.5h7M11.5 10v7m8-10v15.5h-16v-20H15L19.5 7z"/><path d="M14.5 2.5v5h5"/></g></symbol><symbol viewBox="0 0 48 48" id="audiicon-off-canvas-large"><path d="M13 30.5h22m-22-6h22m-22-6h22" fill="none" stroke="currentColor" stroke-miterlimit="10"/></symbol><symbol viewBox="0 0 24 24" id="audiicon-off-canvas-small"><path d="M3 15.5h18m-18-4h18m-18-4h18" fill="none" stroke="currentColor" stroke-miterlimit="10"/></symbol><symbol viewBox="0 0 48 48" id="audiicon-pause-large"><path d="M17.5 9v29m12-29v29" fill="none" stroke="currentColor" stroke-miterlimit="10"/></symbol><symbol viewBox="0 0 24 24" id="audiicon-pause-small"><path d="M7.5 3v17m8-17v17" fill="none" stroke="currentColor" stroke-linejoin="round"/></symbol><symbol viewBox="0 0 48 48" id="audiicon-photo-large"><g fill="none" stroke="currentColor" stroke-miterlimit="10"><path d="M1.5 6.5h45v34h-45z"/><path d="M1.5 40.5l18-17.988 9 8.988 9-8.987 9 8.987"/><circle cx="11" cy="16" r="4.5"/></g></symbol><symbol viewBox="0 0 24 24" id="audiicon-photo-small"><g fill="none" stroke="currentColor" stroke-miterlimit="10"><path d="M.5 2.5h23v19H.5z"/><path d="M.5 21.5l8.981-9 4.923 4.858 4.965-4.858 4.131 3.868"/><circle cx="5.5" cy="8.5" r="2"/></g></symbol><symbol viewBox="0 0 48 48" id="audiicon-play-large"><path fill="none" stroke="currentColor" stroke-linejoin="round" d="M13.5 9.329L34.382 23.31 13.5 37.671V9.329z"/></symbol><symbol viewBox="0 0 24 24" id="audiicon-play-small"><path fill="none" stroke="currentColor" stroke-linejoin="round" d="M6.5 3.282l12 8.108-12 8.328V3.282z"/></symbol><symbol viewBox="0 0 48 48" id="audiicon-poi-favorite-large"><g fill="none" stroke="currentColor" stroke-miterlimit="10"><path d="M23.5 8.5l2.781 5.635 6.219.904-4.5 4.386 1.062 6.194-5.562-2.924-5.562 2.924L19 19.425l-4.5-4.386 6.219-.904L23.5 8.5z"/><path d="M37.5 17.5a14 14 0 0 0-28 0c0 7.732 14 27 14 27s14-19.268 14-27z"/></g></symbol><symbol viewBox="0 0 24 24" id="audiicon-poi-favorite-small"><g fill="none" stroke="currentColor" stroke-miterlimit="10"><path d="M11.5 3.75l1.468 2.974 3.282.477-2.375 2.315.561 3.269-2.936-1.543-2.936 1.543.561-3.269L6.75 7.201l3.282-.477L11.5 3.75z"/><path d="M18.5 8.5a7 7 0 0 0-14 0c0 3.866 7 14 7 14s7-10.134 7-14z"/></g></symbol><symbol viewBox="0 0 48 48" id="audiicon-poi-large"><g fill="none" stroke="currentColor" stroke-miterlimit="10"><circle cx="23.5" cy="17.5" r="7"/><path d="M37.5 17.5a14 14 0 0 0-28 0c0 7.732 14 27 14 27s14-19.268 14-27z"/></g></symbol><symbol viewBox="0 0 48 48" id="audiicon-poi-search-large"><g fill="none" stroke="currentColor" stroke-miterlimit="10"><path d="M39.533 32.547L28.599 22.285"/><circle cx="23.5" cy="17.5" r="7"/><path d="M36.657 21.62a13.527 13.527 0 0 0 .843-4.12 14 14 0 0 0-28 0c0 7.732 14 27 14 27s3.922-5.398 7.614-11.626"/></g></symbol><symbol viewBox="0 0 24 24" id="audiicon-poi-search-small"><g fill="none" stroke="currentColor" stroke-miterlimit="10"><path d="M18.761 15.76l-5.14-5.139m0 0a3 3 0 1 0-2.121.879 2.99 2.99 0 0 0 2.121-.879"/><path d="M17.627 11.799A9.575 9.575 0 0 0 18.5 8.5a7 7 0 0 0-14 0c0 3.866 7 14 7 14s2.302-3.334 4.266-6.907"/></g></symbol><symbol viewBox="0 0 24 24" id="audiicon-poi-small"><g fill="none" stroke-miterlimit="10"><circle cx="11.5" cy="8.5" r="3" stroke="currentColor"/><path d="M18.5 8.5a7 7 0 0 0-14 0c0 3.866 7 14 7 14s7-10.134 7-14z" stroke="#000"/></g></symbol><symbol viewBox="0 0 48 48" id="audiicon-pois-large"><g fill="none" stroke="currentColor" stroke-miterlimit="10"><circle cx="39.589" cy="28.145" r="3.104"/><path d="M33.086 32.642C34.962 35.81 39.404 42 39.404 42S46.5 32.247 46.5 28.362a6.85 6.85 0 0 0-7.033-7.141"/><circle cx="22.5" cy="17.5" r="7"/><path d="M36.5 17.5a14 14 0 0 0-28 0c0 7.732 14 27 14 27s14-19.268 14-27z"/></g></symbol><symbol viewBox="0 0 24 24" id="audiicon-pois-small"><g fill="none" stroke="currentColor" stroke-miterlimit="10"><path d="M20.125 11.211a3.49 3.49 0 0 1 3.375 3.495c0 1.753-3.204 5.856-3.204 5.856s-2.195-2.916-3-4.25"/><circle cx="11.5" cy="8.5" r="3"/><path d="M18.5 8.5a7 7 0 0 0-14 0c0 3.866 7 14 7 14s7-10.134 7-14z"/></g></symbol><symbol viewBox="0 0 48 48" id="audiicon-polls-large"><path d="M5 44.5h38m-9.5-32h9v27h-9zm-14-9h9v36h-9zm-14 16h9v20h-9z" fill="none" stroke="currentColor" stroke-miterlimit="10"/></symbol><symbol viewBox="0 0 24 24" id="audiicon-polls-small"><path d="M1 23.5h22m-5.5-18h5v15h-5zm-8-5h5v20h-5zm-8 9h5v11h-5z" fill="none" stroke="currentColor" stroke-miterlimit="10"/></symbol><symbol viewBox="0 0 48 48" id="audiicon-print-large"><g fill="none" stroke="currentColor" stroke-miterlimit="10"><path d="M38.5 27.5h5.002a2 2 0 0 1 1.998 2v15h-43v-15a2 2 0 0 1 1.998-2H9.5"/><path d="M38.5 13.498V35.5h-29v-32h19l10 9.998z"/><path d="M28.5 3.5v10h10M16 27.5h16m-16-7h16"/></g></symbol><symbol viewBox="0 0 24 24" id="audiicon-print-small"><g fill="none" stroke="currentColor" stroke-miterlimit="10"><path d="M19.603 14.5H22.5a.993.993 0 0 1 1 .987V23.5H.5v-8.013a.993.993 0 0 1 1-.987h2.985"/><path d="M19.5 6.5v12h-15v-17h10l5 5z"/><path d="M14.5 1.5v5h5M8 14.5h8m-8-4h8"/></g></symbol><symbol viewBox="0 0 48 48" id="audiicon-profile-large"><g fill="none" stroke="currentColor" stroke-miterlimit="10"><path d="M15.562 41.298a12.559 12.559 0 0 0 7.022 2.202c6.53 0 12-4.902 14.38-12.787"/><path d="M20.804 39.58a18.221 18.221 0 0 0 9.655-5.747c4.25-4.833 4.122-6.763 7.899-7.29M11.613 38.598a25.816 25.816 0 0 0 13.346-6.015c6-5.333 7-9.725 13.083-9.975M10.126 25.75a23.209 23.209 0 0 0 7.583-4.25c4.167-3.333 5.124-5.295 6.833-3.417C28.5 22.431 13.333 30 10.126 30.917"/><path d="M9.642 20.708s4.317-.958 8.484-6.125c4.612-5.719 8.804-2.614 10.25 2.084 1 3.25 2.624 10.5-17.793 18.5"/><path d="M10.792 15.417s5.334-7.884 12.25-7.884 9.923 7.012 9.923 12.823"/><path d="M37.438 19.812C36.124 9.5 30.098 3.5 22.584 3.5a13.572 13.572 0 0 0-10.237 5.07"/></g></symbol><symbol viewBox="0 0 24 24" id="audiicon-profile-small"><g fill="none" stroke="currentColor" stroke-miterlimit="10"><path d="M19.695 16.483c-1.745 4.05-4.34 5.937-7.168 6.785a5.799 5.799 0 0 1-4.996-.897l-1.154-1.135"/><path d="M19.8 12.779c-2.171.315-2.047 1.443-4.491 4.335-1.728 2.045-3.862 3.148-4.92 3.148H9.084m-4.741-7.248a15.876 15.876 0 0 0 4.296-2.62c2.63-2.189 3.26-3.502 4.312-2.243s-.736 3.72-3.103 5.198a36.1 36.1 0 0 1-5.512 3.056"/><path d="M4.2 9.77a11.42 11.42 0 0 0 5.017-3.917c2.91-3.756 5.556-1.717 6.468 1.367.62 2.092 1.743 6.987-10.35 12.128M4.51 6.59l2.356-2.175"/><path d="M6.373 2.792A8.316 8.316 0 0 1 12.04.5c4.456 0 7.521 4.483 7.521 9.27v.627"/></g></symbol><symbol viewBox="0 0 48 48" id="audiicon-projects-large"><g fill="none" stroke="currentColor"><path d="M40.5 43.5h-31a3 3 0 0 1-3-3v-21h31a3 3 0 0 1 3 3v21zM29 36.507h7m-16 0h7m-16 0h7M29 31.5h7m-16 0h7m-16 0h7m11-5h7m-16 0h7m-16 0h7M35.311 19.5L23.912 7.063M9.955 19.5L21.221 7.071"/><circle cx="22.563" cy="5.591" r="2"/></g></symbol><symbol viewBox="0 0 24 24" id="audiicon-projects-small"><g stroke="currentColor"><path d="M2.5 9.5h18a1 1 0 0 1 1 1v13h-18a1 1 0 0 1-1-1v-13zM15 19.5h4m-9 0h4m-9 0h4m6-3h4m-9 0h4m-9 0h4m6-3h4m-9 0h4m-9 0h4" fill="none"/><path d="M18.558 9.5l-5.202-6.265m-3.718-.019L4.358 9.5" fill="currentColor"/><circle cx="11.5" cy="2.5" r="2" fill="none"/></g></symbol><symbol viewBox="0 0 48 48" id="audiicon-quattro-large"><g fill="none" stroke="currentColor" stroke-miterlimit="10"><path d="M39.5 28.5v4"/><rect x="32.5" y="32.5" width="14" height="5" rx="1" ry="1"/><path d="M8.469 28.5v4"/><rect x="1.5" y="32.5" width="14" height="5" rx="1" ry="1"/><path d="M39.5 14.5v4"/><rect x="32.5" y="9.5" width="14" height="5" rx="1" ry="1"/><path d="M8.469 14.5v4"/><rect x="1.5" y="9.5" width="14" height="5" rx="1" ry="1"/><path d="M37.5 18.5h4v10h-4zm0 5H24m-11.5-2l11.5 2-11.5 2v3h-8v-10h8v3z"/></g></symbol><symbol viewBox="0 0 24 24" id="audiicon-quattro-small"><g fill="none" stroke="currentColor" stroke-miterlimit="10"><path d="M19.5 14.5v3"/><rect x="15.5" y="17.5" width="8" height="3" rx="1" ry="1"/><path d="M4.5 14.5v3"/><rect x=".5" y="17.5" width="8" height="3" rx="1" ry="1"/><path d="M19.5 5.5v3"/><rect x="15.5" y="2.5" width="8" height="3" rx="1" ry="1"/><path d="M4.5 5.5v3"/><rect x=".5" y="2.5" width="8" height="3" rx="1" ry="1"/><path d="M17.5 8.5h4v6h-4zm-4.937 3H17.5m-11-1.483l6.062 1.483L6.5 13.017V14.5h-4v-6h4v1.517z"/></g></symbol><symbol viewBox="0 0 48 48" id="audiicon-receive-e-mail-notification-large"><g fill="none" stroke="currentColor"><path d="M2.5 21v21.5a2 2 0 0 0 2 2h41V21"/><path d="M7 22l17 13 17-13m4-4L24 3.5 3 18"/></g></symbol><symbol viewBox="0 0 24 24" id="audiicon-receive-e-mail-notification-small"><g fill="none" stroke="currentColor"><path d="M1.5 11v10.5a2 2 0 0 0 2 2h19V11"/><path d="M5 13l7 5.5 7-5.5m3-4L12 2 2 9"/></g></symbol><symbol viewBox="0 0 48 48" id="audiicon-replay-large"><g fill="none" stroke="currentColor" stroke-miterlimit="10"><path d="M9.261 30.805A16.001 16.001 0 1 0 23.5 7.5a15.422 15.422 0 0 0-14.4 10"/><path d="M18 17.5H8.5V8"/></g></symbol><symbol viewBox="0 0 24 24" id="audiicon-replay-small"><g fill="none" stroke="currentColor" stroke-miterlimit="10"><path d="M3.477 15.5a8.985 8.985 0 1 0 8.023-13c-4.28 0-7.362 3.5-8.3 7"/><path d="M9.5 9.5h-7v-7"/></g></symbol><symbol viewBox="0 0 48 48" id="audiicon-rotate-left-large"><g fill="none" stroke="currentColor" stroke-miterlimit="10"><path d="M15.679 22.004l4.385 5.748-6.028 4.437"/><path d="M19.689 28.032C13.226 27.32 8.5 25.049 8.5 22.357c0-3.262 6.94-5.907 15.5-5.907s15.5 2.644 15.5 5.907c0 2.44-3.882 4.534-9.42 5.435"/></g></symbol><symbol viewBox="0 0 24 24" id="audiicon-rotate-left-small"><g fill="none" stroke="currentColor" stroke-miterlimit="10"><path d="M6.38 11.5l2.964 3.884-4.074 2.998"/><path d="M9.08 15.326c-4.379-.48-7.58-2.015-7.58-3.835C1.5 9.287 6.201 7.5 12 7.5s10.5 1.787 10.5 3.991c0 1.65-2.63 3.064-6.381 3.673"/></g></symbol><symbol viewBox="0 0 48 48" id="audiicon-rotate-right-large"><g fill="none" stroke="currentColor" stroke-miterlimit="10"><path d="M32.321 22.004l-4.385 5.748 6.028 4.437"/><path d="M28.311 28.032c6.463-.712 11.189-2.983 11.189-5.675 0-3.262-6.94-5.907-15.5-5.907S8.5 19.095 8.5 22.357c0 2.44 3.882 4.534 9.42 5.435"/></g></symbol><symbol viewBox="0 0 24 24" id="audiicon-rotate-right-small"><g fill="none" stroke="currentColor" stroke-miterlimit="10"><path d="M17.62 11.5l-2.964 3.884 4.074 2.998"/><path d="M14.92 15.326c4.379-.48 7.58-2.016 7.58-3.835C22.5 9.287 17.799 7.5 12 7.5S1.5 9.287 1.5 11.491c0 1.65 2.63 3.064 6.381 3.673"/></g></symbol><symbol viewBox="0 0 48 48" id="audiicon-search-large"><path d="M42 42L28.974 28.974M32.5 20c0 7.649-5.652 12.5-12.5 12.5A12.5 12.5 0 1 1 32.5 20z" fill="none" stroke="currentColor" stroke-miterlimit="10"/></symbol><symbol viewBox="0 0 24 24" id="audiicon-search-small"><path d="M22 22l-8.334-8.334M15.5 9A6.284 6.284 0 0 1 9 15.505 6.505 6.505 0 1 1 15.5 9z" fill="none" stroke="currentColor" stroke-miterlimit="10"/></symbol><symbol viewBox="0 0 48 48" id="audiicon-select-large"><path fill="none" stroke="currentColor" stroke-miterlimit="10" d="M12.492 25.479l8.248 8.167L35.2 14.354"/></symbol><symbol viewBox="0 0 24 24" id="audiicon-select-small"><path fill="none" stroke="currentColor" stroke-miterlimit="10" d="M6 12.247l4.32 4.243 8.14-10.276"/></symbol><symbol viewBox="0 0 48 48" id="audiicon-shopping-basket-large"><g fill="none" stroke="currentColor" stroke-miterlimit="10"><circle cx="38.5" cy="41.5" r="3"/><circle cx="22.5" cy="41.5" r="3"/><path d="M13.75 19.5h29.991m-33.117-8H46.5l-5.5 16H16.882"/><path d="M1 3.5h6.5l12.5 32"/></g></symbol><symbol viewBox="0 0 24 24" id="audiicon-shopping-basket-small"><g fill="none" stroke="currentColor" stroke-miterlimit="10"><circle cx="19.5" cy="20.5" r="2"/><circle cx="10.5" cy="20.5" r="2"/><path d="M6.431 9.5H21.75m-16.785-4H23l-2.5 8H7.898"/><path d="M0 1.5h3.5l5.5 15"/></g></symbol><symbol viewBox="0 0 48 48" id="audiicon-shuffle-large"><g fill="none" stroke="currentColor"><path d="M25.82 20.247s2.333-3.118 3.196-4.087a11.762 11.762 0 0 1 8.821-3.66h5.577M4 34.5h4.838a11.907 11.907 0 0 0 8.82-3.82c.842-.945 3.119-3.987 3.119-3.987" stroke-linejoin="round"/><path stroke-miterlimit="10" d="M38.223 7.319l5.191 5.191-5.17 5.171"/><path d="M4 12.5h5.064a11.754 11.754 0 0 1 8.876 3.715c2.996 3.414 8.108 10.963 11.066 14.41a11.77 11.77 0 0 0 8.877 3.875h5.594" stroke-linejoin="round"/><path stroke-miterlimit="10" d="M38.251 29.338l5.226 5.104-5.22 5.22"/></g></symbol><symbol viewBox="0 0 24 24" id="audiicon-shuffle-small"><g fill="none" stroke="currentColor"><path d="M13.34 9.74s1.286-1.615 1.75-2.123A7.255 7.255 0 0 1 20.43 5.5l2.861.006M0 18.5h2.808a6.908 6.908 0 0 0 5.239-2.15c.436-.498 1.596-2.112 1.596-2.112" stroke-linejoin="round"/><path stroke-miterlimit="10" d="M20.209 2.423l3.082 3.083-3.07 3.071"/><path d="M0 5.5h3.143a6.865 6.865 0 0 1 5.271 2.167c1.76 2.055 4.79 6.57 6.572 8.604a6.993 6.993 0 0 0 5.271 2.229l3.034.006" stroke-linejoin="round"/><path stroke-miterlimit="10" d="M20.188 15.434l3.103 3.066-3.1 3.066"/></g></symbol><symbol viewBox="0 0 48 48" id="audiicon-status-update-large"><g fill="none" stroke="currentColor"><path d="M31 15.5h8.5v18l-11 11h-20v-29H23"/><path d="M39.5 33.5h-11v11m2.244-35.489l-7.013 12.03"/><circle cx="32.5" cy="6" r="3.5"/></g></symbol><symbol viewBox="0 0 24 24" id="audiicon-status-update-small"><g fill="none" stroke="currentColor"><path d="M16 7.5h4.5v10l-6 6h-11v-16H11"/><path d="M20.5 17.5h-6v6m.998-19.278L12.5 9.375"/><circle cx="16.5" cy="2.5" r="2"/></g></symbol><symbol viewBox="0 0 48 48" id="audiicon-sync-large"><g fill="none" stroke="currentColor" stroke-miterlimit="10"><path d="M7 32.5h26a11.5 11.5 0 0 0 11.5-11.497V20"/><path d="M11.826 37.073L7 32.5l4.826-4.573M41 14.5H15A11.5 11.5 0 0 0 3.5 25.997V27"/><path d="M36.174 9.927L41 14.5l-4.826 4.573"/></g></symbol><symbol viewBox="0 0 24 24" id="audiicon-sync-small"><g fill="none" stroke="currentColor" stroke-miterlimit="10"><path d="M3.5 17.5h13.255a5.834 5.834 0 0 0 5.745-5.92V11"/><path d="M5.7 15.3l-2.2 2.2 2.2 2.2M20.5 7.5H7.245A5.834 5.834 0 0 0 1.5 13.42V14"/><path d="M18.3 9.7l2.2-2.2-2.2-2.2"/></g></symbol><symbol viewBox="0 0 48 48" id="audiicon-system-audio-off-large"><g fill="none" stroke="currentColor" stroke-miterlimit="10"><path d="M14.5 20.5h4v6h-4zm4 6l4 2.885v-11.77l-4 2.885m7.542-.56a5.138 5.138 0 0 1 0 7.08m2.466-9.69s6.712 5.867.03 12.34M14 32.133L27.867 14"/><circle cx="23.5" cy="23.5" r="22"/></g></symbol><symbol viewBox="0 0 24 24" id="audiicon-system-audio-off-small"><g fill="none" stroke="currentColor" stroke-miterlimit="10"><path d="M5.5 9.5h3v4h-3zm3 4l3 1.856V7.455L8.5 9.5m5.573.49c.548.822.847 2.173-.907 3.927m2.748-6.123c1.004 1.134 3.2 4.356-.401 7.846m2.272-13.16L3.705 19.26"/><circle cx="11.5" cy="11.5" r="11"/></g></symbol><symbol viewBox="0 0 48 48" id="audiicon-system-audio-on-large"><g fill="none" stroke="currentColor" stroke-miterlimit="10"><path d="M14.5 20.5h4v6h-4zm4 6l4 2.885v-11.77l-4 2.885m7.542-.56a5.138 5.138 0 0 1 0 7.08m2.466-9.69s6.712 5.867.03 12.34"/><circle cx="23.5" cy="23.5" r="22"/></g></symbol><symbol viewBox="0 0 24 24" id="audiicon-system-audio-on-small"><g fill="none" stroke="currentColor" stroke-miterlimit="10"><path d="M5.5 9.5h3v4h-3zm3 4l3 1.856V7.455L8.5 9.5m4.666-.417s3 1.834 0 4.834m2.327-6.557s4.502 3.936.02 8.28"/><circle cx="11.5" cy="11.5" r="11"/></g></symbol><symbol viewBox="0 0 48 48" id="audiicon-system-cancel-large"><g fill="none" stroke="currentColor" stroke-miterlimit="10"><path d="M28.73 18.16L18.199 28.69m10.602.071L18.27 18.23"/><circle cx="23.5" cy="23.5" r="22"/></g></symbol><symbol viewBox="0 0 24 24" id="audiicon-system-cancel-small"><g fill="none" stroke="currentColor" stroke-miterlimit="10"><path d="M14.729 8.166l-6.531 6.532m6.545-.001L8.215 8.169"/><circle cx="11.5" cy="11.5" r="11"/></g></symbol><symbol viewBox="0 0 48 48" id="audiicon-system-download-large"><g fill="none" stroke="currentColor" stroke-miterlimit="10"><path d="M17 30.5h13M23.5 16v11m4.43-4.43L23.5 27l-4.43-4.43"/><circle cx="23.5" cy="23.5" r="22"/></g></symbol><symbol viewBox="0 0 24 24" id="audiicon-system-download-small"><g fill="none" stroke="currentColor" stroke-miterlimit="10"><path d="M15 15.5H8M11.5 7v6.4m-3.238-3.246l3.247 3.246 3.229-3.229"/><circle cx="11.5" cy="11.5" r="11"/></g></symbol><symbol viewBox="0 0 48 48" id="audiicon-system-facebook-large"><path d="M19.135 20.632H14.2v4.342h4.935V38h5.79V24.974h5.789v-4.342h-5.79v-1.748c0-1.312 1.38-4.042 3.391-4.042h2.399V10.5h-5.066c-7.146 1.04-6.513 10.132-6.513 10.132z" fill-rule="evenodd"/><circle cx="23.5" cy="23.5" r="22" fill="none" stroke="currentColor" stroke-miterlimit="10"/></symbol><symbol viewBox="0 0 24 24" id="audiicon-system-facebook-small"><path d="M9.248 10.09H7v1.977h2.248V18h2.636v-5.933h2.637V10.09h-2.637v-.795c0-.598.63-1.841 1.545-1.841h1.092V5.475h-2.307c-3.255.474-2.966 4.614-2.966 4.614z" fill-rule="evenodd"/><circle cx="11.5" cy="11.5" r="11" fill="none" stroke="currentColor" stroke-miterlimit="10"/></symbol><symbol viewBox="0 0 48 48" id="audiicon-system-favorites-large"><g fill="none" stroke="currentColor" stroke-miterlimit="10"><path d="M23.5 15.295l2.341 4.743 5.235.761-3.788 3.693.894 5.213-4.682-2.461-4.682 2.461.894-5.213-3.788-3.693 5.235-.761 2.341-4.743z"/><circle cx="23.5" cy="23.5" r="22"/></g></symbol><symbol viewBox="0 0 24 24" id="audiicon-system-favorites-small"><g fill="none" stroke="currentColor" stroke-miterlimit="10"><path d="M11.5 5.697l1.723 3.491 3.853.56-2.788 2.718.658 3.837-3.446-1.812-3.446 1.812.658-3.837-2.788-2.718 3.853-.56L11.5 5.697z"/><circle cx="11.5" cy="11.5" r="11"/></g></symbol><symbol viewBox="0 0 48 48" id="audiicon-system-follow-large"><g fill="none" stroke="currentColor" stroke-miterlimit="10"><path d="M21.372 25.615l-5.4 5.4m15.306-9.636l-.682.682-2.519-.31-1.423 1.423-.909 3.738-1.538 1.538-5.657-5.657 1.538-1.538 3.738-.909 1.423-1.423-.31-2.519.682-.682 5.657 5.657z"/><circle cx="23.5" cy="23.5" r="22"/></g></symbol><symbol viewBox="0 0 24 24" id="audiicon-system-follow-small"><g fill="none" stroke="currentColor" stroke-miterlimit="10"><path d="M10.302 12.698l-3.117 3.117m.642-5.592l.765-.723h2.265l2.502-2.542 2.683 2.683-2.542 2.502v2.265l-.723.765-4.95-4.95z"/><circle cx="11.5" cy="11.5" r="11"/></g></symbol><symbol viewBox="0 0 48 48" id="audiicon-system-help-large"><g fill="none" stroke="currentColor" stroke-miterlimit="10"><path d="M22.5 29v2M20 17.41s5.875-2.355 6.667 1.514c.545 2.668-4.167 6.057-4.167 6.057V27"/><circle cx="23.5" cy="23.5" r="22"/></g></symbol><symbol viewBox="0 0 24 24" id="audiicon-system-help-small"><g fill="none" stroke="currentColor" stroke-miterlimit="10"><path d="M11.5 15v1M9.874 7.499s4.07-1.647 4.626 1.044c.383 1.855-3 4.246-3 4.246V14"/><circle cx="11.5" cy="11.5" r="11"/></g></symbol><symbol viewBox="0 0 48 48" id="audiicon-system-info-large"><g fill="none" stroke="currentColor" stroke-miterlimit="10"><path d="M23.5 20v12m0-14v-3"/><circle cx="23.5" cy="23.5" r="22"/></g></symbol><symbol viewBox="0 0 24 24" id="audiicon-system-info-small"><g fill="none" stroke="currentColor" stroke-miterlimit="10"><path d="M11.5 17v-7m0-2V6"/><circle cx="11.5" cy="11.5" r="11"/></g></symbol><symbol viewBox="0 0 48 48" id="audiicon-system-instagram-large"><path d="M31.806 12H15.194A3.194 3.194 0 0 0 12 15.194v16.612A3.194 3.194 0 0 0 15.194 35h16.612A3.194 3.194 0 0 0 35 31.806V15.194A3.194 3.194 0 0 0 31.806 12zm-8.266 6.988a4.472 4.472 0 1 1-4.472 4.472 4.472 4.472 0 0 1 4.472-4.472zM32 31.766c0 .352.198.234-.154.234H15.234c-.352 0-.234.118-.234-.234V22h1.777a3.351 3.351 0 0 0-.265 1.688 6.931 6.931 0 0 0 7.028 6.914 6.884 6.884 0 0 0 7.028-6.857A3.63 3.63 0 0 0 30.303 22H32v9.766zm0-13.405a.639.639 0 0 1-.639.639H28.64a.639.639 0 0 1-.639-.639V15.64a.639.639 0 0 1 .639-.639h2.722a.639.639 0 0 1 .639.639v2.722z"/><circle cx="23.5" cy="23.5" r="22" fill="none" stroke="currentColor" stroke-miterlimit="10"/></symbol><symbol viewBox="0 0 24 24" id="audiicon-system-instagram-small"><path d="M15.472 6H7.528A1.528 1.528 0 0 0 6 7.528v7.944A1.528 1.528 0 0 0 7.528 17h7.944A1.528 1.528 0 0 0 17 15.472V7.528A1.528 1.528 0 0 0 15.472 6zM11.52 9.342a2.139 2.139 0 1 1-2.139 2.139 2.139 2.139 0 0 1 2.14-2.139zM16 15.453a.824.824 0 0 1-.509.547H7.547A.88.88 0 0 1 7 15.453V11h1.284a1.13 1.13 0 0 0-.126.699 3.27 3.27 0 0 0 3.361 3.252 3.225 3.225 0 0 0 3.361-3.198 1.356 1.356 0 0 0-.126-.753H16v4.453zm0-6.759a.306.306 0 0 1-.306.306h-1.388A.306.306 0 0 1 14 8.694V7.306A.306.306 0 0 1 14.306 7h1.389a.306.306 0 0 1 .305.306v1.388z"/><circle cx="11.5" cy="11.5" r="11" fill="none" stroke="currentColor" stroke-miterlimit="10"/></symbol><symbol viewBox="0 0 48 48" id="audiicon-system-pause-large"><g fill="none" stroke="currentColor" stroke-miterlimit="10"><path d="M20.5 16v15m6-15v15"/><circle cx="23.5" cy="23.5" r="22"/></g></symbol><symbol viewBox="0 0 24 24" id="audiicon-system-pause-small"><g fill="none" stroke="currentColor"><path d="M9.5 7v9m4-9v9" stroke-linejoin="round"/><circle cx="11.5" cy="11.5" r="11" stroke-miterlimit="10"/></g></symbol><symbol viewBox="0 0 48 48" id="audiicon-system-play-backwards-large"><g fill="none" stroke="currentColor"><path stroke-linejoin="round" d="M26.5 16.415l-10.441 6.99 10.441 7.18v-14.17z"/><circle cx="23.5" cy="23.5" r="22" stroke-miterlimit="10"/></g></symbol><symbol viewBox="0 0 24 24" id="audiicon-system-play-backwards-small"><g fill="none" stroke="currentColor"><path stroke-linejoin="round" d="M13.5 7.391l-6 4.054 6 4.164V7.391z"/><circle cx="11.5" cy="11.5" r="11" stroke-miterlimit="10"/></g></symbol><symbol viewBox="0 0 48 48" id="audiicon-system-play-large"><g fill="none" stroke="currentColor"><path stroke-linejoin="round" d="M19.5 16.415l10.441 6.99-10.441 7.18v-14.17z"/><circle cx="23.5" cy="23.5" r="22" stroke-miterlimit="10"/></g></symbol><symbol viewBox="0 0 24 24" id="audiicon-system-play-small"><g fill="none" stroke="currentColor"><path stroke-linejoin="round" d="M9.5 7.391l6 4.054-6 4.164V7.391z"/><circle cx="11.5" cy="11.5" r="11" stroke-miterlimit="10"/></g></symbol><symbol viewBox="0 0 48 48" id="audiicon-system-replay-large"><g fill="none" stroke="currentColor" stroke-miterlimit="10"><path d="M16.38 27.153a8.005 8.005 0 1 0-.293-6.653m3.913 0h-4.5V16"/><circle cx="23.5" cy="23.5" r="22"/></g></symbol><symbol viewBox="0 0 24 24" id="audiicon-system-replay-small"><g fill="none" stroke="currentColor" stroke-miterlimit="10"><path d="M7.489 13.5a4.486 4.486 0 1 0-.369-3m2.88 0H6.5V7"/><circle cx="11.5" cy="11.5" r="11"/></g></symbol><symbol viewBox="0 0 48 48" id="audiicon-system-search-large"><g fill="none" stroke="currentColor" stroke-miterlimit="10"><path d="M30.697 30.91l-6.672-6.672m1.278-3.272a4.351 4.351 0 0 1-4.464 4.54 4.588 4.588 0 0 1-4.536-4.54 4.529 4.529 0 0 1 4.536-4.47 4.467 4.467 0 0 1 4.464 4.47z"/><circle cx="23.5" cy="23.5" r="22"/></g></symbol><symbol viewBox="0 0 24 24" id="audiicon-system-search-small"><g fill="none" stroke="currentColor" stroke-miterlimit="10"><path d="M15.758 15.825l-3.999-3.999m.741-1.845a2.416 2.416 0 0 1-2.48 2.52A2.548 2.548 0 0 1 7.5 9.98a2.515 2.515 0 0 1 2.52-2.48 2.48 2.48 0 0 1 2.48 2.48z"/><circle cx="11.5" cy="11.5" r="11"/></g></symbol><symbol viewBox="0 0 48 48" id="audiicon-system-select-large"><g fill="none" stroke="currentColor" stroke-miterlimit="10"><path d="M17.25 24.25l5.25 5.25L30.55 18"/><circle cx="23.5" cy="23.5" r="22"/></g></symbol><symbol viewBox="0 0 24 24" id="audiicon-system-select-small"><g fill="none" stroke="currentColor" stroke-miterlimit="10"><path d="M7.308 11.315l3.309 3.31 5.075-7.25"/><circle cx="11.5" cy="11.5" r="11"/></g></symbol><symbol viewBox="0 0 48 48" id="audiicon-system-settings-large"><g fill="none" stroke="currentColor" stroke-miterlimit="10"><path d="M25.137 14.5v2.67a6.557 6.557 0 0 1 1.684.696l1.887-1.885 2.315 2.312-1.89 1.89a6.467 6.467 0 0 1 .699 1.683H32.5v3.272h-2.668a6.48 6.48 0 0 1-.697 1.682l1.886 1.889-2.313 2.312-1.887-1.887a6.5 6.5 0 0 1-1.683.698V32.5h-3.274v-2.668a6.483 6.483 0 0 1-1.683-.698l-1.887 1.887-2.313-2.312 1.885-1.89a6.484 6.484 0 0 1-.697-1.681H14.5v-3.272h2.67a6.467 6.467 0 0 1 .697-1.684l-1.888-1.889 2.315-2.312 1.887 1.885a6.555 6.555 0 0 1 1.684-.696V14.5h3.272z"/><path d="M23.501 19.999a3.5 3.5 0 1 1-3.5 3.501 3.501 3.501 0 0 1 3.5-3.501"/><circle cx="23.5" cy="23.5" r="22"/></g></symbol><symbol viewBox="0 0 24 24" id="audiicon-system-settings-small"><g fill="none" stroke="currentColor" stroke-miterlimit="10"><path d="M12.723 6.742a4.977 4.977 0 0 1 2.346 1.341l1.872-1.124L18.25 9.08l-1.944 1.168a4.869 4.869 0 0 1-.015 2.543l1.959 1.184-1.31 2.122-1.915-1.154a4.977 4.977 0 0 1-2.302 1.298V18.5h-2.518v-2.278a4.978 4.978 0 0 1-2.225-1.275l-1.92 1.15-1.31-2.122 1.963-1.174a4.87 4.87 0 0 1-.005-2.602L4.845 9.08l1.309-2.12 1.813 1.088a4.977 4.977 0 0 1 2.239-1.288V4.5h2.517z"/><circle cx="11.5" cy="11.5" r="2.128"/><circle cx="11.5" cy="11.5" r="11"/></g></symbol><symbol viewBox="0 0 48 48" id="audiicon-system-share-large"><g fill="none" stroke="currentColor" stroke-miterlimit="10"><path d="M16.412 18.649L18.5 16.5l2.305 2.113m4.335-1.084l3.321-.016.002 3.496m-1.237 4.163l2.24 2.22-2.154 2.184M18.5 27.5l10-10"/><path d="M18.5 16.5v11h11"/><circle cx="23.5" cy="23.5" r="22"/></g></symbol><symbol viewBox="0 0 24 24" id="audiicon-system-share-small"><g fill="none" stroke="currentColor" stroke-miterlimit="10"><path d="M6.999 8.009L8.5 6.5l1.514 1.496M13 7.5h2.5l.031 2.468m-.399 3.16L16.5 14.5l-1.304 1.414m-6.707-1.399L15.5 7.5"/><path d="M16.5 14.5h-8v-8"/><circle cx="11.5" cy="11.5" r="11"/></g></symbol><symbol viewBox="0 0 48 48" id="audiicon-system-size-decrease-large"><g fill="none" stroke="currentColor" stroke-miterlimit="10"><path d="M24 29.5h5a1.5 1.5 0 0 0 1.5-1.5V17.5H18a1.5 1.5 0 0 0-1.5 1.5v4"/><path d="M16.5 25.5h5v4h-5zm11.5-1h-4.5V20m7-2.5l-7 7"/><circle cx="23.5" cy="23.5" r="22"/></g></symbol><symbol viewBox="0 0 24 24" id="audiicon-system-size-decrease-small"><g fill="none" stroke="currentColor" stroke-miterlimit="10"><path d="M7.496 13.5h2v2h-2zm7.504-2h-3.5V8m4.2-.7l-4.2 4.2"/><circle cx="11.5" cy="11.5" r="11"/></g></symbol><symbol viewBox="0 0 48 48" id="audiicon-system-size-increase-large"><g fill="none" stroke="currentColor" stroke-miterlimit="10"><path d="M25 17.5h5.5V23m-6 .5l6-6m-14 6h8v6"/><path d="M29.5 26v2.5a1 1 0 0 1-1 1h-12v-10a1 1 0 0 1 1-1H22"/><circle cx="23.5" cy="23.5" r="22"/></g></symbol><symbol viewBox="0 0 24 24" id="audiicon-system-size-increase-small"><g fill="none" stroke="currentColor" stroke-miterlimit="10"><path d="M7.5 11.5h4v4h-4zm3.5-4h4.5V12m-4-.5l4-4"/><circle cx="11.5" cy="11.5" r="11"/></g></symbol><symbol viewBox="0 0 48 48" id="audiicon-system-skip-next-large"><g fill="none" stroke="currentColor"><path stroke-miterlimit="10" d="M30.5 31V16"/><path stroke-linejoin="round" d="M16.5 16.375l10.441 7.03-10.441 7.22v-14.25z"/><circle cx="23.5" cy="23.5" r="22" stroke-miterlimit="10"/></g></symbol><symbol viewBox="0 0 24 24" id="audiicon-system-skip-next-small"><g fill="none" stroke="currentColor"><path stroke-miterlimit="10" d="M15.5 16V7"/><path stroke-linejoin="round" d="M7.5 15.609l6-4.054-6-4.164v8.218z"/><circle cx="11.5" cy="11.5" r="11" stroke-miterlimit="10"/></g></symbol><symbol viewBox="0 0 48 48" id="audiicon-system-skip-previous-large"><g fill="none" stroke="currentColor"><path stroke-linejoin="round" d="M30.5 16.375l-10.441 7.03 10.441 7.22v-14.25z"/><path stroke-miterlimit="10" d="M16.5 31V16"/><circle cx="23.5" cy="23.5" r="22" stroke-miterlimit="10"/></g></symbol><symbol viewBox="0 0 24 24" id="audiicon-system-skip-previous-small"><g fill="none" stroke="currentColor"><path stroke-linejoin="round" d="M15.5 15.609l-6-4.054 6-4.164v8.218z"/><path stroke-miterlimit="10" d="M7.5 16V7"/><circle cx="11.5" cy="11.5" r="11" stroke-miterlimit="10"/></g></symbol><symbol viewBox="0 0 48 48" id="audiicon-system-twitter-large"><path d="M34.494 16.667s3.196.447 4.102-.229a16.178 16.178 0 0 0-4.185 3.033S35.638 32.76 21.7 36.016c0 0-7.173.572-12.296-3.28 0 0 5.466 1.475 8.483-1.861 0 0-5.136.466-6.367-3.505a15.628 15.628 0 0 0 3.588-.506s-4.825-.914-4.746-5.72a5.63 5.63 0 0 0 2.68.716s-3.97-3.585-1.509-7.794c0 0 5.321 6.5 11.915 6.127a5.667 5.667 0 0 1 9.529-5.383 8.888 8.888 0 0 0 3.852-1.855s.089 1.836-2.335 3.712z" fill-rule="evenodd"/><circle cx="23.5" cy="23.5" r="22" fill="none" stroke="currentColor" stroke-miterlimit="10"/></symbol><symbol viewBox="0 0 24 24" id="audiicon-system-twitter-small"><path d="M16.764 8.202A3.989 3.989 0 0 0 18.61 8.1a7.28 7.28 0 0 0-1.883 1.365 7.075 7.075 0 0 1-5.72 7.445 9.134 9.134 0 0 1-5.533-1.476s2.46.664 3.817-.838c0 0-2.31.21-2.865-1.577a7.032 7.032 0 0 0 1.615-.228 2.626 2.626 0 0 1-2.136-2.573 2.533 2.533 0 0 0 1.206.322s-1.787-1.613-.679-3.507c0 0 2.394 2.925 5.362 2.756a2.55 2.55 0 0 1 4.288-2.422 4 4 0 0 0 1.733-.835 2.22 2.22 0 0 1-1.05 1.671z" fill-rule="evenodd"/><circle cx="11.5" cy="11.5" r="11" fill="none" stroke="currentColor" stroke-miterlimit="10"/></symbol><symbol viewBox="0 0 48 48" id="audiicon-system-upload-large"><g fill="none" stroke="currentColor" stroke-miterlimit="10"><path d="M23.5 31V20m-4.43 4.43L23.5 20l4.43 4.43M30 16.5H17"/><circle cx="23.5" cy="23.5" r="22"/></g></symbol><symbol viewBox="0 0 24 24" id="audiicon-system-upload-small"><g fill="none" stroke="currentColor" stroke-miterlimit="10"><path d="M11.5 16V9.6m-3.238 3.246L11.509 9.6l3.229 3.229M15 7.5H8"/><circle cx="11.5" cy="11.5" r="11"/></g></symbol><symbol viewBox="0 0 48 48" id="audiicon-system-vimeo-large"><path d="M36.278 18.324q-.178 3.88-5.421 10.626-5.421 7.044-9.173 7.045-2.325 0-3.932-4.29l-2.145-7.867q-1.194-4.289-2.561-4.29a8.224 8.224 0 0 0-2.086 1.251l-1.25-1.61q1.967-1.729 3.878-3.459 2.625-2.267 3.94-2.387 3.102-.298 3.819 4.242.774 4.898 1.074 6.09.896 4.065 1.97 4.063.834 0 2.507-2.636a10.384 10.384 0 0 0 1.79-4.013q.238-2.275-1.79-2.277a4.983 4.983 0 0 0-1.968.436q1.96-6.417 7.486-6.238 4.097.12 3.862 5.314z"/><circle cx="23.5" cy="23.5" r="22" fill="none" stroke="currentColor" stroke-miterlimit="10"/></symbol><symbol viewBox="0 0 24 24" id="audiicon-system-vimeo-small"><path d="M16.994 9.523q-.08 1.752-2.447 4.797-2.447 3.18-4.141 3.18-1.05 0-1.775-1.937l-.969-3.551q-.538-1.936-1.156-1.937a3.713 3.713 0 0 0-.942.565L5 9.913q.888-.78 1.751-1.562A3.972 3.972 0 0 1 8.53 7.274q1.4-.135 1.724 1.915.35 2.211.485 2.75.404 1.835.889 1.834a2.267 2.267 0 0 0 1.132-1.19 4.688 4.688 0 0 0 .807-1.812.772.772 0 0 0-.807-1.028 2.25 2.25 0 0 0-.889.197q.885-2.897 3.38-2.816 1.849.054 1.743 2.399z"/><circle cx="11.5" cy="11.5" r="11" fill="none" stroke="currentColor" stroke-miterlimit="10"/></symbol><symbol viewBox="0 0 48 48" id="audiicon-tag-large"><g fill="none" stroke="currentColor"><path d="M12.5 18.5l16 16m-10-22l16 16m-8 17l19-19-24-24h-19v19l24 24z"/><circle cx="9" cy="9" r="2.5"/></g></symbol><symbol viewBox="0 0 24 24" id="audiicon-tag-small"><g fill="none" stroke="currentColor"><path d="M6.061 10.114l7.872 7.872m-3.82-11.925l7.873 7.873m-5.471 8.581L22.6 12.431 10.668.5H.5v10l12.015 12.015z"/><circle cx="4.5" cy="4.5" r="2"/></g></symbol><symbol viewBox="0 0 48 48" id="audiicon-traffic-large"><g fill="none" stroke="currentColor" stroke-miterlimit="10"><path d="M21 23.459h2.429m-2.643 2.993s.839.22 1.88.516a1.571 1.571 0 0 1 1.443 1.36c.243 1.12.566 1.578-1.059 1.266s-2.545-.588-2.545-.588M43 23.459h-2.429m2.643 2.993s-.839.22-1.88.516a1.571 1.571 0 0 0-1.443 1.36c-.243 1.12-.566 1.578 1.059 1.266s2.545-.588 2.545-.588M28.16 28.5h7.742l1.479.986-1.437 2.014H28.16l-1.541-2.014 1.541-.986zm13.175-4h-18.67"/><path d="M39.5 33.5v2h2.923a1.07 1.07 0 0 0 1.077-.982V29.76c0-3.77-.7-4.167-.7-4.167L41.335 24.5a9.718 9.718 0 0 1-1.593-2.531 2.473 2.473 0 0 0-2.125-1.469H26.383a2.473 2.473 0 0 0-2.125 1.469 9.718 9.718 0 0 1-1.593 2.531L21.2 25.594s-.7.395-.7 4.166v4.758a1.07 1.07 0 0 0 1.077.982H24.5v-2h15zM11 16.459h2.429m-2.643 2.993s.839.22 1.88.516a1.571 1.571 0 0 1 1.443 1.36c.243 1.12.566 1.578-1.059 1.266s-2.545-.588-2.545-.588M33 16.459h-2.429M19 24.5h-.84l-1.541-2.014 1.541-.986H21m10.335-4h-18.67"/><path d="M32.8 18.594L31.335 17.5a9.718 9.718 0 0 1-1.593-2.531 2.473 2.473 0 0 0-2.125-1.469H16.383a2.473 2.473 0 0 0-2.125 1.469 9.718 9.718 0 0 1-1.593 2.531L11.2 18.594s-.7.395-.7 4.166v4.758a1.07 1.07 0 0 0 1.077.982H14.5v-2H19"/><g><path d="M4 13.5h2.375M18 11.5H8.599a2.143 2.143 0 0 0-1.842 1.273 8.422 8.422 0 0 1-1.38 2.194l-1.27.947s-.607.344-.607 3.612v4.123a.928.928 0 0 0 .934.851H7.5v-2H9"/></g></g></symbol><symbol viewBox="0 0 24 24" id="audiicon-traffic-small"><g fill="none" stroke="currentColor" stroke-miterlimit="10"><path d="M6 11.5h2.146m-2.422 2.92s.656.171 1.47.403a1.23 1.23 0 0 1 1.13 1.064c.19.876.443 1.235-.829.99s-1.99-.46-1.99-.46M23 11.5h-2.145m2.421 2.92s-.656.171-1.47.403a1.23 1.23 0 0 0-1.13 1.064c-.19.876-.443 1.235.829.99s1.99-.46 1.99-.46m-12 .083h6.059l1.157.657-1.125 1.343h-6.091l-1.206-1.343 1.206-.657zm9.991-4H7.514"/><path d="M22.952 13.747l-1.147-.856a7.605 7.605 0 0 1-1.246-1.981 2.482 2.482 0 0 0-2.475-1.41h-7.168a2.482 2.482 0 0 0-2.475 1.41 7.605 7.605 0 0 1-1.246 1.981l-1.147.856s-.548.31-.548 3.261v3.723a.838.838 0 0 0 .843.77H8.63v-1h11.74v1h2.287a.838.838 0 0 0 .843-.77v-3.723c0-2.951-.548-3.26-.548-3.26z"/><path d="M17.559 7.91a2.482 2.482 0 0 0-2.475-1.41H7.916A2.482 2.482 0 0 0 5.44 7.91a7.605 7.605 0 0 1-1.246 1.981l-1.147.856s-.548.31-.548 3.261v3.724a.838.838 0 0 0 .843.768H4"/><path d="M13 3.5H5.916A2.482 2.482 0 0 0 3.44 4.91a7.605 7.605 0 0 1-1.246 1.981l-1.147.856S.5 8.057.5 11.008V13"/></g></symbol><symbol viewBox="0 0 48 48" id="audiicon-twitter-large"><path d="M34.494 16.167s3.196.447 4.102-.229a16.178 16.178 0 0 0-4.185 3.033S35.638 32.26 21.7 35.516c0 0-7.173.572-12.296-3.28 0 0 5.466 1.475 8.483-1.861 0 0-5.136.466-6.367-3.505a15.628 15.628 0 0 0 3.588-.506s-4.825-.914-4.746-5.72a5.63 5.63 0 0 0 2.68.716s-3.97-3.585-1.509-7.794c0 0 5.321 6.5 11.915 6.127a5.667 5.667 0 0 1 9.529-5.383 8.888 8.888 0 0 0 3.852-1.855s.089 1.836-2.335 3.712z" fill-rule="evenodd"/></symbol><symbol viewBox="0 0 24 24" id="audiicon-twitter-small"><path d="M17.033 8.243A4.25 4.25 0 0 0 19 8.133a7.759 7.759 0 0 0-2.007 1.455 7.54 7.54 0 0 1-6.096 7.935A9.734 9.734 0 0 1 5 15.95s2.622.708 4.069-.893c0 0-2.464.224-3.054-1.68a7.495 7.495 0 0 0 1.72-.243 2.798 2.798 0 0 1-2.275-2.743 2.7 2.7 0 0 0 1.285.343s-1.904-1.72-.724-3.738c0 0 2.552 3.117 5.714 2.938a2.718 2.718 0 0 1 4.57-2.581 4.262 4.262 0 0 0 1.848-.89 2.365 2.365 0 0 1-1.12 1.78z" fill-rule="evenodd"/></symbol><symbol viewBox="0 0 48 48" id="audiicon-used-car-search-large"><g fill="none" stroke="currentColor"><circle cx="35.508" cy="30.5" r="4" stroke-miterlimit="10"/><circle cx="12.5" cy="30.5" r="4" stroke-miterlimit="10"/><path stroke-miterlimit="10" d="M31.634 31.5H30m-6 0h-7.626m22.956.183c4.57 0 5.17-1.31 5.17-1.31v-7.216s-7.78-5.632-14.111-6.357"/><path d="M26 16.5c-7.458 0-10.33 4.288-10.33 4.288" stroke-linejoin="round"/><path d="M10.512 22.469s-1.707.485-2.707.833C6.182 23.867 3.5 24.504 3.5 29.72v1.78h5.126M30.722 40.664l-7.465-16.892m5.243-8.341a8.697 8.697 0 0 1-8.928 9.069 9.172 9.172 0 0 1-9.072-9.069A9.053 9.053 0 0 1 19.572 6.5a8.93 8.93 0 0 1 8.928 8.931z" stroke-miterlimit="10"/></g></symbol><symbol viewBox="0 0 24 24" id="audiicon-used-car-search-small"><g fill="none" stroke="currentColor"><circle cx="18.5" cy="17.25" r="2.25" stroke-miterlimit="10"/><circle cx="5.5" cy="17.25" r="2.25" stroke-miterlimit="10"/><path stroke-miterlimit="10" d="M16.282 17.5H15m-4 0H7.722m12.878.102c2.564 0 2.9-.735 2.9-.735V12.82a27.625 27.625 0 0 0-6.854-3.382"/><path d="M12.377 9.111A7.196 7.196 0 0 0 7.75 11.01" stroke-linejoin="round"/><path d="M4.17 12.51c-.325.095-.879.26-1.255.391-.91.317-2.415.674-2.415 3.6v.999h2.876M15.4 22.641l-3.96-9.491m3.06-4.688A4.832 4.832 0 0 1 9.54 13.5 5.095 5.095 0 0 1 4.5 8.462 5.03 5.03 0 0 1 9.54 3.5a4.961 4.961 0 0 1 4.96 4.962z" stroke-miterlimit="10"/></g></symbol><symbol viewBox="0 0 48 48" id="audiicon-used-cars-large"><g fill="none" stroke="currentColor"><path d="M39.619 38.653c3.328 0 3.881-1.153 3.881-1.153v-5.057l-5.584-3.177S35.582 27.5 30.195 27.5s-7.664 3.218-7.664 3.218l-6.507 2.12a3.076 3.076 0 0 0-2.05 1.72 6.548 6.548 0 0 0-.307 2.557V38.5h4.145" stroke-linejoin="round"/><path stroke-miterlimit="10" d="M23.188 38.5H34.33"/><circle cx="37" cy="37.694" r="2.806" stroke-miterlimit="10"/><circle cx="20.5" cy="37.694" r="2.806" stroke-miterlimit="10"/><path d="M32.333 24v-2.557l-5.584-3.177S24.415 16.5 19.028 16.5s-7.663 3.218-7.663 3.218l-6.508 2.12a3.076 3.076 0 0 0-2.05 1.721 6.548 6.548 0 0 0-.307 2.556V27.5h4.145" stroke-linejoin="round"/><path stroke-miterlimit="10" d="M12.061 27.5H20"/><circle cx="9.333" cy="26.694" r="2.806" stroke-miterlimit="10"/><g><path d="M41.619 17.653c3.328 0 3.881-1.153 3.881-1.153v-5.057l-5.584-3.176S37.582 6.5 32.195 6.5 24.53 9.718 24.53 9.718l-6.507 2.12" stroke-linejoin="round"/><path stroke-miterlimit="10" d="M32 17.5h4.33"/><circle cx="39" cy="16.694" r="2.806" stroke-miterlimit="10"/></g></g></symbol><symbol viewBox="0 0 24 24" id="audiicon-used-cars-small"><g fill="none" stroke="currentColor"><path d="M20.892 20.5a4.836 4.836 0 0 0 2.606-.507v-2.79a13.202 13.202 0 0 0-7.607-2.703 5.383 5.383 0 0 0-4.355 1.788l-3.698 1.125a1.74 1.74 0 0 0-1.165.914 3.263 3.263 0 0 0-.175 1.357v.816H9" stroke-linejoin="round"/><path stroke-miterlimit="10" d="M18.108 20.5h-6.2"/><circle cx="19.5" cy="19.99" r="1.51" stroke-miterlimit="10"/><ellipse cx="10.5" cy="19.99" rx="1.5" ry="1.51" stroke-miterlimit="10"/><path d="M17.5 12.993v-1.79A13.202 13.202 0 0 0 9.892 8.5a5.383 5.383 0 0 0-4.354 1.788l-3.699 1.125a1.74 1.74 0 0 0-1.164.914A3.263 3.263 0 0 0 .5 13.684v.816h2.502" stroke-linejoin="round"/><path stroke-miterlimit="10" d="M11 14.5H5.91"/><ellipse cx="4.502" cy="13.99" rx="1.5" ry="1.51" stroke-miterlimit="10"/><g><path d="M20.892 8.5a4.836 4.836 0 0 0 2.606-.507v-2.79A13.202 13.202 0 0 0 15.891 2.5a5.383 5.383 0 0 0-4.355 1.788L7.838 5.412a1.74 1.74 0 0 0-1.165.914" stroke-linejoin="round"/><path stroke-miterlimit="10" d="M18.108 8.5H16"/><circle cx="19.5" cy="7.99" r="1.51" stroke-miterlimit="10"/></g></g></symbol><symbol viewBox="0 0 48 48" id="audiicon-user-large"><g fill="none" stroke="currentColor"><path d="M11.5 40.5v-13a3.009 3.009 0 0 1 3-3h19a3.009 3.009 0 0 1 3 3v13h-25z"/><rect x="17.5" y="7.5" width="13" height="13" rx="3" ry="3"/></g></symbol><symbol viewBox="0 0 24 24" id="audiicon-user-small"><g fill="none" stroke="currentColor"><path d="M5.5 21.5v-7a1.003 1.003 0 0 1 1-1h11a1.003 1.003 0 0 1 1 1v7h-13z"/><rect x="8.5" y="3.5" width="7" height="7" rx="2" ry="2"/></g></symbol><symbol viewBox="0 0 48 48" id="audiicon-user-whole-body-large"><g fill="none" stroke="currentColor"><path d="M23.5 44.5V31m-4-12v8.669l1 16.831h6l1-16.998V19"/><path d="M19.5 27.5h-3V14.387a1.988 1.988 0 0 1 2.016-1.938h10.009a1.952 1.952 0 0 1 1.975 1.938V27.5h-3"/><rect x="20.5" y="3.5" width="6" height="6" rx="2" ry="2"/></g></symbol><symbol viewBox="0 0 24 24" id="audiicon-user-whole-body-small"><g fill="none" stroke="currentColor"><path d="M9.5 10v13.5h4V10"/><path d="M9.533 14.5H7.5v-7a.962.962 0 0 1 1-1h6a.962.962 0 0 1 1 1v7h-2"/><rect x="9.5" y=".5" width="4" height="4" rx="1" ry="1"/></g></symbol><symbol viewBox="0 0 48 48" id="audiicon-video-large"><g fill="none" stroke="currentColor"><path d="M2.497 9.5h40.006a3 3 0 0 1 3 3v25H5.497a3 3 0 0 1-3-3v-25z" stroke-miterlimit="10"/><path stroke-linejoin="round" d="M18.5 15.414l11.914 7.978L18.5 31.585V15.414z"/></g></symbol><symbol viewBox="0 0 24 24" id="audiicon-video-small"><g fill="none" stroke="currentColor"><path d="M.5 4.5h22a1 1 0 0 1 1 1v14h-22a1 1 0 0 1-1-1v-14z" stroke-miterlimit="10"/><path stroke-linejoin="round" d="M8.5 7l6.571 4.44L8.5 16V7z"/></g></symbol><symbol viewBox="0 0 48 48" id="audiicon-view-360-large"><g fill="none" stroke="currentColor" stroke-miterlimit="10"><path d="M18.768 33.12C12.358 32.376 7.7 30.126 7.7 27.465c0-1.67 1.835-3.178 4.785-4.253m21.908.032c2.9 1.074 4.697 2.568 4.697 4.221 0 3.08-6.246 5.612-14.225 5.891"/><path d="M15.88 28.523l3.482 4.859-5.014 3.406"/></g><path d="M34.605 13.981a1.81 1.81 0 1 1 1.81 1.794 1.803 1.803 0 0 1-1.81-1.794zm2.848 0a1.04 1.04 0 1 0-1.039 1.06 1.07 1.07 0 0 0 1.04-1.06zm-26.688 5.424v-.887a8.212 8.212 0 0 0 2.518.397c1.179 0 2.13-.407 2.13-1.243 0-.826-.77-1.377-2.22-1.377h-.87v-.846h.87c1.15 0 1.87-.387 1.87-1.254 0-.775-.84-1.131-1.8-1.131a6.542 6.542 0 0 0-2.359.417v-.867a6.152 6.152 0 0 1 2.358-.427c1.74 0 2.85.713 2.85 1.968a1.82 1.82 0 0 1-1.18 1.681 1.999 1.999 0 0 1 1.528 1.877c0 1.243-1.218 2.1-3.198 2.1a6.887 6.887 0 0 1-2.497-.408zm7.639-3.069c0-2.682 1.4-4.149 4.078-4.149a6.279 6.279 0 0 1 1.91.244v.908a6.763 6.763 0 0 0-1.87-.255c-1.859 0-2.898.795-3.048 2.61a3.75 3.75 0 0 1 2.379-.765c1.94 0 3.018.959 3.018 2.447 0 1.254-.98 2.437-3.128 2.437s-3.339-1.173-3.339-3.477zm1.04.143c.06 1.978 1.04 2.518 2.3 2.518 1.288 0 2.077-.57 2.077-1.62 0-1.072-.74-1.582-2.078-1.582a3.99 3.99 0 0 0-2.299.684zm6.821-.489c0-2.111.88-3.803 3.358-3.803 2.528 0 3.357 1.662 3.357 3.823 0 2.111-.878 3.803-3.357 3.803-2.53 0-3.358-1.662-3.358-3.823zm5.676.01c0-1.662-.579-3.008-2.318-3.008s-2.32 1.336-2.32 3.008c0 1.662.58 3.008 2.32 3.008s2.318-1.336 2.318-3.008z"/></symbol><symbol viewBox="0 0 24 24" id="audiicon-view-360-small"><g fill="none" stroke="currentColor" stroke-miterlimit="10"><path d="M8.905 19.12C4.617 18.622 1.5 17.116 1.5 15.336c0-1.117 1.227-2.125 3.201-2.845m14.657.021c1.94.719 3.142 1.719 3.142 2.824 0 2.061-4.179 3.754-9.517 3.941"/><path d="M6.858 16.125l2.33 3.25-3.355 2.279"/></g><path d="M3 10.661v-.696a6.699 6.699 0 0 0 2.016.312c.943 0 1.703-.32 1.703-.975 0-.648-.617-1.08-1.776-1.08h-.695V7.56h.695c.92 0 1.496-.304 1.496-.984 0-.607-.672-.887-1.44-.887a5.32 5.32 0 0 0-1.887.328v-.68A5.005 5.005 0 0 1 5 5c1.392 0 2.28.56 2.28 1.543a1.43 1.43 0 0 1-.944 1.32 1.574 1.574 0 0 1 1.223 1.471c0 .975-.976 1.647-2.559 1.647a5.637 5.637 0 0 1-2-.321zm6-2.407A2.92 2.92 0 0 1 12.262 5a5.13 5.13 0 0 1 1.527.191v.712a5.52 5.52 0 0 0-1.495-.2c-1.487 0-2.319.624-2.439 2.047a3.042 3.042 0 0 1 1.903-.6c1.552 0 2.415.752 2.415 1.92 0 .983-.784 1.91-2.503 1.91A2.414 2.414 0 0 1 9 8.254zm.831.112c.048 1.551.832 1.975 1.839 1.975 1.031 0 1.663-.447 1.663-1.272 0-.839-.592-1.239-1.663-1.239a3.241 3.241 0 0 0-1.839.536zm5.569-.384C15.4 6.327 16.104 5 18.087 5c2.022 0 2.686 1.304 2.686 2.998 0 1.655-.704 2.982-2.687 2.982-2.022 0-2.686-1.302-2.686-2.998zm4.542.008c0-1.303-.464-2.358-1.855-2.358S16.23 6.679 16.23 7.99c0 1.304.464 2.358 1.856 2.358s1.855-1.046 1.855-2.358z"/></symbol><symbol viewBox="0 0 48 48" id="audiicon-vimeo-large"><path d="M36.568 17.824q-.178 3.88-5.421 10.626-5.42 7.044-9.172 7.045-2.325 0-3.933-4.29l-2.145-7.867q-1.193-4.289-2.56-4.29a8.224 8.224 0 0 0-2.087 1.251L10 18.69q1.968-1.729 3.879-3.459 2.624-2.267 3.94-2.387 3.101-.298 3.818 4.242.775 4.898 1.075 6.09.895 4.065 1.97 4.063.834 0 2.506-2.636a10.384 10.384 0 0 0 1.79-4.013q.238-2.275-1.79-2.277a4.983 4.983 0 0 0-1.967.436q1.96-6.417 7.486-6.238 4.096.12 3.861 5.314z"/></symbol><symbol viewBox="0 0 24 24" id="audiicon-vimeo-small"><path d="M17.994 8.98q-.087 1.897-2.652 5.196-2.65 3.445-4.485 3.446-1.137 0-1.924-2.099l-1.049-3.847Q7.301 9.58 6.632 9.578a4.022 4.022 0 0 0-1.02.612L5 9.402q.962-.845 1.897-1.691a4.303 4.303 0 0 1 1.927-1.168q1.517-.145 1.867 2.075.38 2.395.526 2.979.438 1.987.963 1.987a2.456 2.456 0 0 0 1.226-1.29 5.079 5.079 0 0 0 .875-1.963.837.837 0 0 0-.875-1.113 2.437 2.437 0 0 0-.962.213q.958-3.139 3.661-3.05 2.004.058 1.889 2.598z"/></symbol><symbol viewBox="0 0 48 48" id="audiicon-voice-call-large"><g fill="none" stroke="currentColor"><path d="M34.5 46l7-7.5a1.587 1.587 0 0 0 0-2l-5-5a1.587 1.587 0 0 0-2 0l-2.5 2s-1.326 2.19-9.814-6.298l-1.012-1.012C12.686 17.702 14.5 17 14.5 17l2-3.5a1.587 1.587 0 0 0 0-2l-4-4a1.587 1.587 0 0 0-2 0l-8 7a86.576 86.576 0 0 0 32 31.5z"/><path d="M26 1.5A20.5 20.5 0 0 1 46.5 22M26 11.5A10.5 10.5 0 0 1 36.5 22" stroke-miterlimit="10"/></g></symbol><symbol viewBox="0 0 24 24" id="audiicon-voice-call-small"><g fill="none" stroke="currentColor"><path d="M17.5 23.5l4-4a.794.794 0 0 0 0-1l-3-3a.794.794 0 0 0-1 0L16 16.75s-.663 1.095-4.907-3.149l-.506-.506C6.343 8.851 7.5 8.5 7.5 8.5l1-1a.794.794 0 0 0 0-1l-3-3a.794.794 0 0 0-1 0l-4 4a51.432 51.432 0 0 0 17 16z"/><path d="M13 .75A10.25 10.25 0 0 1 23.25 11M13 5.75A5.25 5.25 0 0 1 18.25 11" stroke-miterlimit="10"/></g></symbol><symbol viewBox="0 0 48 48" id="audiicon-weblink-large"><path d="M35.554 38.748L31.5 28.961m-2.493 5.388l2.398-5.788 5.788 2.397" fill="none" stroke="currentColor" stroke-miterlimit="10"/><path d="M31.294 19h1.475l2.447 5.58L37.525 19h1.257l2.35 5.567L43.553 19H45l-3.28 7h-1.256l-2.337-5.567L35.83 26h-1.257zm-14.146 0h1.475l2.447 5.58L23.379 19h1.257l2.35 5.567L29.407 19h1.448l-3.28 7h-1.256l-2.338-5.567L21.684 26h-1.257zM3 19h1.476l2.447 5.58L9.232 19h1.257l2.351 5.567L15.258 19h1.449l-3.28 7h-1.256l-2.338-5.567L7.537 26H6.28z"/></symbol><symbol viewBox="0 0 24 24" id="audiicon-weblink-small"><path d="M19.845 20.457L16.726 12.8m-1.803 4.351l1.803-4.351 4.351 1.802" fill="none" stroke="currentColor" stroke-miterlimit="10"/><path d="M16.082 7.006h1.228l1.085 2.701.995-2.701h1.288l1.017 2.701 1.1-2.701H24l-1.683 3.838h-1.265l-1.026-2.626-.987 2.626h-1.272zm-8.041 0H9.27l1.084 2.701.996-2.701h1.288l1.017 2.701 1.1-2.701h1.205l-1.684 3.838H13.01l-1.025-2.626-.987 2.626H9.726zM0 7.006h1.228l1.084 2.701.996-2.701h1.288l1.017 2.701 1.1-2.701h1.205l-1.684 3.838H4.97L3.944 8.218l-.987 2.626H1.685z"/></symbol></svg>